<?xml version="1.0" encoding="utf-8"?>
<!-- Generator: Adobe Illustrator 27.2.0, SVG Export Plug-In . SVG Version: 6.00 Build 0)  -->
<svg version="1.1" id="Capa_1" xmlns="http://www.w3.org/2000/svg" xmlns:xlink="http://www.w3.org/1999/xlink" x="0px" y="0px"
	 viewBox="0 0 122.9 78.9" style="enable-background:new 0 0 122.9 78.9;" xml:space="preserve">
<path d="M119.1,14.3L61.6,4L4.1,14.3v51.4L61.6,76l57.5-10.3V14.3z M61.6,67.1l-48.8-8.7V21.6l48.8-8.7l48.8,8.7v36.8L61.6,67.1z
	 M38.1,25.1l-8.4,30H21c0,0,5.2-18.5,5.8-19.9c0.5-1.7-1.9-0.9-1.9-0.9h-2.8l1.2-4.7c2.4,0,7.7-2.1,9.2-4.4L38.1,25.1
	C38.1,25.2,38.1,25.1,38.1,25.1z M84.3,39c3.5,0,5.8-1.6,6.6-5.1l1.6-5.6c0.5-1.7,0.3-3-0.2-3.8c-0.7-0.9-1.9-1.2-3.7-1.2
	c-3.5,0-5.8,1.6-6.6,5.1L80.4,34c-0.5,1.7-0.3,3,0.2,3.8C81.3,38.5,82.5,39,84.3,39z M84.9,34.7l1.9-7.1c0.3-1,0.7-1,0.9-1
	s0.2,0,0.2,0.2c0,0,0.2,0.3,0,0.9L86,34.8c-0.3,1-0.7,1-0.9,1s-0.2,0-0.2-0.2C84.9,35.6,84.8,35.4,84.9,34.7z M100.1,22.8h3.8
	L82.5,57.3h-3.8L100.1,22.8z M56.9,25.8c-1.2-1.6-3.3-2.3-6.4-2.3c-3,0-9.9,0.9-12.2,9.4l-4.2,15c-0.7,2.8-0.5,4.9,0.5,6.4
	c1.2,1.6,3.5,2.4,6.6,2.4c6.3,0,10.3-3,11.8-8.7l4.2-15C58.3,29.6,58.1,27.4,56.9,25.8z M49.2,31.5l-4.7,17.2
	c-0.3,1.2-0.9,1.7-1.6,1.7c-0.2,0-0.3-0.2-0.5-0.2c-0.2-0.3-0.2-0.9,0-1.6l4.7-17.2c0.3-1.2,0.9-1.7,1.6-1.7c0.2,0,0.5,0.2,0.5,0.3
	C49.4,30.2,49.4,30.7,49.2,31.5z M98.4,41c-3.5,0-5.8,1.6-6.6,5.1l-1.6,5.6c-0.5,1.7-0.3,3,0.2,3.8c0.7,0.9,1.9,1.2,3.7,1.2
	c3.5,0,5.7-1.6,6.6-5.1l1.6-5.6c0.5-1.7,0.3-3-0.2-3.8C101.5,41.5,100.3,41,98.4,41z M97.8,45.3l-1.9,7.1c-0.3,1-0.7,1-0.9,1
	s-0.2,0-0.2-0.2c0,0-0.2-0.3,0-0.9l1.9-7.1c0.3-1,0.7-1,0.9-1s0.2,0,0.2,0.2C97.8,44.4,98,44.6,97.8,45.3z M78.2,25.8
	c-1.2-1.6-3.3-2.3-6.4-2.3c-3,0-9.9,0.9-12.2,9.4l-4.2,15c-0.7,2.8-0.5,4.9,0.5,6.4c1.2,1.6,3.5,2.4,6.6,2.4c6.3,0,10.3-3,11.8-8.7
	l4.2-15C79.5,29.6,79.4,27.4,78.2,25.8z M70.5,31.5l-4.7,17.2c-0.3,1.2-0.9,1.7-1.6,1.7c-0.2,0-0.3-0.2-0.5-0.2
	c-0.2-0.3-0.2-0.9,0-1.6l4.7-17.2c0.3-1.2,0.9-1.7,1.6-1.7c0.2,0,0.5,0.2,0.5,0.3C70.7,30.2,70.7,30.7,70.5,31.5z"/>
</svg>
