<?xml version="1.0" encoding="UTF-8"?>
<svg xmlns="http://www.w3.org/2000/svg" version="1.1" viewBox="0 0 790.9 267.1">
  <!-- Generator: Adobe Illustrator 28.6.0, SVG Export Plug-In . SVG Version: 1.2.0 Build 709)  -->
  <g>
    <g id="Capa_1">
      <g>
        <path d="M502,255.8V13.5c.5,0,.9-.2,1.2-.2,24.2,0,48.5-.1,72.7.3,7.1.1,14.3,1.4,21.2,3.3,13.8,3.7,21.5,13,22.3,27.2.9,17.4,1.2,34.8,1.4,52.1,0,7.3-1.1,14.5-3.7,21.3-3.3,8.7-9.1,15-17.7,18.8-.6.3-1.2.6-2.3,1.1,1.2.4,1.9.7,2.7,1,12.1,4.2,18.8,13,19.2,25.8.2,7.5.1,15,.1,22.5,0,22,0,44.1,0,66.1,0,1,0,1.9,0,2.9h-50.9c0-.2,0-.3,0-.5,0-29.4,0-58.7,0-88.1,0-3.9-2.6-7-6.7-7.5-2.8-.3-5.7,0-8.7,0v96.1h-50.9ZM553,52.2v62.3c2.7,0,5.4.1,8,0,4.2-.2,7.3-3.4,7.3-7.6,0-15.7,0-31.4,0-47.1,0-4-3.1-7.2-7-7.5-2.7-.2-5.4,0-8.3,0Z"/>
        <path d="M313.9,255.8c-3.6-.5-7.3-.7-10.8-1.5-4.5-1-9.1-2.1-13.2-4-9.6-4.5-13.5-13-14.8-22.9-.5-3.9-.7-7.8-.7-11.7,0-55.2,0-110.3,0-165.5,0-4.6.5-9.3,1.3-13.8,2.4-12.5,10.2-20,22.5-22.5,6.5-1.3,13.3-2.2,19.9-2.3,12.5-.3,25.1,0,37.6.4,6.4.2,12.7,1.7,18.6,4.3,10.5,4.6,15.9,12.9,17.2,24.1.3,2.8.4,5.7.4,8.6,0,15.2,0,30.5,0,45.7v2.9h-50.2c0-.9,0-1.9,0-2.8,0-11.9,0-23.8,0-35.7,0-3.6-2-6.4-5.3-7.5-3.1-1-6.4-.2-8.4,2.5-.9,1.3-1.7,3-1.7,4.6-.1,19.9,0,39.8,0,59.6,0,.1,0,.3.2.8.8-.5,1.5-1,2.1-1.5,9.5-6.6,19.9-10.3,31.6-8.7,14.8,2,24.3,10.8,28.8,24.7,1.8,5.7,2.8,11.9,2.8,17.8.3,23.4.1,46.8.1,70.2,0,15.4-7.1,26-21,30.5-4.9,1.6-10.1,2.1-15.2,3.1-.8.2-1.7.3-2.5.5h-39.3ZM341.8,185.1c0-7.5,0-15,0-22.5,0-5.1-3.1-8.5-7.7-8.6-4.4,0-7.8,3.6-7.8,8.5,0,15,0,30,0,45,0,5.1,3.2,8.4,8.1,8.5,4.6,0,7.3-3.1,7.4-8.4,0-7.5,0-15,0-22.5Z"/>
        <path d="M669.9,255.8c-3.6-.5-7.3-.7-10.8-1.5-4.5-1-9.1-2.1-13.2-4-9.5-4.4-13.4-12.8-14.7-22.6-.5-3.8-.7-7.6-.8-11.4,0-17.9,0-35.8,0-53.7v-2.9h52.1c0,.9,0,1.7,0,2.6,0,15.3,0,30.7,0,46,0,4.1,2.8,7.2,6.7,7.8,3.5.5,7.3-1.8,8.3-5.4.3-1,.3-2,.3-3.1,0-13.1,0-26.2,0-39.3,0-6.3-2.2-10.6-8-13.7-11-5.7-21.7-11.8-32.4-18-6.6-3.9-12.6-8.8-17.5-14.8-6.3-7.6-9.5-16.4-9.5-26.2,0-15.5-.1-31,0-46.5,0-4.2.5-8.5,1.3-12.6,2.4-12.5,10.3-20,22.6-22.5,6.5-1.3,13.3-2.2,19.9-2.3,12.5-.3,25.1-.2,37.6.5,5.9.3,11.9,1.9,17.4,3.9,11.2,4.1,17,12.7,18.4,24.4.3,2.7.4,5.4.4,8.1,0,15.3,0,30.7,0,46v3.1h-50.2v-2.7c0-11.9,0-23.8,0-35.7,0-3.6-2-6.4-5.3-7.5-3.1-1.1-6.6-.1-8.5,2.7-.9,1.3-1.5,3.1-1.6,4.6-.1,10.5,0,20.9,0,31.4,0,3.3,1.7,5.9,3.9,8.2,5,5.1,11.1,8.5,17.4,11.7,7.5,3.8,15.2,7.2,22.6,11,3.9,2,7.6,4.5,11,7.2,6.3,5.2,9,12.3,9.8,20.1.6,5.4.9,10.8.9,16.2.1,18.9,0,37.8,0,56.8,0,6-1.1,11.7-4,17.1-4.4,8.2-11.8,12.3-20.5,14.5-4,1-8.2,1.4-12.3,2.1-.7.1-1.4.3-2.1.5h-39.3Z"/>
        <path d="M145,255.8c0-.9.2-1.9.2-2.8,0-11,0-22,0-33,0-1.4.4-3,1.1-4.3,21.1-37.6,42.2-75.2,63.3-112.9.7-1.3,1.2-3,1.2-4.5,0-12.4,0-24.7,0-37.1,0-1.5,0-3.1-.5-4.5-1-3.5-4.6-5.8-8.1-5.4-3.7.4-6.6,3.3-6.9,7.1-.2,1.8,0,3.7,0,5.5,0,11.2,0,22.3,0,33.7h-50.1c0-.8,0-1.6,0-2.4,0-16.4,0-32.9,0-49.3,0-11.7,3.6-22.1,14.7-27.9,4.4-2.4,9.5-3.9,14.4-4.9,5.5-1.1,11.3-1.5,16.9-1.5,11.7,0,23.3,0,35,.5,4.7.2,9.4,1.1,13.9,2.2,12.8,3,19.9,11.5,21.8,24.3.6,3.9.9,7.9.9,11.9.1,17.4,0,34.8.1,52.2,0,8.8-2.5,16.9-6.6,24.4-8.2,15-16.6,29.8-25,44.7-8.2,14.5-16.4,29-24.6,43.5-.3.6-.6,1.2-1.1,2.2h57.3v38.3h-118Z"/>
        <path d="M16,40.7c.4-1.6.8-3.2,1.2-4.8,3-12.4,11.6-19.1,23.5-21.9,5.9-1.4,12.1-2.3,18.2-2.4,12.7-.2,25.4,0,38.1.5,4.8.2,9.7,1.2,14.4,2.3,12.2,3,19.2,11.2,21.2,23.5.6,4,1,8.1,1,12.1.1,14.8-.6,29.6.2,44.3.8,15-3.6,28.2-10.8,40.9-15.1,26.4-30.1,53-45.1,79.5-.5.8-.9,1.6-1.5,2.8h57.2v38.3H16c0-12.9,0-25.9,0-38.8.4-.5.8-1,1.1-1.5,21.2-37.7,42.5-75.5,63.7-113.3.4-.7.8-1.6.8-2.4,0-13.7,0-27.3,0-41,0-3.3-2.2-6.1-5.1-7.1-5.2-1.9-10.3,1.9-10.3,7.8,0,11.7,0,23.5,0,35.2,0,.9,0,1.9,0,2.8-.5.1-.7.2-1,.2-16.4,0-32.8,0-49.2,0,0-19,0-38,0-57Z"/>
        <path d="M406,255.8c0-1.2.2-2.4.2-3.6,0-78.5,0-156.9,0-235.4s0-2.2,0-3.4h81.2v38.7h-30.2v50.4h30.2v39.5h-30.2v74.3h30.3v39.4h-81.6Z"/>
        <path d="M780.4,28.5c0,7-5.8,12.7-12.8,12.7-6.8,0-12.6-5.9-12.5-12.8,0-7,5.6-12.6,12.6-12.6,7.2,0,12.7,5.5,12.7,12.7ZM777.9,28.4c0-5.7-4.5-10.3-10.1-10.3-5.6,0-10.1,4.6-10.1,10.3,0,5.7,4.6,10.3,10.1,10.3,5.6,0,10.1-4.6,10.1-10.3Z"/>
        <path d="M762.5,21.5c2.3,0,4.5-.1,6.6,0,1.9.1,3.9.5,4.6,2.7.7,2.2-.5,3.6-2.4,4.8.9,1.9,1.7,3.7,2.5,5.5-4.7,2-5.4-1.8-7.1-4.5v4.7h-4.4v-13.2ZM766.8,27.2c1.3.1,2.7.2,2.6-1.4,0-.6-1.4-1.1-2.6-2v3.4Z"/>
      </g>
    </g>
  </g>
</svg>