<?xml version="1.0" encoding="utf-8"?>
<!-- Generator: $$$/GeneralStr/196=Adobe Illustrator 27.6.0, SVG Export Plug-In . SVG Version: 6.00 Build 0)  -->
<svg version="1.1" id="Capa_1" xmlns="http://www.w3.org/2000/svg" xmlns:xlink="http://www.w3.org/1999/xlink" x="0px" y="0px"
	 viewBox="0 0 612 606.9" style="enable-background:new 0 0 612 606.9;" xml:space="preserve">
<style type="text/css">
	.st0{fill:#D51016;}
	.st1{fill:#FFFFFF;}
</style>
<g>
	<circle class="st0" cx="306" cy="300" r="291.4"/>
	<path class="st1" d="M280,463.6C280,463.6,280,463.6,280,463.6c56.4,0,112.9-0.1,169.3,0c3.3,0,4.5-0.7,5.1-4.3
		c1.9-12.4,1.5-25,3.7-37.3c0.6-3.5-0.4-4.3-3.8-4.4c-8.5-0.1-17.2,1.1-25.6-1c-6.4-1.6-13.3-2.7-18.1-7.5c-8.3-8.3-9.8-19-7.6-29.9
		c2.5-12.2,5.2-24.3,7.6-36.4c2.5-12.4,5.2-24.7,7.7-37c2.4-12.2,5-24.4,7.6-36.6c2.6-12.2,5-24.4,7.5-36.5
		c2.5-12.3,5.1-24.7,7.8-37c3.9-18.4,7.4-36.8,11.5-55.1c3.3-15.1,5.9-30.4,9.8-45.4c1.5-5.8,1.3-6.3-4.7-6.3
		c-40.5-0.1-81.1,0-121.6-0.1c-2.6,0-4.1,0.8-4.8,3.4c-1.5,5-4.1,9.3-7,13.6c-4.9,7.4-11.1,13.7-17.5,19.7
		c-10.6,9.9-21.7,19.4-35.2,24.7c-12.4,4.9-25.4,8.1-39.2,8.4c-18.3,0.4-36.5,1-54.3-3.7c-2.8-0.7-3.3,1-4.1,2.7
		c-6.1,12.9-12.1,25.8-18.2,38.7c-1.9,4-1.7,4.5,2.9,4.4c7.6-0.1,15.2-0.3,22.8-0.4c8.3-0.1,16.5,1.6,23.9,4.9
		c12,5.3,15.5,15.2,14.7,28.6c-0.6,10.6-3.5,20.8-5,31.2c-2.3,16.1-5.9,31.9-9.1,47.8c-3.4,16.8-7,33.6-11.5,50.1
		c-3.5,12.9-6.6,25.9-12.5,38c-6.4,13.2-17.9,18.3-31.4,20.5c-10.9,1.8-21.8,1.3-32.6,0c-4.2-0.5-5.7,1.3-6.6,5.3
		c-2.3,10.2-2.4,20.7-4.6,30.9c-1.2,5.9-1,5.9,5.3,5.9C168.1,463.6,224.1,463.6,280,463.6z"/>
	<path d="M354.9,268c7.8,3.8,16.3,5.2,21.7,12.4c1.9,2.5,2.9,4.9,3.1,8.1c0.6,9.5,0.5,18.9,0.1,28.4c-0.4,9.3-5.2,15.4-12,20.4
		c-7.3,5.4-15.8,8.5-24.3,10.8c-6.3,1.7-13.1,2.2-19.7,2.7c-18.8,1.3-37.4,0.2-55.3-6c-9.8-3.4-18.9-8.6-23.7-18.8
		c-3.2-6.7-1.4-13.8-1.6-20.7c0-1.5,1.5-1.3,2.6-1.3c13.7,0,27.3,0.1,41,0c2.3,0,3.1,1,3,3.2c-0.1,2.4,0,4.8,0,7.1
		c0,6.4,3.7,10.3,9.8,12c8.2,2.2,16.1,2.2,24.3,0c6.6-1.8,9.9-5.3,9.9-12.2c0-7.6,0.1-15.3,0-22.9c0-5.7-4-9.8-9.7-10.9
		c-7.7-1.4-15.4-1.7-23.1-1.9c-2.8-0.1-3.5-1.1-3.4-3.7c0.2-4.6,0.2-9.2,0-13.8c-0.2-2.9,1-3.3,3.6-3.4c7-0.1,14,0.7,20.9-1
		c7.7-1.9,12.8-4.2,11.9-14.5c-0.4-5.2-0.4-10.5,0-15.7c0.5-5.4-1.1-8.3-8.6-11c-9.2-3.2-18.3-3.1-27.4,0.1
		c-5.3,1.9-8.2,5.5-8.2,11.2c0,10.7,0,10.7-10.5,10.7c-10.8,0-21.6-0.1-32.4,0.1c-3.2,0.1-4.3-1-4-4.1c0.6-5.9-0.8-11.9,2.2-17.7
		c3.7-7,9.3-11.9,16.1-14.9c24.9-11.3,50.9-13.9,77.7-8.3c11.1,2.3,21.4,6.2,30.5,12.9c6.4,4.7,9.5,11.3,10.3,19.4
		c0.7,7.6,0.2,15.1,0,22.6c-0.2,7-4.1,10.9-9.8,14.3C365.3,264.4,359.6,265,354.9,268z"/>
	<path d="M338.7,411c0-11.8,0.1-23-0.1-34.3c0-2.8,0.7-4,3.7-3.9c5.1,0.2,10.2,0.1,15.2,0c2.3-0.1,3,0.8,3,3c-0.1,20-0.1,40,0,60
		c0,2.4-0.9,3-3.1,2.9c-4.9-0.1-9.8,0-14.8-0.1c-5,0-6.3-4.8-8.7-7.6c-8.5-9.7-16.5-19.9-24.7-30c-1.9,1.5-1.2,3.2-1.2,4.6
		c-0.1,9.7-0.2,19.4,0,29.1c0.1,3.2-1,4.1-4,3.9c-4.8-0.2-9.5-0.1-14.3,0c-2.3,0.1-3-0.8-3-3c0.1-19.9,0.1-39.7,0-59.6
		c0-2.9,1.2-3.5,3.7-3.4c4,0.2,8,0.4,11.9-0.1c3.9-0.4,6.4,1.6,8.3,4.2c8.5,11.5,18,22.2,26.8,33.4C337.7,410.6,338,410.7,338.7,411
		z"/>
	<path d="M219.4,406c0-9.9,0.1-19.7-0.1-29.6c0-2.6,0.6-3.6,3.4-3.6c18.8,0.1,37.5,0.2,56.3-0.1c5.6-0.1,3.3,3.6,3.7,6.1
		c0.7,3.4-1.1,3.9-4,3.9c-10.8-0.1-21.6,0.2-32.4,0c-4.2-0.1-5.5,1.6-5.6,5.6c-0.4,12.9-0.5,12.9,12.6,13c6.7,0,13.4,0.3,20,0
		c4-0.2,3.4,2.2,3.4,4.5c0,2.4,0.6,4.6-3.4,4.5c-9.4-0.3-18.8,0-28.1-0.2c-3.4-0.1-4.5,1.1-4.3,4.3c0.2,4.7-1.5,10.8,0.8,13.9
		c2.2,3,8.6,0.8,13.2,0.9c8.3,0.2,16.5,0.1,24.8,0c2.2,0,4.1,0.2,3.1,3c-0.9,2.2,3,6.6-2.9,6.6c-19.1,0-38.2-0.1-57.2,0
		c-2.6,0-3.2-0.9-3.2-3.3C219.5,425.7,219.4,415.8,219.4,406z"/>
</g>
</svg>
