<?xml version="1.0" encoding="utf-8"?>
<!-- Generator: Adobe Illustrator 27.5.0, SVG Export Plug-In . SVG Version: 6.00 Build 0)  -->
<svg version="1.1" id="Capa_1" xmlns="http://www.w3.org/2000/svg" xmlns:xlink="http://www.w3.org/1999/xlink" x="0px" y="0px"
	 viewBox="0 0 50.6 28" style="enable-background:new 0 0 50.6 28;" xml:space="preserve">
<style type="text/css">
	.st0{fill:#FF0000;}
</style>
<g id="Page-1">
	<g id="Trifecta-3M-001-Lockup-CMYK-Pos">
		<path id="Shape" class="st0" d="M38.8,0.6l-3.6,14.5L31.7,0.6H21.2v5.4C20,1.2,15.5,0.1,11.4,0C6.4-0.1,1.2,2.1,1,8.8h6.9
			c0-2,1.5-3.2,3.3-3.1c2.1,0,3.1,0.9,3.1,2.3c-0.1,1.2-0.8,2.1-3.1,2.1H8.8v4.8H11c1.2,0,2.9,0.7,2.9,2.4c0.1,2-1.3,2.9-3.1,3
			c-3.1-0.1-3.6-2.5-3.6-4.6H0C0,17-0.3,26.1,11,26c5.4,0.1,9.2-2.2,10.3-5.4v4.8h7.1V9.8l3.8,15.7h6.2l3.9-15.7v15.7h7.1V0.6H38.8z
			 M21.2,15.1c-0.9-1.8-2.1-2.6-2.8-2.9c1.5-0.7,2.2-1.5,2.8-3.3V15.1z"/>
	</g>
</g>
</svg>
