<?xml version="1.0" encoding="utf-8"?>
<!-- Generator: Adobe Illustrator 27.5.0, SVG Export Plug-In . SVG Version: 6.00 Build 0)  -->
<svg version="1.1" id="Capa_1" xmlns="http://www.w3.org/2000/svg" xmlns:xlink="http://www.w3.org/1999/xlink" x="0px" y="0px"
	 viewBox="0 0 170.3 65.5" style="enable-background:new 0 0 170.3 65.5;" xml:space="preserve">
<style type="text/css">
	.st0{fill-rule:evenodd;clip-rule:evenodd;}
	.st1{fill:#C1311C;}
	.st2{fill:none;stroke:#FFFFFF;stroke-width:2.2554;stroke-miterlimit:2.6131;}
	.st3{fill-rule:evenodd;clip-rule:evenodd;fill:#FFFFFF;}
</style>
<g>
	<polygon class="st0" points="9.7,57.1 9,57.1 8,62.8 8,62.8 6.6,57.1 6,57.1 4.8,62.8 4.8,62.8 3.7,57.1 2.9,57.1 4.4,64.1 
		5.1,64.1 6.3,58.7 7.6,64.1 8.3,64.1 9.7,57.1 	"/>
	<path class="st0" d="M14,64.2c1.6,0,2.4-1.9,2.4-3.7S15.6,57,14,57s-2.4,1.9-2.4,3.7C11.6,62.4,12.3,64.2,14,64.2L14,64.2L14,64.2z
		 M14,63.5c-1.2,0-1.6-1.6-1.6-2.8c0-1.3,0.4-2.9,1.6-2.9c0.6,0,1.1,0.3,1.3,0.9c0.2,0.6,0.3,1.3,0.3,1.9
		C15.6,61.7,15.2,63.5,14,63.5L14,63.5L14,63.5z"/>
	<path class="st0" d="M23.1,64.1L22,60.9c0.6-0.2,1.1-1,1.1-1.8c0-0.6-0.2-1.1-0.6-1.5c-0.4-0.3-0.9-0.4-1.4-0.4H19v7h0.7v-3h1.5
		l1.1,3H23.1L23.1,64.1z M19.7,60.4v-2.5h1.4c0.3,0,0.6,0,0.8,0.2c0.3,0.2,0.4,0.6,0.4,1c0,0.3-0.1,0.6-0.2,0.9
		c-0.3,0.4-0.6,0.4-1.1,0.4H19.7L19.7,60.4z"/>
	<polygon class="st0" points="29.2,63.3 26.5,63.3 26.5,57.1 25.7,57.1 25.7,64.1 29.2,64.1 29.2,63.3 	"/>
	<path class="st0" d="M31.5,64.1h2c0.8,0,1.4-0.3,1.9-1.1c0.4-0.6,0.6-1.5,0.6-2.4c0-0.9-0.2-1.8-0.6-2.5c-0.6-0.7-1.2-1-2-1h-1.8
		V64.1L31.5,64.1z M32.2,63.4v-5.5h1.1c0.6,0,1.1,0.1,1.5,0.7c0.3,0.6,0.5,1.3,0.5,2c0,0.6-0.1,1.3-0.4,1.9
		c-0.4,0.6-0.9,0.9-1.5,0.9H32.2L32.2,63.4z"/>
	<polygon class="st0" points="46,63.3 43.3,63.3 43.3,57.1 42.6,57.1 42.6,64.1 46,64.1 46,63.3 	"/>
	<polygon class="st0" points="52,63.4 49,63.4 49,60.8 51.4,60.8 51.4,60.1 49,60.1 49,57.9 52,57.9 52,57.1 48.3,57.1 48.3,64.1 
		52,64.1 52,63.4 	"/>
	<path class="st0" d="M58.5,64.1l-1.9-7h-0.9l-1.9,7h0.6l0.5-2h2.1l0.6,2H58.5L58.5,64.1z M57,61.4h-1.7l0.9-3.3L57,61.4L57,61.4z"
		/>
	<path class="st0" d="M60.8,64.1h2c0.8,0,1.4-0.3,1.9-1.1c0.4-0.6,0.6-1.5,0.6-2.4c0-0.9-0.2-1.8-0.6-2.5c-0.6-0.7-1.2-1-2-1h-1.8
		V64.1L60.8,64.1z M61.5,63.4v-5.5h1.1c0.6,0,1.1,0.1,1.5,0.7c0.3,0.6,0.5,1.3,0.5,2c0,0.6-0.1,1.3-0.4,1.9
		c-0.4,0.6-0.9,0.9-1.5,0.9H61.5L61.5,63.4z"/>
	<polygon class="st0" points="71.6,63.4 68.6,63.4 68.6,60.8 70.9,60.8 70.9,60.1 68.6,60.1 68.6,57.9 71.5,57.9 71.5,57.1 
		67.9,57.1 67.9,64.1 71.6,64.1 71.6,63.4 	"/>
	<path class="st0" d="M78.2,64.1l-1.1-3.2c0.7-0.2,1.1-1,1.1-1.8c0-0.6-0.2-1.1-0.6-1.5c-0.4-0.3-0.8-0.4-1.3-0.4H74v7h0.7v-3h1.6
		l1.1,3H78.2L78.2,64.1z M74.8,60.4v-2.5h1.5c0.3,0,0.6,0,0.8,0.2c0.2,0.2,0.4,0.6,0.4,1c0,0.3-0.2,0.6-0.3,0.9
		c-0.3,0.4-0.6,0.4-1,0.4H74.8L74.8,60.4z"/>
	<polygon class="st0" points="85.6,64.1 85.6,57.1 84.8,57.1 84.8,64.1 85.6,64.1 	"/>
	<polygon class="st0" points="92.8,64.1 92.8,57.1 92.2,57.1 92.2,62.8 89.5,57.1 88.6,57.1 88.6,64.1 89.1,64.1 89.1,58 92.1,64.1 
		92.8,64.1 	"/>
	<path class="st0" d="M100.4,63.4v-2.6h1.4c0.3,0,0.6,0,0.9,0.2c0.3,0.2,0.5,0.7,0.5,1.1c0,0.3-0.2,0.6-0.4,0.9
		c-0.2,0.2-0.6,0.3-0.9,0.3H100.4L100.4,63.4z M100.4,60.1v-2.3h1.3c0.3,0,0.6,0,0.8,0.2c0.3,0.2,0.5,0.5,0.5,0.9
		c0,0.3-0.2,0.7-0.4,1c-0.3,0.2-0.6,0.2-1.1,0.2H100.4L100.4,60.1z M101.8,64.1c0.6,0,1-0.1,1.5-0.5c0.4-0.3,0.6-0.9,0.6-1.5
		c0-0.9-0.5-1.5-1.2-1.8l0,0c0.6-0.2,1-0.7,1-1.5c0-0.6-0.2-1.1-0.6-1.4c-0.4-0.3-0.7-0.3-1.2-0.3h-2.2v7H101.8L101.8,64.1z"/>
	<path class="st0" d="M110.6,64.1l-1.1-3.2c0.6-0.2,1.1-1,1.1-1.8c0-0.6-0.2-1.1-0.6-1.5c-0.4-0.3-0.8-0.4-1.3-0.4h-2.2v7h0.7v-3
		h1.6l1.1,3H110.6L110.6,64.1z M107.1,60.4v-2.5h1.5c0.3,0,0.6,0,0.8,0.2c0.2,0.2,0.4,0.6,0.4,1c0,0.3-0.1,0.6-0.3,0.9
		c-0.2,0.4-0.6,0.4-1,0.4H107.1L107.1,60.4z"/>
	<path class="st0" d="M117.2,64.1l-1.9-7h-0.8l-1.9,7h0.6l0.5-2h2.1l0.6,2H117.2L117.2,64.1z M115.6,61.4h-1.8l0.9-3.3L115.6,61.4
		L115.6,61.4z"/>
	<path class="st0" d="M119,62.2c0.4,1.3,1.1,1.9,2.4,1.9c0.5,0,1.1-0.1,1.5-0.5c0.4-0.4,0.6-1,0.6-1.6c0-0.5-0.2-1-0.6-1.4
		c-0.3-0.2-0.6-0.4-1.1-0.5l-0.9-0.2c-0.5-0.2-1.1-0.3-1.1-1.1c0-0.7,0.7-1.1,1.3-1.1c0.6,0,1.2,0.5,1.4,1.2l0.6-0.2
		c-0.3-1.1-1.1-1.7-2-1.7c-1.1,0-1.9,0.6-1.9,1.9c0,0.5,0.2,1,0.4,1.3c0.3,0.3,0.7,0.5,1.1,0.6l1,0.3c0.5,0.2,1,0.4,1,1.1
		c0,0.3-0.1,0.6-0.3,0.9c-0.2,0.2-0.7,0.3-1.1,0.3c-0.8,0-1.5-0.5-1.7-1.4L119,62.2L119,62.2z"/>
	<path class="st0" d="M125.8,62.2c0.4,1.3,1.1,1.9,2.4,1.9c0.5,0,1.1-0.1,1.5-0.5c0.5-0.4,0.6-1,0.6-1.6c0-0.5-0.2-1-0.5-1.4
		c-0.3-0.2-0.6-0.4-1.1-0.5l-0.9-0.2c-0.5-0.2-1.1-0.3-1.1-1.1c0-0.7,0.7-1.1,1.3-1.1c0.6,0,1.2,0.5,1.4,1.2l0.6-0.2
		c-0.3-1.1-1.1-1.7-2-1.7c-1.1,0-1.9,0.6-1.9,1.9c0,0.5,0.2,1,0.4,1.3c0.3,0.3,0.7,0.5,1.1,0.6l1,0.3c0.5,0.2,1,0.4,1,1.1
		c0,0.3-0.1,0.6-0.3,0.9c-0.2,0.2-0.7,0.3-1.1,0.3c-0.8,0-1.5-0.5-1.7-1.4L125.8,62.2L125.8,62.2z"/>
	<polygon class="st0" points="140.3,63.3 137.6,63.3 137.6,57.1 136.9,57.1 136.9,64.1 140.3,64.1 140.3,63.3 	"/>
	<path class="st0" d="M144.7,64.2c1.6,0,2.4-1.9,2.4-3.7s-0.7-3.5-2.4-3.5c-1.7,0-2.4,1.9-2.4,3.7C142.3,62.4,143,64.2,144.7,64.2
		L144.7,64.2L144.7,64.2z M144.7,63.5c-1.2,0-1.6-1.6-1.6-2.8c0-1.3,0.3-2.9,1.6-2.9c0.6,0,1,0.3,1.3,0.9c0.2,0.6,0.3,1.3,0.3,1.9
		C146.3,61.7,145.9,63.5,144.7,63.5L144.7,63.5L144.7,63.5z"/>
	<path class="st0" d="M153.2,61.7c-0.2,0.9-0.6,1.7-1.5,1.7c-0.6,0-1.1-0.5-1.2-1.1c-0.2-0.5-0.3-1.1-0.3-1.7c0-1.2,0.3-2.8,1.6-2.8
		c0.8,0,1.2,0.7,1.4,1.6l0.7-0.2c-0.2-1.3-1-2.2-2.1-2.2c-1.6,0-2.4,1.7-2.4,3.5c0.1,1.7,0.7,3.7,2.4,3.7c1.2,0,1.9-1,2.2-2.3
		L153.2,61.7L153.2,61.7z"/>
	<polygon class="st0" points="161,64.1 159,59.6 160.6,57.1 159.8,57.1 157.2,61.2 157.2,57.1 156.5,57.1 156.5,64.1 157.2,64.1 
		157.2,62.2 158.5,60.3 160.2,64.1 161,64.1 	"/>
	<path class="st0" d="M162.8,62.2c0.4,1.3,1.2,1.9,2.4,1.9c0.6,0,1.1-0.1,1.5-0.5c0.4-0.4,0.6-1,0.6-1.6c0-0.5-0.2-1-0.6-1.4
		c-0.2-0.2-0.6-0.4-1.1-0.5l-0.8-0.2c-0.6-0.2-1.1-0.3-1.1-1.1c0-0.7,0.6-1.1,1.2-1.1c0.6,0,1.3,0.5,1.4,1.2l0.6-0.2
		c-0.2-1.1-1.1-1.7-2-1.7c-1,0-1.9,0.6-1.9,1.9c0,0.5,0.2,1,0.5,1.3c0.3,0.3,0.6,0.5,1.1,0.6l0.9,0.3c0.6,0.2,1.1,0.4,1.1,1.1
		c0,0.3-0.2,0.6-0.4,0.9c-0.2,0.2-0.6,0.3-1,0.3c-0.8,0-1.5-0.5-1.8-1.4L162.8,62.2L162.8,62.2z"/>
	<path class="st1" d="M154.8,43.9c-4.5,4.5-10.7,7.3-17.6,7.3H33.2c-6.9,0-13.1-2.8-17.6-7.3c-4.5-4.5-7.3-10.7-7.3-17.6
		c0-6.9,2.8-13.1,7.3-17.6c4.5-4.5,10.7-7.3,17.6-7.3h103.9c6.9,0,13.1,2.8,17.6,7.3c4.5,4.5,7.3,10.7,7.3,17.6
		C162.1,33.2,159.3,39.4,154.8,43.9L154.8,43.9z"/>
	<path class="st2" d="M137.1,46.1c11,0,19.8-8.8,19.8-19.8c0-11-8.8-19.8-19.8-19.8H33.2c-11,0-19.8,8.8-19.8,19.8
		c0,11,8.8,19.8,19.8,19.8H137.1L137.1,46.1z"/>
	<path class="st3" d="M110.7,39.3c4.3,0,4.3-4.5,4.3-4.5V17.2h2v-4.5h-12.3v22.2h-4V12.6H88.5v4.5h1.9v17.6c0,0,0,4.5,4.3,4.5
		c1.7,0,5,0,8,0C102.7,39.3,109,39.3,110.7,39.3L110.7,39.3z"/>
	<path class="st3" d="M117.9,31.2v3.5c0,0,0.1,4.5,4.3,4.5c4.2,0,9.3,0,13.6,0c4.3,0,4.2-4.5,4.2-4.5l0.1-10.8h-12.8v-6.8h3.6v3.6
		h9.3l-0.1-3.6c0,0,0-4.5-4.3-4.5c-4.1,0-9.3,0-13.6,0c-4.2,0-4.2,4.5-4.2,4.5V28h12.8v6.8h-3.6v-3.6H117.9L117.9,31.2z"/>
	<path class="st3" d="M29.1,39.3v-4.5h2.5L36,17.2h-2.4v-4.5h18.3l7.1,22.1h1.1v4.5h-11l-1.2-4.5h-8.7l-1.1,4.5H29.1L29.1,39.3z
		 M39.9,30.3h6.7l-3.3-13.2L39.9,30.3L39.9,30.3z"/>
	<path class="st3" d="M60.9,39.3v-4.5h2.7V17.2h-2.7v-4.5l22-0.1c0,0,4.4,0,4.4,4.5c0,3,0,4.4,0,6.5c0,2.2-1.5,2.2-1.5,2.2
		s1.5,0.1,1.5,2.1c0,2,0,2.4,0,6.8s-4.2,4.5-4.2,4.5H60.9L60.9,39.3z M73.3,23.7h4.8v-6.5h-4.8V23.7L73.3,23.7z M73.3,34.8h4.8v-6.6
		h-4.8V34.8L73.3,34.8z"/>
</g>
</svg>
