<?xml version="1.0" encoding="utf-8"?>
<!-- Generator: Adobe Illustrator 27.5.0, SVG Export Plug-In . SVG Version: 6.00 Build 0)  -->
<svg version="1.1" id="Capa_1" xmlns="http://www.w3.org/2000/svg" xmlns:xlink="http://www.w3.org/1999/xlink" x="0px" y="0px"
	 viewBox="0 0 558.7 108.7" style="enable-background:new 0 0 558.7 108.7;" xml:space="preserve">
<style type="text/css">
	.st0{fill-rule:evenodd;clip-rule:evenodd;}
</style>
<g>
	<path class="st0" d="M240.3,37.9h10.6c0,6.3,0,12.5,0,18.8c0,1.4,0.4,3.3,1.5,4.4c1.2,1.2,3.3,1.6,5,1.6c5.4,0,10.9,0,16.3,0
		c0,1.7,0,3.3,0,5c-6.1,0-12.1,0-18.2,0c-3.1,0-6.7-0.3-9.4-1.7c-1.7-0.9-3.1-1.9-4.1-3.4c-1.4-2.3-1.7-4.7-1.7-7.3V37.9L240.3,37.9
		z M183.2,67.7l20.5-30h12.2l20.2,30h-12.4l-4.6-7h-19l-4.5,7H183.2L183.2,67.7z M209.6,45.2l7.2,10.5h-14.5L209.6,45.2L209.6,45.2z
		 M316.1,37.9c-6.4,0-12.8,0-19.1,0c-4,0-8.3,0.8-11.8,2.6c-3,1.5-5,3.5-7.1,6.9c-1.2,4.6-1.6,8.1,1,12.4c2.4,3.2,4.2,4.7,7.1,6
		c3.8,1.7,7.5,1.9,11.6,1.9l3.1,0.1l15.4-0.1v-5c-5.8,0-11.5,0-17.3,0c-2.1,0-4.5-0.2-6.4-1.2c-1.8-1-2.9-2.7-3.4-5.5h27.1v-5.6
		c-9,0-18.1,0-27.1,0c0.2-1.3,0.6-2.5,1.1-3.3c1.8-3.3,5.9-3.5,9.2-3.6l16.8-0.1V37.9L316.1,37.9z M320.3,37.9h13l9.7,9.4l10.2-9.4
		h13.1l-16.5,15.1l15.5,14.8h-13.1l-9.5-9.2l-9.9,9.2h-13.4L336,52.8L320.3,37.9L320.3,37.9z M370.8,38c9.4,0,18.8,0,28.3,0
		c2.5,0,4.6,0.2,7.1,0.8c4.2,1,7.5,2.8,8.3,6.4c0.2,0.8,0.2,1.7,0.1,2.6c-0.4,4.9-3.6,6.2-7.6,7.5c2.7,1.2,5,2.3,6.4,5.1
		c1.1,2.1,1.3,4.7,1.4,7.3c-4,0-8.1,0-12.1,0c-0.1-1.3-0.2-2.4-0.4-3.6c-0.4-1.8-0.9-3.2-2-4.6c-2.3-2.7-5.6-2.5-8.7-2.6l-10.4-0.1
		v10.9h-10.3V38L370.8,38z M380.9,44.1c5.6,0,11.3,0,16.9,0c2.3,0,3.7,0.4,4.4,2c0.5,1.1,0.3,2.5,0,3.3c-0.8,2.1-2.7,2.3-4.7,2.3
		H381L380.9,44.1L380.9,44.1z M422.9,37.9c0,10,0,19.9,0,29.9h10.3V37.9C429.8,37.9,426.4,37.9,422.9,37.9L422.9,37.9z M453.1,67.8
		h-10.2V37.9h15.4l12.4,22.8L483,37.8h14.9v29.9h-9.7l0.1-21.4L476,67.7h-11.7l-11.3-21L453.1,67.8L453.1,67.8z M548.4,37.8
		c-9.6,0-19.2,0-28.8,0c-3.6,0-7.8,0.4-10.9,2.4c-2,1.3-3.2,3.2-3.2,6c0,1.9,0.8,3.8,2,5.3c2.8,3.5,7.5,4,11.8,4
		c5.3,0,10.1,0,15.1,0c2.3,0,4.4,0.4,4.7,3.1c0.2,2.4-1.2,3.4-3.5,3.7c-1.4,0.2-2.9,0.1-4.3,0.1c-8,0-16,0-24,0c0,1.8,0,3.7,0,5.5
		c10.7,0,21.3,0.1,31.9,0.1c5.5,0,10.9-1.3,11.7-8c0.4-2.9-0.8-6-3.8-7.7c-2.4-1.3-5.6-1.9-9.1-2.1c-4.5,0-8.9,0-13.4,0
		c-1.2,0-2.6,0.1-3.7,0c-2-0.3-3.9-1-4-3.4c-0.2-3.9,5.1-3.3,7.6-3.3c7.9,0,15.8,0,23.6,0C548.3,41.4,548.4,39.6,548.4,37.8
		L548.4,37.8z M165.5,78.6l-40.3-51.5c-1.4-1.9-3.5-3.5-5.6-4.7c-2-1-4.1-1.6-6.8-1.6l-19.7,0.2l40.9,57.7
		C144.6,78.6,155,78.6,165.5,78.6L165.5,78.6z M91.1,24l13.6,18.9c-6.8,9.8-13.5,19.7-20.3,29.4c-3.5,5-6.5,6.2-12.7,6.2l-23.5,0.1
		L91.1,24L91.1,24z M149,90.7c-12,3.5-24.2,5.6-37,5.9c-16.4,0.4-32.9-1.4-48.6-6.7c-10-3.4-20.7-8.8-28.5-16
		c-7.1-6.4-12-14.7-9.8-24.8c1.1-5.1,3.9-9.8,7.9-13.7c18.1-17.4,46.2-22.9,70.5-23.6C128.3,11,153,15,174.3,28.4
		c-5.1-4.1-10.6-7.6-16.5-10.4c-8-3.9-16.6-6.7-25.4-8.6C108.7,4.1,83,4.2,59.5,10.2C41.2,14.8,12.7,28.2,9.2,49.5
		c-1.4,8.7,0.6,15.2,6.1,22.1c6.5,8.2,13.7,13.6,23.1,18c11.8,5.5,23.8,8.8,36.6,10.7c18.2,2.7,39,2.4,57.8-1.5
		c14.2-2.9,29-8.3,40.2-17.7C165.1,84.9,157.5,88.2,149,90.7L149,90.7z"/>
</g>
</svg>
