<?xml version="1.0" encoding="UTF-8"?>
<svg xmlns="http://www.w3.org/2000/svg" version="1.1" viewBox="0 0 533 86">
  <defs>
    <style>
      .cls-1 {
        fill-rule: evenodd;
      }
    </style>
  </defs>
  <!-- Generator: Adobe Illustrator 28.6.0, SVG Export Plug-In . SVG Version: 1.2.0 Build 709)  -->
  <g>
    <g id="Capa_1">
      <path class="cls-1" d="M511.34,15.24h1.34c.64,0,1.08-.1,1.31-.29.23-.19.35-.44.35-.76,0-.2-.06-.38-.17-.54-.11-.16-.27-.28-.47-.36-.2-.08-.57-.12-1.11-.12h-1.26v2.07ZM510.23,19.09v-6.86h2.36c.81,0,1.39.06,1.75.19.36.13.64.35.86.66.22.32.32.65.32,1,0,.5-.18.94-.54,1.31-.36.37-.83.58-1.42.62.24.1.44.22.58.36.28.27.62.72,1.02,1.36l.84,1.34h-1.35l-.61-1.08c-.48-.85-.86-1.38-1.16-1.59-.2-.16-.5-.23-.89-.23h-.65v2.91h-1.11ZM513.03,10.25c-.9,0-1.77.23-2.62.69-.85.46-1.51,1.12-1.99,1.96-.48.86-.72,1.74-.72,2.67s.24,1.8.71,2.64c.47.84,1.13,1.5,1.97,1.97.84.47,1.72.71,2.64.71s1.8-.24,2.64-.71c.85-.47,1.5-1.12,1.97-1.97.46-.84.7-1.72.7-2.64s-.24-1.81-.71-2.67c-.48-.85-1.14-1.51-1.99-1.96-.85-.46-1.72-.69-2.61-.69ZM513.03,9.2c1.07,0,2.11.27,3.13.82,1.02.55,1.81,1.33,2.38,2.36.57,1.02.85,2.09.85,3.19s-.28,2.15-.84,3.16c-.56,1.02-1.34,1.8-2.36,2.36-1.01.56-2.07.84-3.17.84s-2.16-.28-3.17-.84c-1.01-.56-1.8-1.35-2.36-2.36-.56-1.01-.84-2.07-.84-3.16s.29-2.18.86-3.19c.57-1.02,1.37-1.81,2.39-2.36,1.02-.55,2.07-.82,3.14-.82Z"/>
      <path class="cls-1" d="M315.13,53.72c-.08-.42-.14-.83-.14-1.23-.02-.39.02-.78.07-1.13.48-2.64,2.62-4.96,6.41-6.96,3.81-2,8-2.99,12.57-2.99,1.93,0,3.57.14,4.98.43,1.38.27,2.57.73,3.57,1.37l-27.46,10.51ZM360.34,33.18c-6.25-2.86-13.88-4.26-22.89-4.26-12.23,0-22.96,2.4-32.24,7.2-9.26,4.8-14.52,10.71-15.79,17.71-1.29,7.08,1.67,12.84,8.86,17.29,7.18,4.45,17.23,6.66,30.14,6.66,6.19,0,12.16-.45,17.91-1.35,5.77-.9,11.32-2.24,16.7-4.05l.61-15.42c-5.14,2.3-10.25,4.06-15.33,5.25-5.05,1.19-9.88,1.79-14.43,1.79-1.95,0-3.68-.09-5.2-.24-1.52-.18-2.97-.42-4.36-.75l48.59-17.91c-2.15-5.1-6.32-9.08-12.57-11.92ZM56.57,52.57l16.13-22.29,8.15,22.29h-24.28ZM60.56,10.43L7.34,76.45h31.85l5.85-7.38h41.78l2.93,7.38h32.42L95.08,10.43h-34.53ZM165.46,60.74c-.73.04-1.69.06-2.88.06-3.07,0-5.09-.43-6.05-1.27-.95-.85-1.19-2.57-.71-5.15l1.94-10.73h10.59l2.56-14.09h-10.61l2.55-14.11-29.43,9.07-.91,5.04h-5.44l-2.56,14.09h5.46l-3.12,17.23c-1.23,6.78-.32,11.25,2.75,13.39,3.07,2.12,9.22,3.19,18.44,3.19,1.76,0,3.59-.04,5.45-.11,1.86-.09,3.85-.2,5.97-.36l8.15-16.42c-.74.1-1.44.16-2.18.18ZM245.39,32.82c-3.67-2.71-9.52-4.06-17.55-4.06-4.32,0-8.31.41-12.02,1.26-3.69.86-6.88,2.09-9.61,3.71l4.12-22.77h-27.79l-11.93,66.02h27.78l4.57-25.21c.43-2.38,1.54-4.21,3.36-5.45,1.81-1.25,4.23-1.89,7.22-1.89s5.03.54,6.06,1.59c1.05,1.07,1.33,2.96.83,5.65l-4.58,25.3h27.79l5.81-32.17c.95-5.27-.4-9.26-4.07-12ZM263.49,10.96l-11.93,66.02h27.79l11.93-66.02h-27.79ZM416.04,60.8c-3.07,0-5.07-.43-6.02-1.27-.96-.85-1.19-2.57-.74-5.15l1.94-10.73h10.62l2.54-14.09h-10.59l2.55-14.11-29.41,9.07-.92,5.04h-5.43l-2.56,14.09h5.44l-3.12,17.23c-1.23,6.78-.3,11.25,2.78,13.39,3.06,2.12,9.22,3.19,18.44,3.19,1.77,0,3.57-.04,5.45-.11,1.86-.09,3.85-.2,5.97-.36l8.13-16.42c-.72.1-1.45.16-2.19.18-.71.04-1.69.06-2.88.06ZM432.58,29.55l-8.59,47.43h27.78l8.57-47.43h-27.76ZM463,10.96h-27.78l-2.6,14.41h27.75l2.62-14.41ZM496.52,46.79c3.38-1.55,7.86-2.34,13.44-2.34,1.45,0,3.09.1,4.95.29,1.85.19,4.07.47,6.68.86l2.82-15.57c-2.14-.37-4.32-.67-6.54-.86-2.23-.18-4.5-.25-6.82-.25-13.25,0-24.4,2.2-33.41,6.62-9.04,4.42-14.2,10.16-15.47,17.23-1.35,7.45,1.47,13.48,8.47,18.08,7,4.63,16.78,6.92,29.33,6.92,2.68,0,5.35-.08,8-.26,2.63-.17,5.32-.46,8.01-.81l2.75-15.21c-2.63.25-4.88.43-6.74.55-1.89.12-3.57.18-5.08.18-5.38,0-9.54-.82-12.49-2.46-2.95-1.65-4.18-3.81-3.71-6.5.52-2.76,2.44-4.92,5.81-6.48Z"/>
    </g>
  </g>
</svg>