<?xml version="1.0" encoding="utf-8"?>
<!-- Generator: $$$/GeneralStr/196=Adobe Illustrator 27.6.0, SVG Export Plug-In . SVG Version: 6.00 Build 0)  -->
<svg version="1.1" id="Capa_1" xmlns="http://www.w3.org/2000/svg" xmlns:xlink="http://www.w3.org/1999/xlink" x="0px" y="0px"
	 viewBox="0 0 500 109.6" style="enable-background:new 0 0 500 109.6;" xml:space="preserve">
<style type="text/css">
	.st0{fill:#262F50;}
	.st1{fill:#AC262D;}
	.st2{fill:#8D91A4;}
	.st3{fill:#8E92A5;}
	.st4{fill:#8E93A5;}
	.st5{fill:#8D91A3;}
	.st6{fill:#595F79;}
	.st7{fill:#C6C8D1;}
	.st8{fill:#383F5D;}
	.st9{fill:#353C5A;}
	.st10{fill:#323958;}
	.st11{fill:#2F3656;}
	.st12{fill:#F0F1F3;}
	.st13{fill:#F4F5F6;}
</style>
<g>
	<path class="st0" d="M48.3,36.6c-0.2,0.8-0.4,1.6-0.6,2.3c0,0.1-0.1,0.2-0.1,0.3c0,0.1,0,0.1,0,0.2c0,0.1,0,0.2-0.1,0.2
		c0,0.1-0.1,0.2-0.1,0.3c0,0.1-0.1,0.2-0.1,0.3c-0.4,0.9-0.4,1.8-0.6,2.7c-0.2,1.4-0.7,2.8-1,4.3c0,0.1-0.1,0.3-0.1,0.4
		c0,0.1,0,0.1,0,0.2c0,0.1-0.1,0.2-0.1,0.3c0,0.1,0,0.2-0.1,0.3c0,0.1-0.1,0.2-0.1,0.3c-0.2,0.6-0.3,1.3-0.5,1.9
		c0,0.1-0.1,0.3-0.1,0.4c0,0.1,0,0.1,0,0.2c0,0.1-0.1,0.2-0.1,0.3c0,0.1,0,0.2-0.1,0.3c0,0.1-0.1,0.2-0.1,0.3
		c-0.2,1-0.4,1.9-0.7,2.9c-0.3,1-0.6,2-0.9,3c-0.3,0.9-0.5,1.9-0.7,2.8c0,0.1-0.1,0.2-0.1,0.3c-0.1,0.2-0.1,0.5-0.2,0.7
		c0,0.1-0.1,0.2-0.1,0.3c-0.4,1.5-0.8,3-1.2,4.5c0,0.1-0.1,0.2-0.1,0.3c0,0.1,0,0.1,0,0.2c0,0.1,0,0.2-0.1,0.2c0,0.1,0,0.2-0.1,0.3
		c0,0.1-0.1,0.2-0.1,0.3c-0.2,0.6-0.3,1.3-0.5,1.9c0,0.1,0,0.2-0.1,0.2c0,0.1-0.1,0.2-0.1,0.3c0,0.1-0.1,0.2-0.1,0.3
		c0,0.1,0,0.2-0.1,0.3c0,0.1-0.1,0.2-0.1,0.3c-0.4,1.6-0.8,3.1-1.2,4.7c0,0.1-0.1,0.3-0.1,0.4c0,0.1,0,0.1,0,0.2
		c0,0.1-0.1,0.2-0.1,0.3c0,0.1,0,0.2-0.1,0.3c0,0.1-0.1,0.2-0.1,0.3c-0.4,1.5-0.8,3.1-1.2,4.6c0,0,0,0,0,0.1c0,0,0,0,0,0
		c0.2,0,0.5,0,0.7,0c12,0,24,0,36,0c2.7,0,5.4,0,8.2,0c0.5,0,0.9-0.1,1.4-0.2c0.4-0.1,0.8-0.1,1.1-0.2c0.4-0.3,0.7-0.3,1.3-0.1
		c0.9,0.2,2-0.1,2.9-0.7c1.9-1.1,2.4-3,3-4.9c0-0.1,0.1-0.2,0.1-0.3c0-0.1,0-0.2,0.1-0.3c0-0.1,0.1-0.2,0.1-0.3c0-0.1,0-0.1,0-0.2
		c0-0.1,0.1-0.3,0.1-0.4c0-0.1,0-0.1,0-0.2c0-0.1,0.1-0.2,0.1-0.3c0.2-0.7,0.3-1.4,0.5-2c0-0.1,0.1-0.2,0.1-0.3
		c0.4-1.9,0.9-3.8,1.2-5.7c0.2-1.1-0.2-1.5-1.3-1.7c-0.9-0.2-1.8-0.2-2.7-0.3c-0.1,0-0.1-0.1-0.2-0.1c0,0,0,0,0,0
		c-0.7-0.1-1.4-0.1-2.1-0.1c-13.3,0-26.7,0-40,0c-0.2,0-0.4,0-0.6,0c-0.1,0-0.2-0.2-0.3-0.3c0-0.1,0-0.2,0-0.3
		c0-0.1,0.1-0.2,0.1-0.3c0-0.1,0-0.2,0.1-0.3c0-0.1,0.1-0.2,0.1-0.3c0.1-0.5,0.2-1,0.4-1.4c0-0.1,0.1-0.2,0.1-0.3c0-0.1,0-0.1,0-0.2
		c0-0.1,0.1-0.3,0.1-0.4c0-0.1,0-0.1,0-0.2c0-0.1,0.1-0.2,0.1-0.3c0.1-0.5,0.2-1,0.4-1.4c0-0.1,0.1-0.2,0.1-0.3c0-0.1,0-0.1,0-0.2
		c0-0.1,0-0.2,0.1-0.2c0-0.1,0-0.2,0.1-0.3c0-0.1,0.1-0.2,0.1-0.3c0.1-0.5,0.2-1,0.4-1.4c0-0.1,0.1-0.2,0.1-0.3c0-0.1,0-0.1,0-0.2
		c0-0.1,0.1-0.2,0.1-0.2c0-0.1,0-0.2,0.1-0.3c0-0.1,0.1-0.2,0.1-0.3c0.1-0.5,0.2-1,0.4-1.4c0,0,0-0.1,0-0.1c0-0.1,0.1-0.2,0.1-0.3
		c0-0.1,0.1-0.2,0.1-0.2c0-0.1,0-0.2,0.1-0.3c0-0.1,0.1-0.2,0.1-0.3c0.1-0.5,0.2-0.9,0.3-1.4c0-0.1,0.1-0.2,0.1-0.4
		c0-0.1,0-0.1,0-0.2c0-0.1,0.1-0.2,0.1-0.3c0-0.1,0-0.2,0.1-0.3c0-0.1,0.1-0.2,0.1-0.3c0.5-2,1-4,1.6-6.1c0.3,0,0.6,0,0.9,0
		c14,0,28,0,42,0c1.2,0,2.5-0.3,3.6-0.8c1.1-0.5,1.9-1.5,2.2-2.7c0.3-1.2,0.7-2.5,1-3.7c0-0.1,0.1-0.2,0.1-0.4c0-0.1,0-0.1,0-0.2
		c0-0.1,0.1-0.2,0.1-0.3c0-0.1,0-0.2,0.1-0.3c0-0.1,0.1-0.2,0.1-0.3c0.5-1.7,0.9-3.4,1.3-5.2c0.1-0.5,0.1-1,0-1.4
		c0-0.1-0.2-0.3-0.4-0.4c-0.9-0.3-1.8-0.5-2.7-0.7c-0.8,0-1.7-0.1-2.5-0.1c-0.3,0-0.7,0-1,0c-23.7,0-47.5,0-71.2,0
		c-0.3,0-0.6,0-0.9,0c0-0.1,0-0.1,0-0.2c0.7-2.7,1.4-5.4,2-8.1c0.8-3.3,1.7-6.7,2.5-10c0.2-0.9,0.6-1.8,0.9-2.7c0.2,0,0.4,0,0.6,0
		c26.7,0,53.4,0,80.1,0c0.6,0,1.1,0,1.7,0c2.8,0,5.5,0.4,8.1,1.1c2.9,0.8,5.6,2.2,7.4,4.7c1.2,1.7,2,3.6,2.2,5.7
		c0.5,3.8,0,7.5-1,11.2c-0.3,1.2-0.6,2.4-0.9,3.6c-0.2,0.8-0.6,1.5-0.8,2.3c-0.5,1.6-1.1,3.1-1.3,4.7c-0.2,1.9-1.1,3.4-1.8,4.9
		c-0.8,1.7-2.1,3.2-3.3,4.7c-2.1,2.6-4.8,4.2-7.7,5.6c-0.1,0-0.2,0.1,0-0.1c0.7,0.9,1.3,1.8,2.1,2.6c1.9,2,2.9,4.4,3.2,7.1
		c0.1,0.9,0.3,1.9,0.3,2.8c-0.1,1.6-0.3,3.3-0.7,4.9c-0.5,2.4-1.3,4.7-1.9,7.1c-0.3,1-0.5,2.1-0.8,3.1c-0.5,1.9-0.8,3.9-1.5,5.8
		c-0.8,2.2-1.8,4.4-3.3,6.2c-0.9,1.2-1.9,2.3-2.9,3.5c-0.2,0.2-0.2,0.5-0.6,0.4c-0.1,0-0.3,0.2-0.5,0.3c-0.4,0.4-0.9,0.7-1.3,1.1
		c-0.3,0.2-0.6,0.5-0.9,0.7c-0.5,0.2-0.9,0.4-1.4,0.6c-3.1,1.6-6.3,3.1-9.8,3.6c-1.2,0.2-2.4,0.6-3.7,0.8c-0.9,0.2-1.8,0.2-2.7,0.3
		c-1,0.1-1.9,0.2-2.9,0.3c-0.1,0-0.2,0.1-0.3,0.2c-0.1,0.1-0.3,0.2-0.4,0.2c-0.5-0.1-1-0.2-1.4-0.3c-0.7,0-1.4-0.1-2.1-0.1
		c-25,0-50.1,0-75.1,0c-0.3,0-0.5,0-0.8,0c0-0.2,0-0.4,0-0.6c0.3-1.3,0.7-2.7,0.9-4.1c0.2-1.2,0.7-2.3,1-3.5
		c0.5-2.2,1.2-4.4,1.7-6.6c0.6-2.3,1.1-4.7,1.7-7c0.2-0.7,0.4-1.5,0.6-2.2c0.3-1.2,0.8-2.4,1-3.6c0.1-1.3,0.7-2.4,1-3.7
		c0.6-2.8,1.4-5.5,2.2-8.3c0.1-0.6,0.1-1.1,0.3-1.7c0.1-0.5,0.4-0.9,0.6-1.4c0.2-0.6,0.1-1.3,0.3-2c0.1-0.6,0.4-1.1,0.6-1.6
		c0.1-0.6,0.1-1.1,0.3-1.7c0.1-0.5,0.5-0.9,0.6-1.3c0.2-0.7,0.1-1.4,0.3-2c0.1-0.6,0.5-1.1,0.6-1.7c0.6-2.4,1.2-4.8,1.8-7.2
		c0.3-1.1,0.6-2.2,0.9-3.3c0.3-1.2,0.7-2.3,0.9-3.5c0.2-1.2,0.6-2.2,0.9-3.4c0.3-1.2,0.6-2.3,1-3.5c9,0,17.8,0,26.8,0
		c-0.4,1.5-0.7,3-1.1,4.5c0,0.1-0.1,0.2-0.1,0.3c-0.1,0.2-0.1,0.5-0.2,0.7C48.4,36.4,48.4,36.5,48.3,36.6z"/>
	<path class="st0" d="M381.7,104.6c-1.3,0-2.6,0.1-3.8,0c-1.4-0.1-2.8-0.4-4.2-0.7c-1.6-0.4-3.3-0.8-4.9-1.4c-2.1-0.8-3.8-2-5.1-3.8
		c-0.9-1.3-1.4-2.7-1.9-4.1c-0.1-0.4-0.2-0.8-0.2-1.3c-0.1-1.4-0.2-2.9-0.1-4.3c0.1-1.7,0.4-3.5,0.7-5.2c0.6-3,1.3-5.9,2.1-8.8
		c0.8-3,1.6-6.1,2.4-9.1c0.7-2.6,1.4-5.2,2.1-7.8c0.4-1.6,0.8-3.2,1.2-4.7c0.5-1.8,0.9-3.7,1.4-5.5c0.4-1.4,0.8-2.9,1.2-4.3
		c0.8-3.1,1.7-6.2,2.5-9.4c0.2-0.7,0.2-1.4,0.4-2.1c0.2,0,0.4,0,0.7,0c8.5,0,16.9,0,25.4,0c1,0,1.1,0.2,0.9,1.2
		c-0.3,1.3-0.6,2.5-1,3.8c-0.2,0.8-0.5,1.7-0.7,2.5c-1.3,4.9-2.5,9.7-3.8,14.6c-1.5,5.5-2.9,11.1-4.4,16.6
		c-0.9,3.5-1.8,6.9-2.7,10.4c0,0,0,0.1-0.1,0.1c0,0,0.1,0,0.1,0c0.2,0,0.4,0,0.6,0c21.1,0,42.3,0,63.4,0c0.1,0,0.3,0,0.4,0
		c0,0,0.1-0.1,0.1-0.1c0.5-2.2,1.1-4.3,1.6-6.5c0.4-1.5,0.8-3,1.2-4.6c0.4-1.6,0.8-3.3,1.2-4.9c0.6-2.2,1.2-4.4,1.8-6.6
		c0.7-2.7,1.4-5.4,2.1-8.1c0.7-2.5,1.3-5,1.9-7.5c0.7-2.7,1.4-5.4,2.1-8.1c0.6-2.3,1.2-4.7,1.8-7c0-0.2,0.1-0.3,0.1-0.5
		c-30.6,0-61.2,0-91.9,0c1-2.4,1.9-4.7,2.8-7c0.9-2.2,1.8-4.3,3.4-6.1c1.1-1.3,2.3-2.5,3.6-3.7c3.6-3.2,8.1-4.4,12.8-5.1
		c2-0.3,4-0.4,6-0.6c0.2,0,0.4,0,0.6,0c23,0,45.9,0,68.9,0c0.8,0,1.6,0,2.4,0c3.5,0,6.9,0.6,10.3,1.4c1.2,0.3,2.3,1,3.4,1.5
		c0.4,0.2,0.8,0.3,1.1,0.5c0.4,0.3,0.7,0.7,1,1c2.5,2.1,3.4,4.8,3.5,7.9c0,1.8,0,3.6-0.1,5.4c-0.1,2.9-0.8,5.7-1.5,8.5
		c-1,3.9-2.1,7.7-3.1,11.6c-0.3,1-0.3,2.1-0.6,3.1c-0.3,1-0.7,1.9-1,2.9c-0.7,2.6-1.4,5.1-2,7.7c-0.3,1-0.4,2-0.6,3
		c-0.5,1.7-1,3.3-1.5,5c-0.4,1.4-0.6,2.8-1,4.2c-0.3,1.1-0.7,2.2-1,3.3c-1,3.8-1.9,7.6-3,11.4c-1.2,4.3-3,8.2-5.6,11.9
		c-1.4,2-3.1,3.6-5,5c-0.9,0.7-1.9,1-2.8,1.4c-2.3,1.1-4.9,1.6-7.4,2.2c-1.4,0.3-3,0.4-4.4,0.6c-1.2,0.1-2.5,0.2-3.7,0.3
		c-0.7,0-1.4-0.1-2.1-0.1c-22.5,0-45,0-67.5,0C382.1,104.5,381.9,104.6,381.7,104.6z"/>
	<path class="st0" d="M231.3,81.3c-0.3,1.1-0.5,2.1-0.8,3.2c-0.5,2.1-1.1,4.2-1.6,6.3c-0.5,1.8-0.9,3.7-1.4,5.6
		c-0.4,1.7-0.9,3.4-1.3,5.1c-0.2,1-0.4,1.9-0.7,2.9c-0.4,0-0.7,0-1.1,0c-32.7,0-65.4,0-98.1,0c-0.2,0-0.5,0-0.7,0
		c-0.1,0-0.2-0.2-0.2-0.3c0.4-1.5,0.7-3.1,1.1-4.6c0.5-2,1-4.1,1.5-6.1c0.2-0.6,0.6-1.2,0.6-1.8c0-0.9,0.6-1.6,0.6-2.5
		c0.1-1,0.7-2,0.8-3c0.1-0.9,0.6-1.7,0.7-2.6c0.1-1,0.6-1.9,0.8-2.9c0.3-1.8,1-3.5,1.4-5.4c0.2-1.1,0.8-2.2,0.9-3.4
		c0.1-0.9,0.6-1.7,0.7-2.6c0.1-1,0.6-1.9,0.7-2.8c0.1-0.9,0.6-1.7,0.7-2.6c0.1-1,0.6-1.9,0.7-2.8c0.2-0.9,0.6-1.8,0.8-2.8
		c0-0.2-0.1-0.5,0-0.6c0.2-0.3,0.4-0.5,0.9-0.4c1.2,0.3,2.5,0.3,3.8,0.5c1.8,0.2,3.6,0.5,5.5,0.7c0.6,0.1,1.3,0,1.9,0
		c0.1,0,0.2,0,0.3,0.1c0.3,0,0.7,0.1,1.2,0.2c0.2,0.4,0.6,0.3,0.9,0c0.7,0.2,1.3,0.4,1.9,0.5c0.9,0.1,1.9,0.2,2.8,0.3
		c0.9,0.1,1.9,0.3,2.8,0.4c1.4,0.2,2.9,0.3,4.4,0.5c-1.8,6.8-3.5,13.6-5.3,20.4c0,0.1,0.1,0.4,0.1,0.4c0.2,0.1,0.4,0,0.6,0
		c23.7,0,47.4,0,71.1,0C230.7,81.2,231,81.3,231.3,81.3z"/>
	<path class="st0" d="M372.9,4.9c-2,7.5-3.9,14.9-5.9,22.4c-37.1,0-74.3,0-111.5,0c0.1-0.7,0.3-1.5,0.4-2.2c0.4-1.5,0.7-3,1.1-4.5
		c0.5-2.1,1.1-4.1,1.7-6.2c0.6-2.4,1.2-4.7,1.8-7.1c0.2-0.8,0.5-1.5,0.7-2.3c0.3-0.1,0.6-0.2,0.8-0.2C299,4.9,336,4.9,372.9,4.9z"/>
	<path class="st0" d="M244.6,26.6c-0.3,0-0.6,0-0.9,0c-32.4,0-64.7,0-97.1,0c-0.3,0-0.6,0-0.9,0c0-0.1,0-0.1,0-0.2
		c0.5-1.9,0.9-3.8,1.4-5.8c0.9-3.6,1.8-7.2,2.8-10.7c0.4-1.6,0.9-3.3,1.4-4.9c0.3-0.1,0.6-0.2,0.8-0.2c3.4,0,6.9,0,10.3,0
		c29.1,0,58.2,0,87.3,0c0.3,0,0.6,0.1,0.9,0.2c-1.1,4.1-2.1,8.2-3.2,12.3c-0.8,3-1.6,5.9-2.4,8.9c0,0.1-0.1,0.2-0.1,0.3
		C244.7,26.6,244.7,26.6,244.6,26.6z"/>
	<path class="st0" d="M283.3,81.6c0.1-0.2,0.2-0.5,0.3-0.7c0-0.1,0-0.2,0-0.3c0.1-0.4,0.3-0.9,0.4-1.3c0-0.1,0-0.3,0.1-0.4
		c0.1-0.2,0.2-0.5,0.3-0.7c0-0.1,0-0.2,0-0.3c0.1-0.8,0.2-1.6,0.4-2.4c0.1-0.6,0.5-1.1,0.6-1.7c0.8-3.1,1.6-6.2,2.4-9.3
		c0.7-2.6,1.5-5.2,2.1-7.8c0.2-1,0.6-1.9,0.8-2.9c0.3-1.8,1-3.5,1.4-5.3c0.5-2.2,1.1-4.3,1.7-6.5c0.4-1.7,0.9-3.3,1.3-5
		c0.4-1.7,0.8-3.3,1.2-5c9,0,18.1,0,27.2,0c-0.4,1.4-0.8,2.8-1.1,4.2c-0.1,0.4,0,0.8-0.1,1.2c0,0.1,0,0.2-0.1,0.3
		c-1.1,1.7-1.1,3.7-1.7,5.5c-0.3,0.9-0.5,1.8-0.7,2.7c-0.6,2.1-1.2,4.2-1.7,6.4c-0.3,1.5-0.9,3-1.2,4.5c-0.3,1.6-0.8,3.1-1.2,4.6
		c-0.1,0.3,0,0.6,0,0.9c0,0.1,0,0.3,0,0.3c-1,1.4-1,3.2-1.5,4.8c-0.4,1.2-0.7,2.4-1,3.5c-0.5,2.1-1.1,4.1-1.6,6.2
		c-0.1,0.3,0,0.5-0.1,0.8c0,0.1-0.1,0.2-0.1,0.3c-0.2,0.7-0.4,1.4-0.6,2.1c-0.3,1.1-0.6,2.3-0.9,3.4c0,0.1,0,0.2,0,0.3
		c0,0.1-0.1,0.2-0.1,0.3c-0.2,0.8-0.5,1.5-0.7,2.3c-0.3,1-0.5,2.1-0.8,3.1c-0.3,1.2-0.6,2.5-0.9,3.7c0,0.1-0.1,0.2-0.1,0.3
		c-0.2,0.9-0.5,1.7-0.7,2.6c0,0.1,0,0.2,0,0.3c-0.6,2.4-1.2,4.8-1.9,7.2c0,0.1-0.1,0.2-0.1,0.3c0,0.1-0.1,0.3-0.1,0.4
		c-0.6,0-1.3,0-1.9,0c-8.2,0-16.4,0-24.6,0c-0.2,0-0.5-0.2-0.7-0.3c0-0.1,0-0.3,0-0.4c0,0,0.1-0.1,0.1-0.1c0,0,0,0,0,0
		c0-0.1,0-0.2,0-0.3c0.1-0.2,0.2-0.4,0.2-0.6c0.1-0.3,0.1-0.6,0.2-0.9c0.1-0.2,0.2-0.4,0.2-0.6c0.1-0.1,0.1-0.3,0.2-0.4
		c0.1-0.4,0.2-0.8,0.3-1.2c0-0.1,0-0.3,0.1-0.4c0-0.2,0.1-0.4,0.1-0.6c0,0,0.1-0.1,0.1-0.1c0,0,0,0,0,0c0-0.1,0-0.2,0-0.3
		c0.1-0.4,0.3-0.9,0.4-1.3c0-0.1,0-0.3,0.1-0.4c0-0.1,0.1-0.1,0.1-0.2c0.1-0.2,0.1-0.4,0.2-0.6c0,0,0,0,0,0c0-0.1,0-0.2,0-0.3
		c0,0,0-0.1,0-0.1c0.1-0.1,0.1-0.3,0.2-0.4c0.1-0.4,0.3-0.9,0.4-1.3c0-0.1,0-0.3,0.1-0.4c0-0.2,0.1-0.4,0.1-0.6
		c0.1-0.1,0.1-0.3,0.2-0.4c0.1-0.4,0.3-0.9,0.4-1.3c0-0.1,0-0.3,0.1-0.4c0-0.2,0.1-0.4,0.1-0.6c0.1-0.1,0.1-0.3,0.2-0.4
		c0.1-0.4,0.3-0.9,0.4-1.3c0-0.1,0-0.3,0.1-0.4c0-0.2,0.1-0.4,0.1-0.6c0,0,0.1-0.1,0.1-0.1c0,0,0,0,0,0c0-0.1,0-0.2,0-0.3
		c0.1-0.4,0.3-0.9,0.4-1.3c0-0.1,0-0.3,0.1-0.4c0-0.1,0.1-0.1,0.1-0.2c0.1-0.2,0.1-0.4,0.2-0.6c0,0,0,0,0,0c0-0.1,0-0.2,0-0.3
		c0.1-0.1,0.1-0.2,0.2-0.3c0-0.1,0-0.2,0-0.3c0.1-0.4,0.3-0.9,0.4-1.3C283.3,81.9,283.3,81.7,283.3,81.6z"/>
	<path class="st1" d="M152.6,54.6c2.7-0.4,5.4-0.8,8.1-1.3c2.3-0.4,4.6-0.7,6.8-1.1c4.8-0.8,9.5-1.5,14.3-2.3
		c1.1-0.2,2.1-0.5,3.2-0.7c2-0.3,4.1-0.6,6.1-0.9c4.1-0.7,8.2-1.3,12.4-2c3.7-0.6,7.4-1.2,11.2-1.9c1.7-0.3,3.4-0.6,5.1-0.9
		c1.9-0.3,3.8-0.7,5.7-1c2.2-0.4,4.3-0.7,6.5-1c1.5-0.3,3.1-0.5,4.9-0.8c-0.3,1.1-0.5,1.9-0.8,2.8c-0.9,3.5-1.8,7.1-2.7,10.6
		c-0.5,2-1,4.1-1.5,6.1c-0.5,1.9-1,3.8-1.5,5.7c-1.2-0.2-2.4-0.3-3.6-0.5c-1.4-0.2-2.8-0.4-4.2-0.6c-1.5-0.2-3-0.5-4.4-0.7
		c-0.9-0.1-1.8-0.2-2.6-0.3c-0.7-0.1-1.4-0.2-2.1-0.3c-1.2-0.2-2.4-0.4-3.7-0.5c-1.1-0.2-2.1-0.3-3.2-0.5c-1.2-0.2-2.5-0.3-3.7-0.5
		c-1.1-0.2-2.1-0.4-3.2-0.5c-1.2-0.1-2.4-0.5-3.7-0.4c-0.6,0.1-1.3-0.3-2-0.4c-1.2-0.2-2.4-0.4-3.5-0.5c-1.1-0.2-2.3-0.3-3.4-0.5
		c-0.8-0.1-1.7-0.3-2.5-0.3c-1.2-0.1-2.3-0.4-3.5-0.5c-1.1-0.2-2.3-0.3-3.4-0.5c-0.8-0.1-1.7-0.2-2.5-0.3c-1.2-0.2-2.4-0.3-3.5-0.5
		c-1.2-0.2-2.4-0.4-3.6-0.5c-0.3,0-0.6,0-0.8,0c-0.3,0-0.6-0.2-0.9-0.2c-1.6-0.3-3.2-0.5-4.9-0.7c-1.2-0.2-2.4-0.3-3.6-0.4
		c-0.9-0.1-1.8-0.4-2.7-0.4C154.2,55,153.4,54.8,152.6,54.6z"/>
	<path class="st0" d="M171.3,31.8c-0.1,0.4-0.2,0.9-0.3,1.3c0,0.1-0.1,0.2-0.1,0.3c-0.7,2.7-1.3,5.4-2,8.1c-0.5,2-1.1,3.9-1.6,5.9
		c-0.1,0.4-0.4,0.6-0.8,0.6c-1.4,0.1-2.7,0.3-4.1,0.5c-0.1,0-0.3,0-0.4,0c-0.2,0-0.4,0.1-0.6,0.1c-0.1,0-0.3,0-0.4,0
		c-0.5,0.1-1.1,0.2-1.6,0.3c-0.1,0-0.3,0-0.4,0c-0.9,0.1-1.7,0.2-2.6,0.4c-2.2,0.3-4.4,0.6-6.5,1c-1.3,0.2-2.7,0.5-4,0.7
		c-0.9,0.1-1.8,0.2-2.7,0.3c-0.9,0.1-1.8,0.3-2.6,0.4c-1.2,0.2-1.5,0.1-1.1-1.2c0.1-0.3,0-0.7,0.1-1.1c0.1-0.1,0.2-0.2,0.3-0.3
		c0.1-0.3,0.2-0.6,0.3-0.9c0-0.1,0-0.2,0-0.3c0-0.4,0.1-0.9,0.1-1.3c0.1-0.1,0.2-0.2,0.3-0.3c0.1-0.3,0.2-0.6,0.3-0.9
		c0-0.1,0-0.2,0-0.3c0-0.4,0.1-0.9,0.1-1.3c0.1-0.1,0.2-0.2,0.3-0.3c0.1-0.3,0.2-0.6,0.3-0.9c0-0.1,0-0.2,0-0.3
		c0-0.4,0.1-0.9,0.1-1.3c0.1-0.1,0.2-0.2,0.3-0.3c0.1-0.3,0.2-0.6,0.3-0.9c0-0.1,0-0.2,0-0.3c0-0.4,0.1-0.9,0.1-1.3
		c0.1-0.1,0.2-0.2,0.3-0.3c0.1-0.3,0.2-0.6,0.3-0.9c0-0.1,0-0.2,0-0.3c0.1-0.4,0.2-0.9,0.2-1.3c0,0,0,0,0.1,0c0.1-0.3,0.2-0.7,0.3-1
		c0.2-0.8,0.5-1.5,0.6-2.3c0.1-0.4,0.1-0.7,0.1-1.1c8.7,0,17.4,0,26.1,0c0.2,0,0.4-0.1,0.6,0C171.1,31.4,171.2,31.6,171.3,31.8z"/>
	<path class="st2" d="M372.9,4.9c-36.9,0-73.9,0-110.8,0c-0.3,0-0.6,0.1-0.8,0.2c0.1-0.1,0.1-0.3,0.2-0.3c0.2,0,0.5,0,0.7,0
		c36.7,0,73.3,0,110,0c0.3,0,0.5,0,0.8,0C373,4.8,373,4.8,372.9,4.9C373,4.8,372.9,4.8,372.9,4.9z"/>
	<path class="st3" d="M125.3,104.2c0.1,0.1,0.2,0.3,0.2,0.3c0.2,0,0.5,0,0.7,0c32.7,0,65.4,0,98.1,0c0.4,0,0.7,0,1.1,0
		c-0.2,0.1-0.4,0.2-0.6,0.2c-33,0-66,0-99,0C125.6,104.6,125,104.9,125.3,104.2z"/>
	<path class="st2" d="M250.6,5c-0.3-0.1-0.6-0.2-0.9-0.2c-29.1,0-58.2,0-87.3,0c-3.4,0-6.9,0-10.3,0c-0.3,0-0.6,0.1-0.8,0.2
		c0.1-0.1,0.1-0.3,0.2-0.3c0.2,0,0.4,0,0.6,0c32.6,0,65.2,0,97.8,0c0.2,0,0.4,0,0.6,0C250.6,4.7,250.6,4.9,250.6,5z"/>
	<path class="st2" d="M112.3,4.8c-0.6,0-1.1,0-1.7,0c-26.7,0-53.4,0-80.1,0c-0.2,0-0.4,0-0.6,0c0.2-0.1,0.4-0.2,0.6-0.2
		c26.7,0,53.5,0,80.2,0C111.3,4.7,111.8,4.8,112.3,4.8z"/>
	<path class="st4" d="M4,103.9c0,0.2,0,0.3,0,0.6c0.3,0,0.5,0,0.8,0c25,0,50.1,0,75.1,0c0.7,0,1.4,0.1,2.1,0.1
		c-26.1,0-52.1,0-78.3,0C3.8,104.4,3.9,104.1,4,103.9z"/>
	<path class="st5" d="M231.3,81.3c-0.3-0.1-0.6-0.2-0.9-0.2c-23.7,0-47.4,0-71.1,0c-0.2,0-0.4,0-0.6,0c-0.1,0-0.1-0.3-0.1-0.4
		c0.1,0.1,0.2,0.3,0.3,0.3c0.2,0,0.4,0,0.6,0c23.7,0,47.5,0,71.2,0C230.9,81,231.3,80.7,231.3,81.3z"/>
	<path class="st4" d="M476.9,4.8c-0.8,0-1.6,0-2.4,0c-23,0-45.9,0-68.9,0c-0.2,0-0.4,0-0.6,0c0.3,0,0.6-0.1,0.8-0.1
		c11.1,0,22.2,0,33.4,0c11.9,0,23.7,0,35.6,0C475.5,4.7,476.2,4.8,476.9,4.8z"/>
	<path class="st4" d="M381.7,104.6c0.2,0,0.4-0.1,0.6-0.1c22.5,0,45,0,67.5,0c0.7,0,1.4,0.1,2.1,0.1c-23,0-46,0-69,0
		C382.5,104.6,382.1,104.6,381.7,104.6z"/>
	<path class="st5" d="M82.9,81.7c-0.5,0.1-0.9,0.1-1.4,0.2c-2.7,0-5.4,0-8.2,0c-12,0-24,0-36,0c-0.2,0-0.5,0-0.7,0c0,0,0,0,0,0
		c0,0,0,0,0-0.1C52,81.7,67.4,81.7,82.9,81.7z"/>
	<path class="st2" d="M46.3,63.3c0.1,0.1,0.2,0.3,0.3,0.3c0.2,0,0.4,0,0.6,0c13.3,0,26.7,0,40,0c0.7,0,1.4,0.1,2.1,0.1
		c-14.4,0-28.8,0-43.2,0C46.2,63.6,46.3,63.5,46.3,63.3z"/>
	<path class="st3" d="M277.3,104.2c0.2,0.1,0.5,0.3,0.7,0.3c8.2,0,16.4,0,24.6,0c0.6,0,1.3,0,1.9,0c-0.2,0.1-0.4,0.2-0.6,0.2
		c-8.7,0-17.4,0-26.1,0C277.6,104.6,277,104.9,277.3,104.2z"/>
	<path class="st6" d="M171.3,31.8c-0.1-0.1-0.2-0.3-0.4-0.4c-0.2-0.1-0.4,0-0.6,0c-8.7,0-17.4,0-26.1,0c0.2,0,0.3-0.1,0.5-0.1
		c8.8,0,17.5,0,26.3,0c0.1,0,0.2,0,0.4,0C171.5,31.5,171.4,31.6,171.3,31.8z"/>
	<path class="st7" d="M97.6,25.9c0.8,0,1.7,0.1,2.5,0.1C99.3,25.9,98.5,25.9,97.6,25.9z"/>
	<path class="st8" d="M278,101.9c-0.1,0.3-0.1,0.6-0.2,0.9C277.8,102.4,277.9,102.2,278,101.9z"/>
	<path class="st9" d="M279.8,94.9c-0.1,0.1-0.1,0.3-0.2,0.4C279.7,95.2,279.8,95.1,279.8,94.9z"/>
	<path class="st9" d="M281.3,89.4c-0.1,0.1-0.1,0.3-0.2,0.4C281.2,89.7,281.2,89.6,281.3,89.4z"/>
	<path class="st9" d="M280.6,92.2c-0.1,0.1-0.1,0.3-0.2,0.4C280.5,92.5,280.5,92.3,280.6,92.2z"/>
	<path class="st8" d="M141.8,40.9c-0.1,0.1-0.2,0.2-0.3,0.3C141.6,41.1,141.7,41,141.8,40.9z"/>
	<path class="st8" d="M142.6,38.2c-0.1,0.1-0.2,0.2-0.3,0.3C142.4,38.4,142.5,38.3,142.6,38.2z"/>
	<path class="st10" d="M304.7,104c0-0.1,0.1-0.2,0.1-0.3C304.8,103.8,304.7,103.9,304.7,104z"/>
	<path class="st10" d="M307.4,93.6c0-0.1,0.1-0.2,0.1-0.3C307.5,93.4,307.5,93.5,307.4,93.6z"/>
	<path class="st8" d="M141.1,43.7c-0.1,0.1-0.2,0.2-0.3,0.3C140.9,43.9,141,43.8,141.1,43.7z"/>
	<path class="st11" d="M311.5,78.1c0-0.1,0.1-0.2,0.1-0.3C311.6,77.9,311.5,78,311.5,78.1z"/>
	<path class="st8" d="M140.4,46.4c-0.1,0.1-0.2,0.2-0.3,0.3C140.2,46.6,140.3,46.5,140.4,46.4z"/>
	<path class="st9" d="M279.7,95.8c-0.1,0.2-0.1,0.4-0.2,0.6C279.5,96.2,279.6,96,279.7,95.8z"/>
	<path class="st8" d="M139.7,49.2c-0.1,0.1-0.2,0.2-0.3,0.3C139.5,49.4,139.6,49.3,139.7,49.2z"/>
	<path class="st9" d="M282.7,84.2c-0.1,0.2-0.1,0.4-0.2,0.6C282.6,84.6,282.6,84.4,282.7,84.2z"/>
	<path class="st10" d="M309.9,84.2c0-0.1,0.1-0.2,0.1-0.3C310,84,309.9,84.1,309.9,84.2z"/>
	<path class="st9" d="M281,90.4c0,0.1,0,0.3-0.1,0.4C281,90.7,281,90.6,281,90.4z"/>
	<path class="st11" d="M161.9,48.6c0.1,0,0.3,0,0.4,0C162.2,48.5,162.1,48.5,161.9,48.6z"/>
	<path class="st11" d="M160.9,48.7c0.1,0,0.3,0,0.4,0C161.2,48.7,161.1,48.7,160.9,48.7z"/>
	<path class="st11" d="M158.9,49c0.1,0,0.3,0,0.4,0C159.2,49,159,49,158.9,49z"/>
	<path class="st9" d="M283.3,81.6c0,0.1,0,0.3-0.1,0.4C283.3,81.9,283.3,81.7,283.3,81.6z"/>
	<path class="st9" d="M282.5,84.9c0,0.1,0,0.3-0.1,0.4C282.4,85.2,282.4,85.1,282.5,84.9z"/>
	<path class="st12" d="M50,49.5c0,0.1-0.1,0.2-0.1,0.4C49.9,49.7,49.9,49.6,50,49.5z"/>
	<path class="st12" d="M44.7,50.9c0-0.1,0.1-0.3,0.1-0.4C44.8,50.6,44.7,50.8,44.7,50.9z"/>
	<path class="st12" d="M45.6,47.6c0-0.1,0.1-0.3,0.1-0.4C45.6,47.3,45.6,47.4,45.6,47.6z"/>
	<path class="st10" d="M284.1,78.9c0,0.1,0,0.3-0.1,0.4C284,79.1,284,79,284.1,78.9z"/>
	<path class="st10" d="M281.7,87.7c0,0.1,0,0.3-0.1,0.4C281.7,88,281.7,87.8,281.7,87.7z"/>
	<path class="st9" d="M279.4,96.5c0,0.1,0,0.3-0.1,0.4C279.4,96.8,279.4,96.7,279.4,96.5z"/>
	<path class="st12" d="M101.5,34.7c0,0.1-0.1,0.2-0.1,0.4C101.4,34.9,101.5,34.8,101.5,34.7z"/>
	<path class="st10" d="M278.7,99.3c0,0.1,0,0.3-0.1,0.4C278.7,99.6,278.7,99.4,278.7,99.3z"/>
	<path class="st12" d="M38,76.1c0-0.1,0.1-0.3,0.1-0.4C38.1,75.8,38.1,76,38,76.1z"/>
	<path class="st12" d="M91.7,74.4c0,0.1-0.1,0.3-0.1,0.4C91.6,74.6,91.6,74.5,91.7,74.4z"/>
	<path class="st8" d="M278.4,100.9c-0.1,0.1-0.1,0.3-0.2,0.4C278.2,101.1,278.3,101,278.4,100.9z"/>
	<path class="st9" d="M280.3,93.2c0,0.1,0,0.3-0.1,0.4C280.2,93.5,280.3,93.3,280.3,93.2z"/>
	<path class="st13" d="M47.2,59.9c0,0.1-0.1,0.3-0.1,0.4C47.1,60.1,47.2,60,47.2,59.9z"/>
	<path class="st13" d="M42.1,60.9c0-0.1,0.1-0.2,0.1-0.3C42.2,60.7,42.1,60.8,42.1,60.9z"/>
	<path class="st12" d="M101.6,34.3c0,0.1-0.1,0.2-0.1,0.3C101.6,34.4,101.6,34.3,101.6,34.3z"/>
	<path class="st13" d="M47.8,57.7c0,0.1-0.1,0.2-0.1,0.3C47.7,57.9,47.8,57.8,47.8,57.7z"/>
	<path class="st13" d="M47.1,60.5c0,0.1-0.1,0.2-0.1,0.3C47,60.7,47,60.6,47.1,60.5z"/>
	<path class="st13" d="M47.9,57.3c0,0.1,0,0.2-0.1,0.2C47.8,57.5,47.9,57.4,47.9,57.3z"/>
	<path class="st13" d="M41.8,61.9c0-0.1,0.1-0.2,0.1-0.3C41.9,61.7,41.8,61.8,41.8,61.9z"/>
	<path class="st13" d="M46.6,62.2c0,0.1-0.1,0.2-0.1,0.3C46.6,62.4,46.6,62.3,46.6,62.2z"/>
	<path class="st13" d="M46.5,62.8c0,0.1-0.1,0.2-0.1,0.3C46.4,63,46.4,62.9,46.5,62.8z"/>
	<path class="st13" d="M48.1,56.7c0,0.1-0.1,0.2-0.1,0.3C48,56.9,48,56.8,48.1,56.7z"/>
	<path class="st13" d="M49.4,51.8c0,0.1-0.1,0.2-0.1,0.2C49.3,51.9,49.3,51.9,49.4,51.8z"/>
	<path class="st13" d="M40.5,66.7c0-0.1,0.1-0.2,0.1-0.3C40.6,66.5,40.5,66.6,40.5,66.7z"/>
	<path class="st13" d="M40.4,67.1c0-0.1,0-0.2,0.1-0.2C40.4,66.9,40.4,67,40.4,67.1z"/>
	<path class="st13" d="M40.2,67.7c0-0.1,0.1-0.2,0.1-0.3C40.3,67.5,40.3,67.6,40.2,67.7z"/>
	<path class="st12" d="M39.7,69.9c0-0.1,0-0.2,0.1-0.2C39.7,69.7,39.7,69.8,39.7,69.9z"/>
	<path class="st12" d="M39.5,70.4c0-0.1,0.1-0.2,0.1-0.3C39.6,70.3,39.5,70.4,39.5,70.4z"/>
	<path class="st12" d="M39.4,71c0-0.1,0.1-0.2,0.1-0.3C39.4,70.8,39.4,70.9,39.4,71z"/>
	<path class="st13" d="M92.4,71.6c0,0.1-0.1,0.2-0.1,0.3C92.3,71.8,92.4,71.7,92.4,71.6z"/>
	<path class="st12" d="M91.8,73.9c0,0.1-0.1,0.2-0.1,0.3C91.7,74.1,91.8,74,91.8,73.9z"/>
	<path class="st13" d="M48.5,55c0,0.1-0.1,0.2-0.1,0.3C48.5,55.2,48.5,55.1,48.5,55z"/>
	<path class="st12" d="M91.5,74.9c0,0.1-0.1,0.2-0.1,0.3C91.5,75.1,91.5,75,91.5,74.9z"/>
	<path class="st13" d="M91.4,75.5c0,0.1-0.1,0.2-0.1,0.3C91.3,75.7,91.3,75.6,91.4,75.5z"/>
	<path class="st13" d="M48.6,54.5c0,0.1-0.1,0.2-0.1,0.2C48.6,54.7,48.6,54.6,48.6,54.5z"/>
	<path class="st12" d="M37.9,76.5c0-0.1,0.1-0.2,0.1-0.3C38,76.3,37.9,76.4,37.9,76.5z"/>
	<path class="st12" d="M37.8,77.1c0-0.1,0.1-0.2,0.1-0.3C37.8,76.9,37.8,77,37.8,77.1z"/>
	<path class="st10" d="M284.3,77.8c0,0.1,0,0.2,0,0.3C284.3,78,284.3,77.9,284.3,77.8z"/>
	<path class="st12" d="M44.4,51.9c0-0.1,0.1-0.2,0.1-0.3C44.5,51.7,44.5,51.8,44.4,51.9z"/>
	<path class="st13" d="M49.5,51.2c0,0.1-0.1,0.2-0.1,0.3C49.5,51.4,49.5,51.3,49.5,51.2z"/>
	<path class="st9" d="M283.6,80.6c0,0.1,0,0.2,0,0.3C283.6,80.8,283.6,80.7,283.6,80.6z"/>
	<path class="st12" d="M44.6,51.3c0-0.1,0.1-0.2,0.1-0.3C44.6,51.2,44.6,51.2,44.6,51.3z"/>
	<path class="st13" d="M48.8,54c0,0.1-0.1,0.2-0.1,0.3C48.7,54.1,48.8,54,48.8,54z"/>
	<path class="st8" d="M277.5,103.3c0,0.1,0,0.2,0,0.3C277.5,103.5,277.5,103.4,277.5,103.3z"/>
	<path class="st12" d="M50.1,49c0,0.1-0.1,0.2-0.1,0.3C50,49.2,50.1,49.1,50.1,49z"/>
	<path class="st12" d="M50.2,48.4c0,0.1-0.1,0.2-0.1,0.3C50.2,48.6,50.2,48.5,50.2,48.4z"/>
	<path class="st9" d="M282.9,83.3c0,0.1,0,0.2,0,0.3C282.9,83.5,282.9,83.4,282.9,83.3z"/>
	<path class="st9" d="M282.7,83.9c0,0.1,0,0.2,0,0.3C282.7,84.1,282.7,84,282.7,83.9z"/>
	<path class="st12" d="M45.3,48.6c0-0.1,0.1-0.2,0.1-0.3C45.3,48.4,45.3,48.5,45.3,48.6z"/>
	<path class="st8" d="M140,48c0,0.1,0,0.2,0,0.3C140,48.2,140,48.1,140,48z"/>
	<path class="st12" d="M45.4,48c0-0.1,0.1-0.2,0.1-0.3C45.5,47.8,45.5,47.9,45.4,48z"/>
	<path class="st10" d="M282,86.7c0,0.1,0,0.2,0,0.3C282,86.9,282,86.8,282,86.7z"/>
	<path class="st10" d="M170.9,33.4c0-0.1,0.1-0.2,0.1-0.3C171,33.2,170.9,33.3,170.9,33.4z"/>
	<path class="st8" d="M140.7,45.3c0,0.1,0,0.2,0,0.3C140.7,45.4,140.7,45.4,140.7,45.3z"/>
	<path class="st8" d="M141.4,42.5c0,0.1,0,0.2,0,0.3C141.4,42.7,141.4,42.6,141.4,42.5z"/>
	<path class="st13" d="M47.3,40.2c0-0.1,0.1-0.2,0.1-0.3C47.4,40,47.3,40.1,47.3,40.2z"/>
	<path class="st8" d="M142.1,39.8c0,0.1,0,0.2,0,0.3C142.1,39.9,142.1,39.8,142.1,39.8z"/>
	<path class="st13" d="M47.5,39.6c0-0.1,0-0.2,0.1-0.2C47.5,39.4,47.5,39.5,47.5,39.6z"/>
	<path class="st13" d="M47.6,39.2c0-0.1,0.1-0.2,0.1-0.3C47.7,39,47.6,39.1,47.6,39.2z"/>
	<path class="st8" d="M142.9,37c0,0.1,0,0.2,0,0.3C142.9,37.2,142.9,37.1,142.9,37z"/>
	<path class="st9" d="M279.7,95.5c0,0.1,0,0.2,0,0.3C279.7,95.7,279.7,95.6,279.7,95.5z"/>
	<path class="st12" d="M48.3,36.6c0-0.1,0.1-0.2,0.1-0.3C48.4,36.4,48.4,36.5,48.3,36.6z"/>
	<path class="st11" d="M306.7,96.5c0-0.1,0-0.2,0-0.3C306.7,96.3,306.7,96.4,306.7,96.5z"/>
	<path class="st12" d="M48.6,35.5c0-0.1,0.1-0.2,0.1-0.3C48.7,35.4,48.6,35.5,48.6,35.5z"/>
	<path class="st10" d="M279,98.3c0,0.1,0,0.2,0,0.3C278.9,98.4,279,98.3,279,98.3z"/>
	<path class="st12" d="M101.8,33.7c0,0.1-0.1,0.2-0.1,0.3C101.7,33.9,101.7,33.8,101.8,33.7z"/>
	<path class="st13" d="M47.3,59.5c0,0.1-0.1,0.2-0.1,0.3C47.3,59.6,47.3,59.5,47.3,59.5z"/>
	<path class="st10" d="M278.9,98.5c0,0-0.1,0.1-0.1,0.1C278.9,98.6,278.9,98.6,278.9,98.5z"/>
	<path class="st10" d="M282,87c0,0-0.1,0.1-0.1,0.1C281.9,87.1,281.9,87,282,87z"/>
	<path class="st7" d="M454.4,81c0,0-0.1,0.1-0.1,0.1C454.3,81.1,454.4,81.1,454.4,81z"/>
	<path class="st8" d="M277.5,103.6c0,0-0.1,0.1-0.1,0.1C277.4,103.7,277.4,103.7,277.5,103.6z"/>
	<path class="st7" d="M244.6,26.6c0,0,0.1,0,0.1-0.1C244.7,26.6,244.7,26.6,244.6,26.6z"/>
	<path class="st7" d="M145.7,26.4c0,0.1,0,0.1,0,0.2C145.7,26.5,145.7,26.5,145.7,26.4z"/>
	<path class="st7" d="M24.5,25.7c0,0.1,0,0.1,0,0.2C24.5,25.8,24.5,25.8,24.5,25.7z"/>
	<path class="st7" d="M389.9,81.1C389.8,81.1,389.8,81.1,389.9,81.1C389.8,81.1,389.8,81,389.9,81.1C389.9,81,389.9,81.1,389.9,81.1
		z"/>
	<path class="st2" d="M89.4,63.8c0.1,0,0.1,0.1,0.2,0.1C89.5,63.9,89.4,63.8,89.4,63.8z"/>
	<path class="st13" d="M49.2,52.4c0,0,0,0.1,0,0.1C49.2,52.5,49.2,52.4,49.2,52.4z"/>
</g>
</svg>
