<?xml version="1.0" encoding="UTF-8"?>
<svg version="1.1" xmlns="http://www.w3.org/2000/svg" width="474" height="269">
<path d="M0 0 C156.42 0 312.84 0 474 0 C474 88.77 474 177.54 474 269 C317.58 269 161.16 269 0 269 C0 180.23 0 91.46 0 0 Z " fill="#F5F5F5" transform="translate(0,0)"/>
<path d="M0 0 C95.37 0 190.74 0 289 0 C289 23.76 289 47.52 289 72 C283.06 72.99 283.06 72.99 277 74 C274.25326478 74.86656457 271.50615842 75.73381576 268.78125 76.66674805 C258.63863037 80.08448346 249.21394015 81.67432082 238.5 81.6875 C236.80991821 81.69740967 236.80991821 81.69740967 235.08569336 81.70751953 C228.6869745 81.56777795 223.24249799 80.91870139 218 77 C214.35160649 72.81068148 213.34137087 68.65384245 213.61328125 63.140625 C214.42472513 58.64899624 217.06073321 55.93926679 220.1875 52.8125 C227.86351424 47.86573527 236.05081108 47.40112284 245 47 C245 46.34 245 45.68 245 45 C244.31035156 44.87625 243.62070312 44.7525 242.91015625 44.625 C239.67954718 43.93117792 236.58868648 42.99318971 233.4375 42 C219.68532027 37.67561516 204.75857442 37.10894609 191 42 C190.06671875 42.31710938 189.1334375 42.63421875 188.171875 42.9609375 C175.85657583 47.60387114 165.11324266 55.43005471 154.5 63.0625 C143.09248456 71.23479496 131.63331281 78.25714172 118 82 C116.8965625 82.35320312 115.793125 82.70640625 114.65625 83.0703125 C107.18380701 84.97035676 97.08654685 85.86311073 90.1875 81.875 C86.04248229 78.57179604 84.30057757 75.48318059 83.65625 70.16015625 C83.21278964 61.19117048 83.21278964 61.19117048 86 57.5 C92.90646486 51.74461262 99.39537189 50.01141108 108.25 49.4375 C109.51328125 49.35371094 110.7765625 49.26992187 112.078125 49.18359375 C113.04234375 49.12300781 114.0065625 49.06242187 115 49 C112.1302458 47.67580956 109.25338361 46.3678135 106.375 45.0625 C105.56675781 44.68931641 104.75851563 44.31613281 103.92578125 43.93164062 C96.94455348 40.78157444 90.91338192 39.81989709 83.25 39.8125 C81.27773437 39.79123047 81.27773437 39.79123047 79.265625 39.76953125 C70.84833961 40.02610144 63.17303777 42.38989935 55.4375 45.5625 C54.13679565 46.08650391 54.13679565 46.08650391 52.80981445 46.62109375 C47.22756733 48.92486207 41.95256115 51.55233205 36.6875 54.5 C29.94653913 58.2572301 23.0346643 61.02413832 15.75 63.5625 C14.76088623 63.90925781 13.77177246 64.25601563 12.75268555 64.61328125 C8.11928282 66.17333336 4.99412609 67 0 67 C0 44.89 0 22.78 0 0 Z " fill="#030303" transform="translate(93,24)"/>
<path d="M0 0 C0 0.33 0 0.66 0 1 C-1.05058594 1.09796875 -2.10117188 1.1959375 -3.18359375 1.296875 C-11.10243716 2.11177265 -17.93998087 3.07094587 -25 7 C-25.71671875 7.28875 -26.4334375 7.5775 -27.171875 7.875 C-29.13290885 8.83590573 -29.13290885 8.83590573 -29.73046875 10.7578125 C-30.99491659 20.04873046 -30.99491659 20.04873046 -28.125 28.625 C-23.96285934 33.27680427 -21.66850308 33.76584023 -15.4296875 34.1640625 C-4.01759176 34.49881731 6.8689941 32.27522123 17 27 C18.11890625 26.44441406 19.2378125 25.88882813 20.390625 25.31640625 C28.27717143 21.32462902 35.41098763 16.74521347 42.52734375 11.51953125 C63.61795889 -3.92787103 84.5911102 -13.42111231 111.140625 -9.45703125 C117.82832433 -8.14699491 123.95315213 -6.15139955 130 -3 C130 -2.34 130 -1.68 130 -1 C129.07058594 -0.87882812 128.14117187 -0.75765625 127.18359375 -0.6328125 C117.9574665 0.59285029 117.9574665 0.59285029 109 3 C108.071875 3.28875 107.14375 3.5775 106.1875 3.875 C103.51651946 5.24864714 103.05638145 6.2371562 102 9 C101.66097656 9.60328125 101.32195312 10.2065625 100.97265625 10.828125 C99.21387843 14.75535579 99.46801101 18.79063709 100 23 C102.3903714 28.05655488 104.82620574 30.0437116 110 32 C114.02645973 32.43933883 118.01571204 32.42669037 122.0625 32.375 C123.18849609 32.36557373 124.31449219 32.35614746 125.47460938 32.34643555 C133.35566693 32.20325768 140.4712859 31.41825698 148 29 C150.18055306 28.32537676 152.36334933 27.65923198 154.54882812 27.00073242 C156.00896296 26.5568023 157.46515111 26.0995703 158.91601562 25.6262207 C159.92631836 25.31044067 159.92631836 25.31044067 160.95703125 24.98828125 C161.54460205 24.79790283 162.13217285 24.60752441 162.73754883 24.41137695 C166.10588495 23.79891916 169.57643566 24 173 24 C173 40.5 173 57 173 74 C78.29 74 -16.42 74 -114 74 C-114 56.18 -114 38.36 -114 20 C-106.20955646 16.66123848 -106.20955646 16.66123848 -102.390625 15.30859375 C-93.31129597 12.01811053 -84.61467294 8.49844294 -76.125 3.875 C-49.72834625 -10.47272255 -27.23462233 -14.48650124 0 0 Z " fill="#020202" transform="translate(208,119)"/>
<path d="M0 0 C0.86971436 0.00088623 1.73942871 0.00177246 2.63549805 0.00268555 C13.12684611 0.19228242 23.00838752 2.72486627 32.4375 7.375 C32.7675 8.365 33.0975 9.355 33.4375 10.375 C32.07818359 10.43107422 32.07818359 10.43107422 30.69140625 10.48828125 C20.32509304 11.04773307 11.98634459 11.82615541 4.4375 19.375 C1.87873846 23.63080957 1.79185983 27.52861243 2.4375 32.375 C3.74758929 36.4621648 5.59047191 38.903562 9.40625 41.02734375 C14.25338987 42.95734647 19.21831982 42.93913445 24.375 43.0625 C25.8300293 43.11374023 25.8300293 43.11374023 27.31445312 43.16601562 C29.68868637 43.24788574 32.06257877 43.31723078 34.4375 43.375 C34.1075 44.035 33.7775 44.695 33.4375 45.375 C34.38625 45.313125 35.335 45.25125 36.3125 45.1875 C37.34375 45.249375 38.375 45.31125 39.4375 45.375 C40.0975 46.365 40.7575 47.355 41.4375 48.375 C39.7875 48.375 38.1375 48.375 36.4375 48.375 C36.7675 50.025 37.0975 51.675 37.4375 53.375 C36.4475 53.045 35.4575 52.715 34.4375 52.375 C35.4275 54.355 35.4275 54.355 36.4375 56.375 C35.7775 56.375 35.1175 56.375 34.4375 56.375 C34.1075 57.035 33.7775 57.695 33.4375 58.375 C32.32375 58.33375 31.21 58.2925 30.0625 58.25 C25.77869183 58.2271327 21.88416383 59.02414082 17.734375 60.03515625 C15.30195883 60.39505456 13.75439481 60.13489899 11.4375 59.375 C18.59525723 57.08887222 24.91943151 55.93467929 32.4375 56.375 C32.4375 55.715 32.4375 55.055 32.4375 54.375 C10.54167606 46.44720168 -9.73898048 45.76669372 -31.16796875 54.9140625 C-38.7130229 58.44792804 -45.31637824 62.82903055 -51.984375 67.75390625 C-71.29308512 82.01141513 -90.7180395 93.62567352 -115.5625 92.375 C-120.07964078 91.65799353 -122.49805262 90.78908902 -125.4375 87.375 C-128.31978792 83.30588765 -128.7197572 81.44772175 -128.75 76.5 C-128.76417969 75.45070313 -128.77835938 74.40140625 -128.79296875 73.3203125 C-128.45445136 68.99417502 -127.47270138 67.23436989 -124.32421875 64.26171875 C-116.92851142 59.20920582 -107.36957397 57.77261056 -98.5625 57.375 C-106.09193541 53.72829853 -113.44656495 50.46352505 -121.5625 48.375 C-120.5725 47.88 -120.5725 47.88 -119.5625 47.375 C-119.5625 46.715 -119.5625 46.055 -119.5625 45.375 C-118.36753906 45.40980469 -117.17257813 45.44460937 -115.94140625 45.48046875 C-105.0056076 45.88056927 -105.0056076 45.88056927 -94.52734375 43.203125 C-92.41250215 42.31178023 -90.35706443 41.83946293 -88.125 41.3125 C-74.8140401 37.28634546 -63.21838284 28.60963491 -52.25488281 20.35620117 C-37.05248187 8.92924134 -19.39324134 -0.03586098 0 0 Z " fill="#F4F4F4" transform="translate(305.5625,61.625)"/>
<path d="M0 0 C18.88888889 0 18.88888889 0 24.53125 4.4921875 C27.1518421 7.1824762 27.16048064 9.2327909 27.1875 12.875 C27.20167969 13.73867187 27.21585938 14.60234375 27.23046875 15.4921875 C26.98859252 18.1241288 26.32983541 19.73980544 25 22 C24.34 22 23.68 22 23 22 C23 22.66 23 23.32 23 24 C24.32 24.33 25.64 24.66 27 25 C27.02578125 24.443125 27.0515625 23.88625 27.078125 23.3125 C27.57452034 16.63372635 28.83801335 10.92824637 33.90234375 6.23828125 C35.88799394 4.71114247 37.86494091 3.30939171 40 2 C40.86044922 1.43925781 40.86044922 1.43925781 41.73828125 0.8671875 C48.11601813 -1.57816239 57.55872248 -1.2841952 63.94140625 1.09765625 C68.83156293 4.20054754 71.97204645 8.11620395 75 13 C75.495 6.565 75.495 6.565 76 0 C82.40417059 -0.72174841 82.40417059 -0.72174841 86 0 C88.68797428 2.35301249 90.09247337 5.21264574 91.6875 8.375 C92.60152152 10.03141029 93.51817804 11.68636937 94.4375 13.33984375 C94.870625 14.14276855 95.30375 14.94569336 95.75 15.77294922 C97.8208994 19.46254772 100.31184834 22.77474943 102.85546875 26.15234375 C104 28 104 28 104 31 C104.66 31 105.32 31 106 31 C106 20.77 106 10.54 106 0 C108.97 0 111.94 0 115 0 C115.495 7.425 115.495 7.425 116 15 C116.515625 13.96875 117.03125 12.9375 117.5625 11.875 C120.5496131 6.63426421 125.29647612 2.13162004 131 0 C139.08982719 -1.17360371 147.91833012 -1.59262194 154.875 3.125 C158.3247577 6.05729404 160.93845697 8.97062043 163 13 C163 13.66 163 14.32 163 15 C160.89646505 15.0810206 158.79204048 15.13919907 156.6875 15.1875 C154.92986328 15.23970703 154.92986328 15.23970703 153.13671875 15.29296875 C150 15 150 15 148.22265625 13.5625 C147.81917969 13.046875 147.41570312 12.53125 147 12 C142.94218557 9.85837572 139.54845072 9.45104905 135 10 C130.78703988 12.13626867 127.69050897 14.49731734 126 19 C125.37339642 24.23141131 124.84621045 30.0063741 127.75 34.625 C130.55371476 37.58447669 132.52676212 38.8086126 136.5859375 39.3359375 C142.73494249 39.42205802 146.34917762 39.16126213 151 35 C151.33 34.34 151.66 33.68 152 33 C146.06 32.67 140.12 32.34 134 32 C134 29.03 134 26.06 134 23 C144.23 23 154.46 23 165 23 C165 32.57019632 163.76358345 36.76130848 157.51171875 43.63671875 C150.78817104 49.6716012 144.30118957 50.67141778 135.51953125 50.484375 C128.78650683 49.55774345 124.10657116 46.21189972 119.5 41.375 C118 39 118 39 116 35 C115.67 39.95 115.34 44.9 115 50 C111.7 50 108.4 50 105 50 C104.64808594 49.24976563 104.29617188 48.49953125 103.93359375 47.7265625 C100.98618779 41.61627443 97.84328979 36.00387395 93.80859375 30.546875 C91.38579238 27.13506833 89.21780279 23.54848447 87 20 C86.67 29.9 86.34 39.8 86 50 C82.7 50 79.4 50 76 50 C75.67 45.71 75.34 41.42 75 37 C73.68 38.588125 72.36 40.17625 71 41.8125 C65.69060918 47.63225087 62.40871491 49.55551057 54.66796875 50.3359375 C46.95539254 50.68090896 41.90057356 50.05373198 36 45 C35.401875 44.52304688 34.80375 44.04609375 34.1875 43.5546875 C32.76487417 42.40209713 31.37792021 41.20568019 30 40 C29.2265625 41.36125 29.2265625 41.36125 28.4375 42.75 C26.08135832 46.89680936 23.78085279 47.26808412 19 50 C12.73 50 6.46 50 0 50 C0 33.5 0 17 0 0 Z " fill="#0B0B0B" transform="translate(211,195)"/>
<path d="M0 0 C0.66 0.33 1.32 0.66 2 1 C1.67 18.82 1.34 36.64 1 55 C95.71 55 190.42 55 288 55 C288 38.5 288 22 288 5 C287.34 4.67 286.68 4.34 286 4 C286.99 4 287.98 4 289 4 C289 21.16 289 38.32 289 56 C269.5 56.6875 269.5 56.6875 263.39257812 56.8659668 C261.77205752 56.93354118 260.15160775 57.00284585 258.53125 57.07421875 C257.29713379 57.10062439 257.29713379 57.10062439 256.03808594 57.12756348 C249.25133228 57.46224993 244.37165739 59.74266746 239.47131348 64.47685242 C236.88653965 67.40112828 235.19827907 70.29622833 234 74 C233.67 74 233.34 74 233 74 C233 68.39 233 62.78 233 57 C230.03 57 227.06 57 224 57 C224 67.23 224 77.46 224 88 C223.34 88 222.68 88 222 88 C221.401875 86.865625 220.80375 85.73125 220.1875 84.5625 C217.03931068 78.85754421 213.44266365 73.45070021 209.8347168 68.02954102 C207.47480883 64.44694637 205.379602 61.09846675 204 57 C200.7 57 197.4 57 194 57 C194 61.95 194 66.9 194 72 C192.68 70.35 191.36 68.7 190 67 C185.56045865 62.20996854 181.67438872 58.4069722 175.046875 57.3984375 C173.61506774 57.36037952 172.18215236 57.35355053 170.75 57.375 C169.62718628 57.38539307 169.62718628 57.38539307 168.48168945 57.39599609 C160.35785925 57.71382021 155.06383634 60.70048394 149.5625 66.625 C147.27591691 71.56401948 146.13369566 76.69224303 145 82 C143.68 81.67 142.36 81.34 141 81 C141 80.34 141 79.68 141 79 C141.66 78.67 142.32 78.34 143 78 C144.44832471 73.65502588 144.65215717 69.53611544 144 65 C141.24813963 61.33085285 139.1228478 60.0614239 135 58 C129.39 57.67 123.78 57.34 118 57 C118 71.85 118 86.7 118 102 C117.67 102 117.34 102 117 102 C116.67 94.08 116.34 86.16 116 78 C114.16780354 79.83219646 114.76098672 82.75713741 114.68359375 85.22265625 C114.64169922 86.48271484 114.59980469 87.74277344 114.55664062 89.04101562 C114.51682404 90.38150736 114.47711186 91.7220022 114.4375 93.0625 C114.39431958 94.40691523 114.35070544 95.7513166 114.30664062 97.09570312 C114.20014642 100.3970234 114.0981354 103.69842236 114 107 C112.35 107 110.7 107 109 107 C109 103.04 109 99.08 109 95 C104.76871294 95.03298665 100.54271783 95.10016358 96.3125 95.1875 C94.51522461 95.19620117 94.51522461 95.19620117 92.68164062 95.20507812 C85.54887156 95.11020822 85.54887156 95.11020822 79.66796875 98.55078125 C79.11753906 99.35902344 78.56710938 100.16726562 78 101 C82.29 101.33 86.58 101.66 91 102 C91 103.65 91 105.3 91 107 C74.5 107 58 107 41 107 C41 91.16 41 75.32 41 59 C42.65 59 44.3 59 46 59 C46 73.19 46 87.38 46 102 C51.61 102 57.22 102 63 102 C63 87.81 63 73.62 63 59 C64.65 58.34 66.3 57.68 68 57 C49.685 56.505 49.685 56.505 31 56 C31 57.98 31 59.96 31 62 C31.33 62.33 31.66 62.66 32 63 C32.66 61.68 33.32 60.36 34 59 C35.32 59 36.64 59 38 59 C38 74.84 38 90.68 38 107 C36.68 107 35.36 107 34 107 C34 97.76 34 88.52 34 79 C33.01 79.33 32.02 79.66 31 80 C29.515 79.505 29.515 79.505 28 79 C26.515 79.99 26.515 79.99 25 81 C25.969375 81.78375 26.93875 82.5675 27.9375 83.375 C30.54357704 85.48204101 31.85922549 86.71687493 32.23828125 90.171875 C32.40568873 95.98708213 32.06897793 99.49113257 28 104 C24.29323205 106.66239608 21.80252175 107.36581586 17.26171875 107.29296875 C16.19501953 107.28330078 15.12832031 107.27363281 14.02929688 107.26367188 C12.92650391 107.23853516 11.82371094 107.21339844 10.6875 107.1875 C9.56537109 107.17396484 8.44324219 107.16042969 7.28710938 107.14648438 C4.52424771 107.1112138 1.76237171 107.06192235 -1 107 C-1.0505894 100.20071581 -1.08568667 93.4014799 -1.10986328 86.60205078 C-1.11993892 84.28757921 -1.13359975 81.97312041 -1.15087891 79.65869141 C-1.17505865 76.33753307 -1.1864673 73.0165426 -1.1953125 69.6953125 C-1.20563507 68.65569366 -1.21595764 67.61607483 -1.22659302 66.54495239 C-1.22681961 65.10368484 -1.22681961 65.10368484 -1.22705078 63.63330078 C-1.231492 62.78502716 -1.23593323 61.93675354 -1.24050903 61.06277466 C-1 59 -1 59 1 57 C0.67 56.67 0.34 56.34 0 56 C-0.09365006 54.2507128 -0.11744438 52.49763746 -0.11352539 50.74584961 C-0.11344986 49.62476303 -0.11337433 48.50367645 -0.11329651 47.34861755 C-0.10813522 46.1288472 -0.10297394 44.90907684 -0.09765625 43.65234375 C-0.0962413 42.41078018 -0.09482635 41.16921661 -0.09336853 39.89002991 C-0.08870591 36.58394509 -0.07971497 33.27792854 -0.06866455 29.97186279 C-0.05844827 26.6003885 -0.05387045 23.22890717 -0.04882812 19.85742188 C-0.03777395 13.23826225 -0.02101736 6.61913507 0 0 Z " fill="#F4F4F4" transform="translate(93,138)"/>
<path d="M0 0 C0.66 0.33 1.32 0.66 2 1 C1.67 18.82 1.34 36.64 1 55 C95.71 55 190.42 55 288 55 C288 38.5 288 22 288 5 C287.34 4.67 286.68 4.34 286 4 C286.99 4 287.98 4 289 4 C289 21.16 289 38.32 289 56 C269.5 56.6875 269.5 56.6875 263.39257812 56.8659668 C261.77205752 56.93354118 260.15160775 57.00284585 258.53125 57.07421875 C257.29713379 57.10062439 257.29713379 57.10062439 256.03808594 57.12756348 C249.25133228 57.46224993 244.37165739 59.74266746 239.47131348 64.47685242 C236.88653965 67.40112828 235.19827907 70.29622833 234 74 C233.67 74 233.34 74 233 74 C233 68.39 233 62.78 233 57 C230.03 57 227.06 57 224 57 C224 67.23 224 77.46 224 88 C223.34 88 222.68 88 222 88 C221.401875 86.865625 220.80375 85.73125 220.1875 84.5625 C217.03931068 78.85754421 213.44266365 73.45070021 209.8347168 68.02954102 C207.47480883 64.44694637 205.379602 61.09846675 204 57 C200.7 57 197.4 57 194 57 C194 61.95 194 66.9 194 72 C192.68 70.35 191.36 68.7 190 67 C182.05396385 58.42664521 176.36520476 57.51479992 165 57 C160.36958299 56.86266682 155.74213782 56.8168459 151.10986328 56.79467773 C149.80084045 56.78477814 148.49181763 56.77487854 147.14312744 56.76467896 C143.60276556 56.73800464 140.06239086 56.71679606 136.52198648 56.69667697 C132.80376856 56.67458184 129.0855884 56.64730997 125.36740112 56.62062073 C118.34844346 56.57100792 111.32946448 56.52595463 104.31046569 56.48259836 C96.31026826 56.43295482 88.31010879 56.37813862 80.30994821 56.32291877 C63.87333392 56.20958192 47.43668464 56.10264064 31 56 C30.95745644 57.99954746 30.95919217 60.00041636 31 62 C31.33 62.33 31.66 62.66 32 63 C32.66 61.68 33.32 60.36 34 59 C35.32 59 36.64 59 38 59 C38 74.84 38 90.68 38 107 C36.68 107 35.36 107 34 107 C34 97.76 34 88.52 34 79 C33.01 79.33 32.02 79.66 31 80 C29.515 79.505 29.515 79.505 28 79 C26.515 79.99 26.515 79.99 25 81 C25.969375 81.78375 26.93875 82.5675 27.9375 83.375 C30.54357704 85.48204101 31.85922549 86.71687493 32.23828125 90.171875 C32.40568873 95.98708213 32.06897793 99.49113257 28 104 C24.29323205 106.66239608 21.80252175 107.36581586 17.26171875 107.29296875 C16.19501953 107.28330078 15.12832031 107.27363281 14.02929688 107.26367188 C12.92650391 107.23853516 11.82371094 107.21339844 10.6875 107.1875 C9.56537109 107.17396484 8.44324219 107.16042969 7.28710938 107.14648438 C4.52424771 107.1112138 1.76237171 107.06192235 -1 107 C-1.0505894 100.20071581 -1.08568667 93.4014799 -1.10986328 86.60205078 C-1.11993892 84.28757921 -1.13359975 81.97312041 -1.15087891 79.65869141 C-1.17505865 76.33753307 -1.1864673 73.0165426 -1.1953125 69.6953125 C-1.20563507 68.65569366 -1.21595764 67.61607483 -1.22659302 66.54495239 C-1.22681961 65.10368484 -1.22681961 65.10368484 -1.22705078 63.63330078 C-1.231492 62.78502716 -1.23593323 61.93675354 -1.24050903 61.06277466 C-1 59 -1 59 1 57 C0.67 56.67 0.34 56.34 0 56 C-0.09365006 54.2507128 -0.11744438 52.49763746 -0.11352539 50.74584961 C-0.11344986 49.62476303 -0.11337433 48.50367645 -0.11329651 47.34861755 C-0.10813522 46.1288472 -0.10297394 44.90907684 -0.09765625 43.65234375 C-0.0962413 42.41078018 -0.09482635 41.16921661 -0.09336853 39.89002991 C-0.08870591 36.58394509 -0.07971497 33.27792854 -0.06866455 29.97186279 C-0.05844827 26.6003885 -0.05387045 23.22890717 -0.04882812 19.85742188 C-0.03777395 13.23826225 -0.02101736 6.61913507 0 0 Z " fill="#818181" transform="translate(93,138)"/>
<path d="M0 0 C2.97 0 5.94 0 9 0 C9.33 4.95 9.66 9.9 10 15 C10.515625 13.96875 11.03125 12.9375 11.5625 11.875 C14.5496131 6.63426421 19.29647612 2.13162004 25 0 C33.08982719 -1.17360371 41.91833012 -1.59262194 48.875 3.125 C52.3247577 6.05729404 54.93845697 8.97062043 57 13 C57 13.66 57 14.32 57 15 C54.89646505 15.0810206 52.79204048 15.13919907 50.6875 15.1875 C48.92986328 15.23970703 48.92986328 15.23970703 47.13671875 15.29296875 C44 15 44 15 42.22265625 13.5625 C41.81917969 13.046875 41.41570312 12.53125 41 12 C36.94218557 9.85837572 33.54845072 9.45104905 29 10 C24.78703988 12.13626867 21.69050897 14.49731734 20 19 C19.37339642 24.23141131 18.84621045 30.0063741 21.75 34.625 C24.55371476 37.58447669 26.52676212 38.8086126 30.5859375 39.3359375 C36.73494249 39.42205802 40.34917762 39.16126213 45 35 C45.495 34.01 45.495 34.01 46 33 C40.06 32.67 34.12 32.34 28 32 C28 29.03 28 26.06 28 23 C38.23 23 48.46 23 59 23 C59 32.57019632 57.76358345 36.76130848 51.51171875 43.63671875 C44.78817104 49.6716012 38.30118957 50.67141778 29.51953125 50.484375 C22.78650683 49.55774345 18.10657116 46.21189972 13.5 41.375 C12 39 12 39 10 35 C9.67 39.95 9.34 44.9 9 50 C5.7 50 2.4 50 -1 50 C-1.40992188 49.15695313 -1.81984375 48.31390625 -2.2421875 47.4453125 C-2.78101563 46.34960938 -3.31984375 45.25390625 -3.875 44.125 C-4.67550781 42.48917969 -4.67550781 42.48917969 -5.4921875 40.8203125 C-6.84535937 37.96117453 -6.84535937 37.96117453 -9 36 C-8.9765625 33.6171875 -8.9765625 33.6171875 -8.625 30.875 C-8.51414062 29.96492188 -8.40328125 29.05484375 -8.2890625 28.1171875 C-8.19367188 27.41851562 -8.09828125 26.71984375 -8 26 C-6.68 25.67 -5.36 25.34 -4 25 C-2 28 -2 28 -2 31 C-1.34 31 -0.68 31 0 31 C0 20.77 0 10.54 0 0 Z " fill="#0B0B0B" transform="translate(317,195)"/>
<path d="M0 0 C1.65 0 3.3 0 5 0 C5 14.19 5 28.38 5 43 C10.61 43 16.22 43 22 43 C22 28.81 22 14.62 22 0 C23.32 0 24.64 0 26 0 C26 14.52 26 29.04 26 44 C27.32 44 28.64 44 30 44 C30.24363281 43.42765625 30.48726562 42.8553125 30.73828125 42.265625 C32.22517298 39.59566462 33.98083908 37.86170993 36.1875 35.75 C39.75619013 32.26695843 43.0758191 28.68118787 46.3203125 24.8984375 C47.98204576 23.02029247 49.71125525 21.25694484 51.5 19.5 C55.90771283 15.16115769 59.95765007 10.51531518 63.85546875 5.71484375 C64.76232422 4.61849609 64.76232422 4.61849609 65.6875 3.5 C66.49767578 2.49453125 66.49767578 2.49453125 67.32421875 1.46875 C69 0 69 0 73 0 C73 15.84 73 31.68 73 48 C71.35 48 69.7 48 68 48 C68 44.04 68 40.08 68 36 C63.76871294 36.03298665 59.54271783 36.10016358 55.3125 36.1875 C53.51522461 36.19620117 53.51522461 36.19620117 51.68164062 36.20507812 C44.54887156 36.11020822 44.54887156 36.11020822 38.66796875 39.55078125 C38.11753906 40.35902344 37.56710938 41.16726562 37 42 C41.29 42.33 45.58 42.66 50 43 C50 44.65 50 46.3 50 48 C33.5 48 17 48 0 48 C0 32.16 0 16.32 0 0 Z " fill="#363636" transform="translate(134,197)"/>
<path d="M0 0 C3.856875 -0.061875 7.71375 -0.12375 11.6875 -0.1875 C13.4986731 -0.22846802 13.4986731 -0.22846802 15.34643555 -0.27026367 C16.308479 -0.27775635 17.27052246 -0.28524902 18.26171875 -0.29296875 C19.24100342 -0.3086792 20.22028809 -0.32438965 21.22924805 -0.34057617 C24.49234169 0.06051781 26.34383369 1.09923841 29 3 C31.57073939 6.42765252 31.43037452 9.83971296 31 14 C27.92307692 19.53846154 27.92307692 19.53846154 25 21 C25.969375 21.78375 26.93875 22.5675 27.9375 23.375 C30.54357704 25.48204101 31.85922549 26.71687493 32.23828125 30.171875 C32.40615559 36.00329927 32.00477651 39.42311256 28 44 C24.55366118 46.29755922 23.28931609 46.23643976 19.23828125 46.1953125 C17.72681519 46.18781982 17.72681519 46.18781982 16.18481445 46.18017578 C14.2680188 46.15286377 14.2680188 46.15286377 12.3125 46.125 C8.249375 46.08375 4.18625 46.0425 0 46 C0 30.82 0 15.64 0 0 Z " fill="#0F0F0F" transform="translate(93,198)"/>
<path d="M0 0 C1.88138672 0.05414063 1.88138672 0.05414063 3.80078125 0.109375 C5.22970703 0.17898437 5.22970703 0.17898437 6.6875 0.25 C6.6875 0.91 6.6875 1.57 6.6875 2.25 C7.450625 2.476875 8.21375 2.70375 9 2.9375 C12.49567551 4.64469036 13.27446657 5.60586114 14.6875 9.25 C15.34848491 14.53787924 15.36012096 18.82714798 13.0625 23.6875 C8.94342051 28.13176997 5.81816792 30.47384379 -0.3125 30.75 C-5.03073206 30.53038259 -7.7763321 29.53358448 -11.3125 26.25 C-15.03056347 21.35781122 -15.91132287 17.67410305 -15.6328125 11.546875 C-15.03313504 7.2467488 -13.1756959 5.09755829 -10.15625 2.1328125 C-6.53011436 -0.26800808 -4.30540291 -0.16094964 0 0 Z " fill="#F2F2F2" transform="translate(263.3125,204.75)"/>
<path d="M0 0 C25.74 0 51.48 0 78 0 C76.68 0.66 75.36 1.32 74 2 C66.898435 5.89668378 61.59528567 9.97820794 59 18 C58.67 18 58.34 18 58 18 C58 12.39 58 6.78 58 1 C55.03 1 52.06 1 49 1 C49 11.23 49 21.46 49 32 C48.34 32 47.68 32 47 32 C46.401875 30.865625 45.80375 29.73125 45.1875 28.5625 C42.03931068 22.85754421 38.44266365 17.45070021 34.8347168 12.02954102 C32.47480883 8.44694637 30.379602 5.09846675 29 1 C25.7 1 22.4 1 19 1 C19 5.95 19 10.9 19 16 C17.68 14.35 16.36 12.7 15 11 C10.53073505 6.17789835 5.87125487 2.93562743 0 0 Z " fill="#F5F5F5" transform="translate(268,194)"/>
<path d="M0 0 C17.47966339 -0.57784011 17.47966339 -0.57784011 23 4 C24.57422753 7.14845506 24.66928343 10.59218072 24 14 C22.62109375 16.7421875 22.62109375 16.7421875 20 19 C16.56503028 19.61758678 13.22566455 19.47070602 9.75 19.3125 C8.81414062 19.28994141 7.87828125 19.26738281 6.9140625 19.24414062 C4.60868866 19.18533007 2.30413932 19.09565154 0 19 C0 12.73 0 6.46 0 0 Z " fill="#F1F1F1" transform="translate(97,221)"/>
<path d="M0 0 C2.72977064 -0.08126109 5.4571017 -0.14061663 8.1875 -0.1875 C9.34088867 -0.22520508 9.34088867 -0.22520508 10.51757812 -0.26367188 C15.09217501 -0.32257226 18.44395298 -0.23340765 22 3 C22.59375 5.375 22.59375 5.375 22.5 8 C22.4896875 8.86625 22.479375 9.7325 22.46875 10.625 C21.90764337 13.46794025 21.25692533 14.23208041 19 16 C16.9152832 16.34057617 16.9152832 16.34057617 14.55078125 16.29296875 C13.70322266 16.28330078 12.85566406 16.27363281 11.98242188 16.26367188 C10.66081055 16.2259668 10.66081055 16.2259668 9.3125 16.1875 C8.41982422 16.17396484 7.52714844 16.16042969 6.60742188 16.14648438 C4.40469017 16.11114643 2.2022688 16.05733969 0 16 C0 10.72 0 5.44 0 0 Z " fill="#F4F4F4" transform="translate(97,201)"/>
<path d="M0 0 C0.66 0 1.32 0 2 0 C2 8.25 2 16.5 2 25 C-5.26 25 -12.52 25 -20 25 C-18.40837332 21.81674664 -17.4768726 20.22019809 -15.13671875 17.79296875 C-14.57919922 17.20580078 -14.02167969 16.61863281 -13.44726562 16.01367188 C-12.86654297 15.41103516 -12.28582031 14.80839844 -11.6875 14.1875 C-8.25604023 10.62391154 -5.01054159 7.13824788 -2.20703125 3.05078125 C-1.47871094 2.04402344 -0.75039062 1.03726563 0 0 Z " fill="#E9E9E9" transform="translate(201,204)"/>
<path d="M0 0 C0 8.58 0 17.16 0 26 C-0.99 26.33 -1.98 26.66 -3 27 C-3 20.07 -3 13.14 -3 6 C-3.66 6 -4.32 6 -5 6 C-5.24363281 6.56203125 -5.48726562 7.1240625 -5.73828125 7.703125 C-7.24180936 10.44019785 -9.06699748 12.45795941 -11.1875 14.75 C-11.98542969 15.62398437 -12.78335938 16.49796875 -13.60546875 17.3984375 C-15.10692173 19.02970616 -16.60937147 20.66005856 -18.11328125 22.2890625 C-18.73589844 22.97742188 -19.35851562 23.66578125 -20 24.375 C-20.556875 24.98085937 -21.11375 25.58671875 -21.6875 26.2109375 C-23.31678804 28.19530127 -23.31678804 28.19530127 -24 32 C-17.4 32 -10.8 32 -4 32 C-4.33 32.66 -4.66 33.32 -5 34 C-8.72915017 34.02912348 -12.4582709 34.04684037 -16.1875 34.0625 C-17.77014648 34.07506836 -17.77014648 34.07506836 -19.38476562 34.08789062 C-20.91713867 34.09272461 -20.91713867 34.09272461 -22.48046875 34.09765625 C-23.41785889 34.10289307 -24.35524902 34.10812988 -25.32104492 34.11352539 C-27.98049477 34.00082657 -30.40920573 33.59376649 -33 33 C-29.02612054 27.21687461 -24.47660197 22.36320223 -19.46875 17.4609375 C-15.51760863 13.52229974 -11.74122768 9.40751379 -8.46875 4.8828125 C-6.30241624 2.10575699 -3.61199017 0 0 0 Z " fill="#202020" transform="translate(206,198)"/>
<path d="M0 0 C10.23 0 20.46 0 31 0 C31 2.97 31 5.94 31 9 C30.01 9.66 29.02 10.32 28 11 C26.02 10.01 24.04 9.02 22 8 C21.01 8.99 20.02 9.98 19 11 C19 10.34 19 9.68 19 9 C12.73 9 6.46 9 0 9 C0 6.03 0 3.06 0 0 Z " fill="#171717" transform="translate(345,218)"/>
<path d="M0 0 C7.59 0.33 15.18 0.66 23 1 C22.67 1.66 22.34 2.32 22 3 C22.94875 2.938125 23.8975 2.87625 24.875 2.8125 C25.90625 2.874375 26.9375 2.93625 28 3 C28.66 3.99 29.32 4.98 30 6 C28.35 6 26.7 6 25 6 C25.495 8.475 25.495 8.475 26 11 C25.01 10.67 24.02 10.34 23 10 C23.66 11.32 24.32 12.64 25 14 C24.34 14 23.68 14 23 14 C22.67 14.66 22.34 15.32 22 16 C20.88625 15.95875 19.7725 15.9175 18.625 15.875 C14.34119183 15.8521327 10.44666383 16.64914082 6.296875 17.66015625 C3.86445883 18.02005456 2.31689481 17.75989899 0 17 C7.15775723 14.71387222 13.48193151 13.55967929 21 14 C21 13.34 21 12.68 21 12 C7.82547685 7.22991403 -5.09184522 5.48830083 -19 5 C-19 4.67 -19 4.34 -19 4 C-12.73 3.67 -6.46 3.34 0 3 C0 2.01 0 1.02 0 0 Z " fill="#EBEBEB" transform="translate(317,104)"/>
<path d="M0 0 C2.23016282 2.09414273 3.87772402 4.19111042 5.48046875 6.79296875 C5.92197266 7.50517578 6.36347656 8.21738281 6.81835938 8.95117188 C7.27017578 9.68916016 7.72199219 10.42714844 8.1875 11.1875 C8.65091797 11.93708984 9.11433594 12.68667969 9.59179688 13.45898438 C10.73154026 15.30372367 11.86626355 17.15156289 13 19 C12.34 19.66 11.68 20.32 11 21 C10.835 22.175625 10.67 23.35125 10.5 24.5625 C10.2525 26.2640625 10.2525 26.2640625 10 28 C9.34 28.33 8.68 28.66 8 29 C5.03 24.38 2.06 19.76 -1 15 C-1.33 24.9 -1.66 34.8 -2 45 C-5.3 45 -8.6 45 -12 45 C-12.33 39.39 -12.66 33.78 -13 28 C-12.34 28 -11.68 28 -11 28 C-11 33.28 -11 38.56 -11 44 C-8.36 44 -5.72 44 -3 44 C-3 33.44 -3 22.88 -3 12 C-2.34 12 -1.68 12 -1 12 C-1 10.68 -1 9.36 -1 8 C-0.34 8 0.32 8 1 8 C0.67 5.36 0.34 2.72 0 0 Z " fill="#232323" transform="translate(299,200)"/>
<path d="M0 0 C1.32 0 2.64 0 4 0 C4 15.84 4 31.68 4 48 C2.68 48 1.36 48 0 48 C0 32.16 0 16.32 0 0 Z " fill="#1B1B1B" transform="translate(127,197)"/>
<path d="M0 0 C6.93 0 13.86 0 21 0 C18 2 18 2 15.66015625 3.296875 C9.20477974 6.90800291 5.27178143 9.66816806 3.10546875 17.046875 C2.34096009 20.02112788 1.64140334 22.99706616 1 26 C-0.32 25.67 -1.64 25.34 -3 25 C-3 24.34 -3 23.68 -3 23 C-2.34 22.67 -1.68 22.34 -1 22 C0.44880144 17.65359568 0.66123344 13.53718694 0 9 C-1.41475512 6.48213162 -2.87689581 5.01694898 -5 3 C-3.35 2.67 -1.7 2.34 0 2 C0 1.34 0 0.68 0 0 Z " fill="#F5F5F5" transform="translate(237,194)"/>
<path d="M0 0 C0 15.84 0 31.68 0 48 C-1.65 48 -3.3 48 -5 48 C-5.33 43.38 -5.66 38.76 -6 34 C-12.27 34 -18.54 34 -25 34 C-25.33 33.34 -25.66 32.68 -26 32 C-18.74 32 -11.48 32 -4 32 C-3.67 30.35 -3.34 28.7 -3 27 C-2.34 27 -1.68 27 -1 27 C-1 18.42 -1 9.84 -1 1 C-2.32 1.99 -3.64 2.98 -5 4 C-5.66 3.67 -6.32 3.34 -7 3 C-4.49955934 -0.00052879 -4.2621484 0 0 0 Z " fill="#2D2D2D" transform="translate(207,197)"/>
<path d="M0 0 C0.99 0 1.98 0 3 0 C3 14.19 3 28.38 3 43 C4.98 43 6.96 43 9 43 C8.67 43.99 8.34 44.98 8 46 C5.36 46 2.72 46 0 46 C0 30.82 0 15.64 0 0 Z " fill="#040404" transform="translate(135,198)"/>
<path d="M0 0 C3.39641991 1.40541514 5.05444693 2.88492907 7 6 C7.9148747 10.99472135 7.51986301 14.9961266 5.1875 19.5 C3 22 3 22 0 24 C-0.99 23.67 -1.98 23.34 -3 23 C-3 22.67 -3 22.34 -3 22 C-9.27 21.67 -15.54 21.34 -22 21 C-22 14.4 -22 7.8 -22 1 C-21.67 1 -21.34 1 -21 1 C-21 7.27 -21 13.54 -21 20 C-17.72718326 19.94011314 -14.45899366 19.8531451 -11.1875 19.75 C-10.25873047 19.73582031 -9.32996094 19.72164062 -8.37304688 19.70703125 C-7.0340332 19.65869141 -7.0340332 19.65869141 -5.66796875 19.609375 C-4.43469849 19.5779541 -4.43469849 19.5779541 -3.17651367 19.54589844 C-0.85584462 19.16452592 -0.85584462 19.16452592 0.7644043 17.20800781 C2.61949458 13.89296403 2.68776605 10.65601955 2 7 C0.16343011 4.03268602 0.16343011 4.03268602 -2 2 C-1.34 2 -0.68 2 0 2 C0 1.34 0 0.68 0 0 Z " fill="#252525" transform="translate(118,220)"/>
<path d="M0 0 C7.68421053 -0.29554656 7.68421053 -0.29554656 11 2 C12.41441874 4.82883747 12.31900332 6.87376745 12 10 C10.5 11.875 10.5 11.875 8 13 C5.27930412 13.23364755 2.74133849 13.13706692 0 13 C0 8.71 0 4.42 0 0 Z " fill="#F4F4F4" transform="translate(220,223)"/>
<path d="M0 0 C0.99 -0.33 1.98 -0.66 3 -1 C5.26171875 -0.00390625 5.26171875 -0.00390625 7.6875 1.4375 C8.89986328 2.14712891 8.89986328 2.14712891 10.13671875 2.87109375 C10.75160156 3.24363281 11.36648437 3.61617188 12 4 C12 4.33 12 4.66 12 5 C11.03320312 5.02578125 10.06640625 5.0515625 9.0703125 5.078125 C0.93927552 5.43234839 -5.62180739 6.27576944 -13 10 C-14.12341797 10.55880859 -14.12341797 10.55880859 -15.26953125 11.12890625 C-15.84058594 11.41636719 -16.41164062 11.70382813 -17 12 C-17.33 10.35 -17.66 8.7 -18 7 C-12.375 5 -12.375 5 -9 5 C-9.33 3.68 -9.66 2.36 -10 1 C-6.15896814 -0.48403504 -3.93891322 -1.22242134 0 0 Z " fill="#E9E9E9" transform="translate(197,69)"/>
<path d="M0 0 C0 9.24 0 18.48 0 28 C1.32 28.33 2.64 28.66 4 29 C2.68 29 1.36 29 0 29 C-0.33 29.66 -0.66 30.32 -1 31 C-1.66 29.35 -2.32 27.7 -3 26 C-5.15634036 26 -6.92446352 26.4465236 -9 27 C-7.09570312 24.75390625 -7.09570312 24.75390625 -5.19140625 22.5078125 C-2.04318947 18.52351191 -2.43368287 13.85961324 -3 9 C-5.05107588 5.60511578 -6.70484621 4.19676919 -10 2 C-6.20635557 -1.64773503 -5.88197652 -0.98032942 0 0 Z " fill="#E8E8E8" transform="translate(127,217)"/>
<path d="M0 0 C0.33 0 0.66 0 1 0 C1 9.9 1 19.8 1 30 C0.34 30 -0.32 30 -1 30 C-1.32613281 29.40832031 -1.65226562 28.81664062 -1.98828125 28.20703125 C-4.2613675 24.09670124 -6.54495799 20.00559486 -9 16 C-7.0625 15.4375 -7.0625 15.4375 -5 15 C-4.67 15.33 -4.34 15.66 -4 16 C-3.96261719 15.18015625 -3.92523438 14.3603125 -3.88671875 13.515625 C-3.82097656 12.43796875 -3.75523437 11.3603125 -3.6875 10.25 C-3.62949219 9.18265625 -3.57148438 8.1153125 -3.51171875 7.015625 C-2.96796716 3.81122629 -2.20933645 2.3399656 0 0 Z " fill="#D5D5D5" transform="translate(316,196)"/>
<path d="M0 0 C13.2 0 26.4 0 40 0 C39.67 0.66 39.34 1.32 39 2 C38.0713916 1.99476318 37.1427832 1.98952637 36.18603516 1.98413086 C32.74576195 1.96710407 29.30553341 1.95455727 25.86523438 1.94506836 C24.37531834 1.94003486 22.88540726 1.93320758 21.39550781 1.92456055 C19.25584696 1.91245195 17.11625132 1.90676193 14.9765625 1.90234375 C13.68830566 1.89710693 12.40004883 1.89187012 11.07275391 1.88647461 C8.08594772 1.78457369 8.08594772 1.78457369 6 3 C5.01 4.485 5.01 4.485 4 6 C4 5.01 4 4.02 4 3 C3.01 3.33 2.02 3.66 1 4 C0.67 17.86 0.34 31.72 0 46 C0.99 46.33 1.98 46.66 3 47 C1.68 47 0.36 47 -1 47 C-1.02529825 40.62793828 -1.04284496 34.25588946 -1.05493164 27.88378906 C-1.05996891 25.71483883 -1.06679891 23.545892 -1.07543945 21.37695312 C-1.08753151 18.26431437 -1.09323428 15.1517204 -1.09765625 12.0390625 C-1.10281754 11.065065 -1.10797882 10.0910675 -1.11329651 9.08755493 C-1.11337204 8.18677216 -1.11344757 7.28598938 -1.11352539 6.35791016 C-1.115746 5.56293121 -1.11796661 4.76795227 -1.12025452 3.94888306 C-1 2 -1 2 0 0 Z " fill="#C8C8C8" transform="translate(161,194)"/>
<path d="M0 0 C5.61 0 11.22 0 17 0 C15.02 0.99 15.02 0.99 13 2 C5.898435 5.89668378 0.59528567 9.97820794 -2 18 C-2.33 18 -2.66 18 -3 18 C-3 12.39 -3 6.78 -3 1 C-1.35 2.65 0.3 4.3 2 6 C2 4.35 2 2.7 2 1 C1.34 0.67 0.68 0.34 0 0 Z " fill="#EFEFEF" transform="translate(329,194)"/>
<path d="M0 0 C0.66 0 1.32 0 2 0 C2.60583055 6.0583055 2.60583055 6.0583055 0.88671875 8.73046875 C-0.38187924 10.17774251 -1.68917265 11.5908606 -3 13 C-3 13.66 -3 14.32 -3 15 C-8.94 14.67 -14.88 14.34 -21 14 C-21 13.01 -21 12.02 -21 11 C-19.57107422 10.97873047 -19.57107422 10.97873047 -18.11328125 10.95703125 C-10.48359763 10.84472923 -10.48359763 10.84472923 -3.75 7.75 C-2.12721341 5.19990678 -0.90556452 2.88134164 0 0 Z " fill="#050505" transform="translate(121,207)"/>
<path d="M0 0 C3.60008519 -0.32728047 5.41611492 -0.40422813 8.4375 1.6875 C10 4 10 4 9.875 6.625 C9 9 9 9 7 11 C3.375 11.125 3.375 11.125 0 11 C0 7.37 0 3.74 0 0 Z " fill="#DDDDDD" transform="translate(220,204)"/>
<path d="M0 0 C3.3 0 6.6 0 10 0 C10 2.97 10 5.94 10 9 C6.7 9 3.4 9 0 9 C0 6.03 0 3.06 0 0 Z " fill="#242424" transform="translate(372,236)"/>
<path d="M0 0 C-0.57344937 2.86724686 -0.8614515 3.8614515 -3 6 C-2.67 6.99 -2.34 7.98 -2 9 C4.27 9 10.54 9 17 9 C16.67 9.66 16.34 10.32 16 11 C12.27084983 11.02912348 8.5417291 11.04684037 4.8125 11.0625 C3.22985352 11.07506836 3.22985352 11.07506836 1.61523438 11.08789062 C0.08286133 11.09272461 0.08286133 11.09272461 -1.48046875 11.09765625 C-2.41785889 11.10289307 -3.35524902 11.10812988 -4.32104492 11.11352539 C-6.98049477 11.00082657 -9.40920573 10.59376649 -12 10 C-10.33333333 8.33333333 -8.66666667 6.66666667 -7 5 C-6.113125 4.071875 -5.22625 3.14375 -4.3125 2.1875 C-2 0 -2 0 0 0 Z " fill="#010101" transform="translate(185,221)"/>
<path d="M0 0 C0 8.58 0 17.16 0 26 C-0.99 26.33 -1.98 26.66 -3 27 C-3.02903577 23.89585298 -3.0468107 20.79174091 -3.0625 17.6875 C-3.07087891 16.80642578 -3.07925781 15.92535156 -3.08789062 15.01757812 C-3.09111328 14.17001953 -3.09433594 13.32246094 -3.09765625 12.44921875 C-3.10289307 11.66893311 -3.10812988 10.88864746 -3.11352539 10.0847168 C-3 8 -3 8 -2 5 C-3.32 5 -4.64 5 -6 5 C-6 4.34 -6 3.68 -6 3 C-2.53846154 0 -2.53846154 0 0 0 Z " fill="#030303" transform="translate(206,198)"/>
<path d="M0 0 C0.66 0 1.32 0 2 0 C3.76171875 2.3359375 3.76171875 2.3359375 5.6875 5.375 C6.65236328 6.87160156 6.65236328 6.87160156 7.63671875 8.3984375 C8.31154297 9.68621094 8.31154297 9.68621094 9 11 C8.67 11.66 8.34 12.32 8 13 C7.01 13 6.02 13 5 13 C4.67 13.66 4.34 14.32 4 15 C2.68 14.67 1.36 14.34 0 14 C-0.33 14.66 -0.66 15.32 -1 16 C-0.67 10.72 -0.34 5.44 0 0 Z " fill="#E9E9E9" transform="translate(303,224)"/>
<path d="M0 0 C4.95 0 9.9 0 15 0 C14.01 0.495 14.01 0.495 13 1 C13 2.32 13 3.64 13 5 C13.66 5 14.32 5 15 5 C15 5.66 15 6.32 15 7 C16.32 7.33 17.64 7.66 19 8 C19 10.64 19 13.28 19 16 C18.443125 15.278125 17.88625 14.55625 17.3125 13.8125 C12.28588754 7.69905241 7.08490505 3.54245253 0 0 Z " fill="#EFEFEF" transform="translate(268,194)"/>
<path d="M0 0 C0 0.66 0 1.32 0 2 C0.66 2 1.32 2 2 2 C2.99 3.485 2.99 3.485 4 5 C4.66 5 5.32 5 6 5 C5.36122918 8.43339315 4.5311504 11.72672847 3.5 15.0625 C2.58621387 18.02773599 1.72472587 20.98263173 1 24 C-0.32 23.67 -1.64 23.34 -3 23 C-3 22.34 -3 21.68 -3 21 C-2.34 20.67 -1.68 20.34 -1 20 C0.44880144 15.65359568 0.66123344 11.53718694 0 7 C-1.41475512 4.48213162 -2.87689581 3.01694898 -5 1 C-2 0 -2 0 0 0 Z " fill="#E4E4E4" transform="translate(237,196)"/>
<path d="M0 0 C5.28 0.33 10.56 0.66 16 1 C15.01 1.495 15.01 1.495 14 2 C14.185625 2.61875 14.37125 3.2375 14.5625 3.875 C15 6 15 6 14 8 C8.63904723 6.41078475 3.29156027 4.81027062 -2 3 C-1.34 2.67 -0.68 2.34 0 2 C0 1.34 0 0.68 0 0 Z " fill="#E0E0E0" transform="translate(186,107)"/>
<path d="M0 0 C1.41777677 0.08340816 2.83575154 0.16351989 4.25390625 0.24023438 C7.71404907 0.43458177 11.16937003 0.67380592 14.625 0.9375 C14.625 1.2675 14.625 1.5975 14.625 1.9375 C13.86880371 1.94160889 13.11260742 1.94571777 12.33349609 1.94995117 C8.88821716 1.98296205 5.44468877 2.05361697 2 2.125 C0.81019531 2.13080078 -0.37960938 2.13660156 -1.60546875 2.14257812 C-8.93669292 2.16601927 -8.93669292 2.16601927 -15.2109375 5.48828125 C-15.92507812 6.29652344 -16.63921875 7.10476562 -17.375 7.9375 C-17.375 7.2775 -17.375 6.6175 -17.375 5.9375 C-18.695 6.2675 -20.015 6.5975 -21.375 6.9375 C-16.76660693 -2.21661666 -8.88942046 -0.68974974 0 0 Z " fill="#434343" transform="translate(187.375,231.0625)"/>
<path d="M0 0 C7.59 0.33 15.18 0.66 23 1 C23 1.33 23 1.66 23 2 C16.4 2 9.8 2 3 2 C5.83656989 5.03268602 5.83656989 5.03268602 9 7 C-4.86 6.01 -4.86 6.01 -19 5 C-19 4.67 -19 4.34 -19 4 C-12.73 3.67 -6.46 3.34 0 3 C0 2.01 0 1.02 0 0 Z " fill="#A7A7A7" transform="translate(317,104)"/>
<path d="M0 0 C0.94875 0.350625 1.8975 0.70125 2.875 1.0625 C1.65446141 4.72411578 0.50717696 5.22520474 -2.6875 7.25 C-3.51378906 7.77980469 -4.34007812 8.30960938 -5.19140625 8.85546875 C-5.82949219 9.25378906 -6.46757812 9.65210938 -7.125 10.0625 C-7.785 9.4025 -8.445 8.7425 -9.125 8.0625 C-8.465 6.7425 -7.805 5.4225 -7.125 4.0625 C-7.785 3.0725 -8.445 2.0825 -9.125 1.0625 C-7.805 1.3925 -6.485 1.7225 -5.125 2.0625 C-5.125 1.4025 -5.125 0.7425 -5.125 0.0625 C-3.125 -0.9375 -3.125 -0.9375 0 0 Z " fill="#EFEFEF" transform="translate(258.125,120.9375)"/>
<path d="M0 0 C0.33 0 0.66 0 1 0 C1 4.29 1 8.58 1 13 C0.01 13.33 -0.98 13.66 -2 14 C-2.33 14.99 -2.66 15.98 -3 17 C-3 16.34 -3 15.68 -3 15 C-4.32 14.34 -5.64 13.68 -7 13 C-4.83199193 8.55558346 -2.47944413 4.27490367 0 0 Z " fill="#F8F8F8" transform="translate(286,229)"/>
<path d="M0 0 C5.94 0 11.88 0 18 0 C18 0.99 18 1.98 18 3 C11.73 3 5.46 3 -1 3 C-0.67 2.01 -0.34 1.02 0 0 Z " fill="#020202" transform="translate(97,241)"/>
<path d="M0 0 C1.65 0 3.3 0 5 0 C2.04272325 3.29525123 -0.69270742 5.01116032 -4.75 6.75 C-5.73484375 7.17796875 -6.7196875 7.6059375 -7.734375 8.046875 C-8.48203125 8.36140625 -9.2296875 8.6759375 -10 9 C-10 8.01 -10 7.02 -10 6 C-10.66 5.67 -11.32 5.34 -12 5 C-10.68 5 -9.36 5 -8 5 C-8 3.68 -8 2.36 -8 1 C-7.34 1 -6.68 1 -6 1 C-6 1.66 -6 2.32 -6 3 C-4.02 2.67 -2.04 2.34 0 2 C0 1.34 0 0.68 0 0 Z " fill="#F0F0F0" transform="translate(236,137)"/>
<path d="M0 0 C5.94 0 11.88 0 18 0 C9 6 9 6 6 6 C5.67 5.01 5.34 4.02 5 3 C2.49552484 1.78130071 2.49552484 1.78130071 0 1 C0 0.67 0 0.34 0 0 Z " fill="#F1F1F1" transform="translate(240,194)"/>
<path d="M0 0 C2.32758311 0.93103324 3.74357132 1.65382128 5.25 3.6875 C6.27095909 6.83545718 6.12632947 9.71543368 6 13 C5.67 13 5.34 13 5 13 C5 11.35 5 9.7 5 8 C3.68 9.65 2.36 11.3 1 13 C1 10.36 1 7.72 1 5 C0.01 4.67 -0.98 4.34 -2 4 C-1.34 2.68 -0.68 1.36 0 0 Z " fill="#343434" transform="translate(118,199)"/>
<path d="M0 0 C1.17487036 0.75827092 2.33972592 1.53207755 3.5 2.3125 C4.1496875 2.74175781 4.799375 3.17101562 5.46875 3.61328125 C5.9740625 4.07089844 6.479375 4.52851562 7 5 C7 5.99 7 6.98 7 8 C3.37 8 -0.26 8 -4 8 C-2 3 -2 3 0 2 C0 1.34 0 0.68 0 0 Z " fill="#EEEEEE" transform="translate(179,101)"/>
<path d="M0 0 C-0.60694155 3.15330554 -1.6416665 5.18888867 -3.5625 7.75 C-4.24505859 8.67039063 -4.24505859 8.67039063 -4.94140625 9.609375 C-5.29074219 10.06828125 -5.64007813 10.5271875 -6 11 C-8.97 10.505 -8.97 10.505 -12 10 C-10.33333333 8.33333333 -8.66666667 6.66666667 -7 5 C-6.113125 4.071875 -5.22625 3.14375 -4.3125 2.1875 C-2 0 -2 0 0 0 Z " fill="#070707" transform="translate(185,221)"/>
<path d="M0 0 C4.80217984 6.0027248 4.80217984 6.0027248 5 9 C4.22265625 11.140625 4.22265625 11.140625 3.0625 13.25 C2.68222656 13.95640625 2.30195313 14.6628125 1.91015625 15.390625 C1.60980469 15.92171875 1.30945313 16.4528125 1 17 C0.67 17 0.34 17 0 17 C0 11.39 0 5.78 0 0 Z " fill="#DDDDDD" transform="translate(326,195)"/>
<path d="M0 0 C2.71212723 3.61616964 4.81005582 7.07320353 7 11 C6.34 11.66 5.68 12.32 5 13 C2 11 2 11 1 7 C1 9.97 1 12.94 1 16 C0.67 16 0.34 16 0 16 C0 10.72 0 5.44 0 0 Z " fill="#D5D5D5" transform="translate(326,228)"/>
<path d="M0 0 C3.96 0.33 7.92 0.66 12 1 C11.01 1.495 11.01 1.495 10 2 C10 2.66 10 3.32 10 4 C10.66 4 11.32 4 12 4 C12 4.66 12 5.32 12 6 C10.5608866 5.71640113 9.12374482 5.42278601 7.6875 5.125 C6.88699219 4.96257812 6.08648437 4.80015625 5.26171875 4.6328125 C3 4 3 4 0 2 C0 1.34 0 0.68 0 0 Z " fill="#F8F8F8" transform="translate(320,106)"/>
<path d="M0 0 C0.33 0.99 0.66 1.98 1 3 C-1.56433009 6.74786705 -4.75156724 9.84180148 -8 13 C-8.99 12.01 -9.98 11.02 -11 10 C-10.37351562 9.52949219 -9.74703125 9.05898437 -9.1015625 8.57421875 C-8.28429687 7.95160156 -7.46703125 7.32898438 -6.625 6.6875 C-5.81289063 6.07261719 -5.00078125 5.45773438 -4.1640625 4.82421875 C-1.80220611 3.00519317 -1.80220611 3.00519317 0 0 Z " fill="#F0F0F0" transform="translate(371,234)"/>
<path d="M0 0 C0.33 0 0.66 0 1 0 C1 3.96 1 7.92 1 12 C4.91731018 10.14470719 4.91731018 10.14470719 8 8 C8.66 7.67 9.32 7.34 10 7 C10.66 6.01 11.32 5.02 12 4 C12.48 9.4 12.48 9.4 10.5 11.875 C6.87739877 13.50517055 3.95453342 13.19772667 0 13 C0 8.71 0 4.42 0 0 Z " fill="#AEAEAE" transform="translate(220,223)"/>
<path d="M0 0 C0.66 0 1.32 0 2 0 C2.3125 3.1875 2.3125 3.1875 2 7 C-0.1727422 9.63016161 -1.94673788 11.47336894 -5 13 C-4.42305513 8.24020482 -2.41616727 5.05292574 0 1 C0 0.67 0 0.34 0 0 Z " fill="#0D0D0D" transform="translate(121,207)"/>
<path d="M0 0 C0.125 6.75 0.125 6.75 -1 9 C-1.22858114 11.0374763 -1.41024278 13.08040303 -1.5625 15.125 C-1.64628906 16.22070312 -1.73007813 17.31640625 -1.81640625 18.4453125 C-1.87699219 19.28835937 -1.93757812 20.13140625 -2 21 C-2.33 21 -2.66 21 -3 21 C-3.02701408 18.89590361 -3.04640223 16.79170822 -3.0625 14.6875 C-3.07410156 13.51574219 -3.08570313 12.34398437 -3.09765625 11.13671875 C-3 8 -3 8 -2 5 C-3.32 5 -4.64 5 -6 5 C-6 4.34 -6 3.68 -6 3 C-2.53846154 0 -2.53846154 0 0 0 Z " fill="#0B0B0B" transform="translate(206,198)"/>
<path d="M0 0 C2.875 0.3125 2.875 0.3125 6 1 C8.67927341 5.01891012 8.15601248 7.24161923 8 12 C7.67 12 7.34 12 7 12 C7 9.69 7 7.38 7 5 C5.5459375 5.2784375 5.5459375 5.2784375 4.0625 5.5625 C3.051875 5.706875 2.04125 5.85125 1 6 C0 5 0 5 -0.0625 2.4375 C-0.041875 1.633125 -0.02125 0.82875 0 0 Z " fill="#E6E6E6" transform="translate(113,223)"/>
<path d="M0 0 C2.72977064 -0.08126109 5.4571017 -0.14061663 8.1875 -0.1875 C9.34088867 -0.22520508 9.34088867 -0.22520508 10.51757812 -0.26367188 C15.2197028 -0.32421425 18.11834041 0.03624789 22 3 C21.67 4.32 21.34 5.64 21 7 C20.01 6.34 19.02 5.68 18 5 C18 4.34 18 3.68 18 3 C14.43913342 1.81304447 11.02668976 1.64904582 7.3125 1.4375 C6.61060547 1.39431641 5.90871094 1.35113281 5.18554688 1.30664062 C3.45724794 1.2008264 1.7286489 1.09993419 0 1 C0 0.67 0 0.34 0 0 Z " fill="#B3B3B3" transform="translate(97,201)"/>
<path d="M0 0 C0.78375 0.639375 1.5675 1.27875 2.375 1.9375 C4.79539281 3.98142313 4.79539281 3.98142313 7 5 C6.67 5.99 6.34 6.98 6 8 C4.125 8.875 4.125 8.875 2 9 C0.25 7.8125 0.25 7.8125 -1 6 C-1 2 -1 2 0 0 Z " fill="#121212" transform="translate(338,229)"/>
<path d="M0 0 C1.65 0.33 3.3 0.66 5 1 C4.67 2.65 4.34 4.3 4 6 C1.03 6.66 -1.94 7.32 -5 8 C-1.25 3.125 -1.25 3.125 1 2 C0.67 1.34 0.34 0.68 0 0 Z " fill="#EAEAEA" transform="translate(212,145)"/>
<path d="M0 0 C0.33 0.66 0.66 1.32 1 2 C-15.75525227 5.53645693 -15.75525227 5.53645693 -21 4 C-13.99757448 1.88329723 -7.30696249 0.45965708 0 0 Z " fill="#B8B8B8" transform="translate(338,117)"/>
<path d="M0 0 C0.33 0 0.66 0 1 0 C1.33 3.63 1.66 7.26 2 11 C1.34 11 0.68 11 0 11 C-0.33 12.32 -0.66 13.64 -1 15 C-1.99 14.67 -2.98 14.34 -4 14 C-4 12.35 -4 10.7 -4 9 C-3.34 9 -2.68 9 -2 9 C-1.34 6.03 -0.68 3.06 0 0 Z " fill="#E3E3E3" transform="translate(344,218)"/>
<path d="M0 0 C0.99 1.32 1.98 2.64 3 4 C1.68 4.99 0.36 5.98 -1 7 C-1 6.34 -1 5.68 -1 5 C-3.31 6.98 -5.62 8.96 -8 11 C-8.66 10.67 -9.32 10.34 -10 10 C-6.7 6.7 -3.4 3.4 0 0 Z " fill="#222222" transform="translate(186,216)"/>
<path d="M0 0 C2.31 0.66 4.62 1.32 7 2 C3.58983503 4.86453858 0.09305456 6.34703566 -4 8 C-3.34 6.02 -2.68 4.04 -2 2 C-1.34 2 -0.68 2 0 2 C0 1.34 0 0.68 0 0 Z " fill="#E9E9E9" transform="translate(125,121)"/>
<path d="M0 0 C2.33944736 0.28730055 4.6739143 0.61936779 7 1 C7 1.66 7 2.32 7 3 C6.34 3 5.68 3 5 3 C5 3.99 5 4.98 5 6 C3.02 5.34 1.04 4.68 -1 4 C-1 1 -1 1 0 0 Z " fill="#E8E8E8" transform="translate(313,145)"/>
<path d="M0 0 C0.33 0.66 0.66 1.32 1 2 C2.32 2 3.64 2 5 2 C4.67 2.99 4.34 3.98 4 5 C4 4.34 4 3.68 4 3 C3.34 3 2.68 3 2 3 C1.71125 3.639375 1.4225 4.27875 1.125 4.9375 C0 7 0 7 -2 8 C-2.99 7.34 -3.98 6.68 -5 6 C-3.35 4.02 -1.7 2.04 0 0 Z " fill="#222222" transform="translate(199,201)"/>
<path d="M0 0 C0.33 0.66 0.66 1.32 1 2 C-1.05078125 2.22786458 -3.1015625 2.45572917 -5.15234375 2.68359375 C-7.01140229 2.81886614 -7.01140229 2.81886614 -8 4 C-9.85287502 4.07226502 -11.70833878 4.0838122 -13.5625 4.0625 C-14.57441406 4.05347656 -15.58632812 4.04445313 -16.62890625 4.03515625 C-17.41136719 4.02355469 -18.19382813 4.01195313 -19 4 C-15.34271595 1.56181064 -12.06712105 1.3283308 -7.8125 0.875 C-7.06291016 0.78863281 -6.31332031 0.70226562 -5.54101562 0.61328125 C-3.69482588 0.40161618 -1.84750656 0.19984536 0 0 Z " fill="#ABABAB" transform="translate(208,119)"/>
<path d="M0 0 C1.98 0.66 3.96 1.32 6 2 C6 4.64 6 7.28 6 10 C5.38125 9.21625 4.7625 8.4325 4.125 7.625 C2.10141339 5.03162353 2.10141339 5.03162353 0 3 C0 2.01 0 1.02 0 0 Z " fill="#E3E3E3" transform="translate(281,200)"/>
<path d="M0 0 C0.33 0 0.66 0 1 0 C1.44534366 6.95230941 1.67289916 11.59696035 -3 17 C-3.66 16.67 -4.32 16.34 -5 16 C-4.6875 14.125 -4.6875 14.125 -4 12 C-3.01 11.34 -2.02 10.68 -1 10 C-0.41810734 7.57478506 -0.41810734 7.57478506 -0.3125 4.875 C-0.24675781 3.96492187 -0.18101562 3.05484375 -0.11328125 2.1171875 C-0.07589844 1.41851562 -0.03851563 0.71984375 0 0 Z " fill="#DCDCDC" transform="translate(277,214)"/>
<path d="M0 0 C2.97 0.495 2.97 0.495 6 1 C6.33 1.99 6.66 2.98 7 4 C3.37 4 -0.26 4 -4 4 C-3.01 3.67 -2.02 3.34 -1 3 C-0.67 2.01 -0.34 1.02 0 0 Z " fill="#D7D7D7" transform="translate(332,68)"/>
<path d="M0 0 C2.475 0.99 2.475 0.99 5 2 C5.1875 4.875 5.1875 4.875 5 8 C4.01 8.66 3.02 9.32 2 10 C2 8.02 2 6.04 2 4 C1.01 4.495 1.01 4.495 0 5 C0 3.35 0 1.7 0 0 Z " fill="#E8E8E8" transform="translate(114,206)"/>
<path d="M0 0 C3.63 0 7.26 0 11 0 C10.67 1.32 10.34 2.64 10 4 C8.72125 3.71125 7.4425 3.4225 6.125 3.125 C5.40570313 2.96257812 4.68640625 2.80015625 3.9453125 2.6328125 C2 2 2 2 0 0 Z " fill="#F0F0F0" transform="translate(226,194)"/>
<path d="M0 0 C1.53508028 2.43338652 2.03088304 3.67124507 1.7578125 6.578125 C1.54898438 7.45984375 1.34015625 8.3415625 1.125 9.25 C0.92132813 10.14203125 0.71765625 11.0340625 0.5078125 11.953125 C0.34023437 12.62859375 0.17265625 13.3040625 0 14 C-1.32 13.67 -2.64 13.34 -4 13 C-4 12.34 -4 11.68 -4 11 C-3.34 10.67 -2.68 10.34 -2 10 C-1.31068656 7.65092125 -1.31068656 7.65092125 -0.875 4.9375 C-0.70742187 4.01839844 -0.53984375 3.09929687 -0.3671875 2.15234375 C-0.24601563 1.44207031 -0.12484375 0.73179687 0 0 Z " fill="#999999" transform="translate(238,206)"/>
<path d="M0 0 C2.64 0 5.28 0 8 0 C5.47043472 3.0916909 2.77545388 3.90931332 -1 5 C-0.67 3.35 -0.34 1.7 0 0 Z " fill="#141414" transform="translate(128,74)"/>
<path d="M0 0 C0.33 0.99 0.66 1.98 1 3 C-0.41377782 3.36552803 -1.83120576 3.71695495 -3.25 4.0625 C-4.03890625 4.25972656 -4.8278125 4.45695312 -5.640625 4.66015625 C-8.10394822 5.01497267 -9.65604132 4.76877544 -12 4 C-10.56570999 3.32645501 -9.12742943 2.66140299 -7.6875 2 C-6.88699219 1.62875 -6.08648437 1.2575 -5.26171875 0.875 C-3 0 -3 0 0 0 Z " fill="#DDDDDD" transform="translate(282,67)"/>
<path d="M0 0 C2.625 0.375 2.625 0.375 5 1 C2.64722731 3.72426311 0.37503669 4.8141763 -3 6 C-3.33 5.34 -3.66 4.68 -4 4 C-2.66666667 2.66666667 -1.33333333 1.33333333 0 0 Z " fill="#151515" transform="translate(237,89)"/>
<path d="M0 0 C0.33 0 0.66 0 1 0 C1 2.97 1 5.94 1 9 C-0.98 9 -2.96 9 -5 9 C-3.35 6.03 -1.7 3.06 0 0 Z " fill="#D9D9D9" transform="translate(286,229)"/>
<path d="M0 0 C3.63 0 7.26 0 11 0 C8.33440687 1.77706209 5.9719385 2.87548273 3 4 C2.01 2.68 1.02 1.36 0 0 Z " fill="#EAEAEA" transform="translate(247,194)"/>
<path d="M0 0 C-0.33 0.99 -0.66 1.98 -1 3 C-2.65 3.33 -4.3 3.66 -6 4 C-6.33 2.68 -6.66 1.36 -7 0 C-3.86650268 -1.04449911 -3.01031744 -0.93423645 0 0 Z " fill="#E4E4E4" transform="translate(231,225)"/>
<path d="M0 0 C2.62187494 1.04874998 3.79371361 1.64931313 5.25 4.125 C5.4975 4.74375 5.745 5.3625 6 6 C3.64828869 5.40138258 1.3140622 4.73075648 -1 4 C-1.33 3.34 -1.66 2.68 -2 2 C-1.34 2 -0.68 2 0 2 C0 1.34 0 0.68 0 0 Z " fill="#222222" transform="translate(118,220)"/>
<path d="M0 0 C2.475 0.99 2.475 0.99 5 2 C2.63707344 4.52588702 1.33537489 5.88820837 -2 7 C-2 3.89448334 -1.4606285 2.64738916 0 0 Z " fill="#E5E5E5" transform="translate(252,124)"/>
<path d="M0 0 C-1.485 1.98 -1.485 1.98 -3 4 C-3 3.34 -3 2.68 -3 2 C-4.98 2 -6.96 2 -9 2 C-5.5647952 -0.29013653 -4.014669 -0.17842973 0 0 Z M-6 4 C-5.01 4.33 -4.02 4.66 -3 5 C-4.32 5.33 -5.64 5.66 -7 6 C-6.67 5.34 -6.34 4.68 -6 4 Z " fill="#D1D1D1" transform="translate(167,64)"/>
<path d="M0 0 C0.66 0.33 1.32 0.66 2 1 C1.6875 2.875 1.6875 2.875 1 5 C0.01 5.66 -0.98 6.32 -2 7 C-2.6875 5.1875 -2.6875 5.1875 -3 3 C-1.5625 1.25 -1.5625 1.25 0 0 Z " fill="#060606" transform="translate(190,212)"/>
<path d="M0 0 C1.65 0 3.3 0 5 0 C2.22719294 3.08089673 -0.06326356 4.68775452 -4 6 C-3.34 4.68 -2.68 3.36 -2 2 C-1.34 2 -0.68 2 0 2 C0 1.34 0 0.68 0 0 Z " fill="#DFDFDF" transform="translate(236,137)"/>
<path d="M0 0 C0.99 0.33 1.98 0.66 3 1 C3 1.66 3 2.32 3 3 C-0.465 4.485 -0.465 4.485 -4 6 C-4 5.01 -4 4.02 -4 3 C-3.34 3 -2.68 3 -2 3 C-2 2.34 -2 1.68 -2 1 C-1.34 0.67 -0.68 0.34 0 0 Z " fill="#E4E4E4" transform="translate(269,115)"/>
<path d="M0 0 C2.52588702 2.36292656 3.88820837 3.66462511 5 7 C2 7 2 7 0 6 C0 4.02 0 2.04 0 0 Z " fill="#E8E8E8" transform="translate(297,214)"/>
<path d="M0 0 C2.475 0.495 2.475 0.495 5 1 C5.33 2.32 5.66 3.64 6 5 C4.35 4.67 2.7 4.34 1 4 C0.67 2.68 0.34 1.36 0 0 Z " fill="#EDEDED" transform="translate(336,242)"/>
<path d="M0 0 C0.6875 1.8125 0.6875 1.8125 1 4 C-0.25 5.75 -0.25 5.75 -2 7 C-2.99 7 -3.98 7 -5 7 C-5.33 6.01 -5.66 5.02 -6 4 C-4.35 4 -2.7 4 -1 4 C-0.67 2.68 -0.34 1.36 0 0 Z " fill="#BDBDBD" transform="translate(229,208)"/>
<path d="M0 0 C0.66 0.66 1.32 1.32 2 2 C1.34 3.32 0.68 4.64 0 6 C-0.33 5.34 -0.66 4.68 -1 4 C-2.65 4 -4.3 4 -6 4 C-4.03617993 2.49440461 -2.21736634 1.10868317 0 0 Z " fill="#E5E5E5" transform="translate(236,94)"/>
<path d="M0 0 C0.5534764 2.07553648 1 3.84365964 1 6 C-0.32 6.33 -1.64 6.66 -3 7 C-3.33 6.34 -3.66 5.68 -4 5 C-2.68 3.35 -1.36 1.7 0 0 Z " fill="#E2E2E2" transform="translate(280,238)"/>
<path d="M0 0 C0.33 0.99 0.66 1.98 1 3 C-0.40445835 5.2636564 -2.1967913 7.0208685 -4 9 C-4.99 8.34 -5.98 7.68 -7 7 C-5.47005208 5.76302083 -3.94010417 4.52604167 -2.41015625 3.2890625 C-0.86733563 2.0333609 -0.86733563 2.0333609 0 0 Z " fill="#DADADA" transform="translate(371,234)"/>
<path d="M0 0 C2.475 0.99 2.475 0.99 5 2 C5 2.66 5 3.32 5 4 C3.02 4 1.04 4 -1 4 C-1 1 -1 1 0 0 Z " fill="#101010" transform="translate(333,114)"/>
<path d="M0 0 C1.65 0.99 3.3 1.98 5 3 C4.67 3.66 4.34 4.32 4 5 C2.35 4.67 0.7 4.34 -1 4 C-0.67 2.68 -0.34 1.36 0 0 Z " fill="#ECECEC" transform="translate(313,102)"/>
<path d="M0 0 C-1.1875 1.5625 -1.1875 1.5625 -3 3 C-5.6875 2.6875 -5.6875 2.6875 -8 2 C-8 1.34 -8 0.68 -8 0 C-4.94736336 -0.98120464 -3.05263664 -0.98120464 0 0 Z " fill="#DADADA" transform="translate(292,65)"/>
</svg>
