<?xml version="1.0" encoding="utf-8"?>
<!-- Generator: Adobe Illustrator 27.5.0, SVG Export Plug-In . SVG Version: 6.00 Build 0)  -->
<svg version="1.1" id="Capa_1" xmlns="http://www.w3.org/2000/svg" xmlns:xlink="http://www.w3.org/1999/xlink" x="0px" y="0px"
	 viewBox="0 0 197.1 68.7" style="enable-background:new 0 0 197.1 68.7;" xml:space="preserve">
<style type="text/css">
	.st0{fill:#E38322;}
	.st1{fill:#282629;}
</style>
<g id="Layer_2">
	<g id="DESIGN">
		<path class="st0" d="M100.5,62.9h2.9l-0.2,1.8c-0.1,0.9-0.2,1.8,1.2,1.8s1.5-0.9,1.7-2.3c0.1-1.1-0.1-1.6-0.8-2.1l-2.6-1.8
			c-1.2-0.8-1.8-2.3-1.5-3.7c0-1.2,0.5-2.4,1.5-3.2c1-0.7,2.1-1,3.2-0.9c1.7,0,3.9,0.7,3.6,3.4l-0.2,1.5h-2.9l0.1-1.1
			c0.1-0.8,0.2-1.6-1.1-1.6c-0.8,0-1.4,0.3-1.5,1.5s0.1,1.6,0.7,2l2.6,1.9c0.5,0.4,1,0.9,1.3,1.5c0.3,0.8,0.4,1.6,0.2,2.5
			c0,1.1-0.3,2.2-0.8,3.1c-1,1.1-2.4,1.7-3.9,1.6c-2.5,0-4.2-0.9-4-3.6L100.5,62.9z"/>
		<path class="st0" d="M112,52.8h5.8c2.6,0,2.4,2.1,2.3,3.5l-0.2,2c-0.3,2.5-0.7,3.6-3.5,3.6h-2.4l-0.7,6.5h-2.9L112,52.8z
			 M114.2,59.7h1.4c1.1,0,1.3-0.2,1.5-1.4l0.2-1.6c0.1-1.1,0.2-1.6-1.1-1.6h-1.4L114.2,59.7z"/>
		<path class="st0" d="M122.2,52.8h7.6l-0.3,2.4h-4.7l-0.4,3.7h4.4l-0.2,2.4h-4.4l-0.5,4.8h4.9l-0.3,2.4h-7.8L122.2,52.8z"/>
		<path class="st0" d="M131.4,52.8h7.6l-0.3,2.4H134l-0.4,3.7h4.4l-0.2,2.4h-4.4l-0.5,4.8h4.9l-0.3,2.4h-7.8L131.4,52.8z"/>
		<path class="st0" d="M140.6,52.8h4.6c1.1-0.1,2.1,0.2,2.9,1c0.6,0.9,0.9,2.1,0.6,3.2l-0.8,7.3c-0.2,2.2-0.8,4.2-4.4,4.2H139
			L140.6,52.8z M142.1,66.1c0.6,0,1.2,0,1.8,0c1.1-0.2,1.2-1.1,1.2-1.6l0.8-7.8c0.1-1.4-0.3-1.6-1.6-1.6h-1.1L142.1,66.1z"/>
		<path class="st0" d="M150.4,52.8h3l0.3,11.8l3-11.8h2.7l0.4,11.8l2.9-11.8h2.9l-4.7,15.6h-3l-0.3-10.7l-2.9,10.7h-3.1L150.4,52.8z
			"/>
		<path class="st0" d="M166.9,52.8h7.6l-0.3,2.4h-4.7l-0.4,3.7h4.4l-0.2,2.4h-4.4l-0.5,4.8h4.9l-0.3,2.4h-7.8L166.9,52.8z"/>
		<path class="st0" d="M178.3,52.8h3.3l1.2,15.6h-2.9l-0.1-2.6h-2.7l-0.7,2.6h-2.9L178.3,52.8z M177.8,63.5h2l-0.2-6.7L177.8,63.5z"
			/>
		<path class="st0" d="M185.9,52.8h5.8c2.8,0,2.6,1.9,2.5,3.3l-0.2,1.7c-0.2,2-0.9,2.3-2.3,2.7c1.2,0.2,2,1.3,1.9,2.5
			c0,0.1,0,0.1,0,0.2l-0.3,3.2c-0.2,0.7,0,1.5,0.4,2.1h-3.2c-0.2-0.5-0.3-1.1-0.2-1.7l0.4-3.3c0.1-1.1,0.2-1.8-1.3-1.8h-1.4
			l-0.8,6.9h-2.9L185.9,52.8z M188,59.3h1.5c1.3,0,1.4-0.7,1.5-1.5l0.2-1.5c0.2-1.3-0.5-1.3-1.2-1.3h-1.5L188,59.3z"/>
		<path class="st1" d="M154.2,14.7c0.2-0.9-0.4-1.9-1.3-2.1c-0.2,0-0.3,0-0.5,0h-8.6c0-2.8,2-5.2,4.7-5.8l0,0
			c3.2-0.6,6.5-0.6,9.7-0.2c1.6,0.2,3.1,1.2,3.8,2.7l0,0c0.5,1.1,0.6,2.3,0.4,3.5l0,0l-0.9,7h-7.9L154.2,14.7z M164.9,12.6
			L164.9,12.6 M191.4,6.6c3-0.1,5.6,2.2,5.7,5.2c0,0.3,0,0.6,0,0.9l-1.5,9.4l0,0c-0.4,1.8-1.6,3.4-3.3,4.3l0,0
			c1.5,0.9,2.2,2.5,2,4.2l-1.9,13.2h-7.8l1.7-12.4c0.2-0.9-0.3-1.7-1.2-2c-0.1,0-0.3,0-0.4,0h-0.8l-2.3,14.3h-8.1l4.5-28.1h7.8
			l-1,7.1l0,0c0.2,0,0.4,0,0.6,0c1.4-0.1,2.5-1.1,2.6-2.4l0,0l0.9-5.4l0,0c0.2-1-0.4-2-1.4-2.2c-0.2,0-0.4-0.1-0.5,0h-21.9
			c0.3-2.1-0.3-4.2-1.7-5.9L191.4,6.6z M168.5,38.1h4.5l-0.9,5.6h-12.6l4.3-28.1h8l-0.8,5h3.7l-1.1,6.4H170L168.5,38.1z M122.3,29.7
			l-4.2,14.2h-5.2l1.5-12.1l0,0c0.1-1.2-0.7-2.2-1.8-2.4h-0.9l-2.1,14.5H102l4-28.2h7.7l-1.2,7.4h0.8c1.5,0,2.7-1.2,2.8-2.7l0,0
			l0.9-5.9l0,0c0.1-0.8-0.4-1.6-1.2-1.7c-0.1,0-0.2,0-0.3,0h-9l0.9-5.9h12.5c2.9-0.1,5.4,2.2,5.5,5.1c0,0.2,0,0.3,0,0.5l0,0
			l-1.2,8.8l0,0c-0.2,2.3-1.6,4.2-3.5,5.4l0,0C121.8,27.1,122.5,28.4,122.3,29.7L122.3,29.7z M160,29.4l-1.4,8.7l0,0
			c-0.2,1.3-0.8,2.6-1.6,3.7l0,0c-1,1.2-2.3,2-3.7,2.5l0,0c-2.7,0.7-5.6,0.8-8.3,0.2l0,0c-1.9-0.4-3.6-1.4-5-2.7l0,0l-0.3,1.9h-7.1
			l0.2-6.8h-3.4l-2,6.8H120l8.1-28.2h5.3v4l-2.7,11.1h2.7l1.1-18.1h-5.4l1.6-5.8h9.6L140,34.4l3.4-18.8h7.8L147.9,37l0,0
			c-0.1,0.3,0,0.7,0.1,1l0,0c0.2,0.7,0.9,1.1,1.5,0.9c0.4-0.1,0.7-0.4,0.9-0.8c0.2-0.4,0.3-0.7,0.3-1.1l0,0l0.1-0.7l1.1-6.9
			L160,29.4z M31.8,15.6l-4.2,28.2h-7.8l4.3-28.2L31.8,15.6z M32.6,12.6h-7.8l1-6h7.9L32.6,12.6z M12.1,29.9L12.1,29.9l-1,7l0,0
			c-0.2,0.9-1.1,1.6-2.1,1.5H8.2l1.7-10.6h0.9c0.9,0.1,1.5,1,1.4,1.9C12.1,29.7,12.1,29.8,12.1,29.9 M48.1,6.2
			c2.9,0.6,5.4,2.6,4.7,5.9l0,0l-3.8,26l0,0c-0.2,3-2.5,5.5-5.5,6h-0.1c-3.4,0.6-6.9,0.4-10.3-0.4l0,0c-2.2-0.7-3.5-2.8-3.1-5.1
			l3.5-23.1h7.6l-2.7,20.8c0,0.8,0.7,1.5,1.5,1.5s1.5-0.7,1.5-1.5l2.8-21.1l0,0c0.3-1.2-0.4-2.4-1.7-2.7c-0.2-0.1-0.4-0.1-0.6-0.1
			l0,0h-7.8c0.3-3.4,2.9-5.6,6.6-6.3h0.2l0,0C43.2,5.8,45.7,5.8,48.1,6.2L48.1,6.2z M57.5,32.1c0.3,0.6,0.5,1.2,0.9,1.8l0.6,1.4V42
			h5.8c0-0.3,0-1.4,0-6.8v-3.1H57.5z M68.8,41.1c-0.2,0-0.4,0-0.5-0.1c-0.5-0.3-0.7-1-0.5-1.5l5.9-11.7l0.1-4.1l-0.8-7.2H57.2
			c-0.7,1.9-1.1,3.8-1.3,5.8h8.9v-4.4h1.4v4.4h6.1l0.2,1.4h-6.4v7h4.6L70,32.1h-3.8V42H74v-8.9c0,0-4.1,7.5-4.2,7.5
			C69.6,40.9,69.2,41.1,68.8,41.1 M55.9,23.8c0,2.3,0.4,4.7,1.1,6.9h7.8v-7h-8.9L55.9,23.8z M76.3,2.6c-3.6,0.1-7.1,1.2-10.2,3v0.2
			h10.2V2.6z M89.3,33.9V42h5.8v-6.7l0.6-1.4c0.3-0.6,0.6-1.2,0.9-1.8h-7.2V33.9z M87.9,22.3v-4.4h1.4v4.4h8.9
			c-0.1-2-0.5-3.9-1.2-5.8H81l-0.8,7.2l0.1,4.1l5.9,11.7c0.3,0.5,0.1,1.2-0.5,1.5c-0.2,0.1-0.3,0.1-0.5,0.1c-0.4,0-0.7-0.2-0.9-0.5
			c0-0.1-4.2-7.5-4.2-7.5V42h7.8v-9.9h-3.8l-0.8-1.4h4.6v-7h-6.4l0.2-1.4L87.9,22.3z M90.4,9c0.2-0.1,0.4-0.2,0.6-0.2
			c0.3,0,0.7,0.1,0.9,0.4c0.2,0.3,0.3,0.7,0.2,1c0,0.2-0.2,0.5-0.4,0.6L91.4,11c-0.8,0.4-2.5,1.3-2.5,1.3l-3.6,1.9h10.7
			c-0.2-0.5-0.5-0.9-0.8-1.4l0,0V7.2h-5.9v0.7l-1.4,0.7V7.2H66.2v1.4l-1.4-0.7V7.2h-5.9v5.6l0,0c-0.3,0.4-0.5,0.9-0.8,1.4h10.7
			l-3.6-1.8c0,0-1.8-0.9-2.5-1.3l-0.3-0.2c-0.2-0.2-0.3-0.4-0.4-0.6c-0.1-0.3,0-0.7,0.2-1c0.2-0.3,0.5-0.4,0.9-0.4
			c0.2,0,0.4,0.1,0.6,0.1l0.8,0.4l9.7,4.8h5.7l9.7-4.8L90.4,9 M77.2,13.2h-0.2c-1.3,0-2.3-1-2.3-2.3c0-0.1,0-0.1,0-0.2
			c0-0.7,0.2-1.4,0.7-1.9c0.4-0.4,1-0.6,1.6-0.6h0.3c0.6,0,1.1,0.2,1.6,0.6c0.5,0.5,0.8,1.2,0.7,1.9c0.1,1.3-0.9,2.4-2.2,2.4
			C77.3,13.2,77.2,13.2,77.2,13.2 M89.3,23.7v7h7.8c0.8-2.2,1.2-4.5,1.2-6.9v-0.1H89.3z M96.7,35l-0.1,0.2v8.2h-39v-8.2L57.5,35
			c-4-6.9-4-15.4-0.1-22.3l0.1-0.2V5.8h5.9l0.2-0.2c3.9-2.9,8.6-4.4,13.4-4.4h0.1c4.8,0,9.5,1.6,13.4,4.4l0.2,0.2h5.9v6.8l0.1,0.2
			C100.7,19.6,100.6,28.1,96.7,35 M77.7,28.7c0-0.2,0-0.3-0.1-0.5c-0.1-0.1-0.3-0.2-0.4-0.2l0,0c-0.2,0-0.3,0.1-0.4,0.2
			c-0.1,0.1-0.1,0.3-0.1,0.5L76.1,42h2L77.7,28.7z M0,43.9h11.2c4.2,0,7.6-2.5,7.9-6.5l0,0l1.1-8.6c0.1-1.7-0.9-3.3-2.4-4.1l0,0
			c1.8-0.4,3.1-1.8,3.6-3.5l0,0l1.3-9c0-3-2.5-5.5-5.5-5.5l0,0H5.3l-0.8,6h8.1c0.9-0.1,1.6,0.5,1.8,1.3c0,0.1,0,0.3,0,0.4l0,0
			l-1.1,5.7l0,0c-0.1,0.8-0.8,1.4-1.6,1.3h-0.8l0.9-5.8H4.1L0,43.9z M77.3,0h-0.5C71.8,0,67,1.7,63,4.6h-6.7v7.6l0,0
			c-4.1,7.2-4,16.1,0.1,23.3l0,0v9.1h41.4v-9.1l0,0c4.1-7.2,4.1-16.1,0.1-23.3l0,0V4.6h-6.7C87.1,1.7,82.3,0,77.3,0 M87.9,5.6
			c-3.1-1.8-6.6-2.9-10.2-3v3.2h10.2L87.9,5.6z"/>
	</g>
</g>
</svg>
