<?xml version="1.0" encoding="utf-8"?>
<!-- Generator: Adobe Illustrator 27.5.0, SVG Export Plug-In . SVG Version: 6.00 Build 0)  -->
<svg version="1.1" id="Artwork" xmlns="http://www.w3.org/2000/svg" xmlns:xlink="http://www.w3.org/1999/xlink" x="0px" y="0px"
	 viewBox="0 0 550 103" style="enable-background:new 0 0 550 103;" xml:space="preserve">
<g>
	<path d="M15,39c1,0,1.7,0,2.4,0c9,0,18,0.1,27-0.1c2.3,0,4.8-0.7,6.9-1.7c7.3-3.4,14.6-7,21.8-10.6c0.2-0.1,0.4-0.4,0.9-1
		c-1-0.1-1.7-0.2-2.4-0.2c-12.9,0-25.8-0.1-38.6,0c-3.8,0-7.2-0.7-10.6-2.6c-4.5-2.6-9.2-4.9-13.8-7.3c-0.4-0.2-0.8-0.5-1.2-1.1
		c0.5,0,0.9,0,1.4,0c10,0,20-0.1,30-0.1c18-0.1,36.1-0.1,54.1-0.3c2.5,0,4.8,0.5,6.9,1.7c1.9,1.1,3.9,2.1,5.8,3.4
		c1,0.7,2.2,1.8,2.4,2.9c0.3,1.5-1.3,2.3-2.5,3c-5.8,3-11.5,6-17.3,8.9c-9.5,4.8-19,9.6-28.4,14.5c-2.8,1.4-5.8,2.2-9,2.2
		c-11.2,0-22.3-0.1-33.5,0c-1.8,0-2.3-0.5-2.2-2.2C15.1,45.4,15,42.3,15,39z"/>
	<path d="M73.7,80.7c-2.4-1.2-4.7-2.3-7.1-3.5c-4.9-2.4-9.8-4.8-14.7-7.3c-2.6-1.3-5.2-2-8.1-2c-8.9,0-17.7,0-26.6,0
		c-0.7,0-1.4,0-2.3,0c0-3.7,0-7.2,0-10.7c0-0.3,0.6-0.7,1-0.9c0.5-0.2,1-0.1,1.5-0.1c11.2,0,22.3-0.1,33.5,0.1
		c2.8,0.1,5.9,0.7,8.4,1.9c15.5,7.7,30.9,15.7,46.3,23.6c3.1,1.6,3.2,3.7,0.2,5.5c-2.3,1.4-4.5,2.9-7,4c-1.6,0.7-3.5,1.3-5.3,1.3
		c-16.8,0-33.7,0-50.5-0.1c-11.3,0-22.7-0.1-34-0.1c-0.6,0-1.2,0-2-0.4c1.4-0.7,2.7-1.5,4.1-2.2c4-2.1,8-4.1,12-6.3
		c2.6-1.5,5.4-2.1,8.4-2c13.3,0.1,26.5,0,39.8,0c0.7,0,1.4-0.1,2.1-0.1C73.6,81.1,73.7,80.9,73.7,80.7z"/>
	<path d="M155.8,74.6c-8.2,0-16.5,0-24.7,0c-2.8,0-3.5-0.7-3.6-3.5c0-15.3,0-30.5,0-45.8c0-2.6,0.8-3.4,3.5-3.4c1,0,1.9,0,2.9,0
		c2.4,0,3.2,0.8,3.2,3.2c0,4.9,0,9.7,0,14.6c0,2.9,0.7,3.6,3.6,3.7c5.6,0,11.2,0,16.8,0c2.1,0,3.9,0.6,5.6,2
		c8,6.6,16.1,13.1,24.2,19.7c2,1.6,1.9,2.7,0.4,4.8c-2.7,3.9-6.1,5.1-10.8,4.9C170,74.3,162.9,74.6,155.8,74.6z M170.6,64.6
		c-0.5-0.6-0.7-1-1.1-1.2c-3.9-3-7.7-6-11.7-8.9c-1-0.7-2.4-1.3-3.7-1.3c-4.8-0.2-9.6-0.1-14.3-0.1c-1.5,0-2.5,0.9-2.6,2.3
		c-0.1,4.7-0.1,9.4,0,14.2c0,1.2,0.7,1.6,1.8,0.8c1.2-0.9,2.4-1.9,3.5-2.9c2-2,4.4-2.7,7.3-2.7c6.2,0.1,12.4,0,18.5,0
		C169,64.7,169.6,64.6,170.6,64.6z"/>
	<path d="M442.5,74.6c-8,0-16.1-0.1-24.1,0c-2.5,0-4.4-0.8-5.9-2.8c-0.8-1-1.7-1.9-2.5-2.9c-1.2-1.5-1.2-2.8,0.3-4
		c8.5-6.8,16.9-13.5,25.5-20.2c1.2-0.9,2.9-1.4,4.4-1.4c9.1-0.1,18.2-0.1,27.3-0.1c2.4,0,3.1,0.8,3.1,3.1c0,8.4,0,16.7,0,25.1
		c0,2.3-0.7,3-3.1,3.1C459.2,74.6,450.8,74.6,442.5,74.6z M427.7,64.7c0.8,0,1.5,0.1,2.2,0.1c4.6,0,9.2,0,13.8,0
		c10.1,0.1,7.9-0.8,15.2,5.1c0.4,0.4,1.1,0.5,1.7,0.7c0.2-0.6,0.5-1.2,0.5-1.7c0-4.3,0-8.6,0-12.8c0-2.3-0.8-3-3.2-3.1
		c-4.7,0-9.4,0-14.2,0c-1.1,0-2.5,0.1-3.3,0.8c-4.3,3.3-8.4,6.8-12.6,10.2C427.8,64.1,427.8,64.3,427.7,64.7z"/>
	<path d="M368.4,43.6c8.2,0,16.3,0,24.5,0c2.2,0,4,0.6,5.4,2.3c0.8,0.9,1.9,1.6,2.5,2.6c0.8,1.4,1.8,3.1,1.8,4.6
		c0.2,6.1,0.1,12.2,0.1,18.4c0,2.3-0.9,3.1-3.2,3.1c-1.1,0-2.3,0-3.4,0c-2.1-0.1-3-0.9-3-3.1c0-5,0-9.9,0-14.9
		c0-2.7-0.8-3.5-3.5-3.5c-3.4,0-6.8,0-10.1,0c-2.3,0-3.2,0.9-3.2,3.3c0,4.9,0,9.8,0,14.7c0,2.7-0.8,3.5-3.5,3.5c-1,0-2,0-3.1,0
		c-2.1-0.1-3-0.9-3-3c0-5,0-9.9,0-14.9c0-2.7-0.8-3.8-3.5-3.5c-4.3,0.5-7.1-1.8-10-4.3c-0.8-0.7-1.9-1.1-2.8-1.6
		c-0.2,1-0.5,2.1-0.5,3.1c0,6.8,0,13.5,0,20.3c0,3.3-0.7,4-4.1,4c-5.6,0-5.7,0-5.7-5.6c0-7.1,0-14.2,0-21.2c0-3.7,0.6-4.3,4.2-4.3
		c8.1,0,16.2,0,24.3,0C368.4,43.5,368.4,43.6,368.4,43.6z"/>
	<path d="M291.3,53.1c-1.4,0-2.7,0-4.1,0c-2.9,0-5.9,0-8.8,0c-2,0-2.9-0.9-3-2.9c0-1.3,0-2.6,0-3.8c0.1-2,0.9-2.9,2.9-2.9
		c2.2-0.1,4.3,0,6.5,0c10.3,0,20.5,0,30.8,0c0.6,0,1.2-0.1,1.7,0c0.4,0.1,0.9,0.4,1.3,0.6c-0.2,0.4-0.4,1-0.7,1.3
		c-2.6,2.2-5.3,4.4-8,6.5c-4.5,3.7-9.1,7.4-13.7,11.1c-0.5,0.4-1.3,0.6-1.9,0.9c0.2,0.3,0.4,0.6,0.7,0.9c0.7,0.1,1.5,0.2,2.2,0.2
		c12.2,0,24.5,0,36.7,0c3.5,0,4,0.5,4,3.9c0,5.8,0,5.8-5.8,5.8c-15.4,0-30.8,0-46.3,0c-2.6,0-4.7-0.7-6.3-2.9
		c-0.7-0.9-1.5-1.7-2.3-2.6c-1.4-1.7-1.3-3,0.4-4.4c3.9-3.2,7.9-6.3,11.8-9.4c0.6-0.5,1.2-1.1,1.8-1.6
		C291.4,53.5,291.3,53.3,291.3,53.1z"/>
	<path d="M505.8,43.6c8.2,0,16.3,0,24.5,0c2.2,0,3.7,1,5.4,2.4c3.5,3,4.6,6.5,4.3,11c-0.3,4.8-0.1,9.6-0.1,14.4
		c0,2.5-0.8,3.3-3.3,3.3c-1.1,0-2.2,0-3.3,0c-2.1-0.1-3-0.9-3-3.1c0-5,0-10,0-14.9c0-2.7-0.8-3.5-3.6-3.5c-9.4,0-18.7,0-28.1,0
		c-2.2,0-4.1-0.7-5.7-2.1c-1.2-1.1-2.5-2.2-3.8-3.2c-0.4-0.3-1-0.4-1.5-0.6c-0.2,0.6-0.6,1.1-0.6,1.7c0,6.3,0,12.5,0,18.8
		c0,1.4,0,2.8,0,4.2c-0.1,1.7-1,2.7-2.8,2.7c-1.4,0-2.8,0.1-4.2,0c-1.7-0.1-2.6-1-2.6-2.7c0-8.6,0-17.1,0-25.7c0-2,1-2.8,3.3-2.8
		c8.4,0,16.8,0,25.2,0C505.8,43.5,505.8,43.6,505.8,43.6z"/>
	<path d="M241.6,43.4c8,0,15.9,0.2,23.9-0.1c4.6-0.2,6.7,2.8,9,5.8c0.8,1,0.4,2.3-0.7,3.2c-1.7,1.4-3.4,2.8-5.2,4.2
		c-1.3,1-2,0.7-2.2-0.9c-0.3-2.1-1.6-2.5-3.4-2.5c-9.4,0-18.7,0-28.1,0c-2.3,0-4.2-0.6-5.9-2.2c-1.2-1.1-2.4-2.1-3.7-3
		c-0.5-0.4-1.1-0.5-1.7-0.7c-0.2,0.6-0.6,1.2-0.6,1.9c0,6.8,0,13.5,0,20.3c0,5.2,0,5.2-5.2,5.2c-0.8,0-1.5,0.1-2.3-0.1
		c-1.4-0.3-2.1-1.2-2.1-2.7c0-8.5,0-17,0-25.4c0-2.1,0.9-2.9,3.2-2.9C224.9,43.5,233.3,43.5,241.6,43.4
		C241.6,43.4,241.6,43.4,241.6,43.4z"/>
	<path d="M190.1,43.8c1.1-0.2,1.7-0.3,2.3-0.3c4.1,0,8.3,0,12.4,0c2.2,0,3.1,0.8,3.1,3c0,8.4,0,16.7,0,25.1c0,2.2-0.9,3-3.2,3.1
		c-1,0-2,0-3.1,0c-2.6,0-3.3-0.7-3.3-3.3c0-5.5-0.1-11.1,0-16.6c0-2.6-0.8-4.6-2.9-6.1c-1.3-0.9-2.5-1.9-3.7-3
		C191.2,45.2,190.9,44.6,190.1,43.8z"/>
	<path d="M203,31.7c-0.7,0-1.4,0-2.1,0c-1.6-0.1-2.5-0.9-2.5-2.6c0-1.5,0-2.9,0-4.4c0-1.6,0.9-2.5,2.5-2.6c1.5-0.1,3.1-0.1,4.6,0
		c1.6,0.1,2.4,1,2.5,2.6c0.1,1.3,0.1,2.7,0,4c-0.1,2.2-0.9,3-3.1,3C204.2,31.7,203.6,31.7,203,31.7z"/>
</g>
</svg>
