<?xml version="1.0" encoding="UTF-8"?>
<svg xmlns="http://www.w3.org/2000/svg" version="1.1" viewBox="0 0 138 26">
  <!-- Generator: Adobe Illustrator 28.6.0, SVG Export Plug-In . SVG Version: 1.2.0 Build 709)  -->
  <g>
    <g id="Capa_1">
      <path d="M42.5,24.7l-4.6-17.4c-.4-1.7-1.3-3.1-2.6-4.3-1.3-1.1-2.8-1.8-4.5-2-1.7-.2-3.3.1-4.8,1-1.5.8-2.7,2.1-3.5,3.6l-8.1,15.8H5.6l1.9-7.4c.6-2.3,2.5-3.3,4-3.5,1.5-.2,3.6.4,4.6,2.5l.2.4h0l1.9-3.8c-1-1.2-2.3-2.1-3.7-2.5-1.4-.5-3-.6-4.5-.2-1.5.3-2.8,1.1-3.9,2.2-1.1,1.1-1.9,2.4-2.3,3.9L.9,24.7s0,.1,0,.2c0,0,0,0,0,.1,0,0,0,0,.1,0,0,0,0,0,.1,0h15.2c0,0,.2,0,.3,0,0,0,.1-.1.2-.2L25.7,7.2c1.1-2.1,3.1-2.7,4.6-2.5,1.5.2,3.4,1.2,4,3.5l3.5,13.2h-13.3l-1.9-3.8h0l-2,4,1.6,3.2c0,0,.1.1.2.2,0,0,.2,0,.3,0h19.6c0,0,.1,0,.1,0,0,0,0,0,.1,0,0,0,0,0,0-.1,0,0,0-.1,0-.2Z"/>
      <path d="M94.5,6.4c-5.2,0-8.7,2.9-8.7,7.2s3.5,7.2,8.7,7.2,8.7-2.9,8.7-7.2-3.5-7.2-8.7-7.2ZM94.5,18.4c-3.4,0-5.6-1.9-5.6-4.8s2.3-4.8,5.6-4.8,5.6,1.9,5.6,4.8-2.3,4.8-5.6,4.8Z"/>
      <path d="M114,6.4c-5.2,0-8.7,2.9-8.7,7.2s3.5,7.2,8.7,7.2,8.7-2.9,8.7-7.2-3.5-7.2-8.7-7.2ZM114,18.4c-3.4,0-5.6-1.9-5.6-4.8s2.3-4.8,5.6-4.8,5.6,1.9,5.6,4.8-2.3,4.8-5.6,4.8Z"/>
      <path d="M64.9,13.3c1.3-.4,2.1-1.5,2.1-2.9,0-2.2-1.7-3.5-4.6-3.5h-9.5v13.5h9.6c3.1,0,4.8-1.4,4.8-3.8s-.8-2.8-2.4-3.2ZM61.9,18.1h-6.1v-9h6c1.9,0,2.2,1,2.2,1.5s-.2,1.8-2.2,1.8h-4.2l-.8,2.1h0s5.1,0,5.1,0c1.6,0,2.4.6,2.4,1.8s-.8,1.8-2.4,1.8h0Z"/>
      <path d="M137.9,17.9h-9.3V6.9h-2.9v13.5h11.4l.9-2.4h0Z"/>
      <path d="M85.7,20.3l-6.4-8.4,6-5h0s-3.8,0-3.8,0l-8.1,6.8v-6.8h-2.9v13.5h2.9v-3.5l3.6-3.1,5.2,6.6h3.6Z"/>
    </g>
  </g>
</svg>