<?xml version="1.0" encoding="utf-8"?>
<!-- Generator: $$$/GeneralStr/196=Adobe Illustrator 27.6.0, SVG Export Plug-In . SVG Version: 6.00 Build 0)  -->
<svg version="1.1" id="Layer_1" xmlns="http://www.w3.org/2000/svg" xmlns:xlink="http://www.w3.org/1999/xlink" x="0px" y="0px"
	 viewBox="0 0 230.6 26.1" style="enable-background:new 0 0 230.6 26.1;" xml:space="preserve">
<style type="text/css">
	.st0{fill:#221F1C;}
</style>
<g>
	<g>
		<path class="st0" d="M44,22.3h-7.4V2.7H44V22.3z"/>
		<path class="st0" d="M72,14.3v-5c0-0.6-0.6-1.2-1.7-1.7c-2-0.9-5.7-1.4-11.2-1.4c-4.6,0-8.2,0.4-10.8,1.2l-1.5,3.8
			c1-0.3,1.9-0.5,2.7-0.7c2.1-0.5,3.8-0.8,5.1-1c1.2-0.1,2.7-0.2,4.5-0.2s3.3,0.1,4.5,0.2c0.7,0.1,1,0.4,1,0.7v1.3
			c-1.5-0.1-3.3-0.2-5.3-0.2c-5.4,0-9.1,0.4-11,1.3c-1.1,0.5-1.7,1.1-1.7,1.7v5.2c0,0.6,0.6,1.2,1.7,1.7c1.9,0.9,5.6,1.3,11,1.3
			c0.7,0,1.7,0,3-0.1l2.3-2.9v2.8H72V14.3L72,14.3z M59.3,19.5c-1.7,0-3.1-0.1-4.4-0.3c-0.6-0.1-1-0.4-1-0.9v-2.8
			c0-0.5,0.3-0.8,1-0.9c1-0.1,2.4-0.2,4.4-0.2c2.1,0,3.6,0.1,4.4,0.2c0.6,0.1,0.9,0.4,0.9,0.8v0.1l0,0v3.6
			C61.9,19.3,60.1,19.5,59.3,19.5z"/>
		<path class="st0" d="M126.1,22.3h-9.5l-7.3-8.8v8.8H102V2.7h7.4v6.9l6.3-3.4h6.6l-7.8,4L126.1,22.3z"/>
		<path class="st0" d="M151.6,19.5c0,0.6-0.6,1.1-1.7,1.7c-1.9,0.9-5.6,1.3-11,1.3s-9.1-0.4-11-1.3c-1.2-0.5-1.7-1.1-1.7-1.7V2.6
			h7.4v6.5l1.4-2.9c1.6-0.1,2.9-0.2,4-0.2c5.4,0,9.1,0.4,11,1.3c1.1,0.5,1.6,1.1,1.6,1.7V19.5z M144.3,9.9c0-0.3-0.3-0.5-0.9-0.6
			c-0.4,0-1.8-0.1-4.4-0.2c-1.9,0-3.7,0.1-5.4,0.4v9c0,0.3,0.3,0.5,1,0.7c2.9,0.3,5.8,0.3,8.7,0c0.6-0.1,1-0.4,1-0.7L144.3,9.9
			L144.3,9.9z"/>
		<path class="st0" d="M178.8,22.3h-7.3v-2.9l-1.6,2.9c-0.5,0-1.5,0-3,0c-5.4,0-9.1-0.4-11-1.3c-1.1-0.5-1.6-1-1.6-1.6V6.2h7.4v12.3
			c0,0.2,0.3,0.5,1,0.6c1,0.2,2.2,0.4,3.6,0.4c1.6,0,3.4-0.2,5.4-0.5V6.2h7.3v16.1H178.8z"/>
		<path class="st0" d="M198.3,9.2c-2.1-0.2-3.6-0.3-4.3-0.3c-1.8,0-3.2,0.1-4.4,0.2c-0.6,0.2-1,0.4-1,0.7v12.6h-7.4V8.8
			c0-0.6,0.6-1.2,1.6-1.6c1.9-0.9,5.6-1.3,11-1.3c0.8,0,1.6,0,2.4,0L198.3,9.2z"/>
		<g>
			<path class="st0" d="M226.3,20.7c0.1-0.1,0.2-0.3,0.3-0.4s0.2-0.2,0.4-0.3c0.1-0.1,0.3-0.1,0.5-0.1s0.3,0,0.5,0.1
				c0.1,0.1,0.3,0.1,0.4,0.3c0.1,0.1,0.2,0.2,0.3,0.4c0.1,0.1,0.1,0.3,0.1,0.5s0,0.3-0.1,0.5c-0.1,0.1-0.2,0.3-0.3,0.4
				s-0.2,0.2-0.4,0.3c-0.1,0.1-0.3,0.1-0.5,0.1s-0.3,0-0.5-0.1c-0.1-0.1-0.3-0.1-0.4-0.3c-0.1-0.1-0.2-0.2-0.3-0.4
				c-0.1-0.1-0.1-0.3-0.1-0.5S226.3,20.8,226.3,20.7z M226.5,21.5c0,0.1,0.1,0.2,0.2,0.3c0.1,0.1,0.2,0.2,0.3,0.2
				c0.1,0.1,0.2,0.1,0.4,0.1c0.1,0,0.3,0,0.4-0.1c0.1-0.1,0.2-0.1,0.3-0.2s0.2-0.2,0.2-0.3c0-0.1,0.1-0.3,0.1-0.4s0-0.3-0.1-0.4
				s-0.1-0.2-0.2-0.3c-0.1-0.1-0.2-0.2-0.3-0.2c-0.1-0.1-0.2-0.1-0.4-0.1c-0.1,0-0.3,0-0.4,0.1c-0.1,0.1-0.2,0.1-0.3,0.2
				s-0.2,0.2-0.2,0.3c0,0.1-0.1,0.3-0.1,0.4C226.5,21.3,226.5,21.4,226.5,21.5z M227.5,20.4c0.2,0,0.3,0,0.4,0.1
				c0.1,0.1,0.1,0.2,0.1,0.3c0,0.1,0,0.2-0.1,0.3c-0.1,0.1-0.2,0.1-0.3,0.1l0.4,0.6h-0.2l-0.4-0.6h-0.2v0.6H227v-1.4H227.5z
				 M227.4,21.1h0.1h0.1c0,0,0.1,0,0.1-0.1v-0.1v-0.1c0,0,0,0-0.1-0.1h-0.1h-0.1h-0.3v0.4C227.1,21.1,227.4,21.1,227.4,21.1z"/>
		</g>
		<path class="st0" d="M225.1,9.1v13.2h-7.4V10.1c0-0.3-0.3-0.5-1-0.7c-1-0.2-2.1-0.4-3.5-0.4c-1.6,0-3.4,0.2-5.3,0.5v12.8h-7.4V6.2
			h7.4v2.9l1.6-3c0.5,0,1.5,0,3,0c5.4,0,9.1,0.4,11,1.3C224.6,7.9,225.1,8.5,225.1,9.1z"/>
		<path class="st0" d="M100.7,17.1l-1.1,4C99,21.4,97.8,21.7,96,22c-2.6,0.4-5.4,0.7-8.6,0.7c-5.5,0-9.3-0.5-11.3-1.4
			c-1.1-0.5-1.7-1.1-1.7-1.7V8.9c0-0.6,0.6-1.2,1.7-1.7c2-0.9,5.7-1.4,11.3-1.4c4.6,0,8.2,0.4,10.8,1.2l1.5,3.8
			c-1-0.3-1.9-0.5-2.7-0.7c-2.1-0.5-3.8-0.8-5.1-1c-1.1,0-2.6-0.1-4.4-0.1S84.2,9.1,83,9.2c-0.7,0.1-1,0.4-1,0.7v8.8
			c0,0.3,0.3,0.5,1,0.7c1.1,0.1,2.6,0.2,4.5,0.2c1.8,0,3.3-0.1,4.5-0.2C94.1,19,97,18.3,100.7,17.1z"/>
		<g>
			<g>
				<path class="st0" d="M29.5,12.1L29.5,12.1c3.1-0.3,4.6-1,4.6-2.2V6.3c0-0.7-0.7-1.4-2-2C29.8,3.2,25,2.4,17.8,2.4
					c-2.8,0-5.4,0.3-7.7,0.8C5.7,4.1,3.6,4.8,3.6,6.3v16h8.6v-3l2,3c2.1,0.1,4,0.2,5.8,0.2c5.9,0,10-0.5,12.3-1.6
					c0.7-0.3,1.2-0.6,1.4-0.7c0.4-0.3,0.6-0.7,0.6-1.3v-4.5C34.2,13.2,32.6,12.4,29.5,12.1z M12.2,12.4c-2.2-0.1-4.5-0.1-6.6,0.2
					c2.1-0.9,4.3-1.6,6.6-2C12.2,10.9,12.2,11.9,12.2,12.4z M25.4,17.9c0,0.5-0.9,0.9-2.6,1c-0.5,0-1.5,0-3.1,0
					c-3.2,0-5.7-0.1-7.5-0.4c0,0,0-4.8,0-6.2c5.3,0.3,10.3,1.6,13.2,2.4C25.4,14.7,25.4,17.9,25.4,17.9z M25.4,9.7L25.4,9.7
					c-2.9-0.1-8.1-0.1-13.2,0.9c0-1.4,0-3.7,0-3.7c0-0.4,0.3-0.6,0.9-0.7c1.9-0.4,3.8-0.5,5.6-0.5c2,0,3.9,0.2,5.7,0.6
					c0.6,0.1,0.9,0.4,0.9,0.8v2.6H25.4z"/>
			</g>
		</g>
	</g>
</g>
</svg>
