<?xml version="1.0" encoding="UTF-8" standalone="no"?><svg id="Calque_1" data-name="Calque 1" xmlns="http://www.w3.org/2000/svg" viewBox="0 0 415.9 211.05"><defs><style>.cls-1,.cls-5{fill:#1d1d1b;}.cls-2,.cls-3{fill:none;stroke-miterlimit:10;stroke-width:1.72px;}.cls-2{stroke:#e63312;}.cls-3{stroke:#0069b4;}.cls-4{fill:#e63312;}.cls-5{fill-rule:evenodd;}.cls-6{fill:#fff;}</style></defs><rect class="cls-4" x="18.09" y="24.33" width="130.45" height="130.32" rx="4.84"/><path class="cls-1" d="M392.86,131.65c.33-.09.71-.36.71-.73a.74.74,0,0,0-.38-.62,3.11,3.11,0,0,0-1.3-.23c-.45,0-.9.05-1.18.07V133h.9v-1.17h.25c.36,0,.55.11.67.5a2.83,2.83,0,0,0,.26.67h.91c-.06-.12-.21-.51-.33-.82A.76.76,0,0,0,392.86,131.65Zm-.89-.25h-.36v-.8a1.86,1.86,0,0,1,.41,0c.41,0,.64.12.64.39S392.41,131.4,392,131.4Z"/><path class="cls-1" d="M392.05,128.49a3.06,3.06,0,1,0,3.07,3.07A3.09,3.09,0,0,0,392.05,128.49Zm0,5.75a2.69,2.69,0,1,1,2.71-2.68A2.71,2.71,0,0,1,392.05,134.24Z"/><path class="cls-1" d="M311.44,130.83H301.13A16.43,16.43,0,0,1,285,114.94c-.12-9.83-.09-19.91-.09-29.59v-12a8.76,8.76,0,0,0-3.77,7.4v4.61c0,9.68,0,19.76.07,29.65a20.06,20.06,0,0,0,19.95,19.61h10.31Z"/><path class="cls-1" d="M341.69,130.83H331.43a16.4,16.4,0,0,1-16.16-15.89c-.19-9.83-.13-19.91,0-29.59v-12a8.37,8.37,0,0,0-3.83,7.4v4.61c0,9.68-.13,19.76,0,29.65a20.08,20.08,0,0,0,20,19.61h10.26Z"/><path class="cls-1" d="M244.51,134.61a18.76,18.76,0,0,1-18.37-17.19c-.79-10,6.36-20.18,16.33-20.18l16.88-.13c8.8,0,16.71,6.94,18.13,15.63A18.84,18.84,0,0,1,274,127.19a18.52,18.52,0,0,1-12.65,7.36ZM242.94,101c-8.07,0-13.69,8.12-13,16.12a14.9,14.9,0,0,0,14.59,13.72c.44,0,15.3,0,16.41-.07A14.77,14.77,0,0,0,271,125a15.27,15.27,0,0,0,2.81-11.64,15,15,0,0,0-14.43-12.4Z"/><path class="cls-1" d="M222,112.74c-1.42-8.69-9.35-15.63-18.14-15.63l-16.93.13a15.53,15.53,0,0,0-12.5,6.84V85.35l.05-12a8.54,8.54,0,0,0-3.76,7.4v4.61c-.06,9.48-.06,19.34,0,29a26.2,26.2,0,0,0,0,3.07A18.62,18.62,0,0,0,189,134.61l16.86-.06A18.79,18.79,0,0,0,222,112.74ZM215.45,125a14.77,14.77,0,0,1-10,5.8c-1.15.07-16,.07-16.37.07a14.82,14.82,0,0,1-14.63-13.72,15.71,15.71,0,0,1,0-2.17h0v-.4c.62-7.13,5.8-13.55,12.93-13.55l16.45-.07a15,15,0,0,1,11.63,24Z"/><path class="cls-5" d="M382.13,83.63l-13.67,4.46a6.2,6.2,0,0,0-3.83,4.09l18.43-6Z"/><path class="cls-1" d="M374.89,97.2H358c-9.83,0-17,10.18-16.21,20.22a18.65,18.65,0,0,0,18.29,17.15l25.77,0v-3.78s-25.37,0-25.77,0a14.87,14.87,0,0,1-14.48-12.91h46.1C392.46,107.93,384.71,97.24,374.89,97.2ZM358.44,101H375c6.62,0,11.67,6.21,12.79,12.92H345.54C346.37,107.1,351.5,101,358.44,101Z"/><path class="cls-6" d="M40.19,63.74A6.18,6.18,0,0,1,42,59.6L63.84,37.73v72.35a6.87,6.87,0,0,1-2,4.68L40.19,136.43Zm84.51,50.91-20.83,20.83a4.51,4.51,0,0,1-2.58,1H47.71l16.7-16.67a6.75,6.75,0,0,1,4.83-2H88.43a4.86,4.86,0,0,0,2.74-1.19l10.14-10.06a5.36,5.36,0,0,0,1.37-3.25v-7c0-2.71-2.18-2.73-2.18-2.73H69.25L86.53,76.31A4.47,4.47,0,0,1,90,74.94h33.12a3.09,3.09,0,0,1,3.3,3.29v31.32A7,7,0,0,1,124.7,114.65Z"/></svg>