<?xml version="1.0" encoding="UTF-8"?>
<svg xmlns="http://www.w3.org/2000/svg" version="1.1" viewBox="0 0 120 20">
  <defs>
    <style>
      .cls-1 {
        fill: #003789;
      }
    </style>
  </defs>
  <!-- Generator: Adobe Illustrator 28.6.0, SVG Export Plug-In . SVG Version: 1.2.0 Build 709)  -->
  <g>
    <g id="icon-logo">
      <path class="cls-1" d="M24.8,1.7c.3-.9.8-1.4,2.8-1.4h5.4c3.4,0,5.6.6,6.8,1.9.8.8,1.1,1.9.9,3.4-.3,3.5-2.1,5.5-6,6.7h-.2c0,0,2.7,7.1,2.7,7.1,0,.2,0,.5-.3.5h-3.3c-.9,0-1.7-.5-2-1.3l-2-5.3h-3.3l-1.9,6.1c0,.3-.4.5-.7.5h-4.1c-.2,0-.4-.2-.3-.4L24.8,1.7h0ZM29.1,4l-1.7,5.4h3.2c2.4,0,4.6,0,4.9-3.2,0-.6,0-1-.4-1.4-.5-.6-1.5-.8-3.3-.8h-2.7Z"/>
      <path class="cls-1" d="M67.9,20c-2.6,0-4.9-.9-6.1-2.5-.9-1.2-1.2-2.8-.7-4.5l1-3.6c2-6.9,5.1-9.4,12.1-9.4h.3c2.6,0,4.9.9,6.1,2.5.9,1.2,1.2,2.8.7,4.5l-1,3.6c-2,6.9-4.1,9.4-12.1,9.4h-.3ZM73.1,4.2c-2.9,0-4.6,1.6-5.6,5.1l-.9,3.2c-.1.5-.2.9-.2,1.3.2,1.3,1.2,2,3,2,2.9,0,4.7-1.6,5.7-5.1l.9-3.2c.1-.5.2-.9.2-1.3-.2-1.3-1.2-2-3-2h0Z"/>
      <path class="cls-1" d="M84.1,19.7c.3,0,.6-.2.7-.5l2.4-7.8c.3,0,.5.2.6.4l3.4,6.7c.4.7,1.2,1.2,2,1.2h3.6c.2,0,.4-.3.3-.5l-4.3-8.4c-.1-.2,0-.5.1-.6L103.2.7c.2-.1,0-.4-.2-.4h-4.2c-.7,0-1.4.3-1.9.8l-8.2,7.7c-.2.2-.5.3-.8.3l2.6-8.3c0-.2-.1-.4-.3-.4h-4.1c-.3,0-.6.2-.6.4l-5.8,18.6c0,.2,0,.4.3.4h4.1Z"/>
      <path class="cls-1" d="M115.5,4.1h-4.2c-1.6,0-3,.2-3.2,2.1,0,.8.5,1.1,1.7,1.6l3.4,1.2c2,.7,3,2.3,2.7,4.2-.6,5.4-4.6,6.5-10.3,6.5h-6.4c-.3,0-.5-.2-.4-.5.4-3.4,3.9-3.3,3.9-3.3h4.2c2.3,0,3.5-.9,3.7-2.6,0-.9-.4-1.5-1.7-2l-3.4-1.2c-1.9-.8-2.9-2.1-2.7-3.8.5-5,4.2-6,9.8-6h6.4c.3,0,.5.2.4.5-.2,1-1,3.3-3.9,3.3h0Z"/>
      <path class="cls-1" d="M47.4,20c-2.6,0-4.9-.9-6.1-2.5-.9-1.2-1.2-2.8-.7-4.5l1-3.6c2-6.9,5.1-9.4,12.1-9.4h.3c2.6,0,4.9.9,6.1,2.5.9,1.2,1.2,2.8.7,4.5l-1,3.6c-2,6.9-4.1,9.4-12.1,9.4h-.3ZM52.6,4.2c-2.9,0-4.6,1.6-5.6,5.1l-.9,3.2c-.1.5-.2.9-.2,1.3.2,1.3,1.2,2,3,2,2.9,0,4.7-1.6,5.7-5.1l.9-3.2c.1-.5.2-.9.2-1.3-.2-1.3-1.2-2-3-2h0Z"/>
      <path class="cls-1" d="M14.3.3c2.9,0,5,.6,6.1,1.9.7.7,1,1.7.9,2.8-.2,2.3-1.3,3.6-4.1,4.7h-.3c0,.1.3.3.3.3,1.2.7,1.8,2,1.7,3.5-.6,6.3-5.9,6.3-11.5,6.3H2.8c-1,0-2.1,0-2.5-.3-.6-.6-.2-1.5-.2-1.5L5.1,1.7c.3-.9.8-1.4,2.8-1.4h6.3ZM9.5,16c1.9,0,4.2.2,4.4-2.3,0-.6-.1-1.1-.4-1.5-.5-.5-1.3-.7-2.5-.7h-3.7l-1.4,4.5h3.7ZM8.2,8.1h3.7c2.4,0,4-.3,4.2-2.2,0-.5,0-.9-.3-1.2-.5-.6-1.6-.6-3.8-.6h-2.6l-1.3,4Z"/>
    </g>
  </g>
</svg>