<?xml version="1.0" encoding="utf-8"?>
<!-- Generator: $$$/GeneralStr/196=Adobe Illustrator 27.6.0, SVG Export Plug-In . SVG Version: 6.00 Build 0)  -->
<svg version="1.1" id="Capa_1" xmlns="http://www.w3.org/2000/svg" xmlns:xlink="http://www.w3.org/1999/xlink" x="0px" y="0px"
	 viewBox="0 0 321 92" style="enable-background:new 0 0 321 92;" xml:space="preserve">
<style type="text/css">
	.st0{fill:#74BC1F;}
</style>
<g>
	<g>
		<path class="st0" d="M7,7.2c3.4,2.5,5.2,6.3,7.8,9.4c2.6,3.3,5.1,6.8,7.6,10.2c0.6,0.9,1.5,0.8,2.4,0.8c9.4,0,18.8,0,28.2,0
			c7.7,0,13.8,3.3,18.6,9.2c5.5,6.7,6.5,14.5,4,22.6C73.4,66.2,68.4,71,61.9,74c-1.3,0.6-1.6,0-1.6-1.3c0-6.6,0-13.2,0-19.8
			c0.1-6.6-5.2-11.7-11.4-11.5c-5,0.1-10,0.1-15,0c-6.2-0.2-12.3,6.7-10.1,13.2c1.1,3.1,3.3,5.3,6.4,6.5c1.4,0.6,2.9,0.8,4.4,0.8
			c4-0.1,7.9,0,11.9,0c1,0,1.7,0.3,2.3,1c3.1,4,6.2,8,9.5,12.2c-2.3,0.2-4.3,0.5-6.3,0.6c-7,0.1-13.9,0.1-20.9,0
			c-8.9-0.1-16-3.9-20.8-11.6c-1.1-1.7-2-3.6-2.4-5.7C7.9,57.6,8,56.6,7,56.1C7,39.8,7,23.5,7,7.2z"/>
		<path class="st0" d="M314,32.2c-0.7-0.5-1,0.2-1.4,0.5c-1.7,1.4-4,1.2-5.4-0.4c-1.2-1.3-1.1-3.8,0.1-5.1c1.5-1.5,3.6-1.7,5.3-0.3
			c0.5,0.4,0.8,0.8,1.5,0.6C314,29.1,314,30.7,314,32.2z M308.5,27.5c-1.1,1.1-1.2,2.3-0.6,3.5c0.5,1,1.3,1.6,2.4,1.5
			c0.3,0,0.8,0.1,0.8-0.2c0-0.3-0.2-0.7-0.3-1c-0.2-0.4-0.5-0.2-0.8,0.1c-1.1,0.9-1.1,0-1.2-0.7C308.8,29.6,309.1,28.6,308.5,27.5z
			 M311.4,27.5c-0.1,1,0.4,1.8,0,2.6c-0.3,0.6,0.5,1.1,0.9,1.2c0.8,0.1,0.5-0.7,0.5-1.1C313.1,29,312.7,28.1,311.4,27.5z"/>
		<path class="st0" d="M96.4,40.1c0-5.4,0-10.8,0-16.2c0-1.3,0.3-1.8,1.7-1.8c4.9,0,4.9,0,4.9,4.8c0,2.2,0.1,4.4,0,6.5
			c-0.1,1.5,0.5,1.8,1.9,1.8c4.5,0,8.9-0.2,13.4,0.3c5.8,0.6,10.4,3.4,13.6,8.1c5.5,7.9,4.5,17.3-1.9,24.1
			c-4.6,4.9-10.5,6.8-17.3,5.6c-6.9-1.2-11.7-5.1-14.6-11.4c-0.9-2-1.5-4.2-1.5-6.5C96.5,50.5,96.4,45.3,96.4,40.1
			C96.4,40.1,96.4,40.1,96.4,40.1z M110.5,41.8c-2,0-4,0.1-5.9,0c-1.2,0-1.7,0.4-1.6,1.6c0.1,4.3,0,8.6,0,12.9c0,0.4,0,0.9,0.2,1.3
			c1.8,5,5.1,8.3,10.4,9.4c7.6,1.6,14-4.3,15.1-10.8c1.1-6.2-3.4-11.1-7.3-13C117.8,41.6,114.2,41.8,110.5,41.8z"/>
		<path class="st0" d="M228.8,46.1c0-3.1,0-6.2,0-9.2c0-1.1,0.3-1.6,1.5-1.6c6.1,0.1,12.2-0.1,18.2,0.1c7,0.3,12.6,3.3,16.4,9.3
			c4.4,6.9,3.5,17-2.5,23.1c-4.9,4.9-10.8,7-17.7,5.7c-7.9-1.5-13-6.1-15.3-13.8c-0.5-1.6-0.5-3.4-0.6-5.1
			C228.8,51.7,228.9,48.9,228.8,46.1C228.8,46.1,228.8,46.1,228.8,46.1z M235.3,50.2C235.3,50.2,235.2,50.2,235.3,50.2
			c-0.1,1.4-0.1,2.8,0,4.2c0.1,1.4-0.1,2.9,0.5,4.3c2,4.6,5.4,7.2,10.2,8.3c8,1.8,15.5-5.1,15.3-12.6c-0.2-7.3-5.8-11.8-12.1-12.5
			c-4.1-0.5-8.3-0.1-12.4-0.1c-1.2,0-1.4,0.5-1.4,1.5C235.3,45.6,235.3,47.9,235.3,50.2z"/>
		<path class="st0" d="M274.1,54.1c0-5.8,0-11.6,0-17.3c0-1.2,0.3-1.6,1.5-1.6c6.9,0.2,13.8-0.5,20.6,0.6c5.2,0.8,8.9,4,10.9,9
			c0.9,2.3,1.1,4.7,1.1,7.1c0,6.5,0,13.1,0.1,19.6c0,1.3-0.3,2-1.7,1.6c-0.3-0.1-0.6-0.1-1-0.1c-3.9-0.1-3.9-0.1-3.8-3.9
			c0-5.8,0-11.7,0-17.5c0-3.6-1.2-6.6-4.5-8.5c-1.3-0.7-2.6-1.3-4.1-1.3c-3.6,0-7.2,0.1-10.7,0c-1.5,0-1.8,0.5-1.8,1.9
			c0.1,9.1,0,18.2,0.1,27.4c0,1.7-0.5,2.1-2.1,2.1c-4.4-0.2-4.4-0.1-4.4-4.6C274.1,63.7,274.1,58.9,274.1,54.1z"/>
		<path class="st0" d="M179.4,61.1c3.5-8.1,6.9-16,10.3-23.8c0.6-1.4,1.3-2.2,3-2c1.2,0.2,2.4,0,3.6,0c1.1,0,1.2,0.5,0.8,1.3
			c-2.9,6.4-5.8,12.8-8.5,19.3c-2.5,5.9-5.2,11.8-7.7,17.7c-1.4,3.2-2.8,6.5-4.2,9.7c-0.2,0.5-0.3,1.2-0.8,1.2
			c-2,0.2-4.1,0.4-6.1,0.3c-0.7,0-0.5-0.9-0.2-1.4c1.7-3.6,3-7.4,4.9-10.9c1.7-3.1,0.3-5.4-0.8-7.9c-3.1-7.2-6.2-14.4-9.4-21.6
			c-0.9-2.1-1.7-4.2-2.7-6.3c-0.7-1.3-0.2-1.5,1-1.5c5.5-0.1,5.4,0,7.5,5.2c2.8,6.7,5.8,13.4,8.8,20C179,60.6,179.1,60.8,179.4,61.1
			z"/>
		<path class="st0" d="M213.8,57.6c0,4.7,0,9.4,0,14.1c0,1.3-0.3,1.8-1.6,1.5c-0.3-0.1-0.6,0-1,0c-3.5-0.1-3.5-0.1-3.5-3.5
			c0-8.5,0-17.1,0.1-25.6c0-1.6-0.4-2.2-2.1-2.1c-3.4,0.2-3.4,0-3.4-3.3c0-3.3,0-3.4,3.2-3.2c1.9,0.1,2.3-0.6,2.2-2.3
			c-0.1-3.1,0-6.2-0.1-9.2c0-1.1,0.3-1.6,1.5-1.6c4.6-0.1,4.6-0.2,4.6,4.5c0,2.2,0.1,4.4,0,6.5c-0.1,1.8,0.6,2.2,2.2,2.1
			c1.4-0.1,2.8,0,4.2,0c1.2,0,1.7,0.4,1.7,1.7c0.1,4.9,0.2,4.9-4.6,4.9c-3.4,0-3.4,0-3.4,3.4C213.8,49.3,213.8,53.4,213.8,57.6z"/>
		<path class="st0" d="M147.8,58c0,4.6,0,9.1,0,13.7c0,1.1-0.2,1.7-1.5,1.5c-0.4-0.1-0.8-0.1-1.1-0.1c-3.9-0.1-3.9-0.1-3.9-4.1
			c0-7.9-0.1-15.8,0-23.7c0-3.9,0.9-7.6,3.4-10.9c2-2.6,4.7-4.2,7.7-5.3c0.9-0.3,1.9-0.3,2.2,1c0.3,1,0.7,2.1,1.3,2.9
			c1.2,1.6,0.4,2.1-1,2.4c-4.8,1-6.9,5.2-7.1,9.4C147.7,49.3,147.8,53.7,147.8,58z"/>
		<path class="st0" d="M32.8,48.4c1.9,0,3.4,1.5,3.3,3.3c0,1.7-1.5,3.2-3.4,3.2c-1.9,0-3.2-1.4-3.2-3.4
			C29.6,49.6,30.8,48.4,32.8,48.4z"/>
		<path class="st0" d="M43.8,48.4c1.8-0.5,3.2,1.3,3.4,3c0.2,1.7-1.6,3.5-3.2,3.5c-1.9,0-3.5-1.4-3.6-3.2
			C40.3,50,41.9,48.4,43.8,48.4z"/>
	</g>
</g>
</svg>
