<?xml version="1.0" encoding="utf-8"?>
<!-- Generator: Adobe Illustrator 27.5.0, SVG Export Plug-In . SVG Version: 6.00 Build 0)  -->
<svg version="1.1" id="Capa_1" xmlns="http://www.w3.org/2000/svg" xmlns:xlink="http://www.w3.org/1999/xlink" x="0px" y="0px"
	 viewBox="0 0 289 80" style="enable-background:new 0 0 289 80;" xml:space="preserve">
<style type="text/css">
	.st0{fill-rule:evenodd;clip-rule:evenodd;fill:#231F20;}
	.st1{filter:url(#Adobe_OpacityMaskFilter);}
	.st2{fill-rule:evenodd;clip-rule:evenodd;fill:#FFFFFF;}
	
		.st3{mask:url(#prefix__b_00000019668669114673480580000005896706127648588435_);fill-rule:evenodd;clip-rule:evenodd;fill:#231F20;}
	.st4{filter:url(#Adobe_OpacityMaskFilter_00000166662273104747622050000017818048716931171471_);}
	
		.st5{mask:url(#prefix__d_00000171696623171153057000000008195724768870345372_);fill-rule:evenodd;clip-rule:evenodd;fill:#231F20;}
</style>
<g>
	<path class="st0" d="M249.5,77.7l-212.6,0l0-10.7l212.6,0L249.5,77.7z"/>
	<g>
		<path class="st0" d="M109.8,3.3l-7.5,0c0,0-7,15.6-8.5,19c-1.5-3.4-8.5-19-8.5-19h-8.5l0,57.9l9.8,0l-0.4-36.8l7.6,18.1l7.6-18.1
			L101,61.2h9.8l0-57.9L109.8,3.3 M129.8,52.5c0-1.7,0-15.3,0-17c1.7,0,12.8,0,12.8,0l0-8.8c0,0-11.1,0-12.8,0c0-1.7,0-13,0-14.7
			c1.8,0,14,0,14,0l0-8.7l-1,0l-23,0l0,57.9l24.7,0v-8.7C144.5,52.5,131.5,52.5,129.8,52.5 M163.1,52.5c0-2,0-49.2,0-49.2l-1,0
			l-8.9,0l0,57.9l23.9,0v-8.7C177.1,52.5,164.9,52.5,163.1,52.5 M193.5,26.9c0-1.8,0-13.1,0-14.8c5,0.1,7.7,2.6,7.7,7.2
			C201.2,24,198.3,26.8,193.5,26.9 M193.9,52.5l-0.4,0c0-1.7,0-15,0-16.8c0.1,0,0.4,0,0.4,0c8.1,0,8.8,6.6,8.8,8.6
			C202.6,49.5,199.4,52.5,193.9,52.5 M204,30.1c4.6-3,7.1-7.2,7.1-12c0-7.3-6.4-14.8-17.2-14.8l-9.4,0h-1l0,57.9h8.5
			c15.1,0,20.6-8.9,20.6-17.1C212.6,37.7,209.6,33,204,30.1"/>
	</g>
	<g transform="translate(0 .16)">
		<defs>
			<filter id="Adobe_OpacityMaskFilter" filterUnits="userSpaceOnUse" x="0" y="0.8" width="31.9" height="78.2">
				<feColorMatrix  type="matrix" values="1 0 0 0 0  0 1 0 0 0  0 0 1 0 0  0 0 0 1 0"/>
			</filter>
		</defs>
		
			<mask maskUnits="userSpaceOnUse" x="0" y="0.8" width="31.9" height="78.2" id="prefix__b_00000019668669114673480580000005896706127648588435_">
			<g class="st1">
				<path id="prefix__a_00000076584572664873525100000005125794949732336280_" class="st2" d="M0,0.8h31.9V79H0V0.8z"/>
			</g>
		</mask>
		<path class="st3" d="M20.1,79c4.1-0.1,7.6-0.9,11.4-4.1l0.4-0.4l0-11.7L30.5,64c-4.1,3.3-6.4,3.8-9.3,3.7c-6.7-0.1-10-8.2-10-27.8
			c0-19.6,3.2-27.6,9.6-27.8c3.5-0.1,5.9,1,8.3,2.7c1.1,0.8,2,1.8,2,1.8l0-11.8l-0.5-0.4C27.1,2,23.5,0.9,20.3,0.8
			c-2.9-0.1-5.4,0.7-7.7,2.1C4.5,7.8,0,20.8,0,40.4C0,64.9,7.4,79.2,20.1,79"/>
	</g>
	<path class="st0" d="M57,40.1c-1.5,0-4.9,0-6.4,0c0.3-1.7,2.1-11.5,3.2-17.3C54.9,28.6,56.7,38.4,57,40.1 M58.8,3l-0.8,0l-9,0
		l-12,58.2l9.7,0c0,0,2.1-10.9,2.4-12.4c1.3,0,8.4,0,9.7,0C59,50.3,61,61.2,61,61.2l9.8,0L58.8,3"/>
	<g transform="translate(279 33.16)">
		<defs>
			
				<filter id="Adobe_OpacityMaskFilter_00000155129003742910440100000016791385399919720111_" filterUnits="userSpaceOnUse" x="0.3" y="0.3" width="9.5" height="9.6">
				<feColorMatrix  type="matrix" values="1 0 0 0 0  0 1 0 0 0  0 0 1 0 0  0 0 0 1 0"/>
			</filter>
		</defs>
		
			<mask maskUnits="userSpaceOnUse" x="0.3" y="0.3" width="9.5" height="9.6" id="prefix__d_00000171696623171153057000000008195724768870345372_">
			<g style="filter:url(#Adobe_OpacityMaskFilter_00000155129003742910440100000016791385399919720111_);">
				<path id="prefix__c_00000101783347880671653290000013402430569896257470_" class="st2" d="M0.3,0.3h9.5v9.6H0.3V0.3z"/>
			</g>
		</mask>
		<path class="st5" d="M5.1,4.8C5.6,4.8,6,4.5,6,4.1c0-0.5-0.3-0.7-1.1-0.7L4,3.4l0,1.4C4,4.8,5.1,4.8,5.1,4.8z M2.9,2.6h2.4
			C6.6,2.6,7,3.2,7,4c0,0.8-0.5,1.3-1.4,1.4v0c0.4,0.1,0.6,0.4,1,1l0.7,1.2H6.1L5.7,6.9c-0.5-1-0.8-1.3-1.4-1.3L4,5.6l0,2.1l-1,0
			C2.9,7.7,2.9,2.6,2.9,2.6z M5.1,9c2.1,0,3.8-1.7,3.8-3.9c0-2.1-1.7-3.9-3.8-3.9C3,1.2,1.3,3,1.3,5.1C1.3,7.3,3,9,5.1,9z M5.1,0.3
			c2.6,0,4.8,2.1,4.8,4.8c0,2.7-2.1,4.8-4.8,4.8c-2.6,0-4.8-2.2-4.8-4.8C0.3,2.4,2.5,0.3,5.1,0.3z"/>
	</g>
	<g>
		<path class="st0" d="M235.7,40.2c-1.5,0-4.9,0-6.4,0c0.3-1.7,2.1-11.6,3.2-17.3C233.6,28.7,235.4,38.5,235.7,40.2 M237.5,3l-0.8,0
			l-9,0l-12.1,58.4l9.8,0l2.4-12.4c1.3,0,8.4,0,9.8,0c0.3,1.5,2.2,12.4,2.2,12.4l9.8,0L237.5,3 M265.9,45.8l0,32.1l-10.8,0l0-75.9
			l10.8,0l0,30L274,2h11.2c-1.1,3.7-10.6,35.3-10.9,36.2l0,0.1l0,0.1c0.3,0.9,12.3,35.6,13.7,39.5l-11.3,0L265.9,45.8"/>
	</g>
</g>
</svg>
