<?xml version="1.0" encoding="utf-8"?>
<!-- Generator: Adobe Illustrator 27.5.0, SVG Export Plug-In . SVG Version: 6.00 Build 0)  -->
<svg version="1.1" id="Capa_1" xmlns="http://www.w3.org/2000/svg" xmlns:xlink="http://www.w3.org/1999/xlink" x="0px" y="0px"
	 viewBox="0 0 207.9 33.3" style="enable-background:new 0 0 207.9 33.3;" xml:space="preserve">
<style type="text/css">
	.st0{fill-rule:evenodd;clip-rule:evenodd;}
	.st1{fill-rule:evenodd;clip-rule:evenodd;fill:#FFFFFF;}
	.st2{fill-rule:evenodd;clip-rule:evenodd;fill:#BF0021;}
</style>
<g>
	<g>
		<path class="st0" d="M14.1,8c-0.9,0.4-1.4,0.5-2.4,0.9L8.3,2.2L14.1,8L14.1,8z"/>
		<path class="st0" d="M44.6,26.6c0.7,0-2.1-0.1-2.1-0.1l-2.2,1.1l5.7,1L39.1,28c-7.6,3.2-17.9,3.1-25.5,0.3l-6.1,0.6
			c1.7-0.6,3.5-0.7,5.3-1c-1.1-0.4-1.9-0.7-2.7-1.2l-5.4,0.2l4.7-0.7l-2.5-1.6H2.3l4.1-0.4c-0.6-0.6-1.3-1.1-1.5-1.9
			c-1.3-2-1-4.9,0.3-6.8l0.6-1c0.1-4.2,0.7-8.4,1.9-12.2c1.6,3.3,1.7,3.3,3.7,7.2C20.1,5.5,32.4,5.4,41,9.5l3.3-7.6
			c1.5,3.9,2.2,8.4,2.4,12.8c1.5,1.5,2.2,3.7,1.6,6c-0.2,1.1-1,2.1-1.8,3.3c1.6,0.1,2.6,0.2,3.6,0.5l-4.4-0.1
			c-0.8,0.7-1.6,1.2-2.4,1.7c1.6,0.1,2.6,0.4,4.5,0.8c-1.7-0.2-3.9-0.6-5.6-0.4L44.6,26.6L44.6,26.6z"/>
		<path class="st0" d="M38.3,7.9c2.1-2.3,3-3.2,5.5-5.9l-2.9,6.8L38.3,7.9L38.3,7.9z"/>
		<path class="st1" d="M19,25.3v0.2c-4.2-0.8-7.6-0.7-11.7-0.9l-0.6-0.4C10.7,24.3,15.4,24.3,19,25.3L19,25.3z"/>
		<path class="st1" d="M45.8,24.3c-4.2,0.1-8.5,0.2-12.3,1V25c4.1-0.7,8.1-1.2,12.9-1L45.8,24.3L45.8,24.3z"/>
		<path class="st1" d="M18.9,26.4v0.4c-2.6-0.2-5.5-0.3-8.5-0.2l-0.5-0.3C12.8,26,15.3,26.1,18.9,26.4L18.9,26.4z"/>
		<path class="st1" d="M42.9,26.1c0.1,0.1-0.5,0.3-0.6,0.3c-3.2-0.2-5.4-0.2-8.6,0.1v-0.2C36.5,25.6,40,26,42.9,26.1L42.9,26.1z"/>
		<path class="st1" d="M39.2,27.8c-1.9,0-4.1-0.2-5.5,0.1v-0.4c2.8-0.4,4-0.1,6.3,0C39.8,27.7,39.6,27.8,39.2,27.8L39.2,27.8z"/>
		<path class="st1" d="M13.9,28.2c-0.5-0.1-0.5-0.3-0.9-0.4c1.5-0.2,4.1-0.4,5.7-0.2V28c-1.9-0.1-3,0-4.3,0L13.9,28.2L13.9,28.2z"/>
		<path class="st1" d="M38.1,20.5c-1.7,0.7-4.7,1.6-6.8,1.8c0.9-1.7,3.3-3.9,4.9-4.9c1.9-1.2,5.4-2.2,7.9-2.3
			C42.8,17.1,40.1,19.6,38.1,20.5L38.1,20.5z"/>
		<path class="st1" d="M14.4,20.5c1.8,0.8,4.9,1.6,6.8,1.8c-0.8-1.6-3.2-3.8-4.8-4.8c-1.9-1.4-5.4-2.2-8-2.4
			C9.6,17.1,12.4,19.7,14.4,20.5L14.4,20.5z"/>
		<path class="st1" d="M25.4,22.5c0.5-0.7,1.3-0.6,1.7,0l1.6,2.7c0.4,0.7-0.1,1.4-0.8,1.4h-1.3l0.1,0.3c-0.1,1,1.1,1.7,2,0.7
			c0.3-0.3,0.5-0.1,0.4,0.2c-0.7,1.1-2.1,0.8-2.8,0c-0.8,1.2-2.3,0.7-2.7,0.1c-0.1-0.5,0.2-0.6,0.4-0.4c0.8,1,2.2,0.4,2.1-0.7v-0.4
			l-1.2,0.1c-0.7,0-1.3-0.7-0.9-1.5L25.4,22.5L25.4,22.5z"/>
		<path class="st0" d="M25.8,22.7c0.2-0.4,0.6-0.3,0.9,0l1.5,2.6c0.2,0.4-0.2,0.7-0.5,0.7l-3.1,0.1c-0.4,0-0.6-0.6-0.5-0.7
			L25.8,22.7L25.8,22.7z"/>
		<path class="st0" d="M37.2,20.8c-1-0.1-1.9-0.9-1.9-1.9c0-1.1,0.8-2,1.9-1.9c1-0.1,1.9,0.7,1.9,1.9C39.1,19.9,38.3,20.7,37.2,20.8
			L37.2,20.8z"/>
		<path class="st0" d="M15.3,20.7c1,0.1,1.9-0.7,1.8-1.8c0.1-1-0.7-1.9-1.8-1.8c-1-0.1-1.9,0.7-1.8,1.8C13.4,20,14.3,20.8,15.3,20.7
			L15.3,20.7z"/>
	</g>
	<g>
		<path class="st2" d="M195.7,26.7c3.9,0,7.3-3.4,7.3-7.3s-3.3-7.3-7.3-7.3s-7.3,3.4-7.3,7.3S191.8,26.7,195.7,26.7L195.7,26.7
			L195.7,26.7z M196,25.8c-3.9,0-6.7-2.8-6.4-6.4c-0.3-3.6,2.5-6.4,6.1-6.2c3.6-0.3,6.4,2.5,6.1,6.2C202.1,23,199.3,25.8,196,25.8
			L196,25.8L196,25.8z M196.8,19.9c1.4-0.3,2.5-0.8,2.5-2.5c0-0.6-0.3-1.4-0.6-1.7c-0.8-0.3-1.4-0.3-2.2-0.6l-3.6,0.3l0.3,8.1
			l0.8-0.3v-3.4l2-0.3l2.2,3.9h1.1L196.8,19.9L196.8,19.9z M194,18.8V16h2.2c1.1,0,2.2,0,2.2,1.7c0,1.7-2,1.4-3.1,1.4L194,18.8
			L194,18.8z"/>
		<path class="st2" d="M108.9,25.3h-4.5l0.3-15.4h-7.3l0.3-4.2L118.6,6c-1.4,0.3-2,0.8-2.5,2c0,0.6,0,1.1,0,2.2l-7-0.3L108.9,25.3
			L108.9,25.3z"/>
		<path class="st2" d="M99.9,25.3h-5l-2-4.2l-9.2-0.3l-1.7,4.5h-5l8.4-19.6L94.6,6c-1.1,0-2.5,1.4-1.7,2.8L99.9,25.3L99.9,25.3z
			 M88.5,9.9l-3.1,7l5.9-0.3L88.5,9.9L88.5,9.9z"/>
		<path class="st2" d="M154.6,13.5l5-7.8h6.1c-1.1,0.6-1.4,0.8-2.2,1.7l-6.4,10.4l-0.3,7.6h-4.5v-6.7L144.3,6l8.1-0.3
			c-1.1,0.6-1.7,1.7-1.4,2.5L154.6,13.5L154.6,13.5z"/>
		<path class="st2" d="M140.1,17.4l-12-0.3v3.9h14.5c-1.4,0.3-2,1.4-2,2.5v1.7h-16.7L123.7,6h19c-1.1,0-2.2,1.1-2.2,2.2v1.7h-12.3
			l0.3,3.6l13.7-0.3c-1.1,0.6-2,1.4-2,2.5V17.4L140.1,17.4z"/>
		<path class="st2" d="M184.5,17.1l-12,0.3v3.9l14.2-0.3c-1.1,0.6-2,1.4-2,2.5v1.7H168V5.7L186.7,6c-1.1,0-2,1.4-2,2.5v1.7h-12.3
			v3.4h14c-1.4,0.3-2.2,1.1-2,2.5V17.1L184.5,17.1z"/>
		<path class="st2" d="M66.4,25.3c-5.6,0-10-4.5-9.8-9.8c-0.3-5.3,4.2-9.8,9.5-9.5h10.6c-1.1,0-1.7,1.1-2,2.5l0.3,1.4h-8.4
			c-3.1,0.3-5.6,2.8-5.6,5.6c0,3.4,2.2,5.6,5.6,5.6h10c-0.8,0.3-2,1.4-2,2.5v1.7H66.4L66.4,25.3z"/>
	</g>
</g>
<g>
	<path d="M-113.8-370.1c0.3,0,0.7,0.1,1,0.1c10-0.1,19.9,0.1,29.9-0.3c12.7-0.6,25.4-2.3,37.6-5.9c4.5-1.3,8.8-3.1,13.1-4.7
		c0.8-0.3,1.7-0.5,2.5-0.5c4.3-0.1,8.6,0,13.2,0c-0.6,0.4-0.8,0.7-1.2,0.9c-8.8,5-17.6,10-26.4,15.1c-1.5,0.9-3.1,1.2-4.8,1.2
		c-2.5-0.1-5.1-0.1-7.6-0.1c-32.7,0-65.4,0-98.1,0c-2.5,0-5,0.1-7.5,0.1c-0.4,0-0.8,0-1.2,0c0-2.7-0.1-5.4,0-8
		c0.1-2.9,0.2-2.9,3-3.6c20-5,40-10,60-15c13.4-3.3,26.7-6.7,40.1-10c3.3-0.8,6.6-1.6,9.9-2.4c0.4-0.1,0.7-0.2,1-0.5
		c-0.2,0-0.5-0.1-0.7-0.1c-9.8,0.3-19.7,0.4-29.5,0.8c-13.5,0.5-26.6,3.2-39.3,7.7c-5.6,2-11.3,1.5-17,1.9c-0.9,0-1.7,0-3,0
		c0.5-0.4,0.8-0.7,1.2-0.9c7.9-4.8,15.9-9.6,23.9-14.3c0.5-0.3,1.1-0.4,1.6-0.4c2-0.1,3.9,0,5.9,0c36.7,0,73.5,0,110.2,0
		c0.5,0,1.1,0,1.8,0c-0.3,0.3-0.5,0.6-0.7,0.8c-4.5,4-8.9,8-13.4,12c-0.7,0.7-1.7,1.2-2.7,1.4c-11.3,2.7-22.6,5.4-33.9,8.1
		c-12.2,2.9-24.4,5.9-36.6,8.8c-10.4,2.5-20.9,5-31.3,7.5c-0.5,0.1-0.9,0.2-1.4,0.3C-113.8-370.2-113.8-370.1-113.8-370.1z"/>
	<path d="M207.8-402.6c-2.6-1.2-5-0.6-7.7-0.9c2-1.9,3.7-3.5,5.5-5.1c0.3-0.3,1-0.3,1.6-0.3c26.5,0,53.1,0,79.6,0.1
		c7.3,0,14.6,0.2,21.8,1.5c2.6,0.5,5.3,1.2,7.8,2.2c5,2,5.7,5.9,1.7,9.4c-1.9,1.7-4.2,3.2-6.5,4.3c-7.9,3.7-16.3,5.7-24.9,6.8
		c-12.4,1.6-24.8,2-37.3,2c-6.7,0-13.3,0-20,0c-1.1,0-1.9,0.3-2.7,1c-3,3-6.1,5.9-9.2,8.8c-0.5,0.5-0.9,1-1.5,1.7
		c0.8,0.4,1.4,0.9,2,0.9c2.7,0.3,5.5,0.5,8.2,0.8c0.3,0,0.6,0,1.3,0.1c-1,0.9-1.9,1.6-2.5,2.4c-2.1,2.5-4.7,3.2-8,3.1
		c-19.4-0.2-38.8-0.1-58.2-0.1c-0.2,0-0.4,0-0.9-0.1c0.4-0.5,0.7-0.8,1-1.1c1.2-1.2,2.5-2.4,3.8-3.5c0.5-0.4,1.1-0.7,1.7-0.9
		c1.9-0.5,3.7-0.8,5.6-1.2c3.7-0.7,6.7-2.5,9.4-5.1c8.9-8.4,17.9-16.8,26.8-25.1C206.6-401.3,207.1-401.9,207.8-402.6z M297.5-402.8
		c0-0.1,0-0.2-0.1-0.3c-0.2,0-0.4-0.1-0.6-0.1c-15.9,0.1-31.8,0.3-47.6,2.8c-1.5,0.2-2.8,0.6-3.9,1.7c-4,3.9-8,7.6-12,11.5
		c-0.1,0.1-0.2,0.3-0.3,0.6C254.7-392,276.1-397.4,297.5-402.8z"/>
	<path d="M32.8-364.3c1.9-1.8,3.6-3.5,5.3-5.1c0.4-0.3,1.1-0.4,1.6-0.5c2.4-0.5,4.8-1,7.2-1.5c2.2-0.6,4.2-1.6,5.9-3.2
		c9.7-9,19.3-18,28.9-27.1c0.3-0.3,0.7-0.5,1.3-1c-2.5-1.6-5.1-0.8-7.7-1.3c1.9-1.8,3.6-3.4,5.3-5c0.3-0.3,0.9-0.3,1.3-0.3
		c27.5,0,55.1,0,82.6,0.2c7.2,0,14.5,0.3,21.6,1.9c2.3,0.5,4.6,1.4,6.7,2.5c3.1,1.7,3.5,4.4,1.3,7.2c-1.5,2-3.5,3.4-5.7,4.6
		c-9.1,5.1-19.1,6.9-29.3,8.1c-12.1,1.5-24.3,1.6-36.6,1.6c-6.4,0-12.8,0-19.2,0c-0.4,0-1,0.2-1.3,0.5c-3.4,3.2-6.7,6.5-10,9.8
		c-0.4,0.4-0.7,0.8-1.2,1.5c0.8,0.4,1.4,0.9,2,0.9c2.6,0.3,5.1,0.5,7.7,0.7c0.4,0,0.8,0,1.2,0c0.1,0.1,0.1,0.2,0.2,0.3
		c-0.7,0.6-1.3,1.2-2,1.8c-3.8,3.4-3.8,3.3-8.9,3.3c-13.9-0.1-27.7-0.1-41.6,0c-5.2,0-10.3,0.1-15.5,0.1
		C33.8-364.3,33.4-364.3,32.8-364.3z M171.4-402.6c0-0.1,0-0.2,0-0.3c-0.3,0-0.6-0.1-0.9-0.1c-8.8,0.2-17.7,0.1-26.5,0.6
		c-7.3,0.4-14.6,1.4-21.8,2.2c-0.7,0.1-1.5,0.5-2.1,1c-4.2,3.9-8.3,7.8-12.5,11.7c-0.2,0.2-0.5,0.5-0.9,1
		C128.5-391.8,150-397.2,171.4-402.6z"/>
	<path d="M32-369.5c-1.9,1.8-3.6,3.4-5.4,4.9c-0.4,0.3-1.1,0.3-1.7,0.3c-17.3,0-34.6-0.1-51.9-0.1c-2.6,0-5.2,0.1-7.9,0.1
		c-0.5,0-1,0-1.9,0c2-1.9,3.5-3.8,5.5-5.1c1.1-0.8,2.9-0.5,4.4-0.8c1.7-0.3,3.4-0.4,5.1-0.8c3.3-0.6,6.1-2.1,8.5-4.4
		c8.8-8.3,17.6-16.6,26.4-24.9c0.2-0.1,0.3-0.3,0.4-0.4c0.4-0.5,0.7-1,1-1.5c-0.6-0.3-1.2-0.9-1.8-1c-1.8-0.3-3.5-0.4-5.3-0.6
		c-0.4,0-0.8-0.1-1.5-0.1c2-1.9,3.7-3.6,5.5-5.1c0.4-0.3,1.1-0.2,1.7-0.2c13.5,0,27.1,0,40.6,0c6.6,0,13.2,0,19.7,0.1
		c0.2,0,0.5,0,1.1,0c-0.8,0.8-1.4,1.4-2,2c-3.6,3.5-3.6,3.5-8.5,4c-5.2,0.4-9.5,2.3-13.3,6c-8.2,8-16.6,15.7-24.9,23.5
		c-0.6,0.5-1.1,1.1-1.7,1.7c-0.6,0.6-0.4,1.1,0.2,1.4c0.6,0.3,1.3,0.5,2,0.6C28.1-369.7,29.9-369.7,32-369.5z"/>
</g>
</svg>
