<?xml version="1.0" encoding="UTF-8"?>
<svg xmlns="http://www.w3.org/2000/svg" version="1.1" viewBox="0 0 1491.3 181.1">
  <defs>
    <style>
      .cls-1 {
        fill: #e1251b;
        fill-rule: evenodd;
      }
    </style>
  </defs>
  <!-- Generator: Adobe Illustrator 28.6.0, SVG Export Plug-In . SVG Version: 1.2.0 Build 709)  -->
  <g>
    <g id="Capa_1">
      <g>
        <path class="cls-1" d="M1461.7,132.5c5.7,0,10.8,2.3,14.5,6,3.7,3.7,6,8.8,6,14.5s-2.3,10.8-6,14.5c-3.7,3.7-8.8,6-14.5,6s-10.8-2.3-14.5-6c-3.7-3.7-6-8.8-6-14.5s2.3-10.8,6-14.5c3.7-3.7,8.8-6,14.5-6h0ZM1452.1,165.3v-24.6h10.9c2.2,0,3.8.2,5,.7,1.1.4,2.1,1.2,2.7,2.3.7,1.1,1,2.4,1,3.7s-.5,3.2-1.7,4.4c-1.1,1.2-2.9,1.9-5.2,2.3.9.4,1.5.8,2,1.2,1,.9,1.9,2,2.7,3.3l4.1,6.3h0c3-3.1,4.9-7.3,4.9-12s-1.9-8.9-4.9-11.9c-3-3-7.3-4.9-11.9-4.9s-8.8,1.9-11.9,4.9c-3.1,3.1-4.9,7.3-4.9,11.9s1.9,8.9,4.9,11.9c3.1,3.1,7.3,4.9,11.9,4.9s8.5-1.7,11.5-4.5h-3.5l-3.3-5.1c-.9-1.4-1.8-2.6-2.4-3.4-.6-.8-1.2-1.3-1.6-1.6-.5-.3-1-.5-1.5-.7-.4,0-1-.1-1.8-.1h-3.8v10.9h-3.3ZM1456.2,151.7h6.1c1.3,0,2.3-.1,3-.4.7-.3,1.3-.7,1.7-1.3.4-.6.6-1.2.6-1.9,0-1-.4-1.8-1.1-2.5-.7-.6-1.9-1-3.5-1h-6.8v7.1Z"/>
        <path class="cls-1" d="M152.5,144.2c-.7-3.5-1.8-9.5-2-14.6h-29c-1.6,0-2.9-1.3-2.9-2.9s1.3-2.9,2.9-2.9h29c0-1.5.2-2.9.3-4.4l-51.9-8.2c-1.6-.3-2.7-1.7-2.4-3.3.3-1.6,1.7-2.6,3.3-2.4l51.9,8.2c.3-1.5.6-2.9,1-4.3l-27.6-9c-1.5-.5-2.3-2.1-1.8-3.6.5-1.5,2.1-2.4,3.6-1.9l27.6,9c.5-1.4,1.1-2.7,1.7-4.1l-47.2-24.1c-1.4-.7-2-2.4-1.3-3.9.7-1.4,2.5-2,3.9-1.2l47.2,24.1c.7-1.3,1.5-2.5,2.3-3.8l-23.5-17c-1.3-.9-1.6-2.7-.6-4,.9-1.3,2.7-1.6,4-.6l23.4,17c.9-1.2,1.9-2.3,2.9-3.4l-37.4-37.2c-1.1-1.1-1.1-3,0-4.1,1.1-1.1,3-1.1,4.1,0l37.4,37.3c1.1-1,2.2-1.9,3.3-2.8l-17.1-23.5c-.9-1.3-.6-3.1.7-4,1.3-.9,3.1-.6,4,.6l17,23.5c1.2-.8,2.5-1.6,3.8-2.3l-24.1-47.2c-.7-1.4-.2-3.1,1.3-3.9,1.4-.7,3.1-.2,3.9,1.3l24.2,47.2c1.3-.6,2.7-1.2,4.1-1.7l-9-27.6c-.5-1.5.3-3.1,1.9-3.6,1.5-.5,3.1.3,3.6,1.9l9,27.5c1.4-.4,2.8-.7,4.3-1l-8.2-52.3c-.2-1.6.8-3,2.4-3.3,1.6-.2,3,.8,3.3,2.4l8.2,52.3c1.4-.1,2.9-.3,4.4-.3v-29c0-1.6,1.3-2.9,2.9-2.9,1.6,0,2.9,1.3,2.9,2.9v29c1.5,0,3,.2,4.4.4l8.3-52.3c.3-1.6,1.7-2.7,3.3-2.4,1.6.2,2.6,1.7,2.4,3.3l-8.3,52.3c1.4.3,2.9.6,4.3,1l9-27.5c.5-1.5,2.1-2.4,3.6-1.9,1.5.5,2.3,2.1,1.8,3.6l-8.9,27.6c1.4.5,2.8,1.1,4.1,1.7l24-47.2c.7-1.4,2.5-2,3.9-1.2,1.4.7,2,2.4,1.3,3.8l-24,47.2c1.3.7,2.5,1.5,3.7,2.3l17-23.5c.9-1.3,2.7-1.6,4-.6,1.3.9,1.6,2.7.6,4l-17,23.5c1.1.9,2.3,1.9,3.4,2.9l37.4-37.2c1.1-1.1,2.9-1.1,4.1,0,1.1,1.1,1.1,3,0,4.1l-37.4,37.2c1,1.1,1.9,2.2,2.9,3.3l23.5-17c1.3-.9,3.1-.6,4,.6.9,1.3.7,3.1-.6,4l-23.5,17c.8,1.2,1.6,2.5,2.3,3.8l47-23.8c1.4-.7,3.2-.2,3.9,1.2.7,1.4.2,3.1-1.3,3.9l-47,23.8c.6,1.3,1.2,2.7,1.7,4.1l27.6-8.9c1.5-.5,3.1.3,3.6,1.8.5,1.5-.3,3.1-1.8,3.6l-27.6,9c.4,1.4.7,2.8,1,4.3l52.1-8.3c1.6-.2,3.1.8,3.3,2.4.3,1.6-.8,3-2.4,3.3l-52.1,8.3c.1,1.5.3,2.9.3,4.4h29c1.6,0,2.9,1.3,2.9,2.9s-1.3,2.9-2.9,2.9h-29c-.3,4.8-.9,8.8-2.5,13.6l-4.6-4.4c.7-3.7,1.4-7.3,1.3-12,0-16.3-6.6-31.1-17.3-41.7-10.7-10.7-25.4-17.3-41.8-17.3s-31,6.6-41.7,17.3c-10.7,10.7-17.3,25.4-17.3,41.7s.6,10,1.4,12.6l-5.1,4.9Z"/>
        <path class="cls-1" d="M185.4,171.3c-1,1.1-2.7,1.2-3.8.3-1.1-1-1.2-2.6-.3-3.7,6.5-7.4,11-13.5,19.2-19.3,5-3.5,10.1-6.9,13.8-6.9s10.6,3.4,15.9,6.8c8.7,5.8,12.6,11.5,19.2,19.4.9,1.1.8,2.8-.4,3.7-1.1.9-2.8.8-3.8-.3-6.3-7.5-9.9-12.9-18.1-18.4-4.4-2.9-10.6-5.9-12.9-5.9s-6.6,3-10.7,5.9c-7.8,5.5-12,11.3-18.3,18.4Z"/>
        <path class="cls-1" d="M350.9,168.2c1,1.1.7,2.7-.5,3.5-1.2.8-3,.6-4-.6-1.8-2.2-4.1-4.8-6.7-7.2-2.4-2.3-5.1-4.5-8-6.3-1.1.3-2.1.4-3.2.4-2.7,0-5.4-.7-7.8-2h0c-2.3-1.3-4.3-3.1-5.6-5.2-1.8-2.8-2.6-6.2-1.8-9.5,1.2-4.6,3.9-7.6,7.5-9.4,4-2,9-2.3,14-1.4,5.5,1,11.4,3.3,16.9,6.3,4,2.2,7.8,4.7,11.1,7.2,5.3-4.9,11.4-5.9,17.5-4.7,6.3,1.2,12.5,4.8,17.8,8.8,6.2,4.6,12,10,17.3,15.1,1.9,1.8,3.7,3.5,5.3,4.9,1.1,1,1.1,2.6,0,3.5-1.1,1-2.9.9-4-.1-1.9-1.7-3.6-3.4-5.4-5-5.3-5-10.9-10.3-16.8-14.7-4.7-3.5-10.1-6.7-15.3-7.7-4.3-.8-8.5,0-12.3,3.3.4.4.7.7,1.1,1,.9.9,1.8,1.8,2.7,2.7,5.9-3.8,12.8-.6,19.2,4.4,3.7,2.9,7.2,6.4,10.1,9.2,1.3,1.3,2.4,2.5,3.4,3.3,1.1,1,1.1,2.6,0,3.5-1.1,1-2.9.9-4-.1-1.1-.9-2.2-2.1-3.6-3.5-2.7-2.7-6.1-6.1-9.6-8.8-4.2-3.2-8.5-5.5-11.8-4.1,1.7,1.8,3.3,3.7,5,5.6,1.9,2.1,3.8,4.2,5.6,6.2,1,1.1.9,2.7-.3,3.5-1.2.9-3,.7-4-.4-2-2.1-3.8-4.2-5.7-6.3-3.6-4.1-7.3-8.2-11.1-11.8-3.8-3.6-9.3-7.6-15.2-10.8-4.9-2.6-10.1-4.7-15-5.6-3.7-.7-7.4-.5-10.3.9-2.3,1.1-4.1,3.1-4.9,6.2-.5,2,0,4.1,1.1,5.8.9,1.4,2.2,2.6,3.6,3.4h0c1,.6,2.1,1,3.3,1.1h0c-1.6-1.7-2.2-3.9-1.7-5.9.4-2,1.9-3.9,4.4-4.8,3.2-1.2,8.3-.9,14.9,3.1,4.5,2.7,8.6,5.7,12.5,9.5,3.9,3.7,7.7,8.2,11.8,13.7.9,1.2.5,2.7-.8,3.4-1.3.7-3,.4-3.9-.8-3.8-5.2-7.4-9.4-11.1-13-3.7-3.5-7.4-6.3-11.5-8.7-4.7-2.8-7.8-3.2-9.5-2.6-.7.3-1.2.8-1.3,1.4-.1.6,0,1.2.4,1.6.6.6,1.8,1,3.8.6h0c.9-.2,2,0,2.7.7,1.1,1,1.1,2.6,0,3.5-.2.2-.4.3-.6.5,2.4,1.7,4.7,3.6,6.7,5.6,2.8,2.7,5.2,5.4,7.1,7.7Z"/>
        <path class="cls-1" d="M281,144c20.8-7.5,39.1,9.9,48.3,20.1.9,1,1.7,1.9,2.4,2.7,1,1.1.9,2.7-.3,3.5-1.2.9-3,.7-4-.4-.8-.9-1.6-1.8-2.5-2.8-7.9-8.9-23.9-23.8-40.2-19,1.3,1.6,2.7,3.2,3.9,4.8,4.9-1.8,10.5,0,15.1,3.4,4.2,3,8.3,7.3,11.1,10.6.9,1.1.7,2.7-.6,3.5-1.2.8-3,.5-3.9-.6-2.5-3.1-6.3-6.9-10-9.6-2.7-1.9-6-3.2-8.3-2.9,1.4,1.9,2.8,3.7,4.2,5.6,1.5,2,3,4.1,4,5.3.9,1.2.6,2.7-.7,3.5-1.3.8-3,.4-3.9-.8-1.7-2.3-2.9-3.8-4-5.3-6.5-8.8-13.1-17.6-21-24.7-8.3-7.6-17.6-14.5-30-12.7-4.3.5-8.3,3.7-9.5,7.5h0c-.4,1.4-.5,3.7-.1,5.2.7,2.7,3.1,5,5.8,5.6,1.3.3,2.8.2,4.2.3-.9-.7-1.6-1.5-2.2-2.3-4-6.3-.6-10.2,4.4-10.8,6.5-.8,12.8,4,17.6,7.8,9.5,7.4,16.8,17,23.3,26.8.8,1.2.4,2.7-1,3.4-1.3.7-3.1.2-3.9-1-6.1-9.2-12.9-18.3-21.9-25.3-3.1-2.5-9-7.3-13.3-7.2-1.7,0-2.4,1.6-1,3.7.8,1.3,2.9,2.4,5.3,2.2h0c.8,0,1.6.2,2.3.8,2.1,1.8.8,3.3-.7,4.4,7.7,6,12.9,10.6,18.8,19,.8,1.2.4,2.7-1,3.4-1.3.7-3.1.2-3.9-1-6-8.3-11.6-13.8-20-19.4-2.7.3-6.6.6-9.3-.2-3.9-1.1-7.6-4.5-8.9-8.3-.9-2.7-.9-6.1-.1-8.7h0c1.8-5.7,7.6-10.3,14.1-11,14.2-2,24.3,4.7,33.6,13.1,2.7,2.4,5.2,5,7.6,7.5Z"/>
        <path class="cls-1" d="M80,168.2c-1,1.1-.7,2.7.5,3.5,1.2.8,3,.6,4-.6,1.8-2.2,4.1-4.8,6.7-7.2,2.4-2.3,5.1-4.5,8-6.3,1,.3,2.1.4,3.2.4,2.8,0,5.5-.7,7.8-2h0c2.3-1.3,4.3-3.1,5.6-5.2,1.8-2.8,2.6-6.2,1.8-9.5-1.2-4.6-4-7.6-7.5-9.4-4-2-9-2.3-14-1.4-5.6,1-11.4,3.3-16.8,6.3-4,2.2-7.8,4.7-11.1,7.2-5.3-4.9-11.4-5.9-17.5-4.7-6.3,1.2-12.6,4.8-17.8,8.8-6.2,4.6-12,10-17.4,15.1-1.9,1.8-3.7,3.5-5.3,4.9-1.1,1-1.1,2.6,0,3.5,1.1,1,2.9.9,4-.1,1.9-1.7,3.6-3.4,5.4-5,5.3-5,11-10.3,16.9-14.7,4.7-3.5,10.1-6.7,15.3-7.7,4.2-.8,8.5,0,12.3,3.3-.4.4-.7.7-1.1,1-.9.9-1.8,1.8-2.7,2.7-5.8-3.8-12.8-.6-19.2,4.4-3.7,2.9-7.2,6.4-10.1,9.2-1.3,1.3-2.4,2.5-3.4,3.3-1.1,1-1.1,2.6,0,3.5,1.1,1,2.9.9,4-.1,1-.9,2.2-2.1,3.6-3.5,2.7-2.7,6.1-6.1,9.6-8.8,4.2-3.2,8.5-5.5,11.8-4.1-1.7,1.8-3.3,3.7-5,5.6-1.9,2.1-3.8,4.2-5.6,6.2-1,1.1-.9,2.7.3,3.5,1.2.9,3,.7,4-.4,2-2.1,3.8-4.2,5.7-6.3,3.6-4.1,7.3-8.2,11.2-11.8,3.8-3.6,9.2-7.6,15.2-10.8,4.9-2.6,10.1-4.7,15-5.6,3.7-.7,7.4-.5,10.2.9,2.3,1.1,4.1,3.1,4.9,6.2.5,2,0,4.1-1.1,5.8-.9,1.4-2.2,2.6-3.6,3.4h0c-1,.6-2.1,1-3.3,1.1h0c1.6-1.7,2.2-3.9,1.7-5.9-.4-2-1.9-3.9-4.4-4.8-3.2-1.2-8.2-.9-14.9,3.1-4.5,2.7-8.5,5.7-12.5,9.5-3.9,3.7-7.7,8.2-11.7,13.7-.9,1.2-.5,2.7.8,3.4,1.3.7,3,.4,3.9-.8,3.8-5.2,7.4-9.4,11.1-13,3.7-3.5,7.4-6.3,11.5-8.7,4.7-2.8,7.8-3.2,9.5-2.6.7.3,1.1.8,1.3,1.4.1.6,0,1.2-.4,1.6-.6.6-1.9,1-3.8.6h0c-.9-.2-2,0-2.7.7-1.1,1-1.1,2.6,0,3.5.2.2.4.3.6.5-2.5,1.7-4.7,3.6-6.7,5.6-2.8,2.7-5.2,5.4-7.1,7.7Z"/>
        <path class="cls-1" d="M149.9,144c-20.8-7.5-39.1,9.9-48.3,20.1-.9,1-1.7,1.9-2.4,2.7-1,1.1-.9,2.7.3,3.5,1.2.9,3,.7,4-.4.8-.9,1.6-1.8,2.5-2.8,7.9-8.9,24-23.8,40.2-19-1.3,1.6-2.7,3.2-4,4.8-4.9-1.8-10.5,0-15.1,3.4-4.3,3-8.4,7.3-11.1,10.6-.9,1.1-.7,2.7.6,3.5,1.2.8,3,.5,3.9-.6,2.5-3.1,6.3-6.9,10-9.6,2.6-1.9,5.9-3.2,8.3-2.9-1.4,1.9-2.8,3.7-4.2,5.6-1.5,2-3,4.1-4,5.3-.9,1.2-.6,2.7.7,3.5,1.3.8,3,.4,3.9-.8,1.7-2.3,2.8-3.8,4-5.3,6.5-8.8,13.1-17.6,21-24.7,8.3-7.6,17.5-14.5,30-12.7,4.3.5,8.3,3.7,9.5,7.5h0c.4,1.4.5,3.7.2,5.2-.7,2.7-3.2,5-5.8,5.6-1.3.3-2.8.2-4.2.3.9-.7,1.6-1.5,2.1-2.3,4-6.3.7-10.2-4.4-10.8-6.5-.8-12.8,4-17.6,7.8-9.5,7.4-16.8,17-23.3,26.8-.8,1.2-.4,2.7,1,3.4,1.3.7,3.1.2,3.9-1,6.1-9.2,12.9-18.3,21.9-25.3,3.1-2.5,9-7.3,13.3-7.2,1.6,0,2.4,1.6,1,3.7-.8,1.3-2.9,2.4-5.3,2.2h0c-.8,0-1.6.2-2.2.8-2.1,1.8-.8,3.3.7,4.4-7.7,6-13,10.6-18.8,19-.8,1.2-.4,2.7.9,3.4,1.3.7,3,.2,3.9-1,6-8.3,11.6-13.8,20-19.4,2.7.3,6.6.6,9.2-.2,3.9-1.1,7.6-4.5,8.9-8.3.9-2.7.9-6.1,0-8.7h0c-1.8-5.7-7.6-10.3-14.1-11-14.2-2-24.3,4.7-33.6,13.1-2.6,2.4-5.2,5-7.6,7.5Z"/>
        <path class="cls-1" d="M203.3,171c-.8,1.2-2.4,1.6-3.6.8-1.2-.8-1.6-2.4-.8-3.6,1.9-2.9,4.3-5.7,7.1-8,2.6-2.1,5.5-4.2,8.6-5.1.5-.2,1.1-.1,1.6,0h0c3.3,1.2,6.2,3.3,8.7,5.3,2.8,2.3,5.1,4.9,6.9,7.8.8,1.2.4,2.8-.8,3.6-1.2.8-2.8.4-3.6-.8-1.6-2.4-3.5-4.7-5.8-6.5-1.9-1.5-4-3.2-6.3-4.2-2.1.7-4.1,2.4-6,3.9-2.4,1.9-4.4,4.3-6.1,6.8Z"/>
        <polygon class="cls-1" points="537 172.2 570.8 172.2 590.5 119.6 638.2 119.6 618.5 172.2 656.4 172.2 703.8 44.6 666.1 44.6 647.8 93.4 600.1 93.4 618.3 44.6 584.2 44.6 537 172.2 537 172.2"/>
        <path class="cls-1" d="M802.3,62.4c-.5-10.7-7.4-17.7-20.6-17.8-13.4,0-24.2,6.8-32.4,17.5l-82.4,110h34.2l22.2-30.2h47.8l1.6,30.2h35.3l-5.7-109.8ZM742,117.5l25.9-39.2,1.8,39.2h-27.7Z"/>
        <path class="cls-1" d="M1159.7,62.4c-.5-10.7-7.4-17.7-20.6-17.8-13.4,0-24.2,6.8-32.4,17.5l-82.4,110h34.2l22.2-30.3,47.8.2,1.6,30.1h35.3l-5.7-109.8ZM1099.5,117.5l25.9-39.2,1.9,39.2h-27.7Z"/>
        <path class="cls-1" d="M932.5,44.6h-39.9c-19.5-.1-34.1,9.8-42.4,22.8-1.4,2.2-2.3,4.3-3,6.3l-25.5,69c-.6,1.8-1.1,3.8-1.3,6-.8,7.1.8,12.2,5,15.3,4.1,3,11.6,8.1,22.3,8.2h39.7c23.5.1,38.5-11.9,44.8-29.3l25.5-68.6c6.2-17.2-1.8-29.5-25.2-29.6ZM921.1,80.2l-19.8,52.9c-1.8,4.9-6.2,7.3-13.7,7.3h-20.8c-7.5,0-10.2-2.9-8.2-8.5l19.3-51.9c2-5.6,6-8.3,13.6-8.3h20.9c7.4,0,10.6,2.9,8.6,8.5Z"/>
        <polygon class="cls-1" points="967 44.6 1003.2 44.6 1014.4 93.6 1067.4 44.6 1106 44.6 1022.8 122.3 1004.3 172.2 970.4 172.2 988.3 122.3 967 44.6 967 44.6"/>
        <path class="cls-1" d="M1310.1,136.6c-2.7,7.6-4.5,12.7-4.9,15.4-.4,4,.5,7.6,3.2,10.8,4.6,5.4,13.9,9.4,27.9,9.4h38.8c15.3,0,27.5-5.8,36.8-15.3,3.2-3.1,4.4-5.9,8.6-16.4l14.2-38.6h-33.5l-12.1,33.3c-1.9,3.6-6,5.3-12.5,5.2h-26.9c-3.7-.5-5.5-2.2-5.4-5.1l19.8-54.1c1.6-2.9,6.4-8.9,10-9.4h71.9l9.9-27.2h-74.4c-14.4,0-25.2,2.2-32.5,6.5-7.2,4.3-13.8,17.7-17.8,28.9l-21.1,56.6Z"/>
        <path class="cls-1" d="M1329.7,44.7l-36.7,98.8c-2.6,7.4-5.6,16.7-12.6,21.4-7,4.7-14.1,7.4-22.1,7.3-3.6,0-8.6.1-12.1-.8-8.3-2.7-11-13.2-10.7-22.8l1.2-69.7-34.6,93.3h-31.1l39.2-105.2c2.2-6.2,6.7-12.8,13.4-17,6.8-4.2,12.8-5.1,20.7-5.3,15.3-.4,22.8,6.5,22.6,20.6l-5.6,75.5,36-96h32.3Z"/>
        <path class="cls-1" d="M456,73.3c3.8-10.5,9-17.7,15.7-21.6,6.7-3.9,17.1-7.1,31.1-7.1h67.3l-10,27.1h-58.8c-4.5.4-7.8,2.3-9.8,5.4l-19,52.9c-1.6,4.5-1.7,7.5-.2,9,.8.9,3,1.4,6.5,1.4h55.8l-11.7,31.7h-71.4c-5.5-.4-8.8-1.7-11.4-2.8-10.5-4.4-13.9-17.3-9.4-29.8l25.3-66.3Z"/>
      </g>
    </g>
  </g>
</svg>