<?xml version="1.0" encoding="UTF-8"?>
<svg version="1.1" xmlns="http://www.w3.org/2000/svg" width="1000" height="500">
<path d="M0 0 C330 0 660 0 1000 0 C1000 165 1000 330 1000 500 C670 500 340 500 0 500 C0 335 0 170 0 0 Z " fill="#FEFEFE" transform="translate(0,0)"/>
<path d="M0 0 C71.94 0 143.88 0 218 0 C217.34474283 5.24205736 216.69582517 9.62883522 215.375 14.625 C213.91951015 20.23180004 212.55457807 25.85621235 211.25 31.5 C211.09632965 32.16421967 210.9426593 32.82843933 210.78433228 33.51278687 C210.1587108 36.22064063 209.53419964 38.92873116 208.91473389 41.63800049 C208.47425114 43.56391634 208.03014413 45.48900214 207.5859375 47.4140625 C207.19994385 49.09943115 207.19994385 49.09943115 206.80615234 50.81884766 C206.02003742 53.92093046 205.01197304 56.96408087 204 60 C237.165 59.505 237.165 59.505 271 59 C275.15561824 41.68875212 275.15561824 41.68875212 279.30078125 24.375 C280.32226563 20.12109375 280.32226563 20.12109375 280.81567383 18.06982422 C281.15713113 16.64728121 281.49722565 15.22441061 281.83618164 13.80126953 C282.34189516 11.67920062 282.85208917 9.55825481 283.36328125 7.4375 C283.65501221 6.21933594 283.94674316 5.00117188 284.24731445 3.74609375 C285 1 285 1 286 0 C287.62674778 -0.09340434 289.25754051 -0.11745171 290.88696289 -0.11352539 C291.92796646 -0.11344986 292.96897003 -0.11337433 294.04151917 -0.11329651 C295.1737944 -0.10813522 296.30606964 -0.10297394 297.47265625 -0.09765625 C298.62543564 -0.0962413 299.77821503 -0.09482635 300.96592712 -0.09336853 C304.66481064 -0.08775005 308.36363464 -0.07519442 312.0625 -0.0625 C314.56315017 -0.05748738 317.06380129 -0.05292406 319.56445312 -0.04882812 C325.70965588 -0.03777462 331.85482369 -0.02101852 338 0 C337.74387939 1.01215576 337.48775879 2.02431152 337.22387695 3.06713867 C335.10778187 11.46073222 333.08947514 19.86743139 331.1875 28.3125 C328.83459455 38.64855898 326.24077132 48.90541996 323.5402832 59.15551758 C321.44911688 67.13907432 319.56000803 75.15009406 317.77539062 83.20703125 C316.46187477 89.09400991 315.00559177 94.92591496 313.4375 100.75 C311.8347988 106.70332998 310.36419022 112.66110636 309.0625 118.6875 C306.64940904 129.8593101 303.80338365 140.92102783 301 152 C299.515 157.94 299.515 157.94 298 164 C280.84 164 263.68 164 246 164 C248.25396825 152.73015873 248.25396825 152.73015873 249.3671875 147.8984375 C249.73312012 146.30878174 249.73312012 146.30878174 250.10644531 144.68701172 C250.36006836 143.59404785 250.61369141 142.50108398 250.875 141.375 C251.13893555 140.23434082 251.40287109 139.09368164 251.67480469 137.91845703 C253.68864085 129.25356515 255.80016003 120.61937299 258 112 C258.66 109.36 259.32 106.72 260 104 C237.89 104 215.78 104 193 104 C192.34 107.96 191.68 111.92 191 116 C190.10009283 119.90720444 189.17085997 123.78868651 188.1796875 127.671875 C187.82886108 129.06913818 187.82886108 129.06913818 187.47094727 130.49462891 C186.61084308 133.91440092 185.74246149 137.33208684 184.875 140.75 C182.93625 148.4225 180.9975 156.095 179 164 C161.84 164 144.68 164 127 164 C128.25231903 157.73840486 129.50798466 151.48630139 130.875 145.25 C131.02324219 144.55390625 131.17148438 143.8578125 131.32421875 143.140625 C132.3304579 138.5593736 133.54480669 134.07467373 134.8671875 129.57421875 C137.11864161 121.79694265 138.91791846 113.94150516 140.69186401 106.04373169 C144.52930646 88.98411889 148.70048803 72.03663464 153.18139648 55.13500977 C154.14871055 51.43048251 155.07139514 47.71441943 156 44 C118.05 44 80.1 44 41 44 C40.67 46.64 40.34 49.28 40 52 C39.60968423 53.97552753 39.18813993 55.94523177 38.73046875 57.90625 C38.36018555 59.50376099 38.36018555 59.50376099 37.98242188 61.13354492 C37.72009766 62.2444751 37.45777344 63.35540527 37.1875 64.5 C36.91615234 65.66055908 36.64480469 66.82111816 36.36523438 68.0168457 C34.32692968 76.69961218 32.23169414 85.36472547 30 94 C29.75717285 94.94133789 29.5143457 95.88267578 29.26416016 96.85253906 C28.4493024 100.0064773 27.63165554 103.15967538 26.8125 106.3125 C26.55017578 107.32272217 26.28785156 108.33294434 26.01757812 109.3737793 C25.77072266 110.31906494 25.52386719 111.26435059 25.26953125 112.23828125 C25.04885986 113.08430908 24.82818848 113.93033691 24.60083008 114.80200195 C24.12278635 116.55081451 23.57331241 118.28006277 23 120 C47.09 120 71.18 120 96 120 C103.88657648 135.77315297 103.88657648 135.77315297 106.30859375 141.421875 C106.82744141 142.63101563 107.34628906 143.84015625 107.88085938 145.0859375 C108.39455078 146.29507813 108.90824219 147.50421875 109.4375 148.75 C109.98342667 150.01835717 110.5296498 151.28658677 111.07617188 152.5546875 C115 161.74170354 115 161.74170354 115 164 C64.18 164 13.36 164 -39 164 C-38.3696026 159.58721818 -37.72335974 155.46276515 -36.73046875 151.15625 C-36.48345215 150.08238037 -36.23643555 149.00851074 -35.98193359 147.90209961 C-35.71977051 146.77940674 -35.45760742 145.65671387 -35.1875 144.5 C-34.91760254 143.33670166 -34.64770508 142.17340332 -34.36962891 140.97485352 C-32.68066128 133.75116816 -30.87201243 126.58105356 -28.9140625 119.42578125 C-27.77180562 115.14475866 -26.76464689 110.83775037 -25.76098633 106.52246094 C-24.06279013 99.23576908 -22.32093177 91.9598769 -20.5625 84.6875 C-20.40049103 84.01707672 -20.23848206 83.34665344 -20.07156372 82.65591431 C-17.65937161 72.68858194 -15.19017348 62.73601224 -12.6953125 52.7890625 C-12.40702072 51.6391835 -12.11872894 50.4893045 -11.82170105 49.30458069 C-10.37854518 43.55128149 -8.93195578 37.79887194 -7.48071289 32.04760742 C-6.9389107 29.89242897 -6.39716047 27.73723746 -5.85546875 25.58203125 C-5.61196686 24.62152863 -5.36846497 23.661026 -5.11758423 22.67141724 C-3.22764003 15.1385063 -1.63041785 7.60861662 0 0 Z " fill="#56575A" transform="translate(65,168)"/>
<path d="M0 0 C160.71 0 321.42 0 487 0 C484.74817898 11.2591051 484.74817898 11.2591051 483.5625 16.3828125 C483.30726563 17.48753906 483.05203125 18.59226563 482.7890625 19.73046875 C482.39847656 21.41076172 482.39847656 21.41076172 482 23.125 C481.60941406 24.81689453 481.60941406 24.81689453 481.2109375 26.54296875 C479.85968856 32.37790735 478.45294655 38.1882138 477 44 C333.12 44 189.24 44 41 44 C40.01 49.61 39.02 55.22 38 61 C37.29778156 63.97480895 36.58306181 66.88091582 35.75 69.8125 C35.31843176 71.39271673 34.88888247 72.9734857 34.4609375 74.5546875 C34.22987305 75.40643555 33.99880859 76.25818359 33.76074219 77.13574219 C32.23340861 82.88628054 30.81114861 88.66365066 29.375 94.4375 C29.08592773 95.59805908 28.79685547 96.75861816 28.49902344 97.9543457 C27.96676339 100.09239947 27.43495208 102.23056506 26.90380859 104.36889648 C25.60665403 109.58029029 24.30251421 114.78994317 23 120 C42.47 120 61.94 120 82 120 C82.66 116.04 83.32 112.08 84 108 C84.99 106.02 84.99 106.02 86 104 C80.06 104 74.12 104 68 104 C65.291768 97.89548435 62.58592226 91.78991899 59.88232422 85.68334961 C58.96143764 83.60427982 58.03988902 81.52550314 57.11767578 79.44702148 C55.79547502 76.46674404 54.47562575 73.4854352 53.15625 70.50390625 C52.74064819 69.56849503 52.32504639 68.6330838 51.89685059 67.66932678 C51.5164563 66.80850998 51.13606201 65.94769318 50.74414062 65.06079102 C50.40660767 64.29912125 50.06907471 63.53745148 49.72131348 62.75270081 C49 61 49 61 49 60 C81.67 60 114.34 60 148 60 C146.68 65.94 145.36 71.88 144 78 C143.21467932 81.58264749 143.21467932 81.58264749 142.43041992 85.16552734 C140.64051647 93.31400442 138.68971068 101.41371628 136.63330078 109.49902344 C135.28357248 114.82925346 133.95702784 120.16532515 132.625 125.5 C132.07559859 127.6979361 131.52611713 129.8958522 130.9765625 132.09375 C130.32429687 134.7028125 129.67203125 137.311875 129 140 C127.02 147.92 125.04 155.84 123 164 C69.54 164 16.08 164 -39 164 C-38.30722473 157.76502256 -37.45328668 152.14102256 -35.890625 146.14453125 C-35.5800415 144.92094406 -35.5800415 144.92094406 -35.26318359 143.67263794 C-34.82351918 141.94224031 -34.38128858 140.21249292 -33.93664551 138.48336792 C-32.77864332 133.9790482 -31.6395582 129.46995256 -30.5 124.9609375 C-30.27757629 124.08241623 -30.05515259 123.20389496 -29.82598877 122.29875183 C-28.20294739 115.86589065 -26.67615563 109.41705993 -25.25 102.9375 C-23.46845302 94.86420968 -21.42739706 86.88052316 -19.30200195 78.89135742 C-17.07256005 70.44230767 -15.11497695 61.94094557 -13.18212891 53.41992188 C-11.54419127 46.24092179 -9.75552357 39.12195149 -7.83276367 32.01464844 C-5.89029901 24.76131058 -4.23621589 17.44833487 -2.61108398 10.11816406 C-2.41458252 9.23354492 -2.21808105 8.34892578 -2.015625 7.4375 C-1.84321289 6.65246094 -1.67080078 5.86742187 -1.49316406 5.05859375 C-1 3 -1 3 0 0 Z " fill="#55565A" transform="translate(487,168)"/>
<path d="M0 0 C47.85 0 95.7 0 145 0 C143.31528116 15.16246957 139.09541817 29.25649457 135 44 C103.98 44 72.96 44 41 44 C39.68 49.28 38.36 54.56 37 60 C68.02 60 99.04 60 131 60 C129.23132136 68.84339321 127.52322358 76.95007143 124.98046875 85.484375 C123.6124821 90.3895064 122.60566053 95.33687075 121.61328125 100.33203125 C121 103 121 103 120 104 C118.12705216 104.09652596 116.25041756 104.12187266 114.37498474 104.12025452 C112.54284424 104.12231651 112.54284424 104.12231651 110.6736908 104.12442017 C109.30776953 104.12088056 107.94184852 104.11724574 106.57592773 104.11352539 C105.14722699 104.11324352 103.7185261 104.11340124 102.28982544 104.1139679 C98.39950028 104.11425589 94.50920569 104.10835887 90.61888766 104.10139394 C86.55761795 104.0951607 82.49634761 104.09455663 78.43507385 104.09336853 C70.73921067 104.09025512 63.04336162 104.08204161 55.34750468 104.07201904 C46.58827886 104.06085819 37.82905239 104.05534753 29.06982124 104.05032361 C11.04653947 104.03985901 -6.97672913 104.02225939 -25 104 C-24.69077779 102.10315582 -24.37959168 100.20663174 -24.06759644 98.3102417 C-23.89451902 97.25408031 -23.72144161 96.19791893 -23.54311943 95.10975266 C-22.784008 90.76328916 -21.79867287 86.48933546 -20.7578125 82.203125 C-20.54816864 81.32581726 -20.33852478 80.44850952 -20.12252808 79.5446167 C-19.46051936 76.77880812 -18.79279226 74.01441711 -18.125 71.25 C-17.6858386 69.41675271 -17.24703442 67.5834198 -16.80859375 65.75 C-14.57939804 56.44649706 -12.3061096 47.15507977 -9.97363281 37.87695312 C-9.1179387 34.4696255 -8.26944588 31.06066347 -7.42510986 27.6505127 C-6.73005804 24.84360033 -6.03267644 22.03726901 -5.33520508 19.23095703 C-4.98056307 17.80211911 -4.62674921 16.37307544 -4.27368164 14.94384766 C-3.75364967 12.83962014 -3.23064337 10.73615157 -2.70703125 8.6328125 C-2.4025708 7.40449707 -2.09811035 6.17618164 -1.78442383 4.91064453 C-1 2 -1 2 0 0 Z " fill="#56575A" transform="translate(814,228)"/>
<path d="M0 0 C48.18 0 96.36 0 146 0 C143.7501688 13.49898717 143.7501688 13.49898717 142.5625 18.140625 C142.30726563 19.14867187 142.05203125 20.15671875 141.7890625 21.1953125 C141.52867187 22.20335937 141.26828125 23.21140625 141 24.25 C140.73960937 25.27351563 140.47921875 26.29703125 140.2109375 27.3515625 C139.72490755 29.26131655 139.23691742 31.17057392 138.74609375 33.07910156 C137.81712214 36.71595245 136.91038688 40.35845248 136 44 C104.65 44 73.3 44 41 44 C40.67 46.64 40.34 49.28 40 52 C39.34 54.64 38.68 57.28 38 60 C59.12 60 80.24 60 102 60 C108.76274714 73.52549428 108.76274714 73.52549428 111.4296875 79.6640625 C111.7097464 80.30822113 111.9898053 80.95237976 112.27835083 81.61605835 C112.85616826 82.94758594 113.43234375 84.27982731 114.00683594 85.61279297 C114.88990872 87.65955502 115.78061159 89.70288694 116.671875 91.74609375 C117.23743079 93.05188782 117.80255207 94.35787019 118.3671875 95.6640625 C118.87362793 96.83404785 119.38006836 98.0040332 119.90185547 99.20947266 C121 102 121 102 121 104 C73.15 104 25.3 104 -24 104 C-22.87524074 92.75240741 -22.87524074 92.75240741 -21.80297852 88.62158203 C-21.56675278 87.69538055 -21.33052704 86.76917908 -21.08714294 85.81491089 C-20.83279984 84.84731842 -20.57845673 83.87972595 -20.31640625 82.8828125 C-19.77092395 80.75555235 -19.22551591 78.62827316 -18.68017578 76.50097656 C-18.40087219 75.42223267 -18.1215686 74.34348877 -17.83380127 73.23205566 C-16.51950095 68.13744626 -15.24314966 63.03342405 -13.96484375 57.9296875 C-13.46040902 55.92054214 -12.9558515 53.91142761 -12.45117188 51.90234375 C-12.07690063 50.41130127 -12.07690063 50.41130127 -11.69506836 48.89013672 C-11.18907018 46.87625417 -10.682231 44.86258274 -10.17456055 42.84912109 C-9.41480078 39.83489646 -8.65832018 36.81986296 -7.90234375 33.8046875 C-7.57555885 32.51303177 -7.57555885 32.51303177 -7.24217224 31.19528198 C-4.65114908 20.83296439 -2.36907669 10.42393742 0 0 Z " fill="#56575A" transform="translate(651,228)"/>
<path d="M0 0 C16.83 0 33.66 0 51 0 C50.33637286 6.63627144 49.61352018 12.18793191 47.8125 18.4375 C45.60502735 26.42656491 43.75292134 34.46228885 42 42.5625 C40.37313313 50.04010797 38.69875021 57.46306354 36.5625 64.8125 C34.42477979 72.19448804 32.65182706 79.63397144 30.9375 87.125 C27.71818846 101.16962785 24.25663073 115.14952977 20.75 129.125 C20.48774628 130.1702887 20.22549255 131.21557739 19.95529175 132.2925415 C18.74904199 137.09799581 17.54105545 141.90300842 16.33105469 146.70751953 C14.88172898 152.47026396 13.44119575 158.23521699 12 164 C-4.83 164 -21.66 164 -39 164 C-38.33105217 157.31052167 -37.55673607 151.38027946 -35.890625 144.9765625 C-35.68193787 144.15030365 -35.47325073 143.3240448 -35.25823975 142.4727478 C-34.59552886 139.85507369 -33.9230606 137.2400298 -33.25 134.625 C-32.81443645 132.91293015 -32.3795366 131.20069131 -31.9453125 129.48828125 C-31.07385901 126.05496106 -30.19945607 122.62241324 -29.32275391 119.19042969 C-26.12471613 106.65681944 -22.96864327 94.11945693 -20.125 81.5 C-17.27668657 69.02985477 -14.19580324 56.625132 -11.06396484 44.22363281 C-9.38687986 37.57420829 -7.72772568 30.92028399 -6.06567383 24.26708984 C-4.04482802 16.17779865 -2.02223595 8.08894379 0 0 Z " fill="#E8BA34" transform="translate(419,168)"/>
<path d="M0 0 C0.33 0 0.66 0 1 0 C1.02749766 1.37488287 1.0466164 2.74993391 1.0625 4.125 C1.07410156 4.89070313 1.08570313 5.65640625 1.09765625 6.4453125 C0.98625311 9.35961862 0.49919958 12.12917058 0 15 C1.58083374 14.99214478 1.58083374 14.99214478 3.19360352 14.98413086 C7.12783957 14.96594216 11.06207195 14.95451755 14.99633789 14.94506836 C16.69458645 14.94005973 18.39283074 14.93325094 20.09106445 14.92456055 C22.54118915 14.91234227 24.9912565 14.90673686 27.44140625 14.90234375 C28.19273331 14.89718246 28.94406036 14.89202118 29.71815491 14.88670349 C34.24941493 14.88622829 38.52883681 15.25523564 43 16 C43.33 15.34 43.66 14.68 44 14 C45.32 14 46.64 14 48 14 C48 15.32 48 16.64 48 18 C31.17 18 14.34 18 -3 18 C-2.34551441 11.45514413 -1.71502119 6.17407629 0 0 Z " fill="#E3BA45" transform="translate(383,314)"/>
<path d="M0 0 C0.33 0 0.66 0 1 0 C1 4.95 1 9.9 1 15 C0.34 15 -0.32 15 -1 15 C-0.95359375 15.89203125 -0.9071875 16.7840625 -0.859375 17.703125 C-0.82328125 18.87359375 -0.7871875 20.0440625 -0.75 21.25 C-0.70359375 22.41015625 -0.6571875 23.5703125 -0.609375 24.765625 C-1.07863065 28.65106182 -2.18218628 29.44635631 -5 32 C-5.33417929 35.6675213 -5.33417929 35.6675213 -5 39 C-6.485 39.495 -6.485 39.495 -8 40 C-8.185625 41.794375 -8.185625 41.794375 -8.375 43.625 C-8.69922881 46.26978069 -9.13379909 48.39303482 -10 50.9375 C-11.10733481 54.32871286 -11.36876604 57.40372706 -11.55859375 60.94921875 C-12.10077172 63.4681872 -13.14987216 64.27626126 -15 66 C-14.53522504 57.36409933 -12.47419129 49.20787573 -10.3125 40.875 C-9.95239614 39.4650297 -9.59302922 38.05487099 -9.234375 36.64453125 C-8.51050345 33.80093288 -7.78322566 30.95824118 -7.05322266 28.11621094 C-5.50641949 22.08475584 -4.00429556 16.042169 -2.5 10 C-2.01063509 8.04161207 -1.52107571 6.08327272 -1.03125 4.125 C-0.83080078 3.32320312 -0.63035156 2.52140625 -0.42382812 1.6953125 C-0.28396484 1.13585937 -0.14410156 0.57640625 0 0 Z " fill="#E3BE50" transform="translate(415,184)"/>
<path d="M0 0 C16.83 0 33.66 0 51 0 C50 10 50 10 48 13 C48 9.7 48 6.4 48 3 C47.01 3.33 46.02 3.66 45 4 C45 3.34 45 2.68 45 2 C39.3581721 2.11819525 33.71652232 2.24244003 28.07495117 2.37231445 C26.15539175 2.4156494 24.23579415 2.45732552 22.31616211 2.49731445 C19.55831386 2.55505178 16.80065759 2.61873635 14.04296875 2.68359375 C13.18350143 2.70030624 12.32403412 2.71701874 11.43852234 2.73423767 C10.63791885 2.75418289 9.83731537 2.77412811 9.01245117 2.79467773 C8.3085173 2.81022202 7.60458344 2.8257663 6.87931824 2.84178162 C4.77300917 2.94481604 4.77300917 2.94481604 2 4 C1.97421875 4.62648437 1.9484375 5.25296875 1.921875 5.8984375 C1.86515625 6.71570313 1.8084375 7.53296875 1.75 8.375 C1.70359375 9.18710938 1.6571875 9.99921875 1.609375 10.8359375 C1 13 1 13 -1.046875 14.2890625 C-2.01367188 14.64097656 -2.01367188 14.64097656 -3 15 C-2.35006899 9.80055191 -1.28739837 5.14959347 0 0 Z " fill="#E2C05B" transform="translate(419,168)"/>
<path d="M0 0 C0.90256007 2.96104498 1.0248462 5.10750772 0.51171875 8.15234375 C0.31739258 9.31733398 0.31739258 9.31733398 0.11914062 10.50585938 C-0.02330078 11.30830078 -0.16574219 12.11074219 -0.3125 12.9375 C-0.44333984 13.73607422 -0.57417969 14.53464844 -0.70898438 15.35742188 C-1.42063627 19.50700566 -2.41374053 23.09124249 -4 27 C-4.349013 29.79607003 -4.50020833 32.56625522 -4.65625 35.37890625 C-5 38 -5 38 -6.0703125 40.12109375 C-7.32420994 42.18715436 -7.32420994 42.18715436 -6.375 45.5 C-6 49 -6 49 -7.8125 51.4375 C-10 53 -10 53 -12 53 C-11.44289521 46.86579181 -10.42276642 41.22994323 -8.75 35.3125 C-6.46568402 26.96479284 -4.48461793 18.57137885 -2.61230469 10.12231445 C-2.41540039 9.23632568 -2.21849609 8.35033691 -2.015625 7.4375 C-1.84321289 6.65246094 -1.67080078 5.86742187 -1.49316406 5.05859375 C-1 3 -1 3 0 0 Z " fill="#FCF8E4" transform="translate(453,239)"/>
<path d="M0 0 C0.33 0 0.66 0 1 0 C-0.03079505 8.93355713 -1.10441462 18.12850299 -3.5 26.8125 C-4.26889726 30.17642549 -4.60023599 33.57345131 -5 37 C-5.66 37 -6.32 37 -7 37 C-6.938125 38.3921875 -6.938125 38.3921875 -6.875 39.8125 C-7 43 -7 43 -9 46 C-9.66 46 -10.32 46 -11 46 C-10.26444485 39.69017754 -8.75669236 33.64930272 -7.1875 27.5 C-6.92050293 26.44296875 -6.65350586 25.3859375 -6.37841797 24.296875 C-4.3205951 16.1794258 -2.2012145 8.07975204 0 0 Z " fill="#DEBD44" transform="translate(395,267)"/>
<path d="M0 0 C0.33 0 0.66 0 1 0 C1.02689216 1.47906892 1.04634621 2.95827483 1.0625 4.4375 C1.07410156 5.26121094 1.08570313 6.08492188 1.09765625 6.93359375 C1 9 1 9 0 10 C0 11.98 0 13.96 0 16 C15.84 16.33 31.68 16.66 48 17 C48 17.33 48 17.66 48 18 C31.17 18 14.34 18 -3 18 C-2.34551441 11.45514413 -1.71502119 6.17407629 0 0 Z " fill="#E3C673" transform="translate(383,314)"/>
<path d="M0 0 C1.04510745 3.22890719 0.92273637 5.35553263 0.14453125 8.640625 C-0.06405518 9.53958496 -0.2726416 10.43854492 -0.48754883 11.36474609 C-0.71853271 12.31687988 -0.9495166 13.26901367 -1.1875 14.25 C-1.41655029 15.22404785 -1.64560059 16.1980957 -1.8815918 17.20166016 C-3.84124629 25.4872288 -5.88502063 33.75276202 -8 42 C-8.33 42 -8.66 42 -9 42 C-8.55572307 36.39977237 -7.85174526 31.04346704 -6.54296875 25.58203125 C-5.39200698 20.10875263 -4.74091947 14.54113178 -4 9 C-3.34 9 -2.68 9 -2 9 C-2.04125 8.071875 -2.0825 7.14375 -2.125 6.1875 C-2 3 -2 3 0 0 Z " fill="#E1BE57" transform="translate(454,230)"/>
<path d="M0 0 C0.33 0 0.66 0 1 0 C0.36624893 7.56490197 -1.23234129 14.7036484 -3.0625 22.0625 C-3.48499023 23.79016602 -3.48499023 23.79016602 -3.91601562 25.55273438 C-4.60566181 28.3697637 -5.30042667 31.18542267 -6 34 C-6.33 34 -6.66 34 -7 34 C-7.05451714 31.95863605 -7.09302485 29.91684144 -7.125 27.875 C-7.14820313 26.73804688 -7.17140625 25.60109375 -7.1953125 24.4296875 C-6.99576216 20.92558351 -6.2388869 18.26615638 -5 15 C-4.65023242 13.67088318 -4.30903983 12.33917261 -4 11 C-3.34 11 -2.68 11 -2 11 C-1.7834375 9.1128125 -1.7834375 9.1128125 -1.5625 7.1875 C-1.26251314 4.57332877 -0.84186703 2.52560108 0 0 Z " fill="#E0C05D" transform="translate(466,181)"/>
<path d="M0 0 C1.27465247 3.82395741 0.53663282 5.73879095 -0.43359375 9.63671875 C-0.59038101 10.27615921 -0.74716827 10.91559967 -0.90870667 11.57441711 C-1.41068273 13.61408532 -1.9239244 15.65072496 -2.4375 17.6875 C-2.78004317 19.07077895 -3.121849 20.45424071 -3.46289062 21.83789062 C-4.30005184 25.22742258 -5.14733845 28.6143298 -6 32 C-6.33 32 -6.66 32 -7 32 C-7.21021063 20.01799414 -7.21021063 20.01799414 -5.05859375 14.65234375 C-3.58575384 10.96209173 -2.67499303 7.1704393 -1.68359375 3.328125 C-1 1 -1 1 0 0 Z " fill="#DEBF58" transform="translate(444,272)"/>
<path d="M0 0 C1.20101451 3.55193652 0.8293019 6.27599707 0.1875 9.9375 C0.01605469 10.95714844 -0.15539062 11.97679687 -0.33203125 13.02734375 C-0.96965862 15.86497198 -1.90884307 18.31275861 -3 21 C-3.41659135 22.7615128 -3.79285118 24.53313133 -4.125 26.3125 C-4.29257812 27.19550781 -4.46015625 28.07851562 -4.6328125 28.98828125 C-4.75398438 29.65214844 -4.87515625 30.31601563 -5 31 C-5.66 31 -6.32 31 -7 31 C-6.45414389 24.31326266 -4.76362482 18.03278015 -2.98828125 11.58984375 C-1.92840691 7.73994446 -0.94975228 3.87815514 0 0 Z " fill="#FCF5CD" transform="translate(461,207)"/>
<path d="M0 0 C0.33 0 0.66 0 1 0 C1.21586845 5.93638224 0.71249434 11.28751889 -1 17 C-1.33 17.33 -1.66 17.66 -2 18 C-2.24261665 20.25543624 -2.38332133 22.50945523 -2.5234375 24.7734375 C-3.08977774 27.41945338 -4.05542072 28.20008554 -6 30 C-5.49623933 22.89764367 -4.25597479 16.25158534 -2.4375 9.375 C-2.20353516 8.46621094 -1.96957031 7.55742187 -1.72851562 6.62109375 C-1.15887311 4.41227583 -0.58265317 2.20541448 0 0 Z " fill="#E0C35F" transform="translate(406,220)"/>
<path d="M0 0 C1.37098185 4.52791464 0.54604518 8.23338029 -0.25 12.8125 C-0.37246094 13.59431641 -0.49492187 14.37613281 -0.62109375 15.18164062 C-1.46620977 20.18958062 -2.81932577 24.41200843 -5 29 C-6.12674184 25.61731864 -5.85314908 23.34725847 -5.0390625 19.90234375 C-4.81476563 18.93619141 -4.59046875 17.97003906 -4.359375 16.97460938 C-4.11703125 15.97236328 -3.8746875 14.97011719 -3.625 13.9375 C-3.39039063 12.93138672 -3.15578125 11.92527344 -2.9140625 10.88867188 C-2.04865484 7.20823077 -1.19610729 3.58832188 0 0 Z " fill="#FBF2C8" transform="translate(453,239)"/>
<path d="M0 0 C0.33 0 0.66 0 1 0 C1.09765625 6.15234375 1.09765625 6.15234375 1 8 C0.67 8.33 0.34 8.66 0 9 C0.04125 10.093125 0.0825 11.18625 0.125 12.3125 C-0.00859679 16.25360519 -0.4081734 17.20880213 -3 20 C-3.66 20.99 -4.32 21.98 -5 23 C-4.34240251 17.73229802 -3.26735876 12.69866827 -1.9375 7.5625 C-1.75123047 6.83095703 -1.56496094 6.09941406 -1.37304688 5.34570312 C-0.9186242 3.56296802 -0.45977534 1.78136213 0 0 Z " fill="#FCF5CA" transform="translate(468,178)"/>
<path d="M0 0 C0.33 0 0.66 0 1 0 C0.69174075 2.67158015 0.35699877 5.33467964 0 8 C-0.1340625 9.02222656 -0.268125 10.04445313 -0.40625 11.09765625 C-0.5609375 12.15855469 -0.715625 13.21945312 -0.875 14.3125 C-1.01679688 15.31925781 -1.15859375 16.32601563 -1.3046875 17.36328125 C-2.04219709 20.16001706 -2.77487441 21.21868361 -5 23 C-4.354523 15.09290669 -2.13002861 7.60866033 0 0 Z " fill="#DEC063" transform="translate(395,267)"/>
<path d="M0 0 C0.33 0 0.66 0 1 0 C1.02689216 1.47906892 1.04634621 2.95827483 1.0625 4.4375 C1.07410156 5.26121094 1.08570313 6.08492188 1.09765625 6.93359375 C1 9 1 9 0 10 C-0.12375 11.11375 -0.2475 12.2275 -0.375 13.375 C-0.98311639 16.90207504 -1.21784407 17.94362388 -4 20 C-3.34034961 13.13963599 -1.7637236 6.65556077 0 0 Z " fill="#FBF3C5" transform="translate(438,300)"/>
<path d="M0 0 C0.66 0 1.32 0 2 0 C1.57910004 5.60461531 1.08386889 10.72086547 -1 16 C-1.33 16 -1.66 16 -2 16 C-2 13.03 -2 10.06 -2 7 C-1.34 7 -0.68 7 0 7 C0 4.69 0 2.38 0 0 Z " fill="#FDF6D3" transform="translate(399,240)"/>
<path d="M0 0 C1.23922223 3.71766668 0.57018942 5.43889537 -0.4375 9.1875 C-0.72496094 10.27417969 -1.01242187 11.36085937 -1.30859375 12.48046875 C-1.53675781 13.31191406 -1.76492188 14.14335937 -2 15 C-2.66 14.34 -3.32 13.68 -4 13 C-4 11.68 -4 10.36 -4 9 C-3.34 9 -2.68 9 -2 9 C-1.7834375 7.329375 -1.7834375 7.329375 -1.5625 5.625 C-1 2 -1 2 0 0 Z " fill="#E4BE5E" transform="translate(458,215)"/>
<path d="M0 0 C0.33 0 0.66 0 1 0 C1.02689216 1.47906892 1.04634621 2.95827483 1.0625 4.4375 C1.07410156 5.26121094 1.08570313 6.08492188 1.09765625 6.93359375 C1 9 1 9 0 10 C-0.04092937 12.33297433 -0.04241723 14.66705225 0 17 C-0.66 17 -1.32 17 -2 17 C-2.25287193 10.93107371 -1.69832609 5.83799592 0 0 Z " fill="#E0C565" transform="translate(383,314)"/>
<path d="M0 0 C1.6168484 3.23369679 0.00851816 6.30628257 -0.9375 9.625 C-1.13279297 10.33140625 -1.32808594 11.0378125 -1.52929688 11.765625 C-2.01314492 13.51219844 -2.50575123 15.25634124 -3 17 C-4.56783258 11.66699371 -3.97248817 6.86717729 -1.4375 2 C-0.963125 1.34 -0.48875 0.68 0 0 Z " fill="#FBF2C7" transform="translate(396,260)"/>
<path d="M0 0 C1.13732426 3.40401948 0.83989957 5.77456664 0.0625 9.25 C-0.13214844 10.14203125 -0.32679688 11.0340625 -0.52734375 11.953125 C-0.68332031 12.62859375 -0.83929688 13.3040625 -1 14 C-1.66 14 -2.32 14 -3 14 C-2.40380045 9.13103697 -1.43023178 4.67209049 0 0 Z " fill="#E0C464" transform="translate(387,299)"/>
<path d="M0 0 C0.33 0 0.66 0 1 0 C0.48041715 4.37934119 -0.05675742 8.68803391 -1 13 C-1.33 13 -1.66 13 -2 13 C-2.05447047 11.58376784 -2.09300508 10.16691809 -2.125 8.75 C-2.14820313 7.96109375 -2.17140625 7.1721875 -2.1953125 6.359375 C-1.9828378 3.79268059 -1.28654105 2.2083933 0 0 Z " fill="#FEF9DC" transform="translate(383,309)"/>
<path d="M0 0 C1.45606519 4.52092968 0.27032841 7.51648796 -1 12 C-1.33 12 -1.66 12 -2 12 C-2.05422947 10.5629191 -2.09289723 9.12524538 -2.125 7.6875 C-2.14820313 6.88699219 -2.17140625 6.08648437 -2.1953125 5.26171875 C-2 3 -2 3 0 0 Z " fill="#DDC056" transform="translate(454,230)"/>
<path d="M0 0 C0.33 0 0.66 0 1 0 C1 2.97 1 5.94 1 9 C0.34 9 -0.32 9 -1 9 C-1.33 9.66 -1.66 10.32 -2 11 C-1 3.57142857 -1 3.57142857 0 0 Z " fill="#FCF3CF" transform="translate(446,268)"/>
</svg>
