<?xml version="1.0" encoding="utf-8"?>
<!-- Generator: Adobe Illustrator 27.5.0, SVG Export Plug-In . SVG Version: 6.00 Build 0)  -->
<svg version="1.1" id="Capa_1" xmlns="http://www.w3.org/2000/svg" xmlns:xlink="http://www.w3.org/1999/xlink" x="0px" y="0px"
	 viewBox="0 0 737 245.4" style="enable-background:new 0 0 737 245.4;" xml:space="preserve">
<style type="text/css">
	.st0{fill:#C12B2F;}
</style>
<polygon class="st0" points="279,13.4 376,105.7 278.8,138 434,103 "/>
<path d="M259.3,216.1c-15.5-1.1-17.6-5.4-16.5-14.4l0.3-2.5l0.3-2.5c0.3-2.7,3.2-21.8,3.2-21.8c-5.3,0-26.4,0-31.9,0.1
	c-29,0.4-21.5-1.8-25.6,18l-2.3,18.2c-2.5,17,33.5,15.3,70.2,15.3c5.1,0,27.8,0,48.1,0.5l0.3-0.1l0-0.8l0.8-9.2
	C299.8,217.1,270.7,216.8,259.3,216.1"/>
<path d="M481.4,174.7c-45.9,0.1-89.5-2.1-92.3,14.9l-3.5,18.2c-1.7,19.7-10.3,17.6,25.9,17.9c6.8,0.1,33.1,0,39.8,0
	c0,0,3-19.1,3.4-21.8l0.4-2.5l0.5-2.5c1.7-9,5.9-13.3,25.6-14.4c14.5-0.8,44.1-0.8,52.2-0.7l1.5-8.9l0.1-0.2l0.2,0
	C527,174.6,487.8,174.7,481.4,174.7"/>
<path d="M94.2,211.6c10.8,7.9,80.5,4.3,80.5,4.3l-1.5,9.7c-47,1.2-78.5,0-78.5,0c-7.1-0.1-14-0.3-21-0.6c-13.6-0.5-26.6-1-39.9-3.3
	c-5.8-1-10.4-3.4-12.4-8.2c-3-7.1-2.6-15.8,0.7-22.8c2-4.4,4.3-7.4,10-9.1c4.2-1.2,7.8-1.9,13.3-2.6c8.1-1.1,14.8-1.6,22.1-2.1
	c9.5-0.6,18.5-1,27.3-1.3c0,0,38.6-1.3,85.6-0.2l-1.2,9c0,0-75.3-2.1-84.1,5.1c-4.3,3.3-4.2,7.7-4.6,12.2
	C90.3,201.8,90.2,209.6,94.2,211.6"/>
<path d="M346.1,175c-20.4,0.4-22.6-0.6-23.6,5.7l0,0.2c0,0.2-0.1,0.4-0.1,0.6l-1.6,11.4l-1.5,10.2l-1.7,10.7
	c-0.2,0.9-0.3,1.7-0.4,2.4l0,0.2c-0.1,0.5-0.1,1-0.1,1.4c-0.7,7.2-0.2,7.7,11.7,7.8c3.7,0.1,8.4,0.1,14.4,0.1c4.3,0,10.7,0,16.2,0
	c3.9,0,7.4,0,11.5,0v0l0.1,0l3.1-22.9l0.1-1.2l0.3-2.5l0.3-2.5c0.1-1,0.6-4.6,1.2-8.5c0.9-6.1,1.9-13.2,1.9-13.2
	C372.6,174.8,351.6,174.9,346.1,175"/>
<path d="M510.2,203.7l1.5-10h-39.7c-4.6,0.2-5.4,0.8-5.8,3.1l0,0.2l-0.1,0.4l-1,6.4H510.2z"/>
<path d="M668.4,203.7l1.5-10h-39.7c-4.6,0.2-5.4,0.8-5.8,3.1l0,0.2l-0.1,0.4l-1,6.4H668.4z"/>
<path d="M639.7,174.4c-45.9,0.1-89.5-2.1-92.3,14.9l-3.5,18.2c-1.7,19.7-10.3,17.6,25.9,17.9c6.8,0.1,33.1,0,39.8,0
	c0,0,2.9-19.1,3.4-21.7l0.4-2.5l0.5-2.5c1.7-9,5.9-13.3,25.6-14.4c14.5-0.8,44.1-0.8,52.2-0.7l1.5-8.9l0.1-0.2l0.1,0
	C685.2,174.4,646,174.4,639.7,174.4"/>
</svg>
