<?xml version="1.0" encoding="utf-8"?>
<!-- Generator: Adobe Illustrator 27.5.0, SVG Export Plug-In . SVG Version: 6.00 Build 0)  -->
<svg version="1.1" id="Capa_1" xmlns="http://www.w3.org/2000/svg" xmlns:xlink="http://www.w3.org/1999/xlink" x="0px" y="0px"
	 viewBox="0 0 428 296.8" style="enable-background:new 0 0 428 296.8;" xml:space="preserve">
<g>
	<g>
		<path d="M107.1,168.1v0.4c-2.6,1.5-4.8,4.8-4.8,7.6v26.5c0,11.8-9.6,23.5-21.5,25.9l-19.9,4.1c-11.8,2.4-21.5-5.2-21.5-17.1v-97.6
			C39.4,106,49,94.4,60.9,92l19.9-4.1c11.8-2.4,21.5,5.2,21.5,17.1v22.9l-23.7-5.4v-11c0-4-3.4-6.7-7.6-5.9h-0.2c-4,0.8-7.6,5-7.6,9
			l0.2,94.4c0,4,3.2,6.8,7.4,5.9H71c4.2-0.9,7.6-5,7.6-9V174L107.1,168.1z"/>
		<path d="M188.2,161.7v44.8l-67.9,13.9V220c2.8-1.8,4.8-4.8,4.8-8V86.2c0-3.2-2-5.4-4.8-6v-0.4l33.3-6.8v0.4
			c-2.8,1.8-4.8,4.8-4.8,8v113.7c0,2.2,1.8,3.4,4,3l7.6-1.6c2.2-0.5,4-2.4,4-4.6V176L188.2,161.7z"/>
		<path d="M232,65.6v124.5c0,3.2,2,5.4,5,6v0.4l-33.5,6.9V203c2.8-1.8,4.8-4.8,4.8-8V70.4c0-3.2-2-6.6-4.8-7.2v-0.4l33.5-6.9v0.4
			C234,58.1,232,62.3,232,65.6z"/>
		<path d="M325,178v0.4l-33.5,6.9v-0.4c2.8-1.6,4.8-4.8,4.8-7.8V66.8c0-4-3.4-6.7-7.6-5.9h-0.2c-4,0.8-7.6,5-7.6,9v110.3
			c0.2,3,2.2,5.2,5,5.8v0.4l-33.5,6.9v-0.4c2.6-1.5,4.6-4.6,4.8-7.6V59.2c0-3.2-2-5.4-4.8-6v-0.4l46.2-9.5
			c11.8-2.4,21.7,5.2,21.7,17v112.1C320.1,175.4,322.2,177.6,325,178z"/>
		<path d="M377.6,61.2V50c0-4-3.4-6.5-7.4-5.7H370c-4,0.8-7.4,4.7-7.4,8.8v29.3c0,4.2,3.2,6.8,7.4,5.9l10.4-2.1
			c11.8-2.4,21.5,5.4,21.5,17.1v38c0,11.8-9.6,23.5-21.5,25.9l-19.9,4.1c-11.8,2.4-21.5-5.2-21.5-17.1v-23.3l23.5,5.2v11.6
			c0,4.2,3.2,6.8,7.4,5.9h0.2c4-0.8,7.4-4.7,7.4-9v-34.7c0-4-3-6.6-7-6l-10,2.1c-11.8,2.4-21.5-5.4-21.5-17.1V56.5
			c0-11.8,9.6-23.5,21.5-25.9l19.9-4.1c12.1-2.5,21.5,5.2,21.5,17.1v22.9L377.6,61.2z"/>
	</g>
	<g>
		<path d="M56.6,250.9c-9.5,0-18.4-3.6-24.9-10.1s-10.1-15.5-10.1-25.2V118c0-20.2,15.7-39.2,35.7-43.3l19.9-4.1
			c2.6-0.5,5.3-0.8,7.9-0.8c6.3,0,12.3,1.6,17.5,4.5v-8.9l68.9-14.1v32l-4.8,3.1v67.8l23.9-14.4V78.6l-4.8-1.1V48.4L294.9,26
			c2.6-0.5,5.3-0.8,7.9-0.8c9.5,0,18.2,3.5,24.6,9.7c6.5-11,17.3-19.1,29.6-21.6l19.9-4.1c2.7-0.5,5.3-0.8,8-0.8
			c19.9,0,34.8,15.2,34.8,35.3v44.9l-3.3-0.7c2.2,4.7,3.3,10,3.3,15.4v38c0,20.2-15.7,39.2-35.7,43.3l-19.9,4.1
			c-7.4,1.5-14.8,0.9-21.3-1.8v6.1l-240.2,49.2v-4.9c-5.4,4.3-11.7,7.2-18.2,8.6L64.5,250C61.8,250.6,59.2,250.9,56.6,250.9z
			 M85.1,78.2c-2,0-4.1,0.2-6.2,0.6L59,82.9c-16.3,3.3-29,18.7-29,35.1v97.6c0,7.5,2.7,14.3,7.6,19.3c4.9,4.9,11.6,7.6,18.9,7.6
			c2,0,4.1-0.2,6.2-0.6l19.9-4.1c8-1.6,15.4-6.3,20.8-13l7.5-9.2V232l223.4-45.8V172l6.6,4.5c6,4.1,13.7,5.6,21.5,4l19.9-4.1
			c16.3-3.3,29-18.7,29-35.1v-38c0-7.2-2.6-13.9-7.2-18.9l-9.3-9.9l16.6,3.6V43.7c0-15.4-11.4-26.9-26.5-26.9
			c-2.1,0-4.2,0.2-6.3,0.7l-19.9,4.1c-11.5,2.3-21.8,11.2-26.4,22.5l-2.9,7.2l-4.4-6.4c-4.9-7.1-12.9-11.2-22-11.2
			c-2.1,0-4.2,0.2-6.2,0.6l-102.5,21v15.6l4.8,1.1v72.5L158.4,169V81.7l4.8-3.1v-17l-52.1,10.7v20.4l-7.1-7
			C98.9,80.8,92.3,78.2,85.1,78.2z"/>
	</g>
	<g>
		<path d="M115.2,279.6l-1.8-1.4c-1.1,1-2.5,1.6-4,1.9c-2.3,0.5-4,0-5.4-1.1c-2-1.6-2-4.1-2-7.6s-0.1-5.9,2-8.4
			c1.4-1.7,3.1-2.8,5.4-3.3s4,0,5.4,1.1c2,1.6,2,4.1,2,7.6c0,3,0,5.2-1.2,7.3l1.7,1.4L115.2,279.6z M111.9,263.8
			c-0.6-0.5-1.4-0.8-2.5-0.6c-1.1,0.2-2,0.8-2.5,1.6c-0.8,1-1,2-1,5.8s0.2,4.7,1,5.4c0.6,0.5,1.5,0.8,2.5,0.6
			c0.5-0.1,0.9-0.3,1.3-0.6l-1.7-1.4l2.1-2.5l1.5,1.2c0.3-0.9,0.4-2.1,0.4-4.1C112.9,265.4,112.7,264.5,111.9,263.8z"/>
		<path d="M133.4,275.2c-4.1,0.8-7.4-1.3-7.4-5.5v-13.1l3.9-0.8v13c0,2.3,1.3,3.4,3.5,3c2.1-0.4,3.5-2.1,3.5-4.4v-13l3.9-0.8v13.1
			C140.8,271,137.5,274.4,133.4,275.2z"/>
		<path d="M162.1,269.3l-1.2-3.3l-7.1,1.4l-1.2,3.8l-4.1,0.8l7.3-21.4l3.1-0.6l7.3,18.5L162.1,269.3z M157.4,256.1l-2.5,7.8l5-1
			L157.4,256.1z"/>
		<path d="M174.2,266.8v-20l3.9-0.8v16.5l9.1-1.8v3.5L174.2,266.8z"/>
		<path d="M196,262.5v-20l3.9-0.8v20L196,262.5z"/>
		<path d="M217.8,241.6v16.5l-3.9,0.8v-16.5l-5.2,1.1V240l14.3-3v3.5L217.8,241.6z"/>
		<path d="M239.4,245.5v8.2l-3.9,0.8v-8.2l-6-10.6l4.2-0.9l3.7,7.3l3.7-8.8l4.2-0.9L239.4,245.5z"/>
		<path d="M276.2,246.3v-8.4l-6.8,1.4v8.4l-3.9,0.8v-20l3.9-0.8v8.2l6.8-1.4v-8.2l3.9-0.8v20L276.2,246.3z"/>
		<path d="M290.4,243.4v-20l3.9-0.8v20L290.4,243.4z"/>
		<path d="M316.9,236c-1.5,1.9-3.4,3-5.6,3.4c-2.1,0.4-3.9,0.1-5.4-1.1c-0.9-0.7-1.4-1.6-1.6-2.7c-0.2-1.1-0.3-2.7-0.3-4.9
			s0.1-3.9,0.3-5c0.2-1.2,0.8-2.3,1.6-3.3c1.5-1.8,3.3-2.8,5.4-3.3c4.5-0.9,7,1.5,7.5,4.9l-3.9,0.8c-0.5-1.8-1.7-2.6-3.6-2.2
			c-1,0.2-1.9,0.7-2.5,1.6c-0.7,1.1-1,1.8-1,5.8c0,3.9,0.2,4.7,1,5.4c0.6,0.6,1.4,0.8,2.5,0.5c1.1-0.2,2.1-0.8,2.8-1.7
			c0.6-0.8,0.9-1.8,0.9-2.8v-0.8l-3.7,0.7V228l7.5-1.5v2.9C318.8,232.4,318.3,234.3,316.9,236z"/>
		<path d="M338.7,233.7v-8.4l-6.8,1.4v8.4l-3.9,0.8v-20l3.9-0.8v8.2l6.8-1.4v-8.2l3.9-0.8v20L338.7,233.7z"/>
	</g>
</g>
</svg>
