<?xml version="1.0" encoding="UTF-8"?>
<svg xmlns="http://www.w3.org/2000/svg" version="1.1" viewBox="0 0 600 85.3">
  <defs>
    <style>
      .cls-1 {
        fill: #010101;
      }

      .cls-2 {
        fill: #de2b26;
      }

      .cls-3 {
        fill: #fff;
      }
    </style>
  </defs>
  <!-- Generator: Adobe Illustrator 28.6.0, SVG Export Plug-In . SVG Version: 1.2.0 Build 709)  -->
  <g>
    <g id="layer">
      <rect class="cls-1" x="85.4" y="3.8" width="511.2" height="77.4"/>
      <rect class="cls-2" x="3.8" y="3.8" width="77.4" height="77.4"/>
      <path class="cls-3" d="M50,25.6c-3.5,2.2-8.2,3.5-11.1,4.1-22.4,5.1-22.7-.9-22.4-2.8.3-2.2,2.8-3.5,2.8-3.5-3.8,5.1,6,5.1,19,2.8,0,0,6.3-.9,13.6-2.8-.3,0-.3,1-1.9,2.2"/>
      <path class="cls-3" d="M49.3,22.2s14.2-3.2,3.8,3.8c0-.4,4.8-5.4-3.8-3.8"/>
      <path class="cls-3" d="M39.5,63.9c6-1.3,22.1-4.4,22.4-8.5,0,0,.6-1.6-.9-1.9v-3.8s7.9.9,7.9,4.7-7,10.7-26.2,10.1l-3.2-.6Z"/>
      <path class="cls-3" d="M19.3,46.8s-2.5,1.6-2.8,3.5c-.3,2.2,2.2,7.6,25.6,3.8,18.3-2.8,27.8-8.8,26.5-14.5-.6-2.8-7.6-3.8-7.6-3.8v3.5s1.3,1.3,1.3,1.9c0,2.8-8.2,6-21.2,8.2-12.6,2.1-25.6,2.8-21.8-2.6"/>
      <path class="cls-3" d="M19.3,33.9s-2.5,1.6-2.8,3.5c-.3,2.2,2.5,8.2,25.6,3.8,18.3-3.2,27.8-8.8,26.5-14.5-.6-2.8-7.6-3.8-7.6-3.8v3.5s1.3,1.3,1.3,1.9c0,2.8-8.2,6-21.2,8.2-12.6,2.4-25.6,3-21.8-2.6"/>
      <path class="cls-3" d="M108.7,43c0-8.2,6.3-13.9,14.5-13.9s10.1,3.8,11.7,7.3l-6,2.8c-.9-2.2-3.2-3.8-5.7-3.8-4.4,0-7.6,3.5-7.6,7.9s3.2,7.9,7.6,7.9,4.7-1.9,5.7-3.8l6,2.8c-1.6,2.8-5.1,6.6-11.7,6.6-8.1.1-14.5-5.6-14.5-13.8"/>
      <path class="cls-3" d="M146.7,43c0-8.2,6.3-13.9,14.5-13.9s14.2,5.7,14.2,13.9-6,13.9-14.2,13.9c-8.5,0-14.5-6-14.5-13.9M168.5,43c0-4.4-2.8-7.9-7.3-7.9s-7.3,3.5-7.3,7.9,2.8,7.9,7.3,7.9c4.1-.3,7.3-3.8,7.3-7.9"/>
      <polygon class="cls-3" points="212.4 56.3 212.4 38.6 205.7 56.3 202.6 56.3 195.9 38.6 195.9 56.3 189 56.3 189 29.4 198.5 29.4 204.2 44.3 209.8 29.4 219.3 29.4 219.3 56.3 212.4 56.3"/>
      <path class="cls-3" d="M234.8,56.3v-26.9h13.6c6,0,9.5,4.1,9.5,8.8s-3.2,8.8-9.5,8.8h-6.6v9.2c0,.1-7,.1-7,.1ZM250.6,38.3c0-1.9-1.6-2.8-3.5-2.8h-5.4v5.7h5.4c1.9-.1,3.5-1,3.5-2.9"/>
      <path class="cls-3" d="M286,56.3l-4.4-9.2h-3.5v9.2h-7v-26.9h13.3c6,0,9.5,4.1,9.5,8.8s-2.8,7.3-5.4,8.2l5.4,9.8c0,.1-7.9.1-7.9.1ZM286.6,38.3c0-1.9-1.6-2.8-3.5-2.8h-5.4v5.7h5.4c2.3-.1,3.5-1,3.5-2.9"/>
      <polygon class="cls-3" points="308.4 56.3 308.4 29.4 328.3 29.4 328.3 35.4 315.4 35.4 315.4 39.5 328 39.5 328 45.9 315.4 45.9 315.4 50.3 328.3 50.3 328.3 56.3 308.4 56.3"/>
      <path class="cls-2" d="M344.1,52.5l3.8-5.4c1.9,1.9,5.1,3.5,8.5,3.5s3.8-.9,3.8-2.2c0-3.5-15.2-.6-15.2-11.1s3.8-8.5,10.7-8.5,8.2,1.3,11.1,3.8l-3.8,5.1c-2.2-1.9-5.1-2.8-7.9-2.8s-2.8.6-2.8,1.9c0,3.2,15.2.9,15.2,10.7s-4.1,8.8-11.1,8.8c-6,.3-9.7-1.3-12.3-3.8"/>
      <path class="cls-3" d="M381.7,52.5l3.8-5.4c1.9,1.9,5.1,3.5,8.5,3.5s3.8-.9,3.8-2.2c0-3.5-15.2-.6-15.2-11.1s3.8-8.5,10.7-8.5,8.2,1.3,11.1,3.8l-3.8,5.1c-2.2-1.9-5.1-2.8-7.9-2.8s-2.8.6-2.8,1.9c0,3.2,15.2.9,15.2,10.7s-4.1,8.8-11.4,8.8c-5.3.3-9.1-1.3-12-3.8"/>
      <path class="cls-3" d="M419.6,56.3v-26.9h13.6c6,0,9.5,4.1,9.5,8.8s-3.2,8.8-9.5,8.8h-6.6v9.2c0,.1-7,.1-7,.1ZM435.4,38.3c0-1.9-1.6-2.8-3.5-2.8h-5.4v5.7h5.4c2.3-.1,3.5-1,3.5-2.9"/>
      <path class="cls-3" d="M455.3,43c0-8.2,6.3-13.9,14.5-13.9s14.2,5.7,14.2,13.9-6,13.9-14.2,13.9-14.5-6-14.5-13.9M477.1,43c0-4.4-2.8-7.9-7.3-7.9s-7.3,3.5-7.3,7.9,2.8,7.9,7.3,7.9c4.5-.3,7.3-3.8,7.3-7.9"/>
      <path class="cls-3" d="M512.8,56.3l-4.4-9.2h-3.5v9.2h-7v-26.9h13.6c6,0,9.5,4.1,9.5,8.8s-2.8,7.3-5.4,8.2l5.4,9.8c.1.1-8.2.1-8.2.1ZM513.5,38.3c0-1.9-1.6-2.8-3.5-2.8h-5.4v5.7h5.4c1.9-.1,3.5-1,3.5-2.9"/>
      <polygon class="cls-3" points="541.6 56.3 541.6 35.4 534 35.4 534 29.4 556.1 29.4 556.1 35.4 548.5 35.4 548.5 56.3 541.6 56.3"/>
      <path class="cls-3" d="M567.5,38c-2.5,0-4.7-2.2-4.7-4.7s2.2-4.7,4.7-4.7,4.7,1.9,4.7,4.7c0,2.4-2.2,4.7-4.7,4.7M567.5,29.4c-2.2,0-3.8,1.6-3.8,3.8s1.6,3.8,3.8,3.8,3.8-1.9,3.8-3.8c.3-2.2-1.6-3.8-3.8-3.8M568.8,35.7l-1.3-2.2h-.9v2.2h-.6v-5.1h2.2c.9,0,1.6.6,1.6,1.6s-.9,1.6-1.3,1.6l1.3,2.2h-.9v-.3h0ZM568.1,31.3h-1.3v1.9h1.3c.3,0,.9-.3.9-.9,0-.7-.5-1-.9-1"/>
      <path class="cls-3" d="M596.6,81.6H85.4V3.9h511.2v77.7ZM3.8,3.8h77.4v77.4H3.8V3.8ZM596.6,0H0v85.3h600V0h-3.4Z"/>
    </g>
  </g>
</svg>