<?xml version="1.0" encoding="utf-8"?>
<!-- Generator: Adobe Illustrator 27.5.0, SVG Export Plug-In . SVG Version: 6.00 Build 0)  -->
<svg version="1.1" id="Capa_1" xmlns="http://www.w3.org/2000/svg" xmlns:xlink="http://www.w3.org/1999/xlink" x="0px" y="0px"
	 viewBox="0 0 573 108" style="enable-background:new 0 0 573 108;" xml:space="preserve">
<style type="text/css">
	.st0{fill-rule:evenodd;clip-rule:evenodd;fill:#E9BD2C;}
</style>
<g>
	<path class="st0" d="M527.8,18.9c0.8,0.6,1.2,1.6,0.6,2.4c-0.8,0.8-1.8,0.8-2.6,0.2c-1-0.6-1.2-1.6-0.6-2.6
		C525.8,18.1,526.8,18.1,527.8,18.9L527.8,18.9z M528.2,18.4L528.2,18.4c-0.8-0.6-2.4-1.2-3.4,0.4c-1.2,1.4-0.2,2.6,0.6,3.4
		c0.8,0.6,2.2,1,3.4-0.4C529.8,20.3,529,18.9,528.2,18.4L528.2,18.4z M544.8,13.6l-2.4-4h-0.8v4.8h0.6v-3.8l2.4,3.8h0.8V9.6h-0.6
		V13.6L544.8,13.6z M532.8,12.8l1.6-0.6L536,16l0.6-0.2L535,12l1.6-0.8l-0.4-0.4l-3.6,1.4L532.8,12.8L532.8,12.8z M532.8,16.8
		l-4.2-1.6l-0.6,0.4l3,3.8l0.4-0.4l-2.4-3l4.4,1.6l0.6-0.4l-3-4l-0.4,0.4L532.8,16.8L532.8,16.8z M554.7,17.2l-0.2-0.2l0.2-4.4
		l-0.8-0.4l-2.4,4l0.4,0.4l2.2-3.4v4.6l0.6,0.4l2.4-4l-0.4-0.4L554.7,17.2L554.7,17.2z M550.5,15l-2.8-0.8l0.4-1.4l2.6,0.6l0.2-0.4
		l-2.6-0.8l0.4-1.4l2.8,0.8V11l-3.2-1l-1.4,4.6l3.4,1L550.5,15L550.5,15z M560.7,22.9l-1,1.2l0.4,0.6l3-4.2l-0.4-0.6l-5,1.2l0.4,0.6
		l1.4-0.4L560.7,22.9L560.7,22.9z M560.1,21.1L560.1,21.1l2.2-0.4l-1.4,1.6L560.1,21.1L560.1,21.1z M538.8,10.2h-0.6l1,4.8l0.6-0.2
		L538.8,10.2L538.8,10.2z M558.1,15.6l1.2,1l-3,3l0.4,0.6l3-3l1.2,1l0.4-0.4l-2.8-2.6L558.1,15.6L558.1,15.6z M565.4,24.9l-0.2-0.6
		l-4.6,1.4l0.8,3l0.6-0.2l-0.8-2.4L565.4,24.9L565.4,24.9z M523.7,22.9c-0.8-0.2-1.6,0.2-2.2,1.2c-0.4,1.4,0.2,2.6,1.6,3
		c1.6,0.8,2.8,0,3.2-1c0-0.2,0.6-1.6-1-2.6l-0.2,0.6c0.8,0.6,0.8,1.4,0.6,1.8c-0.4,1-1.4,1.2-2.4,0.6c-1.2-0.4-1.6-1.4-1.2-2.2
		c0.2-0.4,0.6-1,1.4-0.8L523.7,22.9L523.7,22.9z M559.1,47.2c-1-0.8-1.2-1.8-0.6-2.6c0.6-0.8,1.6-0.8,2.6-0.2
		c0.8,0.8,1.2,1.8,0.6,2.6C560.9,47.8,559.9,47.8,559.1,47.2L559.1,47.2z M558.7,47.6L558.7,47.6c0.8,0.6,2.2,1.2,3.4-0.4
		c1-1.4,0.2-2.6-0.6-3.2c-0.8-0.8-2.4-1.2-3.4,0.2C556.9,45.6,557.9,47,558.7,47.6L558.7,47.6z M542.2,52.6l2.4,3.8h0.8v-4.8h-0.6
		v3.8h-0.2l-2.4-3.8h-0.6v4.8h0.6V52.6L542.2,52.6z M553.9,53.2l-1.4,0.8l-1.6-4l-0.6,0.2l1.6,4l-1.6,0.6l0.2,0.4l3.6-1.4
		L553.9,53.2L553.9,53.2z M553.9,49.4l4.2,1.6l0.8-0.4l-3-4l-0.4,0.4l2.2,3.2l-4.2-1.6l-0.6,0.4l2.8,3.8l0.6-0.4L553.9,49.4
		L553.9,49.4z M532.2,49v4.6l0.6,0.4l2.6-4.2l-0.6-0.2l-2,3.2v-4.6l-0.6-0.4l-2.6,4.2l0.6,0.2L532.2,49L532.2,49z M536.4,51l2.6,0.8
		l-0.4,1.6l-2.4-0.8l-0.2,0.6l2.4,0.8l-0.4,1.4l-2.6-0.8l-0.2,0.4l3.4,1l1.2-4.6l-3.4-1V51L536.4,51z M526.2,43l0.8-1l-0.2-0.6
		l-3.2,4l0.4,0.6l5-1l-0.4-0.6l-1.4,0.2L526.2,43L526.2,43z M526.6,44.8L526.6,44.8l-2.2,0.6l1.4-1.8L526.6,44.8L526.6,44.8z
		 M548.1,55.9l0.6-0.2l-1-4.6h-0.6L548.1,55.9L548.1,55.9z M528.6,50.6l-1-1.2l3-3L530,46l-3,3l-1-1.2l-0.4,0.4l2.6,2.8L528.6,50.6
		L528.6,50.6z M521.5,41l0.2,0.8l4.6-1.4l-1-3l-0.4,0.2l0.6,2.2L521.5,41L521.5,41z M563.1,43c0.8,0.2,1.8,0,2.2-1.2
		c0.6-1.2,0-2.4-1.4-3c-1.8-0.8-2.8,0-3.2,1c-0.2,0.4-0.6,1.8,1,2.6l0.2-0.4c-1-0.8-0.8-1.4-0.8-1.8c0.6-1.2,1.4-1.2,2.6-0.8
		c1,0.4,1.4,1.4,1.2,2.2c-0.2,0.4-0.6,1-1.6,0.8L563.1,43L563.1,43z M525.7,33.4L525.7,33.4l0-0.4v-0.4h0c0.1-4.7,2.1-9,5.2-12.1
		c3.2-3.2,7.6-5.2,12.5-5.2c4.9,0,9.3,2,12.5,5.2c3.2,3.2,5.2,7.6,5.2,12.5c0,4.9-2,9.2-5.2,12.4c-3.2,3.2-7.6,5.1-12.5,5.1
		c-4.9,0-9.3-1.9-12.5-5.1C527.7,42.4,525.8,38.2,525.7,33.4L525.7,33.4z M531.4,21.1c-3.1,3.1-5,7.3-5,12c0,4.7,1.9,8.8,4.9,11.8
		c3.1,3,7.3,4.9,12,4.9c4.7,0,8.9-1.9,12-4.9c3-3,4.9-7.2,4.9-11.8c0-4.7-1.9-8.9-5-12c-3.1-3.1-7.3-5-12-5
		C538.7,16.1,534.4,18,531.4,21.1L531.4,21.1z M521.7,33.1h1.2v1.2h-1.2V33.1L521.7,33.1z M553.1,45.4h-2.3l0.1-0.2
		c-0.8,0-0.6-0.4-0.6-0.4c0.2-0.4,1.4-0.2,1.4-0.2V44c0,0,0.2-0.4,0.4-0.8c0.6-1,1.4-2,2-2.4v-0.6c0,0-0.4-0.4-0.8-0.6
		c-0.2-0.4-0.6-1-0.8-1.6c0-0.2-0.4-0.8,0.4-2c0.4-0.4,1-1,0.4-2.8l1-0.4c0,0,0.4-0.2,0.6,0.2c0.2,0.2,0.8,0.2,0.4,2
		c-0.6,1.6-0.8,1-0.8,2.6c0,1.4,2,3,3.4,2.2c0,0-0.6-0.4-0.6-1c-0.2-1.8,1.4-5.6,1-6.8c-0.6-1-1.2-1.4-1.8-1.2c-0.8,0-1.8,0.6-2.2,1
		c-0.4,0.2-1,0.2-1.4,0c-0.2,0-1.2-1.4-2.2-1.6c-1.4-0.4-3.6,0-3.6,0l-1.8-0.2l-1.2-0.2c-0.4-0.4-0.4-1.2-0.4-1.2s0.6,0,0.8-0.2
		c0-0.6-0.6-0.6-0.4-1c0-0.2,0.2,0.2,0.6-0.4c0.2-0.2-0.2-0.4-0.2-0.6c0-0.4,0.6,0,0.6-0.6c0-0.8-0.4-0.6-0.4-0.8
		c0-0.4,0.6-0.2,0.6-0.6c0-0.6-0.4-0.4-0.6-0.8c0-0.4,0.8-0.2,0.6-0.8c-0.2-0.6-0.6,0-0.8-0.4c-0.2-0.4,0.6-0.2,0.4-0.8
		c-0.2-0.6-0.8-0.2-1-0.4c0-0.4,0.6-0.4,0.2-1c0-0.2-0.2-0.2-0.6-0.2l-1.6-2v1.6l-2.2,0.6l-0.2,0.2l-2.6,0.8h-0.4l-0.2,0.2v0.4
		l-0.2,0.2l-0.2,0.2v0.4l0.4,0.2l1.4-0.4l0.4,0.2l-0.2,0.4l-1.2,0.2l-0.2,0.2l-0.2,0.2l0.2,0.4l0.4,0.2l0.4-0.2l0.4-0.2l0.2-0.2
		l1.4-0.2l0.2,0.2l0.8,0.2l-0.2,1.2c0,0,0,0.4-0.6,1c-0.4,0.4-1,0.8-1.4,1.2c-0.4,0.6-0.8,0.8-1.2,1.4c-0.4,0.4-1,2.2-1,2.2
		l-1.2-0.8l-0.4-0.4l-1-0.2c-0.6,0.4-2.2,0.8-3.4,1c-0.6,0.8-1.4,1.4-1.4,1.4v-0.2l-0.4,2.4l1.8-0.6l0.2-0.6c0,0-0.8-0.2-0.6-0.6
		c0.4-0.6,1,0.2,1,0.2l0.4-0.2l0.2-0.4l1.6-1l1.2,0.4l1.8,1.8l-1.6-0.6l-0.2-0.2l-1.6,0.4c-0.4,1-1.8,2.6-1.8,2.6
		c-0.2,1.2,0,0.8-0.4,2l0.4,2l1.6-1.4l-0.2-0.4c0,0-0.6-0.2-0.6-0.6c0-0.4,0.8,0,0.8,0v-0.2c0,0-0.2-0.6,0-0.8c0-0.4,1.2-2,1.2-2
		h0.8l4,2.2l0.4-0.2l0.2-0.4l2.8,1c0,0,0.6,0,1,0.2c0.4,0,3.8-0.4,3.8-0.4l-0.4,1.2c0,0,0,0.4,0.2,0.8c0,0.4,0.8,1.2,0.8,1.4
		c0,0,1.2,1,1.2,1.6c0.2,0.6-0.4,1-0.8,1.2c-0.4,0.4-1.6,0.8-1.6,0.8c-0.2,0.4-0.6,0.8-1,1l-0.4,1.2h-10.7l0.8,1h18.1L553.1,45.4
		L553.1,45.4z M548.6,45.4h-2.1l0.1-0.2c-0.8,0-0.6-0.6-0.6-0.6c0.2-0.4,1.4-0.2,1.4-0.2l0.2-0.2c0,0-0.2-0.4,0.2-0.6
		c0.4-0.4,2.4-2,2.4-2l0.2-0.2v-0.2c0-0.2,0-0.2-0.2-0.4c-0.4-0.4-1.2-1.6-1.2-2.4c0-0.8,0.2-0.6,0.4-1c0,0.8,0.6,1.6,1,2
		c0.4,0.2,1.6,0.8,1.8,1.4c0,0.6-0.2,0.6-0.6,1.2c-0.2,0.4-1.4,1.6-1.8,1.8l-0.8,0.8L548.6,45.4L548.6,45.4z M563.7,33.1h1.2v1.2
		h-1.2V33.1L563.7,33.1z M518.3,33.4L518.3,33.4l0-0.4v-0.4h0c0.1-6.8,2.9-13,7.3-17.5c4.5-4.6,10.8-7.4,17.7-7.4
		c7,0,13.3,2.8,17.8,7.4c4.6,4.6,7.4,10.9,7.4,17.8c0,6.9-2.8,13.1-7.4,17.7c-4.6,4.5-10.9,7.3-17.8,7.3c-6.9,0-13.2-2.8-17.7-7.3
		C521.2,46.3,518.4,40.2,518.3,33.4L518.3,33.4z M526.2,15.7c-4.4,4.4-7.1,10.6-7.1,17.3c0,6.7,2.7,12.8,7.1,17.2
		c4.4,4.4,10.4,7.1,17.2,7.1c6.8,0,12.9-2.7,17.3-7.1c4.4-4.4,7.2-10.5,7.2-17.2c0-6.8-2.7-12.9-7.2-17.3
		c-4.4-4.4-10.6-7.2-17.3-7.2C536.6,8.6,530.5,11.3,526.2,15.7L526.2,15.7z"/>
	<path class="st0" d="M452.9,48.2c2.5,0.1,4.4,2.4,4.4,5v20.3c0,2.6-2,4.8-4.6,4.8c-2.8,0-4.8-2.2-4.8-4.8V53.2c0-2.5,2.1-4.9,4.6-5
		L452.9,48.2L452.9,48.2L452.9,48.2z M432.3,40.6c3.6-2.4,5.6-4,9.8-5.8c3-1.2,5-1.6,8.2-1.6c2.4,0,4.2,0,6,1.4
		c1.8,1.4,1.6,2.2,1.6,5.8v5.8c0,0-2.4-2.2-5-3.4c-1.4-0.6-3.4-1-5.2-1c-11.3,0-19.1,9.7-19.1,21.9c0,10.9,6.6,21.3,17.5,21.3
		c2.6,0,5.2-0.6,7-1.2c3.4-1.2,4.8-2.4,4.8-2.4v1.8h23.3v-5.4h-4.8V45.2c-0.6-10.3-3-11.1-7.6-14.3c-2.2-1.8-7-2.8-9-3
		c-2-0.2-4.2-0.4-6.2-0.4c-8,0-15.3,2.2-21.3,6.4V40.6L432.3,40.6z M397.5,30.9v3.6h5v43.2h-5V83h29.7v-5.4h-5V34.5h5v-5h-5V7.4
		L397.5,30.9L397.5,30.9z M484.6,10v5.4h4.4v62.5h-4.8v5.4h28.7v-5.4h-5V10H484.6L484.6,10z M389.7,40.6c0-9-7.6-12.9-16.9-12.9
		c-5.8,0-10.2,1.8-13.3,5.4v-3.6h-24.3v5h5v43.2h-5V83h29.3v-5.4h-5V40.2c0-3,2.6-5.4,5.4-5.4c3,0,5.6,2.4,5.6,5.4V83h24.3v-5.4h-5
		V40.6L389.7,40.6z M70.1,32.1c2.6,0,4.8,2.4,4.8,5v37.8c0,2.8-2.2,5-4.8,5c-2.8,0-5-2.2-5-5V37C65.1,34.5,67.3,32.1,70.1,32.1
		L70.1,32.1z M69.5,85.2c14.1,0,25.3-13.3,25.3-29.6c0-16.3-10.5-28.8-24.5-28.8v0h-0.1h-0.3v0c-14.2,0.1-25.6,12.6-25.6,28.8
		C44.2,71.9,55.3,85.2,69.5,85.2L69.5,85.2z M278.3,40.6c0-9-7.6-12.9-16.9-12.9c-5.8,0-10.1,1.8-13.1,5.4v-3.6h-24.3v5h5v43.2h-5
		V83h29.3v-5.4h-5V40.2c0-3,2.4-5.4,5.4-5.4c3,0,5.4,2.4,5.4,5.4V83h24.3v-5.4h-5V40.6L278.3,40.6z M159,30.9v3.6h5v43.2h-5V83h29.7
		v-5.4h-4.8V34.5h4.8v-5h-4.8V7.4L159,30.9L159,30.9z M151.3,40.6c0-9-7.6-12.9-16.9-12.9c-5.6,0-10.2,1.8-13.1,5.4v-3.6H96.9v5h5
		v43.2h-5V83h29.3v-5.4h-5V40.2c0-3,2.4-5.4,5.4-5.4c3,0,5.4,2.4,5.4,5.4V83h24.3v-5.4h-5V40.6L151.3,40.6z M93.4,29.5v-6.4
		L74.1,5.6v6C66.3,8,61.3,7,53,7C26.5,7.4,4.6,27.9,4.4,54.2C4,80.8,26.3,100.5,53,102.3c13.1,0.8,28.1-3.2,40-14.9v-6.6
		c-8.8,8.8-15.7,12.9-27.5,12.9c-20.3,0-34.8-17.9-35-38.2c-0.2-20.5,14.5-39,35-39.2C77.4,16.4,85.8,20.1,93.4,29.5L93.4,29.5z
		 M194.1,17.6c0-4.6,5-9.3,11.1-9.3c6.4,0,11.3,4.8,11.3,9.3c0,4.6-5,9.5-11.3,9.5C199,27.1,194.1,22.1,194.1,17.6L194.1,17.6z
		 M216,29.5h-24.3v5h5v43.2h-5V83h29.3v-5.4h-5V29.5L216,29.5z M308.7,32.7c2.6,0,5,2.4,5,5v15.7h-10V37.6
		C303.7,35.1,305.9,32.7,308.7,32.7L308.7,32.7z M303.7,67.3v-9.3h30.1c0-0.2,0.2-0.4,0.2-0.6c0-0.6,0-1.2,0-1.6
		c0-16.5-11.1-27.4-25.1-27.4v0h-0.1h-0.1v0c-14.1,0-25.2,11-25.2,27.4c0,16.3,11.1,29,25.3,29c11.5,0,23.3-8.2,24.9-20.7H328
		c0,0-2,15.1-16.7,14.9C306.9,79,303.5,75.6,303.7,67.3L303.7,67.3z"/>
</g>
</svg>
