<?xml version="1.0" encoding="UTF-8"?>
<svg xmlns="http://www.w3.org/2000/svg" version="1.1" viewBox="0 0 1193.9 267.1">
  <defs>
    <style>
      .cls-1 {
        fill: #fff;
      }

      .cls-2 {
        fill: #ff4501;
      }
    </style>
  </defs>
  <!-- Generator: Adobe Illustrator 28.6.0, SVG Export Plug-In . SVG Version: 1.2.0 Build 709)  -->
  <g>
    <g id="Capa_1">
      <g>
        <path class="cls-2" d="M86.3,212.3c8.2,10.2,15.6,19.5,23.1,28.5,8.2,9.8,19.1,14.9,31.5,14.9,43.6,0,87.3.2,130.9-1.1,21.7-.6,41.4-9.3,59-22.1,6.6-4.8,9.2-14.7,4.4-20.9-6-7.8-13.3-14.6-20.1-21.9-1.6,1.3-2.4,1.8-3.2,2.5-16.2,14.1-35,20.3-56.5,20.2-54.2-.3-108.3,0-162.5,0-1.8,0-3.6,0-6.7,0Z"/>
        <path class="cls-2" d="M315.4,78.1c5.4-5.8,10.5-11.4,15.8-16.9,9.2-9.3,8.1-20.5-2.5-28-20.6-14.3-43.6-21.3-68.5-21.6-39.1-.4-78.3-.2-117.4,0-14.5,0-26.5,5.7-35.5,17.3-5.8,7.5-11.8,14.8-17.7,22.3-.8,1-1.3,2.1-2.3,3.9,2.5,0,4.1,0,5.7,0,55.5,0,110.9-.2,166.4.2,8.5,0,17.1,2.1,25.4,4.3,11.4,3.1,21,9.8,30.7,18.6Z"/>
        <path class="cls-1" d="M896.3,105.2c-3.4-6.9-6.6-13.1-9.5-19.4-1.4-3.1-3.3-4.3-6.8-4.3-21.7.2-43.3,0-65,.1-4.8,0-9.7.2-14.4,1.1-16.5,2.9-24.8,13.9-24.4,31.8.3,17,9.1,28.1,25.5,29.8,12.2,1.3,24.6.8,36.9,1,10.3.2,20.7,0,31,.5,6.2.3,7.6,2.6,7.3,8.8-.3,5.4-2,7-7.9,7.4-1.5,0-3,0-4.5,0-27,0-54,0-81,0-1.9,0-3.8,0-6.4,0,3.9,7.7,7.2,14.6,10.8,21.3.7,1.2,2.9,2.2,4.4,2.2,25.8,0,51.7.2,77.5-.4,5.9-.1,12.3-2,17.5-4.9,12.3-6.9,14-19,12.8-31.7-1.3-13.3-9-22.2-22-25.1-3.9-.9-7.9-1.4-11.9-1.4-15-.2-30,0-45,0-5,0-10,0-15-.5-5.8-.7-6.2-2-6.4-8.5-.1-5.1,2.1-7.4,6.9-7.6,1.3,0,2.7,0,4,0,26.3,0,52.7,0,79,0,1.9,0,3.9,0,6.5,0Z"/>
        <path class="cls-1" d="M924,132.3v53h23.4v-29.2c2.3,0,4.1,0,5.9,0,17.7-.3,35.3-.4,53-1.1,8.8-.3,17.2-2.8,23.7-9.2,12.4-12.4,12.4-27.7,7.5-42.9-4.8-15-17.7-20.4-32.2-20.8-25-.7-50-.4-75-.4-1.3,0-3.2.7-3.7,1.6-3.7,7-7.2,14.1-11,21.9,5.3,0,9.8,0,14.2,0,24,0,48-.2,72,.2,4.2,0,9.7,1.2,12.3,3.9,4.1,4.4,3.1,11,1.3,16.7-1.5,4.7-5.9,5.3-9.8,5.4-22.8.5-45.6.7-68.4,1-4.1,0-8.3,0-13,0Z"/>
        <path class="cls-1" d="M482.2,92.1c-6.3-2.5-11.5-5.4-17-6.7-21.2-5.3-42.6-5.2-63.9-.7-18.8,3.9-30.9,15.5-33.9,34.8-1.3,8.3-1.2,16.9-.4,25.3,1.8,18.3,11.3,31.1,29.3,36.4,20.9,6.2,42.1,5.6,63.3,2.1,7.7-1.3,15.1-3.8,21.8-9-4.6-6.4-8.9-12.6-13.3-18.7-2.7,1.2-4.9,2.6-7.3,3.1-19.3,4.7-38.6,4.8-57.8,0-6.6-1.6-11.1-6.2-11.9-12.8-1-7.5-1.3-15.3-.5-22.8.9-8.4,6.1-13.8,14.7-15.5,21.2-4.1,42.1-4.7,63,3.4,4.2-5.8,8.5-11.9,13.7-19.2Z"/>
        <path class="cls-2" d="M14.3,149.9c4.7,5.9,9,11,13,16.3,9.5,12.4,21.7,18.3,37.5,18.2,43.2-.3,86.3,0,129.5,0,1.4,0,2.9-.2,5.1-.3-7.9-9.9-13-20.4-16.2-31.9-.3-1.1-3.2-2.1-4.8-2.1-45.8,0-91.6,0-137.5,0-8.5,0-17,0-26.6,0Z"/>
        <path class="cls-2" d="M199.5,83.4c-1.9-.2-2.7-.3-3.5-.3-45.3,0-90.6-.1-135.9.1-5,0-10.3,1.5-14.9,3.4-13.8,5.8-20.8,18.6-29.5,29.7-.1.1.2.6.3,1,.7,0,1.6.2,2.4.2,51.3,0,102.6,0,153.9,0,2.5,0,5.1.3,7.5-.1,1.4-.3,3.5-1.6,3.8-2.8,3.2-11.2,8.1-21.4,16-31.2Z"/>
        <path class="cls-2" d="M86.3,212.3c3.1,0,4.9,0,6.7,0,54.2,0,108.3-.2,162.5,0,21.4.1,40.3-6.1,56.5-20.2.7-.6,1.6-1.2,3.2-2.5,6.8,7.3,14.1,14.1,20.1,21.9,4.8,6.2,2.2,16.1-4.4,20.9-17.6,12.9-37.3,21.5-59,22.1-43.6,1.2-87.3,1.1-130.9,1.1-12.5,0-23.4-5.1-31.5-14.9-7.5-9.1-14.9-18.3-23.1-28.5Z"/>
        <path class="cls-2" d="M315.4,78.1c-9.7-8.8-19.3-15.5-30.7-18.6-8.3-2.2-16.9-4.2-25.4-4.3-55.5-.4-110.9-.2-166.4-.2-1.6,0-3.2,0-5.7,0,1.1-1.8,1.6-2.9,2.3-3.9,5.9-7.4,11.9-14.8,17.7-22.3,9-11.6,21.1-17.2,35.5-17.3,39.1-.2,78.3-.4,117.4,0,24.9.3,47.9,7.3,68.5,21.6,10.7,7.4,11.7,18.6,2.5,28-5.3,5.4-10.4,11.1-15.8,16.9Z"/>
        <path d="M896.3,105.2c-2.7,0-4.6,0-6.5,0-26.3,0-52.7,0-79,0-1.3,0-2.7,0-4,0-4.8.3-7.1,2.5-6.9,7.6.2,6.5.6,7.9,6.4,8.5,4.9.6,10,.5,15,.5,15,0,30,0,45,0,4,0,8,.5,11.9,1.4,13,3,20.7,11.8,22,25.1,1.2,12.8-.5,24.8-12.8,31.7-5.2,2.9-11.6,4.8-17.5,4.9-25.8.6-51.7.4-77.5.4-1.5,0-3.7-1-4.4-2.2-3.7-6.7-6.9-13.6-10.8-21.3,2.6,0,4.5,0,6.4,0,27,0,54,0,81,0,1.5,0,3,0,4.5,0,5.9-.4,7.6-2,7.9-7.4.3-6.3-1.1-8.5-7.3-8.8-10.3-.5-20.6-.3-31-.5-12.3-.2-24.7.3-36.9-1-16.4-1.7-25.2-12.8-25.5-29.8-.3-17.9,7.9-28.9,24.4-31.8,4.7-.8,9.6-1,14.4-1.1,21.7-.1,43.3,0,65-.1,3.6,0,5.4,1.1,6.8,4.3,2.9,6.3,6.1,12.5,9.5,19.4Z"/>
        <path d="M695.2,186.5c-7.9-1.4-19.2-2.3-29.9-5.5-15.4-4.6-25.1-15.8-27.5-31.8-1.4-9.6-1.7-19.7-.4-29.2,2.6-19.2,14.6-31,33.2-35.4,18.2-4.3,36.7-4.3,55-.2,21.6,5,34,20.1,35,42.2.3,7.4.2,15.1-1.3,22.3-3.9,19.8-16.9,31.6-37.9,35-7.5,1.2-15.2,1.5-26.3,2.5ZM697,162.6c7.4-.6,13.1-.7,18.6-1.6,9.1-1.3,17.9-4.1,19.9-14.5,1.4-7.2,1.4-14.8.9-22.2-.7-9.9-7.1-15.4-16.6-17.3-14.3-2.9-28.7-2.8-43.1,0-9.1,1.9-15.1,7.4-16.1,16.7-.7,6.5-.8,13.3,0,19.8,1.1,9.1,6.9,14.7,15.8,16.3,7.3,1.3,14.8,1.9,20.5,2.6Z"/>
        <path d="M558.8,81.1c7.6.7,15.3,1,22.8,2.3,24.3,4.1,38.2,19.8,39.2,44.4.3,6.9,0,14-1.3,20.8-3.4,18.7-15.2,30-33.4,34.2-18.6,4.3-37.4,4.4-55.9-.2-21.9-5.4-33.6-21.4-34-45.2-.1-6.1.2-12.4,1.3-18.4,4-20.1,16.6-32,37.4-35.6,7.8-1.3,15.9-1.6,23.9-2.4ZM558.6,162.8c0-.3,0-.6,0-.9,3.8,0,7.7.2,11.5,0,3.3-.2,6.6-.9,9.8-1.6,10.4-2.3,15.3-7.3,16.6-17.9.7-5.4.7-11,.1-16.4-1.3-11.5-6-16.5-17.3-18.9-13.2-2.9-26.5-2.7-39.6-.5-13.7,2.3-18.8,8.2-19.8,22.1-.3,4.3-.1,8.7.4,12.9,1.3,11,6,16.4,17,18.6,7,1.4,14.1,1.8,21.2,2.6Z"/>
        <path d="M1116.2,186.3c-7.7-.9-16.7-1.4-25.4-3.3-21.9-4.9-34.5-19.8-35.4-42.3-.4-8.5.2-17.4,2.1-25.7,3.8-16.2,15-26.1,30.8-30.1,19.8-4.9,40-5.1,59.7.4,17.8,4.9,28.4,17.2,30.7,35.4,1.1,8.8,1.2,18-.2,26.8-3.4,20.7-16.4,32.8-38.2,36.4-7.5,1.3-15.2,1.5-24.2,2.4ZM1115.9,162.6c7.2-.6,13-.8,18.8-1.5,13.3-1.7,19.8-7.6,21-19.3.6-5.6.5-11.3,0-16.9-.9-9.3-6.2-15.4-15.3-17.4-15-3.4-30-3.3-45-.1-9,1.9-14.8,7.6-15.7,17.1-.6,5.9-.7,12-.1,17.9.9,10.2,7,16.3,17.1,18,6.9,1.1,13.8,1.7,19.4,2.4Z"/>
        <path d="M924,132.3c4.7,0,8.9,0,13,0,22.8-.3,45.6-.5,68.4-1,4,0,8.3-.7,9.8-5.4,1.8-5.7,2.8-12.2-1.3-16.7-2.5-2.8-8.1-3.9-12.3-3.9-24-.4-48-.2-72-.2-4.4,0-8.9,0-14.2,0,3.9-7.8,7.3-14.9,11-21.9.5-1,2.4-1.6,3.7-1.6,25,0,50-.3,75,.4,14.5.4,27.4,5.8,32.2,20.8,4.9,15.2,4.8,30.4-7.5,42.9-6.4,6.5-14.9,8.9-23.7,9.2-17.6.7-35.3.8-53,1.1-1.8,0-3.6,0-5.9,0v29.2h-23.4v-53Z"/>
        <path d="M482.2,92.1c-5.2,7.3-9.5,13.3-13.7,19.2-20.9-8.1-41.8-7.5-63-3.4-8.6,1.7-13.9,7.1-14.7,15.5-.8,7.5-.4,15.3.5,22.8.8,6.6,5.3,11.1,11.9,12.8,19.2,4.8,38.6,4.7,57.8,0,2.4-.6,4.5-1.9,7.3-3.1,4.4,6.1,8.7,12.3,13.3,18.7-6.7,5.2-14.1,7.7-21.8,9-21.2,3.4-42.5,4.1-63.3-2.1-18-5.3-27.5-18.1-29.3-36.4-.8-8.4-.9-17,.4-25.3,3-19.3,15.1-30.8,33.9-34.8,21.3-4.5,42.7-4.6,63.9.7,5.5,1.4,10.7,4.2,17,6.7Z"/>
        <path class="cls-2" d="M14.3,149.9c9.6,0,18.1,0,26.6,0,45.8,0,91.6,0,137.5,0,1.7,0,4.5,1,4.8,2.1,3.2,11.5,8.3,22,16.2,31.9-2.3.2-3.7.3-5.1.3-43.2,0-86.3-.2-129.5,0-15.8.1-28-5.8-37.5-18.2-4-5.3-8.3-10.4-13-16.3Z"/>
        <path class="cls-2" d="M199.5,83.4c-8,9.8-12.8,20-16,31.2-.4,1.2-2.4,2.5-3.8,2.8-2.4.5-5,.1-7.5.1-51.3,0-102.6,0-153.9,0-.8,0-1.6-.1-2.4-.2-.2-.5-.4-.9-.3-1,8.7-11,15.7-23.9,29.5-29.7,4.7-2,9.9-3.4,14.9-3.4,45.3-.3,90.6-.2,135.9-.1.8,0,1.6.1,3.5.3Z"/>
      </g>
    </g>
  </g>
</svg>