<?xml version="1.0" encoding="UTF-8"?>
<svg xmlns="http://www.w3.org/2000/svg" version="1.1" viewBox="0 0 220 29.9">
  <!-- Generator: Adobe Illustrator 28.6.0, SVG Export Plug-In . SVG Version: 1.2.0 Build 709)  -->
  <g>
    <g id="Capa_1">
      <g id="b">
        <g id="c">
          <g>
            <path d="M53.1,14.9c0,8.2-6.7,14.9-14.9,14.9h0c-2.4,0-26.4-3.1-27.8-3.3C4.5,25.9,0,20.9,0,14.9S4.5,4,10.3,3.3h0S35.2,0,38.1,0h0c8.2,0,14.9,6.7,14.9,14.9ZM38.2,4c-2,0-17.8,2-27.4,3.3h0c-3.9.5-6.8,3.8-6.8,7.7s2.9,7.2,6.8,7.7h0c12.3,1.6,25.7,3.3,27.3,3.3h0c6,0,10.9-4.9,10.9-11s-4.8-10.9-10.8-11h-.1,0Z"/>
            <path d="M7.8,15c0,2.8,2.3,5.2,5.2,5.2s5.2-2.3,5.2-5.2-2.3-5.2-5.2-5.2-5.2,2.3-5.2,5.2Z"/>
            <path d="M30.3,15c0,4.1,3.3,7.5,7.5,7.5s7.5-3.3,7.5-7.5-3.3-7.5-7.5-7.5-7.5,3.3-7.5,7.5Z"/>
            <g>
              <path d="M68.9,22.4c-3.8,0-6.3-2.8-6.3-7.1s2.5-7.3,6.4-7.3,5.3,1.7,5.6,4.6h-1.1c-.5-2.4-2-3.7-4.5-3.7s-5.3,2.5-5.3,6.4,2.1,6.3,5.2,6.3,4.4-1.6,4.8-4.3h1.1c-.4,3.3-2.6,5.2-5.8,5.2h0Z"/>
              <path d="M83.9,9.3h-.4c-1.5,0-2.9.7-3.8,1.9s-1.1,2.3-1.1,4.9v5.9h-1.1v-13.7h1.1v3.6c.6-1.5,1.1-2.2,2.1-2.9.9-.6,1.8-.8,3.2-.8h0v1.1h0Z"/>
              <path d="M97.4,21.9c-.4,0-.7.1-1.1.1-1.3,0-1.6-.5-1.6-2.4v-.5c-1.1,2.3-2.8,3.3-5.3,3.3s-4.5-1.4-4.5-3.8,1.7-3.9,5.3-4.2l2.6-.2c1.5-.1,1.9-.5,1.9-1.8,0-2.4-1.2-3.5-3.9-3.5s-3.9,1.2-4.1,3.7h-1c.2-3,2.1-4.6,5.3-4.6s3.3.6,4.1,1.5c.6.7.8,1.3.8,3.2v7.1c0,1.2.2,1.5,1,1.5s.4,0,.7-.1v.9h0ZM91.7,15.1c-2.5.2-3.1.4-4,.8-1,.5-1.6,1.4-1.6,2.5,0,1.8,1.4,3,3.5,3s5.1-2,5.1-4.8v-2.4c-.5.5-1.1.7-3,.9h0Z"/>
              <path d="M100.6,11.3c.4-.9.7-1.3,1.1-1.8.9-1,2.3-1.6,3.9-1.6s3.1.6,3.9,1.7c.7.9.9,1.7.9,3.6v8.7h-1.1v-8.4c0-1.4-.1-2.1-.5-2.7-.6-1.2-1.9-1.9-3.5-1.9s-3.3.8-4,2.2c-.5,1-.8,2-.8,3.8v7.1h-1.1v-13.7h1.1v3Z"/>
              <path d="M119,13.4l6.4,8.6h-1.3l-5.9-7.8-3.1,2.6v5.2h-1V2.9h1v12.6c.3-.3.5-.4.6-.6.2-.2.4-.3.5-.4l7.3-6.3h1.5l-6,5.1h0Z"/>
              <path d="M128,11.5c.9-2.4,2.7-3.7,5.2-3.7,3.7,0,6,2.8,6,7.3s-2.3,7.3-6,7.3-4.3-1.1-5.3-3.7v3.3h-1V2.9h1.1v8.6ZM128,15.1c0,3.9,2,6.4,5.1,6.4s5-2.5,5-6.3-1.9-6.4-5.1-6.4-5.1,2.5-5.1,6.4h0Z"/>
              <path d="M148.7,9.3h-.4c-1.5,0-2.9.7-3.8,1.9s-1.1,2.3-1.1,4.9v5.9h-1.1v-13.7h1.1v3.6c.6-1.5,1.1-2.2,2.1-2.9.9-.6,1.8-.8,3.2-.8h0v1.1Z"/>
              <path d="M162.4,15.2c0,4.4-2.5,7.2-6.3,7.2s-6.3-2.8-6.3-7.2,2.5-7.3,6.4-7.3,6.3,2.9,6.3,7.3h0ZM150.8,15.1c0,3.9,2.1,6.3,5.3,6.3s5.2-2.5,5.2-6.3-2.1-6.4-5.2-6.4-5.3,2.5-5.3,6.3Z"/>
              <path d="M170.3,9.2h-2.9v9.3c0,2.1.3,2.6,1.8,2.6s.6,0,1.1-.1v1c-.6,0-.8,0-1.3,0-2.3,0-2.7-.6-2.7-4v-8.9h-2.5v-.9h2.5v-4.3h1.1v4.3h2.9v.9h0Z"/>
              <path d="M173.9,9.8v.7s0,.9,0,.9c.4-1,.7-1.5,1.3-2.1.9-.9,2.2-1.4,3.6-1.4s3.2.7,4.1,2c.6.9.8,1.7.8,3.3v8.8h-1.1v-8.6c0-1.7-.3-2.7-1.1-3.5-.7-.7-1.7-1.1-2.9-1.1-1.8,0-3.3.9-4,2.6-.5,1-.6,1.9-.6,3.6v7h-1.1V2.9h1.1v6.8h0Z"/>
              <path d="M192.8,22.4c-3.8,0-6.3-2.8-6.3-7.1s2.5-7.4,6.3-7.4,6,2.8,6,7.2v.2h-11.1c0,3.9,1.9,6.2,5.1,6.2s4.3-1.5,4.8-4.2h1.1c-.6,3.2-2.7,5.1-5.8,5.1h0ZM192.8,8.9c-1.7,0-3.3.9-4.2,2.3-.6,1-.7,1.6-.9,3.2h10c-.2-3.5-2-5.6-4.9-5.6Z"/>
              <path d="M208,9.3h-.4c-1.5,0-2.9.7-3.8,1.9-.9,1.2-1.1,2.3-1.1,4.9v5.9h-1.1v-13.7h1.1v3.6c.6-1.5,1.1-2.2,2.1-2.9.9-.6,1.8-.8,3.2-.8h0v1.1h0Z"/>
              <path d="M218.5,12.3c-.2-2.4-1.5-3.4-4.2-3.4s-3.8,1-3.8,2.7.7,2.1,4.3,2.9c1.9.4,2.7.7,3.5,1.1,1,.6,1.6,1.6,1.6,2.8,0,2.4-2.2,4-5.4,4s-5.6-1.7-5.6-5h1.1c0,1.3.2,1.8.7,2.4.7,1,2.1,1.6,3.9,1.6,2.6,0,4.3-1.2,4.3-3s-.9-2.2-4.2-3c-2.4-.5-3-.7-3.7-1.1-1-.5-1.5-1.5-1.5-2.7,0-2.3,1.9-3.7,4.9-3.7s5,1.4,5.2,4.4c0,0-1.1,0-1.1,0Z"/>
            </g>
          </g>
        </g>
      </g>
    </g>
  </g>
</svg>