<?xml version="1.0" encoding="UTF-8"?>
<svg xmlns="http://www.w3.org/2000/svg" version="1.1" viewBox="0 0 907.9 85.5">
  <defs>
    <style>
      .cls-1 {
        fill: #1d1d1b;
      }
    </style>
  </defs>
  <!-- Generator: Adobe Illustrator 28.6.0, SVG Export Plug-In . SVG Version: 1.2.0 Build 709)  -->
  <g>
    <g id="Capa_1">
      <g>
        <path class="cls-1" d="M92.2,76.9h-59.3c-6.3,0-10.2-5.2-8.6-11.5l11.3-45.2c1.6-6.3,8-11.5,14.4-11.5h59.3c6.4,0,10.2,5.2,8.6,11.5l-2.2,9h-16.4l2-8.1h-49.5l-10.9,43.5h49.5l2-8.1h16.4l-2.3,9c-1.6,6.3-7.9,11.5-14.4,11.5Z"/>
        <path class="cls-1" d="M274.4,76.9h-59.3c-6.3,0-10.2-5.2-8.6-11.5l11.3-45.2c1.6-6.3,8-11.5,14.4-11.5h59.3c6.4,0,10.2,5.2,8.6,11.5l-2.2,9h-16.4l2-8.1h-49.5l-10.9,43.5h49.5l2-8.1h16.4l-2.3,9c-1.6,6.3-7.9,11.5-14.4,11.5Z"/>
        <path class="cls-1" d="M212.4,8.7l-44.4,45.1-1,1-5.5,22.1h-16.4l5.5-22.1-.4-1-21.9-45.1h17.8l15.9,33,26.4-26.8-9.8-6.2h33.8Z"/>
        <path class="cls-1" d="M299.3,65.4l14.2-56.7h16.4l-13.5,54h66l-3.6,14.2h-70.9c-6.3,0-10.2-5.2-8.6-11.5Z"/>
        <path class="cls-1" d="M467.8,36.5l-3.1,12.4h-54.2l-4,15.7h65.9l-3.1,12.4h-70.8c-6.3,0-10.2-5.2-8.6-11.5l11.3-45.2c1.6-6.3,8-11.5,14.4-11.5h68.4l-3.1,12.4h-63.6l-3.8,15.4h54.2Z"/>
        <path class="cls-1" d="M687.3,36.5l-3.1,12.4h-54.2l-4,15.7h65.9l-3.1,12.4h-70.8c-6.3,0-10.2-5.2-8.6-11.5l11.3-45.2c1.6-6.3,8-11.5,14.4-11.5h68.4l-3.1,12.4h-63.6l-3.8,15.4h54.2Z"/>
        <path class="cls-1" d="M568.6,76.9h-23.2l-.5-2.7-3.2-17.3-11.7,17.3-2,2.7h-23.1l-12.6-68.2h17.8l10.3,55.6,16.6-24.3,1.2-1.8-4.1-22.5-1.4-7h16.3l5.5,29.5.3,1.8,4.5,24.3,33.8-49.4-9.8-6.2h31.9l-46.7,68.2Z"/>
        <path class="cls-1" d="M864.8,48.9h-13.1l17.6,28h-20.5l-17.7-28h-22s3.9-12.4,3.9-12.4h50.1l3.9-15.4h-49.5l-14,55.9h-16.4l17.1-68.2h70.8c6.4,0,10.2,5.2,8.6,11.5l-4.3,17.2c-1.6,6.3-7.9,11.5-14.4,11.5Z"/>
        <path class="cls-1" d="M760.9,76.9h17.8l-12.6-68.2h-24.7l-46.7,68.2h17.8l10.7-15.7h34.7l2.9,15.7ZM731.8,48.9l18.9-27.6,5,27.6h-23.9Z"/>
      </g>
    </g>
  </g>
</svg>