<?xml version="1.0" encoding="utf-8"?>
<!-- Generator: Adobe Illustrator 27.5.0, SVG Export Plug-In . SVG Version: 6.00 Build 0)  -->
<svg version="1.1" id="Capa_1" xmlns="http://www.w3.org/2000/svg" xmlns:xlink="http://www.w3.org/1999/xlink" x="0px" y="0px"
	 viewBox="0 0 1132 427" style="enable-background:new 0 0 1132 427;" xml:space="preserve">
<style type="text/css">
	.st0{fill:#4A72B2;}
</style>
<g>
</g>
<g>
	<path class="st0" d="M933.3,319.9c0,2.3-0.1,4.3,0,6.2c0.1,2-0.4,2.8-2.6,2.8c-15-0.1-30-0.1-45,0c-1.7,0-2.3-0.6-2.3-2.3
		c0.1-8.3,0.2-16.6,0.2-25c0-0.7-0.4-1.4-0.7-2.4c-2.8,3.2-5.1,6.1-7.6,8.8c-10.8,11.7-24,19.4-39.2,24c-10,3.1-20.3,4.5-30.6,4.3
		c-26.6-0.5-49.9-10-69.7-27.7c-17.5-15.6-29.1-34.9-35.8-57.2c-1.6-5.3-2.3-10.8-3.5-16.3c-0.4-1.8-0.8-3.5-1.2-5.3
		c-0.2,0-0.5,0-0.7,0c-0.1,1-0.3,2-0.4,2.9c-0.1,0.5,0,1,0,1.5c-0.3,4.8-0.7,5.2-5.4,5.2c-56.3,0-112.6,0-168.9,0
		c-2.4,0-2.8,0.6-1.9,2.9c7.6,19.8,21.6,32.9,41.9,38.9c9.1,2.7,18.4,3.1,27.9,1.7c11.1-1.6,21.5-4.9,30.9-11c3-1.9,5.5-4.5,8.4-6.7
		c0.8-0.6,1.8-1.3,2.8-1.3c18.8-0.1,37.6,0,56.5,0c0.3,0,0.6,0.1,1.5,0.2c-1.1,2.6-2,5.2-3.1,7.6c-9.4,19.8-24.2,34.6-42.5,46.2
		c-8.5,5.4-17.6,9.7-27.2,12.7c-6.3,2-12.8,3.1-19.3,4.3c-4.4,0.8-8.9,1.4-13.4,1.4c-6.4,0-12.8-0.5-19.1-1.2
		c-5.4-0.7-10.9-1.5-16-3.2c-7.5-2.4-14.9-5-22-8.4c-8.9-4.3-17.1-10-24.5-16.5c-8.5-7.5-15.9-16.1-22-25.7
		c-6-9.4-10.7-19.5-13.8-30.2c-1.5-5.3-2.5-10.8-3.3-16.3c-0.8-5.7-1.5-11.4-1.4-17.1c0.2-7.9,0.5-15.7,2.1-23.5
		c2.7-13.8,7.4-26.8,14.4-39c9.6-16.5,22.3-30.1,38.4-40.6c9.4-6.2,19.4-11,30.2-14.1c14.4-4.1,29.1-6.3,44.3-4.7
		c12.3,1.3,24,4,35.3,8.9c12.7,5.5,24,13.2,34,22.8c10.8,10.3,19.4,22.3,25.8,35.8c4,8.3,7.1,17,8.8,26.1c0.3,1.9,0.6,3.8,1,5.6
		c0.3,1.4,0.8,2.7,1.2,4.1c0.2,0,0.4-0.1,0.7-0.1c0.4-2.6,0.8-5.3,1.3-7.9c2.5-13.6,7.4-26.4,14.3-38.3c10-17.3,23.7-30.9,40.9-41.1
		c8.8-5.2,18-9.4,27.8-12.1c12-3.3,24.3-5.1,37-3.8c14.2,1.5,27.5,5.4,39.8,12.4c7.2,4.1,13.8,9.2,19.4,15.5
		c0.4,0.4,0.8,0.9,1.2,1.2c0.2,0.1,0.4,0.2,1,0.4c0.1-1,0.4-1.8,0.4-2.6c0-30.6,0-61.3,0-91.9c0-3.6,0-3.6,3.5-3.6
		c15.9,0,31.8,0,47.7-0.1c2.1,0,2.9,0.5,2.9,2.8c-0.1,26.7-0.1,53.5-0.1,80.2c0,0.9,0.2,1.7,0.3,2.9c3.6-2.1,6.7-4.1,10-5.8
		c9.8-5,20.1-8.5,31.1-10.2c11.2-1.8,22.4-2.4,33.5-0.7c9.9,1.5,19.4,4.4,28.3,9c12.6,6.4,23,15.5,31.5,26.7
		c0.5,0.7,1.2,1.3,2.2,2.4c0.2-1.5,0.4-2.2,0.4-3c0-8.5,0-17-0.1-25.5c0-2.3,0.6-3,2.9-3c14.5,0.1,29,0.1,43.5,0
		c2.4,0,2.9,0.8,2.9,3c0,73.4,0,146.9,0,220.3c0,2.1-0.7,2.6-2.7,2.6c-14.5-0.1-29-0.1-43.5,0c-2.4,0-3.2-0.6-3.1-3
		c0.2-7.8,0.1-15.7,0.1-23.5c0-1-0.4-2-0.6-3c-0.8,0.6-1.7,1.1-2.4,1.9c-9.7,11.9-21.9,20.6-36,26.5c-7.1,3-14.5,5.3-22,6.9
		c-8.8,1.9-17.8,2-26.8,1.3c-17.1-1.3-33.1-6.1-47.8-15.1C934.8,320.5,934.4,320.4,933.3,319.9z M1068.9,213.8
		c-0.2-1.8-0.7-5.4-1-8.9c-0.7-7.7-3-14.9-6.5-21.8c-10.2-20.3-26.9-31.9-49.2-34.5c-11.5-1.4-23.2-0.6-34.4,3.6
		c-17.8,6.8-30.1,19.1-37.4,36.5c-3.2,7.5-4.5,15.5-5.4,23.6c-0.6,5.5-0.2,10.9,0.7,16.1c1.3,8.1,4,15.8,8.4,23
		c10.4,17,25.6,27.3,45,31.1c9.9,1.9,19.8,1.6,29.7-0.6c13.6-3.1,25-9.8,34.1-20.4C1064,248.3,1068.5,232.6,1068.9,213.8z
		 M881.2,215.5C881.2,215.5,881.2,215.5,881.2,215.5c0.1-4.6,0.1-9.2,0.1-13.7c0-0.7,0-1.5-0.2-2.2c-3.8-14.2-11-26.2-22.4-35.7
		c-9.3-7.8-20-12.7-32-14.7c-10-1.7-19.9-1.5-29.6,1.5c-13,4-23.8,11.4-32.5,21.8c-10.2,12.3-15.8,26.4-15.8,42.5
		c0,9.6,2,18.8,5.8,27.5c10.5,24,28.7,37.9,54.7,40.8c15.2,1.7,29.4-2,42.3-10.3c11.2-7.2,19.5-17,25-29.1
		c3.1-6.7,5.4-13.7,4.5-21.4C881,220.2,881.2,217.9,881.2,215.5z M578.9,192.3C578.9,192.3,578.9,192.3,578.9,192.3c19,0,38,0,57,0
		c6.4,0,6.6-0.2,3.9-6c-10.2-22.2-27.9-34.5-51.8-37.7c-11.8-1.6-23.5,0-34.7,4.9c-16.7,7.3-29.4,18.5-36.1,35.9
		c-1,2.5-0.5,3.1,2.2,3.1C539.3,192.3,559.1,192.3,578.9,192.3z"/>
	<path class="st0" d="M6.2,17.8c1.1-0.1,1.7-0.2,2.3-0.2c80.1,0,160.3,0,240.4,0c12.2,0,24.2,1.5,36.1,3.9
		c22.7,4.5,43.9,12.8,63.7,24.8c27.1,16.5,49.2,38.2,66,65.1c9.3,14.9,16.6,30.7,21.6,47.5c3.2,10.5,5.5,21.2,7,32.1
		c1.7,12.7,2.4,25.5,1.4,38.3c-0.8,9.7-1.8,19.4-3.9,28.9c-2.1,9.8-5.1,19.4-8.4,28.9c-6.2,18.3-15.8,35-27.4,50.4
		c-14.8,19.7-32.7,36-53.5,49.2c-15.2,9.6-31.4,17-48.5,22.1c-7.6,2.3-15.5,3.7-23.2,5.3c-13.9,2.9-28,3.1-42.2,3.1
		c-29.5-0.1-59,0-88.5,0c-3.9,0-3.9,0-3.9-4c0-10.8,0.1-21.6-0.1-32.5c0-2.3,0.7-3,3-3c32.6,0.1,65.1,0.1,97.7,0
		c13.5,0,26.5-2.8,38.9-8.2c19.6-8.5,35-21.9,46.1-40.1c5.8-9.4,9.8-19.6,12.3-30.3c2.4-10.2,3-20.7,1.9-31
		c-2.7-26-13.7-48-33.2-65.5c-11.6-10.4-25-17.7-40-21.9c-9.2-2.5-18.5-3.8-28-3.8c-38.2,0-76.5,0-114.7,0.1c-3.4,0-5.8-0.9-8.2-3.4
		c-11.2-11.5-22.6-22.8-34-34.2c-0.4-0.4-0.7-0.9-1.4-1.6c0.9-0.1,1.5-0.3,2.1-0.3c51.6,0,103.1,0,154.7,0.1
		c7.7,0,15.5,0.3,23.1,1.4c14.7,2.1,28.8,6.5,42.1,13.2c13.7,6.8,25.9,15.7,36.7,26.5c14.4,14.4,25.2,31.3,32.2,50.5
		c3.5,9.6,5.8,19.5,7.2,29.6c1.5,10.9,0.9,21.7,0.7,32.6c0,1.6-0.5,3.1-0.8,4.7c0.3,0.1,0.5,0.2,0.8,0.3c0.6-0.8,1.2-1.6,1.7-2.5
		c5.2-9.6,9.5-19.5,12.6-30c3.3-11.1,5.4-22.5,6.4-34.1c0.9-9.9,0.5-19.8-0.4-29.6c-0.6-6.7-2.3-13.4-3.6-20
		c-2.7-13.5-7.9-26.1-14.3-38.3c-6.4-12-14.2-23-23.4-33.1c-9.9-10.9-21.2-20.1-33.7-28c-9.9-6.2-20.3-11.4-31.5-14.9
		c-7.7-2.4-15.6-4.3-23.5-6.1c-9.9-2.3-20-3-30.1-2.9c-65.1,0.1-130.3,0-195.4,0.1c-3,0-5-0.9-7.1-3C30.5,42.3,18.7,30.7,6.9,19
		C6.7,18.8,6.6,18.4,6.2,17.8z"/>
</g>
</svg>
