<?xml version="1.0" encoding="UTF-8"?>
<svg xmlns="http://www.w3.org/2000/svg" version="1.1" viewBox="0 0 1417.4 267.1">
  <!-- Generator: Adobe Illustrator 28.6.0, SVG Export Plug-In . SVG Version: 1.2.0 Build 709)  -->
  <g>
    <g id="Capa_1">
      <g>
        <path d="M407.2,247.6c14.5-19.9,29-39.8,43.6-59.6,41.4-56.2,82.8-112.3,124.1-168.6,2.3-3.1,4.6-4.4,8.6-4.4,99.8.1,199.6,0,299.4.1,16.5,0,33,.6,49,5.5,2.7.8,5.4,1.7,8,2.9,21.3,9.6,28.3,30.2,16.5,50.4-4.4,7.6-9.9,14.6-15.1,21.7-37.3,50.7-74.6,101.4-112,152h-81c.7-1.3,1.4-2.6,2.3-3.8,35.3-47.7,70.6-95.3,105.9-142.9,4.3-5.7,8.7-11.4,12.2-17.7,8.7-16,3.1-26.5-15-27.6-16.4-.9-33-.5-49.5-.9-3.2,0-5.1,1-7,3.6-46.6,63.1-93.2,126.2-139.9,189.3h-81c.8-1.2,1.6-2.5,2.5-3.7,44.9-61,89.9-122,134.8-183.1,1.1-1.6,2.2-3.2,3.6-5.2-1.7-.2-2.8-.4-3.9-.4-26.7,0-53.3-.1-80,.2-2.3,0-5.2,2-6.6,4-45.4,61.3-90.6,122.7-135.8,184.2-1,1.3-1.7,2.8-2.6,4.2h-81Z"/>
        <path d="M16.2,246.6c1.2-1.3,2.5-2.5,3.6-4C74.6,168.4,129.3,94.1,184,19.8c2.4-3.3,4.9-4.6,9-4.6,78.1.1,156.3,0,234.4,0,15,0,30,.9,44.5,5.4,13.7,4.3,24.8,11.5,28.6,26.5,1.9,7.2,1.3,14.4-1.9,21-3,6.3-6.4,12.5-10.5,18-25.8,35.2-52.5,69.7-77.7,105.4-19.1,27-45,42.5-76.3,49.9-11.9,2.8-24.3,3.6-36.5,5.2-2.5.3-4.9.6-7.4,1-89.8,0-179.7,0-269.5,0-1.5,0-3-.6-4.5-1ZM126.6,207.4c1.6,0,2.5.2,3.5.2,41.8,0,83.7.6,125.5-.2,39.7-.7,71.9-18.3,96.6-48.9,17.9-22.2,34.7-45.2,51.6-68.1,3.4-4.6,5.9-10.1,7.7-15.5,2.6-8-.6-14.5-8.7-17-5.6-1.7-11.7-2.6-17.6-2.6-47.2-.2-94.3,0-141.5-.2-4,0-6.3,1.3-8.6,4.5-35.1,47.8-70.3,95.5-105.5,143.2-.9,1.3-1.8,2.7-3,4.5Z"/>
        <path d="M968.2,247.6c47-63.8,93.9-127.6,141.6-192.3h-134.1c1.1-1.9,1.7-3,2.4-4,8.1-11,16.2-22,24.5-32.8,1.3-1.6,4-3.1,6-3.1,109.2-.1,218.3-.1,327.5-.1,1,0,2,.1,3.8.2-1,1.6-1.7,2.8-2.5,3.9-7.9,10.8-15.9,21.4-23.6,32.3-2,2.8-4.2,3.7-7.5,3.6-37,0-74,0-111-.1-3.3,0-5.4.8-7.5,3.6-45.5,61.9-91,123.7-136.6,185.5-.8,1.1-1.4,2.2-2.1,3.4h-81Z"/>
        <g>
          <path d="M1379,23.7c1.5-.3,3.5-.5,5.5-.5,3.1,0,5.1.6,6.4,1.8,1.1,1,1.8,2.5,1.8,4.2,0,2.9-1.9,4.9-4.2,5.7h0c1.7.7,2.7,2.3,3.3,4.6.7,3.1,1.3,5.3,1.7,6.1h-3c-.4-.6-.9-2.5-1.5-5.3-.7-3.1-1.9-4.2-4.5-4.3h-2.7v9.6h-2.9v-22ZM1381.9,33.8h2.9c3.1,0,5-1.7,5-4.2s-2.1-4.1-5.1-4.2c-1.4,0-2.4.1-2.8.3v8.1Z"/>
          <path d="M1385.9,54.5c-11.1,0-20.1-9-20.1-20.1s9-20.1,20.1-20.1,20.1,9,20.1,20.1-9,20.1-20.1,20.1ZM1385.9,16.3c-10,0-18.1,8.1-18.1,18.1s8.1,18.1,18.1,18.1,18.1-8.1,18.1-18.1-8.1-18.1-18.1-18.1Z"/>
        </g>
      </g>
    </g>
  </g>
</svg>