<?xml version="1.0" encoding="UTF-8"?>
<svg version="1.1" xmlns="http://www.w3.org/2000/svg" width="3333" height="3333">
<path d="M0 0 C2.515625 2.2578125 2.515625 2.2578125 5.25 5.125 C8.43928253 8.42034447 11.63018561 11.64949538 15.125 14.625 C18.88306177 17.83085678 22.31766456 21.30149587 25.78515625 24.81640625 C27.77659461 26.77974671 29.81302578 28.62079669 31.9375 30.4375 C36.03058303 33.9446944 39.77224704 37.75725158 43.55859375 41.58984375 C46.27202727 44.26854532 49.10777023 46.74608118 52.00390625 49.22265625 C55.06803813 51.95099285 57.90481832 54.89667908 60.78515625 57.81640625 C62.77659461 59.77974671 64.81302578 61.62079669 66.9375 63.4375 C71.03058303 66.9446944 74.77224704 70.75725158 78.55859375 74.58984375 C81.27202727 77.26854532 84.10777023 79.74608118 87.00390625 82.22265625 C90.06803813 84.95099285 92.90481832 87.89667908 95.78515625 90.81640625 C97.77659461 92.77974671 99.81302578 94.62079669 101.9375 96.4375 C106.03058303 99.9446944 109.77224704 103.75725158 113.55859375 107.58984375 C116.27202727 110.26854532 119.10777023 112.74608118 122.00390625 115.22265625 C125.06803813 117.95099285 127.90481832 120.89667908 130.78515625 123.81640625 C132.77659461 125.77974671 134.81302578 127.62079669 136.9375 129.4375 C141.03058303 132.9446944 144.77224704 136.75725158 148.55859375 140.58984375 C151.27202727 143.26854532 154.10777023 145.74608118 157.00390625 148.22265625 C160.06803813 150.95099285 162.90481832 153.89667908 165.78515625 156.81640625 C167.77659461 158.77974671 169.81302578 160.62079669 171.9375 162.4375 C176.02715494 165.94175702 179.76666958 169.74964508 183.546875 173.58203125 C185.71514384 175.71922617 187.93066621 177.71783676 190.25 179.6875 C193.92751279 182.82684019 196.9440509 186.25646236 200 190 C195.80893001 189.31251833 192.09880379 187.98414294 188.1484375 186.4375 C187.13818008 186.04377197 187.13818008 186.04377197 186.10751343 185.64208984 C183.86171887 184.76548367 181.61836182 183.8828115 179.375 183 C177.76084972 182.36821478 176.14658925 181.73671101 174.53222656 181.10546875 C160.81251782 175.73479283 147.1130198 170.31239743 133.41479492 164.88720703 C118.18313698 158.85564443 102.93691577 152.86150737 87.6875 146.875 C71.1619564 140.38690806 54.63823962 133.8943538 38.125 127.375 C37.35417084 127.07076111 36.58334167 126.76652222 35.78915405 126.45306396 C34.32135009 125.8736598 32.85369701 125.29387321 31.38621521 124.71365356 C30.03811017 124.18168423 28.68915641 123.65185926 27.33924866 123.1244812 C24.55399367 122.03301384 21.79882627 120.90970309 19.06933594 119.68457031 C13.77915797 117.33315737 9.68327293 116.18036103 4 118 C-0.45461098 119.7155812 -4.75368215 121.69853262 -9.0625 123.75 C-9.67404938 124.03767242 -10.28559875 124.32534485 -10.91567993 124.62173462 C-22.42096202 130.03856609 -33.52088162 136.07036431 -44.48095703 142.52148438 C-46.7988508 143.88193841 -49.12824355 145.21889056 -51.46484375 146.546875 C-72.09021567 158.34475994 -91.63957971 172.09386229 -110.35253906 186.71582031 C-112.02944345 188.02295088 -113.71343704 189.32051572 -115.3984375 190.6171875 C-127.47051271 199.94963379 -138.91615526 209.97207356 -150.11328125 220.33203125 C-152.03821649 222.11109859 -153.97317833 223.87937801 -155.91796875 225.63671875 C-165.77950564 234.56030232 -175.57145781 243.7264956 -184.171875 253.890625 C-186.16144299 256.18628037 -188.22216871 258.40286204 -190.29614258 260.62207031 C-195.26314455 265.94007273 -200.05012242 271.33580579 -204.60546875 277.015625 C-206.38240685 279.23027542 -208.17495802 281.42492381 -209.98828125 283.609375 C-218.11233973 293.42980104 -225.68667491 303.56366374 -233 314 C-233.54156738 314.7724707 -234.08313477 315.54494141 -234.64111328 316.34082031 C-252.40783125 341.78516662 -268.0183413 368.29773256 -282 396 C-282.52207031 397.03334473 -283.04414062 398.06668945 -283.58203125 399.13134766 C-319.70406907 471.14471684 -341.63358459 550.63537033 -347 631 C-347.05784668 631.80824219 -347.11569336 632.61648438 -347.17529297 633.44921875 C-350.71716883 684.31770297 -346.999508 736.04641387 -337 786 C-336.78649902 787.08200684 -336.57299805 788.16401367 -336.35302734 789.27880859 C-331.51048624 813.45534877 -324.78845222 837.36254077 -316.25 860.5 C-315.9099292 861.42965576 -315.5698584 862.35931152 -315.21948242 863.31713867 C-309.13834522 879.18243562 -299.32249866 891.38824905 -284 899 C-252.73059511 912.49999782 -221.06288754 906.18409075 -189.04483032 899.45797729 C-175.75901908 896.67199557 -162.52746227 894.28266129 -149 893 C-147.59790283 892.8618689 -147.59790283 892.8618689 -146.16748047 892.72094727 C-109.35164431 889.33782184 -73.86088488 895.20164589 -39 907 C-38.13826172 907.29132812 -37.27652344 907.58265625 -36.38867188 907.8828125 C-17.04129683 914.52329086 1.58060175 923.14879923 20 932 C19.96519531 930.87207031 19.93039062 929.74414062 19.89453125 928.58203125 C19.56967565 913.00403318 21.71435334 898.03797787 24.66796875 882.765625 C24.97124704 880.23949522 25.03293398 877.86731522 25.02075195 875.32714844 C25.01775589 874.51679138 25.01475983 873.70643433 25.01167297 872.871521 C25.00782089 872.25391907 25.00396881 871.63631714 25 871 C24.33839874 870.80034637 23.67679749 870.60069275 22.99514771 870.39498901 C16.67203108 868.48633439 10.349687 866.5751431 4.02813911 864.66129875 C0.78039147 863.67813721 -2.46761811 862.69586234 -5.71630859 861.71582031 C-20.21317683 857.34046294 -34.67693371 852.91837822 -49 848 C-47.89041597 844.6712479 -47.07455496 843.98510301 -44.4375 841.8125 C-40.0521458 838.09159341 -36.02501771 834.10363134 -32 830 C-27.41389591 825.32432356 -22.76333823 820.82474907 -17.79931641 816.54980469 C-15.55584977 814.61744021 -13.37277106 812.62274342 -11.1875 810.625 C-6.89391368 806.74966257 -2.46911998 803.0777869 2.02734375 799.44140625 C5.33751354 796.72280425 8.57496035 793.92916467 11.8125 791.125 C16.53516203 787.04592407 21.33485234 783.09488684 26.25 779.25 C26.83177002 778.78964355 27.41354004 778.32928711 28.01293945 777.85498047 C30.59192729 775.82500139 33.16178632 773.89155944 35.890625 772.0625 C43.12952592 767.03428139 45.67584872 761.09272849 48.33544922 753.00634766 C49.01239062 750.96259142 49.73469746 748.9404325 50.47265625 746.91796875 C51.67486809 743.62101249 52.845914 740.31416731 54 737 C52.70787598 736.59382446 52.70787598 736.59382446 51.38964844 736.17944336 C48.05160675 735.0179568 44.9539029 733.65106903 41.765625 732.12890625 C40.55103605 731.5533539 39.33635097 730.97800438 38.12158203 730.40283203 C37.17390961 729.9520932 37.17390961 729.9520932 36.20709229 729.49224854 C21.63959117 722.57172009 6.9120736 716.14699073 -8 710 C-6.07724552 705.69083187 -3.09552316 703.34487054 0.5625 700.5 C1.22725342 699.97664063 1.89200684 699.45328125 2.5769043 698.9140625 C10.18121349 692.98729174 18.04398398 687.44161473 26 682 C26.69931641 681.52095215 27.39863281 681.0419043 28.11914062 680.54833984 C37.10130057 674.42131246 46.23053018 668.53290255 55.4375 662.75 C56.92636719 661.81196533 56.92636719 661.81196533 58.4453125 660.85498047 C63.98676675 657.39596675 69.58185543 654.08440551 75.2890625 650.91015625 C77.11931156 649.87769097 78.94844483 648.84327244 80.77737427 647.80847168 C82.50701409 646.84345714 84.25515275 645.9118334 86.00366211 644.98144531 C94.24449608 640.32404016 97.83427223 635.37914113 102 627 C102.84863575 625.60892154 103.71800925 624.23004937 104.6171875 622.87109375 C104.99617188 622.29166016 105.37515625 621.71222656 105.765625 621.11523438 C106.52851295 619.96150066 107.29154167 618.80786003 108.0546875 617.65429688 C109.71975572 615.10755191 111.03230595 612.90308216 112 610 C111.484375 609.77828125 110.96875 609.5565625 110.4375 609.328125 C107.03603839 607.47476451 104.06301292 605.10401017 101 602.75 C88.00981225 592.90172337 74.78526507 583.29442421 60.671875 575.10693359 C59.06578211 574.14871516 57.52430085 573.0836161 56 572 C56 571.01 56 570.02 56 569 C84.36184919 554.95810408 112.86975936 541.68512025 142.3125 530.0625 C143.36150482 529.64679245 143.36150482 529.64679245 144.43170166 529.22268677 C150.8233171 526.69471553 157.19703508 524.18762818 163.76953125 522.16015625 C175.69746499 518.44207335 184.70140667 512.40159563 192 502 C193.15937348 499.70073224 194.16323587 497.38306497 195.13452148 494.99902344 C196.88553868 490.95464296 199.93092218 488.08216557 203 485 C203.51175781 484.46503906 204.02351563 483.93007813 204.55078125 483.37890625 C213.16068547 475.15356351 225.08028901 472.22256964 236.1875 468.9375 C237.36320557 468.58929199 238.53891113 468.24108398 239.75024414 467.88232422 C244.9641992 466.36604855 250.15408318 464.91960613 255.46875 463.80078125 C265.35137931 461.69905023 265.35137931 461.69905023 272.375 454.6875 C273.25176884 453.06577722 274.1273843 451.44323275 274.97607422 449.80664062 C276.9684436 446.29125354 279.48673677 443.14167406 281.9375 439.9375 C282.71552979 438.90846558 282.71552979 438.90846558 283.50927734 437.85864258 C287.86379895 432.11871613 292.35530226 426.50828476 297 421 C297.44811035 420.46697266 297.8962207 419.93394531 298.35791016 419.38476562 C307.79661729 408.17969469 317.54593805 397.32073031 327.9921875 387.04296875 C329.90610173 385.09554241 331.67602099 383.08509957 333.4375 381 C336.80863331 377.06830873 340.57024589 373.711079 344.453125 370.29296875 C346.93198623 368.06123326 349.2850717 365.75123754 351.625 363.375 C354.93523669 360.02418248 358.33982654 356.87033653 361.9140625 353.8046875 C364.25025501 351.78348724 366.52964851 349.70621161 368.8125 347.625 C373.05088843 343.80402862 377.39879103 340.15752669 381.8359375 336.5703125 C384.2128481 334.64819539 386.56675943 332.70034731 388.9140625 330.7421875 C397.70554444 323.41918184 406.63576393 316.36460021 415.85205078 309.58447266 C418.18828381 307.86110913 420.51433709 306.12452569 422.83984375 304.38671875 C431.04287131 298.27446972 439.21071677 292.25381874 448 287 C464.75603883 307.64149712 478.10548591 334.63418387 478.1328125 361.703125 C478.13410156 362.9303125 478.13539062 364.1575 478.13671875 365.421875 C478.13285156 366.68515625 478.12898438 367.9484375 478.125 369.25 C478.13080078 371.168125 478.13080078 371.168125 478.13671875 373.125 C478.13542969 374.34703125 478.13414063 375.5690625 478.1328125 376.828125 C478.13112061 378.4972998 478.13112061 378.4972998 478.12939453 380.20019531 C478 383 478 383 477 386 C476.34 386 475.68 386 475 386 C473.7734375 384.2421875 473.7734375 384.2421875 472.375 381.875 C468.56730804 375.94881276 463.50339086 371.76205789 457 369 C450.19358889 368.01486155 444.12048731 369.40035589 438.33642578 373.04956055 C432.82787186 377.3280729 430.03369044 382.73257585 426.91741943 388.87826538 C425.65761338 391.36271757 424.36499009 393.82959821 423.07418823 396.29804993 C422.40188418 397.58435899 421.73126421 398.87154959 421.06228638 400.15959167 C417.46416818 407.07531535 413.67981224 413.88396159 409.875 420.6875 C409.26011719 421.78989014 408.64523437 422.89228027 408.01171875 424.02807617 C406.86769261 426.0782632 405.72288908 428.12801672 404.57714844 430.17724609 C402.37750284 434.114135 400.18771479 438.05647171 398 442 C417.486201 435.71612323 436.77939317 429.35846134 455.52832031 421.08007812 C457.84769905 420.06655268 460.17948884 419.09568264 462.5234375 418.140625 C484.83249351 408.95637551 504.4752863 393.22009185 519 374 C519.77730469 372.98808594 520.55460937 371.97617187 521.35546875 370.93359375 C540.75050425 345.11111111 554.71030363 313.4711085 562 282 C562.66 282 563.32 282 564 282 C569.0807373 292.70272153 572.3817109 303.46226451 575 315 C575.24878906 316.08667969 575.49757813 317.17335938 575.75390625 318.29296875 C581.06325625 346.39910823 574.31724545 374.98348403 558.4375 398.5625 C545.10409034 415.88030747 527.87248706 428.38135053 509 439 C508.32614258 439.38478516 507.65228516 439.76957031 506.95800781 440.16601562 C486.61306715 451.69198572 464.72340674 459.81264499 442.69046021 467.44146729 C432.68706666 470.91569235 423.21233367 474.76412934 414 480 C413.10539062 480.48597656 412.21078125 480.97195313 411.2890625 481.47265625 C378.64141318 499.95925894 357.1832098 531.56026875 339.5 563.625 C338.99525146 564.53725342 338.49050293 565.44950684 337.97045898 566.3894043 C335.19861016 571.4925214 332.89440608 576.50878239 331 582 C331.47308594 581.52167725 331.94617187 581.04335449 332.43359375 580.55053711 C334.61964406 578.3434466 336.80979129 576.14046367 339 573.9375 C340.11568359 572.80924805 340.11568359 572.80924805 341.25390625 571.65820312 C346.00225163 566.88921277 350.8865388 562.37291407 356 558 C357.08304131 557.05063021 358.16512358 556.10016486 359.24609375 555.1484375 C367.51776251 547.93420446 376.09002543 541.19626732 384.86523438 534.60693359 C386.95372361 533.03483431 389.03256084 531.45075977 391.109375 529.86328125 C420.85229206 507.206643 453.51580724 488.1717487 488.5 474.875 C489.29559326 474.56715576 490.09118652 474.25931152 490.91088867 473.94213867 C491.65185791 473.66990479 492.39282715 473.3976709 493.15625 473.1171875 C494.12788086 472.75536377 494.12788086 472.75536377 495.11914062 472.38623047 C497.43719381 471.91022318 498.80469657 472.13463263 501 473 C506.42965671 482.02680427 508.83669137 492.79362085 511 503 C511.19464844 503.9178125 511.38929687 504.835625 511.58984375 505.78125 C513.67662788 522.15753687 512.41301292 538.73092162 506 554 C504.906875 553.505 503.81375 553.01 502.6875 552.5 C494.7525987 549.5751422 487.11738848 550.23113973 479.47265625 553.671875 C475.01716313 556.06503086 470.99109738 558.90311884 467 562 C466.31035156 562.53496094 465.62070313 563.06992188 464.91015625 563.62109375 C449.45891144 576.37984441 438.61771693 595.69169154 429 613 C428.54544434 613.81726562 428.09088867 614.63453125 427.62255859 615.4765625 C407.51103876 652.01536492 393.22731634 691.54947228 380 731 C378.68 731 377.36 731 376 731 C374.25087975 729.0726447 372.79911447 727.239811 371.3125 725.125 C370.43044788 723.92330439 369.54497712 722.72411122 368.65625 721.52734375 C368.2128125 720.92905762 367.769375 720.33077148 367.3125 719.71435547 C364.14634168 715.57879674 360.52349292 711.8287296 357 708 C355.87042342 706.71233369 354.74520909 705.42082382 353.625 704.125 C348.86036281 698.650736 343.91806048 693.33605116 339 688 C333.3826905 706.73482553 329.6986762 726.51843051 328 746 C327.91121582 746.96019043 327.82243164 747.92038086 327.73095703 748.90966797 C320.37113386 832.12655559 331.02264686 915.40881693 423 1156 C423.54350098 1156.9993457 424.08700195 1157.99869141 424.64697266 1159.02832031 C433.68979414 1175.60475783 443.12729241 1191.90369835 453 1208 C453.92014893 1209.50191895 453.92014893 1209.50191895 454.85888672 1211.03417969 C467.8494528 1232.17589022 481.52945142 1252.84254495 496 1273 C497.05734393 1274.48173354 498.1146342 1275.96350537 499.171875 1277.4453125 C506.57594118 1287.79078093 514.19882321 1297.9510687 522 1308 C522.47147461 1308.6079541 522.94294922 1309.2159082 523.42871094 1309.84228516 C536.46565593 1326.62191591 549.91446139 1343.08766799 564 1359 C560.7170627 1353.34140989 557.41881792 1347.69350307 554.0625 1342.078125 C546.38752972 1329.21720526 539.04416761 1316.21679622 532 1303 C531.5064502 1302.07606445 531.01290039 1301.15212891 530.50439453 1300.20019531 C511.74839436 1264.9831042 495.44871396 1228.57219999 482 1191 C481.60038055 1189.88492065 481.60038055 1189.88492065 481.19268799 1188.74731445 C458.10348363 1124.15694643 438.03060991 1053.64749965 435.625 984.625 C435.57601563 983.64789062 435.52703125 982.67078125 435.4765625 981.6640625 C436.20934375 977.93453402 437.93660867 977.15500148 441 975 C443.69140625 973.74194336 443.69140625 973.74194336 446.5625 972.65234375 C452.99137277 970.07667357 458.94862571 966.91570998 465 963.5625 C552.3903641 915.95177566 634.56231792 894.97911922 732.96582031 915.79443359 C742.0921587 917.71565675 750.76362631 918.21347858 760.07910156 918.24023438 C762.10003791 918.24988085 764.11992858 918.28095742 766.140625 918.3125 C786.54889616 918.39237582 806.67128284 912.49714642 821.77001953 898.29052734 C828.31013234 891.57284195 832.27697527 883.94763712 835.375 875.1875 C835.74802246 874.15979492 836.12104492 873.13208984 836.50537109 872.07324219 C850.07194741 834.10500055 859.31609148 795.17212631 864.25 755.1875 C864.40106201 753.97618408 864.55212402 752.76486816 864.70776367 751.5168457 C867.3490741 728.79382936 868.38213001 706.05372229 868.3125 683.1875 C868.31100952 681.96074554 868.30951904 680.73399109 868.3079834 679.47006226 C868.26116089 657.86409496 867.37063291 636.47595549 865 615 C864.92503296 614.31562866 864.85006592 613.63125732 864.77282715 612.92614746 C863.73769649 603.58324411 862.47323005 594.28402793 861 585 C860.83306641 583.94232422 860.66613281 582.88464844 860.49414062 581.79492188 C851.74077949 528.16800826 832.74000851 474.54629239 809.27832031 425.68017578 C808.12629892 423.2648032 807.00409416 420.83920242 805.8984375 418.40234375 C784.63195969 371.68413666 754.96071935 327.07578424 721.6328125 288.10546875 C719.11661783 285.15579651 716.68107031 282.14529582 714.25 279.125 C711.25860148 275.44696374 708.16973111 272.03698723 704.75317383 268.75415039 C703.13067042 267.1307432 701.66539726 265.4607375 700.19140625 263.703125 C694.92996623 257.65066331 689.19825522 252.04936206 683.52124023 246.39086914 C681.56704376 244.4420313 679.61824853 242.48790728 677.66992188 240.53320312 C671.61772234 234.4774283 665.56929142 228.50047433 659 223 C657.90491756 222.05101456 656.81114024 221.10052073 655.71875 220.1484375 C615.08915692 185.06208733 570.87776893 155.44039213 522.375 132.3125 C521.6948584 131.98548096 521.0147168 131.65846191 520.31396484 131.3215332 C514.14517902 128.37135665 514.14517902 128.37135665 507.52845764 128.61401367 C506.6593425 128.96181885 505.79022736 129.30962402 504.89477539 129.66796875 C503.39528099 130.25705017 503.39528099 130.25705017 501.86549377 130.85803223 C500.78710739 131.29675659 499.70872101 131.73548096 498.59765625 132.1875 C497.46565292 132.6362146 496.3336496 133.0849292 495.16734314 133.54724121 C492.09897687 134.76612629 489.03550931 135.99608897 485.97363281 137.23110962 C482.76421094 138.52232998 479.54887853 139.79865213 476.33398438 141.07617188 C471.20963019 143.11420821 466.08822998 145.15947092 460.96923828 147.2109375 C453.04305791 150.38595302 445.10245112 153.52349421 437.15719604 156.65039062 C434.9740723 157.5102116 432.79172118 158.37196462 430.60961914 159.234375 C421.26483596 162.92751753 411.91492989 166.60751479 402.5625 170.28125 C401.37749908 170.74675766 400.19249817 171.21226532 398.97158813 171.69187927 C392.90408788 174.07501406 386.8360081 176.45666024 380.76708984 178.83618164 C369.84560892 183.1199753 358.93011078 187.41668704 348.0390625 191.77734375 C346.24353797 192.49426182 344.44796676 193.211063 342.65234375 193.92773438 C339.37812161 195.23460333 336.10797814 196.55103994 332.83984375 197.87304688 C331.40640965 198.44571229 329.9728261 199.01800379 328.5390625 199.58984375 C327.89611237 199.8532103 327.25316223 200.11657684 326.59072876 200.38792419 C325.08257326 200.98446812 323.54313251 201.50086101 322 202 C321.34 201.67 320.68 201.34 320 201 C333.91020997 186.91395873 333.91020997 186.91395873 340.14453125 181.63671875 C343.17099557 178.96705865 345.95209943 176.05539322 348.78515625 173.18359375 C350.77659461 171.22025329 352.81302578 169.37920331 354.9375 167.5625 C358.1103592 164.84380752 361.06338382 161.97248325 364 159 C367.54232199 155.41441301 371.17555661 152.05108338 375.00390625 148.77734375 C377.26132626 146.76731223 379.37735713 144.65167047 381.5 142.5 C384.22829407 139.73439592 386.98516834 137.08712969 389.9375 134.5625 C393.1103592 131.84380752 396.06338382 128.97248325 399 126 C402.54232199 122.41441301 406.17555661 119.05108338 410.00390625 115.77734375 C412.26132626 113.76731223 414.37735713 111.65167047 416.5 109.5 C419.22829407 106.73439592 421.98516834 104.08712969 424.9375 101.5625 C428.1103592 98.84380752 431.06338382 95.97248325 434 93 C437.54232199 89.41441301 441.17555661 86.05108338 445.00390625 82.77734375 C447.26132626 80.76731223 449.37735713 78.65167047 451.5 76.5 C454.22829407 73.73439592 456.98516834 71.08712969 459.9375 68.5625 C463.1103592 65.84380752 466.06338382 62.97248325 469 60 C472.54232199 56.41441301 476.17555661 53.05108338 480.00390625 49.77734375 C482.26132626 47.76731223 484.37735713 45.65167047 486.5 43.5 C489.22829407 40.73439592 491.98516834 38.08712969 494.9375 35.5625 C499.02359489 32.06129345 502.75935677 28.25591269 506.5390625 24.4296875 C509.36424948 21.64037591 512.2979322 19.03042353 515.3359375 16.4765625 C517.16749519 14.93538333 517.16749519 14.93538333 519 12.5 C521 11 521 11 524.671875 11.26904297 C528.67617809 11.8618267 532.40393284 12.91925697 536.25 14.1953125 C537.26809753 14.53119888 537.26809753 14.53119888 538.3067627 14.87387085 C540.54101041 15.61512258 542.77071565 16.36896124 545 17.125 C545.77722412 17.38643799 546.55444824 17.64787598 547.35522461 17.91723633 C576.38061951 27.69436631 605.04966269 38.46136795 633 51 C634.02399902 51.45826172 635.04799805 51.91652344 636.10302734 52.38867188 C643.09766108 55.53107544 650.05806072 58.74297865 657 62 C658.01126953 62.47405273 659.02253906 62.94810547 660.06445312 63.43652344 C683.25063626 74.34466805 705.86544835 86.04981203 727.88720703 99.15673828 C731.10038642 101.05944451 734.32773048 102.93609137 737.55859375 104.80859375 C752.74880671 113.64914325 767.43595548 123.04571453 781.95996094 132.93261719 C784.73953408 134.82286979 787.52787804 136.6991373 790.3203125 138.5703125 C800.17850296 145.20393459 809.69682024 152.1885428 819.06591797 159.49511719 C821.46565734 161.36232161 823.88037992 163.20944051 826.29589844 165.05615234 C832.26340688 169.62319554 838.16054721 174.27060293 844 179 C845.27230469 180.02673828 845.27230469 180.02673828 846.5703125 181.07421875 C857.16794086 189.67899863 867.51132367 198.55712737 877.5703125 207.78515625 C879.60515415 209.64006817 881.66321247 211.45428798 883.75 213.25 C895.28116004 223.30061986 906.19699377 234.03228669 916.99169922 244.86132812 C919.023262 246.89832421 921.06021836 248.92981951 923.09765625 250.9609375 C924.41959207 252.28353317 925.74121817 253.60643849 927.0625 254.9296875 C927.65740234 255.52256561 928.25230469 256.11544373 928.86523438 256.72628784 C932.53834183 260.4196476 936.02042373 264.23597312 939.42044067 268.18232727 C941.83382559 270.95952207 944.35824754 273.62937517 946.875 276.3125 C951.31465293 281.08410895 955.51659141 285.9816799 959.59765625 291.06640625 C962.44961208 294.54903849 965.40833002 297.92769715 968.375 301.3125 C974.05365428 307.81606048 979.45283239 314.49414351 984.71777344 321.33544922 C985.94404246 322.92735748 987.1788552 324.51267342 988.4140625 326.09765625 C1005.64805619 348.29975561 1022.03056767 371.20720816 1037 395 C1037.49532227 395.78487793 1037.99064453 396.56975586 1038.50097656 397.37841797 C1051.78026013 418.47074611 1064.28718303 439.99959821 1076 462 C1076.8034082 463.50409424 1076.8034082 463.50409424 1077.62304688 465.03857422 C1098.36863962 504.01826 1116.28297933 544.36133188 1131 586 C1131.50187303 587.40731319 1132.0040005 588.81453567 1132.50634766 590.22167969 C1143.37248533 620.73392615 1152.65985059 651.55845343 1159.6875 683.1875 C1159.86052643 683.96579163 1160.03355286 684.74408325 1160.21182251 685.54595947 C1163 698.18936482 1163 698.18936482 1163 703 C1162.34 703 1161.68 703 1161 703 C1159.84594727 701.64575195 1159.84594727 701.64575195 1158.56640625 699.73828125 C1158.08792236 699.03783691 1157.60943848 698.33739258 1157.11645508 697.61572266 C1156.34724731 696.47562744 1156.34724731 696.47562744 1155.5625 695.3125 C1150.89077037 688.53485383 1145.9711786 682.17402105 1140.5703125 675.96875 C1138.20494784 673.23671787 1135.93955726 670.4504593 1133.6875 667.625 C1123.93741504 655.71390145 1112.98302762 644.88851435 1102.125 634 C1101.58520508 633.45752625 1101.04541016 632.91505249 1100.48925781 632.35614014 C1094.50686979 626.35124997 1088.47099158 620.48321905 1082 615 C1080.9165482 614.05109869 1079.83446788 613.10062868 1078.75390625 612.1484375 C1072.30963734 606.52858678 1065.72584393 601.13786288 1058.9375 595.9375 C1058.22343994 595.3894873 1057.50937988 594.84147461 1056.77368164 594.27685547 C1053.28008046 591.62630876 1049.78777078 589.22193595 1046 587 C1046.44166504 587.71728271 1046.88333008 588.43456543 1047.33837891 589.17358398 C1091.70327097 661.36548554 1126.98057128 737.8306269 1151.62176514 1146.94717407 C1123.44281488 1263.39350942 1123.44281488 1263.39350942 1092 1291 C1090.34234875 1291.37560779 1088.67531436 1291.71327597 1087 1292 C1087.06993164 1291.41138184 1087.13986328 1290.82276367 1087.21191406 1290.21630859 C1098.02802353 1198.76627696 1101.64502901 1107.63976952 1017 821 C1018.93160269 828.7694415 1020.87638164 836.53507151 1022.86724854 844.28956604 C1035.5741084 893.81049439 1045.83030471 943.89777995 1050.78710938 994.83966064 C1051.00108676 997.01102802 1051.22636103 999.18100841 1051.453125 1001.35107422 C1056.58575916 1051.40990342 1056.58799795 1103.98595555 1051 1154 C1050.91278687 1154.80004456 1050.82557373 1155.60008911 1050.73571777 1156.42437744 C1041.12913691 1244.35241564 1015.89647658 1328.73263508 965.32324219 1429.65039062 C964.05886328 1431.89547968 962.82476042 1434.15413711 961.6015625 1436.421875 C935.11946184 1485.34456481 901.45154214 1531.5721785 864.03515625 1572.75 C862.22622457 1574.74989375 860.45108199 1576.77269432 858.6875 1578.8125 C848.76167868 1590.16247387 838.25376599 1600.90588377 827.58056641 1611.54980469 C825.23613323 1613.88883481 822.89715129 1616.23322197 820.55859375 1618.578125 C819.04459166 1620.09146687 817.5302797 1621.60449881 816.015625 1623.1171875 C815.32897766 1623.80585907 814.64233032 1624.49453064 813.93487549 1625.20407104 C810.00248941 1629.1177155 805.96923627 1632.85667571 801.76307678 1636.47503662 C799.17706451 1638.71179344 796.68941918 1641.04454102 794.1875 1643.375 C789.53961458 1647.6687538 784.75583652 1651.7353184 779.82421875 1655.703125 C777.33750906 1657.7255113 774.89673716 1659.79204745 772.46728516 1661.88256836 C764.91500488 1668.36835828 757.06262155 1674.41675667 749.11132812 1680.40332031 C747.13223921 1681.89999486 745.16597803 1683.41181633 743.203125 1684.9296875 C735.13809123 1691.12774728 726.83001008 1696.90781062 718.375 1702.5625 C717.3430249 1703.25384033 716.3110498 1703.94518066 715.24780273 1704.6574707 C714.26626221 1705.30804443 713.28472168 1705.95861816 712.2734375 1706.62890625 C711.40122559 1707.20713135 710.52901367 1707.78535645 709.63037109 1708.38110352 C706.82907651 1710.10519711 703.96090949 1711.57043673 701 1713 C702.56232021 1709.32043709 704.83584082 1706.83484207 707.5625 1703.9375 C711.78687008 1699.38841347 715.76622039 1694.69797313 719.6640625 1689.86328125 C721.71753384 1687.3462336 723.81512778 1684.8749594 725.93554688 1682.41430664 C732.13907598 1675.19775444 737.85149924 1667.67178515 743.50146484 1660.01757812 C744.9414688 1658.07880447 746.39823152 1656.15426864 747.86328125 1654.234375 C801.68718204 1583.57963701 841.16617571 1502.8759259 890 1307 C889.44054688 1307.92296875 888.88109375 1308.8459375 888.3046875 1309.796875 C871.91619218 1336.565913 853.00487295 1362.07685159 832.60546875 1385.92578125 C830.24135813 1388.69699155 827.96156042 1391.52927189 825.6875 1394.375 C821.402493 1399.64826087 816.80695987 1404.59381939 812.13549805 1409.52294922 C809.27094371 1412.54780708 806.46408949 1415.59914939 803.74829102 1418.75878906 C800.18265642 1422.84436308 796.43708401 1426.7078961 792.59765625 1430.53515625 C791.91626083 1431.21750839 791.23486542 1431.89986053 790.53282166 1432.60289001 C789.10294259 1434.03344437 787.67182089 1435.46275767 786.23950195 1436.89086914 C784.06802289 1439.05699074 781.90193675 1441.22840174 779.73632812 1443.40039062 C778.33625798 1444.79979987 776.93587762 1446.19889884 775.53515625 1447.59765625 C774.89844498 1448.23639175 774.2617337 1448.87512726 773.60572815 1449.53321838 C769.788899 1453.33056264 765.85983103 1456.94456589 761.77996826 1460.45814514 C759.18961138 1462.70197972 756.69521821 1465.0391394 754.1875 1467.375 C749.61702095 1471.59274087 744.9306113 1475.6095264 740.08203125 1479.5078125 C737.76835882 1481.37869084 735.47813421 1483.26731879 733.19921875 1485.1796875 C723.51482544 1493.28595135 713.56461954 1500.91429071 703.32910156 1508.31054688 C701.11309378 1509.91796552 698.91035023 1511.54185338 696.7109375 1513.171875 C670.55214099 1532.46496395 642.66367337 1549.6870652 614 1565 C613.0399707 1565.51353027 612.07994141 1566.02706055 611.09082031 1566.55615234 C537.63607125 1605.65524184 458.41791189 1632.32569763 321.75 1652.3125 C320.41015549 1652.43460342 320.41015549 1652.43460342 319.04324341 1652.55917358 C297.74782268 1654.46908453 276.50363906 1655.23832893 255.125 1655.25 C253.99648621 1655.25067474 252.86797241 1655.25134949 251.70526123 1655.25204468 C230.67830167 1655.23227659 209.90231112 1654.26502396 189 1652 C188.25238403 1651.91985657 187.50476807 1651.83971313 186.73449707 1651.75714111 C149.18544559 1647.68920894 111.98541936 1640.53200763 75 1633 C82.351788 1656.35003225 95.14381652 1676.36488013 112 1694 C112.64582031 1694.70898438 113.29164063 1695.41796875 113.95703125 1696.1484375 C155.44762627 1740.09832209 223.13114832 1754.77120275 281 1757 C287.29093678 1757.17581021 293.58198542 1757.19579281 299.875 1757.1875 C301.16525085 1757.18659363 301.16525085 1757.18659363 302.48156738 1757.18566895 C388.4837684 1757.02385488 481.89469322 1742.95394956 555 1695 C553.50001938 1691.12024244 551.78457225 1687.38152458 550 1683.625 C547.05282777 1677.25623269 544.88028406 1672.08718373 545 1665 C545.66491455 1664.75056641 546.3298291 1664.50113281 547.01489258 1664.24414062 C584.70192235 1650.00646325 621.3207812 1632.76550507 656.20117188 1612.60449219 C659.04314296 1610.97526731 661.90089702 1609.37789511 664.765625 1607.7890625 C678.17168984 1600.34162495 691.17399787 1592.40570251 704 1584 C704.91620117 1583.39978027 705.83240234 1582.79956055 706.77636719 1582.18115234 C718.87190123 1574.23296222 730.87560298 1566.16612067 742.4140625 1557.421875 C742.96505615 1557.00462158 743.5160498 1556.58736816 744.08374023 1556.1574707 C745.58487301 1555.01556775 747.0797836 1553.86549815 748.57421875 1552.71484375 C751 1551 751 1551 754 1550 C751.93539317 1555.40696193 749.16143161 1560.28613758 746.3125 1565.3125 C745.74088135 1566.32143311 745.1692627 1567.33036621 744.58032227 1568.36987305 C723.57345231 1605.12408991 699.34739788 1640.6848031 672.37646484 1673.32373047 C670.53388938 1675.56763312 668.73538319 1677.84520998 666.9375 1680.125 C658.57437924 1690.59205051 649.67352477 1700.56887528 640.53076172 1710.35595703 C638.93156937 1712.07349471 637.34159031 1713.79916507 635.75390625 1715.52734375 C635.21958984 1716.10863037 634.68527344 1716.68991699 634.13476562 1717.28881836 C633.12117018 1718.39196906 632.10810845 1719.49561049 631.09570312 1720.59985352 C629.73842513 1722.07393482 628.36940682 1723.53717937 627 1725 C625.824375 1726.40765625 625.824375 1726.40765625 624.625 1727.84375 C621.10310313 1730.73673672 618.94835897 1730.6058266 614.4375 1730.5 C613.73657227 1730.48445068 613.03564453 1730.46890137 612.31347656 1730.45288086 C605.40438827 1730.18950528 598.56915698 1728.89572697 592.16113281 1726.23706055 C588.86282306 1725.87525996 587.52984259 1727.44083797 584.96875 1729.453125 C579.28717114 1733.78966165 573.4546525 1737.79934537 567.5 1741.75 C566.45537598 1742.44391846 565.41075195 1743.13783691 564.33447266 1743.8527832 C492.9899877 1791.09116683 417.53673771 1826.75800406 331.875 1837.25 C330.86845871 1837.37462616 330.86845871 1837.37462616 329.84158325 1837.50177002 C312.78893539 1839.58719672 295.85261764 1840.21007121 278.6875 1840.1875 C277.75525604 1840.18656342 276.82301208 1840.18562683 275.86251831 1840.18466187 C211.11162424 1840.04530043 146.85333551 1831.4265732 85 1812 C83.62739014 1811.57533447 83.62739014 1811.57533447 82.22705078 1811.14208984 C12.21882156 1789.3660854 -50.12839548 1749.78752733 -101.875 1698.25 C-102.67188232 1697.45779053 -103.46876465 1696.66558105 -104.28979492 1695.84936523 C-109.06495264 1691.0611839 -113.62622638 1686.15684532 -118 1681 C-118.53753906 1680.36916504 -119.07507812 1679.73833008 -119.62890625 1679.08837891 C-159.80295365 1631.61105666 -216 1551.59411841 -216 1487 C-216.59151855 1486.72615479 -217.18303711 1486.45230957 -217.79248047 1486.17016602 C-219.92217135 1485.04125555 -221.51413957 1483.86115673 -223.3203125 1482.27734375 C-223.93318115 1481.74318848 -224.5460498 1481.2090332 -225.17749023 1480.65869141 C-225.82016846 1480.09069824 -226.46284668 1479.52270508 -227.125 1478.9375 C-227.79152588 1478.35403809 -228.45805176 1477.77057617 -229.14477539 1477.16943359 C-233.65059324 1473.21658023 -238.12487345 1469.22893649 -242.55859375 1465.1953125 C-244.64287038 1463.32113095 -246.74590905 1461.47382661 -248.859375 1459.6328125 C-260.72391833 1449.2625268 -271.91307472 1438.18923068 -283.0625 1427.0625 C-283.65076569 1426.47682251 -284.23903137 1425.89114502 -284.84512329 1425.28771973 C-290.57893008 1419.57381262 -296.27431256 1413.87866165 -301.5300293 1407.71508789 C-303.89212806 1404.95910984 -306.39212807 1402.33422476 -308.875 1399.6875 C-313.43389415 1394.79175582 -317.73997673 1389.7535236 -321.9296875 1384.53515625 C-323.84887884 1382.18505214 -325.8335899 1379.93139815 -327.875 1377.6875 C-332.1899435 1372.88648579 -336.12713638 1367.82040923 -340.0859375 1362.7265625 C-342.00334406 1360.26243073 -343.94455923 1357.82112413 -345.9140625 1355.3984375 C-353.66170544 1345.8640618 -360.89344745 1336.01914318 -368 1326 C-368.56912109 1325.20045898 -369.13824219 1324.40091797 -369.72460938 1323.57714844 C-371.40227514 1321.21988586 -373.07704233 1318.86060583 -374.75 1316.5 C-375.52053711 1315.41356201 -375.52053711 1315.41356201 -376.30664062 1314.30517578 C-379.88058757 1309.23882487 -379.88058757 1309.23882487 -381 1307 C-373.80577449 1393.22332968 -341.27222456 1480.14274627 -289 1576 C-288.38253906 1577.06331543 -287.76507812 1578.12663086 -287.12890625 1579.22216797 C-274.75079257 1600.49471595 -262.12284784 1621.68249679 -247.25146484 1641.32470703 C-245.09028126 1644.21780921 -243.02043439 1647.17535755 -240.9375 1650.125 C-236.5397341 1656.3174901 -231.96858614 1662.35895974 -227.29296875 1668.34375 C-225.96189128 1670.048816 -224.63707817 1671.75863179 -223.3125 1673.46875 C-217.07746609 1681.49157537 -210.61729583 1689.29080642 -204 1697 C-202.88006369 1698.30846996 -201.76027701 1699.617068 -200.640625 1700.92578125 C-197.763718 1704.28669685 -194.88287008 1707.64419835 -192 1711 C-192.33 1711.66 -192.66 1712.32 -193 1713 C-204.67439093 1706.11404128 -215.81289128 1698.77400488 -226.69824219 1690.70019531 C-229.04076653 1688.96988777 -231.39727565 1687.26032224 -233.7578125 1685.5546875 C-243.86964239 1678.22230074 -253.61037026 1670.5492989 -263.17822266 1662.52197266 C-265.66098221 1660.44779374 -268.17386948 1658.41159115 -270.6875 1656.375 C-281.86920196 1647.2171355 -292.6193413 1637.68289672 -303.12646484 1627.76025391 C-304.94523997 1626.05144902 -306.77637215 1624.35724682 -308.61328125 1622.66796875 C-315.88909954 1615.96539675 -322.99353281 1609.10910612 -330 1602.125 C-330.78922852 1601.34036377 -331.57845703 1600.55572754 -332.39160156 1599.74731445 C-336.52249502 1595.60543925 -340.48203324 1591.38038098 -344.29785156 1586.94726562 C-347.22346727 1583.60034783 -350.31117537 1580.40735457 -353.375 1577.1875 C-358.39843503 1571.86842418 -363.21784452 1566.47707193 -367.77734375 1560.75 C-369.8757784 1558.15369422 -372.03774166 1555.63362791 -374.23144531 1553.1184082 C-380.96300951 1545.39009632 -387.19918531 1537.3447872 -393.36328125 1529.16015625 C-394.96733969 1527.04310537 -396.58916524 1524.94119608 -398.21875 1522.84375 C-411.39975897 1505.85355955 -423.47128145 1488.14562762 -435 1470 C-435.52948242 1469.16919922 -436.05896484 1468.33839844 -436.60449219 1467.48242188 C-479.99690753 1399.16244878 -511.18281896 1323.87647555 -543.25 1165 C-543.40122314 1163.71633545 -543.55244629 1162.4326709 -543.70825195 1161.11010742 C-544.18956481 1156.74350456 -544.61239699 1152.37579448 -545 1148 C-545.08720306 1147.02487457 -545.17440613 1146.04974915 -545.26425171 1145.04507446 C-547.04392027 1124.43415221 -547.36380074 1103.91401919 -547.31805801 1083.23965073 C-547.31241402 1080.64801725 -547.30959584 1078.05639033 -547.30697632 1075.4647522 C-547.2714806 1051.3058471 -546.98295054 1027.2844209 -544.25323486 1003.25402832 C-543.98487559 1000.86537857 -543.73125939 998.47546537 -543.47998047 996.08496094 C-537.7995565 942.47208265 -526.62803161 890.24928587 -512.60491943 838.24743652 C-511.62219072 834.59633809 -510.64892682 830.9427247 -509.67578125 827.2890625 C-509.35134033 826.0717041 -509.02689941 824.8543457 -508.69262695 823.60009766 C-508.46406006 822.74206543 -508.23549316 821.8840332 -508 821 C-554.17294605 899.62898845 -577.50814474 990.34658864 -586 1091 C-586.05220703 1091.70564087 -586.10441406 1092.41128174 -586.15820312 1093.13830566 C-591.00284521 1159.74839618 -586.49704575 1225.89516977 -578 1292 C-580.8308637 1289.37008922 -582.71240852 1287.05479295 -584.33984375 1283.5546875 C-584.96451538 1282.21349854 -584.96451538 1282.21349854 -585.60180664 1280.84521484 C-586.04258545 1279.86504395 -586.48336426 1278.88487305 -586.9375 1277.875 C-587.40986084 1276.83166504 -587.88222168 1275.78833008 -588.36889648 1274.71337891 C-623.17579635 1196.433302 -641.25290959 1111.24962564 -595.94873047 716.30517578 C-590.37828702 702.01901911 -584.37107636 687.9461203 -578 674 C-577.70953796 673.36322327 -577.41907593 672.72644653 -577.11981201 672.07037354 C-562.06182971 639.09368167 -545.48662806 606.61117818 -526 576 C-538.81013661 585.29362852 -550.62075357 595.98693207 -562.34375 606.59765625 C-564.06577131 608.15507259 -565.7945611 609.70505036 -567.53125 611.24609375 C-574.68155387 617.66698444 -581.5098712 624.40187918 -588.3125 631.1875 C-588.78844604 631.66085785 -589.26439209 632.1342157 -589.75476074 632.62191772 C-594.82967046 637.67506408 -599.78866286 642.76822599 -604.45092773 648.20581055 C-606.84734433 650.98142372 -609.3669271 653.63820662 -611.875 656.3125 C-617.17355919 662.01464912 -622.13212182 667.92488803 -627 674 C-628.13541507 675.39168963 -629.27223739 676.78223185 -630.41015625 678.171875 C-631.60677144 679.63541617 -632.80338602 681.09895784 -634 682.5625 C-634.5767749 683.26608643 -635.1535498 683.96967285 -635.74780273 684.69458008 C-636.28477783 685.35353271 -636.82175293 686.01248535 -637.375 686.69140625 C-637.85710938 687.28123291 -638.33921875 687.87105957 -638.8359375 688.47875977 C-640.08370236 690.01041949 -640.08370236 690.01041949 -641 692 C-641.66 692 -642.32 692 -643 692 C-639.00247062 662.76806643 -630.80980191 634.09782052 -622 606 C-621.77654907 605.28604065 -621.55309814 604.5720813 -621.32287598 603.83648682 C-610.41202764 569.08345055 -597.34580013 535.03865924 -582 502 C-581.37470623 500.64515508 -580.74972079 499.29016782 -580.125 497.93505859 C-568.1592581 472.00943828 -555.35646636 446.6976979 -541 422 C-540.34821777 420.87770996 -539.69643555 419.75541992 -539.02490234 418.59912109 C-527.86379614 399.44389311 -515.86978708 380.91837363 -503.42333984 362.57617188 C-501.33773424 359.50243369 -499.26943765 356.41749096 -497.20703125 353.328125 C-490.42381732 343.21538844 -483.16217101 333.56855165 -475.59863281 324.02783203 C-473.2622469 321.06417574 -470.97580755 318.06330742 -468.6875 315.0625 C-462.06421414 306.4435987 -455.12308817 298.10353395 -448.07739258 289.8293457 C-445.24193779 286.49348757 -442.48025541 283.11058338 -439.75 279.6875 C-435.30646967 274.22099866 -430.51697547 269.11239653 -425.66699219 264.00854492 C-422.3246117 260.49116835 -419.0404916 256.9362517 -415.81665039 253.30957031 C-411.38278154 248.37590499 -406.78571754 243.64039209 -402.08984375 238.95703125 C-401.27810196 238.14433273 -400.46636017 237.33163422 -399.63002014 236.49430847 C-397.92962282 234.79323649 -396.22798554 233.09340311 -394.52514648 231.39477539 C-391.93683345 228.81183484 -389.35392439 226.22357659 -386.77148438 223.63476562 C-385.10709146 221.97103335 -383.44238846 220.30761121 -381.77734375 218.64453125 C-380.63482399 217.49897514 -380.63482399 217.49897514 -379.46922302 216.33027649 C-375.34960105 212.22841554 -371.14720572 208.28593709 -366.73629761 204.4981842 C-364.15712647 202.27271695 -361.68021963 199.94688989 -359.1875 197.625 C-354.56566169 193.35480741 -349.80576052 189.31774627 -344.90234375 185.37109375 C-341.61035835 182.68167903 -338.4001898 179.90803185 -335.1875 177.125 C-328.29660516 171.18554025 -321.20923611 165.54648265 -314 160 C-313.21173828 159.3910791 -312.42347656 158.7821582 -311.61132812 158.15478516 C-300.68261707 149.72103308 -289.660239 141.47519099 -278.31396484 133.61181641 C-275.75817752 131.83155603 -273.21678549 130.03176144 -270.67578125 128.23046875 C-195.31713948 75.00595187 -110.79002742 35.53100592 -23.8125 5.5 C-22.8429538 5.16209442 -21.87340759 4.82418884 -20.8744812 4.4760437 C-18.13500522 3.52441103 -15.39087904 2.58783694 -12.64453125 1.65625 C-11.41765091 1.22784569 -11.41765091 1.22784569 -10.16598511 0.79078674 C-9.40971832 0.53820602 -8.65345154 0.28562531 -7.87426758 0.02539062 C-7.21912674 -0.1980603 -6.5639859 -0.42151123 -5.88899231 -0.6517334 C-3.57978515 -1.07747347 -2.19632219 -0.80876147 0 0 Z M1015 818 C1016 820 1016 820 1016 820 Z " fill="#000000" transform="translate(1405,466)"/>
<path d="M0 0 C0.77128235 0.05091797 1.5425647 0.10183594 2.33721924 0.15429688 C91.16350283 6.04328077 179.56943746 21.84542854 293 57 C293.7307373 57.23914124 294.46147461 57.47828247 295.21435547 57.72467041 C330.51784867 69.28630792 365.10899279 82.79326989 399 98 C400.03253906 98.46180664 401.06507812 98.92361328 402.12890625 99.39941406 C437.54190288 115.28956836 472.42901323 132.49849439 506 152 C507.16428798 152.67367554 508.32868058 153.34717027 509.49316406 154.02050781 C512.62992233 155.83541333 515.76322414 157.65617016 518.89422607 159.48098755 C520.65874257 160.50931677 522.42431361 161.53583589 524.18994141 162.56225586 C540.6177807 172.19071029 556.55458005 182.58478923 572.38891602 193.15405273 C575.06180836 194.93703864 577.73876969 196.71379433 580.41601562 198.49023438 C591.80568657 206.06953484 602.96638956 213.91239965 614 222 C615.76040826 223.27995948 617.52082313 224.55990986 619.28125 225.83984375 C634.95284937 237.31972357 650.23217958 249.25786597 665.25585938 261.57177734 C666.82908924 262.86004648 668.40648248 264.14322725 669.984375 265.42578125 C676.49586228 270.72342191 682.91861234 276.12001398 689.30859375 281.56298828 C690.99292607 282.99399002 692.6834628 284.41737035 694.375 285.83984375 C701.55875832 291.90744958 708.50399105 298.18183085 715.31958008 304.66113281 C718.5450093 307.72377092 721.8026807 310.72325879 725.1640625 313.63671875 C729.0786566 317.03453318 732.69734376 320.66213683 736.3125 324.375 C738.35189083 326.36696314 740.39637852 328.21774996 742.55859375 330.06640625 C747.76666644 334.58300131 752.61103486 339.46113518 757.47290039 344.3425293 C759.05959946 345.93458966 760.65157742 347.5212299 762.24414062 349.10742188 C767.18162173 354.04201416 772.00954728 359.02139907 776.54858398 364.33032227 C778.58505984 366.67304024 780.77684056 368.83534476 783 371 C786.52754647 374.4904144 789.87384474 378.04644314 793.09765625 381.81640625 C795.00707124 384.00811668 796.97050598 386.1436766 798.94775391 388.27416992 C803.75878273 393.45964591 808.31655348 398.77208159 812.75390625 404.28515625 C815.0883059 407.10673495 817.51990598 409.80590712 820 412.5 C824.8936826 417.8296789 829.46207844 423.36696488 834 429 C835.03294233 430.26506799 836.06685658 431.5293428 837.1015625 432.79296875 C843.37006627 440.45612188 849.53410558 448.17748335 855.52294922 456.06201172 C857.25917923 458.34006028 859.00658855 460.60935163 860.75390625 462.87890625 C868.56476894 473.04530691 876.18299707 483.30399953 883.49169922 493.83691406 C885.0666672 496.09560884 886.65845409 498.34167127 888.25390625 500.5859375 C918.01816109 542.56051048 944.64775811 586.89882881 968.21875 632.62890625 C969.91764541 635.9248797 971.63877739 639.20514863 973.40625 642.46484375 C1015.62735622 720.53821418 1045.00360074 806.66636903 1097.75 1091.375 C1097.83888489 1092.61221298 1097.83888489 1092.61221298 1097.92956543 1093.87442017 C1098.33220301 1099.58053617 1098.6817581 1105.28858752 1099 1111 C1099.0483902 1111.84421509 1099.0967804 1112.68843018 1099.14663696 1113.55822754 C1100.26116719 1133.69218924 1100.20104605 1153.84224026 1100.1875 1174 C1100.18723312 1174.88950726 1100.18696625 1175.77901451 1100.18669128 1176.69547653 C1100.17714804 1202.03596669 1100.14616776 1227.32886656 1098.18359375 1252.60791016 C1097.984326 1255.2042206 1097.79629841 1257.80121007 1097.609375 1260.3984375 C1090.69038991 1355.5643189 1072.83918556 1449.77592152 1035 1565 C1034.62098541 1566.09513916 1034.62098541 1566.09513916 1034.23431396 1567.21240234 C1019.20505127 1610.60293362 1001.24404676 1652.78929218 981 1694 C980.66830811 1694.67669739 980.33661621 1695.35339478 979.99487305 1696.05059814 C970.94495097 1714.50942601 961.74773295 1732.78119821 951.40673828 1750.55810547 C949.61452587 1753.66912743 947.88441608 1756.81196021 946.15869141 1759.96020508 C940.39093372 1770.4798479 934.26749601 1780.77136377 928 1791 C927.5659082 1791.71043457 927.13181641 1792.42086914 926.68457031 1793.15283203 C919.41371308 1804.99801413 911.69794636 1816.55524933 904 1828.125 C903.49738647 1828.88159912 902.99477295 1829.63819824 902.47692871 1830.41772461 C892.93973248 1844.7620036 883.12973497 1858.90759353 872.875 1872.75 C872.28936279 1873.54237061 871.70372559 1874.33474121 871.1003418 1875.15112305 C866.14920543 1881.83281946 861.11596612 1888.44361624 856 1895 C855.36529785 1895.81597656 855.36529785 1895.81597656 854.71777344 1896.6484375 C844.23137324 1910.12319008 833.48817565 1923.38730385 822.39453125 1936.3671875 C820.92660401 1938.08593704 819.46321759 1939.80848996 818 1941.53125 C812.51079877 1947.98027327 806.94031531 1954.32927716 801.21484375 1960.5703125 C799.35993183 1962.60515415 797.54571202 1964.66321247 795.75 1966.75 C788.13226482 1975.5076813 780.13686951 1983.98793653 771.85205078 1992.11547852 C770.10392759 1993.89425033 768.48289669 1995.72615606 766.8671875 1997.625 C762.64188261 2002.48340153 758.12458381 2007.02215765 753.5625 2011.5625 C752.35110352 2012.77969727 752.35110352 2012.77969727 751.11523438 2014.02148438 C746.80276025 2018.3270085 742.40850308 2022.45629553 737.78881836 2026.42944336 C735.23201663 2028.67427829 732.87734071 2031.06537397 730.5 2033.5 C726.86440864 2037.18488963 723.15387033 2040.70735904 719.21484375 2044.06640625 C716.88663662 2046.09896803 714.62840339 2048.19400071 712.37011719 2050.3034668 C706.96062361 2055.35583334 701.44469955 2060.16215303 695.66796875 2064.796875 C692.91610462 2067.06927818 690.30261857 2069.44694831 687.6875 2071.875 C683.07728643 2076.11797039 678.28073042 2079.99876663 673.32836914 2083.82592773 C669.32959772 2086.92509781 665.45558284 2090.13357787 661.625 2093.4375 C655.67518201 2098.54292738 649.4627141 2103.23822816 643.1640625 2107.90234375 C639.65787651 2110.49942698 636.19252841 2113.14551995 632.73706055 2115.80957031 C618.17559681 2127.0332254 603.23278721 2137.70822223 588 2148 C587.21286621 2148.53206055 586.42573242 2149.06412109 585.61474609 2149.61230469 C512.89070007 2198.66105805 434.93362039 2240.50991373 353 2272 C352.32664612 2272.25890015 351.65329224 2272.51780029 350.95953369 2272.7845459 C328.19323364 2281.52016514 305.21975209 2289.55521409 282 2297 C281.2705719 2297.2341864 280.5411438 2297.4683728 279.78961182 2297.70965576 C190.03893848 2326.46148253 96.75521448 2343.30089656 -22 2351 C-23.22170898 2351.05784668 -24.44341797 2351.11569336 -25.70214844 2351.17529297 C-122.62804879 2355.56443949 -220.40941103 2347.68668747 -597 2232 C-597.64749207 2231.68291077 -598.29498413 2231.36582153 -598.96209717 2231.03912354 C-616.66148939 2222.37053627 -634.14444389 2213.50155319 -651.19873047 2203.60791016 C-655.24681167 2201.28433836 -659.33449745 2199.03402363 -663.41918945 2196.77563477 C-675.01972262 2190.35032993 -686.37078572 2183.61361706 -697.578125 2176.52636719 C-699.85670823 2175.09030848 -702.14485021 2173.67127204 -704.4375 2172.2578125 C-725.80080963 2159.02277406 -746.64725276 2144.73888518 -767 2130 C-768.11060791 2129.1958667 -768.11060791 2129.1958667 -769.24365234 2128.37548828 C-785.35259326 2116.67594115 -801.05171397 2104.49162252 -816.4609375 2091.88671875 C-819.32743042 2089.5424399 -822.21911188 2087.23286765 -825.125 2084.9375 C-830.94033129 2080.29884946 -836.5513939 2075.42480623 -842.18115234 2070.56445312 C-843.96480159 2069.03027536 -845.75619233 2067.50573416 -847.55078125 2065.984375 C-854.00132856 2060.50811979 -860.32435004 2054.92912593 -866.5144043 2049.15942383 C-869.42412116 2046.44761629 -872.36166459 2043.78360436 -875.375 2041.1875 C-878.44270005 2038.53695582 -881.29251089 2035.73152381 -884.129776 2032.83778381 C-885.91696586 2031.08159386 -887.75968602 2029.4512931 -889.66577148 2027.82592773 C-894.25408274 2023.83432128 -898.55438929 2019.58973973 -902.84765625 2015.28515625 C-903.66318466 2014.47058456 -904.47871307 2013.65601288 -905.31895447 2012.8167572 C-907.03198008 2011.10440807 -908.74375965 2009.39081158 -910.4543457 2007.67602539 C-913.05503552 2005.06997985 -915.66101956 2002.46931478 -918.26757812 1999.86914062 C-919.94042486 1998.19563301 -921.61296134 1996.52181518 -923.28515625 1994.84765625 C-924.05513443 1994.0797023 -924.82511261 1993.31174835 -925.61842346 1992.52052307 C-929.73871994 1988.38254255 -933.69027743 1984.15743328 -937.50218201 1979.73362732 C-939.26133967 1977.69751626 -941.08321372 1975.73088798 -942.9375 1973.78125 C-943.93910156 1972.72357422 -943.93910156 1972.72357422 -944.9609375 1971.64453125 C-945.63382813 1970.93683594 -946.30671875 1970.22914062 -947 1969.5 C-952.12953892 1964.1051401 -957.14151919 1958.64065559 -962 1953 C-962.49306641 1952.42910645 -962.98613281 1951.85821289 -963.49414062 1951.27001953 C-966.49412392 1947.78884876 -969.47818523 1944.29400388 -972.46240234 1940.79931641 C-973.45379386 1939.6391774 -974.44622904 1938.47992905 -975.43994141 1937.32177734 C-981.02758561 1930.80906543 -986.46745421 1924.21028653 -991.73681641 1917.43701172 C-994.70473558 1913.62739694 -997.72678383 1909.86872121 -1000.78930664 1906.13476562 C-1007.22762597 1898.28404059 -1013.40955137 1890.27958651 -1019.43896484 1882.11132812 C-1021.05285038 1879.92851891 -1022.6762477 1877.75301848 -1024.30078125 1875.578125 C-1063.43488247 1823.03572752 -1097.52418858 1766.84668346 -1127.22412109 1708.484375 C-1128.89637271 1705.20332262 -1130.58213138 1701.92952888 -1132.26953125 1698.65625 C-1141.59346035 1680.43520145 -1149.86111132 1661.77272957 -1158 1643 C-1158.2917511 1642.32926453 -1158.5835022 1641.65852905 -1158.88409424 1640.96746826 C-1173.79361634 1606.68487317 -1186.62556849 1571.60424684 -1198 1536 C-1198.24901062 1535.22267517 -1198.49802124 1534.44535034 -1198.75457764 1533.64447021 C-1226.9797992 1445.43530074 -1244.30762021 1353.95596323 -1254 1188 C-1254.02489502 1186.25348145 -1254.02489502 1186.25348145 -1254.05029297 1184.47167969 C-1254.14117444 1176.97900692 -1254.10679621 1169.4923244 -1254 1162 C-1253.99139954 1161.35317261 -1253.98279907 1160.70634521 -1253.97393799 1160.03991699 C-1252.7311082 1069.0302682 -1241.07049433 978.67629716 -1152 695 C-1151.46761719 693.80536133 -1150.93523437 692.61072266 -1150.38671875 691.37988281 C-1136.80779635 661.09046482 -1122.14897136 630.94725498 -1105.34228516 602.31298828 C-1103.56744055 599.25462563 -1101.86640827 596.15836407 -1100.16748047 593.05737305 C-1096.28820537 585.9771955 -1092.27111515 578.98985167 -1088.125 572.0625 C-1087.69179443 571.33716064 -1087.25858887 570.61182129 -1086.81225586 569.86450195 C-1077.81309983 554.94091493 -1068.32826973 540.32463721 -1058.64550781 525.83789062 C-1056.99718245 523.37078287 -1055.35385036 520.90040196 -1053.7109375 518.4296875 C-1044.48939902 504.59103228 -1035.01121929 490.93614642 -1025.125 477.5625 C-1024.25983765 476.39110474 -1024.25983765 476.39110474 -1023.37719727 475.19604492 C-1013.41376639 461.76531311 -1003.02793212 448.67639555 -992.42822266 435.74414062 C-991.13995352 434.17091076 -989.85677275 432.59351752 -988.57421875 431.015625 C-983.28053956 424.50900689 -977.88863438 418.09021445 -972.45019531 411.70458984 C-970.98196961 409.97880671 -969.51826467 408.24925728 -968.0546875 406.51953125 C-962.55809804 400.043592 -956.95141254 393.6996099 -951.15966797 387.48583984 C-948.44776533 384.57605377 -945.7836796 381.63842275 -943.1875 378.625 C-940.53642683 375.55668771 -937.73036257 372.7063752 -934.83607483 369.86851501 C-933.08921103 368.09078723 -931.46895728 366.25839873 -929.85327148 364.36157227 C-925.71817409 359.6084826 -921.30651422 355.16260983 -916.84765625 350.71484375 C-915.55921059 349.424963 -915.55921059 349.424963 -914.24473572 348.10902405 C-912.43822985 346.30184139 -910.63047538 344.49590608 -908.8215332 342.69116211 C-906.0706319 339.94561607 -903.32510779 337.19477454 -900.58007812 334.44335938 C-898.81542468 332.6793668 -897.05046103 330.9156845 -895.28515625 329.15234375 C-894.47345474 328.33861801 -893.66175323 327.52489227 -892.82545471 326.68650818 C-888.5786817 322.45694962 -884.25414319 318.38836525 -879.71156311 314.47798157 C-877.71350556 312.75260421 -875.79084501 310.96103948 -873.88671875 309.1328125 C-873.20182373 308.47949951 -872.51692871 307.82618652 -871.8112793 307.15307617 C-871.11043213 306.48381104 -870.40958496 305.8145459 -869.6875 305.125 C-864.15764789 299.87826864 -858.57487485 294.87792632 -852.60546875 290.13671875 C-849.63298238 287.69901253 -846.81246756 285.11791689 -844 282.5 C-839.50222577 278.32482673 -834.88563752 274.35677957 -830.10546875 270.5078125 C-827.71886677 268.58051883 -825.34895166 266.63834166 -822.98828125 264.6796875 C-815.075866 258.11574506 -807.11554309 251.66206987 -798.91748047 245.45654297 C-796.6587958 243.74081688 -794.40949763 242.01311272 -792.16015625 240.28515625 C-780.91245946 231.6569861 -769.57071223 223.19024003 -758 215 C-757.14245117 214.39220703 -756.28490234 213.78441406 -755.40136719 213.15820312 C-708.77037115 180.19693215 -659.71645405 150.81016378 -608.82415771 124.92834473 C-606.93731355 123.9680978 -605.05185308 123.00517067 -603.16650391 122.04199219 C-584.35982508 112.44568562 -565.39902723 103.34984499 -546 95 C-545.32878113 94.71058533 -544.65756226 94.42117065 -543.96600342 94.12298584 C-457.29902593 56.80624235 -366.97536063 30.45377504 -154 0 C-153.22029846 -0.05113953 -152.44059692 -0.10227905 -151.63726807 -0.15496826 C-101.31911821 -3.44155724 -50.30719609 -3.39954252 0 0 Z M-166.3949585 111.74676514 C-169.13058967 112.01269456 -171.86715661 112.26693094 -174.60400391 112.52001953 C-271.30814076 121.57146856 -366.78976942 143.437376 -479 187 C-480.21623047 187.5048291 -481.43246094 188.0096582 -482.68554688 188.52978516 C-499.64475871 195.61127911 -516.38079832 203.15655045 -533 211 C-534.15612793 211.54382324 -535.31225586 212.08764648 -536.50341797 212.64794922 C-554.64945896 221.20833479 -572.42316176 230.323488 -590 240 C-590.99161133 240.54479004 -591.98322266 241.08958008 -593.00488281 241.65087891 C-615.54413508 254.0830318 -637.56198326 267.47565934 -659.02099609 281.68945312 C-660.70412438 282.80406361 -662.3925274 283.91070233 -664.08203125 285.015625 C-686.01025303 299.44621444 -707.30790741 314.85134054 -728 331 C-728.85585693 331.66660645 -728.85585693 331.66660645 -729.72900391 332.34667969 C-740.39002879 340.65570862 -750.87318614 349.15722406 -761.16650391 357.91845703 C-764.54850126 360.79200376 -767.97472456 363.59867784 -771.4375 366.375 C-776.45175024 370.45091102 -781.18042287 374.78852794 -785.87866211 379.22021484 C-788.79311759 381.96750704 -791.738251 384.6610288 -794.76513672 387.28442383 C-808.02876046 398.86585736 -820.48208958 411.32170764 -832.91235352 423.78198242 C-835.58690335 426.46195281 -838.26683976 429.13645484 -840.94726562 431.81054688 C-842.67480033 433.53874152 -844.40202526 435.26724589 -846.12890625 436.99609375 C-847.3118502 438.17600136 -847.3118502 438.17600136 -848.51869202 439.37974548 C-852.65976651 443.53825561 -856.64741522 447.77249628 -860.46705627 452.22894287 C-863.01467516 455.17228548 -865.70418011 457.98142274 -868.375 460.8125 C-873.08153274 465.83688701 -877.52858064 470.98983391 -881.83203125 476.3671875 C-884.09032463 479.10969154 -886.45781334 481.7093759 -888.875 484.3125 C-893.11548198 488.92000978 -896.99408017 493.7136637 -900.81933594 498.6628418 C-903.98399543 502.74560888 -907.25875397 506.7073252 -910.625 510.625 C-915.69722957 516.55178998 -920.37190109 522.71955503 -925 529 C-926.40943773 530.87567176 -927.82377963 532.74758933 -929.23803711 534.61962891 C-931.83910344 538.06951731 -934.42002536 541.53432607 -937 545 C-937.47856445 545.64018066 -937.95712891 546.28036133 -938.45019531 546.93994141 C-949.87218903 562.27437674 -960.31972095 578.28991226 -970.84326172 594.24633789 C-971.8515318 595.77491619 -972.86119291 597.30257675 -973.87109375 598.83007812 C-981.25540499 610.01703343 -988.20569101 621.4462463 -995 633 C-995.57766113 633.9811377 -996.15532227 634.96227539 -996.75048828 635.97314453 C-1031.99490916 696.00901608 -1061.43302109 758.99203272 -1084.2310791 824.78112793 C-1084.74383279 826.26077928 -1085.25774976 827.74002802 -1085.77282715 829.21887207 C-1093.8680261 852.46141156 -1101.00000024 875.90759129 -1107.37689209 899.67871094 C-1107.97280079 901.89867369 -1108.57332145 904.1173474 -1109.17431641 906.3359375 C-1126.07595194 969.04792744 -1135.87856805 1033.59943357 -1140.6875 1098.3125 C-1140.74852905 1099.12934265 -1140.80955811 1099.9461853 -1140.87243652 1100.78778076 C-1142.66855103 1125.18242749 -1143.20781496 1149.54673804 -1143.1875 1174 C-1143.18723312 1174.72293118 -1143.18696625 1175.44586235 -1143.18669128 1176.19070053 C-1143.17560996 1200.1773395 -1142.79949905 1224.0716878 -1141 1248 C-1140.93683594 1248.85847534 -1140.87367188 1249.71695068 -1140.80859375 1250.60144043 C-1134.49339533 1336.01527297 -1118.54670242 1420.53359883 -1092 1502 C-1091.72929688 1502.83166687 -1091.45859375 1503.66333374 -1091.1796875 1504.52020264 C-1070.14750337 1568.96983789 -1043.20362089 1631.85081138 -1010 1691 C-1009.09145264 1692.62373535 -1009.09145264 1692.62373535 -1008.16455078 1694.28027344 C-999.47689644 1709.76819631 -990.46640624 1725.00775754 -980.91943359 1739.98632812 C-978.91300692 1743.13658644 -976.9190617 1746.29453485 -974.92578125 1749.453125 C-967.70580438 1760.85736774 -960.31945527 1772.07846675 -952.41796875 1783.02148438 C-950.97960578 1785.0284564 -949.5648296 1787.05015629 -948.15625 1789.078125 C-940.67475151 1799.83388525 -932.80289839 1810.2646533 -924.81103516 1820.64550781 C-923.22685888 1822.70506511 -921.64863925 1824.76892053 -920.07421875 1826.8359375 C-914.85653901 1833.67656692 -909.47781923 1840.36639976 -904 1847 C-902.56240698 1848.77075782 -901.12490833 1850.54159226 -899.6875 1852.3125 C-892.02688281 1861.67102013 -884.1311777 1870.82525856 -876.00390625 1879.78125 C-874.18688018 1881.79308393 -872.40055608 1883.82660434 -870.625 1885.875 C-866.37725074 1890.74484526 -862.002204 1895.49686877 -857.61958313 1900.24497986 C-856.56963535 1901.38272911 -855.52034871 1902.52108898 -854.47184753 1903.66017151 C-845.75483321 1913.12035438 -836.82130568 1922.33695061 -827.71142578 1931.41894531 C-825.60200343 1933.52293737 -823.49807561 1935.63232035 -821.39453125 1937.7421875 C-820.02636265 1939.10969622 -818.65788439 1940.4768952 -817.2890625 1941.84375 C-816.67431061 1942.46052612 -816.05955872 1943.07730225 -815.42617798 1943.71276855 C-811.670033 1947.44901014 -807.78928783 1950.98695748 -803.78173828 1954.45184326 C-801.76424986 1956.20484387 -799.81452935 1958.01622024 -797.88671875 1959.8671875 C-796.85925537 1960.84727783 -796.85925537 1960.84727783 -795.81103516 1961.84716797 C-795.11026855 1962.51635254 -794.40950195 1963.18553711 -793.6875 1963.875 C-788.13244558 1969.14536542 -782.52493492 1974.1755028 -776.52734375 1978.9375 C-773.81254395 1981.15297804 -771.25466591 1983.49040467 -768.6875 1985.875 C-764.07728643 1990.11797039 -759.28073042 1993.99876663 -754.32836914 1997.82592773 C-750.32958631 2000.92510666 -746.45575908 2004.13377378 -742.625 2007.4375 C-736.05921649 2013.06631334 -729.17404788 2018.21432234 -722.22021484 2023.35058594 C-719.88241197 2025.08735702 -717.55906912 2026.84212719 -715.23828125 2028.6015625 C-676.04675994 2058.28460052 -634.514025 2085.25495531 -591.31005859 2108.73974609 C-588.81108482 2110.10306279 -586.3216257 2111.48291658 -583.83203125 2112.86328125 C-556.57027021 2127.89776118 -528.63394999 2141.77331076 -500 2154 C-499.35047363 2154.27739014 -498.70094727 2154.55478027 -498.03173828 2154.84057617 C-420.74281805 2187.76823436 -340.2338988 2211.83792865 -205 2234 C-203.88443726 2234.13504944 -203.88443726 2234.13504944 -202.74633789 2234.27282715 C-190.51725349 2235.74029104 -178.27125515 2236.94581518 -166 2238 C-165.12605591 2238.0762561 -164.25211182 2238.15251221 -163.35168457 2238.2310791 C-106.25046003 2243.15867531 -47.7073349 2243.20848509 9.38671875 2238.22784424 C11.99824162 2238.00015331 14.61035234 2237.78054005 17.22265625 2237.56201172 C97.98319647 2230.71357662 177.7851161 2214.11234305 254.7322998 2188.74743652 C256.96819498 2188.01048297 259.20525056 2187.27713349 261.44238281 2186.54394531 C320.68992856 2167.06622557 378.5275369 2141.85232813 433.08007812 2111.61816406 C435.06430758 2110.51854259 437.05004179 2109.42163293 439.03710938 2108.32714844 C469.65251552 2091.45881107 499.33914205 2073.01517428 528 2053 C528.71027344 2052.50580566 529.42054687 2052.01161133 530.15234375 2051.50244141 C552.8643521 2035.6821732 574.85537244 2018.9689966 596.26025391 2001.42382812 C597.81948327 2000.14773696 599.384011 1998.87812619 600.94921875 1997.609375 C611.41754068 1989.11245968 621.62643169 1980.33553286 631.5625 1971.22265625 C633.64272725 1969.32578236 635.74556898 1967.46607057 637.875 1965.625 C646.09737035 1958.46630384 654.12332805 1951.06435598 661.70703125 1943.23046875 C663.66380181 1941.32703435 665.66039637 1939.54696027 667.7265625 1937.765625 C672.19667137 1933.8827464 676.38840896 1929.75925578 680.5625 1925.5625 C681.27857422 1924.85029297 681.99464844 1924.13808594 682.73242188 1923.40429688 C686.79847518 1919.33084402 690.66822239 1915.15168156 694.42553711 1910.79272461 C696.51215177 1908.4168506 698.73506521 1906.20533124 701 1904 C704.52754647 1900.5095856 707.87384474 1896.95355686 711.09765625 1893.18359375 C713.00714698 1890.99179638 714.97065822 1888.85615136 716.94799805 1886.72558594 C721.77945479 1881.51802777 726.36310508 1876.1842574 730.8203125 1870.6484375 C732.97757399 1868.02724881 735.21311 1865.50845719 737.5 1863 C742.20423388 1857.82453026 746.61715487 1852.4485611 751 1847 C751.90210662 1845.89043217 752.80446083 1844.78106559 753.70703125 1843.671875 C761.46359144 1834.09978134 768.86005745 1824.27410976 776.21435547 1814.39111328 C777.84295772 1812.21029151 779.48238649 1810.03840279 781.12890625 1807.87109375 C791.94052695 1793.62248947 802.21320762 1778.9712456 812 1764 C812.45665039 1763.30535645 812.91330078 1762.61071289 813.38378906 1761.89501953 C831.92448612 1733.68168697 849.1257635 1704.79741982 865 1675 C865.83592276 1673.44139835 866.67185929 1671.88280408 867.5078125 1670.32421875 C893.47504151 1621.67762863 915.15252233 1571.16520489 933 1519 C933.2621228 1518.23425659 933.52424561 1517.46851318 933.79431152 1516.67956543 C962.36119679 1432.97453798 980.24343243 1345.50640825 915 782 C914.7522583 781.37794678 914.5045166 780.75589355 914.24926758 780.11499023 C900.74305592 746.23129847 885.65165401 712.65078743 868.35839844 680.52539062 C866.89066371 677.79673355 865.43380089 675.06240069 863.9765625 672.328125 C856.32002098 658.0180055 848.32507343 643.93152834 840 630 C839.39881348 628.99308105 838.79762695 627.98616211 838.17822266 626.94873047 C823.20298643 601.98472256 807.14614011 577.5309587 790 554 C789.4440918 553.2359082 788.88818359 552.47181641 788.31542969 551.68457031 C781.02011251 541.67786005 773.61563077 531.76520397 766 522 C765.10934315 520.85028509 764.21871916 519.70054472 763.328125 518.55078125 C757.91393185 511.5859724 752.34175477 504.78620017 746.61328125 498.078125 C744.22117731 495.2729268 741.88544149 492.42536843 739.5625 489.5625 C731.28619197 479.41592307 722.71186237 469.57796083 713.78515625 460 C711.40595507 457.44631871 709.07078638 454.85703138 706.75 452.25 C695.52309077 439.77345247 683.85400191 427.75321825 672 415.875 C671.4159137 415.2883255 670.83182739 414.701651 670.2300415 414.09719849 C661.67240789 405.50298825 661.67240789 405.50298825 652.63476562 397.42041016 C650.835863 395.85738515 649.16819639 394.2011148 647.5 392.5 C644.53264677 389.48586418 641.42654708 386.70082667 638.22265625 383.94140625 C635.67023117 381.71195939 633.18112486 379.41998618 630.6875 377.125 C626.24749216 373.07478708 621.68065719 369.24465878 617.00390625 365.47265625 C613.5033321 362.59116933 610.0972871 359.61270604 606.6875 356.625 C600.77460836 351.46057565 594.71786727 346.54028185 588.51171875 341.734375 C585.52455772 339.42055286 582.58364945 337.05439528 579.64916992 334.67431641 C571.09111167 327.74641866 562.2747981 321.20009514 553.37011719 314.72607422 C551.11879519 313.08651442 548.87505822 311.43709646 546.6328125 309.78515625 C535.28940886 301.46494642 523.6399563 293.63410913 511.88964844 285.90185547 C509.25881231 284.17034031 506.63299383 282.43147505 504.0078125 280.69140625 C482.56506254 266.54686899 460.477151 253.42648916 438 241 C437.11650879 240.50677246 436.23301758 240.01354492 435.32275391 239.50537109 C406.03841323 223.17341155 375.85931227 208.12011106 345 195 C344.29115662 194.69789612 343.58231323 194.39579224 342.85198975 194.08453369 C317.89471624 183.46345176 292.66282085 173.77919533 267 165 C265.84078033 164.60328094 265.84078033 164.60328094 264.65814209 164.19854736 C184.19734773 136.7462715 100.24354357 119.35575895 -51.98828125 108.796875 C-53.84972659 108.78985184 -55.7111717 108.78276503 -57.57261658 108.77561951 C-63.48591461 108.75622903 -69.39917338 108.75118555 -75.3125 108.75 C-76.32019943 108.74955814 -77.32789886 108.74911629 -78.36613464 108.74866104 C-107.78852795 108.74189544 -137.08487545 108.88698657 -166.3949585 111.74676514 Z " fill="#000000" transform="translate(1739,196)"/>
<path d="M0 0 C15.84 0 31.68 0 48 0 C61.96355446 15.03767404 61.96355446 15.03767404 67.82421875 22.35546875 C70.130317 25.15839248 72.54151531 27.83003275 75 30.5 C79.09351091 34.94727112 82.92442499 39.54717463 86.71875 44.25 C89.86194258 48.03905407 93.20158595 51.63269352 96.53515625 55.25390625 C98.92707297 57.91875166 101.19254884 60.64831825 103.4375 63.4375 C106.65943101 67.43223986 110.00655495 71.24554349 113.5 75 C117.78955113 79.61004336 121.80410672 84.37782956 125.75390625 89.28515625 C128.0883059 92.10673495 130.51990598 94.80590712 133 97.5 C137.09351091 101.94727112 140.92442499 106.54717463 144.71875 111.25 C147.06718968 114.08099578 149.50909902 116.79383598 152 119.5 C156.09351091 123.94727112 159.92442499 128.54717463 163.71875 133.25 C166.86194258 137.03905407 170.20158595 140.63269352 173.53515625 144.25390625 C175.92707297 146.91875166 178.19254884 149.64831825 180.4375 152.4375 C183.65943101 156.43223986 187.00655495 160.24554349 190.5 164 C194.78955113 168.61004336 198.80410672 173.37782956 202.75390625 178.28515625 C205.0883059 181.10673495 207.51990598 183.80590712 210 186.5 C214.09351091 190.94727112 217.92442499 195.54717463 221.71875 200.25 C224.06718968 203.08099578 226.50909902 205.79383598 229 208.5 C233.09351091 212.94727112 236.92442499 217.54717463 240.71875 222.25 C243.86194258 226.03905407 247.20158595 229.63269352 250.53515625 233.25390625 C252.92707297 235.91875166 255.19254884 238.64831825 257.4375 241.4375 C260.65943101 245.43223986 264.00655495 249.24554349 267.5 253 C271.78955113 257.61004336 275.80410672 262.37782956 279.75390625 267.28515625 C282.0883059 270.10673495 284.51990598 272.80590712 287 275.5 C290.29331699 279.07792463 293.44651321 282.71539666 296.5 286.5 C300.37372558 291.30094713 304.45020847 295.86860751 308.640625 300.39453125 C311.17412456 303.19228656 313.58369145 306.10042973 316 309 C316.33 207.03 316.66 105.06 317 0 C336.8 0 356.6 0 377 0 C377 134.64 377 269.28 377 408 C360.17 408 343.34 408 326 408 C316.07174888 396.96860987 316.07174888 396.96860987 312.6875 392.6875 C308.79679292 387.87334412 304.66999534 383.35075666 300.44213867 378.83666992 C296.54031611 374.64706391 292.92689822 370.27845286 289.34375 365.8125 C286.66791829 362.60150195 283.85641724 359.54970863 281 356.5 C276.56167326 351.76133536 272.4085775 346.87880674 268.34375 341.8125 C265.66791829 338.60150195 262.85641724 335.54970863 260 332.5 C255.56167326 327.76133536 251.4085775 322.87880674 247.34375 317.8125 C244.66791829 314.60150195 241.85641724 311.54970863 239 308.5 C234.56167326 303.76133536 230.4085775 298.87880674 226.34375 293.8125 C223.66791722 290.60150066 220.85640293 287.54972364 218 284.5 C213.54125556 279.73911006 209.3620217 274.8353218 205.27734375 269.74609375 C202.7817361 266.73681042 200.16236519 263.86059714 197.5 261 C194.04838064 257.29138312 190.73477852 253.51494105 187.5625 249.5625 C183.71889943 244.78378372 179.63039836 240.30842313 175.44165039 235.83618164 C171.5400333 231.64670474 167.92675203 227.27827064 164.34375 222.8125 C161.66791829 219.60150195 158.85641724 216.54970863 156 213.5 C151.56167326 208.76133536 147.4085775 203.87880674 143.34375 198.8125 C140.66791829 195.60150195 137.85641724 192.54970863 135 189.5 C130.56167326 184.76133536 126.4085775 179.87880674 122.34375 174.8125 C119.66791829 171.60150195 116.85641724 168.54970863 114 165.5 C109.56167326 160.76133536 105.4085775 155.87880674 101.34375 150.8125 C98.66791829 147.60150195 95.85641724 144.54970863 93 141.5 C88.56865425 136.76878874 84.42089894 131.8949782 80.36328125 126.8359375 C77.1035809 122.92429708 73.64889693 119.20929776 70.16015625 115.50195312 C67.26966752 112.42211419 64.64921605 109.31152006 62 106 C61.67 205.66 61.34 305.32 61 408 C40.87 408 20.74 408 0 408 C0 273.36 0 138.72 0 0 Z " fill="#000000" transform="translate(2482,2628)"/>
<path d="M0 0 C55.873125 -0.061875 55.873125 -0.061875 112.875 -0.125 C124.61433105 -0.14320801 136.35366211 -0.16141602 148.44873047 -0.18017578 C162.84008789 -0.18920898 162.84008789 -0.18920898 169.58816528 -0.19088745 C174.27739372 -0.19274249 178.96657637 -0.20020451 183.65579224 -0.21115112 C189.65552583 -0.22496938 195.65519377 -0.22896391 201.6549418 -0.22614455 C203.84537571 -0.22673325 206.03581215 -0.23063942 208.22623229 -0.23843026 C242.86153443 -0.35579935 279.19288942 4.97082834 306 29 C307.25876953 30.08087891 307.25876953 30.08087891 308.54296875 31.18359375 C330.35620997 50.22480431 341.66546725 74.72707068 343.82128906 103.39404297 C344.16961579 110.42243882 344.18594137 117.45268958 344.18530273 124.48852539 C344.18748172 127.16504006 344.20567982 129.84113632 344.22460938 132.51757812 C344.33556628 166.04898696 336.26249374 197.6538001 312.62109375 222.38623047 C300.31849897 234.63324123 284.7065921 243.39683493 268 248 C269.2065625 249.546875 269.2065625 249.546875 270.4375 251.125 C286.25647049 272.47507906 296.04290577 297.15032256 306.71484375 321.3203125 C310.77987101 330.52671297 314.9007435 339.70748942 319.03604126 348.88250732 C320.17999044 351.42083691 321.32292115 353.95962276 322.46557617 356.49853516 C325.62932637 363.52679211 328.79567352 370.55381293 331.97819519 377.57359314 C333.18758818 380.24266646 334.39372918 382.91320148 335.59927368 385.58401489 C336.40632931 387.3685754 337.21808595 389.15100762 338.0300293 390.93334961 C338.51383057 392.00593018 338.99763184 393.07851074 339.49609375 394.18359375 C340.11762329 395.55342407 340.11762329 395.55342407 340.75170898 396.95092773 C342.36523407 400.89211975 343.65328334 404.95985001 345 409 C324.87 409 304.74 409 284 409 C275.94443872 391.73808297 275.94443872 391.73808297 272.80078125 384.734375 C272.44360519 383.94076569 272.08642914 383.14715637 271.71842957 382.32949829 C270.58201061 379.80349583 269.44718655 377.27678107 268.3125 374.75 C267.51435189 372.97475911 266.71617446 371.1995314 265.91796875 369.42431641 C261.42121825 359.41849023 256.94770557 349.40271605 252.5 339.375 C251.5534876 337.24735037 250.60687624 335.11974476 249.66015625 332.9921875 C247.90420467 329.04495601 246.16443576 325.09110941 244.43359375 321.1328125 C234.45750226 298.49550494 222.19458884 277.92472 205 260 C204.58489764 259.47366565 204.16979528 258.9473313 203.74211407 258.40504742 C201.254271 256.39855569 199.45811161 256.61536938 196.28633118 256.60127258 C195.09828794 256.58874356 193.91024469 256.57621454 192.68620014 256.56330585 C190.72098298 256.5654448 190.72098298 256.5654448 188.71606445 256.56762695 C187.30395487 256.55852438 185.89185321 256.54811211 184.47976208 256.53649426 C180.69461364 256.50897613 176.90961777 256.49940913 173.12438202 256.49352264 C169.57384655 256.48529225 166.02349397 256.46092349 162.47302246 256.43786621 C152.08625967 256.37983802 141.69936504 256.34775845 131.3125 256.3125 C108.109375 256.209375 84.90625 256.10625 61 256 C61 306.16 61 356.32 61 408 C40.87 408 20.74 408 0 408 C0 273.36 0 138.72 0 0 Z M61 52 C61 101.83 61 151.66 61 203 C88.51366616 203.05832422 88.51366616 203.05832422 116.02734375 203.09765625 C127.25669188 203.10949672 138.48600988 203.12337229 149.71533203 203.15087891 C157.89569164 203.17090731 166.07602667 203.18373871 174.25641012 203.18817699 C178.58182415 203.19076847 182.90716787 203.19679444 187.2325592 203.21146011 C191.3168154 203.22519393 195.40097338 203.22919129 199.48525047 203.22621536 C200.97176335 203.22675855 202.45828005 203.23064079 203.94477272 203.23841095 C227.90386283 203.35733956 250.55014741 199.77315033 268.5546875 182.640625 C281.98835486 168.13398102 283.36287383 149.67288505 283.31567383 130.88378906 C283.31252224 128.26845225 283.33602135 125.65425972 283.36132812 123.0390625 C283.43003419 104.67861171 281.56013638 87.26320572 269 73 C268.18015625 72.05640625 268.18015625 72.05640625 267.34375 71.09375 C253.79966519 56.5274701 232.32188423 52.66225975 213.24320984 51.83761978 C203.32248733 51.56421739 193.39436232 51.6446684 183.47118282 51.69581819 C179.15245455 51.714814 174.83371722 51.71635318 170.51495361 51.71989441 C162.36988804 51.72914862 154.224946 51.75367075 146.07993436 51.78394288 C135.05018752 51.82403012 124.02040592 51.83999541 112.9906044 51.85744953 C95.66031075 51.8854982 78.33027753 51.94531119 61 52 Z " fill="#000000" transform="translate(874,2628)"/>
<path d="M0 0 C1.01175293 0.20399414 2.02350586 0.40798828 3.06591797 0.61816406 C39.49100805 8.22772371 73.93145927 23.15011149 102 48 C103.16208984 48.99966797 103.16208984 48.99966797 104.34765625 50.01953125 C106.94764015 52.29821633 109.48051663 54.63246303 112 57 C112.55703613 57.52303711 113.11407227 58.04607422 113.68798828 58.58496094 C127.3049779 71.48064188 138.72551543 85.67531839 148 102 C148.98033203 103.68222656 148.98033203 103.68222656 149.98046875 105.3984375 C165.8432116 133.31364171 173.20725866 166.08354412 174 198 C174.03996094 199.21429687 174.07992187 200.42859375 174.12109375 201.6796875 C174.72495323 236.41936832 168.08591799 271.49187789 151 302 C150.08154297 303.73830078 150.08154297 303.73830078 149.14453125 305.51171875 C136.72574703 328.37764516 118.38072331 348.99634478 98 365 C96.9569364 365.83451688 95.91397017 366.66915546 94.87109375 367.50390625 C87.59434589 373.27565273 80.0916637 378.41553388 72 383 C71.26845703 383.41894531 70.53691406 383.83789062 69.78320312 384.26953125 C15.03071715 415.28849065 -54.22103404 420.90203343 -114.72998047 405.29589844 C-120.2370225 403.76106249 -125.63439753 401.97024826 -131 400 C-131.70882324 399.73993164 -132.41764648 399.47986328 -133.14794922 399.21191406 C-160.970749 388.78713653 -184.66257126 372.45492528 -206 352 C-206.94746094 351.10539062 -207.89492187 350.21078125 -208.87109375 349.2890625 C-244.16011861 315.1513108 -263.26995797 266.47185256 -264.34765625 217.75 C-264.64822765 199.41184747 -264.63068606 181.04362417 -261 163 C-260.82839355 162.12762695 -260.65678711 161.25525391 -260.47998047 160.35644531 C-252.72586604 122.14716297 -234.91355087 89.10294726 -208 61 C-207.52836426 60.50113281 -207.05672852 60.00226562 -206.57080078 59.48828125 C-198.98278106 51.49169561 -190.86856759 44.5404118 -182 38 C-180.93910156 37.21753906 -179.87820312 36.43507813 -178.78515625 35.62890625 C-152.91342061 17.17650642 -123.99990437 6.34841134 -93 0 C-92.13793945 -0.18079102 -91.27587891 -0.36158203 -90.38769531 -0.54785156 C-62.14387081 -6.15647522 -28.22705713 -5.7054149 0 0 Z M-84 57 C-84.83660156 57.19867676 -85.67320312 57.39735352 -86.53515625 57.60205078 C-112.17667739 63.90386056 -135.62386406 74.84743336 -155 93 C-155.57202148 93.52964355 -156.14404297 94.05928711 -156.73339844 94.60498047 C-183.89813051 119.9839241 -201.76936384 155.80056094 -203.20678711 193.30395508 C-203.30771479 197.1613696 -203.32639875 201.01690134 -203.31567383 204.87548828 C-203.31252156 207.23387316 -203.33605261 209.59098821 -203.36132812 211.94921875 C-203.52309169 250.59815099 -188.01426753 285.44207311 -161.7109375 313.328125 C-157.40077358 317.57618281 -152.7963025 321.31880424 -148 325 C-147.10023438 325.72703125 -146.20046875 326.4540625 -145.2734375 327.203125 C-117.09550292 349.40392195 -82.24404314 358.48069909 -46.8125 358.3125 C-45.58635986 358.30926727 -45.58635986 358.30926727 -44.33544922 358.30596924 C-32.33020026 358.25517419 -20.70327495 357.9120825 -9 355 C-7.75839111 354.70198486 -7.75839111 354.70198486 -6.49169922 354.39794922 C21.87592329 347.42487317 45.77274779 333.98081214 67 314 C67.60070313 313.45214844 68.20140625 312.90429688 68.8203125 312.33984375 C97.31896165 285.36554095 111.4524722 244.62143589 113.16796875 206.2421875 C113.36286394 172.64225689 103.54373722 139.16271448 82 113 C81.31333252 112.15526123 81.31333252 112.15526123 80.61279297 111.29345703 C54.8194892 79.68782069 18.49868271 59.10462521 -22.19042969 54.32519531 C-42.36745761 52.60282918 -64.23206565 52.25006241 -84 57 Z " fill="#000000" transform="translate(2280,2629)"/>
<path d="M0 0 C258.5367068 0 258.5367068 0 316.625 57.1875 C354.87928434 95.8677786 374.21246506 149.91902266 374.25 203.6875 C374.25067474 204.55549225 374.25134949 205.4234845 374.25204468 206.31777954 C374.2262815 227.2121943 371.92451379 246.91799686 366 267 C365.65291992 268.19109375 365.65291992 268.19109375 365.29882812 269.40625 C358.8313962 290.99941023 347.94241767 311.31818307 334 329 C333.53303711 329.59248535 333.06607422 330.1849707 332.58496094 330.79541016 C312.61255268 355.74357127 288.71828184 374.59348716 259.8203125 388.14306641 C258.16253127 388.92348649 256.51793858 389.73176783 254.875 390.54296875 C246.85607091 394.28179444 238.55072542 396.74056493 230.0625 399.1875 C228.90782227 399.52072266 227.75314453 399.85394531 226.56347656 400.19726562 C158.66634859 419.21381823 59.70408034 408 0 408 C0 273.36 0 138.72 0 0 Z M61 54 C61 153.66 61 253.32 61 356 C148.36244514 360.01451409 148.36244514 360.01451409 234 339 C234.87140625 338.58492187 235.7428125 338.16984375 236.640625 337.7421875 C268.85672858 321.25733918 294.92354905 290.08519522 306.4375 255.9375 C307.35404916 252.97401251 308.18242913 249.99200389 309 247 C309.20737793 246.31405762 309.41475586 245.62811523 309.62841797 244.92138672 C313.3273841 232.45601707 313.39259736 219.8316955 313.4375 206.9375 C313.44376404 206.09572205 313.45002808 205.25394409 313.45648193 204.38665771 C313.53133793 188.44776147 311.8825858 172.76279823 307.3125 157.4375 C307.05903809 156.57382813 306.80557617 155.71015625 306.54443359 154.8203125 C295.7093817 119.30578127 271.46735528 89.31679023 238.75 71.75 C229.48100855 66.95194486 219.93468017 63.17479731 210 60 C209.01 59.67926514 209.01 59.67926514 208 59.35205078 C165.30201538 45.95424567 93.65856589 54 61 54 Z " fill="#000000" transform="translate(470,2629)"/>
<path d="M0 0 C0.94228958 -0.00701431 1.88457916 -0.01402863 2.85542297 -0.02125549 C5.88022698 -0.03866509 8.90483523 -0.04510788 11.9296875 -0.046875 C12.9628006 -0.04754974 13.9959137 -0.04822449 15.06033325 -0.04891968 C30.19788717 -0.03319288 44.89499257 0.35739665 59.8046875 3.203125 C60.70380859 3.36409668 61.60292969 3.52506836 62.52929688 3.69091797 C90.54657431 8.79343473 117.16549566 18.94744264 143.68359375 29.04296875 C144.44584259 29.33220718 145.20809143 29.62144562 145.99343872 29.91944885 C149.3653253 31.2121021 152.56954356 32.58555303 155.8046875 34.203125 C155.8046875 54.003125 155.8046875 73.803125 155.8046875 94.203125 C150.5246875 91.563125 145.2446875 88.923125 139.8046875 86.203125 C113.78761476 73.21226327 86.93943225 62.73392476 58.3671875 56.890625 C57.64821289 56.74326904 56.92923828 56.59591309 56.18847656 56.4440918 C42.33449161 53.81060045 28.55449322 52.85096458 14.47607422 52.88745117 C11.93803985 52.89061459 9.40117337 52.86701421 6.86328125 52.84179688 C-8.14396612 52.78331062 -22.99563741 54.50351906 -37.4453125 58.703125 C-38.72257202 59.0738916 -38.72257202 59.0738916 -40.02563477 59.45214844 C-56.39864064 64.50005837 -71.90324745 72.38457561 -85.1953125 83.203125 C-85.75395996 83.65187988 -86.31260742 84.10063477 -86.88818359 84.56298828 C-114.67565388 107.01790695 -134.08598798 136.26702341 -142.1953125 171.203125 C-142.515 172.47929687 -142.8346875 173.75546875 -143.1640625 175.0703125 C-147.95499095 196.51909433 -147.33004343 222.90106706 -142.1953125 244.203125 C-141.94587891 245.30116455 -141.94587891 245.30116455 -141.69140625 246.42138672 C-133.03366921 283.81800086 -109.15258037 316.3937804 -76.70947266 336.73974609 C-52.27842315 351.62317429 -24.39537499 360.14086652 4.30078125 360.44140625 C5.0831012 360.45124542 5.86542114 360.46108459 6.67144775 360.47122192 C35.36205674 360.7572985 61.04689073 356.50275322 88.8046875 349.203125 C94.0846875 347.883125 99.3646875 346.563125 104.8046875 345.203125 C104.8046875 316.493125 104.8046875 287.783125 104.8046875 258.203125 C79.0646875 258.203125 53.3246875 258.203125 26.8046875 258.203125 C26.8046875 240.713125 26.8046875 223.223125 26.8046875 205.203125 C72.6746875 205.203125 118.5446875 205.203125 165.8046875 205.203125 C165.8046875 262.953125 165.8046875 320.703125 165.8046875 380.203125 C154.53091053 385.84001348 154.53091053 385.84001348 149.65234375 387.59765625 C148.56058838 387.99178711 147.46883301 388.38591797 146.34399414 388.79199219 C144.62297485 389.39769043 144.62297485 389.39769043 142.8671875 390.015625 C141.64572021 390.44649414 140.42425293 390.87736328 139.16577148 391.32128906 C103.56132644 403.77504723 66.02803141 413.12764582 28.1015625 413.44140625 C26.61921364 413.45616501 26.61921364 413.45616501 25.10691833 413.47122192 C-36.95624172 413.96144602 -94.50282934 402.17013076 -142.1953125 360.203125 C-142.70304199 359.76387695 -143.21077148 359.32462891 -143.73388672 358.87207031 C-180.93082417 326.63392793 -203.17899249 278.9740411 -207.1953125 230.203125 C-207.54329259 223.6864227 -207.53604126 217.16471765 -207.5078125 210.640625 C-207.50598969 209.76360931 -207.50416687 208.88659363 -207.50228882 207.98300171 C-207.45419371 194.20759237 -206.8865616 180.75126682 -204.1953125 167.203125 C-204.02370605 166.32785156 -203.85209961 165.45257812 -203.67529297 164.55078125 C-195.65412971 125.03992168 -176.88425248 92.17063076 -149.1953125 63.203125 C-148.55980469 62.52636719 -147.92429687 61.84960938 -147.26953125 61.15234375 C-110.25179292 22.72104023 -52.81422484 0.26429364 0 0 Z " fill="#000000" transform="translate(1819.1953125,2625.796875)"/>
<path d="M0 0 C0.76166977 0.00222061 1.52333954 0.00444122 2.30809021 0.00672913 C3.16890701 0.00680466 4.02972382 0.00688019 4.91662598 0.00695801 C5.8520372 0.01211929 6.78744843 0.01728058 7.75120544 0.02259827 C8.70422043 0.02401321 9.65723541 0.02542816 10.63912964 0.02688599 C13.69605085 0.032503 16.75289996 0.04505836 19.80979919 0.05775452 C21.87685543 0.06276733 23.94391281 0.06733061 26.01097107 0.07142639 C31.08977507 0.08247795 36.16852489 0.09975397 41.24729919 0.12025452 C47.91093583 14.39179888 54.43436143 28.71797664 60.80979919 43.12025452 C66.72508635 56.48295446 72.71111007 69.81173532 78.74729919 83.12025452 C84.65132262 96.14012056 90.5175195 109.17527644 96.30979919 122.24525452 C101.97774767 135.03443048 107.68877386 147.80345677 113.43479919 160.55775452 C113.81607971 161.40409454 114.19736023 162.25043457 114.5901947 163.12242126 C116.09212428 166.45610197 117.594122 169.78975195 119.09629822 173.12332153 C123.98130837 183.96580711 128.84179516 194.81926483 133.7028656 205.67250061 C136.38304611 211.65566678 139.06530598 217.63790075 141.74729919 223.62025452 C142.83064187 226.036917 143.91397521 228.45358366 144.99729919 230.87025452 C145.80167419 232.66462952 145.80167419 232.66462952 146.62229919 234.49525452 C161.24729919 267.12025452 175.87229919 299.74525452 190.49729919 332.37025452 C191.03379089 333.56698792 191.57028259 334.76372131 192.12303162 335.99671936 C193.20409186 338.40842777 194.28498435 340.82021139 195.3657074 343.23207092 C198.10743543 349.35023599 200.85223842 355.46698047 203.60276794 361.58119202 C208.79962505 373.13701916 213.97699748 384.70121217 219.05979919 396.30775452 C219.48672058 397.27632385 219.91364197 398.24489319 220.35350037 399.24281311 C220.92934875 400.56466614 220.92934875 400.56466614 221.51683044 401.91322327 C221.85303406 402.68174622 222.18923767 403.45026917 222.53562927 404.24208069 C223.24729919 406.12025452 223.24729919 406.12025452 223.24729919 408.12025452 C203.11729919 408.12025452 182.98729919 408.12025452 162.24729919 408.12025452 C142.67699089 365.97980964 142.67699089 365.97980964 133.42454529 345.53016663 C132.83296739 344.2229309 132.24133414 342.91572022 131.64964294 341.60853577 C131.36480042 340.97920639 131.07995789 340.34987701 130.78648376 339.70147705 C128.83940724 335.40698237 126.86441608 331.12633845 124.87620544 326.85072327 C124.09600037 325.16861755 124.09600037 325.16861755 123.30003357 323.45252991 C122.33606189 321.37787461 121.3676081 319.30529348 120.39378357 317.23524475 C119.97548279 316.3336261 119.55718201 315.43200745 119.12620544 314.50306702 C118.76083679 313.72334534 118.39546814 312.94362366 118.01902771 312.14027405 C117.24729919 310.12025452 117.24729919 310.12025452 117.24729919 307.12025452 C20.22729919 307.61525452 20.22729919 307.61525452 -78.75270081 308.12025452 C-89.00714789 330.3382232 -99.198768 352.51711639 -109.09645081 374.88587952 C-112.41655785 382.38053292 -115.78101116 389.85316721 -119.19020081 397.30775452 C-119.6451593 398.30605286 -120.1001178 399.3043512 -120.56886292 400.332901 C-121.18386658 401.67203552 -121.18386658 401.67203552 -121.81129456 403.03822327 C-122.16506165 403.80932434 -122.51882874 404.58042542 -122.88331604 405.37489319 C-123.75270081 407.12025452 -123.75270081 407.12025452 -124.75270081 408.12025452 C-126.65513843 408.21416748 -128.56108539 408.2376911 -130.46583557 408.23377991 C-131.68702591 408.23370438 -132.90821625 408.23362885 -134.16641235 408.23355103 C-135.50897766 408.22844363 -136.85154256 408.22322762 -138.19410706 408.21791077 C-139.56031238 408.21604651 -140.92651838 408.21462264 -142.29272461 408.21362305 C-145.89471776 408.20979846 -149.49667081 408.19996869 -153.09864807 408.18891907 C-156.77173826 408.17870368 -160.4448349 408.17412515 -164.11793518 408.16908264 C-171.32954204 408.15834636 -178.54111581 408.14127065 -185.75270081 408.12025452 C-184.13694197 403.07373726 -182.46079201 398.17435057 -180.17848206 393.38197327 C-179.68444885 392.33404602 -179.19041565 391.28611877 -178.68141174 390.20643616 C-178.14806213 389.08487122 -177.61471252 387.96330627 -177.06520081 386.80775452 C-175.88484873 384.30207326 -174.71028999 381.79371251 -173.53785706 379.28431702 C-173.07716324 378.29852409 -173.07716324 378.29852409 -172.60716248 377.29281616 C-168.96504836 369.47057912 -165.48744419 361.57599316 -162.00270081 353.68275452 C-156.45825863 341.13500146 -150.81181228 328.63921408 -145.06520081 316.18275452 C-138.74327118 302.47568825 -132.5119438 288.73295367 -126.35839844 274.94923401 C-122.6310395 266.60313341 -118.8789155 258.26815302 -115.12770081 249.93275452 C-114.74895813 249.09108734 -114.37021545 248.24942017 -113.97999573 247.38224792 C-104.53635468 226.3987909 -95.0455499 205.43669304 -85.55482483 184.47450256 C-82.7661253 178.31497562 -79.97784223 172.15526041 -77.19020081 165.99525452 C-76.79680511 165.12596313 -76.40340942 164.25667175 -75.99809265 163.36103821 C-69.85986765 149.79554366 -63.74330337 136.220408 -57.63768005 122.64021301 C-51.46686024 108.91583982 -45.27068481 95.20307981 -39.06401062 81.49488831 C-33.47616562 69.15260176 -27.90463605 56.80310331 -22.34861755 44.44645691 C-19.15174289 37.33692903 -15.95262318 30.2284111 -12.75270081 23.12025452 C-12.45927795 22.4683313 -12.1658551 21.81640808 -11.86354065 21.14472961 C-10.14279822 17.32239007 -8.41796633 13.50192406 -6.69020081 9.68275452 C-6.09066589 8.35099182 -6.09066589 8.35099182 -5.47901917 6.99232483 C-2.38208337 0.16343707 -2.38208337 0.16343707 0 0 Z M18.24729919 92.12025452 C9.07804507 111.76264753 -0.06726471 131.4108803 -8.81520081 151.24525452 C-14.69797913 164.58295849 -20.74595251 177.83595929 -26.88438416 191.05784607 C-33.28029397 204.84096675 -39.50727753 218.69315431 -45.62770081 232.60072327 C-46.2499034 234.0122668 -46.87229167 235.42372849 -47.49488831 236.83509827 C-47.78506836 237.49428253 -48.07524841 238.1534668 -48.3742218 238.83262634 C-49.88973277 242.25358593 -51.47525153 245.61548354 -53.19801331 248.93666077 C-54.9721081 251.97905572 -54.9721081 251.97905572 -54.75270081 255.12025452 C-5.91270081 255.12025452 42.92729919 255.12025452 93.24729919 255.12025452 C87.89380288 242.62876313 82.53538044 230.22952765 76.79060364 217.92704773 C70.36390139 204.15721518 64.07258952 190.33364529 57.93479919 176.43275452 C52.81377899 164.83703535 47.59003087 153.30343386 42.2016449 141.82875061 C39.04785726 135.08414278 35.98645792 128.30685906 32.98948669 121.49134827 C32.62651489 120.66728485 32.26354309 119.84322144 31.88957214 118.9941864 C30.09622027 114.9198693 28.31124211 110.84217193 26.53831482 106.75892639 C25.88686439 105.27379405 25.23518298 103.788763 24.58323669 102.30384827 C24.29004547 101.62084152 23.99685425 100.93783478 23.69477844 100.23413086 C22.24211355 96.94338894 20.8734285 94.55902399 18.24729919 92.12025452 Z " fill="#000000" transform="translate(1418.752700805664,2627.8797454833984)"/>
<path d="M0 0 C6.53111021 5.28402814 11.66347504 11.14144958 12.984375 19.60546875 C14.00116461 30.57135168 12.77789087 39.26266435 5.734375 47.91796875 C-1.64536806 55.65731794 -9.08285395 58.19716436 -19.671875 58.7421875 C-28.74725595 58.48861068 -37.59476287 54.5318438 -44.35546875 48.52734375 C-50.30830534 41.52992907 -52.40301659 33.55905038 -51.953125 24.48046875 C-50.81417034 15.10226758 -46.55138846 6.1305534 -39.1328125 0.06640625 C-27.66637453 -7.62285215 -11.48871676 -7.83530483 0 0 Z M-40.015625 8.60546875 C-45.08332824 15.27794468 -47.74791642 22.11088832 -47.015625 30.60546875 C-45.60314256 37.16935776 -42.91198003 42.93306343 -38.015625 47.60546875 C-30.61230198 52.31880079 -23.4317284 54.84054249 -14.62109375 53.14453125 C-7.02475151 51.16084741 -1.52458552 47.77468204 3.359375 41.60546875 C7.72441248 33.54693801 8.75378254 23.91794971 6.26171875 15.02734375 C2.84081632 7.77004467 -2.71606127 3.56592799 -10.015625 0.60546875 C-21.29910843 -2.85755157 -31.81054841 0.40039216 -40.015625 8.60546875 Z " fill="#000000" transform="translate(2935.015625,2977.39453125)"/>
<path d="M0 0 C4.021875 -0.0825 8.04375 -0.165 12.1875 -0.25 C13.44715576 -0.28641602 14.70681152 -0.32283203 16.00463867 -0.36035156 C17.50861206 -0.37533691 17.50861206 -0.37533691 19.04296875 -0.390625 C20.06414795 -0.41157227 21.08532715 -0.43251953 22.13745117 -0.45410156 C25.74876717 0.11878098 27.38934073 1.49614175 30 4 C31.53214888 7.06429776 31.22938548 9.6165642 31 13 C29.15651373 17.2691261 26.95764144 18.74589326 23 21 C23.433125 21.90363281 23.86625 22.80726563 24.3125 23.73828125 C24.869375 24.91777344 25.42625 26.09726563 26 27.3125 C26.556875 28.48425781 27.11375 29.65601562 27.6875 30.86328125 C29 34 29 34 29 37 C26.69 37 24.38 37 22 37 C21.57589844 36.00097656 21.15179687 35.00195312 20.71484375 33.97265625 C20.12380983 32.66862903 19.53128304 31.36527772 18.9375 30.0625 C18.52467773 29.0734668 18.52467773 29.0734668 18.10351562 28.06445312 C17.14387248 25.86413704 17.14387248 25.86413704 15 23 C12.69 22.67 10.38 22.34 8 22 C8 26.95 8 31.9 8 37 C5.36 37 2.72 37 0 37 C0 24.79 0 12.58 0 0 Z M8 4 C8 7.63 8 11.26 8 15 C9.93719378 15.05406122 11.87481921 15.09282025 13.8125 15.125 C14.89144531 15.14820312 15.97039063 15.17140625 17.08203125 15.1953125 C20.19402868 15.23023717 20.19402868 15.23023717 23 13 C23.38896226 9.95312897 23.62444849 7.92272458 21.86328125 5.3203125 C19.16483263 3.40820426 17.07595843 3.70722715 13.8125 3.8125 C12.18248047 3.85310547 12.18248047 3.85310547 10.51953125 3.89453125 C9.68808594 3.92933594 8.85664063 3.96414062 8 4 Z " fill="#000000" transform="translate(2902,2986)"/>
</svg>
