<?xml version="1.0" encoding="UTF-8"?>
<svg version="1.1" xmlns="http://www.w3.org/2000/svg" width="512" height="512">
<path d="M0 0 C168.96 0 337.92 0 512 0 C512 168.96 512 337.92 512 512 C343.04 512 174.08 512 0 512 C0 343.04 0 174.08 0 0 Z " fill="#00499A" transform="translate(0,0)"/>
<path d="M0 0 C9.24 0 18.48 0 28 0 C28 16.83 28 33.66 28 51 C28.66 51 29.32 51 30 51 C30.2475 51.763125 30.495 52.52625 30.75 53.3125 C32.16782468 56.36082307 33.16292027 57.26622905 36 59 C38.57873609 59.56984448 38.57873609 59.56984448 41.25 59.6875 C42.14203125 59.75324219 43.0340625 59.81898438 43.953125 59.88671875 C44.62859375 59.92410156 45.3040625 59.96148437 46 60 C46.33 59.01 46.66 58.02 47 57 C47.61875 56.7525 48.2375 56.505 48.875 56.25 C52.11885368 54.34185078 53.01124616 51.48050406 54 48 C54.44823535 44.27200276 54.48807004 40.56846273 54.51171875 36.81640625 C54.52966995 35.76090073 54.54762115 34.7053952 54.56611633 33.61790466 C54.62004359 30.26614302 54.65405917 26.91452238 54.6875 23.5625 C54.72068853 21.2818815 54.7551796 19.00128156 54.79101562 16.72070312 C54.87819795 11.14711708 54.93841878 5.57416222 55 0 C63.91 0 72.82 0 82 0 C82 17.82 82 35.64 82 54 C81.34 54 80.68 54 80 54 C80.0825 54.969375 80.165 55.93875 80.25 56.9375 C80.27542452 61.10712176 78.79981713 64.19965217 76.97265625 67.88671875 C75.93102557 69.96148542 75.93102557 69.96148542 75.49609375 72.18359375 C75 74 75 74 73 75.375 C72.01 75.91125 71.02 76.4475 70 77 C68.53635473 77.99220897 67.0784906 78.99297409 65.625 80 C57.89683936 85.16492328 50.91386352 87.14745225 41.5625 87.125 C40.49128906 87.12757813 39.42007813 87.13015625 38.31640625 87.1328125 C27.42625108 86.69669321 18.38989146 82.59791213 10.4375 75.0625 C-2.26739477 61.07643937 -0.3844706 41.7922117 -0.1875 24.1875 C-0.17242703 21.8378992 -0.15874325 19.48828905 -0.14648438 17.13867188 C-0.1162552 11.42535842 -0.05749563 5.7133617 0 0 Z " fill="#F4F7FA" transform="translate(130,379)"/>
<path d="M0 0 C14.19 0 28.38 0 43 0 C43 0.66 43 1.32 43 2 C43.99 1.9175 44.98 1.835 46 1.75 C50.63412067 1.71209308 54.07634666 3.71714715 58 6 C58 6.66 58 7.32 58 8 C58.86625 8.061875 59.7325 8.12375 60.625 8.1875 C64.69497307 9.16730833 67.29821064 10.87580699 70 14 C71.90943325 17.26105453 73 20.16966123 73 24 C74.485 24.495 74.485 24.495 76 25 C79.56446958 38.23945844 78.33322672 51.6672759 76 65 C75.01 65 74.02 65 73 65 C73 65.66 73 66.32 73 67 C72.34 67 71.68 67 71 67 C70.9175 67.556875 70.835 68.11375 70.75 68.6875 C69.76104459 71.73677919 68.15242534 73.65189963 66 76 C65.34 76 64.68 76 64 76 C64 76.66 64 77.32 64 78 C61 80 61 80 58 80 C58 80.66 58 81.32 58 82 C56.58774074 82.67595315 55.16997095 83.34040059 53.75 84 C52.96109375 84.37125 52.1721875 84.7425 51.359375 85.125 C49 86 49 86 45 86 C45 86.66 45 87.32 45 88 C30.15 88 15.3 88 0 88 C0 78.76 0 69.52 0 60 C4.35251953 59.94392578 4.35251953 59.94392578 8.79296875 59.88671875 C11.60953218 59.84048066 14.42596392 59.78925529 17.24243164 59.73754883 C19.19677702 59.70433646 21.15121747 59.67629305 23.10571289 59.65356445 C25.91854282 59.61995067 28.73050447 59.56763146 31.54296875 59.51171875 C32.84949654 59.50213387 32.84949654 59.50213387 34.18241882 59.49235535 C38.91981698 59.37806421 42.17548819 59.09789549 46 56 C49.90614531 50.72142526 50.93339608 46.51072571 50 40 C48.77424341 35.84604713 47.77037014 33.66065845 44.47998047 30.83886719 C39.97620257 28.45901205 36.4610236 28.39774221 31.4453125 28.390625 C30.54376434 28.37408875 29.64221619 28.35755249 28.71334839 28.34051514 C25.85049543 28.29215897 22.9881732 28.27069184 20.125 28.25 C18.17705681 28.22182994 16.22913821 28.19190107 14.28125 28.16015625 C9.52059214 28.08310983 4.76159232 28.04247629 0 28 C0 18.76 0 9.52 0 0 Z " fill="#F4F7FA" transform="translate(41,379)"/>
<path d="M0 0 C6.58365045 -0.02540371 13.16728821 -0.04288948 19.75097656 -0.05493164 C21.98958814 -0.05995313 24.22819645 -0.06677158 26.46679688 -0.07543945 C29.6888103 -0.08760069 32.91078027 -0.09325024 36.1328125 -0.09765625 C37.62846237 -0.10539818 37.62846237 -0.10539818 39.15432739 -0.11329651 C43.88648227 -0.11367654 48.34670473 0.00971846 53 1 C53 1.66 53 2.32 53 3 C54.11375 3.0928125 54.11375 3.0928125 55.25 3.1875 C58.85122777 4.25149912 59.96756296 5.91370672 62 9 C62 9.66 62 10.32 62 11 C64.475 11.495 64.475 11.495 67 12 C67.99 14.97 67.99 14.97 69 18 C69.66 18 70.32 18 71 18 C72.93631171 24.46453674 73.24556441 30.27621577 73.125 37 C73.11597656 37.96550781 73.10695313 38.93101562 73.09765625 39.92578125 C73.07430635 42.28412099 73.04156047 44.64192286 73 47 C71.515 47.495 71.515 47.495 70 48 C69.9175 49.051875 69.835 50.10375 69.75 51.1875 C68.93792101 55.31556818 67.94169359 57.05830641 65 60 C63.515 60.495 63.515 60.495 62 61 C61.67 61.99 61.34 62.98 61 64 C60.01 64 59.02 64 58 64 C58.59393382 65.29640378 59.20057989 66.58698839 59.8125 67.875 C60.14894531 68.59429687 60.48539062 69.31359375 60.83203125 70.0546875 C61.99467097 72.30542806 61.99467097 72.30542806 65 74 C66.02572347 75.76296221 67.04885226 77.52825248 68.015625 79.32421875 C68.97987268 81.1266125 68.97987268 81.1266125 70.75 82.75 C72 84 72 84 72 87 C66.71667018 87.22343295 61.43611817 87.38621314 56.14916992 87.49438477 C54.35343507 87.53949236 52.55802804 87.60080075 50.76342773 87.67895508 C35.83454698 88.31255251 35.83454698 88.31255251 31.30664062 85.07299805 C29.51877189 82.78106779 28.24412966 80.61821362 27 78 C26.22430007 76.88455849 25.43461402 75.77857528 24.625 74.6875 C23.21467281 72.35503579 22.41044059 70.6678638 22 68 C21.34 68 20.68 68 20 68 C19.67 66.35 19.34 64.7 19 63 C18.01 63 17.02 63 16 63 C14.67578125 61.63671875 14.67578125 61.63671875 13.3125 59.6875 C12.80074219 58.96691406 12.28898438 58.24632812 11.76171875 57.50390625 C11.18035156 56.67761719 10.59898437 55.85132813 10 55 C9.28457031 54.03964844 8.56914062 53.07929688 7.83203125 52.08984375 C2 44.25530973 2 44.25530973 2 42 C3.73286255 41.970271 3.73286255 41.970271 5.50073242 41.93994141 C9.79668561 41.86373059 14.09230692 41.77503711 18.38793945 41.68261719 C20.24529456 41.64439134 22.10272208 41.60952737 23.96020508 41.578125 C26.63388912 41.53233539 29.30707742 41.47436421 31.98046875 41.4140625 C32.80773972 41.40251129 33.63501068 41.39096008 34.48735046 41.37905884 C38.75464411 41.27041409 42.10658311 40.95873577 46 39 C45.8453125 37.081875 45.8453125 37.081875 45.6875 35.125 C45.62949219 34.40570313 45.57148438 33.68640625 45.51171875 32.9453125 C45.12606964 30.60480784 45.12606964 30.60480784 42 29 C40.04479191 28.67508765 40.04479191 28.67508765 37.89575195 28.68115234 C37.07512772 28.66128265 36.25450348 28.64141296 35.40901184 28.62094116 C34.0870002 28.60361435 34.0870002 28.60361435 32.73828125 28.5859375 C31.83248825 28.56657135 30.92669525 28.5472052 29.99345398 28.5272522 C27.09989849 28.46746458 24.2063032 28.42107432 21.3125 28.375 C19.35089409 28.33681946 17.38930494 28.29776769 15.42773438 28.2578125 C10.6186256 28.16176368 5.80943834 28.07772957 1 28 C-0.35700647 25.28598706 -0.1123861 23.15153684 -0.09765625 20.1171875 C-0.09443359 18.95058594 -0.09121094 17.78398437 -0.08789062 16.58203125 C-0.07951172 15.35871094 -0.07113281 14.13539063 -0.0625 12.875 C-0.05798828 11.64394531 -0.05347656 10.41289062 -0.04882812 9.14453125 C-0.0370133 6.09630608 -0.02054028 3.04817686 0 0 Z " fill="#F9FBFC" transform="translate(224,379)"/>
<path d="M0 0 C0.66 0 1.32 0 2 0 C2 0.66 2 1.32 2 2 C2.66 2 3.32 2 4 2 C4.268125 2.78375 4.53625 3.5675 4.8125 4.375 C5.84814432 7.28114923 5.84814432 7.28114923 9 9 C10.0625 10.76953125 10.0625 10.76953125 11 12.8125 C12.16199992 15.27504598 13.32925529 17.5409194 14.75 19.875 C16 22 16 22 16 24 C16.66 24 17.32 24 18 24 C18.4125 24.99 18.825 25.98 19.25 27 C21.5484222 32.34140369 23.94469055 37.5747096 27.25 42.375 C29 45 29 45 29 47 C29.66 47 30.32 47 31 47 C31.99 49.97 31.99 49.97 33 53 C33.66 53 34.32 53 35 53 C35 53.99 35 54.98 35 56 C35.66 56 36.32 56 37 56 C37.37125 56.928125 37.7425 57.85625 38.125 58.8125 C40.01641621 63.27149087 42.40671546 67.43520367 44.79296875 71.64453125 C46 74 46 74 46 76 C46.66 76 47.32 76 48 76 C48 76.99 48 77.98 48 79 C48.66 79 49.32 79 50 79 C50.33 80.98 50.66 82.96 51 85 C39.45 85 27.9 85 16 85 C14.68 82.36 13.36 79.72 12 77 C11.319375 76.319375 10.63875 75.63875 9.9375 74.9375 C7.31636275 72.31636275 6.36572891 69.41432227 5 66 C4.34 65.01 3.68 64.02 3 63 C3 62.01 3 61.02 3 60 C1.68 60 0.36 60 -1 60 C-1.25910156 60.70640625 -1.51820313 61.4128125 -1.78515625 62.140625 C-3.09295342 65.21878425 -4.65861709 67.91908957 -6.4375 70.75 C-7.03433594 71.71421875 -7.63117188 72.6784375 -8.24609375 73.671875 C-10 76 -10 76 -13 77 C-13.61067144 78.85744207 -13.61067144 78.85744207 -14 81 C-14.66 82.32 -15.32 83.64 -16 85 C-26.89 85 -37.78 85 -49 85 C-49 83.02 -49 81.04 -49 79 C-48.01 79 -47.02 79 -46 79 C-45.67 77.02 -45.34 75.04 -45 73 C-44.34 73 -43.68 73 -43 73 C-43 72.01 -43 71.02 -43 70 C-42.34 70 -41.68 70 -41 70 C-40.7525 69.34 -40.505 68.68 -40.25 68 C-38.68122391 64.23493738 -36.84870273 60.63365709 -35 57 C-34.13375 55.2675 -34.13375 55.2675 -33.25 53.5 C-32.8375 52.675 -32.425 51.85 -32 51 C-31.34 51 -30.68 51 -30 51 C-29.59394531 50.17435547 -29.59394531 50.17435547 -29.1796875 49.33203125 C-25.68929935 42.43215799 -21.86776825 35.69421429 -18 29 C-17.34 29 -16.68 29 -16 29 C-15.8865625 28.278125 -15.773125 27.55625 -15.65625 26.8125 C-13.86151743 19.120789 -8.65096907 12.27531241 -4.25 5.8125 C-3.86134766 5.23564453 -3.47269531 4.65878906 -3.07226562 4.06445312 C-2.10187006 2.6706738 -1.0568024 1.32945742 0 0 Z " fill="#F8FAFC" transform="translate(350,382)"/>
<path d="M0 0 C9.24 0 18.48 0 28 0 C28 19.8 28 39.6 28 60 C41.2 60 54.4 60 68 60 C68 69.24 68 78.48 68 88 C45.56 88 23.12 88 0 88 C0 58.96 0 29.92 0 0 Z " fill="#F0F4F9" transform="translate(405,379)"/>
<path d="M0 0 C6.58365045 -0.02540371 13.16728821 -0.04288948 19.75097656 -0.05493164 C21.98958814 -0.05995313 24.22819645 -0.06677158 26.46679688 -0.07543945 C29.6888103 -0.08760069 32.91078027 -0.09325024 36.1328125 -0.09765625 C37.62846237 -0.10539818 37.62846237 -0.10539818 39.15432739 -0.11329651 C43.88648227 -0.11367654 48.34670473 0.00971846 53 1 C53 1.66 53 2.32 53 3 C53.804375 3.12375 54.60875 3.2475 55.4375 3.375 C56.7059375 3.684375 56.7059375 3.684375 58 4 C58.495 4.99 58.495 4.99 59 6 C57.68 6 56.36 6 55 6 C55 5.34 55 4.68 55 4 C44.28324389 1.29096704 33.2887635 1.55160627 22.3125 1.375 C20.33917681 1.33674914 18.36586904 1.29769347 16.39257812 1.2578125 C11.59513963 1.16109807 6.79783381 1.08092219 2 1 C2 8.92 2 16.84 2 25 C6.17076172 24.94779297 6.17076172 24.94779297 10.42578125 24.89453125 C13.11644463 24.87114025 15.80709672 24.85292108 18.49780273 24.83520508 C20.36894799 24.82011127 22.24005783 24.79963411 24.11108398 24.77368164 C26.79940526 24.73732407 29.48725913 24.72027985 32.17578125 24.70703125 C33.43217155 24.68380547 33.43217155 24.68380547 34.71394348 24.66011047 C40.60815592 24.65839946 40.60815592 24.65839946 42.74504089 26.52128601 C43.1591774 27.00926163 43.5733139 27.49723724 44 28 C43.67 28.66 43.34 29.32 43 30 C42.67 29.67 42.34 29.34 42 29 C38.97192956 28.8396444 35.96414546 28.74039552 32.93359375 28.68359375 C32.02497086 28.66281265 31.11634796 28.64203156 30.18019104 28.62062073 C27.26604054 28.55502328 24.35179696 28.4961932 21.4375 28.4375 C19.46678709 28.39432446 17.49608374 28.35071049 15.52539062 28.30664062 C10.68369012 28.19933157 5.84189563 28.09809325 1 28 C-0.35700647 25.28598706 -0.1123861 23.15153684 -0.09765625 20.1171875 C-0.09443359 18.95058594 -0.09121094 17.78398437 -0.08789062 16.58203125 C-0.07951172 15.35871094 -0.07113281 14.13539063 -0.0625 12.875 C-0.05798828 11.64394531 -0.05347656 10.41289062 -0.04882812 9.14453125 C-0.0370133 6.09630608 -0.02054028 3.04817686 0 0 Z " fill="#9CB8D7" transform="translate(224,379)"/>
<path d="M0 0 C0.66 0.33 1.32 0.66 2 1 C2.48828125 6.95703125 2.48828125 6.95703125 2 9 C-2.4377127 12.63125647 -6.56916665 12.39498207 -12.01953125 12.29296875 C-12.87810226 12.28872391 -13.73667328 12.28447906 -14.6212616 12.28010559 C-17.35199914 12.26336995 -20.08198712 12.22572766 -22.8125 12.1875 C-24.6686091 12.17244653 -26.52472982 12.15875928 -28.38085938 12.14648438 C-32.92085985 12.11348323 -37.46030302 12.06173659 -42 12 C-41.34 13.65 -40.68 15.3 -40 17 C-40.66 17 -41.32 17 -42 17 C-42.33 14.69 -42.66 12.38 -43 10 C-29.47 9.67 -15.94 9.34 -2 9 C-1.67 8.01 -1.34 7.02 -1 6 C-0.34 6 0.32 6 1 6 C0.505 3.03 0.505 3.03 0 0 Z " fill="#5686BC" transform="translate(268,409)"/>
<path d="M0 0 C2.53833449 1.26916725 2.89400901 2.41624809 4.125 4.9375 C4.47820312 5.64777344 4.83140625 6.35804688 5.1953125 7.08984375 C6 9 6 9 6 11 C6.66 11 7.32 11 8 11 C8 11.99 8 12.98 8 14 C8.66 14 9.32 14 10 14 C10.495 16.97 10.495 16.97 11 20 C-0.55 20 -12.1 20 -24 20 C-24 19.34 -24 18.68 -24 18 C-13.11 18 -2.22 18 9 18 C9 17.01 9 16.02 9 15 C8.34 15 7.68 15 7 15 C7 14.34 7 13.68 7 13 C6.34 13 5.68 13 5 13 C0.59225513 4.738041 0.59225513 4.738041 0 0 Z " fill="#83A6CD" transform="translate(390,447)"/>
<path d="M0 0 C12.21 0 24.42 0 37 0 C37 0.66 37 1.32 37 2 C38.98 2 40.96 2 43 2 C43.495 3.485 43.495 3.485 44 5 C43.40533936 4.86287598 42.81067871 4.72575195 42.19799805 4.58447266 C33.41262393 2.75823968 24.7464854 2.56042052 15.8125 2.375 C14.27276677 2.33672158 12.73305268 2.29766454 11.19335938 2.2578125 C7.46241717 2.16291176 3.73132758 2.07850052 0 2 C0 1.34 0 0.68 0 0 Z " fill="#C4D4E7" transform="translate(42,404)"/>
<path d="M0 0 C0.99 0 1.98 0 3 0 C2.67 1.32 2.34 2.64 2 4 C12.56 4 23.12 4 34 4 C33.67 4.66 33.34 5.32 33 6 C22.11 6 11.22 6 0 6 C0 4.02 0 2.04 0 0 Z " fill="#80A4CC" transform="translate(301,461)"/>
<path d="M0 0 C0.66 0 1.32 0 2 0 C2.66 1.98 3.32 3.96 4 6 C4.66 6 5.32 6 6 6 C7.93631171 12.46453674 8.24556441 18.27621577 8.125 25 C8.11597656 25.96550781 8.10695313 26.93101562 8.09765625 27.92578125 C8.07430635 30.28412099 8.04156047 32.64192286 8 35 C6.515 35.495 6.515 35.495 5 36 C5.01571045 35.38068604 5.0314209 34.76137207 5.04760742 34.12329102 C5.1106403 31.26978995 5.14920437 28.41643609 5.1875 25.5625 C5.21263672 24.58861328 5.23777344 23.61472656 5.26367188 22.61132812 C5.32848742 16.15137896 4.45608186 10.97103574 2 5 C1.608125 3.989375 1.21625 2.97875 0.8125 1.9375 C0.544375 1.298125 0.27625 0.65875 0 0 Z " fill="#ABC3DD" transform="translate(289,391)"/>
<path d="M0 0 C0.66 0 1.32 0 2 0 C2 0.66 2 1.32 2 2 C2.66 2 3.32 2 4 2 C4.89719841 9.49281912 5.44871284 15.10257433 2 22 C1.01 22 0.02 22 -1 22 C0.875 17.125 0.875 17.125 2 16 C2.52618714 10.29759979 1.83492674 5.39009729 0 0 Z " fill="#B9CDE3" transform="translate(89,412)"/>
<path d="M0 0 C5.56218905 1.68159204 5.56218905 1.68159204 8.0625 3.5 C12.34657156 5.68761101 16.56410366 5.82172247 21.3125 6.1875 C22.24384766 6.26935547 23.17519531 6.35121094 24.13476562 6.43554688 C26.42246232 6.6349871 28.71049448 6.82275822 31 7 C31 7.33 31 7.66 31 8 C15.25512528 8.18451025 15.25512528 8.18451025 8 7 C8 6.34 8 5.68 8 5 C6.68 5 5.36 5 4 5 C4 4.34 4 3.68 4 3 C2.68 2.34 1.36 1.68 0 1 C0 0.67 0 0.34 0 0 Z " fill="#5D8BBE" transform="translate(147,459)"/>
<path d="M0 0 C3.48331435 3.01887244 4.79157144 5.56909529 6 10 C6.66 10 7.32 10 8 10 C9.71767682 13.98188718 11.41037341 17.96479403 13 22 C12.34 22 11.68 22 11 22 C11 21.01 11 20.02 11 19 C10.34 19 9.68 19 9 19 C9 18.01 9 17.02 9 16 C8.34 16 7.68 16 7 16 C7 14.68 7 13.36 7 12 C6.34 12 5.68 12 5 12 C4.34 10.02 3.68 8.04 3 6 C2.34 6 1.68 6 1 6 C0.67 4.02 0.34 2.04 0 0 Z " fill="#A1BBD9" transform="translate(360,396)"/>
<path d="M0 0 C0.33 0 0.66 0 1 0 C1.18175781 0.88042969 1.36351562 1.76085937 1.55078125 2.66796875 C1.80214844 3.82941406 2.05351562 4.99085938 2.3125 6.1875 C2.55613281 7.33605469 2.79976562 8.48460937 3.05078125 9.66796875 C3.97099165 12.89817232 5.21504669 15.18507363 7 18 C7 18.66 7 19.32 7 20 C6.01 20 5.02 20 4 20 C4 18.35 4 16.7 4 15 C3.34 15 2.68 15 2 15 C-0.10428384 9.87080814 -0.21755666 5.4389165 0 0 Z " fill="#4177B3" transform="translate(130,429)"/>
<path d="M0 0 C0.33 0.66 0.66 1.32 1 2 C-0.49879966 4.99759932 -2.80308864 5.30788674 -5.85546875 6.40234375 C-8.6234943 7.17376071 -11.1459642 7.21405269 -14 7 C-14.33 6.34 -14.66 5.68 -15 5 C-11.7 5 -8.4 5 -5 5 C-4.67 4.01 -4.34 3.02 -4 2 C-1.9375 0.8125 -1.9375 0.8125 0 0 Z " fill="#98B6D6" transform="translate(181,434)"/>
<path d="M0 0 C0.33 0.66 0.66 1.32 1 2 C0.2578125 4.0234375 0.2578125 4.0234375 -0.875 6.375 C-2.24561558 9.24083259 -3.33240022 11.88926913 -4 15 C-4.99 15 -5.98 15 -7 15 C-6.01 12.03 -5.02 9.06 -4 6 C-3.34 6 -2.68 6 -2 6 C-2 4.35 -2 2.7 -2 1 C-1.34 0.67 -0.68 0.34 0 0 Z " fill="#9FBAD9" transform="translate(209,438)"/>
<path d="M0 0 C0.99 0.495 0.99 0.495 2 1 C2 1.66 2 2.32 2 3 C2.99 3 3.98 3 5 3 C5.33 4.65 5.66 6.3 6 8 C6.66 8 7.32 8 8 8 C8.33 9.32 8.66 10.64 9 12 C8.34 12 7.68 12 7 12 C7 11.01 7 10.02 7 9 C5.68 8.67 4.36 8.34 3 8 C3 6.68 3 5.36 3 4 C2.34 4 1.68 4 1 4 C0.67 2.68 0.34 1.36 0 0 Z " fill="#779DC8" transform="translate(238,439)"/>
<path d="M0 0 C0.66 0 1.32 0 2 0 C2.66 1.98 3.32 3.96 4 6 C4.66 6 5.32 6 6 6 C6.33 8.31 6.66 10.62 7 13 C4.07476518 11.53738259 3.67646763 9.45303767 2.375 6.5 C1.92898438 5.4996875 1.48296875 4.499375 1.0234375 3.46875 C0 1 0 1 0 0 Z " fill="#81A5CC" transform="translate(289,391)"/>
<path d="M0 0 C0 0.99 0 1.98 0 3 C-0.66 3 -1.32 3 -2 3 C-2 3.66 -2 4.32 -2 5 C-4.90600261 6.25664978 -6.79604584 7 -10 7 C-3.71428571 1.57142857 -3.71428571 1.57142857 0 0 Z " fill="#5C8ABE" transform="translate(200,455)"/>
<path d="M0 0 C4.17950077 3.45889719 5.32762134 6.98286401 7 12 C6.34 12 5.68 12 5 12 C4.34 10.02 3.68 8.04 3 6 C2.34 6 1.68 6 1 6 C0.67 4.02 0.34 2.04 0 0 Z " fill="#B1C7E0" transform="translate(360,396)"/>
<path d="M0 0 C0.99 0 1.98 0 3 0 C3.99 2.97 4.98 5.94 6 9 C2.44226614 7.22113307 1.21265232 3.63795695 0 0 Z " fill="#467BB5" transform="translate(373,418)"/>
</svg>
