<?xml version="1.0" encoding="utf-8"?>
<!-- Generator: Adobe Illustrator 27.5.0, SVG Export Plug-In . SVG Version: 6.00 Build 0)  -->
<svg version="1.1" id="Layer_1" xmlns="http://www.w3.org/2000/svg" xmlns:xlink="http://www.w3.org/1999/xlink" x="0px" y="0px"
	 viewBox="0 0 542 136" style="enable-background:new 0 0 542 136;" xml:space="preserve">
<g>
	<path d="M526.3,30.1c4.5,0,8.1,3.5,8.1,8c0,4.5-3.6,8-8.2,8c-4.6,0-8.2-3.6-8.2-8C518,33.7,521.6,30.1,526.3,30.1L526.3,30.1z
		 M526.2,31.8c-3.5,0-6.1,2.9-6.1,6.4c0,3.6,2.7,6.4,6.2,6.4c3.5,0,6.1-2.8,6.1-6.3C532.3,34.6,529.7,31.8,526.2,31.8L526.2,31.8z
		 M525,42.3h-1.9v-8c0.7-0.1,1.8-0.2,3.1-0.2c1.5,0,2.2,0.2,2.7,0.6c0.5,0.3,0.8,0.9,0.8,1.7c0,1-0.7,1.6-1.7,1.9v0.1
		c0.8,0.2,1.2,0.9,1.4,1.9c0.2,1.2,0.4,1.7,0.6,1.9h-1.9c-0.2-0.3-0.4-1-0.6-1.9c-0.1-0.8-0.6-1.2-1.7-1.2H525V42.3z M525,37.8h0.9
		c1,0,1.9-0.3,1.9-1.2c0-0.7-0.5-1.2-1.7-1.2c-0.5,0-0.8,0-1,0.1V37.8z"/>
</g>
<path d="M511.2,38.3l-13.1-15L463.9,38l1.5-20.8l-17.5-2.3l-3.8,66.7l-7.8-67.2l-11.1,3.7l-4.7,62.6h-27.2l-15.6-49l2.4-6.2
	l-8.1-2.2l-3.6,10.8l-16.9-10.8l-45.1,5.8l-8.5,28l45.7,10.2L321,92.2l-15.1-13.8l12.5-4.3l-10.2-6l-17.4,4.1l5.3-11.7l-11.2-12.1
	l-23.7-4.1l28.9-10.8l5.7,2.9l3.8-6.5l-11.2-6.6l-44.1,4.4l-21.6,29.3l49.4,11.4l-9.5,24.9l-22.1-10l11.1-6.4l-6.9-6.4l-20.3,6.2
	l-7.3,11.8l-33.1-45.6l-50.1-31l-26.4,70.5L77.1,97L55.7,80.2L103,58.5l2.2-16.8L56.9,61.3l2.7-14.4l47.6-19.1l3.4-19.1L38.7,36.9
	l-28.2,80.2l57.6,5.7l39.5-24.3l29.1,21.5l0.1-29.2l55.4,1.8l-5.1,25.4l29.2,1.3l0.8-11.4l3.9-11.1l4.1,12.7l38.2,14.2L289.5,75
	l0.4-0.9l9,23.5l35.2,25.5l37.3-56.6l3,27.6l17.8,29l35.7-11.4l2.3-7.2l2.7,5.6l10-4.2l22.8,10V73.2L491,49.7l-2.4,19.9l-0.4,48.5
	l21.3-11.4l-1.3-26.7L511.2,38.3z M136,66.9l6.6-21.7l41.5,31L136,66.9z M360.8,49.9l-29.9-5l23.4-12.2l11.9,9l2-4.2l2.9,26.6
	L360.8,49.9z"/>
</svg>
