<?xml version="1.0" encoding="UTF-8"?>
<svg xmlns="http://www.w3.org/2000/svg" version="1.1" viewBox="0 0 1206.6 185.3">
  <!-- Generator: Adobe Illustrator 28.6.0, SVG Export Plug-In . SVG Version: 1.2.0 Build 709)  -->
  <g>
    <g id="Capa_1">
      <g>
        <path d="M605.8,96c0,13.1-.1,25.2.2,37.3,0,.9,3,2.6,4.6,2.6,20.7.2,41.3.1,62,.1,2.3,0,4.6,0,7.3,0v22.9h-99.4V14.1h95.6v23c-2.1,0-3.9,0-5.7,0-19.8,0-39.7,0-59.5,0-3.8,0-5.3.8-5.2,4.9.3,8.8.3,17.7,0,26.5-.1,3.9,1.4,4.7,4.9,4.7,18.7-.1,37.3,0,56,0,1.8,0,3.6,0,5.7,0v22.9h-66.5Z"/>
        <path d="M1034.5,73.1v22.9h-66.4c-.2,2.1-.4,3.7-.4,5.3,0,9.8.2,19.7,0,29.5-.1,4.1,1.1,5.4,5.3,5.4,20.7-.2,41.3-.1,62-.1,2.1,0,4.2,0,6.7,0v22.8h-99.7c0-1.9,0-3.6,0-5.4,0-44.7,0-89.3,0-134,0-4.2.8-5.8,5.4-5.8,28.7.2,57.3.1,86,.1,1.5,0,2.9.1,4.8.2v23.1c-2.1,0-3.9,0-5.6,0-19.8,0-39.7,0-59.5,0-3.8,0-5.3.9-5.2,5,.3,8.5.3,17,0,25.5-.2,4.3,1,5.8,5.5,5.7,18.5-.3,37-.1,55.5-.1,1.8,0,3.6,0,5.8,0Z"/>
        <path d="M796.3,24.7c-6.7,7.1-12.7,13.4-18.9,19.9-9.6-10.4-21.3-13-34.4-10.2-9.3,2-15.2,8.9-15.3,17.3-.1,5.6,1.8,10.6,6.9,12.9,9.2,4.2,18.6,8,28.1,11.4,9.5,3.4,18.6,7.3,25.4,15.2,14.9,17.3,10.8,47.7-8.5,61.3-16,11.3-34,12.6-52.6,8.7-12-2.5-22.6-7.7-30.3-17.3,6.1-6.5,12-12.7,19-20.2.9,1.7,1.4,3,2.2,4,10.1,11.1,22.5,14.4,36.8,10.4,9.8-2.7,15.4-10.2,15.1-19.3-.1-5-1.6-9.7-6-12-8.4-4.3-17.1-7.9-25.8-11.6-5.5-2.4-11.3-4-16.7-6.6-28-13.9-25.7-51.3-5-67,20.5-15.5,57.5-15.2,77.2,1.3.8.6,1.7,1.1,2.8,1.8Z"/>
        <path d="M913.8,25.3c-6.2,6.5-12.1,12.8-18.3,19.3-9.4-10.1-20.9-13-33.8-10.3-7.4,1.6-13.3,5.4-15.4,13.3-1.9,7.2,0,13.9,6.6,17.1,9,4.5,18.8,7.4,28.1,11.5,7.2,3.2,14.8,6.3,21,11,19.5,14.6,16.2,50.5-3.5,64.4-17.9,12.8-37.7,13.8-58.3,8.2-11.8-3.2-19.2-8.2-25.2-15.7,6-6.5,11.9-13,17.4-19.1,4.6,3.7,8.5,7.5,13,10.1,10.4,5.9,21.4,6.2,32,.6,13.3-7,14.2-23.3,1.5-31-7.2-4.3-15.5-6.7-23.4-9.8-5.1-2-10.4-3.7-15.3-6-28.9-13.6-27-51.5-6.1-67.4,20.9-16,58.6-15.2,78.4,2.1.4.3.6.8,1.2,1.5Z"/>
        <path d="M496,122.3c4.8-13,9.7-26.1,14.5-39.1,8.2-22,16.3-44,24.7-65.9.5-1.4,2.6-3.2,4-3.2,8-.3,15.9-.2,24.8-.2-3.2,8-6.1,15.3-9,22.6-15.9,39.4-31.9,78.7-47.6,118.1-1.5,3.7-3.3,5.2-7.3,4.8-4.1-.4-8.3-.3-12.5,0-3.3.2-5-.8-6.3-4-17.9-45.9-35.9-91.8-53.9-137.7-.4-1-.7-2.1-1.2-3.8,9.4,0,18.3-.2,27.3.2,1.3,0,3,2.7,3.7,4.5,7.6,20.6,14.9,41.3,22.4,62,5,13.9,10.1,27.8,15.1,41.7.4,0,.8,0,1.3,0Z"/>
        <path d="M415.8,86.6c0,33.1-16.9,59.8-45,70.9-33.4,13.3-71.8,3.2-91.4-24.4-24.2-34.1-18.3-93.1,25.4-114.7,46.7-23,110.6,1.6,111,68.2ZM278.9,86.2c0,1.3,0,2.7,0,4,1.7,23.5,10.7,43,32.5,53.7,22.2,11,44.8,10.1,65.5-4.1,19.1-13.1,26.2-32.7,25.6-55.1-1.3-51.2-46.7-72.7-85.9-58-23.3,8.7-37.5,31.7-37.6,59.5Z"/>
        <path d="M1067.7,158.9c0-2.1,0-3.7,0-5.4,0-44.5,0-89-.1-133.5,0-5.2,1.5-6.6,6.5-6.3,6.3.4,12.6,0,19.4,0v6.4c0,36.7,0,73.3,0,110,0,4.4,1,6,5.8,6,18.5-.3,37-.1,55.9-.1v22.8h-87.3Z"/>
        <path d="M100.1,159.1H9.8V13.8c1.7,0,3.6,0,5.6,0,25,0,50,0,75,0q6.8,0,6.8,6.7c0,1.6-.1,3.3-.2,5.4H22c-.2,1.7-.5,3-.5,4.3,0,14.3,0,28.7-.1,43,0,3.7,1.2,4.9,4.9,4.9,20-.1,40,0,60,0,1.8,0,3.6,0,5.7,0v12.2c-2.3,0-4.4,0-6.6,0-19.7,0-39.3.1-59,0-4.1,0-5.1,1.2-5.1,5.1.2,15.7.2,31.3,0,47,0,4,1.3,5.1,5.2,5,22.3-.2,44.7,0,67,0q6.9,0,6.8,7.1c0,1.5-.1,2.9-.2,4.8Z"/>
        <path d="M239.1,128.4c3.7,2.8,7,5.3,10.6,8.1-6.9,9.8-15.5,17.2-26.4,21.4-43.3,16.6-100.3-6.2-102.5-68.3-.9-27,7.8-50.4,30.7-65.9,25-16.9,51.9-18.8,78.9-4.6,5.9,3.1,10.5,8.4,16.3,13.1-4.3,3.6-7.7,6.5-11,9.2-.7-.2-1.1-.2-1.3-.4-14.1-20.5-44.2-23.5-66.5-12.6-23.9,11.7-36.8,37.6-33.4,66.5,3.4,28.9,20.8,49.2,47.7,54.6,22.9,4.6,42.1-2.2,57-21.1Z"/>
        <g>
          <path d="M1164.3,27.4c1.1-.2,2.6-.3,4.1-.3,2.3,0,3.7.4,4.8,1.3.8.7,1.3,1.9,1.3,3.1,0,2.2-1.4,3.6-3.1,4.2h0c1.3.5,2,1.7,2.4,3.4.5,2.3.9,3.9,1.3,4.5h-2.2c-.3-.5-.6-1.9-1.1-3.9-.5-2.3-1.4-3.1-3.3-3.2h-2v7.1h-2.1v-16.2ZM1166.4,34.9h2.2c2.3,0,3.7-1.2,3.7-3.1s-1.5-3.1-3.8-3.1c-1,0-1.8,0-2.1.2v6Z"/>
          <path d="M1169.7,52.4c-9.4,0-17.1-7.7-17.1-17.1s7.7-17.1,17.1-17.1,17.1,7.7,17.1,17.1-7.7,17.1-17.1,17.1ZM1169.7,20.2c-8.3,0-15.1,6.8-15.1,15.1s6.8,15.1,15.1,15.1,15.1-6.8,15.1-15.1-6.8-15.1-15.1-15.1Z"/>
        </g>
      </g>
    </g>
  </g>
</svg>