<?xml version="1.0" encoding="utf-8"?>
<!-- Generator: Adobe Illustrator 27.5.0, SVG Export Plug-In . SVG Version: 6.00 Build 0)  -->
<svg version="1.1" id="Capa_1" xmlns="http://www.w3.org/2000/svg" xmlns:xlink="http://www.w3.org/1999/xlink" x="0px" y="0px"
	 viewBox="0 0 196.4 31" style="enable-background:new 0 0 196.4 31;" xml:space="preserve">
<style type="text/css">
	.st0{fill-rule:evenodd;clip-rule:evenodd;fill:#BF0811;}
</style>
<g>
	<polygon class="st0" points="146.7,17.8 186,17.8 188,12.1 148.7,12.1 146.7,17.8 	"/>
	<polygon class="st0" points="96.2,27.2 90.5,27.2 99.3,2.7 105.1,2.7 96.2,27.2 	"/>
	<polygon class="st0" points="7.7,17.8 47.1,17.8 49.1,12.1 9.8,12.1 7.7,17.8 	"/>
	<polygon class="st0" points="143.2,27.2 182.6,27.2 184.6,21.6 145.3,21.6 143.2,27.2 	"/>
	<polygon class="st0" points="4.3,27.2 43.6,27.2 45.7,21.6 6.4,21.6 4.3,27.2 	"/>
	<polygon class="st0" points="150.1,8.4 189.4,8.4 191.4,2.7 152.1,2.7 150.1,8.4 	"/>
	<polygon class="st0" points="11.2,8.4 50.5,8.4 52.5,2.7 13.2,2.7 11.2,8.4 	"/>
	<polygon class="st0" points="47.5,27.2 86.6,27.2 88.6,21.6 55.3,21.6 62.1,2.7 56.4,2.7 47.5,27.2 	"/>
	<path class="st0" d="M106.9,8.4h33.5l-6.8,18.9h5.8c3-8.2,5.9-16.4,8.9-24.5h-39.3L106.9,8.4L106.9,8.4z"/>
</g>
</svg>
