<?xml version="1.0" encoding="UTF-8"?>
<svg xmlns="http://www.w3.org/2000/svg" version="1.1" viewBox="0 0 2500 465.6">
  <defs>
    <style>
      .cls-1 {
        fill: #cf2f2f;
      }
    </style>
  </defs>
  <!-- Generator: Adobe Illustrator 28.6.0, SVG Export Plug-In . SVG Version: 1.2.0 Build 709)  -->
  <g>
    <g id="Capa_1">
      <g>
        <path class="cls-1" d="M446.9,33.4c-31.6,3.4-43.9,5.3-78,12.6-7.5,1.7-19,4.2-25.2,5.3-55.3,10.9-152.3,49.5-204,81.3-30.2,18.4-72.7,52-89.7,71-18.7,20.4-37.5,50.9-43.9,70.7C.3,292.2,0,318.4,5.6,337.4c4.5,15.9,23.5,41.9,38.3,53.1,29.3,21.8,71.5,38,126.9,48.4,35.5,6.7,42.5,7,97.3,5.9,55.9-1.1,79.9-3.9,140-15.7,92.8-17.9,214.4-71,272.8-119.1,24.6-20.4,53.4-50.6,65.1-68.5,45.8-69.6,28.5-133.6-47.2-174.1-59.8-31.9-152.6-44.4-251.8-34.1h0ZM556.2,65.5c72.4,15.9,105.6,36.1,132.8,79.7,6.1,10.1,7,14,7,41.9s-.6,31.6-9.2,48.6c-26.6,51.7-83.6,99.2-158.5,131.4-7.5,3.4-16.2,7.3-18.7,8.7-2.8,1.7-6.4,2.8-8.1,2.8s-7,1.7-11.7,3.9c-16.8,7.3-51.1,16.2-98.4,25.4-46.4,9.2-124.7,8.4-174.7-1.7-80.5-15.9-134.2-64-134.2-119.6.3-51.7,44.4-108.7,119.1-153.7,22.6-13.7,53.1-28.8,65.4-32.4,3.9-1.1,8.4-3.1,9.8-4.2,8.1-5.9,81.9-25.7,114.6-30.7,10.6-1.7,19.8-3.6,20.7-4.5.6-.6,27.7-1.1,60.4-1.1,48.6,0,63.4.8,83.8,5.6h0Z"/>
        <path class="cls-1" d="M276.4,126.7c-33.5,8.1-40.5,45.3-11.5,60.9,7.3,4.2,18.2,5.3,59,6.4,36.9,1.1,50.3,2.2,51.4,5,1.1,3.9-1.7,6.4-52.5,46.7-20.7,16.5-40.2,31.9-43.3,34.4s-14.5,12-25.4,20.7c-20.7,16.2-25.2,24.6-21.5,38.8,5,20.7,39.1,34.1,61.5,24.3,4.2-2,19.3-12.3,33-23.2,14-10.9,40.2-31.9,58.7-46.4q53.1-41.9,56.7-38.3c2.2,2.2,3.4,14.5,3.4,35.8s.6,33,6.7,42.2c15.9,23.5,53.4,26.3,73.2,5.9l9.5-9.8-.6-102.3-.8-102.3-124.4-.6c-68.5,0-128.3.6-133,1.7h0ZM874.5,101.6c-13.7,2.2-29.1,13.1-34.1,23.8-8.4,17.9-36.9,88.9-36.9,92s-3.1,8.4-7,16.5c-3.9,7.8-7,15.9-7,17.3s-1.7,6.1-3.6,10.1-5.9,13.1-8.7,21c-2.8,7.5-7,17.6-8.9,22.4-12.9,28.8-23.2,61.2-21.8,67.4,3.6,14.8,6.1,15.1,105.9,15.1s92.8-.3,100.3-5.3c9.2-6.1,18.4-19,18.4-26.3s-3.1-8.1-7-11.7c-6.7-7-7-7-65.1-7s-59.3-.6-65.1-5.3c-6.1-4.8-6.1-5.6-2-14.5,2.2-5.3,6.7-15.9,9.2-23.5,2.8-7.8,6.1-15.4,7.5-16.8,1.4-1.7,30.7-3.4,71.5-4.2,66.2-1.4,69.3-1.7,79.7-7.8,5.9-3.6,12.6-10.6,14.8-15.4,4.2-7.8,4.2-9.2-.3-17.6-2.8-5.3-7.8-9.8-12.3-10.9-3.9-1.1-31.6-1.7-60.9-1.7-60.1.6-66.8-.8-64.3-13.4.8-4.2,5.9-17.3,11.5-29.1l9.8-21.5h63.7c34.9,0,68.2-1.4,73.5-2.8,5.6-1.4,14.3-7,19.3-12.3,11.5-12,11.5-24.6-.6-33.5-7.5-5.6-11.5-5.9-88-6.4-44.2,0-85.5.6-91.7,1.7h0ZM1413.9,101.6c-16.5,2.8-27.4,12-34.4,28.8-3.4,8.1-7.3,17.3-8.7,20.4s-5.3,12.6-8.4,21-7,17.9-8.4,21-8.9,21.8-16.8,41.9c-7.8,19.8-15.4,38.8-16.8,41.9s-5.3,12.6-8.4,21-7,17.9-8.4,21c-6.7,15.1-19.6,47.8-19.6,50.3s3.1,6.4,7,10.6l7.3,7.5h92.2c97.3,0,100.6-.3,112.1-13.1,2.8-3.1,5.9-9.2,6.7-14,1.4-7.3.3-10.3-5.3-15.9l-7.3-7.3h-60.1c-57.3,0-60.4-.3-64-5.6s-3.1-8.1,4.2-27.4c13.1-33.5,7.3-31.3,78.3-31.3s82.4-2,94.5-15.9c10.1-11.5,10.6-21.2,1.4-30.2-6.7-7-7-7-63.4-7s-67.9-.8-70.7-7.8c-1.7-4.8,13.7-43.9,20.4-51.7,3.6-4.2,10.6-4.8,65.4-4.8s66.5-1.4,73.5-3.1c16.5-4.2,24.6-13.4,24.9-27.9.3-9.5-1.1-12.6-7.5-17.6-7.5-5.6-10.9-5.9-88-6.4-44.2,0-85.2.6-91.7,1.7h0ZM1679.7,101.6c-6.1,1.1-14.5,4.2-18.7,7-8.7,5.6-19,21-19,27.9s-1.1,6.7-2.5,9.5c-3.4,5.9-17.9,41.1-35.2,85.8-7.3,18.4-16.5,42.2-21,53.1-4.5,10.6-11.7,29.6-16.8,41.9-4.8,12.3-10.6,26.6-13.1,31.9-5.3,11.7-2,20.4,10.9,28.2,12,7.3,16.2,7,34.1-1.4,13.1-6.1,15.7-8.9,22.1-23.2,9.2-20.4,38.3-94.7,38.3-97.5s3.1-5.9,6.7-10.6l6.7-8.4,7.8,8.7c11.5,12,18.2,15.1,34.4,15.1s22.6,4.8,22.6,12.9-15.7,46.1-24,64.6c-10.1,22.6-7,35.8,10.1,42.8,7.3,3.1,10.6,2.8,20.4-.3,23.5-7.5,29.1-15.1,44.4-59.5,3.1-9.5,6.7-18.4,7.8-19.8,1.1-1.7,4.2-9.5,7-17.3,5-14,5-15.4.6-24.3-2.5-5.3-7.8-12-11.7-14.5-6.7-4.2-6.7-5-2.8-9.5,2.5-2.8,8.1-5.9,12-7,12.6-3.1,25.7-12.6,32.4-23.5,11.5-18.2,30.2-73.2,28.5-82.7-2-10.1-13.1-21.8-25.4-26.8-9.5-3.9-137.5-6.1-156.5-2.8h0ZM1780.3,157.7c4.8,5.3,4.8,6.1,0,17.3-16.8,40.5-13.7,37.7-47.5,39.1-13.1.6-23.8,3.1-32.4,7.3-14.3,7-22.1,7.8-22.1,2.5s22.6-61.8,27.4-67.1c3.6-3.9,9.2-4.8,36.9-4.8s33.3.6,37.7,5.6ZM1922.3,104.9c-6.4,3.1-13.4,8.4-15.7,11.7-4.2,6.7-8.7,46.7-13.1,116.5-1.7,23.8-4.2,58.4-5.6,76.9-3.6,40.5-4.2,59.8-1.7,67.6,1.1,3.1,7,7.8,13.1,10.6,9.8,4.5,12.6,4.8,21.5,1.7,17.9-6.4,22.1-10.3,57-57,18.7-24.9,34.7-45.8,35.8-46.7,5.9-4.8,113.2-151.2,116.5-158.7,3.4-8.4,3.4-10.3-.6-16.2-8.9-14-35.5-15.9-50.6-4.2-4.2,3.4-28.8,34.4-54.8,69.6-26,34.9-49.7,65.1-52.5,67.1-13.1,9.5-13.7-5.3-4.2-86.1,2.2-20.7,3.6-40.5,2.8-44.2-1.7-7.3-16.2-14.5-28.5-14.5s-13.1,2.5-19.6,5.9h0ZM2202.3,101.6c-20.1,5-29.3,17.9-49.2,70.2-4.8,13.1-9.8,26.3-11.2,29.3s-5,12.6-8.1,21-7.5,19-9.8,23.8c-5.9,12.9-29.3,72.4-29.3,74.9s-3.4,8.7-7.3,16.8c-3.9,7.8-7.8,21-8.7,29.1-1.7,14-1.4,14.5,7.8,20.1,10.9,6.7,23.8,7.5,33.8,2.2,16.8-8.7,21.8-15.7,35.8-49.7,7.5-19,14-35.5,14-36.6s3.9-10.1,8.4-19.8c4.8-10.1,8.4-19.3,8.4-20.4,0-2.2,22.1-58.7,27.9-72.4,7.3-15.9,22.6-57.6,24-64.8,3.1-16.2-15.9-28.5-36.6-23.5ZM2308,101.6c-17,2.8-32.7,16.2-33.8,28.8-1.4,16.2,5.9,22.1,28.8,23.8,32.4,2,33,2.2,30.7,13.7-1.7,9.5-13.4,40.8-24,64.6-3.1,6.4-5.3,13.4-5.3,15.4s-1.1,5-2.2,6.7c-1.4,1.4-4.8,8.7-7.5,16.5-2.8,7.5-7,19-9.8,25.2-2.5,6.1-7,16.8-9.8,23.8s-6.4,16.2-8.4,21c-9.8,23.8-10.9,29.1-7.3,36.1,2,3.6,8.7,8.9,14.5,11.7,9.8,4.2,12.3,4.5,22.9,1.1,13.4-4.5,29.1-19.3,31.9-30.2.8-4.2,7.3-20.7,14-36.9,6.7-15.9,12-30.2,12-31.3s3.9-10.1,8.4-19.8c4.8-10.1,8.4-19.3,8.4-20.7,0-2.2,13.4-36.1,19.6-49.7,1.4-3.1,5.3-12.6,8.7-21,8.9-23.8,10.9-25.2,37.2-25.2s41.1-3.4,49.7-12.6c3.6-3.9,8.1-7,10.1-7s3.4-4.2,3.4-12-1.1-12.3-10.6-17.3-16.5-5.6-90-5.9c-43.9-.3-85,.3-91.4,1.4h0ZM1125.5,106.6c-12.6,6.1-17.9,13.7-28.2,40.5-5,12.9-10.9,26.8-12.9,31.6-2,4.5-9.5,23.5-16.8,41.9s-15.1,38-17.3,43.3c-5.9,14.3-7.8,19-14.8,37.7-3.4,9.2-7.8,20.4-9.8,25.2-17.6,39.4-18.7,45.8-8.9,55.6s19.6,11.5,32.7,7.3c21.2-7,25.4-13.4,50.3-76.9,7.8-20.1,15.9-40.2,18.2-45.3,2.2-4.8,4.2-9.8,4.2-11.5s3.9-12,8.7-23.2c13.1-31,15.4-36.1,21-51.4,2.5-7.8,7.3-17.3,10.1-21.8q5.3-7.5,39.7-7.5c36.1,0,40.8,1.4,40.8,13.1s-12.9,40-22.4,60.9c-1.4,3.1-4.5,10.6-6.4,16.8-2.2,6.1-14.3,36.9-26.8,68.2-16.2,39.4-22.6,58.7-21.5,63.4,2,7.3,19.6,17.9,29.6,17.9s21.2-6.7,28.8-13.4c6.7-5.9,15.1-25.7,60.6-141.7,7.8-20.1,15.4-38.8,16.8-41.9,10.9-24,19.6-48.9,19.6-56.7,0-13.4-7.8-24.9-21-31.3-10.6-5-17.3-5.6-88.3-5.6s-78,.8-85.8,4.8Z"/>
      </g>
    </g>
  </g>
</svg>