<?xml version="1.0" encoding="UTF-8"?>
<svg xmlns="http://www.w3.org/2000/svg" version="1.1" viewBox="0 0 1920 501.9">
  <!-- Generator: Adobe Illustrator 28.6.0, SVG Export Plug-In . SVG Version: 1.2.0 Build 709)  -->
  <g>
    <g id="Capa_1">
      <g>
        <path d="M1899,104.2c-5.5,11.5-11,22.9-16.5,34.4-6.5,13.6-12.9,27.1-19.4,40.7-.6,1.2-1.2,2.4-1.9,3.8-4.4,0-8.7.2-12.9,0-13.3-.6-24.8,4.2-35.1,12-9.7,7.4-17.3,16.6-22.5,27.7-24.7,52.7-49.5,105.3-74.2,158-.7,1.6-1.5,3.1-2.3,4.8h-79.3c0-.2-.2-.3-.2-.4,0-.1-.1-.2,0-.3,0-.4.2-.7.3-1.1,43.2-92.1,86.4-184.2,129.7-276.4h74.5c-1.7,4.5-3.9,8.5-5.8,12.6-1.9,4.1-3.9,8.2-5.9,12.4l.7.5c1-1.1,1.9-2.2,2.9-3.2,8.7-9.9,18.8-17.8,31.7-21.1,7.6-1.9,15.5-2.9,23.2-4.2,4.3-.7,8.7-1,13-1.5v1.5Z"/>
        <path d="M863.5,401.2h73.8c-.4,1.4-.8,2.6-1.1,3.7-1.1,3.9-2.2,7.7-3.1,11.6-.5,2.2-.7,4.5-.7,6.7,0,6.1,2.5,9.4,8.5,10.5,11.2,2.1,21.7.5,30.9-6.7,4-3.1,7.4-6.8,10.1-11.1,2.5-4,5-8.1,7-12.4,7.9-16.2,15.7-32.4,23.5-48.7.4-.8.7-1.6.6-2.8-1,.6-1.9,1.2-2.9,1.9-12,8.7-24.8,16-39.1,20.4-12.7,3.9-25.6,4.4-38.6,2.3-15.1-2.4-24.7-12.9-27-28.6-1.7-11.9,0-23.5,2.6-35,4.2-18,10.8-35.2,18.6-51.9,11.4-24.5,22.6-49.1,34.6-73.3,11.3-22.9,25.7-43.8,45.3-60.7,21.6-18.7,46.9-26.7,75.3-25.2,4.1.2,8.2,1,12.2,2,12.2,3.2,18.9,11.5,21,23.8.2,1.1.4,2.2.5,3.3.1,1,.2,2,.6,3.1,2.7-4.3,4.6-9,6.7-13.5,2.1-4.5,4.2-9,6.3-13.6h74.4c-.5,1.3-.9,2.3-1.3,3.3-44.6,95-89.2,190.1-133.9,285.1-6.8,14.4-14.2,28.4-23.1,41.7-17.7,26.2-42.1,41.9-73,47.8-18.8,3.6-37.8,4.8-56.8,3.7-13-.8-25.5-3.7-36.8-10.5-18.2-11-25.7-27.3-23.8-48.2.8-9.1,3.5-17.6,7.1-26,.4-1,1-2,1.5-3ZM999.8,318.7c5.2.1,9.5-1,13.4-3.4,5-3.1,8.9-7.2,12.5-11.8,6.2-8,11.4-16.8,15.8-25.9,8.8-18.3,17.3-36.6,25.8-55,4.7-10.1,9.2-20.3,13.5-30.6,2.4-5.8,4.3-11.8,4.4-18.1.1-7-3.4-10.6-10.4-11.1-7.5-.5-13.7,2.4-19.2,7-4.5,3.8-8.2,8.4-11.5,13.3-6.2,9-11.3,18.6-15.9,28.5-6.7,14.6-13.4,29.1-19.9,43.7-5.6,12.4-11.2,24.9-16.4,37.5-1.8,4.3-3,9-3.7,13.7-1.2,7.3,2.3,11.3,9.7,12.1.9,0,1.7.2,2.1.2Z"/>
        <path d="M196.1,12.7h208.6c-11.7,25-23.3,49.6-34.9,74.4h-117.2c-10.7,22.7-21.3,45.3-32.2,68.4,5.1.5,9.7.2,14.3.3,4.5,0,9,0,13.5,0h82.8c-11.8,25.3-23.4,49.9-35,74.7h-110.8c-12.5,26.7-25,53.3-37.7,80.4h116.7c-.4,3-32,71-34.6,74.8H21C79.5,261,137.8,136.8,196.1,12.7Z"/>
        <path d="M387.8,107.3h74.5c-3.8,8.4-7.4,16.5-11,24.5.1.1.2.2.3.4.6-.6,1.3-1.1,1.9-1.7,15.4-16.1,34.2-25.4,56.2-28.3,10.4-1.3,20.8-1,30.8,2.6,15.1,5.4,23.7,16.2,26.2,31.9,2.2,13.3-.6,25.9-5.8,38.1-4.7,10.8-9.7,21.4-14.7,32.1-26.9,58.1-53.8,116.3-80.8,174.4-.4.8-.8,1.6-1.1,2.4-.5,1.5-1.5,2.2-3.1,2.1-.7,0-1.5,0-2.3,0-23.3,0-46.6,0-69.9,0-1.3,0-2.7,0-4.7,0,.8-1.9,1.3-3.2,1.9-4.5,23.6-51.1,47.2-102.2,70.9-153.3,5.5-11.9,11.2-23.8,16.5-35.8,2.2-5,3.8-10.3,5.3-15.6.7-2.5.7-5.2.6-7.8-.2-5.2-3.3-8.5-8.4-9.6-5.4-1.2-10.4-.2-15.3,2.1-6.4,3.1-11.6,7.7-16.3,13-4.9,5.6-8.7,11.9-11.9,18.6-29.5,62.9-59,125.7-88.5,188.6-2.4,5.1-1.3,4.4-6.9,4.4-23.4,0-46.8,0-70.2,0s-2.7,0-3.9,0c-.3-.3-.3-.4-.4-.5,0-.1-.1-.3-.1-.3,42.9-91.6,85.8-183.1,128.7-274.7.5-1,1-2,1.5-3Z"/>
        <path d="M1545.6,259.3c-.7,1.2-1.2,2.2-1.7,3.2-7.1,15.1-14.1,30.1-21.2,45.2-2.1,4.4-3.7,9-4.4,13.9-.1,1-.2,2-.2,3,0,8.1,4.2,13.1,12.2,13.9,11,1,20.7-2,27.9-10.8,3.8-4.6,7-9.7,10-14.9,3.8-6.6,7.1-13.5,10.6-20.3.6-1.1,1.2-2.2,1.8-3.2h78.1c0,.6,0,1.2-.3,1.6-9.6,19.1-19.8,38-32.9,55-9.9,12.9-21.4,24.2-35.6,32.3-12.5,7.2-26.1,11.4-40.3,13.8-18.2,3.1-36.6,3.7-55,2.9-10.7-.5-21.1-2.3-31.1-6.6-16-6.9-24.6-19-26-36.4-.9-10.9.8-21.5,3.6-31.9,3.2-12.1,7.6-23.8,13-35.2,14.6-30.8,29.1-61.6,43.8-92.2,9.1-19,20.7-36.3,35.8-51.1,19.9-19.4,43.8-30.9,71-35.8,13.5-2.4,27.1-3.4,40.7-3,13.1.4,25.6,3.2,36.8,10.4,13.7,8.8,21.3,21.5,23.7,37.5,2.4,16-.7,31.2-7,45.8-8.8,20.2-18,40.2-26.9,60.3-.9,2.1-2.2,2.6-4.3,2.6-13.1,0-26.3,0-39.4,0-26,0-52.1,0-78.1,0h-4.5ZM1617.2,208.6c4.7-10.3,9.4-20.3,13.9-30.5,1.9-4.4,2.8-9.1,2.7-13.9-.2-8.3-4.8-13-13-13.4-8.8-.4-16.4,2.6-23,8.4-5.8,5.1-10.2,11.3-13.7,18.2-4.9,9.7-9.4,19.6-14.1,29.4-.2.5-.2,1.1-.4,1.9h47.6Z"/>
        <path d="M751.7,259.3h-4.5c-38.4,0-76.9,0-115.3,0-1,0-2,0-3,0-1.6-.1-2.5.6-3.2,2-1,2.3-2.1,4.5-3.2,6.8-6,12.8-12,25.6-18,38.4-2.4,5.1-4.5,10.3-4.9,16-.1,1.7,0,3.5.1,5.2.8,5.6,3.9,9.2,9.5,10.2,10.4,1.9,19.9-.4,27.9-7.6,4-3.7,7.2-8.1,9.8-12.8,4.3-7.9,8.4-15.9,12.6-23.9.8-1.4,1.5-2.9,2.3-4.4h78c0,.6,0,1.2-.3,1.7-10.4,20.7-21.5,41-36.1,59.2-18.8,23.3-42.9,37.1-72.4,41.8-18.4,2.9-36.9,3.7-55.4,2.9-10.7-.5-21.1-2.3-31-6.6-16.9-7.4-25.2-20.6-26-38.8-.6-14.1,2.6-27.6,7.2-40.8,3-8.5,6.3-16.9,10.1-25,14.2-30.4,28.5-60.7,43-91,8.2-17.1,18.5-32.9,31.6-46.8,20.6-21.8,45.8-34.8,75.2-40.1,13.5-2.5,27.1-3.4,40.7-3,12.3.4,24.1,2.9,34.9,9.1,14.3,8.3,22.7,20.9,25.5,37.1,2.7,15.8.2,31-6,45.5-9.2,21.4-18.9,42.5-28.4,63.8,0,.2-.3.4-.7,1ZM698.4,208.6c.5-1.1,1-1.9,1.4-2.8,3.6-7.7,7.3-15.4,10.9-23.1,2.4-5.1,4-10.5,4.5-16.2.8-10-4.5-15.8-14.4-15.8-8.4,0-15.6,3.1-21.8,8.7-5.6,5-9.9,11-13.3,17.6-4.9,9.8-9.6,19.8-14.3,29.8-.2.5-.3,1.1-.4,1.9h47.5Z"/>
        <path d="M1332.5,322.9h91.8c-10,21.4-19.8,42.1-29.6,63h-189.4c.2-.9.3-1.7.7-2.4,9.4-20.2,18.8-40.4,28.4-60.5.8-1.6,2.1-3.1,3.5-4.3,34.6-34,69.2-67.9,103.7-101.8,14.9-14.6,29.8-29.3,44.8-43.9.9-.9,2-1.5,2.8-2.6-3.6-1.4-7.1-.8-10.4-.9-3.4-.1-6.8,0-10.1,0s-7,0-10.5,0c-3.5,0-7,0-10.5,0-3.4,0-6.8,0-10.1,0-3.5,0-7,0-10.5,0h-21.3c9.9-21.1,19.5-41.5,29.1-62.1h182.9c-.7,1.6-1.2,2.8-1.8,4-8.5,18-17,36-25.5,54-1.2,2.5-2.8,4.7-4.8,6.6-49.9,49.1-99.7,98.2-149.6,147.3-1,1-2,2.1-3.6,3.7Z"/>
        <path d="M849.9,107.3h74.6c-4.2,8.7-8.2,17.1-12.2,25.5.2.1.4.2.5.4.8-.9,1.6-1.7,2.4-2.6,11.9-13.6,26.4-23.1,44.5-25.9,7.6-1.2,15.4-1.3,23.2-1.9.4,0,.9.1,1.9.3-12.8,26.8-25.4,53.3-38.1,80-4.2,0-8.3.2-12.4,0-15.6-.8-28.5,5.4-39.9,15.4-7.7,6.8-13.7,14.8-18.1,24.2-24.9,53-49.9,106-74.9,158.9-.6,1.3-1.3,2.7-1.9,3.9h-80c43.7-93,87.1-185.6,130.6-278.2Z"/>
        <path d="M1231.5,107.2h79.9c-.7,1.6-1.3,2.9-1.9,4.2-29.1,62-58.2,123.9-87.2,185.9-13.2,28.2-26.5,56.4-39.6,84.7-1.3,2.7-2.7,3.8-5.8,3.8-23.8-.2-47.6,0-71.4,0s-2.7,0-4.7,0c43.8-93.2,87.3-185.8,130.8-278.5Z"/>
        <path d="M1268.9,27.4h80.2c-7.7,16.5-15.4,32.6-22.9,48.5h-80c7.7-16.4,15.1-32.3,22.7-48.5Z"/>
      </g>
    </g>
  </g>
</svg>