<?xml version="1.0" encoding="utf-8"?>
<!-- Generator: Adobe Illustrator 27.5.0, SVG Export Plug-In . SVG Version: 6.00 Build 0)  -->
<svg version="1.1" id="Capa_1" xmlns="http://www.w3.org/2000/svg" xmlns:xlink="http://www.w3.org/1999/xlink" x="0px" y="0px"
	 viewBox="0 0 287.3 53.9" style="enable-background:new 0 0 287.3 53.9;" xml:space="preserve">
<style type="text/css">
	.st0{fill-rule:evenodd;clip-rule:evenodd;fill:#AF1D32;}
	.st1{fill:#070508;}
</style>
<g>
	<path class="st0" d="M10.6,23.1c2.4,0,4.4-2,4.4-4.4c0-2.4-2-4.4-4.4-4.4c-2.4,0-4.4,2-4.4,4.4C6.2,21.1,8.1,23.1,10.6,23.1
		 M6.2,24.8c0.4,4.9,4.6,8.7,9.5,8.7h27.9c2.4,0,4.3-2,4.3-4.4c0-2.4-1.9-4.4-4.3-4.4H6.2z M6.2,12.6c0.4-4.9,4.6-8.7,9.5-8.7h33.2
		c5.3,0,9.6,4.3,9.6,9.6c0,5.3-4.3,9.6-9.6,9.6h-28c-2.4,0-4.3-2-4.3-4.4c0-2.4,1.9-4.4,4.3-4.4h27.9c0.6,0,0.8-0.3,0.8-0.9
		c0-0.6-0.3-0.9-0.9-0.9H6.2z"/>
	<path class="st1" d="M277.7,30.6h0.5c0.3,0,0.6,0,0.6-0.4c0-0.4-0.4-0.4-0.7-0.4h-0.5V30.6z M277.3,32v-2.6h0.9
		c0.5,0,1.1,0.1,1.1,0.7c0,0.4-0.3,0.7-0.7,0.7c0.3,0.1,0.5,0.4,0.6,0.7l0.3,0.5H279l-0.2-0.4c-0.2-0.3-0.4-0.7-0.8-0.7h-0.2V32
		H277.3z M278.4,28.7c-1.1,0-2,0.9-2,2c0,1.1,0.9,2,2,2c1.1,0,2-0.9,2-2C280.4,29.6,279.5,28.7,278.4,28.7z M278.4,28.3
		c1.3,0,2.4,1.1,2.4,2.4c0,1.3-1.1,2.4-2.4,2.4c-1.3,0-2.4-1.1-2.4-2.4C275.9,29.4,277,28.3,278.4,28.3z"/>
	<path class="st1" d="M271.8,13.5h9l-10.8,15.9c-1.7,2.7-6,4-12.9,4l-26.9-0.1l3.4-3.8l24.7,0.1c2.2-0.2,4.3-2.2,5.2-4.2h-22.8
		c-3,0-3.5-1.4-1.5-4.2l5.5-7.7h9.1l-5.8,7.9h17.9L271.8,13.5z M237,17.3l-8.3,12.1c-1.7,2.7-6,4-12.9,4h-15.3
		c-1.6,0-10.8,0.1-8.5-4.2l8.8-12.2c1.3-2.4,4.6-3.6,9.9-3.5h15.4C233.2,13.5,236.9,14.7,237,17.3z M213.2,17.3
		c-2,0-3.5,0.4-4.5,1.3l-7,9.7c0.1,0.8,1.1,1.2,3,1.2l12.4,0.1c1.2-0.1,2.1-0.5,2.9-1.3l7.1-9.7c-0.1-0.9-0.9-1.3-2.4-1.3H213.2z
		 M189.3,13.5h8.8l-10.9,15.9c-1.7,2.7-6,4-12.9,4l-26.4-0.1l3.3-3.8l24.4,0.1c1.2-0.1,2.1-0.5,2.9-1.3L189.3,13.5z M126.7,17.3
		l-11.5,16h-9.1l14.4-19.9h22.8c7.1,0,10.8,1.3,10.9,3.8l-11,16h-9.4l10.4-14.7c-0.1-0.9-1-1.3-2.4-1.3
		C136.8,17.3,131.8,17.3,126.7,17.3z M102.8,7.9h-1.6H88.8c-2.7-0.1-5.1,0.5-7,1.9l-5.1,6.5h25.5l-3.1,4.1H74l-5.8,7.8
		c-1,1.5,1.5,1.6,2.4,1.5L89,29.7l14.3-0.1l-3.6,4H87.3H69.5c-2.3,0-13.5-0.3-10.5-5.8L72,9.5c4.8-4.8,11.2-5.6,17.6-5.6h17.5h5.7
		h7.2l-3.5,4H102.8z"/>
	<path class="st1" d="M270,50.6h-1.2l-2.5-5.5l0.2-0.2h2.1v-3.8h-3v9.4h-1.2V40.4h4.4c0.4,0,0.9,0.2,0.9,0.7V45
		c0,0.5-0.4,0.8-1.3,0.7l-0.7,0C268.5,47.3,269.3,49,270,50.6 M261,47.5l-1.2-5.5l-1.2,5.5H261z M262.8,50.6h-1.2l-0.5-2.3h-2.6
		l-0.5,2.3H257l2.4-10.3h1.2L262.8,50.6z M255.6,50.6h-4.3V40.4h4.3v0.8h-3.1V45h2.8v0.8h-2.8v4h3.2V50.6z M249.7,40.4l-1.8,10.3h-1
		l-1.5-8.3l-1.5,8.3h-1l-1.8-10.3h1.2l1.2,8.1l1.4-8.1h1l1.4,8.1l1.2-8.1H249.7z M239.8,49.9c0,0.5-0.5,0.7-0.9,0.7h-3.3
		c-0.4,0-0.9-0.2-0.9-0.7v-2.6h1.2v2.5h2.9v-2.4l-3.6-3.4c-0.2-0.2-0.4-0.5-0.4-0.8v-2.1c0-0.5,0.5-0.7,0.9-0.7h3.3
		c0.4,0,0.9,0.2,0.9,0.7v2.4h-1.2v-2.3h-2.9v2.2l3.7,3.4c0.2,0.2,0.4,0.5,0.4,0.8V49.9z M233.2,41.2h-2v9.4H230v-9.4H228v-0.8h5.3
		V41.2z M226.9,50.6h-1.2l-2.5-5.5l0.2-0.2h2.1v-3.8h-3v9.4h-1.2V40.4h4.4c0.4,0,0.9,0.2,0.9,0.7V45c0,0.5-0.4,0.7-1.3,0.7
		c-0.2,0-0.5,0-0.7,0C225.4,47.3,226.2,49,226.9,50.6z M218.1,49.8v-8.6h-3.2v8.6H218.1z M219.2,49.9c0,0.5-0.5,0.7-0.9,0.7h-3.7
		c-0.4,0-0.9-0.2-0.9-0.7v-8.8c0-0.5,0.5-0.7,0.9-0.7h3.7c0.4,0,0.9,0.2,0.9,0.7V49.9z M210.6,45.7v-4.6h-2.9v4.6H210.6z
		 M211.8,45.8c0,0.5-0.5,0.7-0.9,0.7h-3.1v4.1h-1.2V40.4h4.3c0.4,0,0.9,0.2,0.9,0.7V45.8z M204.5,49.9c0,0.5-0.5,0.7-0.9,0.7h-3.3
		c-0.4,0-0.9-0.2-0.9-0.7v-2.6h1.2v2.5h2.8v-2.4l-3.6-3.4c-0.2-0.2-0.4-0.5-0.4-0.8v-2.1c0-0.5,0.5-0.7,0.9-0.7h3.3
		c0.4,0,0.9,0.2,0.9,0.7v2.4h-1.2v-2.3h-2.8v2.2l3.7,3.4c0.2,0.2,0.4,0.5,0.4,0.8V49.9z"/>
</g>
</svg>
