<?xml version="1.0" encoding="UTF-8"?>
<svg version="1.1" xmlns="http://www.w3.org/2000/svg" width="1000" height="1000">
<path d="M0 0 C330 0 660 0 1000 0 C1000 330 1000 660 1000 1000 C670 1000 340 1000 0 1000 C0 670 0 340 0 0 Z " fill="#FEFEFE" transform="translate(0,0)"/>
<path d="M0 0 C11.38738212 -0.0695099 22.77471376 -0.12281639 34.16226482 -0.15543652 C39.44996827 -0.17109253 44.73752657 -0.1923298 50.02514648 -0.22631836 C55.1279779 -0.25891385 60.23066969 -0.2768535 65.33359718 -0.28463173 C67.28045665 -0.29017488 69.22730847 -0.30099925 71.17410851 -0.31719017 C73.90098969 -0.33896687 76.6272939 -0.34196681 79.35424805 -0.34057617 C80.15913666 -0.351362 80.96402527 -0.36214783 81.79330444 -0.3732605 C87.79218589 -0.34015636 90.85739663 1.09546367 95.25 5 C97.78921704 7.90196233 98.1262842 10.38432157 98.17700195 14.10083008 C98.19625481 15.33274834 98.19625481 15.33274834 98.21589661 16.58955383 C98.22328354 17.47394638 98.23067047 18.35833893 98.23828125 19.26953125 C98.246353 20.18329025 98.25442474 21.09704926 98.26274109 22.03849792 C98.27657007 23.97266753 98.28729753 25.90686142 98.29516602 27.84106445 C98.31237458 30.79100043 98.35627051 33.73981421 98.40039062 36.68945312 C98.4105184 38.57030427 98.41903424 40.45116493 98.42578125 42.33203125 C98.44328934 43.2103511 98.46079742 44.08867096 98.47883606 44.99360657 C98.45943547 50.50253998 97.67932504 53.63523235 94 58 C90.47521223 61.03295691 87.83639049 62.18792044 83.29296875 62.60546875 C82.48754639 62.6830542 81.68212402 62.76063965 80.85229492 62.84057617 C80.2410376 62.89318604 79.62978027 62.9457959 79 63 C79.7724707 64.12027588 79.7724707 64.12027588 80.56054688 65.26318359 C82.46515021 68.0300293 84.36556317 70.79965458 86.26318359 73.57128906 C87.08605859 74.77132863 87.91059768 75.97022886 88.73681641 77.16796875 C89.92266951 78.8876693 91.10251921 80.61135004 92.28125 82.3359375 C92.99345703 83.37282715 93.70566406 84.4097168 94.43945312 85.47802734 C96 88 96 88 96 90 C91.64634573 90.17509799 87.29360303 90.2811281 82.9375 90.375 C81.70837891 90.42527344 80.47925781 90.47554687 79.21289062 90.52734375 C68.95851358 90.69318273 68.95851358 90.69318273 64.95703125 87.484375 C61.66874385 83.9967194 59.15482704 80.00303113 56.75 75.875 C55.91296404 74.47566074 55.07446487 73.07719549 54.234375 71.6796875 C53.85087891 71.03483398 53.46738281 70.38998047 53.07226562 69.72558594 C51.94329611 67.84898865 51.94329611 67.84898865 50.203125 65.6328125 C49 64 49 64 49 62 C41.74 62 34.48 62 27 62 C27 71.24 27 80.48 27 90 C19.41 90 11.82 90 4 90 C4 73.5 4 57 4 40 C27.43 40 50.86 40 75 40 C75 34.06 75 28.12 75 22 C72.33647461 22.0314209 72.33647461 22.0314209 69.61914062 22.06347656 C63.72797661 22.12818468 57.83682481 22.17403278 51.94541168 22.20724869 C48.37616481 22.22805315 44.80730526 22.25623769 41.23828125 22.30175781 C37.78879534 22.345474 34.33968008 22.36919071 30.88993835 22.37950897 C28.94460818 22.39041005 26.99942548 22.42159466 25.05432129 22.45318604 C17.32788904 22.45513028 11.49376431 21.98806613 5.48840332 16.6585083 C0.9598332 11.77252619 -0.12129137 6.45049537 0 0 Z " fill="#000000" transform="translate(702,478)"/>
<path d="M0 0 C4.73222455 -0.07445407 9.46410411 -0.1287447 14.19677734 -0.16479492 C15.80491072 -0.17983176 17.41300344 -0.20026672 19.02099609 -0.22631836 C21.33962064 -0.26292822 23.65770049 -0.27977722 25.9765625 -0.29296875 C26.68930328 -0.30845261 27.40204407 -0.32393646 28.13638306 -0.33988953 C32.88392382 -0.34147094 36.10347536 0.25307534 40 3 C43.83807853 7.84698785 46.40390729 13.60354367 49.00390625 19.1796875 C49.36409348 19.94186081 49.7242807 20.70403412 50.09538269 21.48930359 C51.2560627 23.94889511 52.40945524 26.41182114 53.5625 28.875 C54.36653699 30.58340494 55.17090168 32.29165569 55.97558594 33.99975586 C61.9387154 46.67281397 67.84832037 59.37112415 73.66992188 72.10986328 C74.65637086 74.25332567 75.65425083 76.39153526 76.65820312 78.52685547 C77.48481445 80.29053467 77.48481445 80.29053467 78.328125 82.08984375 C78.83762695 83.16999756 79.34712891 84.25015137 79.87207031 85.36303711 C81 88 81 88 81 90 C71.76 90 62.52 90 53 90 C47.20754898 78.61663104 41.82980933 67.12654612 36.6875 55.4375 C35.97885842 53.83513481 35.26987514 52.2329207 34.56054688 50.63085938 C31.672878 44.10148751 28.80257517 37.56641491 26 31 C22.85176932 34.68100818 21.17948825 38.83782734 19.3125 43.25 C18.99216797 43.99507812 18.67183594 44.74015625 18.34179688 45.5078125 C17.55640337 47.33648991 16.77754662 49.16797236 16 51 C19.3 51 22.6 51 26 51 C27.29673602 53.53919006 28.58747837 56.08114238 29.875 58.625 C30.23980469 59.33785156 30.60460937 60.05070313 30.98046875 60.78515625 C31.51220703 61.83896484 31.51220703 61.83896484 32.0546875 62.9140625 C32.54171143 63.8723999 32.54171143 63.8723999 33.03857422 64.85009766 C34.21854414 67.48869976 35.08596772 70.25790316 36 73 C25.77 73 15.54 73 5 73 C4.67 74.65 4.34 76.3 4 78 C2.02 81.96 0.04 85.92 -2 90 C-11.24 90 -20.48 90 -30 90 C-26.62818842 79.88456526 -26.62818842 79.88456526 -24.3203125 75.19921875 C-23.80984375 74.15314453 -23.299375 73.10707031 -22.7734375 72.02929688 C-22.22945312 70.92650391 -21.68546875 69.82371094 -21.125 68.6875 C-19.95924412 66.29637573 -18.79484811 63.90464751 -17.6328125 61.51171875 C-17.18594086 60.59288406 -17.18594086 60.59288406 -16.7300415 59.65548706 C-13.40703606 52.80738192 -10.19698526 45.90762557 -7 39 C-6.47293457 37.86264404 -5.94586914 36.72528809 -5.40283203 35.5534668 C-4.40630672 33.39878734 -3.4125226 31.24283736 -2.421875 29.08544922 C-1.46287446 27.00443121 -0.49388088 24.92799309 0.484375 22.85595703 C0.94328125 21.87481934 1.4021875 20.89368164 1.875 19.8828125 C2.28492188 19.01543457 2.69484375 18.14805664 3.1171875 17.25439453 C4.36972281 14.05585718 4.12199807 12.22574445 3 9 C2.47741005 7.44069178 1.95670554 5.88075089 1.4375 4.3203125 C1.16808594 3.51094238 0.89867187 2.70157227 0.62109375 1.86767578 C0.41613281 1.25134277 0.21117187 0.63500977 0 0 Z " fill="#010101" transform="translate(615,478)"/>
<path d="M0 0 C3.15060425 8.20581107 3.99467374 15.28797974 1.0546875 23.70703125 C-3.44926101 33.65449369 -11.07735896 37.89203955 -20.5625 42.625 C-22.64288598 43.68562124 -24.72229189 44.74816677 -26.80078125 45.8125 C-27.84572754 46.34617187 -28.89067383 46.87984375 -29.96728516 47.4296875 C-34.44082363 49.74604553 -38.84369055 52.18392224 -43.25 54.625 C-52.90116413 59.94589216 -62.68879802 64.98317386 -72.5 70 C-84.11761088 75.94067669 -95.64863779 81.99972293 -107.078125 88.296875 C-112.27744545 91.16129613 -117.50557791 93.9691075 -122.75 96.75 C-123.55566406 97.18119141 -124.36132812 97.61238281 -125.19140625 98.05664062 C-130.76572865 101 -130.76572865 101 -133 101 C-135.95835168 90.51348512 -133.0884361 80.11068316 -130 70 C-129.80293457 69.35281006 -129.60586914 68.70562012 -129.40283203 68.03881836 C-127.19697615 64.83291818 -123.89169183 63.54256106 -120.484375 61.875 C-119.72601349 61.49170029 -118.96765198 61.10840057 -118.18630981 60.71348572 C-116.559206 59.89249919 -114.92943293 59.07678569 -113.29730225 58.26583862 C-109.01735047 56.13898922 -104.75632918 53.97472613 -100.4921875 51.81640625 C-99.653461 51.3933168 -98.8147345 50.97022736 -97.95059204 50.53431702 C-91.85691952 47.45501821 -85.83964099 44.26048636 -79.875 40.9375 C-69.77092996 35.33168037 -59.49121388 30.08476876 -49.2038269 24.82629395 C-39.02848665 19.62242962 -28.91544386 14.33868778 -18.921875 8.79101562 C-3.06922387 0 -3.06922387 0 0 0 Z " fill="#010101" transform="translate(342,422)"/>
<path d="M0 0 C3.40217803 2.95841568 3.84553821 5.27306652 4.23828125 9.6640625 C4.46608157 18.7520964 3.11519888 26.08228713 -3.3046875 32.84375 C-8.15023485 37.54013609 -13.71193672 40.38047766 -19.73516846 43.32583618 C-22.34343476 44.60132836 -24.93386094 45.91137986 -27.52597046 47.21931458 C-28.83940187 47.88169538 -30.15371144 48.54233781 -31.46890259 49.20121765 C-36.92857777 51.94083263 -42.28691002 54.84309018 -47.625 57.8125 C-58.63978112 63.90221134 -69.84559118 69.61070513 -81.05932617 75.32250977 C-87.76479758 78.74492316 -94.43552567 82.19652937 -100.99609375 85.890625 C-102.01574219 86.46425781 -103.03539062 87.03789063 -104.0859375 87.62890625 C-105.93407232 88.67955824 -107.77452736 89.74388291 -109.60546875 90.82421875 C-110.4046875 91.27925781 -111.20390625 91.73429688 -112.02734375 92.203125 C-112.70531006 92.60176758 -113.38327637 93.00041016 -114.08178711 93.41113281 C-116 94 -116 94 -118.1550293 93.20532227 C-125.40714862 88.46750129 -128.92697303 78.69346469 -132 71 C-132 70.34 -132 69.68 -132 69 C-130.49155518 68.23091309 -130.49155518 68.23091309 -128.95263672 67.44628906 C-106.33847214 55.98429494 -106.33847214 55.98429494 -84 44 C-73.48200895 38.16388706 -62.76883459 32.7211266 -52.05685425 27.25280762 C-41.61194928 21.91826559 -31.23965253 16.49336105 -20.97412109 10.81933594 C-14.07694333 7.01219291 -7.08954437 3.4358884 0 0 Z " fill="#010101" transform="translate(342,459)"/>
<path d="M0 0 C3.79139846 -0.11771717 7.58231735 -0.18775198 11.375 -0.25 C12.96634766 -0.30027344 12.96634766 -0.30027344 14.58984375 -0.3515625 C23.94514622 -0.46635149 32.08258725 1.30815506 39 8 C40.54582239 9.75228496 42.04529087 11.54636915 43.5 13.375 C44.27472656 14.33792969 45.04945313 15.30085938 45.84765625 16.29296875 C47.10740365 17.87736975 48.36584395 19.46281463 49.62109375 21.05078125 C50.70689711 22.40078602 51.84683658 23.7070592 53 25 C53.66 25 54.32 25 55 25 C56.45659977 23.38617052 57.84048951 21.70636784 59.1875 20 C59.99574219 18.99710937 60.80398438 17.99421875 61.63671875 16.9609375 C63.04176425 15.20056645 64.44205503 13.43635627 65.83203125 11.6640625 C70.66635539 5.75418615 76.40159574 1.53722527 84 0 C85.87877624 -0.08026745 87.7601615 -0.10765872 89.640625 -0.09765625 C91.24550781 -0.09282227 91.24550781 -0.09282227 92.8828125 -0.08789062 C93.99398437 -0.07951172 95.10515625 -0.07113281 96.25 -0.0625 C97.93996094 -0.05573242 97.93996094 -0.05573242 99.6640625 -0.04882812 C102.44276217 -0.03705397 105.22135409 -0.0206084 108 0 C105.51662532 3.86736776 102.94460594 7.32718962 99.8125 10.6875 C96.58844843 14.20704566 93.49897229 17.78673658 90.5 21.5 C87.5918662 25.0947765 84.61458668 28.58260628 81.5 32 C78.47717579 35.31989486 75.57487839 38.69764112 72.75 42.1875 C67.53613562 48.62548906 62.08958747 54.85163566 56.65087891 61.09912109 C54.54995012 63.51820295 52.45778247 65.94450034 50.37719727 68.38110352 C49.37523975 69.54427311 48.36128572 70.69721497 47.33569336 71.83959961 C44.80520929 74.69052197 42.70712481 77.38517994 40.9296875 80.765625 C38.55669476 84.89383204 36.47828187 88.04171899 32 90 C21.45098199 91.6199615 10.59735273 90.79126651 0 90 C3.83504925 84.75859535 7.83336723 79.74797739 12.125 74.875 C13.26468002 73.57062443 14.40399404 72.26592899 15.54296875 70.9609375 C16.40220947 69.97818848 16.40220947 69.97818848 17.27880859 68.97558594 C20.0168424 65.83286685 22.72796556 62.66729002 25.4375 59.5 C25.90881348 58.94940918 26.38012695 58.39881836 26.86572266 57.83154297 C27.77374472 56.77063144 28.68162629 55.70959964 29.58935547 54.6484375 C32.05769042 51.76401424 34.52894218 48.88209061 37 46 C35.11713422 41.9745815 32.47650883 38.87919849 29.5625 35.5625 C28.46964352 34.30374001 27.37720446 33.04461752 26.28515625 31.78515625 C25.73359863 31.15109863 25.18204102 30.51704102 24.61376953 29.86376953 C22.21778757 27.09660973 19.85786389 24.29963949 17.5 21.5 C14.56688343 18.02002205 11.62006415 14.55320799 8.64453125 11.109375 C7.81115234 10.14354492 7.81115234 10.14354492 6.9609375 9.15820312 C5.87840467 7.90508159 4.79383084 6.65371976 3.70703125 5.40429688 C0 1.11064765 0 1.11064765 0 0 Z " fill="#010101" transform="translate(471,478)"/>
<path d="M0 0 C22.44 0 44.88 0 68 0 C67.03458666 8.68872005 66.29806381 12.22156199 60.0625 17.75 C55.0428082 21.43793683 51.37634611 22.25001186 45.16796875 22.1953125 C43.87568359 22.18886719 42.58339844 22.18242188 41.25195312 22.17578125 C39.8971327 22.15907327 38.54231499 22.14214342 37.1875 22.125 C35.81315749 22.11496003 34.43880797 22.10583596 33.06445312 22.09765625 C29.70945683 22.07411242 26.35481801 22.04122567 23 22 C23 25.96 23 29.92 23 34 C45.77 34 68.54 34 92 34 C92 41.26 92 48.52 92 56 C81.0210216 56.11302401 70.04243047 56.20472953 59.06300163 56.25906086 C53.96463253 56.28513905 48.86668257 56.32050487 43.76855469 56.37719727 C38.84723932 56.43158011 33.92632674 56.46143391 29.00473404 56.47438622 C27.12843613 56.48361482 25.25215992 56.50163646 23.37603378 56.52865028 C20.74483604 56.56502461 18.11529601 56.56994194 15.48388672 56.56762695 C14.7106456 56.58560333 13.93740448 56.60357971 13.14073181 56.62210083 C9.19842685 56.58464601 6.59176001 56.07335692 3.53225708 53.65202332 C0.21402647 50.17685288 -0.12564083 47.86915728 -0.11352539 43.25317383 C-0.11340454 42.27900513 -0.11328369 41.30483643 -0.11315918 40.30114746 C-0.10804321 39.28008911 -0.10292725 38.25903076 -0.09765625 37.20703125 C-0.09664917 36.26645874 -0.09564209 35.32588623 -0.09460449 34.35681152 C-0.089371 30.84202862 -0.07540974 27.32726309 -0.0625 23.8125 C-0.041875 15.954375 -0.02125 8.09625 0 0 Z " fill="#000000" transform="translate(364,512)"/>
<path d="M0 0 C3.60959162 9.28180701 3.7381181 15.71062036 0.55859375 25.09375 C-4.388747 34.31886658 -11.6125542 38.49375211 -20.75 43.125 C-21.98948638 43.76881059 -23.22816106 44.41418605 -24.46606445 45.06103516 C-27.66767126 46.72923147 -30.87905478 48.37761336 -34.09307861 50.02172852 C-37.15069691 51.59032008 -40.19840715 53.1778455 -43.24609375 54.765625 C-46.69023277 56.55967735 -50.13625534 58.34877523 -53.59326172 60.11791992 C-58.46613785 62.6134581 -63.29515076 65.12863978 -68.01171875 67.91015625 C-75.37312086 72.21597257 -81.20276364 75.26730288 -90.0078125 73.78515625 C-99.52781864 71.28708675 -107.81738308 67.45507795 -116 62 C-116 61.34 -116 60.68 -116 60 C-115.11554199 59.54786133 -114.23108398 59.09572266 -113.31982422 58.62988281 C-92.60330704 48.07161032 -92.60330704 48.07161032 -72.125 37.0625 C-62.62004458 31.80428204 -52.97880975 26.82784266 -43.3125 21.875 C-42.55195313 21.48530029 -41.79140625 21.09560059 -41.0078125 20.6940918 C-38.0314469 19.16927779 -35.05502855 17.64456685 -32.07846069 16.12014771 C-26.24503411 13.13058691 -20.42636934 10.1138734 -14.625 7.0625 C-13.89579346 6.68013184 -13.16658691 6.29776367 -12.4152832 5.90380859 C-9.60795755 4.42223109 -6.85291369 2.90953184 -4.1484375 1.24609375 C-2 0 -2 0 0 0 Z " fill="#010101" transform="translate(345,496)"/>
<path d="M0 0 C1.35544922 -0.01836914 1.35544922 -0.01836914 2.73828125 -0.03710938 C8.71234585 -0.05000304 13.96370032 0.69368998 19.75 2.1875 C14.15152248 6.962672 10.2621794 9.36986669 2.8125 9.1875 C-14.6203197 8.87125837 -30.67891288 14.82264711 -43.29003906 26.91699219 C-54.32476585 38.15109555 -60.17477928 53.34960777 -60.5625 69.0625 C-60.38823753 86.04340969 -54.03383848 101.45174585 -42.1015625 113.4921875 C-29.89136998 125.03332837 -14.2233482 130.83258114 2.5625 130.42578125 C21.9692085 128.97503466 36.13202818 120.42513263 49.2265625 106.56640625 C51.70963351 104.22555448 53.88424955 102.79986255 56.9375 101.3125 C57.79730469 100.88195312 58.65710938 100.45140625 59.54296875 100.0078125 C60.27128906 99.73710938 60.99960937 99.46640625 61.75 99.1875 C62.41 99.5175 63.07 99.8475 63.75 100.1875 C59.62939688 107.78233713 54.79253007 114.02330825 48.75 120.1875 C48.08484375 120.88875 47.4196875 121.59 46.734375 122.3125 C33.10224357 135.63244521 15.29298018 139.72280507 -3.17260742 139.68017578 C-21.97497535 139.20883577 -37.77282698 131.20438706 -51.25 118.1875 C-57.94447366 110.68188612 -62.65750474 102.56022803 -66.25 93.1875 C-66.5903125 92.30320312 -66.930625 91.41890625 -67.28125 90.5078125 C-72.87303631 72.6451618 -69.93787371 52.53431211 -61.71899414 36.12963867 C-57.94926608 29.11617148 -52.96334333 23.66782178 -47.25 18.1875 C-46.64414063 17.58550781 -46.03828125 16.98351562 -45.4140625 16.36328125 C-32.93004633 4.76228086 -16.66932136 0.01168957 0 0 Z " fill="#020202" transform="translate(264.25,443.8125)"/>
<path d="M0 0 C0.77140823 -0.00029205 1.54281647 -0.00058411 2.33760071 -0.00088501 C4.86987833 0.00050067 7.40185625 0.01602566 9.93408203 0.03173828 C11.6967045 0.03547113 13.45932905 0.03831682 15.22195435 0.04031372 C19.84812202 0.0479288 24.47416296 0.06755896 29.10028076 0.08972168 C33.82611375 0.11022597 38.55196733 0.11932522 43.27783203 0.12939453 C52.54090837 0.15080693 61.80389089 0.18491712 71.06689453 0.22705078 C70.77625502 1.66062075 70.47786788 3.09262127 70.17626953 4.52392578 C70.01094727 5.3215332 69.845625 6.11914062 69.67529297 6.94091797 C68.06472527 12.99282645 63.9162861 16.66423249 59.06689453 20.22705078 C54.8080842 22.41066017 50.8429479 22.50026785 46.15551758 22.45410156 C45.3745018 22.45439362 44.59348602 22.45468567 43.7888031 22.45498657 C41.21862508 22.45359814 38.64874039 22.43805999 36.07861328 22.42236328 C34.2921413 22.41863142 32.50566727 22.41578526 30.7191925 22.41378784 C26.02560743 22.40616503 21.33214685 22.38652815 16.63861084 22.36437988 C11.84584232 22.34389233 7.05305362 22.3347799 2.26025391 22.32470703 C-7.13758714 22.30328098 -16.53533594 22.26916134 -25.93310547 22.22705078 C-25.0359841 13.66042127 -22.40385619 9.24866042 -15.90966797 3.52392578 C-10.93496249 0.25988977 -5.78906105 -0.05804548 0 0 Z " fill="#000000" transform="translate(389.93310546875,477.77294921875)"/>
<path d="M0 0 C3.6365208 2.73374815 6.43945421 5.5545659 9.25 9.125 C12.23639306 12.85304697 15.277863 16.47367524 18.5 20 C30.703125 33.40625 30.703125 33.40625 33 38 C2.95192511 40.43012337 2.95192511 40.43012337 -3.65625 35.05859375 C-6.27928845 32.23174324 -8.28194016 29.13896342 -10.06054688 25.72509766 C-11.41297063 23.24167088 -13.17553729 21.14908558 -15 19 C-13.69404215 16.17537878 -12.25372808 13.92855689 -10.21484375 11.58203125 C-9.41916992 10.66067383 -9.41916992 10.66067383 -8.60742188 9.72070312 C-7.78081055 8.77614258 -7.78081055 8.77614258 -6.9375 7.8125 C-6.38255859 7.17119141 -5.82761719 6.52988281 -5.25585938 5.86914062 C-1.25979663 1.25979663 -1.25979663 1.25979663 0 0 Z " fill="#010101" transform="translate(546,530)"/>
</svg>
