<?xml version="1.0" encoding="utf-8"?>
<!-- Generator: Adobe Illustrator 27.5.0, SVG Export Plug-In . SVG Version: 6.00 Build 0)  -->
<svg version="1.1" id="Capa_1" xmlns="http://www.w3.org/2000/svg" xmlns:xlink="http://www.w3.org/1999/xlink" x="0px" y="0px"
	 viewBox="0 0 401.1 63.8" style="enable-background:new 0 0 401.1 63.8;" xml:space="preserve">
<style type="text/css">
	.st0{fill:#1896BA;}
</style>
<g>
	<g>
		<path class="st0" d="M61.8,48.6c-20.2,0-36.6-7.5-36.6-16.7c0-9.2,16.4-16.7,36.6-16.7c20.1,0,36.4,7.4,36.6,16.5
			c-0.2-14.1-21-25.5-46.7-25.5C25.9,6.2,5,17.7,5,31.9s20.9,25.7,46.7,25.7c25.8,0,46.7-11.5,46.7-25.7c0,0,0,0,0,0
			C98.3,41.1,82,48.6,61.8,48.6z"/>
		<ellipse class="st0" cx="69.7" cy="31.9" rx="23.2" ry="6.2"/>
	</g>
	<polygon class="st0" points="150.4,13.6 111.8,13.6 104.1,49.5 142.9,49.5 144.8,41.2 119.9,41.2 120.8,35.2 138.3,35.2 
		139.8,27.2 122.5,27.2 123.7,21.3 148.4,21.3 	"/>
	<path class="st0" d="M152.4,13.6h14.7l4.4,7c0.5,0.8,1.6,0.9,2.3,0.3l7.3-7.3h14.7l-16.1,16.1c-1.2,1.2-1.5,3.2-0.6,4.7l8.6,15.1
		h-14.3l-4.2-7.1c-0.4-0.7-1.5-0.9-2.1-0.3l-7,7l-15.7,0.4l16-15.6c1.4-1.4,1.7-3.6,0.7-5.3L152.4,13.6z"/>
	<path class="st0" d="M197.7,13.6h12.6L204.5,37c-0.6,2.4,1.2,4.6,3.6,4.6h15l5.2-28.1h11.8L232,49.5h-33.1c-4.6,0-8-4.2-7-8.7
		L197.7,13.6z"/>
	<path class="st0" d="M235.4,41.5l-1.5,8h32.2c6.5,0,11.8-5.3,11.8-11.8v-1.8c0-4.9-3.9-8.8-8.8-8.8h-17.1l0.3-1.6
		c0.4-2.1,2.2-3.6,4.3-3.6h31.1c2.4,0,4.1,2.2,3.6,4.5l-5.5,23.1h14.9l5.5-27.6h10.7l4.3-8.3h-69.3c-5.9,0-11.1,4.1-12.3,9.9
		l-0.4,1.7c-1.1,5.2,2.8,10.1,8.2,10.1h18.9l-1.7,5.7L235.4,41.5z"/>
	<polygon class="st0" points="301.9,49.5 324,13.6 339.5,13.6 348.3,49.5 333.7,49.5 329.5,23.7 315.9,49.5 	"/>
	<path class="st0" d="M342.3,13.6l2.1,8.3h35.5c1.5,0,2.5,1.6,1.8,2.9v0c-0.9,1.8-2.7,2.9-4.7,2.9h-22.7l-4.3,21.8h13.3l2.8-11.8
		c0.2-1,1.5-1.2,2.1-0.4l8,12.2h16.3l-9.4-13.8h0c7.1,0,12.9-5.8,12.9-12.9v-2.6c0-3.6-3-6.6-6.6-6.6H342.3z"/>
</g>
</svg>
