<?xml version="1.0" encoding="UTF-8"?>
<svg version="1.1" xmlns="http://www.w3.org/2000/svg" width="120" height="120">
<path d="M0 0 C39.6 0 79.2 0 120 0 C120 39.6 120 79.2 120 120 C80.4 120 40.8 120 0 120 C0 80.4 0 40.8 0 0 Z " fill="#FEFEFD" transform="translate(0,0)"/>
<path d="M0 0 C0.33 0.99 0.66 1.98 1 3 C1.66 1.68 2.32 0.36 3 -1 C5.10409639 -1.02701408 7.20829178 -1.04640223 9.3125 -1.0625 C10.48425781 -1.07410156 11.65601563 -1.08570312 12.86328125 -1.09765625 C16 -1 16 -1 19 0 C18.67 1.65 18.34 3.3 18 5 C19.65 5 21.3 5 23 5 C23.185625 3.7934375 23.185625 3.7934375 23.375 2.5625 C23.58125 1.716875 23.7875 0.87125 24 0 C27.21451269 -1.60725635 30.43612536 -1.05748185 34 -1 C35.60080151 3.00200378 34.29279692 6.04556236 33 10 C34.98 10 36.96 10 39 10 C40.12880057 6.68885166 41.21302675 3.41021743 42 0 C45.01031744 -0.93423645 45.86650268 -1.04449911 49 0 C50.4477922 2.89558441 51 4.74188938 51 8 C51.66 8 52.32 8 53 8 C52.95875 6.88625 52.9175 5.7725 52.875 4.625 C53 1 53 1 55 -1 C58.0390625 -1.1953125 58.0390625 -1.1953125 61.625 -1.125 C63.40777344 -1.09792969 63.40777344 -1.09792969 65.2265625 -1.0703125 C66.14179687 -1.04710938 67.05703125 -1.02390625 68 -1 C68 0.32 68 1.64 68 3 C65.03 3 62.06 3 59 3 C59 3.99 59 4.98 59 6 C60.65 6 62.3 6 64 6 C64 6.33 64 6.66 64 7 C62.02 7 60.04 7 58 7 C58 8.32 58 9.64 58 11 C59.98 11 61.96 11 64 11 C64 11.66 64 12.32 64 13 C65.65 13.66 67.3 14.32 69 15 C69 16.32 69 17.64 69 19 C64.38 19.33 59.76 19.66 55 20 C55 20.99 55 21.98 55 23 C31.57 23 8.14 23 -16 23 C-15.67 22.01 -15.34 21.02 -15 20 C-21.93 19.505 -21.93 19.505 -29 19 C-29 17.35 -29 15.7 -29 14 C-24.93631321 13.22596442 -21.13574827 12.9015298 -17 13 C-16.67 9.7 -16.34 6.4 -16 3 C-17.98 3 -19.96 3 -22 3 C-22 3.66 -22 4.32 -22 5 C-20.68 5 -19.36 5 -18 5 C-18 5.66 -18 6.32 -18 7 C-19.65 7 -21.3 7 -23 7 C-23.33 8.65 -23.66 10.3 -24 12 C-24.66 12 -25.32 12 -26 12 C-25.34 8.04 -24.68 4.08 -24 0 C-16.36936964 -1.19696162 -7.41182109 -2.47060703 0 0 Z " fill="#F6EFEF" transform="translate(40,70)"/>
<path d="M0 0 C0.99 0.33 1.98 0.66 3 1 C3.495 3.475 3.495 3.475 4 6 C7.1836852 5.03749052 9.86016905 4.08780083 12.6875 2.3125 C13.450625 1.879375 14.21375 1.44625 15 1 C18.39914975 2.13304992 19.05254451 3.12518475 21 6 C22.98 5.34 24.96 4.68 27 4 C27.99 6.97 27.99 6.97 29 10 C31.64 9.34 34.28 8.68 37 8 C37.99 11.465 37.99 11.465 39 15 C37.02 16.32 35.04 17.64 33 19 C33.99 21.97 33.99 21.97 35 25 C33.02 26.32 31.04 27.64 29 29 C34.94 29.33 40.88 29.66 47 30 C47 30.66 47 31.32 47 32 C38.42 32 29.84 32 21 32 C21 32.66 21 33.32 21 34 C40.305 34.495 40.305 34.495 60 35 C60 35.99 60 36.98 60 38 C27.66 38 -4.68 38 -38 38 C-38 37.01 -38 36.02 -38 35 C-28.76 35 -19.52 35 -10 35 C-10 34.01 -10 33.02 -10 32 C-14.62 32 -19.24 32 -24 32 C-24 31.67 -24 31.34 -24 31 C-19.71 31 -15.42 31 -11 31 C-10.67 29.35 -10.34 27.7 -10 26 C-8.5625 24.1875 -8.5625 24.1875 -7 23 C-6.34 23 -5.68 23 -5 23 C-4.34 25.31 -3.68 27.62 -3 30 C-4.32 31.32 -5.64 32.64 -7 34 C-4.03 34.495 -4.03 34.495 -1 35 C-1.226875 34.071875 -1.45375 33.14375 -1.6875 32.1875 C-2 29 -2 29 -0.8125 27.0625 C1 26 1 26 3.1875 26.3125 C3.785625 26.539375 4.38375 26.76625 5 27 C5.625 29.375 5.625 29.375 6 32 C5.34 32.66 4.68 33.32 4 34 C7.96 34 11.92 34 16 34 C16.33 32.35 16.66 30.7 17 29 C15.68 28.67 14.36 28.34 13 28 C12.34 25.69 11.68 23.38 11 21 C11.99 20.67 12.98 20.34 14 20 C13.21869929 17.50447516 13.21869929 17.50447516 12 15 C11.01 14.67 10.02 14.34 9 14 C9.495 17.96 9.495 17.96 10 22 C7.35261084 23.4606285 6.10551666 24 3 24 C2.34 22.68 1.68 21.36 1 20 C-1.38564077 20.57584432 -3.66682784 21.22227595 -6 22 C-6.66 19.69 -7.32 17.38 -8 15 C-6.9790625 14.2575 -6.9790625 14.2575 -5.9375 13.5 C-3.80204136 11.25732688 -3.80204136 11.25732688 -3.95703125 8.953125 C-4.22259233 6.95610564 -4.60490464 4.97547682 -5 3 C-2.6875 1.4375 -2.6875 1.4375 0 0 Z " fill="#ECECEC" transform="translate(49,30)"/>
<path d="M0 0 C2.475 0.495 2.475 0.495 5 1 C5.495 3.475 5.495 3.475 6 6 C6.99 6 7.98 6 9 6 C9.495 7.485 9.495 7.485 10 9 C18.25 9.33 26.5 9.66 35 10 C35 10.33 35 10.66 35 11 C26.75 11 18.5 11 10 11 C10 11.66 10 12.32 10 13 C29.305 13.495 29.305 13.495 49 14 C49 14.99 49 15.98 49 17 C16.66 17 -15.68 17 -49 17 C-49 16.01 -49 15.02 -49 14 C-39.76 14 -30.52 14 -21 14 C-21 13.01 -21 12.02 -21 11 C-25.62 11 -30.24 11 -35 11 C-35 10.67 -35 10.34 -35 10 C-30.71 10 -26.42 10 -22 10 C-21.67 8.35 -21.34 6.7 -21 5 C-19.5625 3.1875 -19.5625 3.1875 -18 2 C-17.34 2 -16.68 2 -16 2 C-15.34 4.31 -14.68 6.62 -14 9 C-15.32 10.32 -16.64 11.64 -18 13 C-16.02 13.33 -14.04 13.66 -12 14 C-12.226875 13.071875 -12.45375 12.14375 -12.6875 11.1875 C-13 8 -13 8 -11.8125 6.0625 C-10 5 -10 5 -7.8125 5.3125 C-7.214375 5.539375 -6.61625 5.76625 -6 6 C-5.375 8.375 -5.375 8.375 -5 11 C-5.66 11.66 -6.32 12.32 -7 13 C-3.04 13 0.92 13 5 13 C5.33 11.35 5.66 9.7 6 8 C4.68 7.67 3.36 7.34 2 7 C1.34 4.69 0.68 2.38 0 0 Z " fill="#D44A4A" transform="translate(60,51)"/>
<path d="M0 0 C0.33 0.99 0.66 1.98 1 3 C1.66 1.68 2.32 0.36 3 -1 C5.10409639 -1.02701408 7.20829178 -1.04640223 9.3125 -1.0625 C10.48425781 -1.07410156 11.65601563 -1.08570312 12.86328125 -1.09765625 C16 -1 16 -1 19 0 C18.67 1.65 18.34 3.3 18 5 C19.65 5 21.3 5 23 5 C23 3.68 23 2.36 23 1 C23.66 1 24.32 1 25 1 C24.67 4.63 24.34 8.26 24 12 C23.34 12 22.68 12 22 12 C22 10.35 22 8.7 22 7 C20.35 7 18.7 7 17 7 C17 8.65 17 10.3 17 12 C13.60907078 13.04336284 10.5382677 13.22584687 7 13 C6.01 12.34 5.02 11.68 4 11 C4 10.01 4 9.02 4 8 C4.66 8 5.32 8 6 8 C6.495 8.99 6.495 8.99 7 10 C7.99 10 8.98 10 10 10 C10 9.34 10 8.68 10 8 C8.02 7.01 6.04 6.02 4 5 C3.01 7.64 2.02 10.28 1 13 C-2.375 12.3125 -2.375 12.3125 -6 11 C-7.4375 8.375 -7.4375 8.375 -8 6 C-8.66 7.98 -9.32 9.96 -10 12 C-10.66 11.67 -11.32 11.34 -12 11 C-13.32 11.33 -14.64 11.66 -16 12 C-16 9.03 -16 6.06 -16 3 C-17.98 3 -19.96 3 -22 3 C-22 3.66 -22 4.32 -22 5 C-20.68 5 -19.36 5 -18 5 C-18 5.66 -18 6.32 -18 7 C-19.65 7 -21.3 7 -23 7 C-23.33 8.65 -23.66 10.3 -24 12 C-24.66 12 -25.32 12 -26 12 C-25.34 8.04 -24.68 4.08 -24 0 C-16.36936964 -1.19696162 -7.41182109 -2.47060703 0 0 Z " fill="#BCBCBC" transform="translate(40,70)"/>
<path d="M0 0 C32.34 0 64.68 0 98 0 C98 0.33 98 0.66 98 1 C93.38 1.33 88.76 1.66 84 2 C84 2.99 84 3.98 84 5 C60.57 5 37.14 5 13 5 C13.33 4.01 13.66 3.02 14 2 C7.07 1.505 7.07 1.505 0 1 C0 0.67 0 0.34 0 0 Z " fill="#D2CFCE" transform="translate(11,88)"/>
<path d="M0 0 C32.34 0 64.68 0 98 0 C98 0.99 98 1.98 98 3 C65.66 3 33.32 3 0 3 C0 2.01 0 1.02 0 0 Z " fill="#D44B4C" transform="translate(11,85)"/>
<path d="M0 0 C2.5 0.875 2.5 0.875 3.8125 3.25 C4.5 5.875 4.5 5.875 4.5 8.875 C5.16 8.875 5.82 8.875 6.5 8.875 C6.45875 7.76125 6.4175 6.6475 6.375 5.5 C6.5 1.875 6.5 1.875 8.5 -0.125 C11.5390625 -0.3203125 11.5390625 -0.3203125 15.125 -0.25 C16.90777344 -0.22292969 16.90777344 -0.22292969 18.7265625 -0.1953125 C19.64179687 -0.17210938 20.55703125 -0.14890625 21.5 -0.125 C21.5 1.195 21.5 2.515 21.5 3.875 C18.53 3.875 15.56 3.875 12.5 3.875 C12.5 4.865 12.5 5.855 12.5 6.875 C14.15 6.875 15.8 6.875 17.5 6.875 C17.5 7.205 17.5 7.535 17.5 7.875 C15.52 7.875 13.54 7.875 11.5 7.875 C11.5 9.195 11.5 10.515 11.5 11.875 C13.48 11.875 15.46 11.875 17.5 11.875 C17.5 12.535 17.5 13.195 17.5 13.875 C12.88 14.205 8.26 14.535 3.5 14.875 C3.83 14.215 4.16 13.555 4.5 12.875 C4.17 12.215 3.84 11.555 3.5 10.875 C2.84 10.875 2.18 10.875 1.5 10.875 C1.17 11.865 0.84 12.855 0.5 13.875 C1.16 14.205 1.82 14.535 2.5 14.875 C-3.78260706 15.10768915 -9.38019467 14.27954548 -15.5 12.875 C-15.35892253 11.41619891 -15.21197585 9.95796449 -15.0625 8.5 C-14.98128906 7.68789062 -14.90007812 6.87578125 -14.81640625 6.0390625 C-14.5 3.875 -14.5 3.875 -13.5 1.875 C-12.84 1.875 -12.18 1.875 -11.5 1.875 C-12.16 4.845 -12.82 7.815 -13.5 10.875 C-11.52 10.875 -9.54 10.875 -7.5 10.875 C-6.0879179 6.76490012 -6.0879179 6.76490012 -5 2.5625 C-4.835 2.005625 -4.67 1.44875 -4.5 0.875 C-2.5 -0.125 -2.5 -0.125 0 0 Z " fill="#989898" transform="translate(86.5,69.125)"/>
<path d="M0 0 C32.34 0 64.68 0 98 0 C94.57267837 2.28488108 93.37963387 2.19457895 89.375 2.0625 C87.58402787 2.00844179 85.79167135 1.97957378 84 2 C82.03177114 3.96822886 82.33751619 7.34808709 82 10 C81.34 10 80.68 10 80 10 C79.01 6.04 79.01 6.04 78 2 C75.69 2 73.38 2 71 2 C70.92652344 2.93972656 70.92652344 2.93972656 70.8515625 3.8984375 C70.77679688 4.71570313 70.70203125 5.53296875 70.625 6.375 C70.55539063 7.18710938 70.48578125 7.99921875 70.4140625 8.8359375 C70 11 70 11 68 13 C64.875 12.625 64.875 12.625 62 12 C62.66 9.03 63.32 6.06 64 3 C61.01405576 1.50702788 58.29146376 1.88244772 55 2 C54.34 2.33 53.68 2.66 53 3 C52.34786708 5.02463255 52.34786708 5.02463255 52 7 C50.35 7 48.7 7 47 7 C47.33 5.35 47.66 3.7 48 2 C42.72 2 37.44 2 32 2 C31.34 3.32 30.68 4.64 30 6 C29.67 4.68 29.34 3.36 29 2 C28.07960938 2.01160156 27.15921875 2.02320312 26.2109375 2.03515625 C17.41327493 2.09786871 8.7716103 1.75687238 0 1 C0 0.67 0 0.34 0 0 Z " fill="#F9F2F2" transform="translate(11,68)"/>
<path d="M0 0 C0.66 2.31 1.32 4.62 2 7 C0.02 8.32 -1.96 9.64 -4 11 C-3.34 12.98 -2.68 14.96 -2 17 C-3.98 18.32 -5.96 19.64 -8 21 C-2.06 21.33 3.88 21.66 10 22 C9.67 22.66 9.34 23.32 9 24 C0.75 23.67 -7.5 23.34 -16 23 C-16.66 21.35 -17.32 19.7 -18 18 C-16.35 16.68 -14.7 15.36 -13 14 C-13.66 11.36 -14.32 8.72 -15 6 C-5 0 -5 0 0 0 Z " fill="#E5E5E5" transform="translate(86,38)"/>
<path d="M0 0 C1.32 0.33 2.64 0.66 4 1 C4.12375 1.804375 4.2475 2.60875 4.375 3.4375 C4.58125 4.283125 4.7875 5.12875 5 6 C5.66 6.33 6.32 6.66 7 7 C5.35 7 3.7 7 2 7 C2.66 9.31 3.32 11.62 4 14 C6.475 14.495 6.475 14.495 9 15 C8.125 19.875 8.125 19.875 7 21 C4.81360547 21.07258946 2.62499611 21.08373783 0.4375 21.0625 C-1.35880859 21.04896484 -1.35880859 21.04896484 -3.19140625 21.03515625 C-4.11824219 21.02355469 -5.04507813 21.01195313 -6 21 C-5.649375 20.236875 -5.29875 19.47375 -4.9375 18.6875 C-3.67639116 15.95240621 -3.67639116 15.95240621 -5 13 C-6.32 13.33 -7.64 13.66 -9 14 C-9.74957157 17.47147842 -9.74957157 17.47147842 -10 21 C-12.31 21 -14.62 21 -17 21 C-16.29875 20.34 -15.5975 19.68 -14.875 19 C-12.76269949 16.28774969 -12.76269949 16.28774969 -13.1796875 13.88671875 C-13.69526427 11.89856996 -14.34061353 9.9451901 -15 8 C-13.25 6.4375 -13.25 6.4375 -11 5 C-8.75 5.3125 -8.75 5.3125 -7 6 C-6.67 7.32 -6.34 8.64 -6 10 C-5.401875 9.67 -4.80375 9.34 -4.1875 9 C-2 8 -2 8 1 8 C0.67 5.36 0.34 2.72 0 0 Z " fill="#F3F0F0" transform="translate(58,44)"/>
<path d="M0 0 C2.31 0.33 4.62 0.66 7 1 C6.67 2.65 6.34 4.3 6 6 C7.65 6 9.3 6 11 6 C11 4.68 11 3.36 11 2 C11.66 2 12.32 2 13 2 C12.67 5.63 12.34 9.26 12 13 C11.34 13 10.68 13 10 13 C10 11.35 10 9.7 10 8 C8.35 8 6.7 8 5 8 C5 9.65 5 11.3 5 13 C1.61981469 14.04005702 -1.4780279 14.08004482 -5 14 C-5 13.67 -5 13.34 -5 13 C-3.35 12.67 -1.7 12.34 0 12 C0 10.68 0 9.36 0 8 C-1.32 7.34 -2.64 6.68 -4 6 C-4 5.01 -4 4.02 -4 3 C-1.83125748 3.50603992 -0.00032373 3.99983813 2 5 C1.34 3.35 0.68 1.7 0 0 Z " fill="#DEDEDD" transform="translate(52,69)"/>
<path d="M0 0 C3.39914975 1.13304992 4.05254451 2.12518475 6 5 C7.98 4.34 9.96 3.68 12 3 C13.30913891 5.15622879 14 6.57952098 14 9.125 C13 11 13 11 9.9375 12.25 C8.968125 12.4975 7.99875 12.745 7 13 C6.34 11.35 5.68 9.7 5 8 C2.69 8.66 0.38 9.32 -2 10 C-2.66 7.69 -3.32 5.38 -4 3 C-2.1875 1.4375 -2.1875 1.4375 0 0 Z " fill="#191919" transform="translate(64,31)"/>
<path d="M0 0 C4.29 0 8.58 0 13 0 C13 1.32 13 2.64 13 4 C10.03 4 7.06 4 4 4 C4 4.99 4 5.98 4 7 C5.65 7 7.3 7 9 7 C9 7.33 9 7.66 9 8 C7.02 8 5.04 8 3 8 C3 9.32 3 10.64 3 12 C4.98 12 6.96 12 9 12 C9 12.66 9 13.32 9 14 C4.38 14.33 -0.24 14.66 -5 15 C-4.01 14.34 -3.02 13.68 -2 13 C-1.45321384 10.41064491 -1.45321384 10.41064491 -1.375 7.5 C-1.07988166 2.15976331 -1.07988166 2.15976331 0 0 Z " fill="#828181" transform="translate(95,69)"/>
<path d="M0 0 C7.92 0 15.84 0 24 0 C24 0.33 24 0.66 24 1 C30.93 1.495 30.93 1.495 38 2 C38 2.33 38 2.66 38 3 C25.13 3 12.26 3 -1 3 C-0.67 2.01 -0.34 1.02 0 0 Z " fill="#FBF1F1" transform="translate(70,62)"/>
<path d="M0 0 C0.5775 0.226875 1.155 0.45375 1.75 0.6875 C1.87375 1.326875 1.9975 1.96625 2.125 2.625 C2.33125 3.305625 2.5375 3.98625 2.75 4.6875 C3.41 5.0175 4.07 5.3475 4.75 5.6875 C3.265 6.491875 3.265 6.491875 1.75 7.3125 C0.76 8.09625 -0.23 8.88 -1.25 9.6875 C-1.75169415 12.85676564 -1.75169415 12.85676564 -1.25 15.6875 C-3.56 15.6875 -5.87 15.6875 -8.25 15.6875 C-7.54875 15.0275 -6.8475 14.3675 -6.125 13.6875 C-4.01269949 10.97524969 -4.01269949 10.97524969 -4.4296875 8.57421875 C-4.94526427 6.58606996 -5.59061353 4.6326901 -6.25 2.6875 C-2.80384615 -0.38942308 -2.80384615 -0.38942308 0 0 Z " fill="#EBE8E8" transform="translate(49.25,49.3125)"/>
<path d="M0 0 C2.475 0.495 2.475 0.495 5 1 C5.33 2.65 5.66 4.3 6 6 C6.99 6 7.98 6 9 6 C9.33 6.99 9.66 7.98 10 9 C18.25 9.33 26.5 9.66 35 10 C35 10.33 35 10.66 35 11 C26.75 11 18.5 11 10 11 C10 11.66 10 12.32 10 13 C8.35 13.33 6.7 13.66 5 14 C5.33 12.02 5.66 10.04 6 8 C4.68 7.67 3.36 7.34 2 7 C1.34 4.69 0.68 2.38 0 0 Z " fill="#242020" transform="translate(60,51)"/>
<path d="M0 0 C0.33 0 0.66 0 1 0 C0.67 4.29 0.34 8.58 0 13 C-6.625 13.25 -6.625 13.25 -10 11 C-9.34 11 -8.68 11 -8 11 C-7.67 9.35 -7.34 7.7 -7 6 C-5.35 6 -3.7 6 -2 6 C-2 5.34 -2 4.68 -2 4 C-3.32 4 -4.64 4 -6 4 C-6 3.34 -6 2.68 -6 2 C-4.02 2 -2.04 2 0 2 C0 1.34 0 0.68 0 0 Z " fill="#F3F2F2" transform="translate(24,71)"/>
<path d="M0 0 C0.66 2.31 1.32 4.62 2 7 C0.02 8.65 -1.96 10.3 -4 12 C-4.33 11.01 -4.66 10.02 -5 9 C-9.62 9 -14.24 9 -19 9 C-19 8.67 -19 8.34 -19 8 C-14.71 8 -10.42 8 -6 8 C-5.67 6.35 -5.34 4.7 -5 3 C-2.62068966 0 -2.62068966 0 0 0 Z " fill="#151414" transform="translate(44,53)"/>
<path d="M0 0 C0.99 0 1.98 0 3 0 C3.66 1.65 4.32 3.3 5 5 C5.66 3.35 6.32 1.7 7 0 C7.66 0 8.32 0 9 0 C8.125 7.625 8.125 7.625 7 11 C6.01 10.67 5.02 10.34 4 10 C2.8125 7.4375 2.8125 7.4375 2 5 C1.34 6.98 0.68 8.96 0 11 C-0.66 10.67 -1.32 10.34 -2 10 C-1.34 6.7 -0.68 3.4 0 0 Z " fill="#262626" transform="translate(30,71)"/>
<path d="M0 0 C0.33 1.98 0.66 3.96 1 6 C-0.98 6.99 -2.96 7.98 -5 9 C-6.5625 6.6875 -6.5625 6.6875 -8 4 C-7 1 -7 1 -5.125 -0.25 C-3 -1 -3 -1 0 0 Z " fill="#151515" transform="translate(52,31)"/>
<path d="M0 0 C0.99 0.33 1.98 0.66 3 1 C3.875 3.6875 3.875 3.6875 4 7 C2.20703368 9.13500912 0.32163572 10.38906909 -2 12 C-4.05685131 7.64431487 -4.05685131 7.64431487 -3.8125 4.875 C-2.88269161 2.72928833 -1.75385898 1.52509476 0 0 Z " fill="#0F0F0F" transform="translate(36,39)"/>
<path d="M0 0 C0.66 2.31 1.32 4.62 2 7 C-2.75 10 -2.75 10 -5 10 C-5.66 7.69 -6.32 5.38 -7 3 C-2.25 0 -2.25 0 0 0 Z " fill="#151515" transform="translate(86,38)"/>
<path d="M0 0 C1.98 0.495 1.98 0.495 4 1 C4.33 2.98 4.66 4.96 5 7 C5.66 7 6.32 7 7 7 C7 4.69 7 2.38 7 0 C7.66 0 8.32 0 9 0 C8.67 3.63 8.34 7.26 8 11 C7.01 11 6.02 11 5 11 C4.34 8.69 3.68 6.38 3 4 C2.34 4 1.68 4 1 4 C0.67 6.31 0.34 8.62 0 11 C-0.33 11 -0.66 11 -1 11 C-0.67 7.37 -0.34 3.74 0 0 Z " fill="#232323" transform="translate(86,71)"/>
<path d="M0 0 C0.86625 0.3403125 0.86625 0.3403125 1.75 0.6875 C2.08 2.6675 2.41 4.6475 2.75 6.6875 C0.10261084 8.1481285 -1.14448334 8.6875 -4.25 8.6875 C-4.91 6.7075 -5.57 4.7275 -6.25 2.6875 C-2.80384615 -0.38942308 -2.80384615 -0.38942308 0 0 Z " fill="#0F0F0F" transform="translate(56.25,45.3125)"/>
<path d="M0 0 C0.33 1.98 0.66 3.96 1 6 C-1.64738916 7.4606285 -2.89448334 8 -6 8 C-6.66 5.69 -7.32 3.38 -8 1 C-4.93251126 -0.86240388 -3.40254489 -1.2151946 0 0 Z " fill="#0F0F0F" transform="translate(81,25)"/>
<path d="M0 0 C2.50037734 2.17424117 3.43628586 3.73045798 4 7 C1.6875 8.5625 1.6875 8.5625 -1 10 C-1.99 9.67 -2.98 9.34 -4 9 C-4.33 7.02 -4.66 5.04 -5 3 C-3.35 2.01 -1.7 1.02 0 0 Z " fill="#111111" transform="translate(80,48)"/>
<path d="M0 0 C0.99 0.33 1.98 0.66 3 1 C3.33 2.98 3.66 4.96 4 7 C2.35 8.32 0.7 9.64 -1 11 C-3.41703243 8.58296757 -3.83849795 7.39154295 -4 4 C-2.0625 1.6875 -2.0625 1.6875 0 0 Z " fill="#0F0F0F" transform="translate(45,41)"/>
<path d="M0 0 C0.66 0 1.32 0 2 0 C2 1.32 2 2.64 2 4 C3.65 4 5.3 4 7 4 C7 2.68 7 1.36 7 0 C7.66 0 8.32 0 9 0 C8.67 3.63 8.34 7.26 8 11 C7.34 11 6.68 11 6 11 C6 9.35 6 7.7 6 6 C4.35 6 2.7 6 1 6 C1 7.65 1 9.3 1 11 C0.34 11 -0.32 11 -1 11 C-0.67 7.37 -0.34 3.74 0 0 Z " fill="#292929" transform="translate(56,71)"/>
<path d="M0 0 C0.99 0.33 1.98 0.66 3 1 C3.33 2.98 3.66 4.96 4 7 C0.25 10 0.25 10 -2 10 C-2.66 7.69 -3.32 5.38 -4 3 C-2.1875 1.4375 -2.1875 1.4375 0 0 Z " fill="#0B0B0B" transform="translate(64,31)"/>
<path d="M0 0 C0.66 2.31 1.32 4.62 2 7 C0.1875 8.5625 0.1875 8.5625 -2 10 C-2.99 9.67 -3.98 9.34 -5 9 C-5.33 7.02 -5.66 5.04 -6 3 C-2.25 0 -2.25 0 0 0 Z " fill="#121212" transform="translate(72,45)"/>
<path d="M0 0 C0.598125 0.226875 1.19625 0.45375 1.8125 0.6875 C2.1425 2.3375 2.4725 3.9875 2.8125 5.6875 C-0.8125 8.6875 -0.8125 8.6875 -4.1875 8.6875 C-4.875 5.875 -4.875 5.875 -5.1875 2.6875 C-3.62441875 0.13720955 -3.00012909 -0.42858987 0 0 Z " fill="#130E0E" transform="translate(52.1875,56.3125)"/>
<path d="M0 0 C2.2477975 2.05233685 3.0022242 3.00667261 4 6 C4.66 6.66 5.32 7.32 6 8 C2.98509443 9.00496852 0.95818308 9.10335303 -2.1875 9.0625 C-3.08855469 9.05347656 -3.98960938 9.04445313 -4.91796875 9.03515625 C-5.60503906 9.02355469 -6.29210937 9.01195313 -7 9 C-7 8.01 -7 7.02 -7 6 C-6.01 5.67 -5.02 5.34 -4 5 C-3.34 4.34 -2.68 3.68 -2 3 C-1.67 3.99 -1.34 4.98 -1 6 C-0.67 4.02 -0.34 2.04 0 0 Z " fill="#DFDCDD" transform="translate(31,75)"/>
<path d="M0 0 C1.98 0 3.96 0 6 0 C6.33 0.99 6.66 1.98 7 3 C5.02 2.34 3.04 1.68 1 1 C1.66868314 4.11332248 1.66868314 4.11332248 4.0625 5.1875 C4.701875 5.455625 5.34125 5.72375 6 6 C5.67 7.65 5.34 9.3 5 11 C2.69 11 0.38 11 -2 11 C-2.33 9.68 -2.66 8.36 -3 7 C-2.34 7 -1.68 7 -1 7 C-0.67 7.66 -0.34 8.32 0 9 C0.99 9 1.98 9 3 9 C3 8.34 3 7.68 3 7 C1.68 6.34 0.36 5.68 -1 5 C-0.67 3.35 -0.34 1.7 0 0 Z " fill="#1E1E1E" transform="translate(47,71)"/>
<path d="M0 0 C2.97 0.33 5.94 0.66 9 1 C9 1.33 9 1.66 9 2 C7.824375 2.1546875 7.824375 2.1546875 6.625 2.3125 C3.66954819 2.77595022 3.66954819 2.77595022 2 6 C1.34 6.66 0.68 7.32 0 8 C-0.64767793 10.57061311 -0.64767793 10.57061311 -1 13 C-1.66 13 -2.32 13 -3 13 C-2.88490339 11.58249437 -2.75746342 10.16598831 -2.625 8.75 C-2.55539063 7.96109375 -2.48578125 7.1721875 -2.4140625 6.359375 C-2 4 -2 4 0 0 Z " fill="#828282" transform="translate(43,69)"/>
<path d="M0 0 C1.65 0 3.3 0 5 0 C5.268125 0.78375 5.53625 1.5675 5.8125 2.375 C6.84814432 5.28114923 6.84814432 5.28114923 10 7 C10.6875 9.625 10.6875 9.625 11 12 C10.34 12 9.68 12 9 12 C8.773125 11.38125 8.54625 10.7625 8.3125 10.125 C7.1609264 7.76193177 7.1609264 7.76193177 4.5 7.125 C2 6 2 6 0.6875 2.875 C0.460625 1.92625 0.23375 0.9775 0 0 Z " fill="#0F0F0F" transform="translate(54,37)"/>
<path d="M0 0 C2.64 0 5.28 0 8 0 C8 0.66 8 1.32 8 2 C6.02 2 4.04 2 2 2 C2 2.66 2 3.32 2 4 C3.32 4 4.64 4 6 4 C6 4.66 6 5.32 6 6 C4.35 6 2.7 6 1 6 C0.67 7.65 0.34 9.3 0 11 C-0.66 11 -1.32 11 -2 11 C-1.34 7.37 -0.68 3.74 0 0 Z " fill="#4E4E4E" transform="translate(16,71)"/>
<path d="M0 0 C-0.99 0.33 -1.98 0.66 -3 1 C-3 2.98 -3 4.96 -3 7 C-3.66 6.67 -4.32 6.34 -5 6 C-5.66 7.98 -6.32 9.96 -7 12 C-7.66 12 -8.32 12 -9 12 C-8.719172 10.01926635 -8.42503386 8.04041552 -8.125 6.0625 C-7.96257812 4.96035156 -7.80015625 3.85820313 -7.6328125 2.72265625 C-7.42398438 1.82417969 -7.21515625 0.92570312 -7 0 C-4.3333581 -1.33332095 -2.83319697 -0.67102033 0 0 Z " fill="#7B7A7A" transform="translate(89,70)"/>
<path d="M0 0 C2.475 0.495 2.475 0.495 5 1 C5.33 2.65 5.66 4.3 6 6 C6.99 6 7.98 6 9 6 C8.67 7.32 8.34 8.64 8 10 C8 9.34 8 8.68 8 8 C5.03 7.505 5.03 7.505 2 7 C1.34 4.69 0.68 2.38 0 0 Z " fill="#141414" transform="translate(60,51)"/>
<path d="M0 0 C2.97 0 5.94 0 9 0 C8.34 2.97 7.68 5.94 7 9 C6.34 9 5.68 9 5 9 C4.89042969 8.43410156 4.78085938 7.86820312 4.66796875 7.28515625 C4.50941406 6.55167969 4.35085937 5.81820312 4.1875 5.0625 C4.03667969 4.33160156 3.88585937 3.60070312 3.73046875 2.84765625 C3.48941406 2.23792969 3.24835938 1.62820312 3 1 C2.01 0.67 1.02 0.34 0 0 Z " fill="#F0F0F0" transform="translate(86,69)"/>
<path d="M0 0 C3.3 0 6.6 0 10 0 C9.34 0.66 8.68 1.32 8 2 C7.3574765 4.06874034 7.3574765 4.06874034 7 6 C5.35 6 3.7 6 2 6 C2.33 4.35 2.66 2.7 3 1 C2.01 0.67 1.02 0.34 0 0 Z " fill="#FBFAFB" transform="translate(56,69)"/>
<path d="M0 0 C0.4125 0.61875 0.825 1.2375 1.25 1.875 C3.05573879 4.06768281 4.4090534 4.92788417 7 6 C6.67 6.99 6.34 7.98 6 9 C4.68 8.67 3.36 8.34 2 8 C2 7.34 2 6.68 2 6 C0.68 6.33 -0.64 6.66 -2 7 C-1.34 4.69 -0.68 2.38 0 0 Z " fill="#E9E9E9" transform="translate(44,72)"/>
<path d="M0 0 C1.32 0.33 2.64 0.66 4 1 C4.12375 1.804375 4.2475 2.60875 4.375 3.4375 C4.684375 4.7059375 4.684375 4.7059375 5 6 C5.66 6.33 6.32 6.66 7 7 C5.02 7 3.04 7 1 7 C0.67 4.69 0.34 2.38 0 0 Z " fill="#F8F8F8" transform="translate(58,44)"/>
<path d="M0 0 C0.66 0 1.32 0 2 0 C2.59332061 4.37573952 3.13827236 8.57528444 3 13 C1.68 12.67 0.36 12.34 -1 12 C-0.67 8.04 -0.34 4.08 0 0 Z " fill="#CCCCCC" transform="translate(38,70)"/>
<path d="M0 0 C-0.33 0.99 -0.66 1.98 -1 3 C-2.27875 3.061875 -3.5575 3.12375 -4.875 3.1875 C-5.59429687 3.22230469 -6.31359375 3.25710937 -7.0546875 3.29296875 C-7.69664063 3.19628906 -8.33859375 3.09960938 -9 3 C-9.66 2.01 -10.32 1.02 -11 0 C-3.375 -1.125 -3.375 -1.125 0 0 Z " fill="#BDBDBB" transform="translate(109,70)"/>
<path d="M0 0 C2.6855594 2.6855594 3.06049974 5.37621328 4 9 C3.01 8.67 2.02 8.34 1 8 C0.67 6.35 0.34 4.7 0 3 C-1.98 3 -3.96 3 -6 3 C-6 2.67 -6 2.34 -6 2 C-4.02 1.34 -2.04 0.68 0 0 Z " fill="#C8C8C8" transform="translate(59,34)"/>
<path d="M0 0 C1.98 0 3.96 0 6 0 C6 1.33333333 6 2.66666667 6 4 C4.02 4 2.04 4 0 4 C0 2.68 0 1.36 0 0 Z " fill="#C4C5C4" transform="translate(98,77)"/>
<path d="M0 0 C0.33 0.99 0.66 1.98 1 3 C2.65 3 4.3 3 6 3 C6 3.33 6 3.66 6 4 C4.35 4 2.7 4 1 4 C0.67 5.65 0.34 7.3 0 9 C-0.66 9 -1.32 9 -2 9 C-1.34 6.03 -0.68 3.06 0 0 Z " fill="#1B1A1A" transform="translate(16,73)"/>
<path d="M0 0 C0.33 0 0.66 0 1 0 C1 1.65 1 3.3 1 5 C0.01 5.33 -0.98 5.66 -2 6 C-2 5.34 -2 4.68 -2 4 C-3.32 4 -4.64 4 -6 4 C-6 3.34 -6 2.68 -6 2 C-4.02 2 -2.04 2 0 2 C0 1.34 0 0.68 0 0 Z " fill="#FAF9F9" transform="translate(24,71)"/>
<path d="M0 0 C0.66 0 1.32 0 2 0 C2.33 0.66 2.66 1.32 3 2 C3.99 2 4.98 2 6 2 C6.66 1.34 7.32 0.68 8 0 C8.33 0.99 8.66 1.98 9 3 C8 4 8 4 4.4375 4.0625 C3.303125 4.041875 2.16875 4.02125 1 4 C0.67 2.68 0.34 1.36 0 0 Z " fill="#333333" transform="translate(44,78)"/>
<path d="M0 0 C1.5625 1.1875 1.5625 1.1875 3 3 C2.6875 5.6875 2.6875 5.6875 2 8 C1.34 8 0.68 8 0 8 C0 5.36 0 2.72 0 0 Z " fill="#EDEEEE" transform="translate(31,75)"/>
<path d="M0 0 C0.99 0 1.98 0 3 0 C3.99 2.31 4.98 4.62 6 7 C5.01 7.33 4.02 7.66 3 8 C2.01 5.36 1.02 2.72 0 0 Z " fill="#C6C6C6" transform="translate(63,49)"/>
<path d="M0 0 C0.99 0.33 1.98 0.66 3 1 C3 1.66 3 2.32 3 3 C3.66 3.33 4.32 3.66 5 4 C1.25 5.125 1.25 5.125 -1 4 C-0.67 2.68 -0.34 1.36 0 0 Z " fill="#ECECEC" transform="translate(88,79)"/>
<path d="M0 0 C1.9375 1.375 1.9375 1.375 2.6875 4 C2.77 4.78375 2.8525 5.5675 2.9375 6.375 C2.2775 6.375 1.6175 6.375 0.9375 6.375 C0.669375 5.75625 0.40125 5.1375 0.125 4.5 C-1.01806848 2.0754767 -1.01806848 2.0754767 -4.0625 0.375 C-2.0625 -0.625 -2.0625 -0.625 0 0 Z " fill="#333333" transform="translate(62.0625,42.625)"/>
</svg>
