<?xml version="1.0" encoding="utf-8"?>
<!-- Generator: $$$/GeneralStr/196=Adobe Illustrator 27.6.0, SVG Export Plug-In . SVG Version: 6.00 Build 0)  -->
<svg version="1.1" id="Capa_1" xmlns="http://www.w3.org/2000/svg" xmlns:xlink="http://www.w3.org/1999/xlink" x="0px" y="0px"
	 viewBox="0 0 254.6 178.3" style="enable-background:new 0 0 254.6 178.3;" xml:space="preserve">
<style type="text/css">
	.st0{fill:#F21818;}
</style>
<g>
	<g>
		<path d="M104.8,105.1c1.2,0.7,2.2,0.6,3.1,0.6c8.3,0,16.5-0.1,24.8,0.1c2.8,0.1,5-0.5,6.7-2.9c1.3-1.9,3-3.6,4.3-5.5
			c3-4.5,0.7-8.9-4.8-9.2c-1.7-0.1-3.5,0.2-5.2,0.5c-1,0.2-1.4,0.1-1.9-0.8c-2.3-4.8-3.4-10-5.4-14.9c-0.3-0.6-0.3-1.1,0.7-1.4
			c3-0.7,5.9-0.5,8.9,0c1.1,0.2,1.8,1,2.1,1.9c0.8,2.8,2.5,5.3,2.8,8.2c0.1,1,0.7,2,1.5,2.8c1.1,1.1,1.7-0.2,2.6-0.4
			c1.1-0.3,1.9-0.1,2.3,1.2c0.8,2.4,2,4.8,2.7,7.2c0.6,1.9,1.7,2.4,3.7,2.4c19.1-0.1,38.2,0,57.3,0c0.4,0,0.8,0,1.2,0
			c0.7,0,1.5-0.1,1.6,1c0.1,1.2-0.7,1.1-1.5,1.1c-0.8,0-1.5,0-2.3,0c-18.3,0-36.5,0-54.8,0.1c-1.4,0-3.4-0.6-2.6,2.2
			c0.3,1.1-1.1,1.5-1.8,2.2c-1.2,1-3.5,1.9-3.1,3.3c0.5,1.6-95.4,0.9-74.8,0.8c6,0,4.8-0.3,3.2-4.6c-1.4-4-1.5-3.9-5.7-3.9
			c-9.3,0-18.7,0-28,0c-0.8,0-2.2,0.8-2.3-1c-0.1-1.8,1.4-1.1,2.2-1.1c9.1-0.1,18.2,0,27.3-0.1c3.6,0,3.9-0.4,2.5-3.7
			c-0.6-1.4-0.5-2.5,0.6-3.6c3.9-3.9,7.5-8.1,11.9-11.6c1.2-1,2-1,2.4,0.6c1.4,4.8,4.3,9,5.3,13.9c0.3,1.3,0.9,1.8,2.1,0.5
			c3.5-3.8,7.8-6.7,12.2-9.4c1.3-0.8,1.9-0.6,2.5,0.9c1.7,4.6,3.6,9.1,5.5,13.6c0.6,1.3-0.1,1.6-0.9,2.1
			C110.6,100.3,107.5,102.3,104.8,105.1z M92.9,92.5c-4.2,3.1-8.2,6.4-11.3,10.5c-0.4,0.6-1.1,1.3-0.8,2c0.3,0.8,1.3,0.7,2,0.7
			c4.4,0,8.8,0,13.2,0c1.7,0,1.9-0.7,1.4-2.1C96.2,99.8,94.7,96.2,92.9,92.5z"/>
		<path d="M126.9,171.5c-27.8,0-55.7,0-83.5-0.1c-1.1,0-3.1,1-3.2-1.1c-0.1-2.2,2-1.1,3-1.1c55.8-0.1,111.7-0.1,167.5-0.1
			c0.6,0,1.2,0,1.7,0c0.7,0,1.1,0.2,1.1,1c0,0.7-0.1,1.4-1,1.4c-0.8,0-1.7,0-2.5,0C182.4,171.5,154.7,171.5,126.9,171.5
			C126.9,171.5,126.9,171.5,126.9,171.5z"/>
		<path d="M64.7,71.2c-0.8-2-1.6-3.9-2.4-5.8c-1.4-3.3-2.7-6.6-4.1-9.9c-0.4-1-0.5-1.8,0.2-2.8c3.5-4.4,7.9-7.8,11.8-11.7
			c1.3-1.3,2.3-1.2,3,0.8c1.7,4.6,3.7,9.1,5.5,13.6c0.3,0.8,1,1.7-0.2,2.3c-5.6,3-9.3,7.9-13,12.8C65.3,70.8,65.1,70.9,64.7,71.2z"
			/>
		<path d="M133.3,47.5c-0.8,0.2-1-0.3-1.1-0.8c-1.9-5.2-3.9-10.3-5.8-15.5c-0.3-0.7,0.1-1.1,0.5-1.5c4-3.7,8.5-6.4,13.4-8.8
			c1.1-0.5,1.2,0,1.6,0.7c2,3.9,3.2,8,4.8,12c1.6,3.8,1.5,3.7-2,6c-3.1,2-6.1,4.3-9.2,6.4C134.8,46.6,134,47.1,133.3,47.5z"/>
		<path d="M108.4,80.3c-2.5-5.3-3.8-10.9-6.1-16.3c-0.4-0.9,0.3-1.3,0.9-1.8c4.1-3.2,9-4.8,13.7-6.7c1.1-0.4,1.9-0.2,2.4,1
			c1.8,4.6,3.6,9.2,5.6,13.8c0.6,1.3,0,1.5-1,1.9C118.3,74.1,113.2,77,108.4,80.3z"/>
		<path d="M111.5,35.9c-3.9,1.3-7.6,3-11.1,5c-0.4,0.2-0.7,0.4-1.1,0.6c-1.4,1-3.5,3.1-4.2,2.7c-1.6-0.9-2.1-3.3-2.6-5.1
			c-1-3.6-2.9-6.8-4.2-10.3c-0.5-1.3-0.3-1.8,0.8-2.6c4.2-2.9,9-4.5,13.6-6.6c1.4-0.6,1.9-0.2,2.5,1.2
			C107.2,25.9,109.4,30.8,111.5,35.9z"/>
		<path d="M86.4,73.9c-2.5-4.6-3.8-9.6-5.9-14.3c-0.7-1.6-0.6-3.1,1-4.5c3.6-3,7-6.1,11.1-8.4c1.9-1,2.6-0.4,3.3,1.3
			c1.7,4.4,3.5,8.8,5.3,13.1c0.4,1,0.4,1.6-0.7,2.1C95.1,65.9,91.1,70.2,86.4,73.9z"/>
		<path d="M174.4,4.1c1.1-0.2,1.3,0.5,1.5,1.1c1.8,5,3.6,9.9,5.5,14.9c0.4,1,0.2,1.3-0.8,1.6c-5,1.7-10,3.5-14.7,5.9
			c-1,0.5-1.1-0.2-1.3-0.8c-2-4.9-3.9-9.9-5.9-14.8c-0.4-0.9-0.3-1.5,0.6-1.7c4.7-1.1,8.6-4.1,13.2-5.6
			C173.1,4.6,173.8,4.3,174.4,4.1z"/>
		<path d="M177.7,64c0.8-0.2,0.9,0.5,1.1,1c1.9,4.8,3.8,9.5,5.8,14.3c0.3,0.9,0.2,1.4-0.7,1.7c-5,2.1-9.9,4.3-14.2,7.7
			c-0.8,0.6-1.2,0.5-1.6-0.5c-2.2-4.9-3.4-10.2-5.5-15.1c-0.2-0.5-0.3-0.9,0.2-1.3c4.5-3.1,9.3-5.7,14.4-7.6
			C177.4,64.2,177.6,64.1,177.7,64z"/>
		<path d="M155.3,55.1c-2-5.5-4-10.9-6-16.2c-0.4-1.1,0-1.7,0.9-2.2c4.3-2.5,8.6-5,13.2-6.9c1.1-0.4,1.5-0.5,2,0.9
			c1.7,4.8,3.7,9.5,5.6,14.3c0.3,0.7,0.9,1.6-0.5,1.9c-5.5,1.2-9.7,4.9-14.4,7.6C156,54.7,155.8,54.8,155.3,55.1z"/>
		<path d="M195.7,55.7c0.2,0.9-0.5,0.9-1,1.1c-5,2-10.3,3.2-15,5.9c-1.1,0.6-1.3-0.2-1.6-0.9c-1.8-4.6-3.6-9.3-5.4-13.9
			c-0.3-0.8,0-1.1,0.7-1.5c4.7-2.3,9.4-4.7,14.3-6.4c0.7-0.2,1.4-0.7,1.8,0.4c2,4.9,4,9.9,6,14.8C195.7,55.4,195.7,55.6,195.7,55.7z
			"/>
		<path d="M140.7,67c-0.3-1.2-0.1-2,0.6-2.5c2.4-1.7,4.6-3.8,7.4-5c1.6-0.7,2.9-1.8,4.4-2.8c1.2-0.7,2-0.8,2.6,0.8
			c1.8,4.6,3.6,9.3,5.6,13.8c0.4,0.9,0.1,1.2-0.6,1.5c-4.8,2.3-8.9,5.8-12.9,9.2c-0.5,0.4-1.1,1.1-1.5,0c-1.8-4.7-3.7-9.4-5.5-14.1
			C140.6,67.6,140.7,67.2,140.7,67z"/>
		<path d="M118.9,54.6c-2.1-5.7-4.2-11.4-6.4-17c-0.4-1,0-1.3,0.8-1.7c4.5-2,10,0.2,11.9,4.8c1.2,3,2.3,6,3.5,9
			c0.6,1.7,1.7,1.1,2.5,0.3c1.5-1.5,1.9-0.7,2.5,0.8c1.8,4.6,3.5,9.1,5.5,13.6c1,2.3-0.8,2.8-2,3.4c-1.8,1-1.6-1-1.9-1.7
			c-1.2-2.6-2.2-5.4-3.3-8c-2-5-7.1-6.8-11.8-4.1C119.8,54.1,119.4,54.3,118.9,54.6z"/>
	</g>
	<g>
		<path class="st0" d="M127.1,154.5c38.6,0,77.2,0,115.7,0c1,0,2.5-0.6,2.8,0.6c0.4,1.5,0.2,3.1,0,4.7c-0.1,0.7-1,0.5-1.5,0.5
			c-1.6,0-3.2,0-4.7,0c-75.8,0-151.6,0-227.5,0c-3.7,0-4.4-1-3.7-4.8c0.3-1.5,1.3-1,2.1-1c5.6,0,11.2,0,16.7,0
			C60.5,154.5,93.8,154.5,127.1,154.5z"/>
		<path class="st0" d="M126.8,111.4c-38.7,0-77.3,0-116,0c-1.7,0-2.9,0.1-2.6-2.3c0.2-1.7-0.5-3.4,2.6-3.4c76.7,0.1,153.3,0,230,0
			c0.7,0,1.5,0.1,2.2,0c2.4-0.4,2.9,0.6,2.9,2.8c0,2.3-0.6,2.9-2.9,2.9C204.3,111.5,165.6,111.5,126.8,111.4
			C126.8,111.5,126.8,111.5,126.8,111.4z"/>
		<path d="M57.6,127.3c-0.9,5.3-1.8,10.7-2.8,16c-0.6,3.6-1.1,3.9-4.4,3.7c-1.3-0.1-1.3-0.7-1.1-1.6c1.7-8.1,3.4-16.2,5.2-24.2
			c0.2-0.9,0.3-2.2,1.9-2.1c1.7,0.2,3.5-0.5,4.3,1.8c2.1,5.7,4.4,11.3,6.6,16.9c0.1,0.4,0.3,0.7,0.6,1.4c1.2-5.8,2.2-11.3,3.5-16.8
			c0.3-1.2-0.2-3,1.9-3.3c3.2-0.5,3.7,0,3,3.2c-1.6,7.6-3.2,15.2-4.8,22.8c-0.2,0.9-0.1,2.2-1.7,1.8c-1.4-0.4-3.3,1.1-4.2-1.4
			c-2-5.2-4.2-10.3-6.3-15.4c-0.4-1-0.8-2-1.2-3C58,127.2,57.8,127.2,57.6,127.3z"/>
		<path d="M205.4,139.2c1-4.8,2-9.5,3-14.2c0.3-1.5,0.7-2.9,0.9-4.4c0.2-1.1,0.7-1.5,1.8-1.6c2-0.2,3.1,0.2,2.7,2.6
			c-0.7,4-1.5,7.9-2.5,11.9c-0.9,3.9-1.7,7.8-2.5,11.6c-0.2,0.9-0.3,2-1.6,1.7c-1.5-0.4-3.5,1.2-4.6-1.1c-0.6-1.3-1.1-2.5-1.5-3.9
			c-1.3-5.1-3.8-9.8-6.2-14.6c-1.1,5.2-2.2,10.4-3.3,15.7c-0.2,0.9-0.4,1.8-0.6,2.7c-0.6,2.4-2.6,1.3-3.9,1.2
			c-1.3-0.2-0.4-1.5-0.2-2.2c1.4-7.6,2.8-15.1,4.3-22.6c0.2-1.1-0.1-3,1.9-2.8c1.9,0.1,4.1-0.7,5.1,2.2c1.8,5.6,4,11,6,16.6
			C204.5,138.3,204.6,138.8,205.4,139.2z"/>
		<path d="M127.5,130.4c0.3,0,0.7,0,1,0c5.3,0,5.3,0,6.3-5.1c0.2-1.1,0.4-2.1,0.6-3.2c0.6-2.8,1.7-3.5,4.5-3c1,0.2,1,0.7,0.8,1.4
			c-1.8,8.3-3.6,16.7-5.4,25c-0.6,2.8-2.9,1.2-4.3,1.3c-1.3,0-0.5-1.3-0.3-2.1c0.6-3,1.2-6,1.9-9c0.2-1,0-1.3-1-1.3
			c-3.3,0-6.7,0-10,0c-1.7,0-1.4,1.4-1.6,2.3c-0.7,3-1.4,6-2,9c-0.5,2.6-2.6,1.3-3.8,1.2c-1.5-0.1-0.4-1.4-0.3-2.1
			c1.5-7.8,3-15.6,4.5-23.3c0.4-1.9,3.1-3.1,4.7-2.2c0.8,0.5,0.3,1.2,0.2,1.8c-0.5,2.6-0.9,5.2-1.6,7.8c-0.4,1.6,0.1,1.7,1.4,1.7
			C124.5,130.3,126,130.4,127.5,130.4z"/>
		<path d="M224.1,146.9c-2.7,0-5.3-0.1-8,0c-1.6,0.1-2-0.4-1.7-2c1.7-7.7,3.4-15.3,4.9-23c0.4-2.2,1.2-3,3.5-2.9
			c4.7,0.2,9.5,0,14.2,0.1c0.7,0,2.2-0.6,2,0.8c-0.2,1.2,0.4,3.3-2.1,3.2c-3.7-0.1-7.3,0-11-0.1c-1.4,0-2,0.3-2.3,1.8
			c-1.4,6-1.4,6,4.6,5.9c1.9,0,3.8-0.1,5.7,0c0.7,0,2.1-0.7,1.9,1c-0.2,1.2,0,2.7-2.1,2.6c-3.5-0.1-7,0-10.5-0.1
			c-1.3,0-1.9,0.2-2.1,1.7c-0.3,2.2-1.8,4.9-0.9,6.4c0.8,1.4,4,0.4,6.1,0.4c2.1,0.1,4.2-0.1,6.2,0c0.7,0,2.2-0.6,2,0.8
			c-0.2,1.2,0.2,3.2-2.3,3.1C229.6,146.8,226.9,146.9,224.1,146.9C224.1,146.9,224.1,146.9,224.1,146.9z"/>
		<path d="M99.3,147.5c-6,0.3-9.7-2.7-10.3-7.6c-0.1-0.8-0.7-2.3,1.1-2.1c1.2,0.1,3.1-1,3.2,1.5c0.1,2.4,1.5,3.8,3.8,4.3
			c2.6,0.6,5.2,0.5,7.3-1.4c1.8-1.7,1-5.7-1.4-6.7c-2.4-1-4.8-1.8-7.3-2.5c-2-0.5-2.9-1.7-3.4-3.7c-0.5-2.1,0.1-4,0.2-5.9
			c0.1-1.1,0.9-2,1.7-2.6c4.2-3,11.3-3.1,15.3-0.1c1.8,1.4,2.2,3.7,2.3,5.9c0,1.2-1.1,1-1.7,0.8c-1.1-0.3-2.5,1-3.1-0.9
			c-1.3-4-4.2-5.3-8-3.7c-1.6,0.7-2.5,2-2.5,3.7c0,1.6,1,2.6,2.4,3.2c2.3,1,4.8,1.3,7,2.5c4.1,2.1,5.6,6.2,3.4,10.3
			C107.1,146.4,103.3,147.6,99.3,147.5z"/>
		<path d="M29.5,119.1c2.3,0,4.7,0,7,0c0.8,0,2.2-0.5,1.9,1c-0.2,1.2,0.2,3.1-2.1,3c-3.2-0.1-6.3,0.1-9.5-0.1
			c-2-0.1-2.9,0.5-3.2,2.7c-0.8,5.1-0.9,5.1,4.2,5.1c1.4,0,2.8-0.1,4.2,0.1c0.7,0.1,2.2-0.6,2,0.9c-0.2,1.2,0,2.9-2.3,2.8
			c-2.6-0.2-5.3,0-8-0.1c-1.5-0.1-2.3,0.4-2.5,1.9c-0.3,3.1-1.3,6.1-1.6,9.3c-0.2,2.6-2.6,1.1-4,1.2c-1.4,0.2-0.8-1-0.7-1.7
			c1.5-7.1,3.1-14.2,4.6-21.3c1-4.7,1-4.7,5.9-4.7C26.9,119.1,28.2,119.1,29.5,119.1C29.5,119.1,29.5,119.1,29.5,119.1z"/>
		<path d="M162,146.9c-2.4,0-4.8-0.1-7.2,0c-1.6,0.1-2.1-0.5-1.8-2c1.7-7.8,3.3-15.7,5-23.5c0.4-2,3.2-3.2,5-2.2
			c0.8,0.4,0.3,1,0.1,1.5c-1.4,6.9-2.8,13.8-4.4,20.7c-0.4,1.6,0.2,1.6,1.4,1.6c3.2,0,6.5-0.1,9.8,0c0.7,0,2.1-0.6,1.8,0.7
			c-0.2,1.1,0.2,3.1-1.9,3.2C167.1,147,164.6,146.9,162,146.9C162,146.9,162,146.9,162,146.9z"/>
		<path d="M177.7,146.9c-2.1,0.4-2.3-0.4-1.9-2.3c1.7-7.7,2.5-15.5,4.5-23.1c0.5-2,3-3.3,4.9-2.4c0.6,0.3,0.5,0.7,0.4,1.2
			c-1.8,8.2-3.6,16.5-5.4,24.8C179.9,146.6,179.2,147.3,177.7,146.9z"/>
		<path d="M85.2,119.1c2.4-0.6,2.4,0.5,1.9,2.4c-1.7,7.5-3.2,15-4.9,22.5c-0.2,1,0.3,2.6-1.6,2.9c-3.1,0.4-3.5,0-2.7-3
			c1.9-7.4,2.5-15.1,4.3-22.6C82.6,119.5,83.3,118.7,85.2,119.1z"/>
		<path d="M37.9,146.8c1.9-8.8,3.7-17.4,5.6-26c0.3-1.5,3.2-2.4,4.4-1.5c0.6,0.4,0.1,0.9,0,1.3c-1.3,6-2.5,12-3.8,18
			c-0.4,2-0.1,3.9-0.7,5.9c-0.5,2.1-1.4,2.9-3.5,2.5C39.3,146.8,38.7,146.8,37.9,146.8z"/>
		<path d="M244.1,119c1.2,0,1.8,0.8,1.8,1.9c0,1.1-0.6,2.1-1.7,2c-1.9,0-1.2-1.9-1.5-2.9C242.3,118.8,243.6,119.3,244.1,119z"/>
	</g>
</g>
</svg>
