<?xml version="1.0" encoding="UTF-8"?>
<svg version="1.1" xmlns="http://www.w3.org/2000/svg" width="500" height="267">
<path d="M0 0 C165 0 330 0 500 0 C500 88.11 500 176.22 500 267 C335 267 170 267 0 267 C0 178.89 0 90.78 0 0 Z " fill="#FDFDFD" transform="translate(0,0)"/>
<path d="M0 0 C52.8 0 105.6 0 160 0 C160 0.33 160 0.66 160 1 C155.98057477 1.47120714 151.95940654 1.92548181 147.9375 2.375 C146.69718018 2.51583008 145.45686035 2.65666016 144.17895508 2.80175781 C137.2784299 3.55083223 130.42054581 4.12457645 123.484375 4.3984375 C122.44012108 4.44470779 122.44012108 4.44470779 121.37477112 4.49191284 C117.98840336 4.64193005 114.61016199 4.76101451 111.22045898 4.82568359 C103.34171511 5.05120542 103.34171511 5.05120542 97.01171875 9.25390625 C95.99873898 10.4952548 94.99429915 11.74363881 94 13 C91.96226 14.84171151 89.79894843 16.50982797 87.625 18.1875 C87.03122559 18.64817871 86.43745117 19.10885742 85.82568359 19.58349609 C54.25632078 43.85443368 25.38434927 55.28491156 -14.6875 55.0625 C-16.27538921 55.05747247 -17.86327996 55.05291179 -19.45117188 55.04882812 C-23.30082025 55.03792755 -27.15039253 55.02073283 -31 55 C-30.67 54.34 -30.34 53.68 -30 53 C-28.26738348 52.55148579 -26.51078688 52.19555351 -24.75 51.875 C4.69335749 45.43225219 35.15825821 29.37969782 57.00390625 8.6875 C59 7 59 7 61 7 C61 6.34 61 5.68 61 5 C59.15728516 5.05220703 59.15728516 5.05220703 57.27734375 5.10546875 C45.64198766 5.32243723 34.19412005 4.7309679 22.625 3.5625 C21.95669159 3.49501556 21.28838318 3.42753113 20.599823 3.35800171 C13.72264658 2.65542118 6.85498414 1.8937511 0 1 C0 0.67 0 0.34 0 0 Z " fill="#030303" transform="translate(184,86)"/>
<path d="M0 0 C-3.56038219 2.04991702 -7.28609782 2.85213385 -11.25 3.75 C-36.41358836 9.8319902 -59.23476697 22.22573747 -77.890625 40.1640625 C-80 42 -80 42 -82 42 C-82 42.66 -82 43.32 -82 44 C-83.48339844 46.10058594 -83.48339844 46.10058594 -86 48 C-88.8896512 48.3491005 -91.3859271 48.4681562 -94.265625 48.390625 C-95.05902283 48.38496521 -95.85242065 48.37930542 -96.66986084 48.37347412 C-99.19719473 48.35113147 -101.72309665 48.30094176 -104.25 48.25 C-105.96612532 48.22993214 -107.68227292 48.21168187 -109.3984375 48.1953125 C-113.5995078 48.15127395 -117.79951135 48.08226326 -122 48 C-114.94520858 33.36693008 -95.64186467 23.70180702 -82 16 C-80.69482422 15.26136719 -80.69482422 15.26136719 -79.36328125 14.5078125 C-64.26070553 6.46974741 -47.05145019 3.02016781 -30.1875 1.3125 C-28.97223633 1.18512451 -27.75697266 1.05774902 -26.50488281 0.92651367 C-17.63182906 0.04523715 -8.91099037 -0.37359742 0 0 Z " fill="#050505" transform="translate(376,34)"/>
<path d="M0 0 C1.38137146 0.00424484 1.38137146 0.00424484 2.79064941 0.00857544 C5.70432052 0.01968475 8.61767331 0.04477172 11.53125 0.0703125 C13.5182247 0.08035427 15.50520426 0.08947802 17.4921875 0.09765625 C22.33866252 0.11959371 27.18490247 0.15405889 32.03125 0.1953125 C31.42134109 3.75311446 30.4528819 6.8781714 29.03125 10.1953125 C27.42854248 10.21718628 27.42854248 10.21718628 25.79345703 10.23950195 C21.78613711 10.29797325 17.77935078 10.37519791 13.77246094 10.45776367 C12.0463128 10.49078536 10.32006259 10.51888625 8.59375 10.54174805 C-4.55779645 10.72060299 -15.76973292 10.92132255 -25.96875 20.1953125 C-30.7218982 25.08049259 -33.55698171 31.15852134 -34.46875 37.8828125 C-33.84768961 41.99733759 -32.7212943 44.08059132 -29.96875 47.1953125 C-25.01450171 49.37801861 -20.38547674 49.53265191 -15.0703125 49.609375 C-14.23535248 49.62874115 -13.40039246 49.6481073 -12.54013062 49.6680603 C-9.89143874 49.72750864 -7.24270257 49.77410144 -4.59375 49.8203125 C-2.79034636 49.85852432 -0.98696034 49.89757789 0.81640625 49.9375 C5.22120984 50.03318131 9.6260988 50.11733961 14.03125 50.1953125 C13.5559912 51.84227854 13.07593109 53.48785978 12.59375 55.1328125 C12.32691406 56.04933594 12.06007813 56.96585938 11.78515625 57.91015625 C11.03125 60.1953125 11.03125 60.1953125 10.03125 61.1953125 C7.48179302 61.30893147 4.96053511 61.35950175 2.41015625 61.36328125 C1.63623032 61.36660965 0.86230438 61.36993805 0.06492615 61.37336731 C-1.58195399 61.37844456 -3.22884447 61.38077539 -4.87573242 61.38061523 C-7.3646012 61.38277634 -9.85300815 61.40085165 -12.34179688 61.41992188 C-34.97940015 61.50016522 -34.97940015 61.50016522 -40.96875 56.1953125 C-45.20563058 50.74621332 -46.68392358 45.82346076 -46.3203125 38.953125 C-44.83945551 27.33662464 -39.24511385 16.49980603 -29.96875 9.1953125 C-20.08252744 2.51358966 -11.79884021 -0.13881148 0 0 Z " fill="#030303" transform="translate(415.96875,167.8046875)"/>
<path d="M0 0 C17.49 0 34.98 0 53 0 C52 5 52 5 50 10 C36.14 10.33 22.28 10.66 8 11 C3.38 23.54 -1.24 36.08 -6 49 C14.295 49.495 14.295 49.495 35 50 C32 60 32 60 31 61 C29.37325222 61.09340434 27.74245949 61.11745171 26.11303711 61.11352539 C25.07203354 61.11344986 24.03102997 61.11337433 22.95848083 61.11329651 C21.8262056 61.10813522 20.69393036 61.10297394 19.52734375 61.09765625 C18.37456436 61.0962413 17.22178497 61.09482635 16.03407288 61.09336853 C12.33518936 61.08775005 8.63636536 61.07519442 4.9375 61.0625 C2.43684983 61.05748738 -0.06380129 61.05292406 -2.56445312 61.04882812 C-8.70965588 61.03777462 -14.85482369 61.02101852 -21 61 C-20.3954952 56.73061015 -19.38945383 52.90437485 -17.92578125 48.8515625 C-17.50828613 47.68874756 -17.09079102 46.52593262 -16.66064453 45.32788086 C-15.99331299 43.49495483 -15.99331299 43.49495483 -15.3125 41.625 C-14.85496978 40.35762458 -14.39777737 39.09012716 -13.94091797 37.82250977 C-11.13628933 30.05637915 -8.2872905 22.30738638 -5.3515625 14.58984375 C-3.52634346 9.74193537 -1.77026998 4.86824244 0 0 Z " fill="#020202" transform="translate(236,168)"/>
<path d="M0 0 C19.14 0 38.28 0 58 0 C57 6 57 6 54 12 C38.82 12.33 23.64 12.66 8 13 C6.56785156 16.88652344 5.13570312 20.77304688 3.66015625 24.77734375 C2.51923147 27.86876735 1.37775133 30.95998461 0.23589325 34.05106354 C-0.97072956 37.31793554 -2.17636235 40.58516523 -3.37963867 43.85327148 C-4.75916023 47.59992293 -6.14312381 51.34492546 -7.52734375 55.08984375 C-7.95965805 56.26586655 -8.39197235 57.44188934 -8.83738708 58.65354919 C-9.23772659 59.73459427 -9.6380661 60.81563934 -10.05053711 61.92944336 C-10.40361435 62.88652695 -10.75669159 63.84361053 -11.12046814 64.82969666 C-12 67 -12 67 -13 68 C-15.01964199 68.07244053 -17.04167124 68.08377188 -19.0625 68.0625 C-20.16722656 68.05347656 -21.27195312 68.04445313 -22.41015625 68.03515625 C-23.26480469 68.02355469 -24.11945312 68.01195312 -25 68 C-22.36482958 59.98029804 -19.5704986 52.01848309 -16.75 44.0625 C-16.50700165 43.37668854 -16.2640033 42.69087708 -16.01364136 41.98428345 C-12.20296543 31.24399507 -8.24571735 20.57648164 -4 10 C-2.68 6.7 -1.36 3.4 0 0 Z " fill="#050505" transform="translate(32,161)"/>
<path d="M0 0 C19.47 0 38.94 0 59 0 C58.01 3.3 57.02 6.6 56 10 C48.08 10.33 40.16 10.66 32 11 C30.79601562 14.27421875 29.59203125 17.5484375 28.3515625 20.921875 C27.18382242 24.09265249 26.01528971 27.2631368 24.84667969 30.43359375 C24.03497723 32.6370642 23.22409908 34.84083848 22.4140625 37.04492188 C21.24956398 40.21304286 20.08210499 43.38005919 18.9140625 46.546875 C18.55253082 47.53242371 18.19099915 48.51797241 17.81851196 49.53338623 C17.47831024 50.4540387 17.13810852 51.37469116 16.78759766 52.32324219 C16.34125473 53.53569611 16.34125473 53.53569611 15.88589478 54.77264404 C15.04036308 56.89851736 14.02315797 58.95368405 13 61 C9.37 61 5.74 61 2 61 C4.11006138 53.66502472 6.58479274 46.56341122 9.3125 39.4375 C13.01631934 29.66978492 16.5647608 19.86530233 20 10 C12.41 10 4.82 10 -3 10 C-2.01 6.7 -1.02 3.4 0 0 Z " fill="#030303" transform="translate(295,168)"/>
<path d="M0 0 C19.47 0 38.94 0 59 0 C57 9 57 9 56 10 C54.22130274 10.15764405 52.43681524 10.25100677 50.65234375 10.31640625 C49.03295898 10.37924805 49.03295898 10.37924805 47.38085938 10.44335938 C46.24455078 10.48267578 45.10824219 10.52199219 43.9375 10.5625 C42.22723633 10.62727539 42.22723633 10.62727539 40.48242188 10.69335938 C37.65507805 10.79982839 34.82764262 10.90184207 32 11 C29.59428883 17.47676877 27.19187291 23.95475278 24.79174805 30.43359375 C23.97479937 32.63765151 23.1570957 34.84142958 22.33862305 37.04492188 C21.16256465 40.21150726 19.98922166 43.3790873 18.81640625 46.546875 C18.44971329 47.53242371 18.08302032 48.51797241 17.70521545 49.53338623 C17.3649382 50.4540387 17.02466095 51.37469116 16.67407227 52.32324219 C16.22439842 53.53569611 16.22439842 53.53569611 15.76564026 54.77264404 C15.06425651 56.81306871 14.52329679 58.90681285 14 61 C10.37 61 6.74 61 3 61 C3.57336855 55.00789482 5.34797989 49.95020188 7.5625 44.375 C8.28411317 42.52223627 9.005459 40.6693684 9.7265625 38.81640625 C10.09942383 37.86523926 10.47228516 36.91407227 10.85644531 35.93408203 C12.75096024 31.07321942 14.59076731 26.19166856 16.4375 21.3125 C17.10168593 19.55814707 17.7669545 17.80420341 18.43359375 16.05078125 C18.71259521 15.31512939 18.99159668 14.57947754 19.27905273 13.8215332 C20 12 20 12 21 10 C13.08 10 5.16 10 -3 10 C-2.01 6.7 -1.02 3.4 0 0 Z " fill="#020202" transform="translate(116,168)"/>
<path d="M0 0 C3.63 0 7.26 0 11 0 C5.22552397 16.75189293 -0.8779347 33.37216831 -7 50 C6.53 50 20.06 50 34 50 C31 60 31 60 30 61 C28.37325222 61.09340434 26.74245949 61.11745171 25.11303711 61.11352539 C24.07203354 61.11344986 23.03102997 61.11337433 21.95848083 61.11329651 C20.8262056 61.10813522 19.69393036 61.10297394 18.52734375 61.09765625 C17.37456436 61.0962413 16.22178497 61.09482635 15.03407288 61.09336853 C11.33518936 61.08775005 7.63636536 61.07519442 3.9375 61.0625 C1.43684983 61.05748738 -1.06380129 61.05292406 -3.56445312 61.04882812 C-9.70965588 61.03777462 -15.85482369 61.02101852 -22 61 C-20.617328 55.0474078 -18.81540301 49.40114538 -16.69921875 43.671875 C-16.38096634 42.80161682 -16.06271393 41.93135864 -15.7348175 41.034729 C-15.06353649 39.20195754 -14.39025994 37.36991585 -13.71508789 35.53857422 C-12.69621763 32.77365712 -11.6845275 30.00619413 -10.67382812 27.23828125 C-7.31282825 18.06544274 -3.85534122 8.97839619 0 0 Z " fill="#030303" transform="translate(178,168)"/>
<path d="M0 0 C3.63 0 7.26 0 11 0 C8.8351775 7.51481041 6.30293023 14.81459895 3.55078125 22.1328125 C3.13330124 23.25066132 2.71582123 24.36851013 2.28569031 25.52023315 C0.96430607 29.05629085 -0.36152123 32.59066298 -1.6875 36.125 C-2.58948795 38.53634792 -3.49118358 40.9478052 -4.39257812 43.359375 C-6.59167425 49.24085325 -8.79475402 55.12082501 -11 61 C-14.63 61 -18.26 61 -22 61 C-19.99326579 54.11960302 -17.77380026 47.37441088 -15.3125 40.64453125 C-14.96872314 39.69865646 -14.62494629 38.75278168 -14.27075195 37.77824402 C-13.5493696 35.79543536 -12.82661512 33.8131254 -12.10253906 31.83129883 C-10.99959075 28.81137945 -9.90182635 25.78961228 -8.8046875 22.76757812 C-8.09926455 20.83061762 -7.39354555 18.8937649 -6.6875 16.95703125 C-6.36241455 16.0620845 -6.0373291 15.16713776 -5.70239258 14.24507141 C-3.93907245 9.4274902 -2.07078909 4.69392135 0 0 Z " fill="#050505" transform="translate(361,168)"/>
<path d="M0 0 C3.63 0 7.26 0 11 0 C6.47344348 13.6478406 1.77831205 27.21363069 -3.49926758 40.59106445 C-6.15677116 47.34053249 -8.61063009 54.15120697 -11 61 C-14.63 61 -18.26 61 -22 61 C-20.10835945 53.75792692 -17.95301527 46.76593528 -15.3125 39.765625 C-14.96872314 38.84336121 -14.62494629 37.92109741 -14.27075195 36.97088623 C-13.55027895 35.04077912 -12.82751835 33.11152447 -12.10253906 31.18310547 C-10.99813976 28.24505117 -9.90082174 25.30442786 -8.8046875 22.36328125 C-8.09936729 20.47640958 -7.39365181 18.58968561 -6.6875 16.703125 C-6.36241455 15.83318909 -6.0373291 14.96325317 -5.70239258 14.06695557 C-3.9165874 9.32168698 -2.03713725 4.6431059 0 0 Z " fill="#050505" transform="translate(97,168)"/>
<path d="M0 0 C12.87 0 25.74 0 39 0 C36 10 36 10 35 11 C32.1883662 11.08861992 29.40141745 11.11522355 26.58984375 11.09765625 C25.74780899 11.0962413 24.90577423 11.09482635 24.03822327 11.09336853 C21.33794665 11.08775263 18.63775172 11.07519748 15.9375 11.0625 C14.11132932 11.05748705 12.28515734 11.05292379 10.45898438 11.04882812 C5.97262458 11.03777804 1.48632616 11.02050279 -3 11 C-2.69078116 9.54096742 -2.37751201 8.08279278 -2.0625 6.625 C-1.88847656 5.81289062 -1.71445312 5.00078125 -1.53515625 4.1640625 C-1 2 -1 2 0 0 Z " fill="#010101" transform="translate(38,189)"/>
<path d="M0 0 C1.43352212 0.00015908 2.86704998 0.00585132 4.30053711 0.01586914 C5.43041298 0.01799156 5.43041298 0.01799156 6.58311462 0.02015686 C8.99807646 0.02577163 11.41294687 0.03832656 13.82788086 0.05102539 C15.46134307 0.05603849 17.09480672 0.06060173 18.72827148 0.06469727 C22.74067671 0.07574585 26.75301326 0.09302033 30.76538086 0.11352539 C30.19270714 4.21768703 29.33849546 7.18073889 27.76538086 11.11352539 C16.21538086 11.11352539 4.66538086 11.11352539 -7.23461914 11.11352539 C-3.94206794 0.13835471 -3.94206794 0.13835471 0 0 Z " fill="#040404" transform="translate(246.234619140625,191.886474609375)"/>
<path d="M0 0 C7.65809552 -0.02314591 15.31618742 -0.0409266 22.97430992 -0.05181217 C26.53008635 -0.05703606 30.08583889 -0.06412478 33.64160156 -0.07543945 C37.72721591 -0.08835914 41.81280506 -0.09323229 45.8984375 -0.09765625 C47.81878311 -0.10539818 47.81878311 -0.10539818 49.77792358 -0.11329651 C50.95899689 -0.11337204 52.14007019 -0.11344757 53.35693359 -0.11352539 C54.92246475 -0.11685631 54.92246475 -0.11685631 56.5196228 -0.12025452 C59 0 59 0 61 1 C57.92482916 11.55808656 57.92482916 11.55808656 56 16 C55.505 14.02 55.505 14.02 55 12 C47.08 12 39.16 12 31 12 C31 11.67 31 11.34 31 11 C38.92 10.67 46.84 10.34 55 10 C55.99 7.03 56.98 4.06 58 1 C38.86 1 19.72 1 0 1 C0 0.67 0 0.34 0 0 Z " fill="#B8B8B8" transform="translate(117,167)"/>
<path d="M0 0 C-0.99 3.63 -1.98 7.26 -3 11 C9.87 10.67 22.74 10.34 36 10 C36 10.66 36 11.32 36 12 C22 12 8 12 -6 12 C-6.99 14.31 -7.98 16.62 -9 19 C-9.66 19 -10.32 19 -11 19 C-7.36542835 6.42077331 -7.36542835 6.42077331 -5 1 C-2 0 -2 0 0 0 Z " fill="#C3C3C3" transform="translate(38,189)"/>
<path d="M0 0 C13.86 0 27.72 0 42 0 C41.67 0.66 41.34 1.32 41 2 C20.21 2.495 20.21 2.495 -1 3 C-0.67 2.01 -0.34 1.02 0 0 Z " fill="#BEBEBE" transform="translate(244,178)"/>
<path d="M0 0 C0.33 0.99 0.66 1.98 1 3 C1.66 3 2.32 3 3 3 C2.36738317 6.69026484 1.42909641 9.42725897 0 13 C11.55 13 23.1 13 35 13 C35 13.33 35 13.66 35 14 C22.33333333 14 9.66666667 14 -3 14 C-3.99 14.495 -3.99 14.495 -5 15 C-1.92482916 4.44191344 -1.92482916 4.44191344 0 0 Z " fill="#C7C7C7" transform="translate(239,190)"/>
<path d="M0 0 C1.00023193 0.00523682 2.00046387 0.01047363 3.03100586 0.01586914 C4.1105957 0.0190918 5.19018555 0.02231445 6.30249023 0.02563477 C8.00695312 0.03820312 8.00695312 0.03820312 9.74584961 0.05102539 C11.45611328 0.05779297 11.45611328 0.05779297 13.20092773 0.06469727 C16.02845312 0.07652792 18.85587601 0.09301129 21.68334961 0.11352539 C19.68334961 2.11352539 19.68334961 2.11352539 17.77563477 2.35302734 C17.01557129 2.35262451 16.25550781 2.35222168 15.47241211 2.35180664 C14.63967773 2.36791992 13.80694336 2.3840332 12.94897461 2.40063477 C11.19644372 2.41748602 9.44376181 2.42279932 7.69116211 2.41625977 C2.38944048 2.48249152 2.38944048 2.48249152 -1.85571289 5.46899414 C-3.4122734 8.09715634 -3.4122734 8.09715634 -4.31665039 11.11352539 C-4.97665039 11.11352539 -5.63665039 11.11352539 -6.31665039 11.11352539 C-5.84139159 9.46655935 -5.36133148 7.82097811 -4.87915039 6.17602539 C-4.61231445 5.25950195 -4.34547852 4.34297852 -4.07055664 3.39868164 C-2.99774727 0.14690194 -2.99774727 0.14690194 0 0 Z " fill="#C7C7C7" transform="translate(329.316650390625,177.886474609375)"/>
<path d="M0 0 C1 4 1 4 -2 13 C10.87 13 23.74 13 37 13 C37 13.33 37 13.66 37 14 C23.47 14 9.94 14 -4 14 C-3.11579794 8.69478762 -1.94472434 4.90408748 0 0 Z " fill="#C0C0C0" transform="translate(175,204)"/>
<path d="M0 0 C7.59 0 15.18 0 23 0 C21 9 21 9 19 12 C19 10.02 19 8.04 19 6 C19.66 6 20.32 6 21 6 C21 4.68 21 3.36 21 2 C14.4 2 7.8 2 1 2 C0.67 1.34 0.34 0.68 0 0 Z " fill="#C4C4C4" transform="translate(292,178)"/>
<path d="M0 0 C0.66 0 1.32 0 2 0 C-1.07517084 10.55808656 -1.07517084 10.55808656 -3 15 C-3.33 13.68 -3.66 12.36 -4 11 C-11.92 11 -19.84 11 -28 11 C-28 10.67 -28 10.34 -28 10 C-20.08 9.67 -12.16 9.34 -4 9 C-3.01 6.36 -2.02 3.72 -1 1 C-0.67 0.67 -0.34 0.34 0 0 Z " fill="#ABABAB" transform="translate(176,168)"/>
<path d="M0 0 C1.27683885 3.83051656 0.47068609 5.21245686 -0.87109375 8.98046875 C-1.28037109 10.14384766 -1.68964844 11.30722656 -2.11132812 12.50585938 C-2.54896484 13.72080078 -2.98660156 14.93574219 -3.4375 16.1875 C-4.0881543 18.02731445 -4.0881543 18.02731445 -4.75195312 19.90429688 C-5.82655904 22.93917292 -6.90953616 25.97079324 -8 29 C-8.33 29 -8.66 29 -9 29 C-9.81414097 21.83555946 -6.87306467 16.43794378 -4 10 C-3.21944698 8.08727103 -2.44769091 6.17091252 -1.6875 4.25 C-1.36136719 3.43015625 -1.03523437 2.6103125 -0.69921875 1.765625 C-0.46847656 1.18296875 -0.23773438 0.6003125 0 0 Z " fill="#DDDDDD" transform="translate(223,200)"/>
<path d="M0 0 C0.33 0 0.66 0 1 0 C1 2.64 1 5.28 1 8 C0.34 7.01 -0.32 6.02 -1 5 C-1.99 5.66 -2.98 6.32 -4 7 C-4.33 6.34 -4.66 5.68 -5 5 C-5.33 5.99 -5.66 6.98 -6 8 C-6.66 8 -7.32 8 -8 8 C-8 5.69 -8 3.38 -8 1 C-5 1 -5 1 -3.3125 2.5 C-2.879375 2.995 -2.44625 3.49 -2 4 C-1.34 2.68 -0.68 1.36 0 0 Z " fill="#1F1F1F" transform="translate(473,168)"/>
<path d="M0 0 C7.59 0 15.18 0 23 0 C23 0.33 23 0.66 23 1 C22.13048706 1.00616333 22.13048706 1.00616333 21.2434082 1.01245117 C18.59875891 1.04549277 15.95638161 1.11614264 13.3125 1.1875 C12.40048828 1.19330078 11.48847656 1.19910156 10.54882812 1.20507812 C4.61766523 1.34851722 4.61766523 1.34851722 -0.14453125 4.55078125 C-0.75683594 5.35902344 -1.36914062 6.16726562 -2 7 C-1.34 4.69 -0.68 2.38 0 0 Z " fill="#F5F5F5" transform="translate(147,179)"/>
<path d="M0 0 C0.66 0.33 1.32 0.66 2 1 C1.28972656 1.69867188 0.57945312 2.39734375 -0.15234375 3.1171875 C-1.07144531 4.02726563 -1.99054688 4.93734375 -2.9375 5.875 C-4.31228516 7.23238281 -4.31228516 7.23238281 -5.71484375 8.6171875 C-8.01187627 10.77682255 -8.01187627 10.77682255 -9 13 C-9.66 13 -10.32 13 -11 13 C-9.63422544 8.71506993 -7.79318655 6.56854295 -4.375 3.6875 C-3.55773437 2.99011719 -2.74046875 2.29273438 -1.8984375 1.57421875 C-0.95871094 0.79498047 -0.95871094 0.79498047 0 0 Z " fill="#E5E5E5" transform="translate(396,182)"/>
<path d="M0 0 C2.64 0 5.28 0 8 0 C8 0.66 8 1.32 8 2 C7.01 2 6.02 2 5 2 C5 3.98 5 5.96 5 8 C4.34 8 3.68 8 3 8 C3 6.02 3 4.04 3 2 C2.01 2 1.02 2 0 2 C0 1.34 0 0.68 0 0 Z " fill="#4A4A4A" transform="translate(456,168)"/>
<path d="M0 0 C1.3274855 3.98245651 -0.00092171 6.44789543 -1.4375 10.1875 C-1.80198242 11.16879883 -1.80198242 11.16879883 -2.17382812 12.16992188 C-2.7743293 13.78303286 -3.38609203 15.3919435 -4 17 C-5.83030476 10.89462627 -2.45043236 5.56916446 0 0 Z " fill="#DDDDDD" transform="translate(344,210)"/>
<path d="M0 0 C0.33 0.66 0.66 1.32 1 2 C0.67 2.66 0.34 3.32 0 4 C-0.99 4 -1.98 4 -3 4 C-3.66 5.32 -4.32 6.64 -5 8 C-6.32 7.67 -7.64 7.34 -9 7 C-6.03 4.69 -3.06 2.38 0 0 Z " fill="#D5D5D5" transform="translate(265,108)"/>
<path d="M0 0 C0.99 0 1.98 0 3 0 C3.625 1.8125 3.625 1.8125 4 4 C3.01 5.485 3.01 5.485 2 7 C1.34 7 0.68 7 0 7 C0 4.69 0 2.38 0 0 Z " fill="#282828" transform="translate(465,169)"/>
<path d="M0 0 C1.65 0 3.3 0 5 0 C3.02 2.31 1.04 4.62 -1 7 C-1.33 6.34 -1.66 5.68 -2 5 C-1.0625 2.375 -1.0625 2.375 0 0 Z " fill="#CCCCCC" transform="translate(147,179)"/>
</svg>
