<?xml version="1.0" encoding="utf-8"?>
<!-- Generator: Adobe Illustrator 27.5.0, SVG Export Plug-In . SVG Version: 6.00 Build 0)  -->
<svg version="1.1" id="Capa_1" xmlns="http://www.w3.org/2000/svg" xmlns:xlink="http://www.w3.org/1999/xlink" x="0px" y="0px"
	 viewBox="0 0 1378.1 396.4" style="enable-background:new 0 0 1378.1 396.4;" xml:space="preserve">
<g>
	<path d="M1213.5,245.7c9.5-12.8,19.1-25.5,28.6-38.3c11.3-15.3,22.1-30.9,34-45.7c2.6-3.3,8.4-5.4,12.8-5.6
		c13.4-0.7,27-0.4,40.4-0.2c9.8,0.2,11.9,2.5,12,12c0.1,6.4-0.1,12.9-0.1,19.3s-3.2,11-9.5,9.7c-20.5-4.2-30.9,8.2-40.8,22.8
		c-8,11.8-17,23.1-25.5,34.5c-3.4,4.6-3.6,8.4,0.8,13.1c18.3,19,36.4,38.1,54.2,57.6c5.1,5.5,10.7,7.5,17.9,7.2
		c7.8-0.3,15.6-0.1,24.2-0.1c0,13.3,0.3,24.4-0.3,35.5c-0.1,1.7-3.6,4.7-5.5,4.8c-18.4,0.4-36.9,0.9-55.3,0c-4.2-0.2-8.7-5.3-12.3-9
		c-23.1-24-45.9-48.3-68.9-72.4c-2.2-2.3-4.8-4.1-9.1-7.8c-0.9,5.3-1.9,8.7-1.9,12.1c-0.2,22.3-0.4,44.6,0.1,66.8
		c0.2,8.5-3,11.3-11.3,11.1c-21.4-0.4-42.8-0.3-64.2-0.1c-8.6,0.1-12.4-3-11.6-12c0.6-6.7,0.3-13.5,0.1-20.2c-0.2-6,2.7-8.6,8.4-8.7
		c5.9-0.1,11.7-0.2,17.6-0.2c5.4,0,8.1-2.6,8.2-8c0-2.6,0.2-5.3,0.2-7.9c0-75.3,0-150.7,0-226c0-14.2-0.9-15.1-14.8-15.4
		c-19.9-0.5-19.9-0.5-19.9-20.4c0.1-26.5-1.8-23,23-23.2c17-0.2,34-0.1,51,0c12.1,0,13.1,0.8,13.1,12.9c0.1,44.6,0.1,89.1,0.1,133.7
		c0,19.1-0.1,38.1,0.1,57.2c0,3.3,0.8,6.6,1.2,9.9C1211.4,245.1,1212.4,245.4,1213.5,245.7z"/>
	<path d="M582.9,330.2c5.1,0.9,7.8,1.8,10.6,1.9c22.3,0.1,44.6-0.1,66.8,0.2c8.1,0.1,11.9-2.7,11.4-11.3c-0.5-7,0-14.1,0-21.1
		c0-5.5,2.6-8,8.1-8c9.4,0.1,18.8-0.1,28.1,0.1c6.3,0.1,9.4,3.2,9.3,9.9c-0.2,20.5-0.2,41,0,61.6c0.1,6.4-2.9,9.1-8.8,9.5
		c-2,0.1-4.1,0.1-6.2,0.1c-59.8,0-119.6,0-179.4,0c-12.6,0-12.4-0.9-13.7-13.5c-1.7-17.2,4.4-29.6,16.7-41.7
		c37.3-36.8,73.3-74.9,109.8-112.5c1.2-1.2,2.1-2.6,4.2-5.2c-3.9-1.1-6.7-2.6-9.5-2.7c-22.3-0.2-44.5-0.1-66.8-0.2
		c-7.4,0-11.5,2.7-11,11c0.4,6.4-0.1,12.9-0.1,19.3c0,6.7-2.6,10.4-10,10c-7.6-0.4-15.2-0.3-22.9,0c-6.5,0.2-10-2.7-10.1-9.2
		c-0.1-21.1-0.1-42.2-0.1-63.3c0-7.3,4.6-9.3,11.1-9.3c18.8,0.1,37.5,0.2,56.3,0.2c41.6,0.1,83.2,0.2,124.9,0.4
		c14.2,0.1,14.6,1.4,15.6,15.7c0.9,12.8-3.4,22.2-12.3,31.1c-37,37.5-73.5,75.4-110.2,113.3C591.4,320.3,588.1,324.3,582.9,330.2z"
		/>
	<path d="M23,372.8c0-13.5,0-26,0-40.3c10.1,0,20-0.3,29.8,0.1c8.1,0.3,11.6-2.3,11.5-11c-0.4-37.5-0.1-75-0.2-112.5
		c0-10.4-1.3-11.6-11.7-11.8c-7.6-0.1-15.2-0.2-22.9,0c-5.3,0.2-7.3-2-7.1-7.2c0.3-9.1,0.2-18.2-0.1-27.2c-0.2-5.5,2.4-7.2,7.4-7.1
		c7.6,0.2,15.2-0.2,22.9,0.1c8,0.3,11.3-3.7,11.4-11.1c0.2-11.7-0.9-23.6,0.8-35.1c2.1-14.3,5.5-28.6,9.9-42.3
		C79.7,52,92.6,43,107,38.9c15.6-4.5,32.2-5.4,48.4-7.6c7.4-1,10.8,3.3,10.9,10.4c0.1,7.9,0.2,15.8,0,23.7
		c-0.2,7.3-3.9,10.9-11.6,11.5c-6.3,0.5-12.9,1.5-18.6,3.9c-11.5,4.8-16,15.2-16.7,26.9c-0.8,12.8-0.7,25.8-0.7,38.6
		c0,6.6,3.6,10.2,10.5,10.3c7.3,0,14.7,0,22,0.1c7,0.1,10.8,3.2,10.4,10.9c-0.4,7-0.3,14.1-0.1,21.1c0.1,6.4-3.2,9.1-9.1,9.3
		c-7.6,0.2-15.2,0.2-22.9,0.2c-7.4-0.1-11.2,2.7-11.1,10.9c0.3,37.8,0.2,75.6,0,113.4c0,7.2,2.9,10.2,9.8,10.2
		c7.6,0,15.2,0,22.9,0.1c6.7,0.1,10.3,2.9,9.9,10.3c-0.4,6.7-0.4,13.5,0,20.2c0.4,7.1-3,10.3-9.7,10.6c-2,0.1-4.1,0.1-6.2,0.1
		c-35.7,0-71.5,0-107.2,0C33.1,373.7,28.3,373.1,23,372.8z"/>
	<path d="M305.4,243.6c0,24.6,0,49.2,0,73.8c0,14,0.7,14.6,15.1,14.7c5.3,0,10.6,0.1,15.8,0c6.1-0.1,9.4,2.3,9.3,8.8
		c-0.1,7.9-0.1,15.8,0,23.7c0.1,6-2.9,8.5-8.6,8.5c-38.4,0-76.8,0-115.2,0c-7.7,0-11.2-3.3-10.6-11.3c0.5-6.4,0.4-12.9,0-19.3
		c-0.5-7.4,3.2-10.1,9.9-10.2c7.3-0.1,14.7-0.2,22-0.1c6.9,0.1,10.2-2.9,10.2-10c-0.1-38.4,0-76.8,0.1-115.2c0-6.7-3.3-9.6-9.7-9.7
		c-7.6-0.1-15.2-0.1-22.9-0.2c-6-0.1-9.2-3.2-9.3-9.3c-0.1-7.3,0-14.7-0.2-22c-0.2-7.4,3.7-11.2,10.6-11.2
		c24.9-0.2,49.8-0.2,74.7-0.1c7.6,0,8.7,5.6,8.7,11.6C305.4,192.1,305.4,217.8,305.4,243.6z"/>
	<path d="M862.7,243.9c0,25.2-0.1,50.4,0,75.6c0,11.2,1.6,12.6,12.8,12.7c6.1,0.1,12.3,0,18.4,0.1c5.7,0,8.6,2.7,8.5,8.6
		c-0.1,7.9-0.1,15.8,0,23.7c0.1,6-3.1,8.5-8.7,8.5c-38.4,0-76.7,0-115.1,0c-6.1,0-9-3.1-8.9-9.4c0.2-7.3,0.2-14.6,0-22
		c-0.2-6.8,3.4-9.5,9.7-9.5c7.6,0,15.2-0.1,22.8-0.2c6.3-0.1,9.6-2.9,9.5-9.7c-0.1-38.7-0.1-77.3,0.1-116c0-6.2-3.3-8.5-8.6-8.7
		c-7.6-0.3-15.2-0.4-22.8-0.3c-7,0.1-10.4-3.3-10.6-10c-0.2-7.6-0.3-15.2,0-22.8c0.2-6.2,3.8-9.8,10.1-9.9c24.3-0.1,48.6-0.2,72.9,0
		c8.4,0.1,9.7,6.1,9.7,12.8C862.6,192.9,862.6,218.4,862.7,243.9C862.6,243.9,862.6,243.9,862.7,243.9z"/>
	<path d="M425.5,140.8c3.8-32.2,6.3-64.6,12-96.5c3.9-22.3,30.6-32.8,52.7-26.2c10,3,16.4,16.1,12.7,25.7
		c-6.4,16.6-13.3,33-20.6,49.2c-7.7,17.3-15.6,34.5-24.5,51.2c-3.2,5.9-8.9,12-14.9,14.5C432.1,163.3,425.6,155.6,425.5,140.8z"/>
	<path d="M1013.5,379.2c-19.4-2.1-36.8-16.1-37.6-37.8c-0.7-17.6,13.7-37.7,37-37.2c21.7,0.4,35.7,14.6,36.6,36.1
		C1050.5,362.5,1028.7,378.3,1013.5,379.2z"/>
	<path d="M799.5,53.7c-1.8-19.7,19-37.6,36.3-37c20.4,0.7,37.5,17,37.5,37.2c0,19.7-17.1,36.2-36.9,37
		C818.7,91.7,797.6,74,799.5,53.7z"/>
	<path d="M278.8,16.9c21.1-0.6,36.3,17.6,37,36.9c0.7,19.7-17.2,36.9-37,36.9C258.6,90.8,242.1,74.8,242,55
		C242,32.7,257.3,16.8,278.8,16.9z"/>
	<path d="M1012.4,225.4c-21.5,1.1-36.5-18.9-36.8-36.9c-0.3-19.5,17.8-37,37.3-37c17.4,0,36.7,14.5,36.5,37.1
		C1049.2,210.3,1034.2,225.5,1012.4,225.4z"/>
</g>
</svg>
