<?xml version="1.0" encoding="UTF-8"?>
<svg xmlns="http://www.w3.org/2000/svg" version="1.1" viewBox="0 0 742.5 255">
  <defs>
    <style>
      .cls-1 {
        fill: #231f20;
      }

      .cls-2 {
        fill: #ed1c24;
      }

      .cls-3 {
        fill: #fff100;
      }
    </style>
  </defs>
  <!-- Generator: Adobe Illustrator 28.6.0, SVG Export Plug-In . SVG Version: 1.2.0 Build 709)  -->
  <g>
    <g id="Layer_2">
      <path class="cls-1" d="M721.5,101.7c-5.2-7.7-12.9-15.2-22.8-22.3-18.5-13.2-44.7-25-77.9-35-32.7-9.9-70.7-17.6-112.9-23-43.6-5.6-89.9-8.4-137.5-8.4s-94,2.8-137.5,8.4c-42.2,5.4-80.2,13.1-112.9,23-33.2,10-59.4,21.8-77.9,35-9.9,7.1-17.5,14.6-22.8,22.3-5.8,8.6-8.8,17.6-8.8,26.7s2.9,18.1,8.8,26.7c5.2,7.7,12.9,15.2,22.8,22.3,18.5,13.2,44.7,25,77.9,35,32.7,9.9,70.7,17.6,112.9,23,43.6,5.6,89.9,8.4,137.5,8.4s94-2.8,137.5-8.4c42.2-5.4,80.2-13.1,112.9-23,33.2-10,59.4-21.8,77.9-35,9.9-7.1,17.5-14.6,22.8-22.3,5.8-8.6,8.8-17.6,8.8-26.7s-2.9-18.1-8.8-26.7Z"/>
      <path class="cls-3" d="M720.7,128.4c0-58.4-156.6-105.8-349.9-105.8-193.3,0-349.9,47.4-349.9,105.8s156.6,105.8,349.9,105.8c193.3,0,349.9-47.4,349.9-105.8Z"/>
      <ellipse class="cls-2" cx="371.7" cy="128.4" rx="302.1" ry="95"/>
      <g>
        <g>
          <path class="cls-1" d="M718.5,68.8h-176l-2.1,2.7-15.2,19.9,14.7-35.5,4-9.6h-60.7l-1.7,1.1-55.9,35.5,8.7-27.6,2.8-9h-65.8l-1.7,1.2-102.6,68,23.8-36,7.1-10.7H94.8l-2.1,2.8L21.1,168.4l-8.2,11h114.1l2.1-2.9,18.7-26.8h27.5l-19.8,17.7-13.5,12.1h105l1.7-1.1,42.6-27.6-4,20.5-1.6,8.2h84.8l1.7-1.2,33.8-22.5-3.6,15.1-2,8.5h167.1l2.1-2.9,19-26.8h83.2l2.1-3,11.7-17,7.1-10.3h7.5l2-3.4,22-36.8,6.3-10.5h-12.2ZM261.1,119.4l-16.1,10.7.5-.8,6-9.9h9.7Z"/>
          <polygon class="cls-3" points="498.4 138.1 533.6 53.3 485.2 53.3 413.3 99 427.7 53.3 373.3 53.3 227.4 150.1 185.3 150.1 160.1 172.5 245 172.5 301.2 136 294.2 172.5 368.5 172.5 416.8 140.3 409.3 172.5 564.1 172.5 585.2 142.8 668.4 142.8 680.1 125.8 596.5 125.8 606.5 112.5 696.4 112.5 718.5 75.8 545.9 75.8 498.4 138.1"/>
        </g>
        <polygon class="cls-3" points="239.6 125.8 154.4 125.8 164.4 112.5 260.6 112.5 285 75.8 98.2 75.8 26.6 172.5 123.4 172.5 144.2 142.8 229.3 142.8 239.6 125.8"/>
      </g>
      <g>
        <path class="cls-1" d="M275.2,197.6c0-.4,0-.9,0-1.3,0-.2-.2-.5-.4-.7-.2-.2-.6-.4-1.2-.5-.5,0-1-.1-1.5,0-.6,0-1.1,0-1.6.2-.6.2-.9.5-.8.8,0,.2.3.5.7.7.5.3,1.2.6,1.8.8,2.1.7,4.3,1.4,6.6,2.1,1.7.5,3,1.1,4.1,1.8,1.2.9,1.8,1.9,1.7,3,0,.8-.3,1.6-.9,2.4-1.1,1.3-3.3,2.1-6.7,2.5-3.4.3-6.7.3-10.1,0-2.5-.3-4.4-.9-5.7-1.8-1-.8-1.5-1.6-1.5-2.5,0-.9,0-1.8,0-2.6h10.1v1.1c0,.5,0,1,0,1.5,0,.3.2.5.4.8.2.2.4.3.8.4.3,0,.7.1,1.1.1.8,0,1.4,0,1.9-.3.4-.2.6-.4.6-.6.2-.9-.4-1.7-2-2.4-1.2-.5-2.6-1-4-1.5-1.9-.6-3.8-1.3-5.5-2-2.9-1.3-4-2.7-3.2-4.4.5-1.1,2-2,4.5-2.6,2.2-.5,4.5-.7,7-.7,2.2,0,4.3,0,6.4.3,1.9.2,3.5.7,4.6,1.3.8.6,1.3,1.2,1.5,1.9.2.8.3,1.6.2,2.4h-9Z"/>
        <path class="cls-1" d="M289.1,197.6c0-.8.2-1.6.5-2.4.3-.7,1-1.3,2-1.9,1.4-.7,3.1-1.1,5.2-1.3,3-.3,5.9-.3,8.9,0,1.9.1,3.6.5,5,1,1.2.5,2.1,1.1,2.5,1.8.6,1,.9,1.9.8,2.9v6.2c0,.8-.2,1.6-.5,2.4-.3.7-1,1.3-2,1.9-1.3.7-3.1,1.1-5.2,1.3-3,.3-5.9.3-8.9,0-1.9-.1-3.6-.4-5-1-1.2-.5-2.1-1.1-2.5-1.8-.6-1-.9-1.9-.8-2.9v-6.2ZM299.2,197.1v7.7c0,.2,0,.4,0,.7,0,.2.1.3.3.4.1.1.4.3.7.3.3,0,.6,0,1,0,.5,0,1,0,1.4,0,.4,0,.8-.2,1-.3.1-.1.2-.3.3-.4,0-.3.1-.6.1-.9v-8c0-.2,0-.5,0-.7,0-.2-.1-.3-.3-.5-.2-.2-.5-.3-1.1-.4-.4,0-.7,0-1.1,0-.4,0-.8,0-1.1,0-.5,0-.8.2-1,.4-.1.1-.2.3-.2.4,0,.4,0,.8,0,1.2Z"/>
        <path class="cls-1" d="M319.3,205.4h9.5v3.9h-9.5v-3.9Z"/>
        <path class="cls-1" d="M347.9,197.6c0-.2,0-.4,0-.6,0-.9.4-1.9,1.2-2.8.7-.8,2.1-1.5,4.1-1.9,1.7-.3,3.5-.5,5.4-.5,2.4,0,4.8,0,7.2.2,2.3.3,4,.8,5.2,1.6.8.6,1.4,1.3,1.6,2,.3,1.1.4,2.1.3,3.2h-10.1v-1.4c0-.5,0-1,0-1.5,0-.2-.1-.3-.3-.5-.2-.2-.5-.3-1-.4-.4,0-.7,0-1.1,0-.4,0-.8,0-1.1,0-.4,0-.7.1-.9.3-.1.1-.2.2-.3.4,0,.3-.1.5,0,.8v8.2h0c0,.4,0,.6.1.9,0,.1.2.2.3.4.2.1.6.2,1,.3.7,0,1.3,0,2,0,.3,0,.6,0,.8-.2.2,0,.4-.2.5-.3.1-.2.2-.4.2-.6,0-1.2,0-2.4,0-3.5h10.1v1.9c0,1-.2,1.9-.7,2.9-.4.7-1.1,1.3-2.1,1.8-1.3.6-3,1-4.9,1.1-3,.3-5.9.3-8.9,0-1.9-.1-3.6-.4-5-1-1.2-.5-2.1-1.1-2.5-1.8-.6-1-.9-1.9-.8-2.9v-6.2Z"/>
        <path class="cls-1" d="M405.9,192h9.8v14.1h10.2v3.3h-20.1v-17.4Z"/>
        <path class="cls-1" d="M395.2,192h-11.1l-8.7,17.4h9.2l1.6-3.5h6.8l1.7,3.5h9.4l-8.9-17.4ZM387.2,202.9l2.5-7.4,2.4,7.4h-4.9Z"/>
        <path class="cls-1" d="M430.4,192h9.8v17.4h-9.8v-17.4Z"/>
        <path class="cls-1" d="M445.4,209.3v-17.4h19.7v3.3h-9.9v3h9.5v3.3h-9.5v7.8h-9.8Z"/>
        <path class="cls-1" d="M473,205.4h9.5v3.9h-9.5v-3.9Z"/>
      </g>
      <path d="M613.9,164.8c-1.2-.3-2.4-.4-3.6-.4h-12.9l-5.1,8.1h5.9l2.1-3.5h3l2.4,3.5h6.8l-3-3.8c8.4-1.8,6.8-3.3,4.3-3.9ZM609.9,166.7c-.2,1-3.7,1-3.7,1h-4.8l1.1-2.2h5.7s1.9,0,1.7,1.2Z"/>
      <path d="M607.7,162.3c8.5,0,15,2,15.2,4.8.2,3.3-8,6.6-18.4,7.3-1.4,0-2.7.1-4,.1-8.5,0-15-2-15.2-4.8-.2-3.3,8-6.6,18.4-7.3,1.4,0,2.7-.1,4-.1M607.7,161.1c-1.3,0-2.7,0-4.1.1-5.1.4-10,1.3-13.5,2.8-5.1,2-8.5,4.3-8.4,5.8.3,4.4,11.4,5.9,18.8,5.9s2.7,0,4.1-.1c5.1-.4,10-1.3,13.5-2.8,5.1-2,8.3-4.3,8.2-5.8-.3-4.4-11.3-5.9-18.7-5.9h0Z"/>
    </g>
  </g>
</svg>