<?xml version="1.0" encoding="UTF-8"?>
<svg version="1.1" xmlns="http://www.w3.org/2000/svg" width="600" height="600">
<path d="M0 0 C198 0 396 0 600 0 C600 198 600 396 600 600 C402 600 204 600 0 600 C0 402 0 204 0 0 Z " fill="#FEFEFE" transform="translate(0,0)"/>
<path d="M0 0 C7.20650811 4.86541084 11.87483924 10.49935696 14 19 C14 23.29 14 27.58 14 32 C4.1 32 -5.8 32 -16 32 C-16.99 27.545 -16.99 27.545 -18 23 C-18.66532686 19.85401499 -18.66532686 19.85401499 -21.1953125 18.8359375 C-27.0472208 17.09177542 -34.26704702 16.69611227 -39.875 19.4375 C-46.98152806 24.38267525 -51.26933894 33.76477572 -53 42 C-53.32829556 45.12726182 -53.45258131 48.23177304 -53.5 51.375 C-53.51853027 52.14835693 -53.53706055 52.92171387 -53.55615234 53.71850586 C-53.51355773 57.55410879 -53.26052959 59.57378274 -51.21875 62.9140625 C-46.82466129 67.04512477 -43.40678669 67.39759128 -37.52734375 67.2421875 C-31.94463242 66.70721362 -28.3473116 64.67207158 -24.6875 60.5625 C-22.64852184 58.06545003 -21.4825488 55.96509759 -20 53 C-10.1 53 -0.2 53 10 53 C7.73182761 64.34086196 1.50898014 72.84909169 -7.6875 79.6875 C-22.5663445 89.60672967 -40.26338701 92.64440521 -57.75390625 89.27734375 C-68.63304972 85.84548112 -77.1518615 79.94183544 -83 70 C-89.19859043 57.82419737 -86.00346771 43.82293547 -82.19140625 31.35546875 C-77.51678082 18.16263698 -67.53483173 7.42966874 -55.1953125 1.0234375 C-51.86244973 -0.53031703 -48.48543598 -1.83369357 -45 -3 C-43.75089844 -3.52207031 -43.75089844 -3.52207031 -42.4765625 -4.0546875 C-29.20021421 -7.66466086 -12.22157484 -6.42097968 0 0 Z " fill="#020202" transform="translate(363,234)"/>
<path d="M0 0 C24.75 0 49.5 0 75 0 C74 12 74 12 72 21 C57.48 21 42.96 21 28 21 C27.34 24.96 26.68 28.92 26 33 C25.67 34.65 25.34 36.3 25 38 C36.22 38 47.44 38 59 38 C58 48 58 48 56 59 C44.45 59 32.9 59 21 59 C19.39913605 67.66044854 19.39913605 67.66044854 17.79907227 76.32104492 C17.59854248 77.40490479 17.3980127 78.48876465 17.19140625 79.60546875 C16.98717041 80.71043701 16.78293457 81.81540527 16.57250977 82.95385742 C16.06773152 85.63962211 15.53594392 88.3202804 15 91 C4.44 91 -6.12 91 -17 91 C-15.87514368 82.00114947 -15.87514368 82.00114947 -15.15551758 78.20922852 C-14.99457108 77.35425278 -14.83362457 76.49927704 -14.6678009 75.61839294 C-14.49512192 74.71436234 -14.32244293 73.81033173 -14.14453125 72.87890625 C-13.96222458 71.91296036 -13.77991791 70.94701447 -13.59208679 69.95179749 C-13.00102828 66.82162331 -12.40677632 63.6920647 -11.8125 60.5625 C-10.99461435 56.23855991 -10.178597 51.9142691 -9.36328125 47.58984375 C-9.16094879 46.51742432 -8.95861633 45.44500488 -8.75015259 44.34008789 C-7.51007867 37.75329706 -6.2929738 31.16287382 -5.10546875 24.56640625 C-4.96534866 23.78864334 -4.82522858 23.01088043 -4.68086243 22.20954895 C-4.03750633 18.63213734 -3.39872411 15.05396423 -2.76489258 11.47485352 C-2.54341553 10.23791748 -2.32193848 9.00098145 -2.09375 7.7265625 C-1.90490234 6.66002441 -1.71605469 5.59348633 -1.52148438 4.49462891 C-1 2 -1 2 0 0 Z " fill="#020202" transform="translate(45,231)"/>
<path d="M0 0 C0.83789062 -0.01998047 1.67578125 -0.03996094 2.5390625 -0.06054688 C11.51150246 -0.05360226 18.77764485 3.26298663 25.26953125 9.41796875 C31.28593954 16.43937526 31.68537073 24.71843023 31.3203125 33.59765625 C30.25874207 46.32355547 24.1280455 56.68481338 15 65.4375 C4.30206026 74.21472405 -8.7158387 75.55009878 -22 74.4375 C-29.55022966 72.89187125 -35.86553209 68.40174659 -40.67578125 62.48046875 C-46.30634476 53.79378818 -45.80978385 43.74301867 -43.875 34 C-41.03977626 22.79097592 -35.44999167 13.51462955 -25.8046875 6.94140625 C-17.51690321 2.07558168 -9.5867022 -0.08111825 0 0 Z " fill="#020202" transform="translate(154,246.5625)"/>
<path d="M0 0 C3.59391261 3.41335719 6.28680012 7.07010085 7 12.0625 C7 14.7025 7 17.3425 7 20.0625 C-0.26 20.0625 -7.52 20.0625 -15 20.0625 C-15.66 17.7525 -16.32 15.4425 -17 13.0625 C-22.68712092 11.4798849 -27.86621833 11.09625924 -33.3125 13.5625 C-40.35443336 20.11313569 -41.95745211 29.58200729 -42.3125 38.875 C-42.21170909 42.67817719 -41.52162059 45.09059002 -39 48.0625 C-35.55861412 50.64353941 -32.17744273 50.48024427 -28 50.0625 C-22.60472619 48.14099865 -22.60472619 48.14099865 -19 44.0625 C-21.97 43.7325 -24.94 43.4025 -28 43.0625 C-27.46481341 37.2646453 -26.63560371 32.78711297 -25 27.0625 C-14.44 27.0625 -3.88 27.0625 7 27.0625 C4.89968311 40.46107329 2.79366158 53.79260747 0 67.0625 C-4.95 67.0625 -9.9 67.0625 -15 67.0625 C-15.33 65.0825 -15.66 63.1025 -16 61.0625 C-16.76183594 61.56910156 -16.76183594 61.56910156 -17.5390625 62.0859375 C-18.22742188 62.53195312 -18.91578125 62.97796875 -19.625 63.4375 C-20.29789063 63.87835938 -20.97078125 64.31921875 -21.6640625 64.7734375 C-29.16422547 68.91232342 -37.64686907 69.22805315 -46 68.0625 C-53.22922026 65.86791528 -58.6215618 62.43113738 -62.9140625 56.1875 C-67.850659 46.5273975 -67.27415353 34.31825563 -64.375 24.0625 C-62.39263746 18.43877648 -59.66012417 13.74745894 -56 9.0625 C-55.07960937 7.81339844 -55.07960937 7.81339844 -54.140625 6.5390625 C-41.4438117 -8.15031639 -15.45045167 -12.56160671 0 0 Z " fill="#040404" transform="translate(257,252.9375)"/>
<path d="M0 0 C8.58 0 17.16 0 26 0 C30.5 11.25 30.5 11.25 32.25 16.625 C32.58515625 17.64851563 32.9203125 18.67203125 33.265625 19.7265625 C33.50796875 20.47679687 33.7503125 21.22703125 34 22 C36.95985617 19.54021086 38.51758699 17.10696762 40.1015625 13.671875 C42.69227395 8.4260538 45.17681582 3.5013786 50 0 C58.41580887 -2.26487774 67.45910058 -1.11081062 76 0 C73.75756846 3.80248789 71.34158376 7.26627464 68.625 10.75 C67.73532868 11.89556284 66.84602516 13.04141139 65.95703125 14.1875 C65.48217285 14.79851562 65.00731445 15.40953125 64.51806641 16.0390625 C62.90383673 18.12421733 61.30012845 20.21710261 59.69921875 22.3125 C59.14081299 23.04283447 58.58240723 23.77316895 58.00708008 24.52563477 C56.87635397 26.00986551 55.74988749 27.49735094 54.62768555 28.98803711 C52.42585917 31.90178406 50.26487413 34.71897501 47.7578125 37.37890625 C39.70295419 45.93503257 39.58944332 59.87389676 38 71 C30.41 71 22.82 71 15 71 C15 60.98611111 15 60.98611111 16 56.4375 C17.83486696 48.06591949 17.11307151 42.07413727 13.7890625 34.3359375 C13.46086517 33.54023346 13.13266785 32.74452942 12.79452515 31.92471313 C11.75112549 29.4024496 10.68879418 26.88872055 9.625 24.375 C8.57260614 21.85253441 7.52415738 19.32846469 6.47689819 16.80386353 C5.82635477 15.23955457 5.17211191 13.67677719 4.51358032 12.11581421 C4.06334 11.04407455 4.06334 11.04407455 3.60400391 9.95068359 C3.34197174 9.33083588 3.07993958 8.71098816 2.80996704 8.07235718 C1.77279985 5.41869256 0.90098012 2.70294035 0 0 Z " fill="#030303" transform="translate(492,248)"/>
<path d="M0 0 C21.45 0 42.9 0 65 0 C63.22222222 17.77777778 63.22222222 17.77777778 62 19 C60.43827255 19.08685603 58.87270656 19.10702219 57.30859375 19.09765625 C56.36435547 19.09443359 55.42011719 19.09121094 54.44726562 19.08789062 C53.45404297 19.07951172 52.46082031 19.07113281 51.4375 19.0625 C50.44041016 19.05798828 49.44332031 19.05347656 48.41601562 19.04882812 C45.94395151 19.03700007 43.47200482 19.02051849 41 19 C40.86787109 20.12631836 40.73574219 21.25263672 40.59960938 22.41308594 C40.01275498 27.09943463 39.22642972 31.74024023 38.40625 36.390625 C38.25466431 37.25766052 38.10307861 38.12469604 37.94689941 39.01800537 C37.62846074 40.83671233 37.30907071 42.65525295 36.98876953 44.47363281 C36.49904696 47.25541359 36.01298199 50.0378161 35.52734375 52.8203125 C35.21636218 54.59378795 34.90517159 56.36722676 34.59375 58.140625 C34.44893188 58.96983459 34.30411377 59.79904419 34.15490723 60.65338135 C33.94964417 61.81544098 33.94964417 61.81544098 33.74023438 63.00097656 C33.62111694 63.67856018 33.50199951 64.3561438 33.37927246 65.05426025 C32.99001652 67.05121716 32.49344867 69.02620531 32 71 C24.41 71 16.82 71 9 71 C9.58029384 61.15112404 11.18633765 51.64614216 13.01123047 41.96923828 C13.50534578 39.34662624 13.98963784 36.72233249 14.47265625 34.09765625 C14.78328857 32.42697807 15.09446602 30.75640114 15.40625 29.0859375 C15.55106812 28.30270111 15.69588623 27.51946472 15.84509277 26.7124939 C16.88393179 21.23213641 16.88393179 21.23213641 18 19 C11.07 19 4.14 19 -3 19 C-2.690625 16.421875 -2.38125 13.84375 -2.0625 11.1875 C-1.96718994 10.37949951 -1.87187988 9.57149902 -1.77368164 8.73901367 C-1.39999197 5.69021083 -0.97382819 2.92148456 0 0 Z " fill="#040404" transform="translate(423,248)"/>
<path d="M0 0 C7.59 0 15.18 0 23 0 C21.87497909 10.12518815 21.87497909 10.12518815 21.09204102 14.52880859 C20.91838516 15.51368256 20.74472931 16.49855652 20.56581116 17.51327515 C20.38038254 18.54787872 20.19495392 19.5824823 20.00390625 20.6484375 C19.81030014 21.74161285 19.61669403 22.83478821 19.41722107 23.96109009 C18.80167035 27.43287729 18.1821256 30.903938 17.5625 34.375 C17.1501321 36.69787079 16.73802038 39.02078707 16.32617188 41.34375 C14.57092449 51.23298788 12.79669884 61.11815638 11 71 C3.41 71 -4.18 71 -12 71 C-11.44298798 62.48137628 -10.52068063 54.21696131 -9.00390625 45.8203125 C-8.81030014 44.72331024 -8.61669403 43.62630798 -8.41722107 42.49606323 C-8.01088816 40.201594 -7.60152237 37.90765991 -7.18920898 35.61425781 C-6.56051523 32.1139496 -5.94263017 28.6118566 -5.32617188 25.109375 C-4.92771575 22.86707503 -4.52864869 20.62488351 -4.12890625 18.3828125 C-3.94550186 17.34416046 -3.76209747 16.30550842 -3.57313538 15.23538208 C-3.30792336 13.76752762 -3.30792336 13.76752762 -3.03735352 12.27001953 C-2.88492691 11.41876495 -2.73250031 10.56751038 -2.57545471 9.69046021 C-1.8763939 6.4220965 -0.91819706 3.2136897 0 0 Z " fill="#030303" transform="translate(391,248)"/>
<path d="M0 0 C10.23 0 20.46 0 31 0 C31 10.23 31 20.46 31 31 C20.77 31 10.54 31 0 31 C0 20.77 0 10.54 0 0 Z " fill="#0A0A0A" transform="translate(478,341)"/>
<path d="M0 0 C10.23 0 20.46 0 31 0 C31 10.23 31 20.46 31 31 C20.77 31 10.54 31 0 31 C0 20.77 0 10.54 0 0 Z " fill="#0D0D0D" transform="translate(220,341)"/>
<path d="M0 0 C10.23 0 20.46 0 31 0 C31 10.23 31 20.46 31 31 C20.77 31 10.54 31 0 31 C0 20.77 0 10.54 0 0 Z " fill="#0B0B0B" transform="translate(26,341)"/>
<path d="M0 0 C10.23 0 20.46 0 31 0 C31 9.9 31 19.8 31 30 C20.77 30 10.54 30 0 30 C0 20.1 0 10.2 0 0 Z " fill="#090909" transform="translate(349,341)"/>
<path d="M0 0 C3.61246201 2.15210503 5.41893956 4.15530677 7 8 C8.0580351 17.14889178 6.08862174 26.29296124 1 34 C-2.66073578 37.88172508 -6.00178636 39.81498022 -11.375 40.3125 C-15.65664327 39.94339282 -17.07571696 39.09138492 -20 36 C-23.74401114 28.32870445 -22.73465426 19.16070045 -20.05078125 11.26171875 C-15.97645907 2.49208105 -9.58902996 -1.40410796 0 0 Z " fill="#FAFAFA" transform="translate(155,264)"/>
<path d="M0 0 C9.9 0 19.8 0 30 0 C30 9.9 30 19.8 30 30 C20.1 30 10.2 30 0 30 C0 20.1 0 10.2 0 0 Z " fill="#010101" transform="translate(543,341)"/>
<path d="M0 0 C9.9 0 19.8 0 30 0 C30 9.9 30 19.8 30 30 C20.1 30 10.2 30 0 30 C0 20.1 0 10.2 0 0 Z " fill="#020202" transform="translate(414,341)"/>
<path d="M0 0 C9.9 0 19.8 0 30 0 C30 9.9 30 19.8 30 30 C20.1 30 10.2 30 0 30 C0 20.1 0 10.2 0 0 Z " fill="#090909" transform="translate(285,341)"/>
<path d="M0 0 C9.9 0 19.8 0 30 0 C30 9.9 30 19.8 30 30 C20.1 30 10.2 30 0 30 C0 20.1 0 10.2 0 0 Z " fill="#020202" transform="translate(156,341)"/>
<path d="M0 0 C9.9 0 19.8 0 30 0 C30 9.9 30 19.8 30 30 C20.1 30 10.2 30 0 30 C0 20.1 0 10.2 0 0 Z " fill="#020202" transform="translate(91,341)"/>
<path d="M0 0 C9.03614458 -0.48192771 9.03614458 -0.48192771 13.125 1.5625 C15 4 15 4 15.625 7.5 C15 11 15 11 13.1875 13.4375 C8.37975734 15.7942366 4.32028699 15.25639937 -1 15 C-0.67 10.05 -0.34 5.1 0 0 Z " fill="#DCDCDC" transform="translate(553,348)"/>
<path d="M0 0 C2.5 1.625 2.5 1.625 4 4 C3.9375 7.625 3.9375 7.625 3 11 C-0.09780948 13.06520632 -0.9540481 13.29477024 -4.5 13.3125 C-5.66015625 13.33763672 -5.66015625 13.33763672 -6.84375 13.36328125 C-9.53573177 12.90974084 -10.39306885 12.17940037 -12 10 C-12.5 6.5625 -12.5 6.5625 -12 3 C-8.32083264 -1.4595968 -5.40244747 -1.57162108 0 0 Z " fill="#E8E8E8" transform="translate(111,349)"/>
<path d="M0 0 C4.95 0 9.9 0 15 0 C15 1.32 15 2.64 15 4 C11.7 4 8.4 4 5 4 C5 4.66 5 5.32 5 6 C6.98 6 8.96 6 11 6 C11 6.99 11 7.98 11 9 C9.02 9 7.04 9 5 9 C5 9.66 5 10.32 5 11 C7.97 11 10.94 11 14 11 C14 11.99 14 12.98 14 14 C9.71 14 5.42 14 1 14 C0.67 9.38 0.34 4.76 0 0 Z " fill="#E0E0E0" transform="translate(423,348)"/>
<path d="M0 0 C0 1.32 0 2.64 0 4 C-2.97 4 -5.94 4 -9 4 C-8.67 5.65 -8.34 7.3 -8 9 C-5.69 9.33 -3.38 9.66 -1 10 C-1 9.34 -1 8.68 -1 8 C-2.32 8 -3.64 8 -5 8 C-5 7.34 -5 6.68 -5 6 C-2.36 6 0.28 6 3 6 C3 7.98 3 9.96 3 12 C-1.33970808 13.44656936 -5.4652386 13.51868186 -10 13 C-12.6875 11.4375 -12.6875 11.4375 -14 9 C-14.0625 5.4375 -14.0625 5.4375 -13 2 C-8.89735014 -1.97832713 -5.20736142 -0.97086399 0 0 Z " fill="#E5E5E5" transform="translate(177,349)"/>
<path d="M0 0 C1.65322266 0.01740234 1.65322266 0.01740234 3.33984375 0.03515625 C4.99693359 0.04869141 4.99693359 0.04869141 6.6875 0.0625 C7.54214844 0.07410156 8.39679688 0.08570313 9.27734375 0.09765625 C8.61734375 1.41765625 7.95734375 2.73765625 7.27734375 4.09765625 C6.94734375 3.76765625 6.61734375 3.43765625 6.27734375 3.09765625 C3.94916411 2.73004894 1.61550525 2.39524044 -0.72265625 2.09765625 C-0.72265625 2.75765625 -0.72265625 3.41765625 -0.72265625 4.09765625 C2.57734375 4.75765625 5.87734375 5.41765625 9.27734375 6.09765625 C9.27734375 7.74765625 9.27734375 9.39765625 9.27734375 11.09765625 C7.27734375 13.09765625 7.27734375 13.09765625 4.67578125 13.29296875 C3.67804688 13.26976562 2.6803125 13.2465625 1.65234375 13.22265625 C0.14800781 13.19558594 0.14800781 13.19558594 -1.38671875 13.16796875 C-2.15757812 13.14476562 -2.9284375 13.1215625 -3.72265625 13.09765625 C-4.05265625 12.10765625 -4.38265625 11.11765625 -4.72265625 10.09765625 C-4.06265625 9.43765625 -3.40265625 8.77765625 -2.72265625 8.09765625 C-2.39265625 8.42765625 -2.06265625 8.75765625 -1.72265625 9.09765625 C0.60552339 9.46526356 2.93918225 9.80007206 5.27734375 10.09765625 C5.27734375 9.43765625 5.27734375 8.77765625 5.27734375 8.09765625 C3.35921875 7.91203125 3.35921875 7.91203125 1.40234375 7.72265625 C-2.47265625 7.34765625 -2.47265625 7.34765625 -4.72265625 5.09765625 C-4.15802421 1.37108481 -3.93926089 0.14129343 0 0 Z " fill="#E9E9E9" transform="translate(233.72265625,348.90234375)"/>
<path d="M0 0 C4.62 0 9.24 0 14 0 C14 1.32 14 2.64 14 4 C10.7 4 7.4 4 4 4 C4 4.66 4 5.32 4 6 C6.31 6 8.62 6 11 6 C10.67 7.32 10.34 8.64 10 10 C7.03 9.505 7.03 9.505 4 9 C4 10.65 4 12.3 4 14 C2.68 14 1.36 14 0 14 C0 9.38 0 4.76 0 0 Z " fill="#DEDEDE" transform="translate(36,348)"/>
<path d="M0 0 C0.99 0 1.98 0 3 0 C3 1.32 3 2.64 3 4 C5.64 4 8.28 4 11 4 C11 2.68 11 1.36 11 0 C11.99 0 12.98 0 14 0 C14 4.29 14 8.58 14 13 C13.01 13 12.02 13 11 13 C11 11.35 11 9.7 11 8 C8.36 8 5.72 8 3 8 C3 9.65 3 11.3 3 13 C2.01 13 1.02 13 0 13 C0 8.71 0 4.42 0 0 Z " fill="#F3F3F3" transform="translate(294,349)"/>
<path d="M0 0 C1.65 0 3.3 0 5 0 C4.67 3.63 4.34 7.26 4 11 C7.3 11 10.6 11 14 11 C14 12.32 14 13.64 14 15 C9.38 15 4.76 15 0 15 C0 10.05 0 5.1 0 0 Z " fill="#D4D4D4" transform="translate(489,348)"/>
<path d="M0 0 C2.64 0 5.28 0 8 0 C8 0.66 8 1.32 8 2 C9.32 2.33 10.64 2.66 12 3 C9.36 3 6.72 3 4 3 C4 3.66 4 4.32 4 5 C5.32 5 6.64 5 8 5 C8 5.66 8 6.32 8 7 C4.625 7.125 4.625 7.125 1 7 C0.34 6.34 -0.32 5.68 -1 5 C-0.625 2.375 -0.625 2.375 0 0 Z " fill="#262626" transform="translate(168,352)"/>
<path d="M0 0 C2.5625 0.1875 2.5625 0.1875 4.5625 2.1875 C4.02678571 5.72321429 4.02678571 5.72321429 2.5625 7.1875 C0.0625 7.3125 0.0625 7.3125 -2.4375 7.1875 C-3.4375 6.1875 -3.4375 6.1875 -3.5625 3.6875 C-3.39599509 0.35740177 -3.31519894 0.2550153 0 0 Z " fill="#070707" transform="translate(106.4375,351.8125)"/>
<path d="M0 0 C1.99954746 -0.04254356 4.00041636 -0.04080783 6 0 C7 1 7 1 7.125 3.5 C7 6 7 6 6 7 C4.00041636 7.04080783 1.99954746 7.04254356 0 7 C0 4.69 0 2.38 0 0 Z " fill="#070707" transform="translate(557,352)"/>
<path d="M0 0 C0.66 0 1.32 0 2 0 C2.33 1.65 2.66 3.3 3 5 C3.66 5 4.32 5 5 5 C5.33 3.35 5.66 1.7 6 0 C6.66 0 7.32 0 8 0 C8 2.64 8 5.28 8 8 C5.36 8 2.72 8 0 8 C0 5.36 0 2.72 0 0 Z " fill="#676767" transform="translate(552,293)"/>
<path d="M0 0 C0.99 0 1.98 0 3 0 C3 4.29 3 8.58 3 13 C2.01 13 1.02 13 0 13 C0 8.71 0 4.42 0 0 Z " fill="#FFFFFF" transform="translate(364,349)"/>
<path d="M0 0 C2.31 0 4.62 0 7 0 C7 0.99 7 1.98 7 3 C4.69 2.67 2.38 2.34 0 2 C0 1.34 0 0.68 0 0 Z " fill="#2E2E2E" transform="translate(233,351)"/>
</svg>
