<?xml version="1.0" encoding="utf-8"?>
<!-- Generator: Adobe Illustrator 27.5.0, SVG Export Plug-In . SVG Version: 6.00 Build 0)  -->
<svg version="1.1" id="Layer_1" xmlns="http://www.w3.org/2000/svg" xmlns:xlink="http://www.w3.org/1999/xlink" x="0px" y="0px"
	 viewBox="0 0 381.6 111" style="enable-background:new 0 0 381.6 111;" xml:space="preserve">
<g id="Layer_2">
	<g id="Layer_1-2">
		<path d="M80.1,32.8c2.4-5.5,3.6-11.4,3.5-17.3c0-5.3-1.1-10.6-3.2-15.4c0,0-13.6,1.5-25.8,15.4H36.8C24.6,1.5,11,0,11,0
			C8.9,4.9,7.8,10.1,7.8,15.4c-0.1,6,1.2,11.9,3.5,17.3C7.5,36.2-0.2,43.4,0,55.3c0.1,10.4,4,14.8,4,14.8C7,65.3,9.3,65,9.3,65
			c0,5.3,2,10.4,5.6,14.3c0.9-7.8,5-8.7,5-8.7c0.6,8.4,6.6,14.8,6.6,14.8c-0.6-8.1,3.8-11,3.8-11L42.5,111H49l12.2-36.6
			c0,0,4.4,2.9,3.8,11c0,0,6-6.4,6.6-14.8c0,0,4.1,0.8,5,8.7c3.6-3.9,5.6-9,5.6-14.3c0,0,2.2,0.2,5.2,5.1c0,0,3.9-4.4,4-14.8
			C91.6,43.4,84,36.2,80.1,32.8 M38.3,68.5c0,0.2-0.2,0.4-0.4,0.4c-0.2,0-0.4-0.2-0.4-0.4c0-3.3-0.2-6.6-0.6-9.9
			c-0.6-4.4-1.4-7.2-2.6-9.1s-2.6-1.3-3.4-0.5c-1.6,1.7-2,2-4.2,0.6s-4.1-1.7-7.3-2.5s-6.7-3-6.9-6c-0.1-1.8,0.8-3.5,2.2-4.5
			c1.5,2.3,4.1,3.8,6.9,3.8c6.5,0.4,9-0.2,12.6,0.8s4.2,2.7,4.2,6.1C38.4,50,38.3,67.8,38.3,68.5 M79.1,41.2c-0.2,2.9-3.7,5.2-6.9,6
			s-5,1-7.3,2.5s-2.6,1.1-4.2-0.6c-0.8-0.8-2.2-1.4-3.4,0.5s-2,4.7-2.6,9.1c-0.4,3.3-0.6,6.6-0.6,9.9c0,0.2-0.3,0.4-0.5,0.4
			c0,0,0,0,0,0c-0.2,0-0.3-0.2-0.3-0.3c0-0.7-0.1-18.4-0.1-21.1c0-3.3,0.5-5,4.2-6.1S63.4,41,70,40.5c2.8,0,5.4-1.5,6.9-3.8
			C78.4,37.8,79.2,39.5,79.1,41.2"/>
		<polygon points="162.4,62.5 162.4,97.3 146,97.3 146,13.7 198,13.7 198,28.6 162.4,28.6 162.4,47.5 194.5,47.5 194.5,62.5 		"/>
		<polygon points="346.5,62.5 334.9,97.3 317.8,97.3 332,56.8 332,54.2 317.8,13.7 335.3,13.7 346.7,47.6 352.8,47.6 364.1,13.7 
			381.6,13.7 367.4,54.2 367.4,56.8 381.6,97.3 364.5,97.3 352.9,62.5 		"/>
		<path d="M274.6,66.3c0,6.9-1.8,17.9-15.4,17.9s-15.4-10.9-15.4-17.9V44.7c0-6.9,1.8-17.9,15.4-17.9c13.6,0,15.4,10.9,15.4,17.9
			L274.6,66.3z M282,21.2c-5.5-5.9-13-8.9-22.7-8.9c-9.7,0-17.2,3-22.7,8.9c-5.5,5.9-8.2,14.3-8.2,25v18.5c0,11.1,2.7,19.5,8.2,25.2
			s13,8.6,22.7,8.7c9.7,0,17.2-2.9,22.7-8.7s8.2-14.2,8.2-25.2V46.2C290.2,35.5,287.5,27.2,282,21.2"/>
	</g>
</g>
</svg>
