<?xml version="1.0" encoding="UTF-8"?>
<svg version="1.1" xmlns="http://www.w3.org/2000/svg" width="310" height="310">
<path d="M0 0 C102.3 0 204.6 0 310 0 C310 102.3 310 204.6 310 310 C207.7 310 105.4 310 0 310 C0 207.7 0 105.4 0 0 Z " fill="#E10411" transform="translate(0,0)"/>
<path d="M0 0 C11.2224562 -0.06958513 22.44486085 -0.12285458 33.66748905 -0.15543652 C38.87890825 -0.17107613 44.09017957 -0.1922834 49.30151367 -0.22631836 C54.33303209 -0.2589724 59.36440848 -0.27686583 64.3960247 -0.28463173 C66.31332064 -0.29016437 68.23060902 -0.3009683 70.14784431 -0.31719017 C72.83839697 -0.33904476 75.52836665 -0.34196357 78.21899414 -0.34057617 C79.00734146 -0.351362 79.79568878 -0.36214783 80.60792542 -0.3732605 C86.56633033 -0.34012858 91.03714235 0.91846204 95.99609375 4.40234375 C99.43865577 8.06881225 100.44010935 10.88807257 100.625 15.9375 C100.08498591 25.16369813 96.54933597 29.96568406 89.90234375 36.140625 C81.08440234 41.78980416 72.3375338 42.56308782 62.08203125 42.46875 C60.09976553 42.47952231 58.11749965 42.49031685 56.13524151 42.50240326 C52.694305 42.51811957 49.25344856 42.50836135 45.8125 42.5 C41.68879113 42.49000765 37.56548169 42.48470398 33.44181824 42.5098877 C30.88530344 42.52381147 28.32861663 42.52034887 25.77217102 42.49694824 C17.89200071 42.54299188 12.15455699 43.27697541 6.08203125 48.71875 C2.00586356 54.43792682 -0.47033424 60.45262981 -3 67 C-11.25 67 -19.5 67 -28 67 C-22.7168939 51.15068171 -16.89260391 37.29960923 -1.53125 29.0703125 C-0.6959375 28.71710938 0.139375 28.36390625 1 28 C1.55864243 27.75488174 2.11728485 27.50976349 2.69285583 27.25721741 C9.96219127 24.42818582 17.17328434 24.52294196 24.87890625 24.48828125 C26.30095439 24.47140541 27.72298788 24.45325133 29.14500427 24.43388367 C32.85860615 24.38669209 36.5721486 24.35668462 40.28594971 24.33044434 C44.08723685 24.30048164 47.88831979 24.25400598 51.68945312 24.20898438 C59.12620006 24.12330302 66.56296242 24.05580305 74 24 C74 22.02 74 20.04 74 18 C47.6 17.67 21.2 17.34 -6 17 C-5.19980115 12.19880692 -4.45116558 9.35886096 -2.4375 5.125 C-1.98246094 4.15820312 -1.52742188 3.19140625 -1.05859375 2.1953125 C-0.70925781 1.47085938 -0.35992187 0.74640625 0 0 Z " fill="#FAF6F5" transform="translate(178,122)"/>
<path d="M0 0 C0.71317886 -0.00014603 1.42635773 -0.00029205 2.16114807 -0.0004425 C4.48767276 0.00024686 6.81411453 0.00799286 9.140625 0.01586914 C10.7658687 0.0177368 12.39111296 0.01915906 14.01635742 0.02015686 C18.27091049 0.02395466 22.52542882 0.03376126 26.77996826 0.04486084 C31.13065115 0.05513412 35.4813397 0.0596671 39.83203125 0.06469727 C48.35157835 0.07538626 56.87109734 0.0924294 65.390625 0.11352539 C63.52299319 5.83563135 61.53773468 11.4901429 59.390625 17.11352539 C58.16486252 17.11899384 58.16486252 17.11899384 56.91433716 17.12457275 C49.17649837 17.16259257 41.43913364 17.21960216 33.70160103 17.29742813 C29.72455428 17.33677428 25.74772467 17.36902517 21.77050781 17.38452148 C17.92524749 17.39977373 14.08058466 17.43436818 10.23559189 17.48183441 C8.77579852 17.49656065 7.3159198 17.50456133 5.8560524 17.50540924 C-7.76053321 17.52125774 -17.18358987 20.38339051 -27.27124023 29.63818359 C-33.32707829 35.94002604 -36.23077265 43.59975352 -39.484375 51.55102539 C-40.35097104 53.62830708 -41.22181641 55.70375164 -42.0942688 57.77857971 C-42.87457415 59.64039938 -43.64435946 61.50661777 -44.41357422 63.37304688 C-45.609375 66.11352539 -45.609375 66.11352539 -46.609375 67.11352539 C-48.46307111 67.20090184 -50.32005041 67.22050692 -52.17578125 67.21118164 C-53.30048828 67.20795898 -54.42519531 67.20473633 -55.58398438 67.20141602 C-56.76798828 67.19303711 -57.95199219 67.1846582 -59.171875 67.17602539 C-60.35974609 67.17151367 -61.54761719 67.16700195 -62.77148438 67.16235352 C-65.71749726 67.15052214 -68.66341181 67.13403826 -71.609375 67.11352539 C-68.52878251 58.55846334 -64.99968822 50.2284917 -61.296875 41.92602539 C-60.85947998 40.91733398 -60.42208496 39.90864258 -59.97143555 38.86938477 C-52.77734339 22.95939828 -40.68802299 10.45505242 -24.453125 3.82446289 C-16.29952118 0.96246559 -8.61608195 -0.01495848 0 0 Z " fill="#FAF7F7" transform="translate(103.609375,121.886474609375)"/>
<path d="M0 0 C1.33520529 0.00560373 2.6704168 0.00987016 4.00563049 0.01286316 C7.49919021 0.02425096 10.99236852 0.05366451 14.48577881 0.0869751 C18.05882612 0.11780793 21.63193578 0.13139655 25.20507812 0.14648438 C32.20067631 0.17854113 39.1960229 0.22966276 46.19140625 0.29296875 C45.19140625 5.29296875 45.19140625 5.29296875 40.19140625 17.29296875 C15.77140625 17.29296875 -8.64859375 17.29296875 -33.80859375 17.29296875 C-32.56971518 12.33745447 -30.29744184 9.06479156 -26.16796875 6.125 C-24.40458279 5.08841501 -22.66123002 4.1625011 -20.80859375 3.29296875 C-19.89634033 2.78427246 -18.98408691 2.27557617 -18.04418945 1.75146484 C-12.31508794 -0.67803371 -6.10811542 -0.07410276 0 0 Z " fill="#FAF3F4" transform="translate(111.80859375,146.70703125)"/>
<path d="M0 0 C1.46829797 0.00560424 2.93660161 0.00987042 4.40490723 0.01286316 C8.24531901 0.02424691 12.08538342 0.05365709 15.92565918 0.0869751 C19.85403751 0.11781664 23.78247267 0.13139841 27.7109375 0.14648438 C35.401199 0.17853408 43.09117559 0.22965055 50.78125 0.29296875 C50.78125 0.95296875 50.78125 1.61296875 50.78125 2.29296875 C46.07145449 2.43830179 41.36157847 2.5805547 36.65161133 2.72021484 C35.05653505 2.76791507 33.46148171 2.81639023 31.86645508 2.86572266 C21.50033308 3.18568485 11.15269289 3.36220787 0.78125 3.29296875 C0.78125 3.95296875 0.78125 4.61296875 0.78125 5.29296875 C5.99567276 5.34238735 11.20995934 5.37869706 16.42456055 5.40283203 C18.19867324 5.41289286 19.97276935 5.42654297 21.74682617 5.44384766 C24.29610284 5.46809253 26.84516037 5.47945093 29.39453125 5.48828125 C30.18837723 5.49860382 30.98222321 5.50892639 31.80012512 5.51956177 C35.66348043 5.52034985 37.48964446 5.48737244 40.78125 3.29296875 C43.04296875 3.09765625 43.04296875 3.09765625 45.46875 3.16796875 C46.68111328 3.19503906 46.68111328 3.19503906 47.91796875 3.22265625 C48.84029297 3.25746094 48.84029297 3.25746094 49.78125 3.29296875 C49.78125 3.95296875 49.78125 4.61296875 49.78125 5.29296875 C50.44125 5.29296875 51.10125 5.29296875 51.78125 5.29296875 C51.513125 5.91171875 51.245 6.53046875 50.96875 7.16796875 C49.60844278 10.74772459 48.68210242 14.37207379 47.7578125 18.0859375 C46.78125 20.29296875 46.78125 20.29296875 44.7421875 21.28125 C44.09507812 21.61511719 43.44796875 21.94898438 42.78125 22.29296875 C42.12898763 24.82111696 42.12898763 24.82111696 41.78125 27.29296875 C40.41608749 27.30842995 40.41608749 27.30842995 39.02334595 27.32420349 C30.45910747 27.42205817 21.89493998 27.5245553 13.33082008 27.63230801 C8.92760371 27.68754386 4.5243807 27.74096492 0.12109375 27.7902832 C-4.12590044 27.83791699 -8.37281256 27.89025943 -12.61970901 27.9459095 C-14.24244781 27.96633753 -15.86520912 27.98504987 -17.48798752 28.00204277 C-19.75558381 28.02607691 -22.02302443 28.05613268 -24.29052734 28.08764648 C-25.58292328 28.10319077 -26.87531921 28.11873505 -28.20687866 28.13475037 C-31.1413125 28.08771799 -31.1413125 28.08771799 -33.21875 29.29296875 C-33.87875 27.64296875 -34.53875 25.99296875 -35.21875 24.29296875 C-35.87875 24.29296875 -36.53875 24.29296875 -37.21875 24.29296875 C-37.21875 22.97296875 -37.21875 21.65296875 -37.21875 20.29296875 C-37.71375 22.76796875 -37.71375 22.76796875 -38.21875 25.29296875 C-38.87875 25.29296875 -39.53875 25.29296875 -40.21875 25.29296875 C-40.21875 26.28296875 -40.21875 27.27296875 -40.21875 28.29296875 C-41.21875 29.29296875 -42.21875 30.29296875 -43.21875 31.29296875 C-44.4310449 33.78198668 -44.4310449 33.78198668 -45.40625 36.48046875 C-45.75042969 37.38152344 -46.09460938 38.28257812 -46.44921875 39.2109375 C-46.70316406 39.89800781 -46.95710938 40.58507812 -47.21875 41.29296875 C-47.87875 41.29296875 -48.53875 41.29296875 -49.21875 41.29296875 C-49.321875 42.20046875 -49.425 43.10796875 -49.53125 44.04296875 C-50.25372505 47.45830533 -50.77200224 48.85894577 -53.21875 51.29296875 C-55.94604492 51.74707031 -55.94604492 51.74707031 -59.19921875 51.68359375 C-60.36259766 51.67070312 -61.52597656 51.6578125 -62.72460938 51.64453125 C-63.93955078 51.61101562 -65.15449219 51.5775 -66.40625 51.54296875 C-67.63279297 51.52492187 -68.85933594 51.506875 -70.12304688 51.48828125 C-73.15572759 51.44107999 -76.18685087 51.37524552 -79.21875 51.29296875 C-79.21875 50.96296875 -79.21875 50.63296875 -79.21875 50.29296875 C-66.84375 49.79796875 -66.84375 49.79796875 -54.21875 49.29296875 C-53.38472656 47.24335938 -52.55070312 45.19375 -51.69140625 43.08203125 C-50.85216855 41.06088564 -50.00589658 39.04282174 -49.15893555 37.02490234 C-48.58254163 35.64123627 -48.01328742 34.25457009 -47.4519043 32.86474609 C-41.72077523 18.70308015 -34.0468517 8.5703366 -20.01782227 1.73291016 C-13.59617922 -0.62958403 -6.74087778 -0.07594198 0 0 Z M-31.21875 19.29296875 C-33.4961001 22.10806868 -33.4961001 22.10806868 -33.21875 25.29296875 C-8.79875 25.29296875 15.62125 25.29296875 40.78125 25.29296875 C44.96483019 17.0359077 44.96483019 17.0359077 46.78125 8.29296875 C39.14839834 8.17643787 31.51564044 8.08793393 23.8820982 8.03390789 C20.33635935 8.00796016 16.79123494 7.97284068 13.24584961 7.91577148 C9.15733392 7.85038149 5.0694501 7.82666631 0.98046875 7.8046875 C-0.27518387 7.77888107 -1.53083649 7.75307465 -2.82453918 7.72648621 C-14.06744077 7.72294915 -23.40918866 10.9597342 -31.21875 19.29296875 Z " fill="#DB0816" transform="translate(111.21875,138.70703125)"/>
<path d="M0 0 C0.66 0 1.32 0 2 0 C2.495 1.98 2.495 1.98 3 4 C4.12673126 3.99333817 5.25346252 3.98667633 6.41433716 3.97981262 C17.03749397 3.9189732 27.66061538 3.8740137 38.28390694 3.84456348 C43.74533479 3.8289138 49.2066219 3.80768805 54.66796875 3.77368164 C59.93938453 3.74106365 65.210665 3.72314173 70.48217392 3.71536827 C72.49240117 3.70982917 74.5026211 3.69901266 76.51279068 3.68280983 C79.33046673 3.6610033 82.14758505 3.65803445 84.96533203 3.65942383 C86.20935036 3.64324509 86.20935036 3.64324509 87.47850037 3.6267395 C92.38097615 3.65286282 95.77048084 4.247513 100 7 C100.99 8.485 100.99 8.485 102 10 C101.67 10.99 101.34 11.98 101 13 C99.56770833 11.73046875 98.13541667 10.4609375 96.703125 9.19140625 C92.546922 6.28397066 87.43571553 6.82979638 82.55957031 6.79467773 C81.71042557 6.78477814 80.86128082 6.77487854 79.98640442 6.76467896 C77.18367284 6.73312753 74.38092432 6.70833165 71.578125 6.68359375 C69.63327599 6.66301874 67.6884314 6.64202212 65.74359131 6.62062073 C60.62757955 6.56545662 55.51152781 6.51602237 50.39544678 6.46777344 C45.17375129 6.41751709 39.95211378 6.3618526 34.73046875 6.30664062 C24.48702871 6.19912829 14.2435383 6.09766793 4 6 C3.81824219 6.556875 3.63648438 7.11375 3.44921875 7.6875 C3.19785156 8.450625 2.94648438 9.21375 2.6875 10 C2.44386719 10.7425 2.20023437 11.485 1.94921875 12.25 C0.703648 15.85856712 -0.659591 19.425576 -2 23 C24.4 23 50.8 23 78 23 C79 28 79 28 77.92759705 29.78944397 C75.2505297 31.4706771 73.31242298 31.37176203 70.15844727 31.36889648 C68.95611954 31.37577988 67.75379181 31.38266327 66.51502991 31.38975525 C64.5604612 31.38051781 64.5604612 31.38051781 62.56640625 31.37109375 C61.20937579 31.37779193 59.85235343 31.38637171 58.49534607 31.39674377 C52.74015767 31.43673997 46.98504063 31.43806757 41.22973633 31.43579102 C37.70528168 31.43573938 34.18131583 31.4551798 30.65699577 31.48512459 C28.68318364 31.49580018 26.70928987 31.48386852 24.73548889 31.47129822 C11.16110488 31.58198869 0.98471089 35.00582995 -8.64868164 44.65063477 C-13.44176548 49.75882368 -16.17184363 54.99354533 -18.8125 61.4375 C-19.56338825 63.23022981 -20.31962048 65.02073381 -21.08203125 66.80859375 C-21.56506714 67.98119751 -21.56506714 67.98119751 -22.05786133 69.17749023 C-23 71 -23 71 -25 72 C-23.9915005 67.63510711 -22.32371993 63.63448776 -20.625 59.5 C-20.32078125 58.74074219 -20.0165625 57.98148438 -19.703125 57.19921875 C-18.43163893 54.09657538 -17.30560574 51.40378677 -15.2734375 48.71875 C-13.60312341 46.82085484 -13.60312341 46.82085484 -14 43 C-12.35 42.34 -10.7 41.68 -9 41 C-9 39.68 -9 38.36 -9 37 C-6.03 36.34 -3.06 35.68 0 35 C0 34.01 0 33.02 0 32 C8.74302535 28.99005008 16.89680577 28.59905268 26.07421875 28.70703125 C27.49338833 28.71264111 28.91256381 28.71690462 30.33174133 28.71989441 C34.02908973 28.73123405 37.72607271 28.7606042 41.42327881 28.79400635 C45.21117208 28.82494501 48.99912561 28.83845007 52.78710938 28.85351562 C60.19157109 28.88548709 67.59573394 28.93654761 75 29 C75.33 27.68 75.66 26.36 76 25 C75.0316925 25.00444122 74.06338501 25.00888245 73.06573486 25.01345825 C63.94298612 25.05399125 54.82025563 25.08397812 45.69743729 25.10362434 C41.00723774 25.11406417 36.31711085 25.12822705 31.62695312 25.15087891 C27.10119665 25.17260012 22.57551009 25.18456713 18.04970551 25.18975449 C16.32252654 25.19345153 14.59535143 25.20067088 12.86820221 25.21146011 C10.45013643 25.22596545 8.03236006 25.22797835 5.61425781 25.22705078 C4.89928131 25.23424133 4.18430481 25.24143188 3.44766235 25.24884033 C-0.27547814 25.23337328 -2.77946093 24.85488488 -6 23 C-6.99 23 -7.98 23 -9 23 C-9.66 23 -10.32 23 -11 23 C-10.34496718 18.94180817 -9.05440879 15.46028718 -7.4375 11.6875 C-6.98246094 10.61886719 -6.52742188 9.55023438 -6.05859375 8.44921875 C-5.53458984 7.23685547 -5.53458984 7.23685547 -5 6 C-14.32817768 6.08474741 -23.65618004 6.17976088 -32.98412037 6.28752708 C-37.3164487 6.33726368 -41.64875528 6.38359381 -45.98120117 6.421875 C-50.16994189 6.45901617 -54.35848991 6.50545013 -58.54706383 6.55806351 C-60.13723016 6.57645558 -61.72743755 6.59161819 -63.31766701 6.60334396 C-74.50654427 6.68872437 -85.03604619 7.36566336 -95.6875 11.125 C-96.70199219 11.47820312 -97.71648437 11.83140625 -98.76171875 12.1953125 C-99.50035156 12.46085938 -100.23898438 12.72640625 -101 13 C-100.125 9.125 -100.125 9.125 -99 8 C-97.21594402 7.62807954 -95.42223085 7.30189705 -93.625 7 C-90.61763093 6.49215931 -87.89790837 5.96596946 -85 5 C-75.62530405 3.74941863 -66.17114209 3.86799805 -56.734375 3.90234375 C-55.20452928 3.90421379 -53.67468296 3.90563491 -52.14483643 3.90663147 C-48.15995569 3.9104106 -44.17511265 3.92020034 -40.19024658 3.93133545 C-36.10730499 3.94164978 -32.02435718 3.94615035 -27.94140625 3.95117188 C-19.96092039 3.96182776 -11.98046491 3.97884731 -4 4 C-3 10.625 -3 10.625 -3 14 C-2.01 14 -1.02 14 0 14 C0 9.38 0 4.76 0 0 Z " fill="#B00D1C" transform="translate(174,116)"/>
<path d="M0 0 C1.9216523 0.0001133 1.9216523 0.0001133 3.88212585 0.00022888 C5.28054849 0.00533552 6.67897073 0.01055152 8.07739258 0.01586914 C9.50800019 0.0177345 10.93860844 0.01915785 12.36921692 0.02015686 C16.13229133 0.02397272 19.89532708 0.03379507 23.65838623 0.04486084 C27.49922157 0.05509496 31.34006316 0.05965877 35.1809082 0.06469727 C42.71543103 0.07541817 50.24992201 0.09248343 57.78442383 0.11352539 C57.78442383 0.44352539 57.78442383 0.77352539 57.78442383 1.11352539 C57.06969406 1.11495041 56.35496429 1.11637543 55.61857605 1.11784363 C48.83757816 1.13577485 42.05709222 1.17768524 35.27642345 1.24561596 C31.79145625 1.2797082 28.3069191 1.30496783 24.82177734 1.30908203 C20.8023006 1.31423352 16.78409997 1.35952693 12.76489258 1.40649414 C10.91422432 1.40059517 10.91422432 1.40059517 9.02616882 1.39457703 C-1.52182786 1.57010774 -10.72308037 4.4337172 -18.21557617 12.11352539 C-19.20557617 14.09352539 -20.19557617 16.07352539 -21.21557617 18.11352539 C3.20442383 18.11352539 27.62442383 18.11352539 52.78442383 18.11352539 C53.77442383 15.14352539 54.76442383 12.17352539 55.78442383 9.11352539 C57.00563456 6.36478017 58.379844 3.77738369 59.78442383 1.11352539 C60.11442383 1.11352539 60.44442383 1.11352539 60.78442383 1.11352539 C60.69674135 2.69785709 60.58855053 4.28106106 60.47192383 5.86352539 C60.41391602 6.74524414 60.3559082 7.62696289 60.29614258 8.53540039 C59.71412953 11.46767985 58.82807285 12.95381729 56.78442383 15.11352539 C56.12442383 15.11352539 55.46442383 15.11352539 54.78442383 15.11352539 C54.28942383 17.58852539 54.28942383 17.58852539 53.78442383 20.11352539 C52.41926132 20.12898659 52.41926132 20.12898659 51.02651978 20.14476013 C42.4622813 20.24261481 33.89811381 20.34511194 25.33399391 20.45286465 C20.93077754 20.5081005 16.52755453 20.56152156 12.12426758 20.61083984 C7.87727339 20.65847363 3.63036127 20.71081607 -0.61653519 20.76646614 C-2.23927398 20.78689417 -3.86203529 20.80560651 -5.48481369 20.82259941 C-7.75240998 20.84663355 -10.0198506 20.87668932 -12.28735352 20.90820312 C-13.57974945 20.92374741 -14.87214539 20.93929169 -16.20370483 20.95530701 C-19.13813867 20.90827463 -19.13813867 20.90827463 -21.21557617 22.11352539 C-21.87557617 19.14352539 -22.53557617 16.17352539 -23.21557617 13.11352539 C-21.68562826 11.90909831 -20.15568034 10.70467122 -18.62573242 9.50024414 C-16.94402541 8.05669448 -16.94402541 8.05669448 -16.21557617 5.11352539 C-12.75057617 4.61852539 -12.75057617 4.61852539 -9.21557617 4.11352539 C-9.21557617 3.12352539 -9.21557617 2.13352539 -9.21557617 1.11352539 C-5.91150982 0.01216994 -3.47913924 -0.00683524 0 0 Z " fill="#BE121F" transform="translate(99.215576171875,145.886474609375)"/>
<path d="M0 0 C0.96647964 -0.00021904 0.96647964 -0.00021904 1.95248413 -0.0004425 C4.07350072 0.00025189 6.19442852 0.00802203 8.31542969 0.01586914 C9.78944857 0.017735 11.26346807 0.01915811 12.73748779 0.02015686 C16.6106946 0.02396878 20.48386371 0.03378774 24.35705566 0.04486084 C28.31192515 0.05510346 32.26680075 0.05966059 36.22167969 0.06469727 C43.97690518 0.07541121 51.73209964 0.0924717 59.48730469 0.11352539 C59.48730469 0.77352539 59.48730469 1.43352539 59.48730469 2.11352539 C24.83730469 2.60852539 24.83730469 2.60852539 -10.51269531 3.11352539 C-10.51269531 3.77352539 -10.51269531 4.43352539 -10.51269531 5.11352539 C-11.78326713 5.59338506 -13.05416379 6.07238469 -14.32519531 6.55102539 C-15.38673828 6.9512793 -15.38673828 6.9512793 -16.46972656 7.35961914 C-18.13941927 7.97577725 -19.82427235 8.55071774 -21.51269531 9.11352539 C-21.51269531 10.10352539 -21.51269531 11.09352539 -21.51269531 12.11352539 C-23.32519531 13.86352539 -23.32519531 13.86352539 -25.51269531 15.11352539 C-26.50269531 14.78352539 -27.49269531 14.45352539 -28.51269531 14.11352539 C-20.85531223 5.28009371 -11.74790965 -0.02241967 0 0 Z " fill="#BB0F1E" transform="translate(102.5126953125,138.886474609375)"/>
<path d="M0 0 C0.495 0.99 0.495 0.99 1 2 C1.66 2 2.32 2 3 2 C2.67 3.65 2.34 5.3 2 7 C-18.46 7 -38.92 7 -60 7 C-55.85709131 3.89281848 -55.29684143 3.62639788 -50.49707031 3.65942383 C-48.84581146 3.65976372 -48.84581146 3.65976372 -47.16119385 3.66011047 C-45.97878113 3.67559433 -44.79636841 3.69107819 -43.578125 3.70703125 C-42.36300232 3.71127609 -41.14787964 3.71552094 -39.89593506 3.71989441 C-36.01373161 3.73669124 -32.13204664 3.77434662 -28.25 3.8125 C-25.61849708 3.82754548 -22.98698602 3.84123412 -20.35546875 3.85351562 C-13.90346883 3.88659815 -7.45177146 3.93680821 -1 4 C-0.67 2.68 -0.34 1.36 0 0 Z " fill="#F7D0CE" transform="translate(161,132)"/>
<path d="M0 0 C1.33520529 0.00560373 2.6704168 0.00987016 4.00563049 0.01286316 C7.49919021 0.02425096 10.99236852 0.05366451 14.48577881 0.0869751 C18.05882612 0.11780793 21.63193578 0.13139655 25.20507812 0.14648438 C32.20067631 0.17854113 39.1960229 0.22966276 46.19140625 0.29296875 C45.52898836 3.84376734 44.61658854 6.96754341 43.19140625 10.29296875 C42.20140625 8.80796875 42.20140625 8.80796875 41.19140625 7.29296875 C41.85140625 7.29296875 42.51140625 7.29296875 43.19140625 7.29296875 C42.69640625 5.31296875 42.69640625 5.31296875 42.19140625 3.29296875 C35.23546496 3.24202555 28.27957226 3.2071334 21.32348633 3.18310547 C18.95986127 3.17308257 16.5962485 3.15946069 14.23266602 3.14208984 C10.82435054 3.11767806 7.41619982 3.10644821 4.0078125 3.09765625 C2.43695641 3.08217239 2.43695641 3.08217239 0.83436584 3.06637573 C-4.6289736 3.06555072 -9.57077517 3.43490712 -14.85853577 4.85012817 C-17.8829099 5.53693626 -20.72029045 5.42438591 -23.80859375 5.29296875 C-15.81108385 -0.03870452 -9.48258248 -0.11504129 0 0 Z " fill="#FACCCB" transform="translate(111.80859375,146.70703125)"/>
<path d="M0 0 C0.99 0 1.98 0 3 0 C1.81189395 3.56431814 1.05967325 3.81848033 -2.0625 5.6875 C-13.94220978 13.34331297 -20.48255526 24.10668054 -26.0625 36.8125 C-26.49224121 37.77430176 -26.92198242 38.73610352 -27.36474609 39.72705078 C-30.35119066 46.43947282 -33.26632247 53.18019396 -36 60 C-36.66 60 -37.32 60 -38 60 C-37.01 56.7 -36.02 53.4 -35 50 C-34.34 50 -33.68 50 -33 50 C-32.89558594 49.33742187 -32.79117188 48.67484375 -32.68359375 47.9921875 C-31.82385326 44.22898054 -30.46065216 40.71258468 -29.0625 37.125 C-27.1215578 32.12860864 -25.39899988 27.1769754 -24 22 C-23.34 22 -22.68 22 -22 22 C-22 21.34 -22 20.68 -22 20 C-21.34 20 -20.68 20 -20 20 C-19.773125 18.906875 -19.54625 17.81375 -19.3125 16.6875 C-18 13 -18 13 -15.375 11.0625 C-14.59125 10.711875 -13.8075 10.36125 -13 10 C-13.33 9.34 -13.66 8.68 -14 8 C-13.28972656 7.73445312 -12.57945313 7.46890625 -11.84765625 7.1953125 C-10.92855469 6.84210938 -10.00945313 6.48890625 -9.0625 6.125 C-7.68771484 5.60292969 -7.68771484 5.60292969 -6.28515625 5.0703125 C-3.85058944 4.2180914 -3.85058944 4.2180914 -3 2 C-2.01 2 -1.02 2 0 2 C0 1.34 0 0.68 0 0 Z " fill="#C11522" transform="translate(69,128)"/>
<path d="M0 0 C0 0.66 0 1.32 0 2 C-0.76183594 2.20753906 -1.52367187 2.41507813 -2.30859375 2.62890625 C-13.82699554 6.06573275 -23.47748849 12.74961354 -29.37280273 23.50439453 C-30.58441356 26.12624893 -31.71734076 28.76499912 -32.8125 31.4375 C-33.56338825 33.23022981 -34.31962048 35.02073381 -35.08203125 36.80859375 C-35.40405518 37.59032959 -35.7260791 38.37206543 -36.05786133 39.17749023 C-37 41 -37 41 -39 42 C-37.9915005 37.63510711 -36.32371993 33.63448776 -34.625 29.5 C-34.32078125 28.74074219 -34.0165625 27.98148438 -33.703125 27.19921875 C-32.43163893 24.09657538 -31.30560574 21.40378677 -29.2734375 18.71875 C-27.60312341 16.82085484 -27.60312341 16.82085484 -28 13 C-26.35 12.34 -24.7 11.68 -23 11 C-23 9.68 -23 8.36 -23 7 C-20.03 6.34 -17.06 5.68 -14 5 C-14 4.01 -14 3.02 -14 2 C-4.58997722 -1.62870159 -4.58997722 -1.62870159 0 0 Z " fill="#B5121D" transform="translate(188,146)"/>
<path d="M0 0 C0.77097015 -0.00014603 1.54194031 -0.00029205 2.33627319 -0.0004425 C4.88477389 0.0002542 7.43320152 0.00803529 9.98168945 0.01586914 C11.74860087 0.01773418 13.51551281 0.01915768 15.28242493 0.02015686 C19.93325223 0.02397527 24.58404831 0.03379981 29.23486328 0.04486084 C33.98054583 0.05508948 38.72623343 0.0596576 43.47192383 0.06469727 C52.7837865 0.07542266 62.09562601 0.092491 71.4074707 0.11352539 C71.4074707 0.44352539 71.4074707 0.77352539 71.4074707 1.11352539 C70.52987595 1.12161224 69.65228119 1.1296991 68.74809265 1.13803101 C60.43677704 1.21629799 52.12561638 1.30368286 43.81450176 1.40105247 C39.54270803 1.45078436 35.2709363 1.49711443 30.99902344 1.53540039 C26.86863585 1.57254764 22.73844346 1.61898303 18.60822487 1.6715889 C17.04038769 1.6899778 15.47250893 1.70514153 13.90460777 1.71686935 C2.78004526 1.80298117 -7.69066981 2.5011044 -18.2800293 6.23852539 C-19.29452148 6.59172852 -20.30901367 6.94493164 -21.35424805 7.30883789 C-22.09288086 7.57438477 -22.83151367 7.83993164 -23.5925293 8.11352539 C-22.7175293 4.23852539 -22.7175293 4.23852539 -21.5925293 3.11352539 C-19.80847332 2.74160493 -18.01476015 2.41542244 -16.2175293 2.11352539 C-3.59630883 -0.0177625 -3.59630883 -0.0177625 0 0 Z " fill="#A11524" transform="translate(96.592529296875,120.886474609375)"/>
<path d="M0 0 C1.6415049 3.2830098 0.51888624 6.42545033 0 10 C-0.66 10 -1.32 10 -2 10 C-2 10.99 -2 11.98 -2 13 C-3 14 -4 15 -5 16 C-6.2122949 18.48901793 -6.2122949 18.48901793 -7.1875 21.1875 C-7.53167969 22.08855469 -7.87585938 22.98960937 -8.23046875 23.91796875 C-8.61138672 24.94857422 -8.61138672 24.94857422 -9 26 C-9.66 26 -10.32 26 -11 26 C-11.103125 26.9075 -11.20625 27.815 -11.3125 28.75 C-12.03497505 32.16533658 -12.55325224 33.56597702 -15 36 C-17.72729492 36.45410156 -17.72729492 36.45410156 -20.98046875 36.390625 C-22.14384766 36.37773437 -23.30722656 36.36484375 -24.50585938 36.3515625 C-25.72080078 36.31804687 -26.93574219 36.28453125 -28.1875 36.25 C-29.41404297 36.23195312 -30.64058594 36.21390625 -31.90429688 36.1953125 C-34.93697759 36.14811124 -37.96810087 36.08227677 -41 36 C-41 35.67 -41 35.34 -41 35 C-28.625 34.505 -28.625 34.505 -16 34 C-15.09636719 31.88078125 -14.19273438 29.7615625 -13.26171875 27.578125 C-12.37930761 25.51897147 -11.49504236 23.46062366 -10.6105957 21.40234375 C-9.99862668 19.97544111 -9.38857761 18.54771342 -8.78051758 17.11914062 C-7.90433554 15.06158151 -7.02120907 13.00712392 -6.13671875 10.953125 C-5.86784348 10.31755676 -5.5989682 9.68198853 -5.32194519 9.02716064 C-3.87405403 5.68464405 -2.33512081 2.80336915 0 0 Z " fill="#AF222D" transform="translate(73,154)"/>
<path d="M0 0 C1.9216523 0.0001133 1.9216523 0.0001133 3.88212585 0.00022888 C5.28054849 0.00533552 6.67897073 0.01055152 8.07739258 0.01586914 C9.50800019 0.0177345 10.93860844 0.01915785 12.36921692 0.02015686 C16.13229133 0.02397272 19.89532708 0.03379507 23.65838623 0.04486084 C27.49922157 0.05509496 31.34006316 0.05965877 35.1809082 0.06469727 C42.71543103 0.07541817 50.24992201 0.09248343 57.78442383 0.11352539 C57.78442383 0.44352539 57.78442383 0.77352539 57.78442383 1.11352539 C57.06969406 1.11495041 56.35496429 1.11637543 55.61857605 1.11784363 C48.83757816 1.13577485 42.05709222 1.17768524 35.27642345 1.24561596 C31.79145625 1.2797082 28.3069191 1.30496783 24.82177734 1.30908203 C20.8023006 1.31423352 16.78409997 1.35952693 12.76489258 1.40649414 C11.53111374 1.40256149 10.2973349 1.39862885 9.02616882 1.39457703 C-2.77722081 1.59099892 -11.2379161 5.62785467 -20.21557617 13.11352539 C-19.7418457 12.19120117 -19.7418457 12.19120117 -19.25854492 11.25024414 C-18.16675444 9.14813774 -18.16675444 9.14813774 -17.52807617 6.92602539 C-16.21557617 5.11352539 -16.21557617 5.11352539 -12.59057617 4.36352539 C-11.47682617 4.28102539 -10.36307617 4.19852539 -9.21557617 4.11352539 C-9.21557617 3.12352539 -9.21557617 2.13352539 -9.21557617 1.11352539 C-5.91150982 0.01216994 -3.47913924 -0.00683524 0 0 Z " fill="#9B0B16" transform="translate(99.215576171875,145.886474609375)"/>
<path d="M0 0 C0.33 0.66 0.66 1.32 1 2 C1.66 2 2.32 2 3 2 C3.39145006 16.46190512 3.39145006 16.46190512 1 22 C0.01 22.33 -0.98 22.66 -2 23 C-2.185625 23.86625 -2.37125 24.7325 -2.5625 25.625 C-4.76003134 30.78442141 -9.06456977 33.49898738 -14 36 C-16.82421875 36.1953125 -16.82421875 36.1953125 -19 36 C-19.33 35.34 -19.66 34.68 -20 34 C-19.43152344 33.78085938 -18.86304688 33.56171875 -18.27734375 33.3359375 C-10.53384808 30.15580405 -4.20692361 26.20398482 -0.64453125 18.3515625 C0.64743901 13.63782858 0.24873289 8.83647283 0 4 C0 2.68 0 1.36 0 0 Z " fill="#AD1E26" transform="translate(277,128)"/>
<path d="M0 0 C-0.99 0 -1.98 0 -3 0 C-3 0.66 -3 1.32 -3 2 C-3.55429688 2.15855469 -4.10859375 2.31710938 -4.6796875 2.48046875 C-9.47984297 3.90376787 -9.47984297 3.90376787 -12.5 7.6875 C-12.665 8.450625 -12.83 9.21375 -13 10 C-15.97 9.34 -18.94 8.68 -22 8 C-22.33 8.66 -22.66 9.32 -23 10 C-24.26263107 11.01633308 -25.55948362 11.99061733 -26.875 12.9375 C-29.4677304 14.80790145 -31.79712742 16.67936379 -34 19 C-34.66 18.67 -35.32 18.34 -36 18 C-28.63980262 9.66565885 -12.08618972 -4.33278499 0 0 Z " fill="#F9CECE" transform="translate(92,124)"/>
<path d="M0 0 C28.71 0 57.42 0 87 0 C87 0.33 87 0.66 87 1 C58.62 1 30.24 1 1 1 C0.67 2.65 0.34 4.3 0 6 C-0.66 6 -1.32 6 -2 6 C-1.34 4.02 -0.68 2.04 0 0 Z " fill="#FEC5C4" transform="translate(178,122)"/>
<path d="M0 0 C0 0.66 0 1.32 0 2 C-19.8 2 -39.6 2 -60 2 C-60 2.66 -60 3.32 -60 4 C-63.50776784 5.60355101 -66.14354879 6.22036864 -70 6 C-66.96035634 2.48041261 -63.74443343 1.16951758 -59.13435364 0.7215271 C-57.56121651 0.7015416 -57.56121651 0.7015416 -55.95629883 0.68115234 C-54.16468071 0.65134781 -54.16468071 0.65134781 -52.33686829 0.62094116 C-51.05652206 0.60938995 -49.77617584 0.59783875 -48.45703125 0.5859375 C-47.12374189 0.56720995 -45.79046418 0.54763536 -44.4571991 0.5272522 C-40.95804772 0.47603946 -37.45885777 0.43636443 -33.95953369 0.39910889 C-30.39284757 0.35905883 -26.82632191 0.30793198 -23.25976562 0.2578125 C-4.56539128 0 -4.56539128 0 0 0 Z " fill="#AD1A26" transform="translate(256,163)"/>
<path d="M0 0 C-2 2 -2 2 -4.47123718 2.22705078 C-6.03174553 2.21134033 -6.03174553 2.21134033 -7.6237793 2.1953125 C-8.80227951 2.18870605 -9.98077972 2.18209961 -11.19499207 2.17529297 C-13.11520927 2.15039795 -13.11520927 2.15039795 -15.07421875 2.125 C-17.07952908 2.11342769 -19.08483956 2.10186684 -21.09015369 2.0909729 C-25.33426138 2.0646558 -29.57822088 2.02050479 -33.82220459 1.97924805 C-37.30494595 1.9460343 -40.78761098 1.91681988 -44.27046204 1.89794922 C-46.88380395 1.88292283 -49.49711327 1.85885585 -52.11027527 1.82470703 C-58.13149853 1.79139867 -63.33476 1.87193499 -69 4 C-69.66 3.34 -70.32 2.68 -71 2 C-64.07438574 -0.57503226 -57.14298486 -0.36739327 -49.82421875 -0.44921875 C-48.44894872 -0.47049973 -47.07368917 -0.49246827 -45.69844055 -0.51509094 C-42.82985186 -0.5602878 -39.96127309 -0.59914009 -37.0925293 -0.63305664 C-33.41247716 -0.67680473 -29.73276742 -0.73354686 -26.05296612 -0.7946043 C-23.21952091 -0.84071295 -20.38601992 -0.88153104 -17.55246925 -0.92057228 C-16.19484403 -0.93962957 -14.83723643 -0.95998817 -13.4796505 -0.98166466 C-11.58896373 -1.0107605 -9.69816521 -1.03230043 -7.80737305 -1.0534668 C-6.19357002 -1.07439644 -6.19357002 -1.07439644 -4.54716492 -1.0957489 C-2 -1 -2 -1 0 0 Z " fill="#F7A7A9" transform="translate(252,147)"/>
<path d="M0 0 C6.15638608 -0.07431567 12.31250935 -0.12868084 18.46923828 -0.16479492 C20.56238353 -0.17985469 22.65549736 -0.20030671 24.74853516 -0.22631836 C27.76212328 -0.26282501 30.77529312 -0.27975473 33.7890625 -0.29296875 C34.72054108 -0.30845261 35.65201965 -0.32393646 36.61172485 -0.33988953 C41.8198143 -0.34122987 45.53403832 0.00237777 50 3 C50.66 3.99 51.32 4.98 52 6 C51.67 6.99 51.34 7.98 51 9 C49.56770833 7.76302083 48.13541667 6.52604167 46.703125 5.2890625 C43.48755677 2.85526086 40.82095406 1.75594359 36.78222656 1.68115234 C35.96167786 1.66128265 35.14112915 1.64141296 34.29571533 1.62094116 C33.41953552 1.60938995 32.54335571 1.59783875 31.640625 1.5859375 C30.73624695 1.56657135 29.8318689 1.5472052 28.90008545 1.5272522 C26.01681901 1.46756169 23.13351242 1.42111314 20.25 1.375 C18.29295152 1.33681053 16.33591967 1.29775823 14.37890625 1.2578125 C9.58607289 1.16186875 4.79316085 1.07779873 0 1 C0 0.67 0 0.34 0 0 Z " fill="#C20B1E" transform="translate(224,120)"/>
<path d="M0 0 C0.33 0 0.66 0 1 0 C1 2.64 1 5.28 1 8 C16.84 8.33 32.68 8.66 49 9 C49 9.33 49 9.66 49 10 C31.84 10 14.68 10 -3 10 C-2.01 6.7 -1.02 3.4 0 0 Z " fill="#FFF6F1" transform="translate(175,128)"/>
<path d="M0 0 C0.495 1.98 0.495 1.98 1 4 C0.01 4.33 -0.98 4.66 -2 5 C-2 5.66 -2 6.32 -2 7 C-2.66 7 -3.32 7 -4 7 C-4.103125 8.010625 -4.20625 9.02125 -4.3125 10.0625 C-5 14 -5 14 -8 21 C-16.58 21 -25.16 21 -34 21 C-34 20.67 -34 20.34 -34 20 C-26.08 20 -18.16 20 -10 20 C-9.01 17.03 -8.02 14.06 -7 11 C-6.37775444 9.52216678 -5.7243368 8.05556519 -5 6.625 C-4.690625 5.99851563 -4.38125 5.37203125 -4.0625 4.7265625 C-2.91269041 2.85812192 -1.6050579 1.48650249 0 0 Z " fill="#AC2A31" transform="translate(185,169)"/>
<path d="M0 0 C1.37483727 4.12451181 0.08992713 5.62092311 -1.7109375 9.53125 C-1.99852936 10.16357544 -2.28612122 10.79590088 -2.58242798 11.4473877 C-3.50418632 13.46923679 -4.43914409 15.48464294 -5.375 17.5 C-6.30084405 19.51657103 -7.2239755 21.53436028 -8.14614868 23.5526123 C-8.98530738 25.38546778 -9.83112054 27.21527217 -10.67724609 29.04492188 C-12.04469149 31.96914001 -12.04469149 31.96914001 -13 35 C-13.66 35 -14.32 35 -15 35 C-14.01 31.7 -13.02 28.4 -12 25 C-11.34 25 -10.68 25 -10 25 C-9.89429688 24.34128906 -9.78859375 23.68257812 -9.6796875 23.00390625 C-8.81384715 19.17728999 -7.50339215 15.60536789 -6.125 11.9375 C-5.86847656 11.23044922 -5.61195312 10.52339844 -5.34765625 9.79492188 C-3.96755989 6.10195046 -2.61961073 3.01961117 0 0 Z " fill="#A9131F" transform="translate(46,153)"/>
<path d="M0 0 C0.8864727 3.14533647 0.91215171 4.85814412 0 8 C0 8.99 0 9.98 0 11 C-2.97 11 -5.94 11 -9 11 C-7.59928507 5.70841026 -4.14512755 3.22521956 0 0 Z " fill="#FBE2E2" transform="translate(87,152)"/>
<path d="M0 0 C0.66 0.33 1.32 0.66 2 1 C1.50628906 2.01320312 1.01257813 3.02640625 0.50390625 4.0703125 C-0.1436263 5.42168478 -0.79073956 6.77325802 -1.4375 8.125 C-1.76298828 8.79015625 -2.08847656 9.4553125 -2.42382812 10.140625 C-4.30584433 14.09867971 -5.51226706 17.58979513 -6 22 C-6.66 21.67 -7.32 21.34 -8 21 C-8 20.34 -8 19.68 -8 19 C-8.66 19 -9.32 19 -10 19 C-9.6875 17.0625 -9.6875 17.0625 -9 15 C-8.01 14.67 -7.02 14.34 -6 14 C-4.28432339 10.49705129 -4.28432339 10.49705129 -3 7 C-3.99 6.67 -4.98 6.34 -6 6 C-4 4 -2 2 0 0 Z " fill="#D70C18" transform="translate(155,169)"/>
<path d="M0 0 C0.33 0 0.66 0 1 0 C1.33 2.97 1.66 5.94 2 9 C8.27 9.33 14.54 9.66 21 10 C21 10.33 21 10.66 21 11 C12.75 11 4.5 11 -4 11 C-1 2 -1 2 0 0 Z " fill="#FCC8C9" transform="translate(154,178)"/>
<path d="M0 0 C1.95775078 2.93662616 2.56073149 4.5737056 3 8 C2.67 8.66 2.34 9.32 2 10 C1.34 10 0.68 10 0 10 C-0.66 11.98 -1.32 13.96 -2 16 C-2.99 15.34 -3.98 14.68 -5 14 C-3.45730076 9.27934033 -1.92205381 4.58335908 0 0 Z " fill="#F5E4DF" transform="translate(44,160)"/>
<path d="M0 0 C0.33 0.66 0.66 1.32 1 2 C1.66 2 2.32 2 3 2 C3.3690205 15.6332574 3.3690205 15.6332574 1 22 C-0.32 22.33 -1.64 22.66 -3 23 C-2.505 22.0925 -2.01 21.185 -1.5 20.25 C0.78149085 15.01221114 0.21310894 9.59608281 0 4 C0 2.68 0 1.36 0 0 Z " fill="#BF3D49" transform="translate(277,128)"/>
<path d="M0 0 C0 3.22140899 -0.65121136 5.14131459 -1.8125 8.125 C-2.14894531 9.01445312 -2.48539063 9.90390625 -2.83203125 10.8203125 C-4 13 -4 13 -7 14 C-8.20882096 16.00016466 -8.20882096 16.00016466 -9 18 C-10 15 -10 15 -9.1796875 12.94921875 C-6.45873696 8.23236137 -3.63944668 4.05538344 0 0 Z " fill="#FAD8D7" transform="translate(55,143)"/>
<path d="M0 0 C0.33 0 0.66 0 1 0 C0.91231752 1.5843317 0.80412671 3.16753567 0.6875 4.75 C0.62949219 5.63171875 0.57148438 6.5134375 0.51171875 7.421875 C-0.07029429 10.35415446 -0.95635098 11.8402919 -3 14 C-3.66 14 -4.32 14 -5 14 C-5.33 14.99 -5.66 15.98 -6 17 C-6.33 16.34 -6.66 15.68 -7 15 C-6.07421875 12.28515625 -6.07421875 12.28515625 -4.6875 9.0625 C-4.23761719 8.00160156 -3.78773438 6.94070312 -3.32421875 5.84765625 C-2 3 -2 3 0 0 Z " fill="#BC1F2D" transform="translate(159,147)"/>
<path d="M0 0 C0 0.33 0 0.66 0 1 C-0.65484375 1.09796875 -1.3096875 1.1959375 -1.984375 1.296875 C-9.27823666 2.49191448 -16.05096354 4.50174256 -23 7 C-22.125 3.125 -22.125 3.125 -21 2 C-19.21594402 1.62807954 -17.42223085 1.30189705 -15.625 1 C-4.83801264 -0.82154932 -4.83801264 -0.82154932 0 0 Z " fill="#B01A21" transform="translate(96,122)"/>
<path d="M0 0 C0 0.99 0 1.98 0 3 C-1.27057182 3.47985967 -2.54146848 3.9588593 -3.8125 4.4375 C-4.87404297 4.83775391 -4.87404297 4.83775391 -5.95703125 5.24609375 C-7.62672396 5.86225186 -9.31157704 6.43719235 -11 7 C-11 7.99 -11 8.98 -11 10 C-12.8125 11.75 -12.8125 11.75 -15 13 C-15.99 12.67 -16.98 12.34 -18 12 C-13.59409562 7.08408739 -7.1194485 0 0 0 Z " fill="#B4242E" transform="translate(92,141)"/>
<path d="M0 0 C-0.99 0 -1.98 0 -3 0 C-3 0.66 -3 1.32 -3 2 C-3.55429688 2.15855469 -4.10859375 2.31710938 -4.6796875 2.48046875 C-9.47984297 3.90376787 -9.47984297 3.90376787 -12.5 7.6875 C-12.665 8.450625 -12.83 9.21375 -13 10 C-13.99 9.67 -14.98 9.34 -16 9 C-16.33 8.01 -16.66 7.02 -17 6 C-16.195625 5.54625 -15.39125 5.0925 -14.5625 4.625 C-11.91143428 3.25274335 -11.91143428 3.25274335 -11 1 C-3.88059701 -1.55223881 -3.88059701 -1.55223881 0 0 Z " fill="#FBE1E2" transform="translate(92,124)"/>
<path d="M0 0 C1.39214652 4.17643955 -0.29335734 6.83437793 -1.9375 10.6875 C-2.22818359 11.38939453 -2.51886719 12.09128906 -2.81835938 12.81445312 C-3.53710313 14.54650775 -4.26745331 16.27373781 -5 18 C-5.66 18 -6.32 18 -7 18 C-7.33 19.32 -7.66 20.64 -8 22 C-8.51286648 16.52942426 -6.40473864 11.80947728 -4 7 C-3.34 7 -2.68 7 -2 7 C-1.855625 6.21625 -1.71125 5.4325 -1.5625 4.625 C-1 2 -1 2 0 0 Z " fill="#DB0A1B" transform="translate(41,160)"/>
<path d="M0 0 C-2.27284997 1.51523332 -4.24360277 2.6197595 -6.6875 3.75 C-11.21500542 5.96755367 -15.07066853 8.8648951 -19 12 C-18.52626953 11.07767578 -18.52626953 11.07767578 -18.04296875 10.13671875 C-16.95117826 8.03461235 -16.95117826 8.03461235 -16.3125 5.8125 C-15 4 -15 4 -11.375 3.25 C-10.26125 3.1675 -9.1475 3.085 -8 3 C-8 2.01 -8 1.02 -8 0 C-4.71023192 -1.09658936 -3.28696233 -0.79953138 0 0 Z " fill="#A90B11" transform="translate(98,147)"/>
<path d="M0 0 C1.32 0 2.64 0 4 0 C4.226875 0.639375 4.45375 1.27875 4.6875 1.9375 C5.85250896 4.27193661 5.85250896 4.27193661 8.625 4.75 C9.40875 4.8325 10.1925 4.915 11 5 C11 5.33 11 5.66 11 6 C9.35 6 7.7 6 6 6 C6 6.99 6 7.98 6 9 C5.34 9 4.68 9 4 9 C0.88002198 5.69649386 0 4.67590167 0 0 Z " fill="#D60712" transform="translate(168,142)"/>
<path d="M0 0 C1.32 0.33 2.64 0.66 4 1 C2.625 3.5 2.625 3.5 1 6 C0.34 6 -0.32 6 -1 6 C-1.66 7.65 -2.32 9.3 -3 11 C-3.66 11 -4.32 11 -5 11 C-5 12.32 -5 13.64 -5 15 C-5.66 14.67 -6.32 14.34 -7 14 C-6.34 11.69 -5.68 9.38 -5 7 C-4.34 7 -3.68 7 -3 7 C-3 6.34 -3 5.68 -3 5 C-2.34 4.67 -1.68 4.34 -1 4 C-0.34786708 1.97536745 -0.34786708 1.97536745 0 0 Z " fill="#D10C18" transform="translate(186,169)"/>
<path d="M0 0 C1.00186835 3.15696647 0.98848961 5.3910657 0.3125 8.625 C0.16425781 9.40101563 0.01601562 10.17703125 -0.13671875 10.9765625 C-1 13 -1 13 -3.08203125 14.2734375 C-3.71496094 14.51320312 -4.34789062 14.75296875 -5 15 C-4.37321829 11.33827525 -3.35548154 8.1181005 -1.9375 4.6875 C-1.39416016 3.36298828 -1.39416016 3.36298828 -0.83984375 2.01171875 C-0.56269531 1.34785156 -0.28554687 0.68398437 0 0 Z " fill="#B5242F" transform="translate(168,124)"/>
<path d="M0 0 C4.95 0 9.9 0 15 0 C15 7.875 15 7.875 12 11 C12 9.02 12 7.04 12 5 C12.66 5 13.32 5 14 5 C14 3.68 14 2.36 14 1 C9.38 1 4.76 1 0 1 C0 0.67 0 0.34 0 0 Z " fill="#FDE7E6" transform="translate(152,123)"/>
<path d="M0 0 C2.475 0.495 2.475 0.495 5 1 C4.814375 1.598125 4.62875 2.19625 4.4375 2.8125 C3.77906313 5.16408762 3.77906313 5.16408762 5 8 C3.35 8 1.7 8 0 8 C0 5.36 0 2.72 0 0 Z " fill="#D91019" transform="translate(167,131)"/>
<path d="M0 0 C0 0.33 0 0.66 0 1 C-1.98 1 -3.96 1 -6 1 C-6 1.66 -6 2.32 -6 3 C-9.50776784 4.60355101 -12.14354879 5.22036864 -16 5 C-11.46961032 -0.24571436 -6.49136014 -0.22004611 0 0 Z " fill="#B1282E" transform="translate(202,164)"/>
<path d="M0 0 C0.99 0.33 1.98 0.66 3 1 C1.02 3.97 -0.96 6.94 -3 10 C-3.66 9.34 -4.32 8.68 -5 8 C-4.74739753 4.21096292 -2.72150557 2.45813407 0 0 Z " fill="#F9E8E1" transform="translate(72,152)"/>
<path d="M0 0 C1.6415049 3.2830098 0.51888624 6.42545033 0 10 C-0.66 10 -1.32 10 -2 10 C-2 10.99 -2 11.98 -2 13 C-2.66 12.67 -3.32 12.34 -4 12 C-3.28571429 3.42857143 -3.28571429 3.42857143 0 0 Z " fill="#C01921" transform="translate(73,154)"/>
<path d="M0 0 C-1.27007214 0.9593419 -2.54108919 1.91743294 -3.8125 2.875 C-4.87404297 3.67550781 -4.87404297 3.67550781 -5.95703125 4.4921875 C-7.60456297 5.70814781 -9.29624211 6.86416141 -11 8 C-11 5 -11 5 -9 2 C-5.54296776 -0.54728691 -4.07197977 -1.28224044 0 0 Z " fill="#FADDD8" transform="translate(86,144)"/>
<path d="M0 0 C0.99 0 1.98 0 3 0 C1.79023695 3.62928915 0.72124626 4.11351038 -2.4375 6.125 C-3.24058594 6.64320313 -4.04367188 7.16140625 -4.87109375 7.6953125 C-7 9 -7 9 -9 10 C-7.55873214 6.63704165 -5.79407345 4.37072898 -3 2 C-2.01 2 -1.02 2 0 2 C0 1.34 0 0.68 0 0 Z " fill="#A8121C" transform="translate(69,128)"/>
<path d="M0 0 C0.66 0 1.32 0 2 0 C2 0.66 2 1.32 2 2 C2.66 2 3.32 2 4 2 C2.66666667 5.33333333 1.33333333 8.66666667 0 12 C-0.66 11.01 -1.32 10.02 -2 9 C-1.125 6 -1.125 6 0 3 C0 2.01 0 1.02 0 0 Z " fill="#FBE8E8" transform="translate(178,170)"/>
<path d="M0 0 C0.33 0.66 0.66 1.32 1 2 C1.66 2 2.32 2 3 2 C3 6.29 3 10.58 3 15 C2.67 15 2.34 15 2 15 C1.66223316 13.2508503 1.32996329 11.50063855 1 9.75 C0.814375 8.77546875 0.62875 7.8009375 0.4375 6.796875 C0 4 0 4 0 0 Z " fill="#B41D29" transform="translate(277,128)"/>
<path d="M0 0 C0.33 0 0.66 0 1 0 C0 7.42857143 0 7.42857143 -1 11 C-1.99 11 -2.98 11 -4 11 C-3.52269162 9.5410574 -3.04308958 8.08286504 -2.5625 6.625 C-2.29566406 5.81289062 -2.02882812 5.00078125 -1.75390625 4.1640625 C-1 2 -1 2 0 0 Z " fill="#FBD6D9" transform="translate(159,167)"/>
<path d="M0 0 C-2.35968744 2.09749995 -3.54616994 2.96905704 -6.75 3.1875 C-7.86375 3.0946875 -7.86375 3.0946875 -9 3 C-9.33 2.34 -9.66 1.68 -10 1 C-3.71428571 -1.42857143 -3.71428571 -1.42857143 0 0 Z " fill="#BC2131" transform="translate(267,161)"/>
<path d="M0 0 C1.32 0.33 2.64 0.66 4 1 C4 1.66 4 2.32 4 3 C1.03 4.65 -1.94 6.3 -5 8 C-5 7.01 -5 6.02 -5 5 C-4.01 4.67 -3.02 4.34 -2 4 C-0.79117904 1.99983534 -0.79117904 1.99983534 0 0 Z " fill="#F00418" transform="translate(276,153)"/>
<path d="M0 0 C0.66 0 1.32 0 2 0 C1.54917531 1.46067199 1.08906463 2.91848032 0.625 4.375 C0.36976562 5.18710938 0.11453125 5.99921875 -0.1484375 6.8359375 C-1 9 -1 9 -3 11 C-2.67 8.03 -2.34 5.06 -2 2 C-1.34 2 -0.68 2 0 2 C0 1.34 0 0.68 0 0 Z " fill="#FADBD9" transform="translate(66,163)"/>
<path d="M0 0 C0.33 0 0.66 0 1 0 C0.96744792 2.01822917 0.93489583 4.03645833 0.90234375 6.0546875 C0.87350758 8.08185404 0.87350758 8.08185404 2 10 C0.35 10 -1.3 10 -3 10 C-2.01 6.7 -1.02 3.4 0 0 Z " fill="#F9D5D6" transform="translate(175,128)"/>
<path d="M0 0 C0.33 0.66 0.66 1.32 1 2 C-0.8125 5 -0.8125 5 -3 8 C-3.99 8 -4.98 8 -6 8 C-4.55746343 4.63408134 -2.66735273 2.48952921 0 0 Z " fill="#FBD5D6" transform="translate(166,159)"/>
<path d="M0 0 C0 3.52032428 -0.70351351 4.4385343 -3 7 C-3.66 7 -4.32 7 -5 7 C-5 5.68 -5 4.36 -5 3 C-4.34 3 -3.68 3 -3 3 C-3 2.34 -3 1.68 -3 1 C-2.01 0.67 -1.02 0.34 0 0 Z " fill="#C00E15" transform="translate(50,147)"/>
<path d="M0 0 C-2.66559313 1.77706209 -5.0280615 2.87548273 -8 4 C-8 2.68 -8 1.36 -8 0 C-4.71023192 -1.09658936 -3.28696233 -0.79953138 0 0 Z " fill="#B41A22" transform="translate(98,147)"/>
<path d="M0 0 C2.375 -0.1875 2.375 -0.1875 5 0 C5.66 0.99 6.32 1.98 7 3 C6.67 3.99 6.34 4.98 6 6 C3.97945196 4.35830472 1.97956942 2.69088222 0 1 C0 0.67 0 0.34 0 0 Z " fill="#B42F36" transform="translate(269,123)"/>
<path d="M0 0 C0.33 0.66 0.66 1.32 1 2 C1.66 2 2.32 2 3 2 C3 2.99 3 3.98 3 5 C1.02 5 -0.96 5 -3 5 C-2.01 3.35 -1.02 1.7 0 0 Z " fill="#E90017" transform="translate(165,114)"/>
<path d="M0 0 C2.31 0 4.62 0 7 0 C4.53721199 2.46278801 2.29323018 2.99771255 -1 4 C-0.67 2.68 -0.34 1.36 0 0 Z " fill="#FBE1DC" transform="translate(187,164)"/>
<path d="M0 0 C0 0.99 0 1.98 0 3 C-1.8125 4.75 -1.8125 4.75 -4 6 C-4.99 5.67 -5.98 5.34 -7 5 C-2.25 0 -2.25 0 0 0 Z " fill="#B2171F" transform="translate(81,148)"/>
<path d="M0 0 C-1.07401108 2.91517292 -1.77810176 4.77810176 -4 7 C-4.6875 5.1875 -4.6875 5.1875 -5 3 C-3.38441968 0.84589291 -2.74502455 0 0 0 Z " fill="#FADEDD" transform="translate(277,145)"/>
<path d="M0 0 C-1.65 1.32 -3.3 2.64 -5 4 C-5.66 2.68 -6.32 1.36 -7 0 C-3.98968256 -0.93423645 -3.13349732 -1.04449911 0 0 Z " fill="#BB252D" transform="translate(167,159)"/>
<path d="M0 0 C-0.99 2.97 -1.98 5.94 -3 9 C-3.66 8.01 -4.32 7.02 -5 6 C-4.34 6 -3.68 6 -3 6 C-3.33 4.35 -3.66 2.7 -4 1 C-2 0 -2 0 0 0 Z " fill="#FCE2E0" transform="translate(158,148)"/>
<path d="M0 0 C0.33 0.66 0.66 1.32 1 2 C1.66 2 2.32 2 3 2 C2.34 3.65 1.68 5.3 1 7 C0.01 7 -0.98 7 -2 7 C-2.33 6.01 -2.66 5.02 -3 4 C-2.01 4 -1.02 4 0 4 C0 2.68 0 1.36 0 0 Z " fill="#D41419" transform="translate(160,142)"/>
<path d="M0 0 C0.66 0.33 1.32 0.66 2 1 C1.34 2.32 0.68 3.64 0 5 C-1.9375 4.625 -1.9375 4.625 -4 4 C-4.33 3.34 -4.66 2.68 -5 2 C-2.625 0.9375 -2.625 0.9375 0 0 Z " fill="#D01018" transform="translate(60,134)"/>
<path d="M0 0 C2.5625 2.25 2.5625 2.25 5 5 C4.8125 7.3125 4.8125 7.3125 4 9 C0 2.25 0 2.25 0 0 Z " fill="#FCDBDA" transform="translate(273,127)"/>
</svg>
