<?xml version="1.0" encoding="UTF-8"?>
<svg xmlns="http://www.w3.org/2000/svg" version="1.1" viewBox="0 0 747.7 323.3">
  <defs>
    <style>
      .cls-1 {
        fill: #e6282e;
      }

      .cls-2 {
        fill: #fff;
      }

      .cls-3 {
        fill: #0c4992;
      }
    </style>
  </defs>
  <!-- Generator: Adobe Illustrator 28.6.0, SVG Export Plug-In . SVG Version: 1.2.0 Build 709)  -->
  <g>
    <g>
      <rect class="cls-2" width="747.7" height="323.3"/>
      <path class="cls-3" d="M730.5,11.8v-2.6h1.9c1.3,0,1.6.4,1.6,1.1s-.3,1.4-1.8,1.4h-1.7M731.9,13.3c.6,0,1.1,0,1.5.4.5.5.5,1.3.6,2.2,0,.6.2,1.2.3,1.8h2c-.3-.9-.5-2-.6-2.9-.2-1.1-.3-1.7-1.7-2h0c1.3-.3,2.1-1.2,2.1-2.4,0-2.3-1.9-2.8-3.8-2.8h-3.3v10.1h1.6v-4.4h1.3ZM732.4,19.9c-3.9,0-7.1-3.2-7.1-7.1s3.2-7.1,7.1-7.1,7.1,3.2,7.1,7.1-3.1,7.1-7.1,7.1ZM732.4,21.4c4.8,0,8.6-3.8,8.6-8.6s-3.8-8.6-8.6-8.6-8.6,3.8-8.6,8.6,3.8,8.6,8.6,8.6Z"/>
      <path class="cls-3" d="M281.8,24.2h72.4l28.7,119.5h-48.3l-4.7-23.9h-23.9l-4.7,23.9h-48.3l28.7-119.5M325.3,95.9l-7.3-37.4-7.3,37.4h14.6Z"/>
      <path class="cls-3" d="M220.9,95.3l30.8,48.5h-51.3l-22.6-38.9v38.9h-48.3V24.2h84.5c20,0,36.2,16.1,36.2,35.9s-12.6,32-29.2,35.2M189.8,48.1h-12.1s0,23.9,0,23.9h12.1c6.7,0,12.1-5.4,12.1-12s-5.4-12-12.1-12Z"/>
      <rect class="cls-3" x="486.9" y="48.1" width="24.1" height="23.9"/>
      <polyline class="cls-3" points="521.6 24.2 569.9 24.2 569.9 119.8 618.1 119.8 618.1 143.7 521.6 143.7 521.6 24.2"/>
      <polyline class="cls-3" points="627.2 24.2 723.7 24.2 723.7 48.1 675.5 48.1 675.5 72 723.7 72 723.7 95.9 675.5 95.9 675.5 119.8 723.7 119.8 723.7 143.7 627.2 143.7 627.2 24.2"/>
      <polyline class="cls-3" points="23.9 24.2 120.4 24.2 120.4 48.1 72.2 48.1 72.2 72 120.4 72 120.4 95.9 72.2 95.9 72.2 143.7 23.9 143.7 23.9 24.2"/>
      <path class="cls-3" d="M388.9,119.8h48.8l-42-41.7c-5.9-5.9-9.8-13.6-9.8-22.6,0-17.3,14.2-31.4,31.7-31.4.2-.2,69.4,0,69.4,0v23.9h-48.7l42.5,42.2c5.7,5.7,9.3,13.4,9.3,22,0,17.3-14.2,31.4-31.7,31.4-.2.2-69.4,0-69.4,0v-23.9"/>
      <polyline class="cls-1" points="24.1 167.6 96.3 167.6 24.1 210.6 24.1 167.6"/>
      <polyline class="cls-1" points="24.4 240.4 144.6 167.6 241.1 167.6 23.9 299.1 24.4 240.4"/>
      <polyline class="cls-1" points="72.2 299.1 289.4 167.6 385.9 167.6 168.7 299.1 72.2 299.1"/>
      <polyline class="cls-1" points="217 299.1 434.1 167.6 530.7 167.6 313.5 299.1 217 299.1"/>
      <polyline class="cls-1" points="361.8 299.1 578.9 167.6 675.5 167.6 458.3 299.1 361.8 299.1"/>
      <polyline class="cls-1" points="506.5 299.1 723.7 167.6 723.6 226.2 603.1 299.1 506.5 299.1"/>
      <polyline class="cls-1" points="651.3 299.1 723.7 254.8 723.7 299.1 651.3 299.1"/>
    </g>
  </g>
</svg>