<?xml version="1.0" encoding="utf-8"?>
<!-- Generator: Adobe Illustrator 27.5.0, SVG Export Plug-In . SVG Version: 6.00 Build 0)  -->
<svg version="1.1" id="Artwork" xmlns="http://www.w3.org/2000/svg" xmlns:xlink="http://www.w3.org/1999/xlink" x="0px" y="0px"
	 viewBox="0 0 344 62.9" style="enable-background:new 0 0 344 62.9;" xml:space="preserve">
<style type="text/css">
	.st0{fill-rule:evenodd;clip-rule:evenodd;}
	.st1{stroke:#000000;stroke-width:0.2;}
</style>
<g>
	<polygon class="st0" points="7.8,55.1 28.7,12.4 25.2,12.4 4.3,55.1 	"/>
	<polygon class="st1" points="7.8,55.1 28.7,12.4 25.2,12.4 4.3,55.1 	"/>
	<polygon class="st0" points="17.7,55.2 38.5,12.5 32.5,12.4 11.6,55.2 	"/>
	<polygon class="st1" points="17.7,55.2 38.5,12.5 32.5,12.4 11.6,55.2 	"/>
	<polygon class="st0" points="31.1,55.1 52,12.5 43.5,12.5 22.6,55.2 	"/>
	<polygon class="st1" points="31.1,55.1 52,12.5 43.5,12.5 22.6,55.2 	"/>
	<path class="st0" d="M259.2,42.9c0.5-5.7,2.1-6.3,4.5-6.2h34l-3.2,6L259.2,42.9z M213.7,55.2c6.3,0.1,21.4-20.7,10.6-21.9
		c-18.5,0-37.1-0.1-55.6-0.1c-0.1-4,1.5-5.9,4.8-5.9L303,27.1l-3.8,6.1H243c-8,0-18.5,22-10.5,22h89.9c14.9-26.7,25.6-42.6,8.4-42.7
		c-23.2-0.1-46.4,0-69.5-0.1c-17.8-0.3-22,13.3-13.6,0H154c-8.6,1.6-9.4,2.5-13.3,7.4l3.6-7.4H56.7L35.8,55.1H61l4.1-8.4h51.7
		l6.6-13.5H71.7l3-6l62.3,0.1c-2.6,6.1-4.2,9.5,3.6,9.5l53,0.1c2.1,0,0.1,6.1-3.4,6.1L131,42.9l-7.6,12.2L213.7,55.2z"/>
	<path class="st1" d="M259.2,42.9c0.5-5.7,2.1-6.3,4.5-6.2h34l-3.2,6L259.2,42.9z M213.7,55.2c6.3,0.1,21.4-20.7,10.6-21.9
		c-18.5,0-37.1-0.1-55.6-0.1c-0.1-4,1.5-5.9,4.8-5.9L303,27.1l-3.8,6.1H243c-8,0-18.5,22-10.5,22h89.9c14.9-26.7,25.6-42.6,8.4-42.7
		c-23.2-0.1-46.4,0-69.5-0.1c-17.8-0.3-22,13.3-13.6,0H154c-8.6,1.6-9.4,2.5-13.3,7.4l3.6-7.4H56.7L35.8,55.1H61l4.1-8.4h51.7
		l6.6-13.5H71.7l3-6l62.3,0.1c-2.6,6.1-4.2,9.5,3.6,9.5l53,0.1c2.1,0,0.1,6.1-3.4,6.1L131,42.9l-7.6,12.2L213.7,55.2z"/>
</g>
</svg>
