<?xml version="1.0" encoding="UTF-8"?>
<svg xmlns="http://www.w3.org/2000/svg" version="1.1" viewBox="0 0 554.5 154.4">
  <defs>
    <style>
      .cls-1 {
        fill-rule: evenodd;
      }

      .cls-2 {
        fill: #ffd500;
      }
    </style>
  </defs>
  <!-- Generator: Adobe Illustrator 28.6.0, SVG Export Plug-In . SVG Version: 1.2.0 Build 709)  -->
  <g>
    <g id="Livello_1">
      <polygon class="cls-1" points="508.1 96 490.9 84.9 405.7 84.9 386.6 96 367.5 96 353.9 87.7 396.2 9.7 418 0 538.1 0 554.5 12.5 540.8 37.6 489 37.6 497.1 25 494.4 22.3 446.7 22.3 439.8 26.4 413.9 72.3 471.2 72.3 475.3 64 438.5 47.3 535.4 47.3 509.4 96 508.1 96"/>
      <polygon class="cls-2" points="486.4 89 500.8 98.3 392.8 98.3 408.5 89 486.4 89"/>
      <path d="M162.8,154.2l24.8-46h70.7l-6.8,12.2h-48.4l-3.6,6.7h43.3l-4.6,8.7h-43.2l-3.9,6.5h49.1l-7.1,12.1-70.1-.2h-.2,0ZM408.4,154.2l24.8-46h70.7l-6.8,12.2h-48.4l-3.6,6.7h43.3l-4.6,8.7h-43.2l-3.9,6.5h49.1l-6.6,12.1-70.6-.2h-.2,0ZM142.5,142.2c1.2-.4,3.6-4.3,3.7-5.4.1-1.1-1.8-1.1-1.8-1.1,0,0-26.5.1-31.6.3-5,.2-7.1,1.7-7.3,3.7-.3,2.1,2.5,2.7,6.9,2.8,1.2,0,29.2,0,30.1-.3M173,111.3c2.6,1.9,4.8,4.8,3.8,7.8-1.1,3.3-5.6,11.6-7.5,15s-10.6,20.1-10.6,20.1h-56.3c-3.5,0-10.2-.8-14.1-2.6-3.1-1.5-7.4-5-5.4-10.8l-7.2,13.4H20.4c-3.2,0-16.2-.4-19.3-6.5-2.2-4.3-1.3-8,3.6-16.7,5.2-9.3,9.3-13.4,16.8-18.1,8.2-5.1,21.4-4.6,23.8-4.6h50.3l-6.8,11.8h-38.4c-2.5,0-14.6.3-17,1.8-1.5.9-3.3,4-5.3,7.2-2.5,3.9-4.4,7.9-4.6,9.1-.4,2.3,1.1,3.3,3,3.4h33.4l3.2-6.4h-19.8l4.9-8.7h42.2l-5.6,10.5c3.4-4.7,8.8-6.7,10.8-7.4,2.3-.9,8.4-3,17-3.2,6.9-.2,38.4-.2,38.4-.2,0,0,3.1-4.7-1.5-5.8-2-.5-12.2-.3-23-.3h-28.7l6.7-11.9s51.6-.2,53.9,0c4.4.4,11.6.6,14.6,2.8M307.5,130.7c5-.1,7.7-5.1,8-6.9s-2.8-3.4-3.7-3.4h-33c-.9,0-4.3,7.2-4.7,8.4-.4,1.2.2,1.7.8,1.8.6,0,27.5.2,32.5,0M334.9,111.9c2.5,1.9,5.3,5.2,4.2,10.4l7.6-14.1s56.6.2,58.1.3c1.5,0,12.8,1.3,15,3.6,2.2,2.3,3.2,4.3,3,6.7-.2,2.4-5.7,11.8-7.3,14.6-1.6,2.8-11,20.7-11,20.7h-22s13.7-25.1,14.6-26.8.3-4.8-.8-5.5c-1.1-.7-3-1.3-6.9-1.3h-27l-18.3,33.7h-22.3l12.8-23.5c-5.3,5.8-13.3,8.4-14.9,8.9-1.9.5-10,2.8-20.2,3.2l19.2,11.6h-31.8s-18.5-11-19.6-11-6.4,10.8-6.4,10.8h-22.4l24.5-46s53.7,0,55.5.2c1.8,0,12.8.7,16.5,3.6"/>
    </g>
  </g>
</svg>