<?xml version="1.0" encoding="utf-8"?>
<!-- Generator: Adobe Illustrator 27.5.0, SVG Export Plug-In . SVG Version: 6.00 Build 0)  -->
<svg version="1.1" id="Capa_1" xmlns="http://www.w3.org/2000/svg" xmlns:xlink="http://www.w3.org/1999/xlink" x="0px" y="0px"
	 viewBox="0 0 235.6 61.6" style="enable-background:new 0 0 235.6 61.6;" xml:space="preserve">
<style type="text/css">
	.st0{fill-rule:evenodd;clip-rule:evenodd;}
	.st1{fill-rule:evenodd;clip-rule:evenodd;fill:#009BDB;}
</style>
<g>
	<path class="st0" d="M227,60.8v-4.2h0.9l1,3c0.1,0.3,0.2,0.5,0.2,0.6c0-0.2,0.1-0.4,0.2-0.7l1-2.9h0.8v4.2h-0.6v-3.5l-1.3,3.5h-0.5
		l-1.3-3.6v3.6H227L227,60.8z M224.4,60.8v-3.7H223v-0.5h3.5v0.5H225v3.7H224.4L224.4,60.8z M186.3,31.4c0-1.1,0.7-1.7,2-1.7h2.8
		c1.4,0,2.5,0.7,3.4,1.6l17.3,18.1c0.6,0.6,1.3,0.7,1.3,0l0-18.4c0-0.9,0.5-1.4,1.6-1.4l2.8,0c0.9,0,1.6,0.4,1.6,1.4l0,27.9
		c0,1.6-0.1,1.9-1.6,1.9h-2.6c-1.1,0-1.7-0.2-2.5-1L194,40.5c-0.8-0.9-1.6-0.9-1.6,0.2l0,18.8c0,0.9-0.4,1.4-1.4,1.4h-3.2
		c-0.9,0-1.4-0.4-1.4-1.3L186.3,31.4L186.3,31.4z M170,29.7h4.4c0.6,0,1,0.5,1,1.1v29.1c0,0.6-0.5,1.1-1,1.1H170c-0.6,0-1-0.5-1-1.1
		V30.8C168.9,30.2,169.4,29.7,170,29.7L170,29.7z M121.8,31.8c0-1.4,0.7-2.2,2.2-2.2l3.7,0c2,0,2.3,0.6,3.4,2.6l8.2,15.2
		c0.4,0.8,1,0.8,1.4,0l8.9-15.6c0.7-1.2,1.4-2.1,2.3-2.1h4.4c1.3,0,1.9,0.2,1.9,1.9l0,27.6c0,1.3-0.4,1.7-1.6,1.7h-3.2
		c-1.2,0-1.6-0.6-1.6-1.7l0-20.2L141,59.2c-0.7,1.4-1.4,1.4-2.2,0l-11.1-20.5l0,20.5c0,1.1-0.5,1.7-1.5,1.7l-2.7,0
		c-1,0-1.7-0.5-1.7-1.7V31.8L121.8,31.8z M89.6,36.5c0-1.2,0.8-1.8,2.3-1.8l8.4,0c3.5,0,7,1.4,7.1,4.6c0,2.7-2.3,4.3-6.6,4.3l-8.8,0
		c-1.3,0-2.3-0.6-2.3-1.8L89.6,36.5L89.6,36.5z M82.9,31.6c0-1.2,0.8-2,2.2-1.9l16.2,0c7.1,0,12.7,2.3,12.8,9.3
		c0,4.6-2.2,6.9-6.8,8.4c-1.2,0.4-1.4,1.1-0.6,2.1l7.1,10.2c0.6,0.9,0.3,1.2-0.7,1.2l-4.3,0c-1.2,0-1.7-0.1-2.3-1l-7.3-10
		c-0.8-1.2-2-1.7-3.6-1.7l-5.9,0l-0.1,11c0,1.1-0.5,1.7-1.4,1.7l-3.6,0c-1.2,0-1.6-0.7-1.6-1.7V31.6L82.9,31.6z M59.5,39.1
		c0.3-0.6,0.6-0.6,1,0l5.6,11.6c0.4,0.9,0.1,1.3-1,1.3H54.8c-0.8,0-1.2-0.5-0.8-1.2L59.5,39.1L59.5,39.1z M56.9,32.2
		c0.7-1.5,1.2-2.5,3.6-2.5c2.3,0,2.8,0.9,3.5,2.4l13.8,26.8c0.9,1.7,0.4,2-1.1,2h-4.1c-1.3,0-1.6-0.1-2-1.1l-1.1-2.4
		c-0.4-0.8-0.7-1-2.4-1l-14.2,0c-1.1,0-1.6,0.3-1.9,1l-1,2.1c-0.5,1.1-0.9,1.3-2.1,1.3h-3.1c-1.1,0-1.5-0.5-0.9-1.6L56.9,32.2
		L56.9,32.2z M34.2,37.1c1.1,0.6,1.9,0.6,2.3-0.1l1.4-2.7c0.5-0.8,0.2-1.5-0.5-1.9C31,28.8,19,27.7,11.9,31.9
		c-8.8,5.4-9.9,18.4-3.3,24.3c6.9,6.7,19.2,5.9,28.7,2.7c1.8-0.7,1.9-1.4,1.9-3.9v-9.1c0-1.3-0.9-2.2-2.2-2.2l-12.6,0
		c-0.9,0-1.4,0.5-1.4,1.4v1.9c0,0.9,0.5,1.3,1.6,1.3l7.3,0c1.1,0,1.5,0.5,1.6,1.3l0,4.9c-7.9,3-16.4,2.1-19.9-2.2
		c-4.5-6.2-1.5-15.3,4.8-16.6C24.1,34.2,29.3,34.7,34.2,37.1L34.2,37.1z"/>
	<path class="st1" d="M201,1.3l-9.7,17c-1.2,1.8-0.7,3.7,1.5,3.7l19.8,0c2.7,0,3.1-1.5,1.6-4l-9.6-16.7C203.6-0.1,201.8-0.2,201,1.3
		L201,1.3z"/>
</g>
</svg>
