<?xml version="1.0" encoding="utf-8"?>
<!-- Generator: Adobe Illustrator 27.5.0, SVG Export Plug-In . SVG Version: 6.00 Build 0)  -->
<svg version="1.1" id="Layer_1" xmlns="http://www.w3.org/2000/svg" xmlns:xlink="http://www.w3.org/1999/xlink" x="0px" y="0px"
	 viewBox="0 0 3276 537.1" style="enable-background:new 0 0 3276 537.1;" xml:space="preserve">
<style type="text/css">
	.st0{fill:#CC2128;}
	.st1{fill:#191F42;}
</style>
<g>
	<g>
		<path d="M712.2,330.5c-2.1,0-3.8,0.1-4.8,0.1H579.7c-43,0-74.5-10.7-93.7-31.5c-17-18.4-18.2-38.5-18-45.4V112.9
			c0-19.1,7.2-53.6,55.5-71.8c25.7-9.6,53.4-10.5,64.1-10.5H821v60H587.6c-12,0-29.5,1.6-43,6.7c-16.6,6.2-16.6,12.5-16.6,15.6
			v141.9c0.9,4.3,11.8,15.8,51.7,15.8h129.1l0.6-0.1c12,0.5,40.8-2.1,52.2-13.1c2.3-2.2,4.4-5.2,4.4-11.5v-32.2H659v-60h167v92.2
			c0,21.5-8,40.6-23,55C774.7,327.8,728.8,330.5,712.2,330.5z"/>
	</g>
	<path d="M1228.9,116c-0.3-3.8-2.5-23.9-19.1-43.8C1195.4,55,1167,34.6,1113,34.6H981c-54,0-82.4,20.4-96.8,37.6
		c-16.6,19.9-18.8,40.1-19.1,43.9l-0.1,1v213.5h60v-105h244v105h60V117.1L1228.9,116z M1169,165.6H925v-45.4
		c0.3-1.2,1.8-5.3,5.3-9.5c8.8-10.6,26.4-16,50.7-16h132c24.3,0,41.9,5.4,50.7,16c3.5,4.2,5,8.4,5.3,9.5V165.6z"/>
	<g>
		<path d="M1732,330.6h-63.6l0.4-264.8c0-30.4,35.2-46.1,61.2-24.5c17.9,15,177.4,147,238,197V32.6h67v260c0,23.6-12.9,33.3-20.5,37
			c-21.9,10.5-41.9-5.4-50.4-12.3c-11.9-9.5-177.6-151-232.1-196.2V330.6z"/>
	</g>
	<path d="M2150.6,97.7c12.7-5.2,26.3-7.1,29.8-7.1H2402v-60h-224.1l-1.1-0.1c-2.4,0.2-24.5,1.9-47.3,10.9
		c-50,19.7-57.5,54.7-57.5,73.8v130c0,19.1,7.5,54.2,57.5,73.9c22.8,9,44.9,11,47.3,11.2l1.1,0.3H2402v-60h-221.6
		c-3.6-1-17.1-2.3-29.8-7.5c-18.6-7.6-18.6-15.4-18.6-17.9v-28.7h270v-60h-270v-41.3C2132,112.7,2132,105.3,2150.6,97.7z"/>
	<g>
		<path d="M3199,33.6v214.7c0,25.4-13,49.4-35.7,65.7c-21.4,15.4-50.4,23.7-83.6,23.7h-117.3c-33.3,0-62.2-8.3-83.6-23.7
			c-22.7-16.3-35.7-40.3-35.7-65.7V33.6h60v214.7c0,14.3,22.2,29.3,59.3,29.3h117.3c37.1,0,59.3-15.1,59.3-29.3V33.6H3199z"/>
	</g>
	<path d="M1327,228.6h155l71.7,102h73.3l-74.2-105.8c29.2-6.7,52.8-21.9,62.1-35.1c14.1-19.8,15-39.7,15-43.5v-32.3
		c0-19-7.4-36.2-21.1-49.6c-9.5-9.3-22.1-16.7-37.3-22.1c-22.7-8-51.1-8.9-53.5-9l-251.1,0v167v28v102.3h60V228.6z M1327,93.6h189.3
		c2.6,0,49.7-5.8,49.7,20.3v31.6c0,17-28,23-47,23h-192V93.6z"/>
	<path d="M2802.9,114c-0.3-3.8-2.5-23.9-19.1-43.8C2769.4,53,2741,32.6,2687,32.6h-132c-54,0-82.4,20.4-96.8,37.6
		c-16.6,19.9-18.8,40.1-19.1,43.9l-0.1,1v213.5h60v-105h244v105h60V115.1L2802.9,114z M2743,163.6h-244v-45.4
		c0.3-1.2,1.8-5.3,5.3-9.5c8.8-10.6,26.4-16,50.7-16h132c24.3,0,41.9,5.4,50.7,16c3.5,4.2,5,8.4,5.3,9.5V163.6z"/>
	<path class="st0" d="M420,81.6c0-27.6-22.4-50-50-50H120c-27.6,0-50,22.4-50,50v207c0,27.6,22.4,50,50,50h250c27.6,0,50-22.4,50-50
		V81.6z M308.1,258.4c-14.4,13.4-36.4,28.1-73.8,28.1c-37.4,0-113.3,0-113.3,0s37.6-1.4,57.7-29.2c20.1-27.8,49.8-68.8,49.8-68.8
		C262.1,135,237.8,88.6,191,81.6h78c0,0,25.6-1.1,46.7,25.7c21.1,26.8,53.6,77,53.6,77S322.4,245,308.1,258.4z"/>
	<g>
		<path class="st0" d="M1554,482.6h-40c-13.2,0-24-11.1-24-24.3v-24c0-13.2,10.8-23.7,24-23.7h40c13.2,0,24,10.4,24,23.7v16.3h-76
			v7.7c0,6.6,5.4,12.3,12,12.3h40c6.6,0,12-5,12-12h12C1578,471.6,1567.2,482.6,1554,482.6z M1502,438.6h64v-4.3
			c0-6.6-5.4-11.7-12-11.7h-40c-6.6,0-12,5-12,11.7V438.6z"/>
	</g>
	<g>
		<path class="st0" d="M1746,482.6h-36c-13.2,0-24-11.1-24-24.3v-24c0-13.2,10.8-23.7,24-23.7h36c13.2,0,24,10,24,24h-12
			c0-7-5.4-12-12-12h-36c-6.6,0-12,5-12,11.7v24c0,6.6,5.4,12.3,12,12.3h36c6.6,0,12-6,12-12h12C1770,471.6,1759.2,482.6,1746,482.6
			z"/>
	</g>
	<g>
		<path class="st0" d="M1962,482.6h-36c-13.2,0-24-11.1-24-24.3v-24c0-13.2,10.8-23.7,24-23.7h36c13.2,0,24,10,24,24h-12
			c0-7-5.4-12-12-12h-36c-6.6,0-12,5-12,11.7v24c0,6.6,5.4,12.3,12,12.3h36c6.6,0,12-6,12-12h12C1986,471.6,1975.2,482.6,1962,482.6
			z"/>
	</g>
	<path class="st0" d="M2318,410.6v4.2c-3.9-2.8-8.8-4.2-14-4.2h-40c-13.2,0-24,10.4-24,23.7v20c0,13.2,10.8,24.3,24,24.3h40
		c4.4,0,8.5-1.5,12-3.6v5.2c0,6.6-5.4,12.3-12,12.3h-40c-6.6,0-12-6-12-12h-12c0,13,10.8,24,24,24h40c13.2,0,24-11.1,24-24.3v-26v-3
		v-17v-23.7H2318z M2316,454.6c0,6.6-5.4,12-12,12h-40c-6.6,0-12-5.4-12-12v-20c0-6.6,5.4-12,12-12h40c6.6,0,12,5.4,12,12V454.6z"/>
	<path class="st0" d="M2183,410.6h-36c-5.2,0-10.1,1.3-14,4.2v-4.2h-10v23.7v17v30.3h12v-47.3c0-6.6,5.4-11.7,12-11.7h36
		c6.6,0,12,5,12,11.7v47.3h12v-47.3C2207,421,2196.2,410.6,2183,410.6z"/>
	<path class="st0" d="M2757,481.6h36c5.2,0,10.1-2,14-4.9v4.9h10v-24.3v-17v-29.7h-12v46.7c0,6.6-5.4,12.3-12,12.3h-36
		c-6.6,0-12-5.7-12-12.3v-46.7h-12v46.7C2733,470.5,2743.8,481.6,2757,481.6z"/>
	<path class="st0" d="M3182,410.6h-36c-5.2,0-10.1,1.3-14,4.2v-4.2h-10v23.7v17v30.3h12v-47.3c0-6.6,5.4-11.7,12-11.7h36
		c6.6,0,12,5,12,11.7v47.3h12v-47.3C3206,421,3195.2,410.6,3182,410.6z"/>
	<path class="st0" d="M1432,410.6h-35c-4.4,0-8.5,1.1-12,3.1v-28.1h-12v48.7v20.3v27h12v-27v-20.3c0-6.6,5.4-11.7,12-11.7h35
		c6.6,0,12,5,12,11.7v47.3h12v-47.3C1456,421,1445.2,410.6,1432,410.6z"/>
	<path class="st0" d="M2908,447.6v11.7c0,6.6-5.4,12.3-12,12.3h-13c-6.6,0-12-5.7-12-12.3v-35.7h46v-12h-46v-13h-12v13h-14v12h14
		v35.7c0,13.2,10.8,24.3,24,24.3h13c13.2,0,24-11.1,24-24.3v-11.7H2908z"/>
	<path class="st0" d="M1330,447.6v11.7c0,6.6-5.4,12.3-12,12.3h-13c-6.6,0-12-5.7-12-12.3v-35.7h46v-12h-46v-13h-12v13h-14v12h14
		v35.7c0,13.2,10.8,24.3,24,24.3h13c13.2,0,24-11.1,24-24.3v-11.7H1330z"/>
	<g>
		<rect x="2021" y="383.6" class="st0" width="12" height="98"/>
	</g>
	<g>
		<rect x="2073" y="411.6" class="st0" width="12" height="70"/>
	</g>
	<g>
		<rect x="2073" y="383.6" class="st1" width="12" height="15"/>
	</g>
	<g>
		<rect x="2684" y="383.6" class="st0" width="12" height="98"/>
	</g>
	<path class="st0" d="M2963,481.6h-12v-70h12V481.6z M2963,383.6h-12v15h12V383.6z"/>
	<g>
		<path class="st0" d="M2647,458.6c0,13.3-10.7,24-24,24h-43c-13.3,0-24-10.7-24-24v-22c0-13.3,10.7-24,24-24h43
			c13.3,0,24,10.7,24,24V458.6z M2635,436.6c0-6.6-5.4-12-12-12h-43c-6.6,0-12,5.4-12,12v22c0,6.6,5.4,12,12,12h43
			c6.6,0,12-5.4,12-12V436.6z"/>
	</g>
	<g>
		<path class="st0" d="M3088,458.6c0,13.3-10.7,24-24,24h-43c-13.3,0-24-10.7-24-24v-22c0-13.3,10.7-24,24-24h43
			c13.3,0,24,10.7,24,24V458.6z M3076,436.6c0-6.6-5.4-12-12-12h-43c-6.6,0-12,5.4-12,12v22c0,6.6,5.4,12,12,12h43
			c6.6,0,12-5.4,12-12V436.6z"/>
	</g>
	<path class="st0" d="M2504,441.6L2504,441.6h-42h0c-5.5,0-10-3.9-10-9c0-5.1,4.5-9,10-9h38c5.5,0,10,4,10,9h12c0-11-9.9-20-22-20
		h-38c-12.1,0-22,9.4-22,20.5c0,11.1,9.9,20.5,22,20.5h0h42h0c5.5,0,10,3.9,10,9c0,5.1-4.5,9-10,9h-42c-5.5,0-10-4-10-9h0v-5h-12v5
		h0c0,11,9.9,20,22,20h42c12.1,0,22-9.4,22-20.5C2526,451,2516.1,441.6,2504,441.6z"/>
	<path class="st0" d="M1867.3,410.6l-30.1,59l-31-59h-13.6l37.7,71.6c-0.1,0.2-0.2,0.5-0.4,0.7c-4.3,7.2-7.2,11.7-12,11.7h-14v12h14
		c12,0,17.7-9.9,22.3-17.7c0.7-1.1,1.3-2.3,2-3.4l0.1-0.1l38.3-74.8H1867.3z"/>
</g>
</svg>
