<?xml version="1.0" encoding="UTF-8"?>
<svg version="1.1" xmlns="http://www.w3.org/2000/svg" width="600" height="600">
<path d="M0 0 C20.37877344 18.19995153 37.08110832 38.87067809 50.5078125 62.68310547 C50.84619141 63.27091797 51.18457031 63.85873047 51.53320312 64.46435547 C57.63177913 75.09896602 62.24356947 86.20297431 66.5078125 97.68310547 C66.92957764 98.81039062 66.92957764 98.81039062 67.35986328 99.96044922 C70.67487303 108.95003458 73.19559985 118.01417068 75.2578125 127.37060547 C75.45656982 128.27206299 75.65532715 129.17352051 75.86010742 130.10229492 C78.68460453 143.57828178 79.85974111 156.70243129 79.82348633 170.43359375 C79.82033301 172.9169543 79.8438718 175.3991101 79.86914062 177.88232422 C79.9297097 192.98228711 78.12943951 207.81524428 73.7578125 222.30810547 C73.50177246 223.17580566 73.24573242 224.04350586 72.98193359 224.9375 C64.2033078 253.84505437 48.9780016 276.69003169 27.5078125 297.68310547 C27.1778125 297.02310547 26.8478125 296.36310547 26.5078125 295.68310547 C27.75724535 293.33159302 29.06484028 291.08124473 30.4453125 288.80810547 C43.9411147 265.65575544 49.96016252 240.52706832 49.8828125 213.80810547 C49.88226868 213.0937735 49.88172485 212.37944153 49.88116455 211.64346313 C49.81002515 191.15389416 46.06916112 172.06621092 39.5078125 152.68310547 C39.18006836 151.67256104 39.18006836 151.67256104 38.84570312 150.64160156 C31.4707162 128.02308398 18.78896497 106.82260301 3.5078125 88.68310547 C2.61689305 87.59480478 1.72628893 86.5062459 0.8359375 85.41748047 C-29.41490079 48.82273746 -74.59854204 24.69627667 -121.93310547 19.86401367 C-159.96252116 17.1756148 -196.98644068 24.64180464 -230.64941406 42.70507812 C-232.46612038 43.66927069 -234.29873741 44.59230607 -236.140625 45.50732422 C-262.52825243 58.79978327 -286.01983213 78.77904487 -306.69946289 99.68457031 C-308.44809974 101.45171256 -310.2048574 103.21047162 -311.96289062 104.96826172 C-317.68163454 110.70476493 -323.26948859 116.48513191 -328.4921875 122.68310547 C-329.38052477 123.70479664 -330.26980008 124.7256732 -331.16015625 125.74560547 C-338.33221977 134.10745318 -345.05264552 142.74493299 -351.4921875 151.68310547 C-351.92917969 152.28848145 -352.36617188 152.89385742 -352.81640625 153.51757812 C-372.66483615 181.32828202 -387.08791132 215.25039726 -381.66699219 249.97558594 C-379.7419301 260.70871513 -376.0409751 270.63757772 -370.41015625 279.97607422 C-369.4921875 281.68310547 -369.4921875 281.68310547 -369.4921875 283.68310547 C-387.99956099 278.58687219 -403.34919887 264.73009014 -412.7800293 248.25488281 C-427.58705905 221.02575352 -428.19746565 190.0814799 -420.0234375 160.68310547 C-411.80357093 132.99513387 -396.33965748 109.09061036 -378.4921875 86.68310547 C-377.98397461 86.0434082 -377.47576172 85.40371094 -376.95214844 84.74462891 C-370.75281311 76.96470537 -364.44846281 69.35504288 -357.68359375 62.05810547 C-355.75690901 59.97000507 -353.89796225 57.84448674 -352.0546875 55.68310547 C-347.48082389 50.41392767 -342.45561449 45.58064626 -337.4921875 40.68310547 C-334.75203898 37.95621573 -332.03019111 35.21325114 -329.328125 32.44873047 C-323.20239852 26.20822387 -317.05507458 20.23837099 -310.1796875 14.81201172 C-307.3452978 12.56674662 -304.61221744 10.22402108 -301.8671875 7.87060547 C-228.62781728 -53.05251636 -127.75130545 -74.99457601 0 0 Z " fill="#FF6500" transform="translate(493.4921875,93.31689453125)"/>
<path d="M0 0 C0.495 0.99 0.495 0.99 1 2 C-0.24943285 4.35151245 -1.55702778 6.60186073 -2.9375 8.875 C-11.0891688 22.85936985 -17.01214291 38.0677281 -20 54 C-20.17587646 54.91789307 -20.35175293 55.83578613 -20.53295898 56.78149414 C-22.08883298 65.72448353 -22.36065023 74.51792634 -22.3125 83.5625 C-22.31001251 84.31111298 -22.30752502 85.05972595 -22.30496216 85.83102417 C-22.0314373 139.18400211 2.2508563 188.44043858 39.0625 226.3125 C72.88040719 259.01934659 119.66058998 278.57767202 166.6875 278.3125 C167.38310028 278.31034485 168.07870056 278.3081897 168.79537964 278.30596924 C180.41300883 278.24853921 191.63512769 277.52225381 203 275 C203.90476074 274.80132324 204.80952148 274.60264648 205.74169922 274.39794922 C225.63909752 269.89345087 244.02788125 262.57135826 262 253 C262.72960937 252.61585938 263.45921875 252.23171875 264.2109375 251.8359375 C274.72432991 246.27424527 284.55127677 240.22340111 294 233 C294.57169922 232.56574707 295.14339844 232.13149414 295.73242188 231.68408203 C309.45945754 221.21281765 322.35985758 209.98762115 334.5246582 197.73608398 C336.32215805 195.92778392 338.13022316 194.13054023 339.93945312 192.33398438 C346.02397028 186.25636906 351.76632225 180.10421576 357.11987305 173.3659668 C358.71532184 171.35824128 360.34709292 169.41514685 362.046875 167.49609375 C389.28996889 136.72632201 411.94710254 98.61412002 410.15234375 56.2578125 C409.22522609 42.51745329 405.0810878 29.42427043 397.8203125 17.70703125 C397.54960937 17.14371094 397.27890625 16.58039063 397 16 C397.33 15.34 397.66 14.68 398 14 C406.72739868 17.16806095 413.76525589 21.19876556 421 27 C422.06347656 27.81597656 422.06347656 27.81597656 423.1484375 28.6484375 C439.5638489 41.94946254 449.29313877 64.44985391 452 85 C452.31833472 89.81577041 452.38178595 94.61207189 452.375 99.4375 C452.37418427 100.42236389 452.37418427 100.42236389 452.37335205 101.42712402 C452.32943693 113.01579747 451.16994928 123.8472789 448 135 C447.78569336 135.7616748 447.57138672 136.52334961 447.35058594 137.30810547 C438.2515589 168.67789519 419.35825954 195.44181134 398.54101562 220.15478516 C396.50640936 222.59102631 394.53802133 225.0782448 392.5625 227.5625 C384.82846045 237.03778673 376.2321786 245.88184898 367.51000977 254.44824219 C366.10938373 255.88759208 364.82895253 257.44128919 363.5625 259 C360.92278032 262.09040352 358.11363435 264.59614823 355.02734375 267.22265625 C353.14964868 268.86880511 351.41872302 270.57735116 349.6875 272.375 C346.01550826 276.10514546 342.01121369 279.3496255 337.93359375 282.625 C335.03523632 284.97147313 332.20787743 287.38765018 329.375 289.8125 C280.02062428 330.86723102 215.50465348 357.03110174 150.71728516 351.484375 C127.70598917 349.1818063 105.17365268 343.29227141 84 334 C83.32904297 333.70899414 82.65808594 333.41798828 81.96679688 333.11816406 C71.02393532 328.32622515 60.91917903 322.64774273 51 316 C50.4009082 315.60055176 49.80181641 315.20110352 49.18457031 314.78955078 C19.64988069 294.9069867 -4.5067943 267.71604533 -21.99121094 236.78271484 C-22.97118841 235.05091536 -23.97356727 233.33185213 -24.9765625 231.61328125 C-43.65615148 198.84965391 -52.28752017 161.50910689 -52.4375 124.0625 C-52.44385468 123.2546405 -52.45020935 122.44678101 -52.45675659 121.61444092 C-52.53364843 105.92011785 -50.7958503 90.44544796 -46.25 75.375 C-45.99395996 74.5072998 -45.73791992 73.63959961 -45.47412109 72.74560547 C-36.6954953 43.8380511 -21.4701891 20.99307378 0 0 Z " fill="#FF6500" transform="translate(79,209)"/>
<path d="M0 0 C8.11747147 7.31084575 12.70925124 16.98965093 14.4140625 27.66796875 C15.03798556 31.60106359 15.03798556 31.60106359 18.1015625 34.23046875 C18.8853125 34.56046875 19.6690625 34.89046875 20.4765625 35.23046875 C20.4765625 35.89046875 20.4765625 36.55046875 20.4765625 37.23046875 C13.14863425 39.54170738 5.81586697 41.83705317 -1.52050781 44.12133789 C-4.01644747 44.90054778 -6.5112501 45.68340938 -9.00488281 46.4699707 C-12.58627434 47.59894953 -16.1715294 48.7147974 -19.7578125 49.828125 C-20.87460388 50.18326675 -21.99139526 50.53840851 -23.14202881 50.90431213 C-24.18280579 51.2247197 -25.22358276 51.54512726 -26.29589844 51.87524414 C-27.21079041 52.16170303 -28.12568237 52.44816193 -29.06829834 52.74330139 C-31.63398272 53.25240397 -33.07984524 53.08434447 -35.5234375 52.23046875 C-35.62140625 51.50601563 -35.719375 50.7815625 -35.8203125 50.03515625 C-36.71268445 44.26551005 -37.43243262 39.6444477 -41.5234375 35.23046875 C-49.29948216 29.6504367 -58.66086711 29.69901611 -67.84375 30.7265625 C-73.35192211 31.7623558 -77.80516904 33.72698385 -82.0234375 37.41796875 C-84.02207598 41.16541589 -85.28822037 44.97681928 -84.5234375 49.23046875 C-81.35455714 53.15274897 -78.74811858 54.88991561 -73.8984375 56.10546875 C-72.68027344 56.42386719 -71.46210938 56.74226563 -70.20703125 57.0703125 C-68.64607447 57.45800341 -67.08484288 57.84458852 -65.5234375 58.23046875 C-62.18998678 59.06766086 -58.85811176 59.91052827 -55.52783203 60.76025391 C-53.20684805 61.35090541 -50.8836823 61.93307029 -48.55810547 62.50537109 C-32.39548737 66.58665 -16.78398244 71.5164918 -7.5234375 86.23046875 C-0.19443253 100.87024734 0.3499594 115.5927148 -4.75292969 131.13769531 C-13.47981214 154.84074868 -32.3716033 173.05556458 -54.8359375 183.98046875 C-81.00423911 195.10199693 -114.11795723 198.31962361 -140.9609375 187.91796875 C-146.21422362 185.5482799 -150.88790981 182.63753362 -155.5234375 179.23046875 C-156.3896875 178.65296875 -157.2559375 178.07546875 -158.1484375 177.48046875 C-166.26610086 169.79005083 -172.15111858 158.55890427 -172.6031189 147.23405457 C-172.62159964 144.96122059 -172.6107036 142.69073445 -172.5859375 140.41796875 C-172.57916992 139.23557617 -172.57916992 139.23557617 -172.57226562 138.02929688 C-172.56055062 136.09632114 -172.54261748 134.16338482 -172.5234375 132.23046875 C-167.6529912 131.1453614 -162.78237796 130.06100739 -157.91162109 128.97729492 C-156.26118649 128.60997943 -154.61079449 128.24247249 -152.96044922 127.87475586 C-148.2245292 126.81961015 -143.48787527 125.76788794 -138.74987793 124.72210693 C-137.29275316 124.40034752 -135.83579619 124.07782702 -134.37902832 123.75445557 C-132.43048367 123.32264881 -130.48089436 122.89556404 -128.53125 122.46875 C-127.43699707 122.22809814 -126.34274414 121.98744629 -125.21533203 121.73950195 C-122.5234375 121.23046875 -122.5234375 121.23046875 -119.5234375 121.23046875 C-119.49765625 122.00390625 -119.471875 122.77734375 -119.4453125 123.57421875 C-119.0900751 130.09766928 -118.73260074 135.98726252 -114.5234375 141.23046875 C-106.94201723 147.93710976 -97.60825597 148.65533383 -87.875 148.484375 C-78.17313218 147.74938501 -70.79270012 145.30998637 -63.7109375 138.54296875 C-61.13115064 134.63643436 -59.76009917 130.9477281 -60.5234375 126.23046875 C-67.01198016 117.87052609 -81.73346074 116.34026104 -91.4609375 113.79296875 C-107.87906947 109.46897163 -126.73244029 104.46164763 -137.5234375 90.23046875 C-144.3392038 78.14134198 -143.8130787 64.00929036 -140.625 50.83984375 C-137.14242703 39.42885997 -132.15359414 29.4631053 -124.5234375 20.23046875 C-123.88535156 19.4415625 -123.24726563 18.65265625 -122.58984375 17.83984375 C-94.77548617 -15.06728353 -35.59817793 -27.339811 0 0 Z " fill="#FE6500" transform="translate(371.5234375,211.76953125)"/>
<path d="M0 0 C8.11747147 7.31084575 12.70925124 16.98965093 14.4140625 27.66796875 C15.03798556 31.60106359 15.03798556 31.60106359 18.1015625 34.23046875 C18.8853125 34.56046875 19.6690625 34.89046875 20.4765625 35.23046875 C20.4765625 35.89046875 20.4765625 36.55046875 20.4765625 37.23046875 C13.14863425 39.54170738 5.81586697 41.83705317 -1.52050781 44.12133789 C-4.01644747 44.90054778 -6.5112501 45.68340938 -9.00488281 46.4699707 C-12.58627434 47.59894953 -16.1715294 48.7147974 -19.7578125 49.828125 C-20.87460388 50.18326675 -21.99139526 50.53840851 -23.14202881 50.90431213 C-24.18280579 51.2247197 -25.22358276 51.54512726 -26.29589844 51.87524414 C-27.21079041 52.16170303 -28.12568237 52.44816193 -29.06829834 52.74330139 C-31.63398272 53.25240397 -33.07984524 53.08434447 -35.5234375 52.23046875 C-35.62140625 51.50601563 -35.719375 50.7815625 -35.8203125 50.03515625 C-36.71268445 44.26551005 -37.43243262 39.6444477 -41.5234375 35.23046875 C-49.29948216 29.6504367 -58.66086711 29.69901611 -67.84375 30.7265625 C-73.35192211 31.7623558 -77.80516904 33.72698385 -82.0234375 37.41796875 C-84.02207598 41.16541589 -85.28822037 44.97681928 -84.5234375 49.23046875 C-81.35455714 53.15274897 -78.74811858 54.88991561 -73.8984375 56.10546875 C-72.68027344 56.42386719 -71.46210938 56.74226563 -70.20703125 57.0703125 C-68.64607447 57.45800341 -67.08484288 57.84458852 -65.5234375 58.23046875 C-62.18998678 59.06766086 -58.85811176 59.91052827 -55.52783203 60.76025391 C-53.20684805 61.35090541 -50.8836823 61.93307029 -48.55810547 62.50537109 C-32.39548737 66.58665 -16.78398244 71.5164918 -7.5234375 86.23046875 C-0.19443253 100.87024734 0.3499594 115.5927148 -4.75292969 131.13769531 C-13.47981214 154.84074868 -32.3716033 173.05556458 -54.8359375 183.98046875 C-81.00423911 195.10199693 -114.11795723 198.31962361 -140.9609375 187.91796875 C-146.21422362 185.5482799 -150.88790981 182.63753362 -155.5234375 179.23046875 C-156.3896875 178.65296875 -157.2559375 178.07546875 -158.1484375 177.48046875 C-166.26610086 169.79005083 -172.15111858 158.55890427 -172.6031189 147.23405457 C-172.62159964 144.96122059 -172.6107036 142.69073445 -172.5859375 140.41796875 C-172.57916992 139.23557617 -172.57916992 139.23557617 -172.57226562 138.02929688 C-172.56055062 136.09632114 -172.54261748 134.16338482 -172.5234375 132.23046875 C-167.6529912 131.1453614 -162.78237796 130.06100739 -157.91162109 128.97729492 C-156.26118649 128.60997943 -154.61079449 128.24247249 -152.96044922 127.87475586 C-148.2245292 126.81961015 -143.48787527 125.76788794 -138.74987793 124.72210693 C-137.29275316 124.40034752 -135.83579619 124.07782702 -134.37902832 123.75445557 C-132.43048367 123.32264881 -130.48089436 122.89556404 -128.53125 122.46875 C-127.43699707 122.22809814 -126.34274414 121.98744629 -125.21533203 121.73950195 C-122.5234375 121.23046875 -122.5234375 121.23046875 -119.5234375 121.23046875 C-119.49765625 122.00390625 -119.471875 122.77734375 -119.4453125 123.57421875 C-119.0900751 130.09766928 -118.73260074 135.98726252 -114.5234375 141.23046875 C-106.94201723 147.93710976 -97.60825597 148.65533383 -87.875 148.484375 C-78.17313218 147.74938501 -70.79270012 145.30998637 -63.7109375 138.54296875 C-61.13115064 134.63643436 -59.76009917 130.9477281 -60.5234375 126.23046875 C-67.01198016 117.87052609 -81.73346074 116.34026104 -91.4609375 113.79296875 C-107.87906947 109.46897163 -126.73244029 104.46164763 -137.5234375 90.23046875 C-144.3392038 78.14134198 -143.8130787 64.00929036 -140.625 50.83984375 C-137.14242703 39.42885997 -132.15359414 29.4631053 -124.5234375 20.23046875 C-123.88535156 19.4415625 -123.24726563 18.65265625 -122.58984375 17.83984375 C-94.77548617 -15.06728353 -35.59817793 -27.339811 0 0 Z M-111.5234375 16.23046875 C-112.19761719 16.79121094 -112.87179687 17.35195312 -113.56640625 17.9296875 C-126.38176707 29.57201758 -133.33013943 47.29641903 -134.77734375 64.1953125 C-135.11603414 72.68442331 -133.21771953 79.67091455 -128.8984375 86.98046875 C-115.81613643 99.37422766 -98.2005464 104.30856714 -81.0234375 108.16796875 C-60.31523236 112.87269099 -60.31523236 112.87269099 -53.5234375 120.23046875 C-51.57021662 126.21375296 -51.61620055 132.14259776 -54.4609375 137.79296875 C-60.10900293 146.84253017 -67.45417395 151.30873162 -77.5234375 154.23046875 C-78.5134375 154.56046875 -79.5034375 154.89046875 -80.5234375 155.23046875 C-84.53931766 155.51745871 -88.56095856 155.50829059 -92.5859375 155.54296875 C-93.68099609 155.57197266 -94.77605469 155.60097656 -95.90429688 155.63085938 C-105.51443482 155.70526783 -113.86004587 153.68949305 -121.0546875 147.00390625 C-124.72438408 142.57294282 -126.7908994 136.90763904 -127.5234375 131.23046875 C-135.7602793 131.77158383 -143.61788661 133.44009539 -151.6484375 135.29296875 C-152.89109375 135.57462891 -154.13375 135.85628906 -155.4140625 136.14648438 C-158.45177934 136.83581243 -161.4881396 137.53058055 -164.5234375 138.23046875 C-164.46266779 150.55179495 -161.85667963 160.68429247 -153.4609375 170.10546875 C-134.73900297 186.71907732 -111.0389501 186.07544991 -87.5234375 185.23046875 C-76.12184462 184.42578763 -65.82170986 181.00341233 -55.5234375 176.23046875 C-54.55921875 175.78960937 -53.595 175.34875 -52.6015625 174.89453125 C-33.34512225 165.26631112 -19.00372931 147.79590955 -11.5234375 127.85546875 C-8.06896791 116.54031837 -7.79874295 105.68866085 -13.04296875 94.84765625 C-22.28521493 78.50912079 -37.38989133 74.0080298 -54.61328125 69.22265625 C-57.63342555 68.43381856 -60.66941892 67.735134 -63.71484375 67.05078125 C-87.21396953 61.76259624 -87.21396953 61.76259624 -91.6484375 54.98046875 C-93.41341504 47.4162793 -93.31274207 42.04514204 -89.13671875 35.3046875 C-83.5351623 28.10268635 -75.3809744 24.6225434 -66.5234375 23.23046875 C-55.63161285 22.52189025 -44.91861092 22.01235834 -35.7734375 28.73046875 C-31.49545821 32.65942875 -29.57902992 37.90676857 -27.5234375 43.23046875 C-20.42769239 41.92373708 -13.51760836 40.22647376 -6.5859375 38.23046875 C-5.65458984 37.97007812 -4.72324219 37.7096875 -3.76367188 37.44140625 C-2.4246582 37.05855469 -2.4246582 37.05855469 -1.05859375 36.66796875 C-0.2581665 36.43980469 0.54226074 36.21164063 1.36694336 35.9765625 C3.73279231 35.23697755 3.73279231 35.23697755 6.4765625 33.23046875 C6.15318995 23.52929238 2.50037552 15.15729675 -4.0234375 7.91796875 C-16.99004208 -3.93721258 -33.95799202 -6.34024806 -50.8359375 -6.20703125 C-51.85749435 -6.20147217 -51.85749435 -6.20147217 -52.89968872 -6.19580078 C-75.98503316 -6.01705195 -94.03618763 1.31560076 -111.5234375 16.23046875 Z " fill="#CD0100" transform="translate(371.5234375,211.76953125)"/>
</svg>
