<?xml version="1.0" encoding="UTF-8"?>
<svg xmlns="http://www.w3.org/2000/svg" version="1.1" viewBox="0 0 762.3 262.5">
  <defs>
    <style>
      .cls-1 {
        fill: #00bbf2;
      }

      .cls-2 {
        fill: #76be44;
      }
    </style>
  </defs>
  <!-- Generator: Adobe Illustrator 28.6.0, SVG Export Plug-In . SVG Version: 1.2.0 Build 709)  -->
  <g>
    <g id="Capa_1">
      <g>
        <path class="cls-2" d="M205.6,23.7c-3,8.7-6.1,17.4-9.2,26.1q-4.1,11.6-16.4,11.6c-14.8,0-29.7,0-44.5,0-1.8,0-3.6,0-6.3,0,.9-2.7,1.5-4.7,2.2-6.6,3.3-9.4,6.6-18.8,10.1-28.2.6-1.5,2.4-3.6,3.7-3.7,19.7-.2,39.3,0,59,0,.3,0,.6.3,1.4.7Z"/>
        <g>
          <path d="M228.2,6.9c-6.9,19-13.9,38-20.9,57.2,9.5.6,18.5.9,27.3,1.8,10.7,1.1,21,3.8,30.3,9.3,16,9.4,20.7,23.3,13.6,40.4-4.6,11.1-12.1,20.2-20.8,28.4-25.9,24.5-57,40.1-90.3,51.7-3.8,1.3-6,3.3-7.3,7.1-5.5,16.4-11.3,32.7-17.1,49h-56c-.9-.4-1.7-.9-2.6-1.3-14-5.9-18.9-17.7-13.1-31.7,1.2-2.9,2.4-5.7,3.7-8.9-3.2-.3-5.9-.4-8.5-.9-11.4-2.1-23-3.5-34.1-6.6-11.7-3.2-20.9-10.1-24.3-22.7v-11c4.9-17.8,16.5-30.9,30.1-42.5,16.1-13.7,33.9-24.8,53.3-32.9,8.7-3.6,13-9,15.9-17.6,7.7-23.2,16.4-46,24.7-69,32,0,64,0,96,0ZM207.6,69.5c0,.2,0,.4,0,.6,5.2,2.5,10.6,4.5,15.4,7.6,10.7,6.9,13.9,17.4,7.9,28.6-3.7,6.9-8.5,13.8-14.5,18.8-36.7,31.3-79.9,45.5-127.8,46.1-10.6.1-21-1.5-30.5-6.4-13.6-6.8-17.4-18.7-10.2-32.1,2.6-4.9,6.2-9.2,10-14.7-11.9,9.5-22.3,18.9-28.6,32-7.6,15.9-2.8,29.6,12.9,37.6,11.6,5.9,24.1,7.6,36.8,8,24,.9,47.5-3.2,70.4-9.9,30.6-9,59.4-21.8,84.2-42.3,10-8.2,18.9-17.4,23.9-29.6,5.8-14.1,1.5-26.6-11.7-34.1-3.3-1.9-6.8-3.7-10.5-4.6-9.2-2.2-18.5-3.8-27.8-5.6ZM106.1,157.1c1.7.3,2.5.7,3.3.6,18-1.8,35.3-6.2,51.6-14.2,1.7-.8,3.1-3,3.7-4.9,6.3-17.3,12.5-34.7,18.7-52,3.6-9.9,1-13.6-9.6-13.6-12.1,0-24.3,0-36.4,0q-12.3,0-16.4,11.3c-.3.8-.6,1.5-.9,2.3-2.5,7.1-4.9,14.3-7.3,21.3,8.1,3.4,8.9,5.2,6.1,12.9-4.2,11.8-8.4,23.7-12.8,36.2ZM205.6,23.7c-.9-.4-1.1-.7-1.4-.7-19.7,0-39.3-.2-59,0-1.3,0-3.1,2.1-3.7,3.7-3.5,9.3-6.8,18.8-10.1,28.2-.7,1.9-1.3,3.9-2.2,6.6,2.7,0,4.5,0,6.3,0,14.8,0,29.7,0,44.5,0q12.2,0,16.4-11.6c3.1-8.7,6.1-17.5,9.2-26.1ZM145.8,203.6c-14.4,2.2-28.3,5-42.3,6.3-19.1,1.8-13.3-1.8-20.1,15.6-2.4,6.2.3,10.3,7,10.4,13.5.2,27,0,40.5-.2,1.5,0,3.7-1.6,4.2-3,3.8-9.7,7.2-19.6,10.7-29.1Z"/>
          <path d="M376,158.5c-2.6,15-5.1,29.4-7.7,43.9h-11.1c4.4-22.8,8.7-45.4,13-67.9h11.7c2.8,14.8,5.6,29.4,8.5,44.6,2.1-12.9,4.1-25,6.2-37.1,1.5-8.6,2.9-9.3,12.3-7-4.3,22.3-8.5,44.6-12.9,67.3h-11c-3-14.3-5.9-28.7-9.1-43.8Z"/>
          <path d="M345.2,202.5h-11c-3-14.5-6-28.9-9.1-44-2.6,15-5.1,29.4-7.7,43.9h-11.1c4.4-22.8,8.7-45.3,13-67.9h11.7c2.8,14.8,5.6,29.4,8.5,44.6,2.5-15.3,5-29.9,7.4-44.6h11.2c-4.3,22.7-8.6,45.1-13,68Z"/>
          <path d="M702.5,134.5c-1.9,9.9-3.6,19.6-5.5,29.1-2.2,11.6-4.6,23.2-6.7,34.8-.5,2.8-1.1,4.9-4.6,4.2-3-.6-6.9,1.9-8-3.8-2.5-13.5-5.5-27-8.4-40.4-1.7,9.9-3.4,20.1-5.2,30.2-.3,1.8-.7,3.6-1,5.4q-1.7,9.7-12.4,8.1c1.5-7.8,2.9-15.6,4.4-23.4,2.5-13.1,5.2-26.1,7.3-39.2.7-4.6,2.8-5.8,6.9-5.3,1.8.2,3.6,0,5.9,0,2.8,14.9,5.6,29.6,8.7,45.4,1.5-9.6,2.7-18.1,4.1-26.5.7-4.4,1.9-8.8,2.4-13.3.5-4.5,2.4-6.5,7.1-5.6,1.4.3,2.9.2,5,.3Z"/>
          <path d="M410.1,179.9c.3-12.5,2.9-24.4,9.8-35,4.5-6.9,10.6-11.4,19.3-11.3,8.1.1,13.6,3.6,15.1,11.7,3.5,18.3,0,35.5-11.4,50.4-5.5,7.1-13.3,9.6-21.9,6.7-8.3-2.8-10.2-10.2-11-18-.1-1.5,0-3,0-4.5ZM443.2,156.7c-.2,0-.4-.1-.6-.2-.1-2.2.2-4.4-.5-6.4-.6-1.9-1.9-4.5-3.4-4.8-1.8-.4-4.5.7-6,2.1-1.8,1.6-3,4-3.9,6.3-4,9.8-6.1,20.1-5.4,30.6.2,2.6,2.1,6.3,4.3,7.4,3.3,1.7,5.7-1.6,7.3-4.4,1.2-2.1,2.4-4.4,3-6.8,1.9-7.9,3.5-15.8,5.2-23.8Z"/>
          <path d="M649.7,156c-.4,12.9-2.8,24.2-8.9,34.5-3.9,6.7-9.2,11.8-17.4,12.7-8.9,1-16-2.8-17.9-11.5-4-18.9-.3-36.4,12.2-51.4,2.2-2.6,5.8-4.6,9.1-5.8,11.5-3.9,20.8,2,22.4,14.1.4,2.8.4,5.6.5,7.4ZM637.3,156.6c-.2,0-.5-.1-.7-.2-.2-2.5,0-5-.6-7.4-1-4.4-4.9-5.6-8.4-2.7-1.2,1-2.4,2.4-3.1,3.8-5.7,11.2-7.9,23.2-7,35.7.1,2.1,2.4,5.1,4.3,5.7,1.6.5,4.5-1.3,6.1-2.9,1.7-1.7,2.9-4.2,3.5-6.5,2.2-8.5,4-17,6-25.6Z"/>
          <path d="M536,202.4h-11.5v-15.6c-3.7,0-7-.2-10.2.1-1.1.1-2.4,1.3-3.1,2.3-.8,1.2-1.2,2.7-1.7,4.1q-3.8,10-15.5,8.9c.5-1.6,1-3.2,1.5-4.6,7.9-19.4,15.9-38.8,23.6-58.3,1.5-3.8,3.3-5.7,7.5-5.2,2.9.4,5.9,0,9.4,0v68.2ZM525.1,148.7c-3.4,9.8-6.5,18.9-9.7,28.2h9.7v-28.2Z"/>
          <path d="M476.3,183.6c.1-.2.6-1.2,1-2.3,5-14.6,9.9-29.3,15.2-43.8.5-1.5,2.8-2.9,4.5-3.2,3.2-.5,6.5-.1,10.4-.1-.9,2.5-1.5,4.3-2.3,6.1-7.9,18.9-16,37.7-23.6,56.6-1.7,4.3-3.8,6.6-8.6,5.8-2.3-.4-4.6,0-7.7,0-.7-22.8-1.4-45.3-2.2-68.1h13.3v49.1Z"/>
          <path d="M739.8,135.9c-1.2,3.6-2.2,7-3.3,10.4-2.6-.5-4.6-1.1-6.7-1.3-3.8-.3-7.6.9-8.5,4.6-.8,3,.2,6.6,1.1,9.7.4,1.6,2.3,2.7,3.7,4,9.6,9.1,11.8,19.1,6.3,29.1-4.8,8.8-15.6,12.7-27.5,9.9-1.4-.3-2.8-.9-4.8-1.5.9-3.7,1.8-7.1,2.8-10.8,3.3.6,6.3,1.4,9.3,1.6,3.9.3,7.3-1,9.2-4.7,1.9-3.7,1.1-7.2-1.4-10.3-1.7-2.2-3.9-4.1-5.8-6.2-8-8.6-9.1-19.6-2.9-28.3,5.8-8.1,17.7-11,28.6-6.4Z"/>
          <path d="M583.4,134.2c-.8,4.2-1.5,7.9-2.3,11.9h-11.7c-2.1,10.7-4.1,21.1-6.1,31.4-1.3,6.9-2.9,13.7-3.8,20.6-.5,3.6-1.8,4.9-5.4,4.5-2.4-.3-4.9,0-8.2,0,3.6-18.9,7.1-37.2,10.7-56.1-4-.2-7.5-.4-11.6-.6.6-3.4,1-6.5,1.8-9.5.3-.9,1.8-2.1,2.7-2.1,11.1-.1,22.3,0,34,0Z"/>
          <path d="M294.5,134.5h12.7c-1.8,9.5-3.5,18.7-5.2,28-2.2,11.6-4.7,23.2-6.6,34.8-.7,4.4-2.4,6-6.7,5.4-2.1-.3-4.3,0-7.2,0,4.4-23,8.7-45.5,13-68.2Z"/>
          <path d="M590,202.4h-12.8c4.4-22.8,8.7-45.3,13-67.9h12.8c-4.3,22.7-8.6,45.1-13,67.9Z"/>
          <path d="M309.4,110.5c-.4-1.5-1.5-3.5-.9-4.5,2.5-5,6.9-1.2,11.2-2.5-1.4,7.4-2.5,14.1-3.9,20.7-.2.8-1.1,1.6-1.9,2-8.3,4.2-18.2-.7-19.6-9.9-1.2-8.7.6-16.9,6-24.1,5.2-6.9,13.5-9.2,21.6-6.1-.7,1.9-1.3,3.9-2,5.8-12.8,0-21.7,13.3-16.9,24.9.6,1.5,2.8,2.3,4.3,3.4.9-1.3,2.2-2.5,2.7-4,.6-1.7.7-3.6,1-5.4l-1.7-.4Z"/>
          <path d="M361.2,102.2c-7.2,6.3-4.6,16.4-8.1,24.3h-7.3c1.7-9.6,3.3-18.9,5.2-28.2.2-.8,1.8-1.9,2.7-2,1.6,0,3.2.7,4.8,1.1,0,.4,0,.8-.1,1.2,1.3-.7,2.5-1.6,3.8-2.1,5.6-2.4,10.2.5,9.5,6.4-.9,7.9-2.6,15.7-3.9,23.4h-7.8c1.3-8.1,2.6-15.8,3.9-23.6-.9-.2-1.8-.5-2.6-.7Z"/>
          <path d="M429.4,98.2c.2-.1,1.5-1.1,3.1-1.6,5.3-2,9.5.6,8.9,6.1-.8,8-2.4,16-3.7,24h-7.9c1.3-8,2.6-15.8,3.9-23.5l-1.9-.7c-4.8,1.7-5,6.5-5.8,10.8-.9,4.4-1.7,8.8-2.6,13.4h-7.8c1.1-6,2.2-11.8,3.3-17.6.5-2.9.8-6,1.6-8.8.4-1.4,1.6-3.4,2.8-3.6,1.5-.3,3.3.8,6.1,1.6Z"/>
          <path d="M378.8,96.6h8c-1,5.7-2,11.1-3,16.4-.3,1.6-.6,3.3-.6,4.9,0,.9.6,2.4,1,2.5,1,0,2.5-.3,2.9-1,1.1-2.2,2.1-4.5,2.7-6.9.8-3.4,1.3-6.9,2-10.3q1.3-6.4,8.7-5.3c-1.8,9.9-3.6,19.7-5.6,30.5-2.7-.7-5-1.3-7.2-1.9,0-.4.2-.9.3-1.3-1.2.8-2.4,1.8-3.7,2.4-5.1,2.2-9.5-.3-9.1-5.9.7-8.1,2.3-16,3.6-24Z"/>
          <path d="M330.3,115.9c.6,5.4,3.7,5.8,10.3,4.2,1.6,5.6,1.2,6.3-4.4,6.9-9.9,1.1-15.3-3.9-13.4-13.7,1-5,3.5-10,6.5-14.1,2.5-3.5,7.1-4.3,11.4-2.5,3.7,1.6,4.7,5,4.5,8.7-.3,4.7-3,7.7-7.3,9.1-2.3.7-4.8,1-7.5,1.5ZM330.5,107.9c.4.5.9.9,1.3,1.4,3-.1,5.9-.6,6.3-4.5,0-.8-1.2-1.6-1.8-2.5-1.9,1.9-3.9,3.7-5.8,5.6Z"/>
          <path d="M452.4,115.9c1.7,6.9,6.4,4.8,10.4,4.1,1.8,5.6,1.3,6.3-4.3,6.9-9.8,1.1-14.1-3-13.5-12.8.3-5.8,2-11.1,6.5-15.2,3.3-3,7.3-4.2,11.5-2.4,3.7,1.6,4.6,4.9,4.4,8.7-.3,4.8-2.9,7.7-7.3,9.1-2.3.7-4.8,1-7.8,1.5ZM452.7,108.1c4.1,1.2,6.9.8,7.5-2.9.1-.8-1.2-1.9-1.9-2.8-1.9,1.9-3.8,3.8-5.7,5.7Z"/>
          <path d="M401.3,127c1.8-9.7,3.5-18.5,5.1-27.3,1.1-5.7,5-2.8,8.5-3.2-1.8,9.6-3.4,18.7-5.4,27.7-1.1,5-5,1.7-8.3,2.8Z"/>
          <path d="M411.5,93.4c-1-1.4-3.1-3.2-2.7-4.2.6-2,2.6-3.6,4-5.3,1.3,1.2,3.6,2.5,3.5,3.7-.1,2-1.8,3.9-2.8,5.8-.7,0-1.4,0-2,0Z"/>
          <path class="cls-1" d="M207.6,69.5c9.3,1.8,18.6,3.4,27.8,5.6,3.7.9,7.2,2.7,10.5,4.6,13.2,7.5,17.5,20,11.7,34.1-5,12.2-14,21.4-23.9,29.6-24.9,20.4-53.6,33.2-84.2,42.3-22.9,6.8-46.4,10.8-70.4,9.9-12.7-.5-25.2-2.1-36.8-8-15.7-8-20.5-21.7-12.9-37.6,6.2-13.1,16.7-22.5,28.6-32-3.8,5.5-7.4,9.9-10,14.7-7.2,13.4-3.4,25.2,10.2,32.1,9.6,4.8,20,6.5,30.5,6.4,47.9-.6,91-14.8,127.8-46.1,5.9-5,10.7-11.9,14.5-18.8,6-11.1,2.8-21.6-7.9-28.6-4.8-3.1-10.3-5.1-15.4-7.6,0-.2,0-.4,0-.6Z"/>
          <path class="cls-2" d="M106.1,157.1c4.4-12.5,8.5-24.3,12.8-36.2,2.7-7.7,2-9.6-6.1-12.9,2.4-7.1,4.9-14.2,7.3-21.3.3-.8.6-1.5.9-2.3q4.1-11.4,16.4-11.3c12.1,0,24.3,0,36.4,0,10.7,0,13.2,3.7,9.6,13.6-6.2,17.3-12.4,34.7-18.7,52-.7,1.9-2.1,4.1-3.7,4.9-16.3,8-33.6,12.3-51.6,14.2-.8,0-1.6-.3-3.3-.6Z"/>
          <path class="cls-2" d="M145.8,203.6c-3.4,9.5-6.9,19.3-10.7,29.1-.5,1.4-2.8,3-4.2,3-13.5.3-27,.4-40.5.2-6.6,0-9.4-4.2-7-10.4,6.7-17.4,1-13.8,20.1-15.6,14-1.3,27.9-4.1,42.3-6.3Z"/>
          <path d="M161.8,234.8c.5-.1,1.3-.2,2-.2,1.1,0,1.8.2,2.3.7.4.4.6.9.6,1.5,0,1.1-.7,1.8-1.5,2.1h0c.6.3,1,.8,1.2,1.7.3,1.1.5,1.9.6,2.2h-1.1c-.1-.2-.3-.9-.5-1.9-.2-1.1-.7-1.5-1.6-1.6h-1v3.5h-1v-8ZM162.8,238.5h1.1c1.1,0,1.8-.6,1.8-1.5s-.8-1.5-1.9-1.5c-.5,0-.9,0-1,0v3Z"/>
          <path d="M164.4,246.2c-4.1,0-7.5-3.4-7.5-7.5s3.4-7.5,7.5-7.5,7.5,3.4,7.5,7.5-3.4,7.5-7.5,7.5ZM164.4,232.3c-3.6,0-6.5,2.9-6.5,6.5s2.9,6.5,6.5,6.5,6.5-2.9,6.5-6.5-2.9-6.5-6.5-6.5Z"/>
          <path d="M745.8,191c.5-.1,1.3-.2,2-.2,1.1,0,1.8.2,2.3.7.4.4.6.9.6,1.5,0,1.1-.7,1.8-1.5,2.1h0c.6.3,1,.8,1.2,1.7.3,1.1.5,1.9.6,2.2h-1.1c-.1-.2-.3-.9-.5-1.9-.2-1.1-.7-1.5-1.6-1.6h-1v3.5h-1v-8ZM746.8,194.7h1.1c1.1,0,1.8-.6,1.8-1.5s-.8-1.5-1.9-1.5c-.5,0-.9,0-1,0v3Z"/>
          <path d="M748.4,202.4c-4.1,0-7.5-3.4-7.5-7.5s3.4-7.5,7.5-7.5,7.5,3.4,7.5,7.5-3.4,7.5-7.5,7.5ZM748.4,188.4c-3.6,0-6.5,2.9-6.5,6.5s2.9,6.5,6.5,6.5,6.5-2.9,6.5-6.5-2.9-6.5-6.5-6.5Z"/>
        </g>
      </g>
    </g>
  </g>
</svg>