<?xml version="1.0" encoding="utf-8"?>
<!-- Generator: Adobe Illustrator 27.5.0, SVG Export Plug-In . SVG Version: 6.00 Build 0)  -->
<svg version="1.1" id="Artwork" xmlns="http://www.w3.org/2000/svg" xmlns:xlink="http://www.w3.org/1999/xlink" x="0px" y="0px"
	 viewBox="0 0 512.2 102.1" style="enable-background:new 0 0 512.2 102.1;" xml:space="preserve">
<style type="text/css">
	.st0{fill:#06038D;}
</style>
<g>
	<path class="st0" d="M49.1,54.7l24.4-23.2c0.4-0.4,1,0.1,0.8,0.5L49,97.9c-0.2,0.4-0.8,0.4-0.9,0L11.7,3.1
		c-0.1-0.3,0.2-0.7,0.5-0.7H85c0.4,0,0.6,0.4,0.5,0.7l-7.7,20c-0.1,0.2-0.3,0.3-0.5,0.3H37.1c-0.4,0-0.6,0.4-0.5,0.7l11.7,30.4
		C48.4,54.9,48.8,55,49.1,54.7z M430.1,26.4l-6.4,12h21l-19.2,35.9h23.9l19.3-35.9h19.7l20.9-12L430.1,26.4L430.1,26.4z M259.8,26.4
		l-25.6,47.8h-21.7l25.6-47.8C238.1,26.4,259.8,26.4,259.8,26.4z M345.3,26.4l-25.7,47.8H294l6.1-11.3h-25.9l13.1-7.6h16.9l9.4-17.6
		h-24.8c-0.6,0-4.9,0.3-6.7,3.6l0,0l-11.3,21.2c-3.5,6.5-11.6,11.8-18.1,11.8h-12.2l19.3-35.9c3.5-6.6,11.8-12,18.4-12L345.3,26.4
		L345.3,26.4z M415,26.4c6.6,0,9.1,5.3,5.6,12l-19.2,35.9h-23.9l17.1-32.2l0,0c2.4-4.4-3.1-4.4-3.1-4.4h-21.7l-19.5,36.6h-23.9
		l25.5-47.8H415 M221.5,44.8l-9.4,17.6c-3.5,6.5-11.6,11.8-18.1,11.8h-61.6l19.3-35.9c3.6-6.6,11.8-12,18.4-12h62.4l-19.7,11.3H179
		c0,0-3,0-4.5,2.7L162.4,63h25.1l4.1-7.6h-16.1l18.2-10.6h27.5C221.3,44.8,221.5,44.8,221.5,44.8z"/>
</g>
</svg>
