<?xml version="1.0" encoding="utf-8"?>
<!-- Generator: Adobe Illustrator 27.5.0, SVG Export Plug-In . SVG Version: 6.00 Build 0)  -->
<svg version="1.1" id="Capa_1" xmlns="http://www.w3.org/2000/svg" xmlns:xlink="http://www.w3.org/1999/xlink" x="0px" y="0px"
	 viewBox="0 0 136 22" style="enable-background:new 0 0 136 22;" xml:space="preserve">
<g id="Giro_Logo_Desktop">
	<g id="Icons-_x2F_-.Logos-_x2F_-XL" transform="translate(0.000000, -19.000000)">
		<g id="mobile-logo-2" transform="translate(1.000000, 22.000000)">
			<g id="mobile-logo">
				<path id="Shape" d="M133.7,14c-0.2,2.3-2.1,4-4.3,4h-15.8c-2.2,0-4.1-1.8-4.3-4c-0.4-3.3-0.4-6.6,0-9.9c0.2-2.3,2.1-4,4.3-4
					h15.8c2.2,0,4.1,1.8,4.3,4C134.1,7.3,134.1,10.7,133.7,14L133.7,14z M128,5.3c0-1.8-1.5-3.3-3.2-3.3h-6.5
					c-1.8,0-3.2,1.5-3.2,3.3v7.4c0,1.8,1.5,3.3,3.2,3.3h6.5c1.8,0,3.2-1.5,3.2-3.3V5.3z M102.1,8.7c-0.9,0.2-1.4,1-1,1.9
					c0.9,2.3,2.3,4.6,3.9,6.3c0.4,0.4,0,1.1-0.5,1.1H99c-2.3-2.2-4-4.8-5.2-7.9c-0.3-0.8,0.1-1.6,1.1-1.8c1.5-0.3,3-0.5,4.5-0.8
					c0.9-0.1,1.6-0.7,1.6-1.7V5.3c0-1.8-1.4-3.3-3.2-3.3l-7,0c-1.5,0-2.6,1.2-2.6,2.7v10.5c0,1.5-1.2,2.7-2.6,2.7h-2.9
					c-0.3,0-0.6-0.3-0.6-0.6V0.6c0-0.2,0.1-0.3,0.2-0.4S82.4,0,82.6,0h19.9c2.3,0,4.1,1.8,4.3,4c0.1,0.8,0.1,1.5,0.2,2.3
					c0,0.9-0.7,1.5-1.6,1.7C104.3,8.2,103.1,8.5,102.1,8.7L102.1,8.7z M78.4,18h-2.8c-1.4,0-2.6-1.2-2.6-2.7V0.6
					c0-0.2,0.1-0.3,0.2-0.4S73.4,0,73.6,0h2.8C77.8,0,79,1.2,79,2.7v14.7C79,17.7,78.7,18,78.4,18L78.4,18z M62.3,12.8
					C61,10.4,62.7,8.2,64.3,7c3,2.5,5.1,5.5,6.5,9.2c0.3,0.8-0.1,1.8-1.1,1.8H50.6c-2.2,0-4.1-1.8-4.3-4c-0.4-3.3-0.4-6.6,0-9.9
					c0.2-2.3,2.1-4,4.3-4H71v0.4C71,1.3,70.3,2,69.4,2L55.3,2c-1.8,0-3.2,1.5-3.2,3.3v7.3c0,1.8,1.4,3.3,3.2,3.3h6.6
					c0.9,0,1.4-1,1-1.9C62.7,13.7,62.5,13.3,62.3,12.8L62.3,12.8z M16.9,18c-6,0-11.7-2-16.4-5.7c-0.6-0.5-0.7-1.4,0-1.9
					c2.5-1.9,4.8-3.5,8.1-5l0.3,0.6c0.6,1.2,0.2,2.4-0.6,3C8,9.2,7.8,9.3,7.4,9.6c-0.9,0.7-0.9,1.9,0.1,2.6c2.1,1.5,5.5,3,9.4,3
					c6.5,0,12.4-3.9,15-9.9c0.4-1-0.2-2-1.3-2.3c-2.6-0.6-7.5-0.6-10.1,0c-1.1,0.3-1.7,1.3-1.3,2.3c0.2,0.5,0.4,0.9,0.6,1.3
					c1.6,2.9-0.6,5.8-2.7,7.2c-3.7-3-6.2-6.5-8-11.1C9,2.1,9.4,1.3,10.2,1.1C13.1,0.5,20,0,25.6,0C30.4,0,37.1,0.5,40,1.1
					c0.9,0.2,1.2,1.1,0.9,1.7C36.6,11.7,27.7,18,16.9,18z"/>
			</g>
		</g>
	</g>
</g>
</svg>
