<?xml version="1.0" encoding="UTF-8"?>
<svg xmlns="http://www.w3.org/2000/svg" version="1.1" viewBox="0 0 394 404">
  <defs>
    <style>
      .cls-1 {
        fill: #231f20;
      }

      .cls-2 {
        fill: #f49c1f;
      }

      .cls-3 {
        fill: #09bfd6;
      }

      .cls-4 {
        fill: #fff;
      }

      .cls-5 {
        fill: #e45425;
      }
    </style>
  </defs>
  <!-- Generator: Adobe Illustrator 28.6.0, SVG Export Plug-In . SVG Version: 1.2.0 Build 709)  -->
  <g>
    <g id="Layer_1">
      <g>
        <g>
          <path class="cls-2" d="M197,12.7c-5.7,0-11.4,1.4-16.4,4L28.3,95.7c-6.1,3.1-10.9,7.8-14.3,13.5l182.9,92.8V12.7Z"/>
          <path class="cls-3" d="M365.7,95.7L213.4,16.7c-5.1-2.6-10.7-4-16.4-4v189.3l182.9-92.8c-3.3-5.6-8.2-10.3-14.3-13.5Z"/>
          <path class="cls-3" d="M14.1,294.8c3.3,5.6,8.2,10.3,14.3,13.5l152.2,79c5.1,2.6,10.7,4,16.4,4v-189.3L14.1,294.8Z"/>
          <path class="cls-5" d="M379.9,294.8c3.2-5.4,5-11.7,5-18.2V127.4c0-6.6-1.8-12.8-5-18.2l-182.9,92.8,182.9,92.8Z"/>
          <path class="cls-5" d="M14.1,109.2c-3.2,5.4-5,11.7-5,18.2v149.2c0,6.6,1.8,12.8,5,18.2l182.9-92.8L14.1,109.2Z"/>
          <path class="cls-2" d="M197,391.3c5.7,0,11.4-1.4,16.4-4l152.2-79c6.1-3.1,10.9-7.8,14.3-13.5l-182.9-92.8v189.3Z"/>
        </g>
        <path class="cls-1" d="M209.1,25.1l152.2,79c8.7,4.5,14.1,13.5,14.1,23.3v149.2c0,9.8-5.4,18.7-14.1,23.3l-152.2,79c-7.6,3.9-16.6,3.9-24.1,0l-152.2-79c-8.7-4.5-14.1-13.5-14.1-23.3V127.4c0-9.8,5.4-18.7,14.1-23.3L184.9,25.1c7.6-3.9,16.6-3.9,24.1,0Z"/>
        <path class="cls-1" d="M209.1,25.1l152.2,79c8.7,4.5,14.1,13.5,14.1,23.3v149.2c0,9.8-5.4,18.7-14.1,23.3l-152.2,79c-7.6,3.9-16.6,3.9-24.1,0l-152.2-79c-8.7-4.5-14.1-13.5-14.1-23.3V127.4c0-9.8,5.4-18.7,14.1-23.3L184.9,25.1c7.6-3.9,16.6-3.9,24.1,0Z"/>
        <path class="cls-4" d="M140.1,203h43.5v48.6s-12.2,10.4-53.3,10.4c-60,0-80-28.1-80-58.4s28.7-59.6,83.2-59.6,50.1,8.1,50.1,8.1v27.9h-9.9c-6.6-2.1-17-4.1-33.2-4.1-34.4,0-43.9,13.8-43.9,26,0,18.9,14.2,29.7,32.6,29.7s10.8-1.2,10.8-1.2v-27.3ZM292.7,148.5v61c0,11-7.8,22.4-23.6,22.4s-23.6-11.4-23.6-22.4v-61h-42.3v68.7c0,31.2,27.4,44.8,65.8,44.8s65.8-13.6,65.8-44.8v-68.7h-42.3Z"/>
        <polygon points="197 202 197 202 197 202 197 202"/>
        <path class="cls-1" d="M348.5,24.5h-5.7v-2.9h14.5v2.9h-5.7v14.9h-3.2v-14.9ZM360.6,21.6h3.3l5.4,8.4,5.4-8.4h3.3v17.9h-3.1v-12.8l-5.6,8.4h-.1l-5.6-8.4v12.8h-3.1v-17.9Z"/>
      </g>
    </g>
  </g>
</svg>