<?xml version="1.0" encoding="utf-8"?>
<!-- Generator: Adobe Illustrator 27.2.0, SVG Export Plug-In . SVG Version: 6.00 Build 0)  -->
<svg version="1.1" id="Capa_1" xmlns="http://www.w3.org/2000/svg" xmlns:xlink="http://www.w3.org/1999/xlink" x="0px" y="0px"
	 viewBox="0 0 722 165" style="enable-background:new 0 0 722 165;" xml:space="preserve">
<style type="text/css">
	.st0{fill-rule:evenodd;clip-rule:evenodd;}
	.st1{fill-rule:evenodd;clip-rule:evenodd;stroke:#000000;stroke-width:0.216;stroke-miterlimit:22.9256;}
	.st2{fill-rule:evenodd;clip-rule:evenodd;fill:#FFFFFF;}
	.st3{fill:#FFFFFF;}
</style>
<g>
	<path class="st0" d="M30,107.6h374.7l27.7-14.4l-1.7,14.4h95.9l181.8-86.5l4.4-8.9l-2.2-2.2H599.8l-18.7,7.5l1-7.5h-75.4L489,16.7
		l-4.4-6.7H84.9L17.7,70.4C7.1,79.9,11.3,99.9,30,107.6L30,107.6z"/>
	<path class="st1" d="M135.7,124h462.9c5.4,0,9.9,4.4,9.9,9.9v13.2c0,5.4-4.4,9.9-9.9,9.9H135.7c-5.4,0-9.9-4.4-9.9-9.9v-13.2
		C125.8,128.5,130.2,124,135.7,124L135.7,124z"/>
	<polygon class="st2" points="426.9,61 504.5,27.7 555.5,27.7 528.9,63.2 597.6,27.7 655.2,27.7 526.5,91 454.8,90 477.9,61 
		400.3,89.8 327.3,90 384.7,27.7 457.9,27.7 426.9,61 	"/>
	<path class="st2" d="M326,38.8H144.7l-33.6,37.7h76.3l15.5-11.1h-40.8l12-13.3h137.5c-11.9,23.6-48,40.3-54.8,37.9L29,91
		c-0.7-5.6,0.1-8.9,4.3-12.6l60.5-53.1l237.8,2.4L326,38.8L326,38.8z"/>
	<path class="st3" d="M147,135.9h7.6v0.5c0.1-0.1,0.2-0.1,0.3-0.2c0.1-0.1,0.3-0.1,0.4-0.2c0.2,0,0.3-0.1,0.5-0.1c0.2,0,0.3,0,0.5,0
		h8.1c0.4,0,0.7,0,1,0.1c0.3,0.1,0.5,0.1,0.7,0.2c0.2,0.1,0.3,0.1,0.4,0.2c0.1,0.1,0.2,0.1,0.2,0.2c0.1,0.1,0.1,0.1,0.1,0.1
		c0,0,0,0,0,0c0-0.1,0.1-0.2,0.2-0.3c0.1-0.1,0.2-0.2,0.3-0.2c0.1-0.1,0.3-0.2,0.4-0.2c0.2,0,0.4-0.1,0.7-0.1h6.6
		c0.5,0,0.9,0,1.3,0.1c0.4,0,0.7,0.1,1,0.2c0.3,0.1,0.6,0.1,0.8,0.2c0.2,0.1,0.4,0.2,0.6,0.3c0.1,0.1,0.3,0.2,0.3,0.3
		c0.1,0.1,0.2,0.2,0.2,0.3c0.1,0.1,0.1,0.3,0.2,0.4c0,0.1,0.1,0.3,0.1,0.4v4.5h-7.6v-5.1c0-0.1,0-0.1-0.1-0.2
		c-0.1,0-0.1-0.1-0.2-0.1c-0.1,0-0.2,0-0.3-0.1c-0.1,0-0.2,0-0.3,0h-3.2c-0.1,0-0.2,0-0.3,0c-0.1,0-0.2,0-0.2,0.1
		c-0.1,0-0.1,0.1-0.2,0.1c0,0-0.1,0.1-0.1,0.1v5.1h-7.6v-5c0,0,0-0.1-0.1-0.1c0-0.1-0.1-0.1-0.2-0.1c-0.1,0-0.2-0.1-0.3-0.1
		c-0.1,0-0.3,0-0.5,0h-3c-0.1,0-0.2,0-0.3,0c-0.1,0-0.2,0.1-0.3,0.1c-0.1,0-0.1,0.1-0.2,0.1c0,0-0.1,0.1-0.1,0.1v5H147V135.9
		L147,135.9z M204.4,138.2v4.4H197l-0.5-0.7c0,0.1-0.1,0.1-0.1,0.1c-0.1,0-0.1,0.1-0.2,0.1c-0.1,0.1-0.1,0.1-0.2,0.1
		c-0.1,0-0.2,0.1-0.3,0.1c-0.3,0.1-0.5,0.1-0.8,0.2c-0.3,0-0.6,0.1-0.9,0.1h-7.6c-0.4,0-0.8,0-1.1,0c-0.3,0-0.6-0.1-0.9-0.1
		c-0.3-0.1-0.6-0.1-0.8-0.2c-0.2-0.1-0.4-0.2-0.6-0.3c-0.2-0.1-0.3-0.2-0.4-0.4c-0.1-0.1-0.2-0.3-0.2-0.4c0-0.1-0.1-0.3-0.1-0.4
		c0-0.1,0-0.3,0-0.4c0-0.1,0-0.2,0-0.4c0-0.1,0-0.3,0.1-0.4c0-0.1,0.1-0.3,0.2-0.4c0.1-0.1,0.2-0.3,0.3-0.4c0.2-0.1,0.4-0.2,0.6-0.3
		c0.2-0.1,0.5-0.2,0.9-0.2c0.3-0.1,0.6-0.1,0.9-0.1c0.3,0,0.7,0,1.1,0h8.5c0.2,0,0.3,0,0.5-0.1c0.2,0,0.3-0.1,0.4-0.1
		c0.1,0,0.2-0.1,0.2-0.1c0.1-0.1,0.1-0.1,0.1-0.1c0-0.1,0-0.1-0.1-0.2c-0.1-0.1-0.2-0.1-0.3-0.1c-0.1,0-0.2-0.1-0.4-0.1
		c-0.1,0-0.3,0-0.4,0h-11.3v-1.3h15.8c0.5,0,0.9,0,1.3,0c0.4,0,0.7,0.1,1.1,0.1c0.4,0.1,0.7,0.1,0.9,0.2c0.3,0.1,0.5,0.2,0.7,0.3
		c0.2,0.1,0.3,0.2,0.5,0.3c0.1,0.1,0.2,0.2,0.3,0.4c0.1,0.2,0.2,0.3,0.2,0.5C204.3,137.9,204.4,138.1,204.4,138.2L204.4,138.2z
		 M196.1,139.4H192c-0.2,0-0.4,0-0.5,0.1c-0.2,0-0.3,0.1-0.5,0.1c-0.1,0.1-0.2,0.1-0.3,0.2c-0.1,0.1-0.1,0.1-0.1,0.2v1
		c0,0,0,0.1,0.1,0.1c0.1,0,0.1,0.1,0.2,0.1c0.1,0,0.3,0.1,0.4,0.1c0.2,0,0.3,0.1,0.4,0.1h3.3c0.1,0,0.2,0,0.4,0
		c0.1,0,0.3-0.1,0.4-0.1c0.1,0,0.2-0.1,0.2-0.1c0.1,0,0.1-0.1,0.1-0.1V139.4L196.1,139.4z M219.6,137.2h-3.7c-0.1,0-0.2,0-0.4,0
		c-0.1,0-0.2,0.1-0.3,0.1c-0.1,0-0.2,0.1-0.2,0.1c-0.1,0.1-0.1,0.1-0.1,0.2v3.3c0,0,0,0.1,0.1,0.1c0.1,0.1,0.1,0.1,0.3,0.1
		c0.1,0,0.2,0.1,0.3,0.1c0.1,0,0.3,0,0.4,0h3.6c0.1,0,0.2,0,0.3,0c0.1,0,0.2-0.1,0.3-0.1c0.1,0,0.2-0.1,0.2-0.1
		c0.1-0.1,0.1-0.1,0.1-0.1v-3.3c0,0,0-0.1-0.1-0.1c-0.1-0.1-0.1-0.1-0.2-0.1c-0.1,0-0.2-0.1-0.3-0.1
		C219.9,137.2,219.7,137.2,219.6,137.2L219.6,137.2z M228.9,133.4v9.2h-17.6c-0.5,0-0.9,0-1.1,0c-0.3,0-0.5,0-0.6-0.1
		c-0.1,0-0.2,0-0.3-0.1c0,0-0.1,0-0.1,0c-0.3-0.1-0.6-0.1-0.8-0.2c-0.3-0.1-0.5-0.2-0.7-0.2c-0.2-0.1-0.3-0.2-0.5-0.3
		c-0.1-0.1-0.3-0.2-0.3-0.3c-0.1-0.1-0.2-0.2-0.2-0.3c0-0.1-0.1-0.2-0.1-0.3v-3c0-0.2,0-0.3,0.1-0.4c0.1-0.1,0.1-0.3,0.3-0.4
		c0.1-0.1,0.3-0.2,0.4-0.3c0.2-0.1,0.3-0.2,0.5-0.3c0.2-0.1,0.5-0.2,0.7-0.2c0.3-0.1,0.5-0.1,0.8-0.2c0.4-0.1,0.7-0.1,0.9-0.1
		c0.2,0,0.4,0,0.5,0c0.1,0,0.2,0,0.3,0c0,0,0.1,0,0.1,0c1.5,0,3.1,0,4.6,0c1.5,0,3.1,0,4.6,0v-2.4H228.9L228.9,133.4z M249.2,135.9
		c0.4,0,0.8,0,1.2,0c0.4,0,0.8,0.1,1.1,0.1c0.3,0.1,0.5,0.1,0.8,0.2c0.2,0.1,0.4,0.2,0.6,0.3c0.1,0.1,0.2,0.2,0.3,0.3
		c0.1,0.1,0.2,0.2,0.2,0.3c0,0.1,0.1,0.3,0.1,0.5v2.4h-14v0.7c0,0.1,0,0.1,0.1,0.2c0.1,0.1,0.2,0.1,0.4,0.2c0.2,0.1,0.3,0.1,0.5,0.1
		c0.2,0,0.4,0.1,0.6,0.1h11.6v1.3h-17.3c-0.4,0-0.7,0-1.1,0c-0.4,0-0.7-0.1-1-0.1c-0.3,0-0.5-0.1-0.8-0.2c-0.2-0.1-0.4-0.2-0.6-0.3
		c-0.1-0.1-0.3-0.2-0.3-0.3c-0.1-0.1-0.2-0.2-0.2-0.4c0-0.1-0.1-0.2-0.1-0.3c0-0.1,0-0.2,0-0.3v-3c0-0.1,0-0.2,0-0.3
		c0-0.1,0-0.2,0.1-0.3c0.1-0.1,0.2-0.3,0.3-0.4c0.1-0.1,0.3-0.2,0.4-0.3c0.2-0.1,0.4-0.2,0.6-0.3c0.2-0.1,0.5-0.1,0.8-0.2
		c0.3,0,0.6-0.1,0.9-0.1c0.3,0,0.6,0,1,0H249.2L249.2,135.9z M245.4,138.7v-1.1c0,0,0-0.1-0.1-0.1c-0.1,0-0.1-0.1-0.2-0.1
		c-0.1,0-0.2-0.1-0.3-0.1c-0.1,0-0.2,0-0.3,0h-4c-0.1,0-0.2,0-0.3,0c-0.1,0-0.2,0.1-0.3,0.1c-0.1,0-0.2,0.1-0.2,0.1
		c-0.1,0-0.1,0.1-0.1,0.1v1.1H245.4L245.4,138.7z"/>
	<path class="st3" d="M289,135.5v1.3h-5.9c-0.1,0-0.3,0-0.4,0c-0.1,0-0.2,0-0.3,0c-0.1,0-0.2,0.1-0.3,0.1c0,0-0.1,0.1-0.1,0.1v0.8
		h6.5v1.3h-6.5v5.5h-8.3v-5.5h-3.4v-1.3h3.4v-0.7c0-0.1,0-0.2,0-0.3c0-0.1,0.1-0.2,0.1-0.3c0.1-0.1,0.2-0.2,0.3-0.3
		c0.1-0.1,0.3-0.2,0.4-0.3c0.2-0.1,0.3-0.2,0.6-0.2c0.2-0.1,0.4-0.1,0.7-0.2c0.3-0.1,0.6-0.1,0.9-0.1c0.3,0,0.6,0,1,0H289L289,135.5
		z M309.1,137.9c0.3,0,0.6,0,0.9,0c0.3,0,0.6,0,0.9,0.1c0.3,0,0.5,0.1,0.7,0.1c0.2,0.1,0.4,0.1,0.6,0.2c0.2,0.1,0.3,0.2,0.5,0.3
		c0.2,0.1,0.3,0.3,0.4,0.4c0,0.1,0.1,0.2,0.1,0.3c0,0.1,0,0.2,0,0.4v3.2c0,0.1,0,0.3-0.1,0.4c0,0.1-0.1,0.2-0.1,0.3
		c-0.1,0.1-0.2,0.2-0.3,0.3c-0.1,0.1-0.3,0.2-0.5,0.3c-0.2,0.1-0.3,0.1-0.6,0.2c-0.2,0.1-0.4,0.1-0.7,0.1c-0.3,0-0.6,0.1-0.9,0.1
		c-0.3,0-0.6,0-1,0h-13.9c-0.4,0-0.7,0-1.1,0c-0.3,0-0.7-0.1-1-0.1c-0.2-0.1-0.5-0.1-0.7-0.2c-0.2-0.1-0.4-0.1-0.6-0.2
		c-0.2-0.1-0.3-0.2-0.4-0.3c-0.1-0.1-0.2-0.2-0.3-0.3c0-0.1-0.1-0.1-0.1-0.2c0-0.1,0-0.2,0-0.3v-3.3c0-0.1,0-0.2,0-0.3
		c0-0.1,0.1-0.2,0.1-0.3c0.1-0.1,0.2-0.3,0.3-0.4c0.1-0.1,0.3-0.2,0.5-0.3c0.2-0.1,0.4-0.2,0.7-0.2c0.2-0.1,0.5-0.1,0.7-0.1
		c0.3,0,0.5-0.1,0.8-0.1c0.3,0,0.6,0,0.8,0H309.1L309.1,137.9z M304.1,139.3h-4.5c-0.1,0-0.1,0-0.2,0c-0.1,0-0.1,0.1-0.2,0.1
		c0,0-0.1,0.1-0.1,0.1c0,0,0,0.1,0,0.1v3.3c0,0.1,0,0.1,0.1,0.1c0.1,0,0.2,0.1,0.2,0.1c0.1,0,0.2,0.1,0.3,0.1c0.1,0,0.2,0,0.4,0h3.9
		c0.1,0,0.2,0,0.4,0c0.1,0,0.2-0.1,0.3-0.1c0.1,0,0.2-0.1,0.3-0.1c0.1,0,0.1-0.1,0.1-0.1v-3.3c0,0,0-0.1-0.1-0.1
		c-0.1,0-0.1-0.1-0.2-0.1c-0.1,0-0.2-0.1-0.3-0.1C304.3,139.3,304.2,139.3,304.1,139.3L304.1,139.3z M324.5,144.7h-8.3v-6.8h8.3v0.6
		c0.1-0.1,0.3-0.1,0.4-0.2c0.1,0,0.2-0.1,0.3-0.1c0.1,0,0.2-0.1,0.3-0.1c0.1,0,0.3-0.1,0.4-0.1c0.1,0,0.3-0.1,0.4-0.1
		c0.2,0,0.3,0,0.5,0c0.1,0,0.3,0,0.4,0h4.9v1.9h-4.3c-0.4,0-0.8,0-1.2,0.1c-0.4,0-0.7,0.1-1,0.1c-0.2,0-0.3,0.1-0.4,0.1
		c-0.1,0-0.2,0.1-0.3,0.1c-0.1,0.1-0.2,0.1-0.3,0.2c-0.1,0.1-0.1,0.1-0.1,0.2V144.7L324.5,144.7z"/>
	<path class="st3" d="M345.1,127.8h8.8l3.2,10.3l4.6-10.3h8.8l4.7,10.3l3.2-10.3h8.8l-6.6,18.4h-9.1l-5.3-11.6l-5.3,11.6h-9.1
		L345.1,127.8L345.1,127.8z M390.7,127.8h9.3v18.4h-9.3V127.8L390.7,127.8z M406.7,127.8h8.7l11.3,10.2v-10.2h8.8v18.4h-8.8
		l-11.3-10.1v10.1h-8.8V127.8L406.7,127.8z M441.8,127.8h8.7l11.3,10.2v-10.2h8.8v18.4h-8.8l-11.3-10.1v10.1h-8.8V127.8L441.8,127.8
		z M476.8,127.8h24.9v3.9h-15.6v2.9h14.5v3.8h-14.5v3.6h16.1v4.2h-25.4V127.8L476.8,127.8z M507.3,146.2v-18.4h15.5
		c2.9,0,5.1,0.2,6.6,0.5c1.5,0.3,2.8,0.9,3.7,1.7c0.9,0.8,1.4,1.8,1.4,3c0,1-0.4,1.9-1.1,2.6c-0.7,0.7-1.7,1.3-2.9,1.8
		c-0.8,0.3-1.9,0.5-3.3,0.7c1.1,0.2,1.9,0.5,2.4,0.7c0.3,0.2,0.8,0.5,1.5,1c0.7,0.5,1.1,0.9,1.3,1.1l4.5,5.3h-10.5l-5-5.6
		c-0.6-0.7-1.2-1.2-1.7-1.4c-0.7-0.3-1.4-0.4-2.3-0.4h-0.8v7.5H507.3L507.3,146.2z M516.7,135.3h3.9c0.4,0,1.2-0.1,2.5-0.2
		c0.6-0.1,1.1-0.3,1.5-0.6c0.4-0.3,0.6-0.7,0.6-1.1c0-0.6-0.3-1.1-0.9-1.4c-0.6-0.3-1.8-0.5-3.5-0.5h-4.1V135.3L516.7,135.3z
		 M538.3,140.1l8.9-0.3c0.2,0.9,0.6,1.5,1.2,2c1,0.7,2.3,1.1,4.1,1.1c1.3,0,2.4-0.2,3.1-0.6c0.7-0.4,1.1-0.8,1.1-1.3
		c0-0.5-0.3-0.9-1-1.3c-0.7-0.4-2.3-0.7-4.8-1.1c-4.1-0.6-7-1.3-8.7-2.2c-1.8-0.9-2.6-2.1-2.6-3.6c0-0.9,0.4-1.8,1.3-2.7
		c0.9-0.8,2.2-1.5,4-2c1.8-0.5,4.3-0.7,7.4-0.7c3.9,0,6.8,0.4,8.8,1.3c2,0.9,3.2,2.3,3.6,4.2l-8.8,0.3c-0.2-0.8-0.7-1.4-1.5-1.8
		c-0.7-0.4-1.8-0.6-3.1-0.6c-1.1,0-1.9,0.1-2.4,0.4c-0.5,0.3-0.8,0.6-0.8,1c0,0.3,0.2,0.6,0.7,0.8c0.4,0.2,1.5,0.5,3.1,0.7
		c4.1,0.5,7,1.1,8.7,1.6c1.8,0.5,3,1.2,3.8,2c0.8,0.8,1.2,1.7,1.2,2.7c0,1.2-0.5,2.3-1.6,3.3c-1.1,1-2.6,1.8-4.5,2.3
		c-1.9,0.5-4.3,0.8-7.3,0.8c-5.1,0-8.7-0.6-10.6-1.8C539.7,143.5,538.6,142,538.3,140.1L538.3,140.1z"/>
</g>
</svg>
