<?xml version="1.0" encoding="UTF-8"?>
<svg xmlns="http://www.w3.org/2000/svg" version="1.1" viewBox="0 0 1052.3 131.5">
  <!-- Generator: Adobe Illustrator 28.6.0, SVG Export Plug-In . SVG Version: 1.2.0 Build 709)  -->
  <g>
    <g id="Capa_1">
      <g>
        <path d="M14.1,117.9c1.3-1.5,2.7-2.8,3.8-4.4C40.6,81.3,63.2,49.1,85.6,16.8c2.1-2.9,4.2-4,7.7-4,154.3,0,308.6,0,462.9.2,2.9,0,6.2,1.1,8.7,2.6,13.2,8.2,26.2,16.6,39.1,25.1,2.6,1.7,4.8,2.2,7.8,1.1,27.6-9.4,55.2-18.6,82.9-27.8,1.9-.6,3.9-1.1,5.8-1.1,32.5,0,65,0,97.5,0,.8,0,1.5,0,2.5.9-50.9,17-101.8,34.1-153.8,51.5,26.4,17.6,52,34.6,78.7,52.3-2.6.3-4,.5-5.4.5-30.5,0-61,0-91.5,0-2.6,0-5.6-1-7.8-2.4-13.8-8.7-27.5-17.6-41.1-26.6-2.9-1.9-5.4-2.3-8.8-1.1-29,9.9-58.1,19.6-87.1,29.3-2.9,1-6.2,1.4-9.3,1.4-153.1,0-306.3,0-459.4,0-.3,0-.7,0-1,.1,0-.3,0-.7,0-1ZM388.3,112.4c.4.4.8.9,1.2,1.3,48.5-16.3,97-32.6,146.3-49.2-2.1-1.5-3.4-2.5-4.8-3.4-12.1-7.9-24.2-15.9-36.5-23.6-2.4-1.5-5.5-2.4-8.3-2.4-105.2-.1-210.3,0-315.5-.2-3.5,0-5.8,1-7.9,3.9-13,18-26.2,35.8-39.3,53.6-.8,1.1-1.5,2.4-2.4,4,1.2.2,1.8.4,2.4.4,60.2,0,120.3,0,180.5,0,1.3,0,3.1-.1,3.7-.9,4.6-5.9,9-12.1,14.3-19.2h-149.4c4.1-6.4,7.9-11.8,11.3-17.5,1.9-3.2,4.1-4.4,8-4.4,77.3.1,154.6,0,232,.1,1.6,0,3.1.2,5.1.3-13.9,19.5-27.3,38.4-40.8,57.3Z"/>
        <path d="M1038.1,85.9c-2.7,8.1-9.2,9.7-16.6,9.8-5.6,0-11.3,0-17.3,1.2,7.6,3.3,15.1,6.6,22.7,10-.2.6-.4,1.1-.7,1.7-9.7-4.3-19.5-8.5-29.5-12.9-1.8,4.3-3.5,8.4-5.1,12.5-.4-.1-.8-.3-1.3-.4,0-.9-.2-1.8,0-2.6,2.6-7.5,5.2-15.1,8-22.5.5-1.3,2.4-3,3.6-3,9.3-.2,18.6-.2,27.9.3,2.8.1,5.4,2.1,8.1,3.2v3ZM997.3,94.2c9.1,0,17.9.1,26.7,0,2.4,0,5.5-.5,7-2,2-2,3.3-5.2,3.7-8.1.1-.7-4-2.8-6.4-3.1-4.8-.5-9.6-.2-14.4-.2q-13,0-16.5,13.4Z"/>
        <path d="M900.9,14c-58.9,19.9-117.8,39.8-177.4,59.9,1.9,1.4,3.1,2.4,4.3,3.2,16.3,10.9,32.6,21.9,49.1,32.6,2.7,1.8,6.4,2.9,9.6,2.9,81.1.2,162.3.1,243.4.1s4.3,0,6.8,0c.2,1.8.3,3.2.5,4.5-.7.4-1.1.8-1.5.8-1.7.1-3.3.2-5,.2-82.6,0-165.3,0-247.9-.1-3.4,0-7.2-1.2-10.1-3.1-20.2-13.2-40.3-26.7-60.4-40.1-1.1-.7-2.2-1.5-3.9-2.7,1.8-.8,3-1.4,4.3-1.8,55.8-18.9,111.6-37.9,167.6-56.4,6.2-2.1,13.5-1,20.3-1.4l.3,1.4Z"/>
        <path d="M849.6,13.9c-54.2,18.3-108.4,36.6-163.8,55.3,24.4,16.3,48,32,72.4,48.3-5.9.8-10.4,1.3-15-1.8-22.6-15.3-45.4-30.4-68.1-45.6-1.2-.8-2.4-1.7-4.2-3.1,7.4-2.5,14.1-4.8,20.8-7.1,45.6-15.4,91.1-31,136.8-46,6.4-2.1,13.8-1.1,20.7-1.5.1.4.2.9.3,1.3Z"/>
        <path d="M842.5,107.3c2.6-7.7,5.2-15.4,7.8-23.1l-.9-.7c-5.7,4.5-11.4,8.9-17.2,13.4-3.8,3-7.7,5.8-11.4,8.9-3.1,2.6-5.3,2.5-7.4-1.3-4-7.2-8.4-14.3-13.1-22.3-3.4,9.2-6.4,17.4-9.4,25.7-.5-.1-1.1-.3-1.6-.4.1-1.1.1-2.3.5-3.3,2.4-7.1,4.9-14.2,7.5-21.2.5-1.4,1.8-2.6,2.7-3.8,1.2,1,2.6,1.9,3.4,3.2,4.7,7.6,9.2,15.4,14.2,23.7,12.1-9.4,23.9-18.6,35.6-27.7.6.5,1.1.9,1.7,1.4-3.4,9.4-6.8,18.9-10.2,28.3-.7-.2-1.4-.5-2.1-.7Z"/>
        <path d="M876.2,108.1c-4.1-.3-8.3-.3-12.4-1.1-5.1-1-6.1-3-4.5-7.8,1.2-3.5,2.7-6.8,3.6-10.3,1.4-5.4,5.1-8.4,10.3-8.8,8.1-.6,16.3-.7,24.3-.2,5.9.4,7.1,3,5.2,8.4-.9,2.5-1.8,5-2.7,7.5-3.3,9.2-6.1,11.4-15.9,11.9-2.7.1-5.3,0-8,0,0,.1,0,.2,0,.3ZM876.4,106.8c0,0,0-.2,0-.3,1.7,0,3.3,0,5,0,11.2-.4,12.7-1.5,16.5-12,.7-2,1.5-4.1,2.2-6.1,1.7-5.1.5-7.2-4.9-7.5-6.1-.4-12.3-.2-18.4,0-5.7.1-9.7,2.7-11.2,8.7-.9,3.5-2.3,6.9-3.6,10.3-1.4,3.6.2,5.5,3.6,6,3.6.5,7.3.7,10.9,1Z"/>
        <path d="M958,108.2c-4.3-.4-8.6-.6-12.8-1.3-3.7-.6-5.5-2.9-4-6.9,1.6-4.4,3.1-8.8,4.7-13.1,1.5-4.4,5.2-6.4,9.2-6.6,8.3-.5,16.6-.7,24.8-.2,5.8.4,6.9,3,4.9,8.6-.8,2.2-1.6,4.4-2.3,6.6-3.6,10.3-6.5,12.4-17.4,12.6-2.3,0-4.7,0-7,0,0,.1,0,.2,0,.4ZM967.7,80.6c0,0,0,.1,0,.2-2.3,0-4.7,0-7,0-8.5.3-10.7,1.9-13.5,9.7-1,2.8-2,5.6-3,8.5-1.6,4.8-.7,6.7,4.3,7,6.3.5,12.6.3,18.9.3,6.3,0,10.2-3.1,11.7-9.3.8-3.2,2-6.3,3.3-9.4,1.6-3.9-.3-5.8-3.8-6.3-3.6-.5-7.3-.4-10.9-.6Z"/>
        <path d="M916.1,107.2c3-8.5,5.9-17,9.1-26.2h-15.1c0-.4,0-.8,0-1.1h33.9v.9c-1.8,0-3.8,0-5.7,0-2.2,0-4.3.2-6.5,0-2.8-.3-4.1.9-5,3.6-2.1,6.6-4.6,13.2-6.9,19.7-.5,1.4-1.3,2.7-2,4l-1.7-.8Z"/>
      </g>
    </g>
  </g>
</svg>