<?xml version="1.0" encoding="UTF-8"?>
<svg version="1.1" xmlns="http://www.w3.org/2000/svg" width="860" height="428">
<path d="M0 0 C283.8 0 567.6 0 860 0 C860 141.24 860 282.48 860 428 C576.2 428 292.4 428 0 428 C0 286.76 0 145.52 0 0 Z " fill="#F6F6F6" transform="translate(0,0)"/>
<path d="M0 0 C3.16614254 1.24400817 5.38072988 3.59190969 7.80273438 5.90698242 C8.3317334 6.40182129 8.86073242 6.89666016 9.40576172 7.40649414 C12.9135019 10.70392014 16.3480972 14.06951143 19.68554688 17.53979492 C20.99159806 18.90468886 20.99159806 18.90468886 22.99023438 19.78198242 C22.99023438 22.78198242 22.99023438 22.78198242 21.76757812 24.11401367 C21.16042969 24.60256836 20.55328125 25.09112305 19.92773438 25.59448242 C15.8237773 29.03488229 11.8939535 32.61867125 7.99023438 36.28198242 C7.03588501 37.17602783 7.03588501 37.17602783 6.06225586 38.08813477 C4.72792152 39.33865123 3.39402827 40.5896385 2.06054688 41.84106445 C-0.05373301 43.82320184 -2.17193629 45.80107147 -4.29101562 47.77807617 C-5.69731669 49.0918236 -7.10356803 50.40562425 -8.50976562 51.71948242 C-9.47849609 52.6224707 -9.47849609 52.6224707 -10.46679688 53.54370117 C-13.6064527 56.48184699 -16.69869414 59.45306049 -19.72851562 62.50463867 C-22.07753012 64.86983732 -24.46169236 67.12929983 -27.00976562 69.28198242 C-30.39127444 72.18323804 -33.50496315 75.25945887 -36.56445312 78.49682617 C-38.00976562 79.78198242 -38.00976562 79.78198242 -40.00976562 79.78198242 C-40.00976562 80.44198242 -40.00976562 81.10198242 -40.00976562 81.78198242 C-41.4609375 83.22949219 -41.4609375 83.22949219 -43.47851562 84.91088867 C-47.95314014 88.71570057 -52.23831058 92.68928548 -56.50976562 96.71948242 C-57.23679687 97.40333008 -57.96382813 98.08717773 -58.71289062 98.79174805 C-60.47968277 100.4539275 -62.24528611 102.11734882 -64.00976562 103.78198242 C-58.89757849 105.2106735 -53.65577506 105.41426097 -48.38476562 105.84448242 C-47.34191406 105.93536133 -46.2990625 106.02624023 -45.22460938 106.11987305 C-38.80252408 106.65304243 -32.4532216 106.90316751 -26.00976562 106.78198242 C-26.00976562 106.12198242 -26.00976562 105.46198242 -26.00976562 104.78198242 C-24.50585938 103.30151367 -24.50585938 103.30151367 -22.44726562 101.59448242 C-19.68437882 99.24918484 -17.04296806 96.87368837 -14.50976562 94.28198242 C-12.19957121 91.93025643 -9.83194375 89.73158977 -7.32226562 87.59448242 C-3.708369 84.4858296 -0.35689112 81.17084265 2.99023438 77.78198242 C6.88416463 73.83962019 10.84186267 70.08214965 15.06445312 66.48901367 C18.10685132 63.79220229 20.91349246 60.86663846 23.76757812 57.97338867 C26.41012303 55.3679973 29.18109238 52.95889928 32.00976562 50.55932617 C34.91207561 47.95468901 37.51862842 45.08111629 40.13085938 42.18823242 C41.99023438 40.78198242 41.99023438 40.78198242 43.8605957 40.98022461 C46.47382815 41.96404386 47.91130874 43.2712487 49.92382812 45.20385742 C50.65537109 45.89995117 51.38691406 46.59604492 52.140625 47.31323242 C52.89537109 48.04541992 53.65011719 48.77760742 54.42773438 49.53198242 C55.17861328 50.24870117 55.92949219 50.96541992 56.703125 51.70385742 C60.51316905 55.34970433 64.27991512 59.03478127 67.99023438 62.78198242 C66.38741661 67.05956614 63.12759693 69.64256692 59.80273438 72.59448242 C58.62450476 73.65701479 57.44741307 74.72081039 56.27148438 75.78588867 C55.70558594 76.29780762 55.1396875 76.80972656 54.55664062 77.3371582 C52.56936106 79.1701882 50.68005566 81.08704575 48.80273438 83.03198242 C45.99023438 85.78198242 45.99023438 85.78198242 43.99023438 85.78198242 C43.99023438 86.44198242 43.99023438 87.10198242 43.99023438 87.78198242 C42.55004883 89.21850586 42.55004883 89.21850586 40.54101562 90.89135742 C35.94718732 94.79798383 31.55739445 98.88812046 27.17773438 103.03198242 C26.42814453 103.73838867 25.67855469 104.44479492 24.90625 105.17260742 C21.06611378 108.75991776 21.06611378 108.75991776 17.38208008 112.50366211 C15.99023438 113.78198242 15.99023438 113.78198242 13.99023438 113.78198242 C13.99023438 114.44198242 13.99023438 115.10198242 13.99023438 115.78198242 C15.13492187 115.90573242 16.27960938 116.02948242 17.45898438 116.15698242 C22.62638315 116.80290727 27.59153363 118.05334726 32.63476562 119.32104492 C34.74772644 119.83866238 36.86424547 120.32092459 38.99023438 120.78198242 C39.70115234 120.94311523 40.41207031 121.10424805 41.14453125 121.27026367 C44.62730132 121.91293699 46.44689429 122.139624 49.45898438 120.15698242 C50.12929688 119.37323242 50.79960937 118.58948242 51.49023438 117.78198242 C52.24046875 116.94924805 52.99070312 116.11651367 53.76367188 115.25854492 C54.4984375 114.4412793 55.23320312 113.62401367 55.99023438 112.78198242 C57.34354865 111.54940994 58.71745391 110.33888945 60.11523438 109.15698242 C63.45898104 106.30142277 66.52550236 103.26210583 69.54492188 100.06713867 C70.99023438 98.78198242 70.99023438 98.78198242 72.99023438 98.78198242 C72.99023438 98.12198242 72.99023438 97.46198242 72.99023438 96.78198242 C74.49414062 95.30151367 74.49414062 95.30151367 76.55273438 93.59448242 C80.57698685 90.17996517 84.31213443 86.56352893 87.99023438 82.78198242 C91.47677913 84.26611972 93.6321451 86.24412294 96.24023438 88.96948242 C101.81514187 94.6727595 107.70512292 99.8717391 113.99023438 104.78198242 C112.59375544 107.97362098 110.97420231 109.99332329 108.42773438 112.35620117 C107.71738037 113.02006836 107.00702637 113.68393555 106.27514648 114.36791992 C105.52112549 115.06143555 104.76710449 115.75495117 103.99023438 116.46948242 C103.22654541 117.17975586 102.46285645 117.8900293 101.67602539 118.62182617 C96.16715165 123.73366922 90.61948924 128.80278893 84.99023438 133.78198242 C87.55531945 136.3470675 89.86916761 136.92195184 93.30273438 138.09448242 C94.57786113 138.53868506 95.85259262 138.98402376 97.12695312 139.43041992 C97.77325684 139.65568359 98.41956055 139.88094727 99.08544922 140.11303711 C107.08702294 142.9231258 114.77546133 146.04218545 122.31445312 149.92651367 C126.22486058 151.9262692 130.19739833 153.7912398 134.16748047 155.66894531 C173.78786694 174.43159224 210.46996553 197.78481077 244.99023438 224.78198242 C246.12926086 225.66257432 247.26859193 226.54277235 248.40820312 227.42260742 C259.62600849 236.11703118 270.35723777 245.32462907 280.85742188 254.87182617 C282.74131555 256.55904963 284.65646 258.18307589 286.61523438 259.78198242 C287.39898438 260.44198242 288.18273437 261.10198242 288.99023438 261.78198242 C288.99023438 262.11198242 288.99023438 262.44198242 288.99023438 262.78198242 C257.85578435 263.07885273 226.72171018 263.3087638 195.58617984 263.4458317 C191.90640923 263.46208996 188.22664143 263.47891624 184.546875 263.49609375 C183.81433149 263.49950379 183.08178798 263.50291382 182.32704619 263.50642719 C170.48157254 263.56292174 158.63692305 263.66537869 146.79193756 263.78496877 C134.62847759 263.90674563 122.46544779 263.97878938 110.30140328 264.00513285 C102.80117095 264.02292965 95.30326821 264.07902726 87.80375353 264.18489649 C82.04290856 264.26205475 76.28353999 264.26984952 70.52228165 264.25238228 C68.16639275 264.25594806 65.8104127 264.28166897 63.45505142 264.33165359 C44.74873322 264.70903712 44.74873322 264.70903712 39.02327728 259.96826744 C35.89687184 256.85741691 33.48655463 253.40766992 30.99023438 249.78198242 C29.37809547 248.04569385 27.73666371 246.33540654 26.04882812 244.67260742 C25.28578369 243.90239258 24.52273926 243.13217773 23.73657227 242.33862305 C22.97465576 241.57743164 22.21273926 240.81624023 21.42773438 240.03198242 C20.6148999 239.21922852 19.80206543 238.40647461 18.96459961 237.5690918 C13.25057724 231.90914176 7.43589918 226.60736084 0.99023438 221.78198242 C0.31863281 221.19416992 -0.35296875 220.60635742 -1.04492188 220.00073242 C-2.89661595 218.61470742 -2.89661595 218.61470742 -4.93164062 218.77416992 C-7.99585008 220.26019631 -9.91610571 222.44948759 -12.25976562 224.90698242 C-16.06449795 228.83843356 -19.95366842 232.55488521 -24.11523438 236.10620117 C-26.87911933 238.55095714 -29.42961079 241.19279794 -32.01757812 243.82104492 C-34.51192004 246.2762599 -37.12689686 248.53990127 -39.84033203 250.74926758 C-42.10275493 252.71613768 -42.10275493 252.71613768 -43.69921875 255.30151367 C-46.78681795 259.48985578 -49.45080125 262.25671398 -54.58746338 263.31109619 C-62.25939512 264.05209221 -69.94626833 263.69055261 -77.63476562 263.40698242 C-79.99795287 263.35677077 -82.36124244 263.31115237 -84.72460938 263.27026367 C-90.48857637 263.16058443 -96.24869252 262.9937195 -102.00976562 262.78198242 C-102.00976562 260.78198242 -102.00976562 260.78198242 -100.78710938 259.54760742 C-100.17996094 259.04745117 -99.5728125 258.54729492 -98.94726562 258.03198242 C-94.60018095 254.34047245 -90.42345675 250.48966207 -86.25976562 246.59448242 C-85.60999756 245.98830078 -84.96022949 245.38211914 -84.29077148 244.75756836 C-81.6992514 242.33305958 -79.1396977 239.91736467 -76.68164062 237.35620117 C-75.00976562 235.78198242 -75.00976562 235.78198242 -73.00976562 235.78198242 C-73.00976562 235.12198242 -73.00976562 234.46198242 -73.00976562 233.78198242 C-71.47070313 232.26635742 -71.47070313 232.26635742 -69.38476562 230.53198242 C-66.66928803 228.23538169 -64.09714299 225.91047467 -61.63476562 223.34448242 C-59.00976562 220.78198242 -59.00976562 220.78198242 -57.00976562 220.78198242 C-57.00976562 220.12198242 -57.00976562 219.46198242 -57.00976562 218.78198242 C-55.50585938 217.30151367 -55.50585938 217.30151367 -53.44726562 215.59448242 C-49.89980389 212.59520749 -46.6445369 209.4420311 -43.45507812 206.06713867 C-42.00976562 204.78198242 -42.00976562 204.78198242 -40.00976562 204.78198242 C-40.00976562 204.12198242 -40.00976562 203.46198242 -40.00976562 202.78198242 C-38.050495 201.06762062 -36.05096351 199.39793075 -34.00976562 197.78198242 C-38.36812093 194.03115543 -43.09054279 191.22955662 -48.07226562 188.40698242 C-48.87470703 187.93131836 -49.67714844 187.4556543 -50.50390625 186.96557617 C-51.66889648 186.3062207 -51.66889648 186.3062207 -52.85742188 185.63354492 C-53.55875244 185.22958496 -54.26008301 184.825625 -54.98266602 184.40942383 C-57.04036503 183.54893039 -57.04036503 183.54893039 -59.15307617 184.56005859 C-61.32429368 185.98897952 -62.96850413 187.58569709 -64.75976562 189.46948242 C-67.39985851 192.18277567 -70.06890715 194.76052548 -72.94726562 197.21948242 C-75.93778278 199.78863513 -78.74093247 202.47515498 -81.50976562 205.28198242 C-84.87091044 208.68917032 -88.34677766 211.85656416 -91.97851562 214.96948242 C-94.24615135 216.99291122 -96.37553513 219.11851589 -98.50976562 221.28198242 C-101.87091044 224.68917032 -105.34677766 227.85656416 -108.97851562 230.96948242 C-111.24615135 232.99291122 -113.37553513 235.11851589 -115.50976562 237.28198242 C-118.86833359 240.68655816 -122.34069908 243.85230391 -125.97070312 246.96166992 C-129.03185288 249.69442047 -131.87846138 252.62818586 -134.73632812 255.57104492 C-135.4865625 256.3006543 -136.23679687 257.03026367 -137.00976562 257.78198242 C-137.81349609 258.64251221 -138.61722656 259.50304199 -139.4453125 260.38964844 C-143.87271289 264.02796648 -148.83973438 263.40600203 -154.31445312 263.27026367 C-155.39356964 263.26318893 -156.47268616 263.2561142 -157.58450317 263.24882507 C-161.0186401 263.22091904 -164.45112457 263.15818411 -167.88476562 263.09448242 C-170.21807535 263.06939481 -172.55141073 263.04658246 -174.88476562 263.02612305 C-180.59365924 262.97110487 -186.30159436 262.88751558 -192.00976562 262.78198242 C-189.6228099 259.75338189 -187.35674165 257.05426683 -184.38476562 254.59448242 C-181.10211662 251.79385808 -178.04000551 248.85417948 -175.00976562 245.78198242 C-171.4887024 242.2179794 -167.87790555 238.87894074 -164.07226562 235.62573242 C-161.62051874 233.4340193 -159.3209099 231.12131138 -157.00976562 228.78198242 C-154.11384605 225.85080051 -151.20733991 223.01795068 -148.07226562 220.34448242 C-144.20595738 217.04054629 -140.65341932 213.4550264 -137.08520508 209.83789062 C-133.79626764 206.52149294 -130.38815149 203.42206792 -126.83789062 200.39135742 C-124.3652883 198.21462204 -122.08669925 195.86933471 -119.77929688 193.52026367 C-117.97966081 191.75240926 -116.11374651 190.109437 -114.19726562 188.46948242 C-110.05382401 184.90419545 -106.2526496 181.04299673 -102.41601562 177.15307617 C-100.32477035 175.0923848 -98.19599368 173.16667458 -95.94726562 171.28198242 C-93.0134642 169.11545797 -93.0134642 169.11545797 -92.00976562 166.78198242 C-92.94433594 166.69174805 -93.87890625 166.60151367 -94.84179688 166.50854492 C-100.97633343 165.63460893 -106.73255307 163.22615612 -112.53515625 161.13354492 C-113.43814453 160.81901367 -114.34113281 160.50448242 -115.27148438 160.18041992 C-116.08576904 159.88828613 -116.90005371 159.59615234 -117.73901367 159.29516602 C-120.29808378 158.71682332 -121.58435825 158.81933865 -124.00976562 159.78198242 C-125.98336739 161.59441613 -127.81222256 163.39280195 -129.63476562 165.34448242 C-131.39048657 167.20878084 -133.16365196 169.00326656 -135.00976562 170.78198242 C-135.66976562 170.78198242 -136.32976562 170.78198242 -137.00976562 170.78198242 C-137.00976562 171.44198242 -137.00976562 172.10198242 -137.00976562 172.78198242 C-138.51367187 174.26245117 -138.51367187 174.26245117 -140.57226562 175.96948242 C-143.33515243 178.31478001 -145.97656319 180.69027647 -148.50976562 183.28198242 C-150.90029729 185.71587974 -153.36022825 187.99553801 -155.94726562 190.21948242 C-158.7555291 192.63816021 -161.40947156 195.14097925 -164.00976562 197.78198242 C-167.21006084 201.03228225 -170.55201138 204.02922487 -174.00976562 207.00073242 C-176.09313641 208.85623452 -178.05257769 210.79421343 -180.00976562 212.78198242 C-182.56966697 215.38180425 -185.17756103 217.8446664 -187.94726562 220.21948242 C-190.93778278 222.78863513 -193.74093247 225.47515498 -196.50976562 228.28198242 C-199.89217961 231.71081033 -203.39047005 234.9024676 -207.04492188 238.03588867 C-209.82538394 240.50679631 -212.4009478 243.16365182 -215.00976562 245.81323242 C-217.53788097 248.30184597 -220.19699364 250.60075795 -222.91491699 252.87878418 C-225.03906282 254.722081 -225.03906282 254.722081 -226.73840332 256.84631348 C-229.41722714 259.99930099 -231.57216552 262.40008459 -235.65014648 263.48339844 C-238.70667922 263.70457599 -241.66640604 263.68337261 -244.72851562 263.56323242 C-245.82699829 263.55191284 -246.92548096 263.54059326 -248.05725098 263.52893066 C-251.54324608 263.48438002 -255.02502793 263.3840499 -258.50976562 263.28198242 C-260.88210178 263.24182822 -263.25450284 263.20533087 -265.62695312 263.17260742 C-271.42264552 263.08471557 -277.21590457 262.95109307 -283.00976562 262.78198242 C-282.07650496 261.67576421 -281.14069724 260.57169458 -280.20385742 259.46850586 C-279.42258736 258.54590973 -279.42258736 258.54590973 -278.62553406 257.60467529 C-276.20498494 254.87413698 -273.54538015 252.45482956 -270.82226562 250.03198242 C-266.95370149 246.59025848 -266.95370149 246.59025848 -263.27148438 242.95385742 C-262.00976562 241.78198242 -262.00976562 241.78198242 -260.00976562 241.78198242 C-260.00976562 241.12198242 -260.00976562 240.46198242 -260.00976562 239.78198242 C-258.54321289 238.32128906 -258.54321289 238.32128906 -256.51367188 236.62963867 C-252.19367366 232.9551247 -248.06180172 229.12123104 -243.94726562 225.21948242 C-242.45140785 223.80647215 -240.95530945 222.39371657 -239.45898438 220.98120117 C-238.71438965 220.27785645 -237.96979492 219.57451172 -237.20263672 218.84985352 C-228.84968477 210.97304401 -220.43354019 203.1641331 -211.98876953 195.38598633 C-207.68321646 191.41514981 -203.40599167 187.41469206 -199.13476562 183.40698242 C-198.46936768 182.78355957 -197.80396973 182.16013672 -197.1184082 181.51782227 C-193.66863289 178.28415237 -190.22757957 175.04184888 -186.79882812 171.78588867 C-185.45247782 170.51374917 -184.10612379 169.24161361 -182.75976562 167.96948242 C-181.82994873 167.080271 -181.82994873 167.080271 -180.88134766 166.1730957 C-180.29981934 165.62508301 -179.71829102 165.07707031 -179.11914062 164.51245117 C-178.61350586 164.03187256 -178.10787109 163.55129395 -177.58691406 163.05615234 C-175.83454482 161.64042245 -174.05190981 160.71994399 -172.00976562 159.78198242 C-172.00976562 159.12198242 -172.00976562 158.46198242 -172.00976562 157.78198242 C-170.29492188 156.09057617 -170.29492188 156.09057617 -168.07226562 154.21948242 C-167.34136719 153.59944336 -166.61046875 152.9794043 -165.85742188 152.34057617 C-165.24769531 151.82624023 -164.63796875 151.3119043 -164.00976562 150.78198242 C-163.67976562 150.45198242 -163.34976563 150.12198242 -163.00976562 149.78198242 C-166.82213413 149.30176584 -170.63468385 148.82300261 -174.44726562 148.34448242 C-176.05118164 148.14242187 -176.05118164 148.14242187 -177.6875 147.9362793 C-178.74130859 147.80415039 -179.79511719 147.67202148 -180.88085938 147.53588867 C-181.83919678 147.41544189 -182.79753418 147.29499512 -183.78491211 147.17089844 C-184.84911377 147.04255615 -185.91331543 146.91421387 -187.00976562 146.78198242 C-187.97496124 146.6520842 -187.97496124 146.6520842 -188.95965576 146.51956177 C-195.44473962 145.70225524 -201.87727821 145.60373579 -208.40820312 145.57885742 C-210.19081039 145.57030731 -210.19081039 145.57030731 -212.00942993 145.56158447 C-214.52580894 145.55216699 -217.04220009 145.54561347 -219.55859375 145.54174805 C-223.3107838 145.53217125 -227.06239435 145.50117043 -230.81445312 145.46948242 C-247.40654678 145.39752738 -263.5714594 146.55565942 -280.00976562 148.78198242 C-281.36041862 148.96271301 -281.36041862 148.96271301 -282.73835754 149.14709473 C-294.14708206 150.69026809 -305.27511393 153.11074228 -316.46899414 155.80078125 C-317.53432373 156.05625732 -318.59965332 156.3117334 -319.69726562 156.57495117 C-320.64988281 156.80722412 -321.6025 157.03949707 -322.58398438 157.27880859 C-325.00976563 157.78198242 -325.00976563 157.78198242 -328.00976562 157.78198242 C-328.33976562 156.13198242 -328.66976562 154.48198242 -329.00976562 152.78198242 C-300.59388229 139.48561223 -271.06397173 129.25502717 -240.69726562 121.40698242 C-239.45323975 121.08528076 -238.20921387 120.7635791 -236.92749023 120.43212891 C-224.6454977 117.32943924 -212.24203312 114.92192775 -199.75976562 112.78198242 C-198.78160889 112.6139209 -197.80345215 112.44585937 -196.7956543 112.27270508 C-193.86760607 111.7723018 -190.93878862 111.27664388 -188.00976562 110.78198242 C-187.1630127 110.63728516 -186.31625977 110.49258789 -185.44384766 110.34350586 C-177.01453618 108.91067534 -168.57505619 107.63100585 -160.07226562 106.71948242 C-159.28948242 106.6327124 -158.50669922 106.54594238 -157.70019531 106.45654297 C-152.64194068 105.95832318 -147.62568641 105.73809591 -142.54646301 105.6937561 C-123.16123588 106.59570533 -123.16123588 106.59570533 -106.26342773 99.33789062 C-104.39658723 97.17339833 -102.80639686 94.92867223 -101.27709961 92.51660156 C-99.27060222 89.77027832 -96.71700492 87.74927732 -94.12451172 85.5703125 C-90.60317981 82.59250643 -87.2926471 79.39185404 -83.94726562 76.21948242 C-82.45140785 74.80647215 -80.95530945 73.39371657 -79.45898438 71.98120117 C-78.71438965 71.27785645 -77.96979492 70.57451172 -77.20263672 69.84985352 C-68.84968477 61.97304401 -60.43354019 54.1641331 -51.98876953 46.38598633 C-46.31266195 41.15114311 -40.68630504 35.86353223 -35.05664062 30.57885742 C-30.55956545 26.35772933 -26.06037594 22.13872331 -21.53833008 17.94433594 C-18.35676982 14.99108698 -15.20767295 12.01185345 -12.09960938 8.98120117 C-11.46555176 8.37099121 -10.83149414 7.76078125 -10.17822266 7.13208008 C-8.9675957 5.96604343 -7.76621984 4.79030204 -6.57568359 3.60375977 C-2.51986856 -0.27335309 -2.51986856 -0.27335309 0 0 Z " fill="#010101" transform="translate(424.009765625,42.218017578125)"/>
<path d="M0 0 C0.7317041 0.03927612 1.4634082 0.07855225 2.21728516 0.11901855 C2.96349121 0.14016724 3.70969727 0.16131592 4.47851562 0.18310547 C6.31407352 0.23817221 8.14872055 0.3222455 9.98291016 0.4119873 C10.39428223 1.13450684 10.8056543 1.85702637 11.22949219 2.60144043 C13.18769369 6.03901512 15.14728373 9.4757953 17.10791016 12.9119873 C17.64529816 13.85387405 17.64529816 13.85387405 18.19354248 14.81478882 C23.83023988 24.68960811 29.52177247 34.53007196 35.28808594 44.32995605 C45.98291016 62.55822094 45.98291016 62.55822094 45.98291016 65.4119873 C43.11958961 65.73922394 40.29348462 65.97388266 37.42041016 66.1619873 C36.62054687 66.26253418 35.82068359 66.36308105 34.99658203 66.4666748 C32.23518456 66.60192693 30.51909168 66.55554988 27.98291016 65.4119873 C26.54956055 62.73132324 26.54956055 62.73132324 25.17041016 59.4432373 C23.01662015 55.1088165 23.01662015 55.1088165 19.00222778 52.72021484 C12.89563247 51.69116838 6.71113182 51.98153758 0.54541016 52.1619873 C-1.34974543 52.17397069 -3.2449435 52.18053701 -5.14013672 52.18151855 C-9.76863181 52.19568017 -14.39040462 52.28382955 -19.01708984 52.4119873 C-19.31252686 53.31320312 -19.60796387 54.21441895 -19.91235352 55.14294434 C-20.2769165 56.22172852 -20.64147949 57.3005127 -21.01708984 58.4119873 C-21.26628174 59.16979492 -21.51547363 59.92760254 -21.7722168 60.70837402 C-22.91878057 63.20947017 -23.884444 64.64411549 -26.01708984 66.4119873 C-30.39252084 67.520258 -34.60963342 67.64703965 -39.08959961 67.56481934 C-41.18723909 67.53721563 -43.26669042 67.60488313 -45.36279297 67.68151855 C-50.91894113 67.744029 -55.42991218 67.53695864 -60.0871582 64.23596191 C-62.5794504 61.73679822 -64.79152748 59.14747452 -67.01708984 56.4119873 C-68.38440874 55.15117787 -69.7755166 53.91484483 -71.20458984 52.7244873 C-73.20848063 51.05060235 -74.95620748 49.48644882 -76.61083984 47.46276855 C-79.36498947 44.13483775 -81.00391151 42.61295813 -85.34521484 41.75183105 C-88.56168115 41.50467834 -91.79131334 41.44524273 -95.01708984 41.4119873 C-95.01708984 49.6619873 -95.01708984 57.9119873 -95.01708984 66.4119873 C-100.29708984 66.4119873 -105.57708984 66.4119873 -111.01708984 66.4119873 C-111.01708984 44.9619873 -111.01708984 23.5119873 -111.01708984 1.4119873 C-100.74583984 1.3088623 -90.47458984 1.2057373 -79.89208984 1.0994873 C-75.04046143 1.03120728 -75.04046143 1.03120728 -70.09082031 0.96154785 C-67.52198321 0.94694232 -64.95313453 0.93420181 -62.38427734 0.92370605 C-61.72235382 0.91063919 -61.0604303 0.89757233 -60.37844849 0.8841095 C-48.10542138 0.65409553 -48.10542138 0.65409553 -44.18164062 3.81750488 C-39.85071263 9.00865893 -40.79630503 14.191242 -40.76708984 20.7244873 C-40.74646484 21.86595215 -40.72583984 23.00741699 -40.70458984 24.18347168 C-40.69685547 25.83766113 -40.69685547 25.83766113 -40.68896484 27.52526855 C-40.67961914 28.53371826 -40.67027344 29.54216797 -40.66064453 30.58117676 C-41.07723568 33.88965234 -42.06207043 35.73302713 -44.01708984 38.4119873 C-47.9974286 41.19822444 -51.34875894 42.55409109 -56.20458984 42.4744873 C-57.46271484 42.4538623 -58.72083984 42.4332373 -60.01708984 42.4119873 C-60.01708984 43.0719873 -60.01708984 43.7319873 -60.01708984 44.4119873 C-59.49115234 44.62726074 -58.96521484 44.84253418 -58.42333984 45.06433105 C-54.43171906 47.29989789 -51.19667569 50.47580923 -47.79443359 53.51159668 C-44.90136197 56.03212659 -42.78553721 57.68630656 -39.01708984 58.4119873 C-38.65583008 57.76463623 -38.29457031 57.11728516 -37.92236328 56.45031738 C-22.06810413 28.05436776 -22.06810413 28.05436776 -17.05810547 19.50231934 C-14.9384311 15.87517909 -12.90977312 12.31863932 -11.27880859 8.4432373 C-8.56178365 2.43348704 -7.01569219 -0.1493124 0 0 Z " fill="#040404" transform="translate(783.01708984375,334.5880126953125)"/>
<path d="M0 0 C14.3859375 -0.0928125 14.3859375 -0.0928125 29.0625 -0.1875 C32.07898682 -0.21481201 35.09547363 -0.24212402 38.20336914 -0.27026367 C40.60562744 -0.27902902 43.00789021 -0.28667284 45.41015625 -0.29296875 C46.6482605 -0.30831665 47.88636475 -0.32366455 49.1619873 -0.33947754 C56.42321715 -0.3416768 62.02177372 -0.18258102 67.875 4.5 C71.28286591 9.04382121 70.22470206 15.49286316 70.25 20.875 C70.270625 21.96425781 70.29125 23.05351562 70.3125 24.17578125 C70.32023438 25.75552734 70.32023438 25.75552734 70.328125 27.3671875 C70.3374707 28.32737793 70.34681641 29.28756836 70.35644531 30.27685547 C69.81665867 34.4006775 68.1338455 37.07230823 64.9375 39.6875 C60.76635274 41.5512041 56.4899444 42.25894122 52 43 C57.48357473 48.0485521 63.02475749 52.90478814 68.94921875 57.4296875 C71.70850445 59.54251198 74.38023438 61.71610177 77 64 C77 64.33 77 64.66 77 65 C54.80806255 66.90964439 54.80806255 66.90964439 49.23828125 62.796875 C46.56125245 60.00146119 44.28298834 57.12120731 42 54 C40.58232809 52.66383188 39.12697827 51.36564506 37.625 50.125 C35.28510426 48.17430535 33.68491294 46.58588558 31.8125 44.125 C27.07098262 40.5425202 21.82962314 41.17665525 16 41 C16 49.25 16 57.5 16 66 C10.72 66 5.44 66 0 66 C0 44.22 0 22.44 0 0 Z " fill="#050505" transform="translate(585,335)"/>
<path d="M0 0 C1.07824539 -0.00960754 2.15649078 -0.01921509 3.26741028 -0.02911377 C5.00809029 -0.03548859 5.00809029 -0.03548859 6.78393555 -0.04199219 C8.581717 -0.0505423 8.581717 -0.0505423 10.41581726 -0.05926514 C12.95184447 -0.06871019 15.48788392 -0.07524715 18.02392578 -0.07910156 C21.89531969 -0.0888037 25.76618191 -0.11983136 29.63745117 -0.15136719 C32.10294282 -0.15789784 34.56843825 -0.16314807 37.03393555 -0.16699219 C38.18831619 -0.17933899 39.34269684 -0.19168579 40.53205872 -0.20440674 C47.49913097 -0.18518376 52.86795615 0.1689743 58.4831543 4.66113281 C61.6418458 8.87272148 60.67276714 14.1859437 60.6081543 19.16113281 C55.3281543 19.16113281 50.0481543 19.16113281 44.6081543 19.16113281 C44.6081543 17.51113281 44.6081543 15.86113281 44.6081543 14.16113281 C29.7581543 14.16113281 14.9081543 14.16113281 -0.3918457 14.16113281 C-0.3918457 26.70113281 -0.3918457 39.24113281 -0.3918457 52.16113281 C14.4581543 52.16113281 29.3081543 52.16113281 44.6081543 52.16113281 C44.6081543 47.87113281 44.6081543 43.58113281 44.6081543 39.16113281 C36.6881543 39.16113281 28.7681543 39.16113281 20.6081543 39.16113281 C20.6081543 35.20113281 20.6081543 31.24113281 20.6081543 27.16113281 C33.8081543 27.16113281 47.0081543 27.16113281 60.6081543 27.16113281 C60.6700293 31.63675781 60.7319043 36.11238281 60.7956543 40.72363281 C60.83662231 42.82073608 60.83662231 42.82073608 60.87841797 44.96020508 C60.95637331 56.60740437 60.95637331 56.60740437 57.6081543 62.16113281 C53.01968425 65.78360917 48.18774466 66.28143658 42.48583984 66.30639648 C41.49098068 66.31277634 40.49612152 66.31915619 39.47111511 66.32572937 C37.87412529 66.32739861 37.87412529 66.32739861 36.24487305 66.32910156 C34.5859478 66.33409416 34.5859478 66.33409416 32.89350891 66.33918762 C30.55596329 66.34424468 28.21841046 66.34659632 25.88085938 66.34643555 C22.31913238 66.34861842 18.75771701 66.36677747 15.19604492 66.38574219 C12.92065535 66.38867714 10.64526432 66.39066125 8.36987305 66.39160156 C7.31128586 66.39878708 6.25269867 66.4059726 5.16203308 66.41337585 C-8.61146123 66.37118201 -8.61146123 66.37118201 -13.8293457 62.22363281 C-16.24999049 59.02838169 -16.52107142 56.376765 -16.55297852 52.49365234 C-16.56738983 51.07670578 -16.56738983 51.07670578 -16.58209229 49.63113403 C-16.58634216 48.61236176 -16.59059204 47.59358948 -16.5949707 46.54394531 C-16.60067078 45.49463837 -16.60637085 44.44533142 -16.61224365 43.36422729 C-16.62169257 41.14338184 -16.6282272 38.92252237 -16.63208008 36.70166016 C-16.64178778 33.30639169 -16.67281355 29.911728 -16.7043457 26.51660156 C-16.71087566 24.35905307 -16.71612616 22.20150026 -16.7199707 20.04394531 C-16.7323175 19.0292215 -16.74466431 18.01449768 -16.75738525 16.96902466 C-16.72966093 8.18422859 -16.72966093 8.18422859 -13.3918457 4.16113281 C-9.23790444 0.40918586 -5.45909061 0.03935777 0 0 Z " fill="#070707" transform="translate(179.391845703125,334.8388671875)"/>
<path d="M0 0 C1.51938171 -0.00430527 1.51938171 -0.00430527 3.06945801 -0.00869751 C5.2007707 -0.01072956 7.3321024 -0.00526015 9.46337891 0.00732422 C12.70908667 0.02338967 15.9535493 0.00744569 19.19921875 -0.01171875 C21.27864856 -0.00973617 23.3580776 -0.00589218 25.4375 0 C26.88002136 -0.00910904 26.88002136 -0.00910904 28.35168457 -0.0184021 C34.73704739 0.04762283 40.78886735 0.56011547 45.92004395 4.80630493 C48.84721706 8.39483649 47.34512726 15.14373633 47.21875 19.3984375 C42.26875 19.3984375 37.31875 19.3984375 32.21875 19.3984375 C32.21875 17.4184375 32.21875 15.4384375 32.21875 13.3984375 C19.01875 13.3984375 5.81875 13.3984375 -7.78125 13.3984375 C-7.78125 17.3584375 -7.78125 21.3184375 -7.78125 25.3984375 C-5.7381665 25.37487183 -5.7381665 25.37487183 -3.65380859 25.35083008 C1.41156067 25.29642793 6.47690421 25.2620498 11.54248047 25.23364258 C13.73262885 25.21857944 15.92274719 25.19812491 18.11279297 25.17211914 C21.26537503 25.13562761 24.41755737 25.11868611 27.5703125 25.10546875 C28.54553864 25.08998489 29.52076477 25.07450104 30.52554321 25.05854797 C35.8556604 25.0572359 39.62932659 25.36802704 44.21875 28.3984375 C49.05083197 33.56071174 48.82580128 38.64077177 48.71875 45.3359375 C48.74195313 46.78129883 48.74195313 46.78129883 48.765625 48.25585938 C48.73161118 54.47613704 48.00331022 58.39455594 44.21875 63.3984375 C41.01471528 65.4879374 38.39176592 65.65547866 34.61157227 65.6730957 C33.48682999 65.68262772 32.36208771 65.69215973 31.20326233 65.70198059 C29.99278732 65.70106918 28.78231232 65.70015778 27.53515625 65.69921875 C26.28749985 65.70350388 25.03984344 65.707789 23.75437927 65.71220398 C21.1156506 65.71794745 18.47731308 65.71938268 15.83862305 65.71411133 C12.46479857 65.70831822 9.09152335 65.72524802 5.71778965 65.748456 C2.49024942 65.76676958 -0.73726093 65.76300735 -3.96484375 65.76171875 C-5.17329453 65.7709285 -6.3817453 65.78013824 -7.6268158 65.78962708 C-8.75471024 65.78339828 -9.88260468 65.77716949 -11.04467773 65.77075195 C-12.03410873 65.77138138 -13.02353973 65.7720108 -14.04295349 65.7726593 C-17.29499967 65.32822731 -19.17145014 64.36911745 -21.78125 62.3984375 C-23.41481321 57.49774787 -22.83654694 52.54105274 -22.78125 47.3984375 C-17.83125 47.3984375 -12.88125 47.3984375 -7.78125 47.3984375 C-7.78125 49.0484375 -7.78125 50.6984375 -7.78125 52.3984375 C5.74875 52.3984375 19.27875 52.3984375 33.21875 52.3984375 C33.21875 48.1084375 33.21875 43.8184375 33.21875 39.3984375 C31.16781128 39.41414795 31.16781128 39.41414795 29.07543945 39.43017578 C23.99701562 39.46640764 18.9186032 39.48934968 13.84008789 39.50830078 C11.64312823 39.51835107 9.44618193 39.53199342 7.24926758 39.54931641 C4.08932192 39.57360719 0.92955332 39.58493044 -2.23046875 39.59375 C-3.21085617 39.60407257 -4.19124359 39.61439514 -5.20133972 39.62503052 C-13.86333915 39.62645191 -13.86333915 39.62645191 -17.78125 37.3984375 C-22.60861673 32.0538529 -21.99621574 26.32884336 -22.03125 19.5234375 C-22.051875 18.52957031 -22.0725 17.53570312 -22.09375 16.51171875 C-22.11507413 12.52943703 -22.0451842 9.18008879 -20.765625 5.390625 C-15.1816637 -0.2153204 -7.39642375 -0.04670594 0 0 Z " fill="#050505" transform="translate(400.78125,334.6015625)"/>
<path d="M0 0 C22.11 0 44.22 0 67 0 C67 4.29 67 8.58 67 13 C50.5 13 34 13 17 13 C17 16.96 17 20.92 17 25 C26.57 25 36.14 25 46 25 C46 29.29 46 33.58 46 38 C36.43 38 26.86 38 17 38 C17 42.62 17 47.24 17 52 C33.83 52 50.66 52 68 52 C68 56.62 68 61.24 68 66 C45.56 66 23.12 66 0 66 C0 44.22 0 22.44 0 0 Z " fill="#0A0A0A" transform="translate(502,335)"/>
<path d="M0 0 C5.28 0 10.56 0 16 0 C16 7.92 16 15.84 16 24 C30.85 24 45.7 24 61 24 C61 16.08 61 8.16 61 0 C66.28 0 71.56 0 77 0 C77 21.45 77 42.9 77 65 C71.72 65 66.44 65 61 65 C61 55.76 61 46.52 61 37 C46.15 37 31.3 37 16 37 C16 46.24 16 55.48 16 65 C10.72 65 5.44 65 0 65 C0 43.55 0 22.1 0 0 Z " fill="#020202" transform="translate(258,336)"/>
<path d="M0 0 C5.28 0 10.56 0 16 0 C16 7.92 16 15.84 16 24 C30.85 24 45.7 24 61 24 C61 16.08 61 8.16 61 0 C66.28 0 71.56 0 77 0 C77 21.12 77 42.24 77 64 C71.72 64 66.44 64 61 64 C61 55.09 61 46.18 61 37 C46.15 37 31.3 37 16 37 C16 46.24 16 55.48 16 65 C10.72 65 5.44 65 0 65 C0 43.55 0 22.1 0 0 Z " fill="#010101" transform="translate(31,336)"/>
<path d="M0 0 C5.61 0 11.22 0 17 0 C17 21.78 17 43.56 17 66 C11.39 66 5.78 66 0 66 C0 44.22 0 22.44 0 0 Z " fill="#0C0C0C" transform="translate(128,335)"/>
<path d="M0 0 C5.28 0 10.56 0 16 0 C16 21.45 16 42.9 16 65 C10.72 65 5.44 65 0 65 C0 43.55 0 22.1 0 0 Z " fill="#030303" transform="translate(467,336)"/>
<path d="M0 0 C5.09038804 -0.02292968 10.18059759 -0.04285076 15.27099609 -0.05493164 C17.00342414 -0.05996682 18.73584792 -0.06679532 20.46826172 -0.07543945 C22.95541433 -0.08754065 25.44251087 -0.09323638 27.9296875 -0.09765625 C28.70682098 -0.10281754 29.48395447 -0.10797882 30.28463745 -0.11329651 C35.77225659 -0.11387171 35.77225659 -0.11387171 38 1 C38 5.62 38 10.24 38 15 C34.82709287 16.58645357 31.41174616 16.12078213 27.9296875 16.09765625 C26.73534592 16.09553383 26.73534592 16.09553383 25.51687622 16.09336853 C22.9695462 16.08776345 20.42230353 16.07521014 17.875 16.0625 C16.14974085 16.05748565 14.42448033 16.05292263 12.69921875 16.04882812 C8.46608496 16.03864253 4.23314046 16.0190682 0 16 C0 10.72 0 5.44 0 0 Z " fill="#F3F3F3" transform="translate(601,348)"/>
<path d="M0 0 C5.09055605 -0.04586087 10.1803982 -0.08570058 15.27099609 -0.10986328 C17.00344265 -0.11993376 18.73587216 -0.13359089 20.46826172 -0.15087891 C22.95544639 -0.17508162 25.44240675 -0.18647239 27.9296875 -0.1953125 C28.70682098 -0.20563507 29.48395447 -0.21595764 30.28463745 -0.22659302 C32.19125493 -0.22699271 34.09731036 -0.1223214 36 0 C38 2 38 2 38.1953125 5.0390625 C38.17210937 6.22242188 38.14890625 7.40578125 38.125 8.625 C38.10695313 9.81351562 38.08890625 11.00203125 38.0703125 12.2265625 C38.04710937 13.14179688 38.02390625 14.05703125 38 15 C34.82709287 16.58645357 31.41174616 16.12078213 27.9296875 16.09765625 C26.73534592 16.09553383 26.73534592 16.09553383 25.51687622 16.09336853 C22.9695462 16.08776345 20.42230353 16.07521014 17.875 16.0625 C16.14974085 16.05748565 14.42448033 16.05292263 12.69921875 16.04882812 C8.46608496 16.03864253 4.23314046 16.0190682 0 16 C0 10.72 0 5.44 0 0 Z " fill="#F3F3F3" transform="translate(688,348)"/>
<path d="M0 0 C3.37019561 1.68509781 4.40050563 5.4160704 6 8.6875 C6.53367187 9.75000977 6.53367187 9.75000977 7.078125 10.83398438 C9.08739717 14.89376378 10.54560167 18.63680502 12 23 C4.08 23 -3.84 23 -12 23 C-10.6435354 19.60883849 -9.37686911 16.71006162 -7.6171875 13.57421875 C-7.17246094 12.77822266 -6.72773437 11.98222656 -6.26953125 11.16210938 C-5.80933594 10.34548828 -5.34914063 9.52886719 -4.875 8.6875 C-4.40707031 7.85154297 -3.93914063 7.01558594 -3.45703125 6.15429688 C-2.3073741 4.10133767 -1.15496198 2.04997798 0 0 Z " fill="#E5E5E5" transform="translate(784,351)"/>
<path d="M0 0 C3.32274404 2.45594125 4.77618008 3.9256644 5.625 8 C4.77618008 12.0743356 3.32274404 13.54405875 0 16 C-3.65126535 16.67064058 -5.23686002 16.48198314 -8.375 14.5 C-10.65416433 10.99359333 -10.81753559 8.07099353 -10 4 C-7.317936 -0.12625231 -4.78913194 -0.87963648 0 0 Z " fill="#7D7D7D" transform="translate(821,334)"/>
<path d="M0 0 C0.33 0 0.66 0 1 0 C1 2.97 1 5.94 1 9 C1.66 9 2.32 9 3 9 C3 8.01 3 7.02 3 6 C3.99 6 4.98 6 6 6 C6.33 7.65 6.66 9.3 7 11 C1.6 11.36 1.6 11.36 -0.875 9.875 C-2.50531294 7.15781176 -2.33015665 5.10347254 -2 2 C-1.34 1.34 -0.68 0.68 0 0 Z " fill="#DCDCDC" transform="translate(814,337)"/>
<path d="M0 0 C1.98 0 3.96 0 6 0 C5.67 0.99 5.34 1.98 5 3 C5 2.34 5 1.68 5 1 C4.01 1 3.02 1 2 1 C2 1.99 2 2.98 2 4 C2.99 4.33 3.98 4.66 5 5 C4.01 5 3.02 5 2 5 C2 5.99 2 6.98 2 8 C1.34 8 0.68 8 0 8 C0 5.36 0 2.72 0 0 Z " fill="#272727" transform="translate(815,338)"/>
<path d="M0 0 C1.65 0 3.3 0 5 0 C5 2.31 5 4.62 5 7 C4.34 7 3.68 7 3 7 C3 5.68 3 4.36 3 3 C2.01 3 1.02 3 0 3 C0 2.01 0 1.02 0 0 Z " fill="#7F7F7F" transform="translate(817,339)"/>
<path d="M0 0 C0.99 0 1.98 0 3 0 C3.33 1.65 3.66 3.3 4 5 C2.02 5 0.04 5 -2 5 C-1.34 4.67 -0.68 4.34 0 4 C0 2.68 0 1.36 0 0 Z " fill="#E5E5E5" transform="translate(817,343)"/>
</svg>
