<?xml version="1.0" encoding="UTF-8"?>
<svg xmlns="http://www.w3.org/2000/svg" version="1.1" viewBox="0 0 960 214.3">
  <!-- Generator: Adobe Illustrator 28.6.0, SVG Export Plug-In . SVG Version: 1.2.0 Build 709)  -->
  <g>
    <g id="Capa_1">
      <g>
        <path d="M733.4,203.6V11.1c2.8-.1,5-.4,7.3-.4,54.9,0,109.7,0,164.6,0,6.7,0,13.4.5,20,1.7,16.5,2.9,25.6,12.2,27,28.9,1,11.2.7,22.6.3,33.9-.5,12.3-7.4,20.4-18.7,25-3.3,1.3-6.7,2.4-10.7,3.9,4.1,1.6,7.6,2.9,11.1,4.4,13,5.9,19.5,16.4,20.3,30.3.6,9.7.3,19.6,0,29.3-.5,14.6-8.6,25.7-23.3,30.2-9,2.7-18.6,4.8-28,4.9-54.1.5-108.2.3-162.3.3-2.3,0-4.6,0-7.6,0ZM780.4,168.5c1.3.3,2.3.7,3.3.7,35.3,0,70.5.3,105.8-.2,17.3-.2,20.8-4.4,20.8-22,0-2.1,0-4.1,0-6.2,0-16.1-4.4-20.6-20.6-20.6-34,0-68,0-101.9,0-2.4,0-4.9,0-7.4,0v48.3ZM780.4,87.7c2.2.1,3.7.3,5.2.3,35,0,69.9,0,104.9,0,2.8,0,5.7-.1,8.4-.7,6.5-1.5,10.3-5.2,10-12.4-.3-6.4-.2-12.8,0-19.3.1-7.2-3.9-10.9-10.4-12.2-3.5-.7-7.1-.9-10.7-1-32.9,0-65.8,0-98.7,0-2.8,0-5.5,0-8.7,0v45.4Z"/>
        <path d="M490.4,11.1h45.4v155.9h130V11.5h45.8c.1,2.6.4,5.3.4,8,0,44.7.1,89.5,0,134.2,0,8.2-1.1,16.4-2.3,24.5-2,13.8-10.9,21.1-24,23.5-6.5,1.2-13.3,1.8-19.9,1.8-43.2.2-86.5.1-129.7,0-3.9,0-7.8.1-11.6-.5-24.4-3.9-32.9-10.9-33.5-36.1-1.3-51.6-.4-103.3-.4-155.9Z"/>
        <path d="M248.2,11.2h45.1v156.1h130.1c0-3.5,0-6.8,0-10,0-46,.1-92.1-.2-138.1,0-6.9,1.8-8.8,8.6-8.5,12,.6,24.1.2,37.1.2,0,3.6,0,6.3,0,9.1,0,45.8,0,91.6,0,137.3,0,2.8,0,5.7-.2,8.5-1.4,26.7-12.3,37.6-39.3,37.8-42.2.3-84.4.2-126.7,0-9.2,0-18.6-.3-27.6-1.7-15.9-2.5-22.8-9.6-25.8-25.4-1-5-1.5-10.2-1.5-15.3-.1-47.8,0-95.7,0-143.5,0-2,.3-4,.5-6.4Z"/>
        <path d="M225.6,203.2h-42.8v-81.7H48.3v81.6H5.2V11.4h42.8v73.8h134.7c0-3.4,0-6.7,0-9.9,0-19,.2-38.1-.1-57.1,0-5.5,1.1-7.9,7.2-7.6,11.8.5,23.5.1,35.8.1v192.5Z"/>
      </g>
    </g>
  </g>
</svg>