<?xml version="1.0" encoding="UTF-8"?>
<svg version="1.1" xmlns="http://www.w3.org/2000/svg" width="3543" height="3543">
<path d="M0 0 C1169.19 0 2338.38 0 3543 0 C3543 1169.19 3543 2338.38 3543 3543 C2373.81 3543 1204.62 3543 0 3543 C0 2373.81 0 1204.62 0 0 Z " fill="#000000" transform="translate(0,0)"/>
<path d="M0 0 C28.91019307 16.52011032 54.31051608 40.09077592 77.70458984 63.57421875 C79.39175958 65.26681347 81.08430196 66.95390597 82.77734375 68.640625 C88.3986498 74.25813315 93.87078581 79.92319964 99 86 C99.97261239 87.11835946 100.94654015 88.23557653 101.921875 89.3515625 C108.87048782 97.37542628 115.52899719 105.5865864 122 114 C122.59683594 114.75023437 123.19367188 115.50046875 123.80859375 116.2734375 C125 118 125 118 125 120 C125.84256348 119.51756836 125.84256348 119.51756836 126.70214844 119.02539062 C163.05220978 98.35083241 201.93595267 87.80034844 243.75 87.6875 C245.14161346 87.68357239 245.14161346 87.68357239 246.56134033 87.67956543 C263.3582502 87.6745108 279.4413086 89.04667718 296 92 C296.96534668 92.1654834 297.93069336 92.3309668 298.92529297 92.50146484 C312.86297922 94.92187026 326.24580906 98.71909799 339.64086914 103.21655273 C342.06980681 104.02318225 344.50621664 104.80279428 346.9453125 105.578125 C356.97347668 108.79501406 366.5382397 112.31413501 375.97265625 117.00927734 C378.22673116 118.11079902 380.50091702 119.16097803 382.78125 120.20703125 C418.56569903 136.70487978 450.77743353 158.85841857 481 184 C481.59522461 184.49467773 482.19044922 184.98935547 482.80371094 185.49902344 C496.17173638 196.66016905 508.7273629 208.6526664 521.0625 220.9375 C521.84778076 221.71810791 522.63306152 222.49871582 523.44213867 223.30297852 C527.61603809 227.48849568 531.62663329 231.75826239 535.4831543 236.23803711 C537.40408771 238.46938693 539.38848893 240.63951567 541.375 242.8125 C546.10571502 248.06175883 550.57083694 253.49558996 555 259 C555.91374442 260.12135302 556.82782139 261.24243511 557.7421875 262.36328125 C577.07158545 286.15656306 594.470216 311.57119526 610 338 C610.4547168 338.76812012 610.90943359 339.53624023 611.37792969 340.32763672 C623.63744088 361.10838927 634.69811899 382.51498649 644.625 404.5 C645.05700714 405.4546817 645.05700714 405.4546817 645.4977417 406.4286499 C649.29288589 414.84520555 652.76009291 423.35432201 656 432 C656.51690685 433.34425922 657.03490664 434.68809945 657.5546875 436.03125 C661.33640774 445.96665701 664.73908613 456.00945884 668.04492188 466.11230469 C668.74396196 468.22586455 669.45534583 470.33535279 670.17382812 472.44238281 C673.22247604 481.42156691 675.94569734 490.45770848 678.375 499.625 C678.66097549 500.70183044 678.66097549 500.70183044 678.95272827 501.80041504 C685.80103888 527.79426174 690.52541451 554.37623827 693.54915726 581.082937 C693.8477949 583.67759442 694.16766595 586.26990284 694.50953472 588.85921884 C696.49968097 604.91926614 696.27851793 621.02747363 696.24453239 637.17858913 C696.23758999 641.55064179 696.24241949 645.92268518 696.24568737 650.29473996 C696.24981335 657.94003332 696.24658427 665.58529539 696.23841095 673.2305851 C696.22629168 684.59867112 696.2257439 695.96673761 696.22749493 707.33482892 C696.23011692 726.4620024 696.22346203 745.58916203 696.21146011 764.71633148 C696.19961285 783.64569925 696.19192555 802.57506123 696.18975449 821.50443268 C696.18961701 822.682839 696.18947953 823.86124531 696.18933788 825.07536091 C696.18866119 831.06025995 696.18805843 837.045159 696.18748413 843.03005806 C696.18328695 885.38511424 696.16982242 927.7401629 696.15087891 970.09521484 C696.13250056 1011.23421183 696.11833798 1052.37320676 696.10986328 1093.51220703 C696.10960023 1094.78101809 696.10933718 1096.04982915 696.10906615 1097.35708902 C696.10642904 1110.09938995 696.10387742 1122.84169089 696.10138843 1135.58399184 C696.09631645 1161.53990174 696.09067395 1187.49581149 696.08468628 1213.45172119 C696.0844117 1214.64504647 696.08413712 1215.83837174 696.08385422 1217.06785839 C696.06546302 1296.71190872 696.03377381 1376.35595488 696 1456 C694.57769057 1455.69461259 693.15602022 1455.38624787 691.73461914 1455.07666016 C690.94285782 1454.9052652 690.1510965 1454.73387024 689.33534241 1454.55728149 C685.94490241 1453.74822263 682.69989109 1452.58596158 679.4375 1451.375 C671.19411869 1448.38513344 662.88652068 1445.61241649 654.55053711 1442.89208984 C649.06846495 1441.08626312 643.70597691 1439.11738918 638.36206055 1436.93798828 C634.66611121 1435.47030483 630.90451761 1434.23285103 627.125 1433 C625.2955069 1432.39603327 623.46608574 1431.79184861 621.63671875 1431.1875 C620.60724121 1430.84847656 619.57776367 1430.50945312 618.51708984 1430.16015625 C596.46727597 1422.88674826 574.42999895 1415.59023396 552.59765625 1407.68359375 C551.48285889 1407.28035889 550.36806152 1406.87712402 549.21948242 1406.46166992 C547.06100388 1405.67967642 544.90353567 1404.89488584 542.74731445 1404.10668945 C538.15481048 1402.43929972 533.57697096 1400.8422953 528.8828125 1399.484375 C525.55173668 1398.51425829 522.3684049 1397.38692049 519.16015625 1396.06640625 C513.35786688 1393.68269565 507.42041989 1391.81145016 501.4375 1389.9375 C499.29020763 1389.25961155 497.14306943 1388.58123453 494.99609375 1387.90234375 C493.96581055 1387.57669434 492.93552734 1387.25104492 491.87402344 1386.91552734 C483.49557425 1384.24655143 475.18781681 1381.36551023 466.875 1378.5 C465.73417969 1378.10941406 464.59335938 1377.71882813 463.41796875 1377.31640625 C454.07244019 1374.09268734 454.07244019 1374.09268734 450.28125 1372.40625 C446.14389101 1370.63309615 441.92482844 1369.31879722 437.625 1368 C429.67947638 1365.53945075 421.751361 1363.04432063 413.9375 1360.1875 C412.55498047 1359.68283203 412.55498047 1359.68283203 411.14453125 1359.16796875 C408.82477053 1358.30634334 406.51064635 1357.43420646 404.19921875 1356.55078125 C397.15005367 1353.86257655 390.11945874 1351.35515205 382.88671875 1349.1953125 C377.49697601 1347.56223675 372.15736637 1345.77322846 366.8125 1344 C365.80251953 1343.66758301 364.79253906 1343.33516602 363.75195312 1342.99267578 C358.15676387 1341.13036082 352.67680414 1339.10287583 347.2175293 1336.875 C344.35624691 1335.74598579 341.45429523 1334.85278625 338.5 1334 C334.6524256 1332.88935997 330.95575138 1331.60593782 327.25 1330.09765625 C322.06623678 1327.9923619 316.81383441 1326.18392268 311.5 1324.4375 C310.62730469 1324.14681641 309.75460937 1323.85613281 308.85546875 1323.55664062 C303.66154854 1321.83687593 298.44778479 1320.21255678 293.19677734 1318.67578125 C290.47851131 1317.83957761 287.84340947 1316.83970446 285.19140625 1315.81640625 C279.70869183 1313.77382637 274.12118837 1311.99400903 268.546875 1310.21875 C264.90492827 1309.04721469 261.45284634 1307.77550016 258 1306.125 C253.76754234 1304.18174988 249.4086305 1302.88909187 244.9375 1301.625 C237.82252046 1299.6122149 230.96102193 1297.21505829 224.07421875 1294.52734375 C218.78051827 1292.49763127 213.38359197 1290.77335857 208 1289 C205.52704434 1288.17668002 203.0544007 1287.3524224 200.58203125 1286.52734375 C199.29494026 1286.09825215 198.00783074 1285.66921611 196.72070312 1285.24023438 C194.75952148 1284.58650716 192.79833984 1283.93277995 190.8371582 1283.27905273 C189.53448334 1282.84482778 188.23180496 1282.41061335 186.92912292 1281.97640991 C185.05922523 1281.35307582 183.18940185 1280.72951884 181.31958008 1280.10595703 C179.36415642 1279.45448471 177.40840509 1278.80399203 175.4519043 1278.15576172 C169.6779576 1276.24156939 163.93104665 1274.25340319 158.1875 1272.25 C157.18485107 1271.90074463 156.18220215 1271.55148926 155.14916992 1271.19165039 C144.61595629 1267.52102281 134.08837462 1263.83433231 123.56152344 1260.14550781 C118.5744075 1258.3981244 113.58657678 1256.65280171 108.59814453 1254.90917969 C105.95924976 1253.9857401 103.32142231 1253.05929278 100.68359375 1252.1328125 C92.21587297 1249.1662556 83.73950024 1246.23315147 75.22265625 1243.41015625 C74.22350189 1243.07874886 74.22350189 1243.07874886 73.2041626 1242.74064636 C69.93020623 1241.65568626 66.65489836 1240.57507077 63.37744141 1239.50073242 C58.18904926 1237.78805592 53.04085165 1236.06756964 47.98828125 1233.984375 C41.78615876 1231.43776611 35.39429024 1229.50163145 29 1227.5 C20.86074268 1224.95213419 12.87121077 1222.287885 5 1219 C3.35 1218.34 1.7 1217.68 0 1217 C0 815.39 0 413.78 0 0 Z " fill="#FEFEFE" transform="translate(1638,903)"/>
<path d="M0 0 C0 402.27 0 804.54 0 1219 C-42.36173311 1205.26105953 -42.36173311 1205.26105953 -57 1200 C-59.74874585 1199.01728439 -62.49879965 1198.03832248 -65.25 1197.0625 C-66.25111816 1196.707323 -66.25111816 1196.707323 -67.27246094 1196.3449707 C-75.63400596 1193.39769238 -84.05367818 1190.62185625 -92.46875 1187.83203125 C-93.41306885 1187.5189502 -94.3573877 1187.20586914 -95.33032227 1186.88330078 C-96.97857051 1186.33795445 -98.62738203 1185.79430318 -100.27709961 1185.25341797 C-106.74862231 1183.12139815 -113.15225895 1180.80866919 -119.5625 1178.5 C-139.46086858 1171.36436361 -159.43494985 1164.41283155 -179.52587891 1157.83691406 C-183.31791557 1156.59029801 -187.05443303 1155.23991125 -190.78564453 1153.82568359 C-195.22832101 1152.16910897 -199.70967764 1150.62098128 -204.1875 1149.0625 C-205.20400635 1148.70841064 -206.2205127 1148.35432129 -207.26782227 1147.98950195 C-213.61855169 1145.79017874 -219.98417768 1143.72259269 -226.421875 1141.79296875 C-231.81252227 1140.13493633 -237.00581704 1138.00095265 -242.23828125 1135.90625 C-243.57886597 1135.36967773 -243.57886597 1135.36967773 -244.9465332 1134.82226562 C-245.62417725 1134.55091797 -246.30182129 1134.27957031 -247 1134 C-248.90820366 1114.50100591 -249.29464581 1095.13813715 -249.26933783 1075.56803989 C-249.26602006 1071.26452498 -249.27439545 1066.9610283 -249.28115618 1062.65751958 C-249.29138521 1055.14074775 -249.29431246 1047.62400162 -249.29224396 1040.10722351 C-249.28917532 1028.92829587 -249.29755887 1017.74939636 -249.30799321 1006.57047422 C-249.32727142 985.43511547 -249.33295912 964.29976647 -249.33410732 943.16439995 C-249.33502871 926.83334555 -249.33915731 910.50229493 -249.34550858 894.17124176 C-249.34730384 889.45928042 -249.34908347 884.74731907 -249.35085833 880.03535771 C-249.35130043 878.86373153 -249.35174252 877.69210534 -249.35219802 876.48497533 C-249.36449563 843.55719761 -249.37240024 810.6294212 -249.37151146 777.70164108 C-249.3714803 776.46178174 -249.37144914 775.2219224 -249.37141704 773.94449156 C-249.37125084 767.66130804 -249.37105276 761.37812451 -249.37084763 755.09494099 C-249.37080774 753.84722625 -249.37076785 752.5995115 -249.37072675 751.31398722 C-249.37064587 748.79080652 -249.37056228 746.26762582 -249.37047596 743.74444512 C-249.36925108 704.50767514 -249.38425668 665.27093977 -249.41162109 626.03417969 C-249.44240046 581.88336543 -249.45955007 537.7325739 -249.45769465 493.58174825 C-249.4575454 488.86601464 -249.45744798 484.15028103 -249.45738602 479.43454742 C-249.45736271 478.2735395 -249.4573394 477.11253158 -249.45731538 475.9163416 C-249.45725407 457.30442395 -249.4699773 438.69253656 -249.48725055 420.08062788 C-249.50427653 401.34654027 -249.50612667 382.61249652 -249.4930319 363.87840542 C-249.48568902 352.77728823 -249.48915967 341.676305 -249.50891658 330.57520225 C-249.5210403 323.12792828 -249.51819031 315.68074988 -249.50397559 308.23348004 C-249.49631539 304.01148968 -249.494354 299.78975572 -249.51089029 295.56778488 C-249.64171863 259.77408755 -247.60201154 222.28120899 -236.88671875 187.890625 C-236.01481832 185.0483064 -235.34104306 182.21185466 -234.6875 179.3125 C-227.88247466 151.875217 -214.5225876 125.08883257 -199 101.625 C-198.34757324 100.63830322 -197.69514648 99.65160645 -197.02294922 98.63500977 C-191.06724604 89.79935697 -184.45839785 81.53272999 -177.25 73.6875 C-174.89965841 71.11389625 -172.59947641 68.54570094 -170.4375 65.8125 C-167.88097236 62.86266042 -165.16990516 60.41494726 -162.19921875 57.89453125 C-160.73517729 56.63332324 -159.29946368 55.33845457 -157.89453125 54.01171875 C-138.36143326 35.62169362 -114.76203951 22.84872964 -90 13 C-88.99066406 12.58234375 -87.98132812 12.1646875 -86.94140625 11.734375 C-59.18783736 0.82345556 -29.37256172 0 0 0 Z " fill="#FEFEFE" transform="translate(1472,844)"/>
<path d="M0 0 C6.57798835 1.79399682 12.02649311 3.34520127 18.13671875 5.8984375 C21.71003404 7.27316453 25.33824232 8.38702957 29 9.5 C34.27745919 11.10703662 39.41932138 12.83067672 44.49609375 15.0078125 C46.67708818 15.8720443 48.85130845 16.62670977 51.07885742 17.35888672 C55.82106149 18.93150227 60.53305493 20.58139702 65.2421875 22.25 C66.98561009 22.86477334 68.72910183 23.47935063 70.47265625 24.09375 C73.17401006 25.04630429 75.87494295 25.99997978 78.57470703 26.95703125 C91.57995427 31.61766542 91.57995427 31.61766542 104.85571289 35.4128418 C108.03758631 36.28411648 111.010858 37.58307273 114.05322266 38.84838867 C117.73025945 40.28538806 121.45982254 41.5105549 125.2109375 42.73828125 C131.4880935 44.8117228 137.74224601 46.93844269 143.97265625 49.1484375 C144.71189331 49.4105603 145.45113037 49.67268311 146.21276855 49.94274902 C147.72367598 50.47899336 149.23448878 51.01550437 150.74520874 51.55227661 C163.47037251 56.07017647 176.20581917 60.48390528 189.11157227 64.46435547 C193.44647115 65.81045362 197.68323188 67.23496156 201.8828125 68.9609375 C207.70782791 71.34825773 213.67906967 73.19632684 219.6875 75.0625 C226.28159051 77.11217289 232.68467932 79.20985832 239 82 C241.96117511 83.11460566 244.94765757 84.1526237 247.9375 85.1875 C248.80955078 85.49083252 249.68160156 85.79416504 250.58007812 86.10668945 C262.78746325 90.33456567 275.05812572 94.37563668 287.32421875 98.42919922 C291.26209755 99.73067801 295.19890127 101.03537432 299.13525391 102.34146118 C300.68270824 102.85419722 302.2305456 103.36577911 303.77880859 103.87606812 C312.42128822 106.72472711 320.98710484 109.70235798 329.49234009 112.93896484 C334.56840226 114.8627572 339.67671673 116.56735838 344.875 118.125 C350.50005378 119.81638215 355.93246156 121.73556051 361.37109375 123.95605469 C366.04655374 125.81269166 370.80626338 127.42665719 375.5625 129.0625 C376.53896484 129.40087891 377.51542969 129.73925781 378.52148438 130.08789062 C384.33476726 132.09823661 390.16106451 134.06560842 396 136 C397.4375986 136.47887075 398.87509673 136.95804325 400.3125 137.4375 C401.06168701 137.68717529 401.81087402 137.93685059 402.58276367 138.1940918 C404.26534694 138.75506618 405.947791 139.3164582 407.63012695 139.87817383 C412.80768066 141.60608895 417.98729267 143.32754453 423.1701355 145.03952026 C426.11033704 146.01118401 429.04970955 146.98534217 431.98901367 147.9597168 C433.43884272 148.43966576 434.88903083 148.91853165 436.33959961 149.39624023 C443.44179004 151.73571769 450.47354562 154.13304536 457.390625 156.98388672 C461.89972999 158.73977135 466.50806624 160.2046807 471.10400391 161.71435547 C476.67453881 163.54444425 482.21026859 165.47533775 487.7512207 167.39273071 C497.32369603 170.70390074 506.9054961 173.98312033 516.51953125 177.171875 C517.70889534 177.56656227 517.70889534 177.56656227 518.92228699 177.96922302 C522.75216848 179.23905116 526.58344803 180.5044468 530.41674805 181.76391602 C538.20282521 184.33265827 545.91989562 187.02327494 553.57226562 189.96931458 C558.67507938 191.9251608 563.84852613 193.52026663 569.08203125 195.08203125 C571.64157548 195.88724262 574.08494449 196.78775191 576.5625 197.8125 C588.11678315 202.58902555 600.08518185 206.50506432 612.05078125 210.10546875 C618.62129441 212.09837937 625.14812341 214.19833013 631.5 216.8125 C643.3655629 221.65441518 655.56512675 225.81466692 667.95703125 229.078125 C671.39651513 230.12012525 674.69672347 231.58431006 678 233 C683.94 234.98 689.88 236.96 696 239 C696 336.02 696 433.04 696 533 C687.00811124 531.8760139 687.00811124 531.8760139 684.0625 530.8125 C683.29679687 530.54179687 682.53109375 530.27109375 681.7421875 529.9921875 C680.38480469 529.50105469 680.38480469 529.50105469 679 529 C677.24183821 528.38403149 675.48366288 527.76810154 673.7253418 527.15258789 C667.51591379 524.97367156 661.32019883 522.75722613 655.12890625 520.52734375 C653.91307861 520.09043213 652.69725098 519.65352051 651.44458008 519.20336914 C649.04115234 518.33922784 646.63859603 517.4726577 644.23706055 516.60327148 C637.47841287 514.17483963 630.69699593 511.93118705 623.81201172 509.88671875 C621.26415931 509.08329802 618.83308846 508.16698143 616.375 507.125 C610.66855778 504.74653232 604.77305417 502.98801306 598.86279297 501.19384766 C594.78807601 499.94286011 590.93666823 498.55136222 587.0390625 496.8112793 C583.28819238 495.3189252 579.39572752 494.25158045 575.53271484 493.08886719 C569.57416003 491.25229811 563.69898882 489.17874719 557.8125 487.125 C549.4974859 484.23496465 541.17636046 481.37112509 532.8125 478.625 C527.59540218 476.9098219 522.48785224 475.04141178 517.41796875 472.9296875 C513.40468196 471.38661439 509.27366951 470.2313778 505.15625 469 C502.36637386 468.11607885 499.70048679 467.12228022 497 466 C493.33916484 464.48151854 489.67417014 463.25448302 485.875 462.125 C480.82479269 460.61587923 475.91725099 458.88583585 471 457 C465.28668364 454.81543717 459.55966483 452.88182986 453.6953125 451.1328125 C448.83394273 449.64254058 444.01131425 448.04460083 439.1875 446.4375 C438.30360596 446.14431885 437.41971191 445.8511377 436.5090332 445.54907227 C431.98728672 444.03869902 427.50553472 442.46028577 423.04956055 440.76635742 C418.9964323 439.2508399 414.90138655 437.85299426 410.8125 436.4375 C409.82781738 436.095979 408.84313477 435.75445801 407.82861328 435.40258789 C404.55282879 434.26717586 401.27641715 433.13358497 398 432 C396.82453613 431.59265625 395.64907227 431.1853125 394.43798828 430.765625 C381.51368567 426.28764179 368.58289212 421.83738975 355.59790039 417.53833008 C346.37948053 414.47804727 337.2141216 411.26757232 328.04492188 408.06347656 C322.71936319 406.20345943 317.39176651 404.34936608 312.0625 402.5 C310.98524658 402.12609131 309.90799316 401.75218262 308.7980957 401.36694336 C300.25473258 398.41176433 291.68443631 395.54177371 283.09008789 392.73828125 C277.75376095 390.98217612 272.54564876 389.04256942 267.34423828 386.92163086 C263.92725087 385.57825162 260.45231762 384.4921651 256.9375 383.4375 C255.54670454 383.0109721 254.15607795 382.58389313 252.765625 382.15625 C251.52296875 381.7746875 250.2803125 381.393125 249 381 C244.36216614 379.51808859 239.77564913 377.92496691 235.20703125 376.2421875 C228.69547543 373.86908956 222.13862246 371.63326348 215.5793457 369.39678955 C205.84643881 366.07677925 196.12789805 362.74097706 186.5 359.125 C179.75031624 356.59359296 172.95251458 354.35672532 166.05859375 352.25390625 C161.51587808 350.86382852 157.00696729 349.37639364 152.5 347.875 C151.77031006 347.63322021 151.04062012 347.39144043 150.28881836 347.14233398 C149.23319702 346.78957397 149.23319702 346.78957397 148.15625 346.4296875 C147.54587891 346.22585449 146.93550781 346.02202148 146.30664062 345.81201172 C144.33281129 345.11716028 142.372885 344.38302867 140.41625977 343.64111328 C135.37917417 341.74472081 130.2835994 340.03089424 125.18359375 338.3125 C123.0995806 337.6068558 121.01559712 336.90112399 118.93164062 336.1953125 C115.67786764 335.09490541 112.42380305 333.99537944 109.16918945 332.89746094 C106.00648111 331.82994849 102.84497067 330.75894785 99.68359375 329.6875 C98.71675156 329.36241455 97.74990936 329.0373291 96.75376892 328.70239258 C92.84788016 327.37673988 88.98235314 326.04319183 85.20141602 324.390625 C82.19357959 323.08408673 79.22304723 322.03531688 76.09375 321.0625 C75.01996094 320.72476563 73.94617187 320.38703125 72.83984375 320.0390625 C71.73769531 319.69617187 70.63554688 319.35328125 69.5 319 C62.84517624 316.92961039 56.37655843 314.8108255 50 312 C47.96826454 311.34343409 45.92624321 310.71781453 43.875 310.125 C39.32845047 308.76207554 34.91487595 307.24243288 30.5 305.5 C25.21958807 303.41964494 19.90936268 301.67470738 14.4609375 300.08984375 C9.5867153 298.55495888 4.80251117 296.7463677 0 295 C0 197.65 0 100.3 0 0 Z " fill="#FEFEFE" transform="translate(1638,2263)"/>
<path d="M0 0 C0.73822998 0.2676416 1.47645996 0.5352832 2.23706055 0.81103516 C40.60176111 15.11452841 68.04028353 49.14929802 85.02246094 85.13378906 C96.00499713 109.17803758 100.26102144 133.1451899 100.10601807 159.45858765 C100.10776718 161.70496903 100.11127828 163.95134961 100.11637473 166.19772589 C100.12523182 172.30497731 100.10943998 178.41194304 100.08926249 184.51915812 C100.07365875 190.4486736 100.07711443 196.37817118 100.07998985 202.30769979 C100.08521785 214.41995757 100.07198564 226.53212738 100.04792023 238.64435959 C100.02418315 250.62227186 100.00884259 262.60014742 100.00450897 274.57808304 C100.00423401 275.32519803 100.00395906 276.07231302 100.00367576 276.84206785 C100.00232227 280.63689498 100.0011168 284.43172215 99.99996826 288.22654934 C99.99158554 315.0460773 99.96468921 341.8655575 99.92675781 368.68505859 C99.88997018 394.72607165 99.86166024 420.7670716 99.84472656 446.80810547 C99.84393741 448.01395039 99.84393741 448.01395039 99.84313231 449.24415582 C99.83785784 457.31784005 99.83275464 465.39152438 99.82777687 473.46520879 C99.81763433 489.90955599 99.80634932 506.35390233 99.79437256 522.79824829 C99.79354882 523.93216375 99.79354882 523.93216375 99.79270844 525.08898659 C99.75595848 575.49684465 99.69250026 625.90467478 99.625 676.3125 C98.18730521 675.99968056 96.75000848 675.68503128 95.31288147 675.36961365 C94.51244447 675.19459037 93.71200747 675.01956709 92.8873148 674.83924007 C90.19014278 674.21125117 87.60685558 673.39443039 84.99609375 672.47265625 C83.53719727 671.9612207 83.53719727 671.9612207 82.04882812 671.43945312 C81.06333984 671.08818359 80.07785156 670.73691406 79.0625 670.375 C78.07314453 670.02759766 77.08378906 669.68019531 76.06445312 669.32226562 C71.91035007 667.85854384 67.76673123 666.37674405 63.65234375 664.8046875 C57.39426345 662.43717665 51.00373393 660.43706787 44.64453125 658.36132812 C39.89175332 656.79417962 35.19761921 655.18040028 30.56640625 653.28125 C25.28321442 651.12114546 19.89073941 649.42473536 14.4375 647.75 C8.3327556 645.87321764 2.49933782 643.83100786 -3.375 641.3125 C-6.99933314 640.07643503 -10.654303 638.94379927 -14.3125 637.8125 C-19.94009289 636.06508471 -25.52319705 634.30151198 -31.02661133 632.18798828 C-36.88906924 630.00244154 -42.8317281 628.02864495 -48.75 626 C-50.19003412 625.50524133 -51.63005685 625.01044949 -53.07006836 624.515625 C-61.35612633 621.67154343 -69.6475932 618.84535105 -77.98388672 616.15112305 C-80.98475582 615.16951951 -83.87695873 614.09581058 -86.77734375 612.84375 C-89.54945252 611.66387309 -92.24533961 610.65444544 -95.09985352 609.71679688 C-95.90270279 609.45217651 -96.70555206 609.18755615 -97.5327301 608.91491699 C-98.14067917 608.71611938 -98.74862823 608.51732178 -99.375 608.3125 C-99.42637724 557.35652848 -99.4741362 506.4005551 -99.50202942 455.44456482 C-99.50244359 454.68988273 -99.50285776 453.93520064 -99.50328448 453.1576494 C-99.51226411 436.75467707 -99.52057452 420.35170447 -99.52819599 403.94873146 C-99.53193786 395.90421609 -99.53582754 387.8597008 -99.53979492 379.81518555 C-99.5401872 379.01467792 -99.54057948 378.2141703 -99.54098364 377.38940487 C-99.55375786 351.46274894 -99.57628444 325.53611268 -99.60389166 299.60946866 C-99.63222018 272.95690339 -99.65066346 246.30434899 -99.65674497 219.65176892 C-99.65760938 215.88356285 -99.65858629 212.11535682 -99.65963173 208.3471508 C-99.659834 207.60554519 -99.66003627 206.86393957 -99.66024467 206.09986105 C-99.66378388 194.18274189 -99.677682 182.26565645 -99.6954961 170.34855101 C-99.71320141 158.35530895 -99.71989305 146.36210019 -99.71550413 134.36884553 C-99.71358495 127.87572138 -99.7165025 121.38269587 -99.73261642 114.88958931 C-99.74728044 108.93707061 -99.74791025 102.98471631 -99.73769668 97.03218984 C-99.73643547 94.88654159 -99.74018557 92.74088283 -99.74964955 90.59525508 C-99.86305247 63.28167472 -94.9125732 38.46298828 -76.375 17.3125 C-75.77042969 16.61253906 -75.16585938 15.91257812 -74.54296875 15.19140625 C-55.94603395 -4.89328333 -25.12640183 -9.24370943 0 0 Z " fill="#000000" transform="translate(1982.375,1301.6875)"/>
<path d="M0 0 C4.59276811 0.91855362 8.83500818 2.22919599 13.23828125 3.765625 C14.03670944 4.04090027 14.83513763 4.31617554 15.65776062 4.59979248 C18.21040383 5.48015243 20.76157504 6.36467472 23.3125 7.25 C26.6409527 8.4038808 29.97023778 9.55529229 33.30078125 10.703125 C34.11588165 10.98410034 34.93098206 11.26507568 35.77078247 11.55456543 C42.37649045 13.81725134 49.02377565 15.91669091 55.70385742 17.94824219 C58.53655657 18.85212101 61.25960449 19.85145859 64 21 C68.25923704 22.78427497 72.58745062 24.15649724 77 25.5 C81.35874583 26.82869018 85.66535422 28.18226707 89.875 29.9375 C94.02227799 31.65990372 98.23384866 33.1055606 102.5 34.5 C110.61467388 37.15780138 118.66258891 39.99169543 126.70678711 42.85375977 C139.4261461 47.37807629 152.1810708 51.76594308 165 56 C177.47912109 60.12200321 189.8946646 64.39222045 202.27340698 68.80630493 C214.75966361 73.25620305 227.31183777 77.4863025 239.90893555 81.61157227 C240.58107086 81.83279755 241.25320618 82.05402283 241.94570923 82.2819519 C243.76190742 82.87947644 245.57927904 83.47343094 247.39672852 84.06713867 C250 85 250 85 251 86 C251.0969847 87.56905893 251.1237165 89.14250151 251.12304783 90.71455479 C251.12503888 91.74066413 251.12702993 92.76677348 251.12908131 93.82397705 C251.12616847 94.96500301 251.12325563 96.10602897 251.12025452 97.28163147 C251.12153615 99.0837597 251.12153615 99.0837597 251.12284368 100.92229456 C251.12421189 104.27211946 251.12106434 107.62188665 251.11606562 110.9717046 C251.11176449 114.57840104 251.1132073 118.18509555 251.1139679 121.79179382 C251.11449335 128.04564401 251.11134435 134.2994838 251.10573006 140.55333138 C251.0976179 149.5954484 251.09500013 158.63756037 251.09374207 167.67968064 C251.0915511 182.34838695 251.0848898 197.01708772 251.07543945 211.68579102 C251.06626649 225.93872042 251.05918509 240.19164832 251.05493164 254.44458008 C251.05466892 255.32249405 251.05440619 256.20040803 251.05413551 257.10492546 C251.05283051 261.50897177 251.05156679 265.91301808 251.05032361 270.3170644 C251.0399496 306.87804685 251.02233007 343.439023 251 380 C249.10079763 379.53787481 247.20244249 379.07226703 245.30444336 378.60522461 C244.24720566 378.34631943 243.18996796 378.08741425 242.10069275 377.82066345 C237.80241661 376.68303441 233.70296188 375.16993187 229.5625 373.5625 C224.24570257 371.54881531 218.95650003 369.60977204 213.5 368 C208.36878996 366.4760692 203.38231652 364.69391628 198.375 362.8125 C187.21351065 358.6326176 175.90484935 354.91575948 164.58740234 351.18359375 C158.49285555 349.17281637 152.4024345 347.14969466 146.3125 345.125 C145.19681641 344.75584473 144.08113281 344.38668945 142.93164062 344.00634766 C137.88614733 342.32991693 132.87003748 340.61642436 127.90307617 338.71972656 C124.29148963 337.3538565 120.64448742 336.08738617 117 334.8125 C116.14768799 334.51424316 115.29537598 334.21598633 114.41723633 333.90869141 C102.85676811 329.88267842 91.23082562 326.0505627 79.60791016 322.20947266 C78.19912077 321.74386918 76.79049841 321.27775986 75.38208008 320.81103516 C73.66147196 320.24099583 71.94014744 319.67312005 70.21875 319.10546875 C67.22115883 318.07595625 64.25928135 316.97116075 61.29492188 315.8503418 C56.55707962 314.09482003 51.77536229 312.4625337 47 310.8125 C45.87021729 310.42102783 44.74043457 310.02955566 43.57641602 309.6262207 C37.82172838 307.63887813 32.05965278 305.67901953 26.27734375 303.7734375 C25.21064453 303.42176514 24.14394531 303.07009277 23.04492188 302.70776367 C21.03333384 302.04729648 19.0203907 301.39093643 17.00585938 300.73950195 C16.08482422 300.4374585 15.16378906 300.13541504 14.21484375 299.82421875 C13.42198975 299.56729248 12.62913574 299.31036621 11.81225586 299.0456543 C7.79909999 297.5534808 3.9125652 295.73891786 0 294 C0 196.98 0 99.96 0 0 Z " fill="#FEFEFE" transform="translate(1221,2120)"/>
<path d="M0 0 C0.79792969 0.32871094 1.59585937 0.65742187 2.41796875 0.99609375 C12.39107295 5.46466292 19.38711003 12.04829932 24.625 21.5625 C24.96805176 22.17528809 25.31110352 22.78807617 25.66455078 23.41943359 C28.11130932 28.20967426 28.31216303 31.76837883 28 37 C28.66 37 29.32 37 30 37 C30.02687279 38.81242052 30.04633715 40.62495233 30.0625 42.4375 C30.07410156 43.44683594 30.08570313 44.45617187 30.09765625 45.49609375 C30 48 30 48 29 49 C28.773125 50.258125 28.54625 51.51625 28.3125 52.8125 C25.89878209 63.89446034 19.7607701 74.09090579 10.546875 80.78125 C-1.18287475 88.1213388 -13.09277607 90.64665846 -26.8203125 88.57421875 C-36.94169588 85.9218305 -46.62176765 79.26239289 -53 71 C-55.27430431 67.10987592 -57.20991592 63.13315591 -59 59 C-59.37511719 58.27296875 -59.75023437 57.5459375 -60.13671875 56.796875 C-63.34325698 46.40827151 -62.3965828 31.98178656 -57.47265625 22.39453125 C-56.98667969 21.60433594 -56.50070312 20.81414063 -56 20 C-55.56558594 19.28199219 -55.13117188 18.56398438 -54.68359375 17.82421875 C-48.86332858 9.28451344 -40.84293988 2.26893967 -31 -1 C-29.1746875 -1.61875 -29.1746875 -1.61875 -27.3125 -2.25 C-18.14477595 -4.28523474 -8.56093781 -3.86572512 0 0 Z " fill="#090909" transform="translate(1285,748)"/>
<path d="M0 0 C0.79792969 0.32871094 1.59585937 0.65742187 2.41796875 0.99609375 C12.39107295 5.46466292 19.38711003 12.04829932 24.625 21.5625 C24.96805176 22.17528809 25.31110352 22.78807617 25.66455078 23.41943359 C28.11130932 28.20967426 28.31216303 31.76837883 28 37 C28.66 37 29.32 37 30 37 C30.02687279 38.81242052 30.04633715 40.62495233 30.0625 42.4375 C30.07410156 43.44683594 30.08570313 44.45617187 30.09765625 45.49609375 C30 48 30 48 29 49 C28.773125 50.258125 28.54625 51.51625 28.3125 52.8125 C25.89878209 63.89446034 19.7607701 74.09090579 10.546875 80.78125 C-1.18287475 88.1213388 -13.09277607 90.64665846 -26.8203125 88.57421875 C-36.94169588 85.9218305 -46.62176765 79.26239289 -53 71 C-55.27430431 67.10987592 -57.20991592 63.13315591 -59 59 C-59.37511719 58.27296875 -59.75023437 57.5459375 -60.13671875 56.796875 C-63.34325698 46.40827151 -62.3965828 31.98178656 -57.47265625 22.39453125 C-56.98667969 21.60433594 -56.50070312 20.81414063 -56 20 C-55.56558594 19.28199219 -55.13117188 18.56398438 -54.68359375 17.82421875 C-48.86332858 9.28451344 -40.84293988 2.26893967 -31 -1 C-29.1746875 -1.61875 -29.1746875 -1.61875 -27.3125 -2.25 C-18.14477595 -4.28523474 -8.56093781 -3.86572512 0 0 Z M-43 20 C-48.55667153 27.05319899 -50.39496063 34.49950641 -50.375 43.375 C-50.37338867 44.12305908 -50.37177734 44.87111816 -50.37011719 45.6418457 C-50.23986749 51.51265907 -49.16840296 55.98796187 -46 61 C-45.443125 62.010625 -44.88625 63.02125 -44.3125 64.0625 C-37.56742468 72.63056865 -30.05502104 78.02497682 -19.16015625 79.34375 C-8.89298697 79.86164 -0.48045235 76.68821008 7.296875 70.03515625 C11.15213572 65.87509927 13.8071287 61.20677023 16 56 C16.35578125 55.25234375 16.7115625 54.5046875 17.078125 53.734375 C20.11295315 44.73276609 18.67691642 34.07335866 14.6015625 25.68359375 C9.55603905 17.22926544 3.16936953 11.69945745 -6 8 C-21.41863576 4.73605503 -32.30059784 8.48341437 -43 20 Z " fill="#F5F5F5" transform="translate(1285,748)"/>
<path d="M0 0 C31.41463415 0 31.41463415 0 38.0625 5.5625 C40.66900628 10.18694662 40.77682145 13.80711749 40 19 C38.48321235 23.17116604 36.94045743 25.86089454 33 28 C31.00555625 28.36510988 29.0055347 28.70176906 27 29 C28.41479597 31.37613169 29.83177414 33.75091658 31.25 36.125 C31.84361328 37.12273438 31.84361328 37.12273438 32.44921875 38.140625 C34.32385147 41.27525677 36.22352915 44.35955617 38.296875 47.3671875 C40 50 40 50 40 52 C36.40362614 52.86224537 33.5649625 53.0832197 30 52 C26.58491527 48.06765631 24.33661612 43.62048696 22 39 C21.19028653 37.40445841 20.36139054 35.81824591 19.5 34.25 C19.2009375 33.63640625 18.901875 33.0228125 18.59375 32.390625 C16.33733007 30.16029279 16.33733007 30.16029279 9 30 C9 37.26 9 44.52 9 52 C6.03 52 3.06 52 0 52 C0 34.84 0 17.68 0 0 Z " fill="#F4F4F4" transform="translate(1249,765)"/>
<path d="M0 0 C2.91765891 -0.10806144 5.83131125 -0.18732877 8.75 -0.25 C9.9875 -0.30027344 9.9875 -0.30027344 11.25 -0.3515625 C17.37263845 -0.45031473 17.37263845 -0.45031473 20.546875 1.828125 C22.53179475 4.79483301 22.5833135 6.50011898 22 10 C20.546875 12.171875 20.546875 12.171875 18 14 C14.9019373 14.48932579 11.87645042 14.37701205 8.75 14.25 C7.90953125 14.23195313 7.0690625 14.21390625 6.203125 14.1953125 C4.13492605 14.14830798 2.06731559 14.07656724 0 14 C0 9.38 0 4.76 0 0 Z " fill="#090909" transform="translate(1258,773)"/>
</svg>
