<?xml version="1.0" encoding="UTF-8"?>
<svg xmlns="http://www.w3.org/2000/svg" version="1.1" viewBox="0 0 625 213">
  <defs>
    <style>
      .cls-1 {
        fill: #fff;
        stroke: #ffad33;
        stroke-miterlimit: 10;
        stroke-width: 5.9px;
      }
    </style>
  </defs>
  <!-- Generator: Adobe Illustrator 28.6.0, SVG Export Plug-In . SVG Version: 1.2.0 Build 709)  -->
  <g>
    <g id="layer">
      <path class="cls-1" d="M552.1,43.6l-9.9,4.1-7.9,7.9,5.9-24.7-13.6-17.2h-1.5l-6.3,1.5-30.2,15.1-7.3,9.2-4,16.7c-1.6-1.9-3.3-3.4-4.8-4.5-8-6-18.1-9-29.8-9-22.9,0-36.2,8.2-44,17.8-2.3-4.1-5.3-6.9-7.8-8.7-8-6-18-9-29.8-9s-7.3.2-10.5.6l3-12.4-13.6-17.2h-59.2l-9.9,4.2-19.1,19.4-3.7,6.9v.5c-5-1.2-10.6-1.8-17-1.8-22.4,0-35.5,8.1-43.3,17.6-.9-1.7-1.9-3.2-2.9-4.4-6.9-8.7-18.7-13.2-35.1-13.2s-18.3,1.6-25,4.2l3.7-15.4-13.6-17.2h-52.7l-13.6,10.7-4.9,20.4,8.3,10.6-22.6,95.4h-.4l-13.6,10.7-4.9,20.4,13.6,17.2h53l10.5-8.3c7.2,6,17.7,9,31.4,9,22.6,0,35.7-8.1,43.3-17.6.8,1.5,1.7,2.9,2.8,4.3,6.9,8.8,18.7,13.3,35.1,13.3s32.5-6.1,40.5-14l9.6,12.1h31.1l13.6-10.7v-.3c7.2,8.5,19,12.8,35.4,12.8s35.6-8,43.2-17.3c.8,1.5,1.7,2.8,2.6,3.9,7,8.9,19.1,13.4,35.8,13.4s32-6,39.9-13.7l9.4,11.9h28.1l10.2-8,6.3,8h63.9l13.2-10.8,4.8-20.2-13.6-17.2h-10.8l41.3-68.9,1.6-3.9,4.1-17-13.6-17.2h-44.7Z"/>
      <path d="M382.7,63c-5.6-4.1-12.7-6.3-21.4-6.3-22.4,0-35.7,9-40,26.9l-18.3,76.1c-4.3,17.9,4.8,26.9,27.1,26.9s34.8-8.6,38.9-25.8l18.8-78.3c2.2-8.8.4-15.3-5.1-19.5M359.8,82.6l-18.7,77.8c-1,4.3-3.2,6.5-6.6,6.5s-4.6-2.2-3.6-6.5l18.7-77.8c1-4.2,3.2-6.3,6.6-6.3,3.4,0,4.5,2.2,3.6,6.3M208.7,130.8h38l11.6-48.3c4.1-17.1-4.9-25.7-27-25.7s-35,9-39.3,26.9l-18.2,76.1c-4.3,17.9,4.5,26.9,26.5,26.9s35.2-8.6,39.3-25.9l5.7-23.7-32.1,17-1.5,6.4c-1,4.3-3.2,6.5-6.4,6.5s-4.5-2.2-3.5-6.5l6.9-29.7ZM220.2,82.6c1-4.1,3.2-6.2,6.5-6.2s4.4,2.1,3.4,6.2l-7,29.1h-9.9l7-29.1ZM112,48.8l4.9-20.4h-54.7l-4.9,20.4h10.8l-27.5,116.7h-11.6l-4.9,20.4h54.7l4.9-20.4h-12l27.6-116.7h12.7ZM596.9,57.6h-48.3l-19,19.1-.2,1h30.2l-53.4,89.5-4.2,17.5h67.4l4.8-20.2h-35.5l54-90,4.2-16.9ZM140.8,113.9h28.1l7.5-31.4c4.1-17.1-4.7-25.8-26.4-25.8s-35.6,9-39.9,26.9l-18.3,76.1c-4.3,17.9,4.7,26.9,27.1,26.9s34.6-8.6,38.7-25.8l7.1-29.4-32.1,17-2.9,12.1c-1,4.3-3.2,6.4-6.5,6.4s-4.4-2.2-3.4-6.5l18.7-77.8c1-4.2,3.1-6.3,6.4-6.3s4.5,2.1,3.4,6.3l-7.5,31.3ZM335.3,48.1l4.9-20.4h-59.2l-19.1,19.4-.2,1.1h21.3l-32.7,136.6h31.1l32.6-136.7h21.3ZM495,42.8l-34,141.9h28.1l37.6-157h-1.5l-30.2,15.1ZM464.2,63c-5.6-4.1-12.7-6.3-21.4-6.3-22.4,0-35.7,9-40,26.9l-18.2,76.1c-4.3,17.9,4.8,26.9,27.1,26.9s34.8-8.6,38.9-25.8l18.8-78.3c2.1-8.8.4-15.3-5.2-19.5M441.3,82.6l-18.6,77.8c-1,4.3-3.2,6.5-6.6,6.5s-4.6-2.2-3.6-6.5l18.7-77.8c1-4.2,3.2-6.3,6.6-6.3,3.3,0,4.5,2.2,3.5,6.3M575.3,33.2v-5.3h.5c.6,0,1,0,1.3.1s.5.3.8.5c.3.3.7.9,1.4,1.9l1.8,2.8h3.1l-1.6-2.5c-.6-1-1.1-1.7-1.5-2.1-.4-.4-.8-.7-1.4-1.1,1.1-.2,2-.6,2.5-1.2.6-.6.8-1.4.8-2.4s-.2-1.4-.6-2c-.4-.6-.8-1-1.5-1.2-.6-.2-1.6-.4-3-.4h-5.4v12.8h2.8ZM575.3,22.6h3.9c.4.1.7.2,1,.5.2.3.3.6.3,1s0,.7-.3,1-.4.4-.7.5-1.1.2-2.3.2h-1.9v-3.2ZM568.8,26.8c0-5,4.1-9.1,9.1-9.1s9.1,4.1,9.1,9.1-4.1,9.1-9.1,9.1c-5,0-9.1-4.1-9.1-9.1M566.9,26.8c0,6.1,5,11,11,11s11.1-5,11.1-11-5-11.1-11.1-11.1c-6.1.1-11,5-11,11.1"/>
    </g>
  </g>
</svg>