<?xml version="1.0" encoding="utf-8"?>
<!-- Generator: Adobe Illustrator 27.5.0, SVG Export Plug-In . SVG Version: 6.00 Build 0)  -->
<svg version="1.1" id="Layer_1" xmlns="http://www.w3.org/2000/svg" xmlns:xlink="http://www.w3.org/1999/xlink" x="0px" y="0px"
	 viewBox="0 0 274 66.1" style="enable-background:new 0 0 274 66.1;" xml:space="preserve">
<g>
	<polygon points="16.7,18.9 7.3,46.2 18.9,46.2 28.3,18.9 	"/>
	<polygon points="33.9,2.6 22.3,2.6 18.9,12.4 30.5,12.4 	"/>
	<polygon points="161.5,2.6 149.9,2.6 146.6,12.4 158.1,12.4 	"/>
	<polygon points="144.3,18.9 134.9,46.2 146.5,46.2 155.9,18.9 	"/>
	<polygon points="179.3,2.6 168.3,2.6 165,12.4 176,12.4 	"/>
	<polygon points="217,2.5 202.2,2.5 187.9,12.4 202.8,12.4 	"/>
	<polygon points="193.4,18.9 162.7,18.9 162.3,20.2 160,26.9 159.4,28.5 153.3,46.2 164.3,46.2 170.4,28.5 175.3,28.5 187.2,46.2 
		202.9,46.2 186.7,23.6 	"/>
	<path d="M128.5,2.6H97.4c-0.3,0-0.7,0-1.1,0l-0.8,0l-3.3,9.7h47.8C140.2,6.8,135.6,2.6,128.5,2.6"/>
	<path d="M121.9,32.4L121.9,32.4c-0.7,2.2-3.4,3.9-6,3.9H95.4l2.7-7.8h20.5C121.2,28.5,122.7,30.3,121.9,32.4 M137.6,18.9H89.9
		l-9.4,27.3h32c9,0,18.4-6.2,21-13.8c1.1-3.1,0.9-6.1-0.6-8.6C134.8,22.4,136.4,20.7,137.6,18.9z"/>
	<polygon points="25.5,46.2 37,46.2 46.4,18.9 34.9,18.9 	"/>
	<polygon points="72,18.9 68.1,30.4 61.9,18.9 46.9,18.9 61.6,46.2 74.2,46.2 83.6,18.9 	"/>
	<polygon points="53.1,2.6 40.5,2.6 37.1,12.4 58.4,12.4 	"/>
	<polygon points="89.2,2.6 77.6,2.6 74.3,12.4 85.8,12.4 	"/>
	<polygon points="222.7,2.6 219.4,12.4 268,12.4 271.4,2.6 	"/>
	<polygon points="207.7,46.2 256.4,46.2 259.8,36.4 222.7,36.4 225.3,28.7 262.5,28.7 265.8,18.9 217.1,18.9 	"/>
	<path d="M6.5,56L6.5,56h0.6c0.4,0,0.8-0.1,1-0.3c0.2-0.2,0.4-0.5,0.5-0.8c0.1-0.2,0.1-0.3,0.1-0.5c0-0.2,0-0.4-0.1-0.5
		c-0.1-0.1-0.3-0.2-0.7-0.2H7.3L6.5,56z M5.7,52H9c0.6,0,1,0.1,1.3,0.3c0.3,0.2,0.5,0.4,0.6,0.7c0.1,0.3,0.1,0.6,0.1,0.9
		c0,0.3-0.1,0.6-0.2,0.9c-0.1,0.4-0.3,0.8-0.6,1.1c-0.2,0.3-0.5,0.6-0.8,0.9c-0.3,0.2-0.7,0.4-1.1,0.6c-0.4,0.1-0.9,0.2-1.4,0.2H5.9
		l-1.3,3.6H2.5L5.7,52z"/>
	<polygon points="19.5,52 24.8,52 24.2,53.8 21.1,53.8 20.4,55.6 23.4,55.6 22.8,57.3 19.8,57.3 19.1,59.4 22.4,59.4 21.8,61.2 
		16.3,61.2 	"/>
	<path d="M33.4,55.9L33.4,55.9h0.7c0.2,0,0.4,0,0.6-0.1c0.2-0.1,0.3-0.2,0.4-0.3c0.1-0.1,0.2-0.2,0.3-0.4c0.1-0.1,0.1-0.3,0.2-0.4
		c0.1-0.3,0.1-0.6,0-0.8c-0.1-0.2-0.3-0.3-0.8-0.3h-0.7L33.4,55.9z M32.6,52h3.6c0.5,0,0.8,0.1,1.1,0.2c0.3,0.1,0.5,0.3,0.6,0.5
		c0.1,0.2,0.2,0.5,0.1,0.8c0,0.3-0.1,0.6-0.2,0.9c-0.2,0.7-0.5,1.2-0.9,1.5c-0.4,0.4-0.8,0.6-1.4,0.7l0,0c0.3,0.1,0.6,0.1,0.7,0.3
		c0.1,0.1,0.2,0.3,0.3,0.5c0,0.2,0,0.4-0.1,0.7c-0.1,0.3-0.1,0.5-0.3,0.8c-0.2,0.5-0.3,0.8-0.3,1.1c-0.1,0.3-0.1,0.5-0.2,0.6
		c0,0.1,0,0.2,0,0.3c0,0.1,0.1,0.1,0.1,0.1l0,0.1h-2.3c0-0.2,0-0.4,0-0.7c0.1-0.3,0.2-0.7,0.4-1.2c0.1-0.4,0.2-0.7,0.3-1
		c0.1-0.3,0.1-0.4,0.1-0.6c0-0.1-0.1-0.2-0.2-0.3c-0.1-0.1-0.2-0.1-0.4-0.1h-0.8l-1.3,3.8h-2.2L32.6,52z"/>
	<polygon points="46.7,52 52,52 51.4,53.8 48.2,53.8 47.6,55.6 50.5,55.6 49.9,57.3 47,57.3 45.6,61.2 43.5,61.2 	"/>
	<path d="M60,56.6L60,56.6c-0.2,0.6-0.4,1.2-0.5,1.6c-0.1,0.4-0.2,0.8-0.2,1c0,0.3,0,0.4,0.1,0.6c0.1,0.1,0.2,0.2,0.5,0.2
		c0.2,0,0.4-0.1,0.6-0.2c0.2-0.1,0.3-0.3,0.5-0.6c0.2-0.3,0.3-0.6,0.5-1c0.2-0.4,0.4-1,0.6-1.6c0.2-0.6,0.4-1.2,0.5-1.6
		c0.1-0.4,0.2-0.8,0.2-1c0-0.3,0-0.4-0.1-0.6c-0.1-0.1-0.3-0.2-0.5-0.2c-0.2,0-0.4,0.1-0.6,0.2c-0.2,0.1-0.3,0.3-0.5,0.6
		c-0.2,0.3-0.3,0.6-0.5,1C60.4,55.4,60.2,56,60,56.6 M64.2,56.6c-0.2,0.6-0.5,1.2-0.7,1.8c-0.2,0.6-0.6,1.1-0.9,1.5
		c-0.4,0.4-0.8,0.8-1.3,1c-0.5,0.3-1.2,0.4-1.9,0.4c-0.7,0-1.2-0.1-1.6-0.3c-0.3-0.2-0.6-0.5-0.6-1c-0.1-0.4-0.1-0.9,0.1-1.5
		c0.1-0.6,0.3-1.2,0.6-2c0.3-0.7,0.5-1.4,0.8-2c0.3-0.6,0.6-1.1,1-1.5c0.4-0.4,0.8-0.7,1.3-1c0.5-0.2,1.1-0.3,1.8-0.3
		c0.5,0,0.9,0.1,1.2,0.2c0.3,0.1,0.5,0.3,0.7,0.5c0.2,0.2,0.3,0.5,0.3,0.8c0,0.3,0,0.6,0,1c-0.1,0.4-0.1,0.7-0.3,1.1
		C64.5,55.8,64.3,56.2,64.2,56.6z"/>
	<path d="M74.4,55.9L74.4,55.9h0.7c0.2,0,0.4,0,0.6-0.1c0.2-0.1,0.3-0.2,0.4-0.3c0.1-0.1,0.2-0.2,0.3-0.4c0.1-0.1,0.1-0.3,0.2-0.4
		c0.1-0.3,0.1-0.6,0-0.8c-0.1-0.2-0.3-0.3-0.8-0.3h-0.7L74.4,55.9z M73.6,52h3.6c0.5,0,0.8,0.1,1.1,0.2c0.3,0.1,0.5,0.3,0.6,0.5
		c0.1,0.2,0.2,0.5,0.1,0.8c0,0.3-0.1,0.6-0.2,0.9c-0.2,0.7-0.5,1.2-0.9,1.5c-0.4,0.4-0.8,0.6-1.4,0.7l0,0c0.3,0.1,0.6,0.1,0.7,0.3
		c0.1,0.1,0.2,0.3,0.3,0.5c0,0.2,0,0.4-0.1,0.7c-0.1,0.3-0.1,0.5-0.3,0.8c-0.2,0.5-0.3,0.8-0.3,1.1c-0.1,0.3-0.1,0.5-0.2,0.6
		c0,0.1,0,0.2,0,0.3c0,0.1,0.1,0.1,0.1,0.1l0,0.1h-2.3c0-0.2,0-0.4,0-0.7c0.1-0.3,0.2-0.7,0.4-1.2c0.1-0.4,0.2-0.7,0.3-1
		c0.1-0.3,0.1-0.4,0.1-0.6c0-0.1-0.1-0.2-0.2-0.3c-0.1-0.1-0.2-0.1-0.4-0.1h-0.8l-1.3,3.8h-2.2L73.6,52z"/>
	<polygon points="87.7,52 90.9,52 89.9,58 89.9,58 93.1,52 96.2,52 93,61.2 91,61.2 93.5,54 93.5,54 89.6,61.2 87.9,61.2 88.9,54 
		88.9,54 86.4,61.2 84.5,61.2 	"/>
	<path d="M106.7,53.7L106.7,53.7L106.7,53.7l-2.2,4.1h1.6L106.7,53.7z M106,52h2.7l-0.9,9.2h-2.2l0.3-1.7h-2.2l-0.9,1.7h-2.2L106,52
		z"/>
	<polygon points="118.4,52 120.9,52 120.5,58 120.5,58 122.6,52 124.7,52 121.4,61.2 119,61.2 119.3,54.9 119.3,54.9 117.1,61.2 
		115.2,61.2 	"/>
	<path d="M135.4,55.2c0.2-0.7,0.4-1.2,0.4-1.5c0-0.3-0.2-0.5-0.5-0.5c-0.2,0-0.4,0.1-0.6,0.2c-0.2,0.1-0.3,0.3-0.5,0.5
		c-0.2,0.3-0.3,0.6-0.5,1c-0.2,0.4-0.3,0.9-0.6,1.5c-0.2,0.7-0.4,1.2-0.6,1.7c-0.1,0.4-0.2,0.8-0.2,1c0,0.3,0,0.4,0.1,0.5
		c0.1,0.1,0.3,0.2,0.5,0.2c0.2,0,0.4-0.1,0.5-0.2c0.2-0.1,0.3-0.3,0.4-0.5c0.1-0.2,0.3-0.4,0.4-0.7c0.1-0.3,0.2-0.6,0.4-1h2.1
		l-0.1,0.3c-0.2,0.5-0.4,1-0.6,1.4c-0.2,0.4-0.5,0.8-0.9,1.1c-0.3,0.3-0.8,0.6-1.2,0.7c-0.5,0.2-1.1,0.3-1.7,0.3
		c-0.7,0-1.2-0.1-1.5-0.4c-0.3-0.2-0.5-0.6-0.5-1c0-0.4,0-0.9,0.2-1.5c0.2-0.6,0.4-1.2,0.6-1.9c0.2-0.6,0.4-1.2,0.7-1.7
		c0.2-0.6,0.5-1.1,0.9-1.5c0.4-0.4,0.8-0.8,1.3-1.1c0.5-0.3,1.2-0.4,1.9-0.4c0.5,0,0.9,0.1,1.2,0.2c0.3,0.1,0.6,0.3,0.7,0.5
		c0.2,0.2,0.2,0.5,0.2,0.9c0,0.4-0.1,0.8-0.3,1.4l-0.1,0.4H135.4z"/>
	<polygon points="146.2,52 151.5,52 150.9,53.8 147.8,53.8 147.1,55.6 150.1,55.6 149.5,57.3 146.5,57.3 145.8,59.4 149.1,59.4 
		148.5,61.2 143,61.2 	"/>
	<path d="M172.1,55.2c0.2-0.7,0.4-1.2,0.4-1.5c0-0.3-0.2-0.5-0.5-0.5c-0.2,0-0.4,0.1-0.6,0.2c-0.2,0.1-0.3,0.3-0.5,0.5
		c-0.2,0.3-0.3,0.6-0.5,1c-0.2,0.4-0.3,0.9-0.6,1.5c-0.2,0.7-0.4,1.2-0.6,1.7c-0.1,0.4-0.2,0.8-0.2,1c0,0.3,0,0.4,0.1,0.5
		c0.1,0.1,0.3,0.2,0.5,0.2c0.2,0,0.4-0.1,0.5-0.2c0.2-0.1,0.3-0.3,0.4-0.5c0.1-0.2,0.3-0.4,0.4-0.7c0.1-0.3,0.2-0.6,0.4-1h2.1
		l-0.1,0.3c-0.2,0.5-0.4,1-0.6,1.4c-0.2,0.4-0.5,0.8-0.9,1.1c-0.3,0.3-0.8,0.6-1.2,0.7c-0.5,0.2-1.1,0.3-1.7,0.3
		c-0.7,0-1.2-0.1-1.5-0.4c-0.3-0.2-0.5-0.6-0.5-1c0-0.4,0-0.9,0.2-1.5c0.2-0.6,0.4-1.2,0.6-1.9c0.2-0.6,0.4-1.2,0.7-1.7
		c0.2-0.6,0.5-1.1,0.9-1.5c0.4-0.4,0.8-0.8,1.3-1.1c0.5-0.3,1.2-0.4,1.9-0.4c0.5,0,0.9,0.1,1.2,0.2c0.3,0.1,0.6,0.3,0.7,0.5
		c0.2,0.2,0.2,0.5,0.2,0.9c0,0.4-0.1,0.8-0.3,1.4l-0.1,0.4H172.1z"/>
	<polygon points="182.7,57.6 182.3,52 184.7,52 184.5,55.4 184.6,55.4 186.8,52 189.1,52 184.8,57.6 183.6,61.2 181.4,61.2 	"/>
	<path d="M199.2,55.2c0.2-0.7,0.4-1.2,0.4-1.5c0-0.3-0.2-0.5-0.5-0.5c-0.2,0-0.4,0.1-0.6,0.2c-0.2,0.1-0.3,0.3-0.5,0.5
		c-0.2,0.3-0.3,0.6-0.5,1c-0.2,0.4-0.4,0.9-0.6,1.5c-0.2,0.7-0.4,1.2-0.6,1.7c-0.1,0.4-0.2,0.8-0.2,1c0,0.3,0,0.4,0.1,0.5
		c0.1,0.1,0.3,0.2,0.5,0.2c0.2,0,0.4-0.1,0.5-0.2c0.2-0.1,0.3-0.3,0.4-0.5c0.1-0.2,0.3-0.4,0.4-0.7c0.1-0.3,0.2-0.6,0.4-1h2.1
		l-0.1,0.3c-0.2,0.5-0.4,1-0.6,1.4c-0.2,0.4-0.5,0.8-0.9,1.1c-0.3,0.3-0.8,0.6-1.2,0.7c-0.5,0.2-1.1,0.3-1.7,0.3
		c-0.7,0-1.2-0.1-1.5-0.4c-0.3-0.2-0.5-0.6-0.5-1c0-0.4,0-0.9,0.2-1.5c0.2-0.6,0.4-1.2,0.6-1.9c0.2-0.6,0.4-1.2,0.7-1.7
		c0.2-0.6,0.5-1.1,0.9-1.5c0.4-0.4,0.8-0.8,1.3-1.1c0.5-0.3,1.2-0.4,1.9-0.4c0.5,0,0.9,0.1,1.2,0.2c0.3,0.1,0.6,0.3,0.7,0.5
		c0.2,0.2,0.2,0.5,0.2,0.9c0,0.4-0.1,0.8-0.3,1.4l-0.1,0.4H199.2z"/>
	<polygon points="210.1,52 212.2,52 209.6,59.4 212.8,59.4 212.1,61.2 206.9,61.2 	"/>
	<polygon points="222.7,52 224.9,52 221.7,61.2 219.5,61.2 	"/>
	<polygon points="233,52 235.4,52 235.1,58 235.1,58 237.2,52 239.2,52 236,61.2 233.6,61.2 233.9,54.9 233.9,54.9 231.7,61.2 
		229.7,61.2 	"/>
	<path d="M250.2,54.8c0-0.1,0.1-0.3,0.1-0.5c0-0.2,0.1-0.3,0.1-0.5c0-0.2,0-0.3-0.1-0.4c-0.1-0.1-0.2-0.2-0.4-0.2
		c-0.2,0-0.4,0.1-0.6,0.2c-0.2,0.1-0.3,0.3-0.5,0.6c-0.2,0.3-0.3,0.6-0.5,1c-0.2,0.4-0.4,0.9-0.6,1.5c-0.2,0.6-0.4,1.2-0.5,1.6
		c-0.1,0.4-0.2,0.8-0.2,1c0,0.3,0,0.4,0.1,0.6c0.1,0.1,0.2,0.2,0.5,0.2c0.4,0,0.7-0.2,0.9-0.5c0.3-0.3,0.5-0.8,0.7-1.4l0.1-0.3h-1
		l0.5-1.4h3l-1.7,4.9h-1.5l0.3-0.9h0c-0.3,0.4-0.7,0.7-1.1,0.8c-0.4,0.1-0.8,0.2-1.3,0.2c-0.6,0-1-0.1-1.3-0.3
		c-0.3-0.2-0.4-0.5-0.5-0.9c-0.1-0.4,0-0.9,0.1-1.4c0.1-0.6,0.3-1.2,0.6-1.9c0.3-0.8,0.5-1.4,0.8-2c0.3-0.6,0.6-1.1,1-1.6
		c0.4-0.4,0.8-0.8,1.3-1c0.5-0.2,1.2-0.4,1.9-0.4c0.5,0,0.8,0,1.1,0.1c0.3,0.1,0.5,0.2,0.7,0.4c0.2,0.2,0.3,0.3,0.3,0.6
		c0,0.2,0.1,0.4,0,0.6c0,0.2-0.1,0.4-0.1,0.7c-0.1,0.2-0.1,0.4-0.2,0.6H250.2z"/>
</g>
</svg>
