<?xml version="1.0" encoding="utf-8"?>
<!-- Generator: Adobe Illustrator 27.5.0, SVG Export Plug-In . SVG Version: 6.00 Build 0)  -->
<svg version="1.1" id="Capa_1" xmlns="http://www.w3.org/2000/svg" xmlns:xlink="http://www.w3.org/1999/xlink" x="0px" y="0px"
	 viewBox="0 0 558.7 83.1" style="enable-background:new 0 0 558.7 83.1;" xml:space="preserve">
<g>
	<path d="M113.6,62.4c0.1-1.8,0.3-2.8,0.3-3.8c0-16.3,0-32.6,0-48.8c0-3.8,2.8-5.4,6.3-3.7c0.5,0.3,0.9,0.9,1.1,1.5
		c0.2,0.5,0.1,1.1,0.1,1.7c0,21.2,0,42.4,0,63.5c0,3.3-0.2,3.5-3.6,3.5c-17.8,0-35.6,0-53.5,0c-2.5,0-3.3-0.7-3.3-3.3
		c0.1-21.3,0.1-42.7,0.1-64c0-3.1,0.3-3.1,3.4-3.5c4-0.4,6.4,1.2,8.7,4.4c12.4,16.7,24.9,33.3,37.4,49.9
		C111.3,60.7,112.3,61.3,113.6,62.4z M69.8,18.2c-0.3,0.1-0.6,0.2-0.8,0.3c-0.1,0.8-0.4,1.6-0.4,2.3c0,15.1,0,30.2,0,45.3
		c0,1.8,0.7,2.6,2.4,2.6c11.2,0,22.5,0,33.7,0c2.1,0,2.5-0.9,1.2-2.7c-3.2-4.3-6.4-8.6-9.6-13c-7.7-10.3-15.3-20.6-23-30.9
		C72.2,20.9,71,19.6,69.8,18.2z"/>
	<path d="M552.6,76.1c-2.8,0-5.4,0.1-7.9-0.1c-0.5,0-1.2-0.8-1.5-1.4C539,68,534.9,61.3,531,54.5c-1.8-3.1-3.7-5-7.6-4.5
		c-3,0.4-6.2,0-9.2,0.1c-2.8,0-3.6,0.8-3.6,3.6c0,6.2,0,12.5,0,18.7c0,3.7-3.3,5.6-6.5,3.7c-0.5-0.3-0.9-1.2-0.9-1.8
		c-0.1-9.6,0-19.3,0-28.9c0-2.1,1.3-2.7,3.1-2.6c4.5,0,9,0,13.5,0c3.2,0,3.6-0.6,1.9-3.4c-6.1-10.2-12.2-20.3-18.3-30.4
		c-1.3-2.2-1-3.1,1.5-3.1c10,0,20-0.2,29.9,0.4c8.2,0.4,13.8,5.3,17.4,12.6c2.3,4.7,2.5,9.8,1.4,14.6c-1.6,6.7-5.9,11.8-12.3,14.7
		c-3.4,1.6-3.7,2.1-1.9,5.2c4.2,6.9,8.3,13.9,12.5,20.8C552.3,74.5,552.3,75.2,552.6,76.1z M525.5,13.2c0,0,0-0.1,0-0.1
		c-2.3,0-4.7-0.1-7,0c-1.7,0.1-2.5,0.6-1.4,2.5c4.8,8,9.7,15.9,14.2,24c1.2,2.2,2.6,3,4.7,2.3c4.7-1.5,9.4-6.2,10.3-11.2
		c1.7-9.6-5.9-17.9-13.9-17.6C530.2,13.3,527.8,13.2,525.5,13.2z"/>
	<path d="M458.4,41.5c0,20.3-16.6,36.6-37,36.1c-20.6-0.5-35.7-15.7-35.8-36.4c-0.1-21,16-36.7,37-36.6
		C441.5,4.6,458.4,19.9,458.4,41.5z M450.8,41.1c0.1-16.1-13.3-29-28.7-29c-16,0-28.9,12.6-29,28.9c-0.1,16.4,13,29,28.8,29
		C437.6,70.1,450.8,57.1,450.8,41.1z"/>
	<path d="M270.6,40.9c-0.1-21.7,18.6-37.8,38.6-36.3c18.6,1.4,34.1,14.9,34.2,36.7c0.1,21.6-17.2,37.3-38.4,36.2
		C285.6,76.6,270.4,61.2,270.6,40.9z M335.5,41.2c0.5-17.1-13.8-29.1-28.6-29.1c-14.5-0.1-29.6,12.3-28.7,30.7
		c0.7,15,13.7,27.4,28.8,27.3C322.2,70,336,57.3,335.5,41.2z"/>
	<path d="M167.6,41c0-10.6,0-21.2,0-31.9c0-3.1,0.3-3.5,3.4-3.5c8.4,0.1,16.8-0.3,25.2,0.4c12.5,1,21.7,7.5,27.5,18.7
		c2.9,5.5,4.4,11.3,4.1,17.4c-0.6,13.2-8,25.3-20.8,31.1c-5.1,2.3-10.3,3.3-15.9,3.2c-6.8-0.2-13.6-0.1-20.5,0c-2.2,0-3.3-0.7-3-3
		c0-0.1,0-0.2,0-0.2C167.6,62.4,167.6,51.7,167.6,41z M175.1,41c0,8.1,0,16.1,0,24.2c0,3.4,0.2,3.6,3.7,3.6c4.7,0,9.5-0.1,14.2,0
		c5,0.2,9.5-1.4,13.7-3.9c12-7.2,17-23.2,11-36.1c-4.2-8.8-11.4-14-20.9-15.2c-6.1-0.8-12.3-0.3-18.4-0.5c-2.3-0.1-3.2,0.9-3.2,3.3
		C175.1,24.6,175.1,32.8,175.1,41z"/>
	<path d="M6.3,75.9c0-23.2,0-46.4,0-70.2c2,0,3.9-0.1,5.8,0.1c0.6,0.1,1.4,1,1.7,1.7c0.3,0.9,0.1,2,0.1,3c0,20.3,0,40.7,0,61
		c0,5.2-0.1,5.3-5.4,4.8C7.8,76.2,7.1,76,6.3,75.9z"/>
	<path d="M428.5,41.2c0,3.1-3.3,6.4-6.5,6.4c-3.2,0-6.5-3.3-6.5-6.4c0-3.1,3.3-6.4,6.5-6.4C425.1,34.7,428.5,38.1,428.5,41.2z"/>
	<path d="M313.1,41.2c0,3.5-2.8,6.4-6.2,6.4c-3.2,0-6.3-3.1-6.3-6.4c0-3.4,3-6.4,6.3-6.4C310.3,34.8,313.1,37.7,313.1,41.2z"/>
</g>
</svg>
