<?xml version="1.0" encoding="utf-8"?>
<!-- Generator: $$$/GeneralStr/196=Adobe Illustrator 27.6.0, SVG Export Plug-In . SVG Version: 6.00 Build 0)  -->
<svg version="1.1" id="圖層_1" xmlns="http://www.w3.org/2000/svg" xmlns:xlink="http://www.w3.org/1999/xlink" x="0px" y="0px"
	 viewBox="0 0 240 48" style="enable-background:new 0 0 240 48;" xml:space="preserve">
<style type="text/css">
	.st0{fill:#004098;}
	.st1{fill:#FFFFFF;}
	.st2{fill-rule:evenodd;clip-rule:evenodd;fill:#004098;}
</style>
<g>
	<path class="st0" d="M7.1,24c0-4.5,7.3-8,16.4-8s16.4,3.5,16.4,8c0,4.4-7.3,8-16.4,8S7.1,28.4,7.1,24L7.1,24z"/>
	<polyline class="st1" points="25.9,24.5 26,25.4 26.2,26.2 26.3,27 26.4,27.8 26.5,28.3 26.6,28.5 26.7,28.7 26.9,28.7 27.1,28.6 
		27.4,28.4 27.8,27.8 28.2,27.2 28.6,26.7 30.3,24.4 30.3,24.3 30.2,24.2 30.1,24.2 28,26 27.9,26 27.8,25.9 26.7,19 26.6,18.8 
		26.4,18.7 26.2,18.7 25.9,18.7 25.7,18.9 20,25 20.5,21.8 20.4,21.5 20.3,21.4 20.2,21.2 20,21.1 19.7,21.1 19.5,21.2 16.9,23.3 
		16.9,23.3 16.9,23.4 17,23.4 17.1,23.4 18.7,22.4 18.8,22.5 18.8,22.5 17.6,28.8 17.6,28.9 17.6,29 17.7,29 17.8,29 18,29 25.3,21 
		26.5,28.4 	"/>
	<g>
		<rect x="181.5" y="17.5" class="st2" width="5.4" height="13"/>
		<polygon class="st2" points="159.8,17.5 159.8,21 165.5,21 165.5,30.4 171.6,30.4 171.6,21 177.3,21 177.3,17.5 		"/>
		<polygon class="st2" points="212.2,17.5 212.2,30.4 227.8,30.4 227.8,27.9 216.6,27.9 216.6,25.2 224.4,25.2 224.4,22.7 
			216.6,22.7 216.6,20 227.8,20 227.8,17.5 		"/>
		<g>
			<g>
				<path class="st2" d="M204.3,25c2.1,0,3.7-1.7,3.7-3.8s-1.6-3.8-3.7-3.8h-13.2v13h4.9V25h2l4.8,5.5h4.8l-4.8-5.5H204.3z
					 M201.5,21.4c0,0.5-0.4,0.9-0.9,0.9H196v-2.2h4.6c0.5,0,0.9,0.4,0.9,0.9V21.4z"/>
			</g>
		</g>
	</g>
	<g>
		<g>
			<g>
				<path class="st2" d="M148.6,17.5h-9.5l-4.4,13h5.1l1.2-3.6h5.7l1.2,3.6h5.1L148.6,17.5z M142.1,24.1l1.3-3.9h0.9l1.3,3.9H142.1z
					"/>
			</g>
		</g>
		<g>
			<g>
				<path class="st2" d="M108.2,17.5h-8.5c-2.5,0-4.5,2.1-4.5,4.5v4c0,2.5,2,4.5,4.5,4.5h8.5c2.5,0,4.5-2.1,4.5-4.5v-4
					C112.8,19.6,110.8,17.5,108.2,17.5z M106.8,25.3c0,1.5-1.2,2.7-2.7,2.7c-1.5,0-2.7-1.2-2.7-2.7v-2.6c0-1.5,1.2-2.7,2.7-2.7
					c1.5,0,2.7,1.2,2.7,2.7V25.3z"/>
			</g>
		</g>
		<polygon class="st2" points="125.3,25 128.3,17.5 134.1,17.5 128.9,30.4 121.1,30.4 115.9,17.5 121.6,17.5 124.7,25 		"/>
		<polygon class="st2" points="85.6,23.6 85.6,17.5 91.1,17.5 91.1,30.5 84.9,30.5 81.9,24.4 81.1,24.4 81.1,30.5 75.7,30.5 
			75.7,17.5 81.4,17.5 84.9,23.6 		"/>
		<polygon class="st2" points="66,23.5 66,17.5 71.5,17.5 71.5,30.4 65.3,30.4 62.2,24.3 61.5,24.3 61.5,30.4 56,30.4 56,17.5 
			61.7,17.5 65.3,23.5 		"/>
		<rect x="46.4" y="17.5" class="st2" width="5.4" height="13"/>
	</g>
</g>
</svg>
