<?xml version="1.0" encoding="UTF-8"?>
<svg version="1.1" xmlns="http://www.w3.org/2000/svg" width="1000" height="210">
<path d="M0 0 C330 0 660 0 1000 0 C1000 69.3 1000 138.6 1000 210 C670 210 340 210 0 210 C0 140.7 0 71.4 0 0 Z " fill="#FDFDFD" transform="translate(0,0)"/>
<path d="M0 0 C8.33111129 6.86091518 11.82862992 14.88879967 14.453125 25.15625 C14.62715221 25.77634193 14.80117943 26.39643387 14.98048019 27.03531647 C15.46532415 29.21099214 15.5843448 31.12644942 15.59356689 33.35290527 C15.59927704 34.18247742 15.60498718 35.01204956 15.61087036 35.86676025 C15.61254715 37.21952057 15.61254715 37.21952057 15.61425781 38.59960938 C15.62170517 40.03460785 15.62170517 40.03460785 15.62930298 41.49859619 C15.64391373 44.66573813 15.65072672 47.83282988 15.65625 51 C15.6620047 53.20756023 15.66776239 55.41512045 15.67352295 57.62268066 C15.68403147 62.25626864 15.68987434 66.88983928 15.69335938 71.5234375 C15.69882745 77.43665299 15.72282005 83.34963629 15.75133133 89.26277924 C15.77003929 93.82695157 15.77516776 98.39106906 15.77669525 102.95527649 C15.77970662 105.13358319 15.78768343 107.31188928 15.80088043 109.49015808 C15.89344273 125.95052205 15.66118614 142.23814774 4.140625 155.28125 C-9.1815617 167.76763411 -29.87558189 172.69666642 -47.58203125 172.34765625 C-52.65875223 172.0199101 -57.56973747 171.186673 -62.546875 170.15625 C-64.031875 169.86427734 -64.031875 169.86427734 -65.546875 169.56640625 C-78.52450304 166.71065216 -90.92852724 160.74412617 -98.39453125 149.33203125 C-105.89962482 135.22540574 -105.99666015 121.32796721 -105.9453125 105.75 C-105.94733737 103.57629296 -105.95025223 101.40258658 -105.95401001 99.22888184 C-105.95841391 94.69011926 -105.95206485 90.15153472 -105.93798828 85.61279297 C-105.92089776 79.82307509 -105.93074935 74.03377457 -105.94870567 68.24407196 C-105.95959591 63.76052765 -105.9560732 59.27708072 -105.9483223 54.79353333 C-105.94633475 52.65989634 -105.94872816 50.52625023 -105.95576096 48.3926239 C-105.99869418 31.71031609 -105.68916685 15.57929733 -93.2890625 2.8359375 C-68.29618232 -18.29952066 -26.46470359 -19.15849708 0 0 Z " fill="#020202" transform="translate(973.546875,25.84375)"/>
<path d="M0 0 C0.67565002 -0.00012085 1.35130005 -0.0002417 2.04742432 -0.00036621 C37.84038513 0.09038513 37.84038513 0.09038513 48.125 10.375 C48.53047392 16.25437188 47.92596401 21.97545946 47.25 27.8125 C47.13253418 28.87815186 47.13253418 28.87815186 47.01269531 29.96533203 C46.36367972 35.13632028 46.36367972 35.13632028 44.125 37.375 C37.87899419 37.87071475 32.86125201 36.98221346 26.8984375 35.12890625 C19.80358139 33.20030452 12.67670079 33.13061288 5.375 33.0625 C4.3540625 33.03349609 3.333125 33.00449219 2.28125 32.97460938 C-7.19408002 32.89644993 -16.496694 35.1034399 -23.875 41.375 C-27.43476138 46.78790592 -27.41383895 51.98075113 -27.5625 58.25 C-27.59666016 59.22453125 -27.63082031 60.1990625 -27.66601562 61.203125 C-27.74804293 63.59363491 -27.81733848 65.98379905 -27.875 68.375 C-26.64007812 68.08625 -25.40515625 67.7975 -24.1328125 67.5 C-2.33175464 62.62712852 22.14321914 61.8078168 41.9375 74.125 C49.54495442 79.63764813 54.81268922 86.17657688 57.125 95.375 C57.90372157 100.36409753 58.02601515 105.33619986 58.125 110.375 C58.15609863 111.44379395 58.18719727 112.51258789 58.21923828 113.61376953 C59.25219818 151.64641852 59.25219818 151.64641852 49.125 165.375 C48.27808594 166.52548828 48.27808594 166.52548828 47.4140625 167.69921875 C38.30821953 178.94214731 24.22424581 183.89012456 10.125 185.375 C-11.76495465 186.35875304 -33.90710421 185.78656288 -51 170.1875 C-55.70106446 164.97506021 -58.52480695 158.94129693 -60.875 152.375 C-61.14570312 151.67487793 -61.41640625 150.97475586 -61.6953125 150.25341797 C-64.95293258 140.52857689 -64.24115825 130.37052909 -64.125 120.25 C-64.10957945 118.16243988 -64.09486575 116.07487444 -64.08081055 113.98730469 C-64.04693885 109.50993345 -64.00112304 105.03285486 -63.94873047 100.55566406 C-63.87862096 94.32439963 -63.85147233 88.09357216 -63.83224487 81.86196899 C-63.81131896 76.70794436 -63.76759244 71.55427654 -63.71838379 66.40045166 C-63.69794281 63.90160206 -63.6852145 61.40267639 -63.68054199 58.90374756 C-63.67119725 55.37788142 -63.63024197 51.85364688 -63.58203125 48.328125 C-63.58594376 47.29553558 -63.58985626 46.26294617 -63.59388733 45.19906616 C-63.36847115 33.86046457 -59.17549984 24.7042 -51.31640625 16.625 C-36.61730401 3.07830738 -19.39903636 -0.023982 0 0 Z " fill="#020202" transform="translate(788.875,12.625)"/>
<path d="M0 0 C2.45301615 -0.00437778 4.90423258 -0.04086434 7.35693359 -0.07861328 C24.62680494 -0.20177762 43.96428332 3.02931636 56.93896484 15.45654297 C64.76339448 24.54178117 65.89501061 34.5482585 65.81787109 46.10107422 C65.81800201 47.23387817 65.81813293 48.36668213 65.81826782 49.53381348 C65.81510359 53.20870509 65.79629937 56.8832777 65.77490234 60.55810547 C65.76468258 63.08585593 65.7545103 65.61360658 65.74438477 68.14135742 C65.71466406 74.39662577 65.66729828 80.65163029 65.61413574 86.90673828 C65.5893568 90.11736549 65.57322867 93.32787809 65.56103516 96.53857422 C65.54279892 100.92848382 65.4999664 105.31728043 65.43179321 109.70669556 C65.41068284 111.26322732 65.39752587 112.81988906 65.39266968 114.3765564 C65.38353256 116.50463422 65.34343822 118.62984409 65.29443359 120.75732422 C65.27872314 121.92481201 65.2630127 123.0922998 65.24682617 124.29516602 C64.38528924 128.31322625 62.71007819 129.77932133 59.58740234 132.37060547 C57.15253151 133.83652543 54.81840446 135.13631829 52.27490234 136.37060547 C51.22919067 136.88324951 51.22919067 136.88324951 50.16235352 137.40625 C23.61581159 150.02590728 -6.71249784 150.75324374 -34.54882812 141.67382812 C-43.14126211 138.4318764 -50.22442873 132.76792707 -54.59228516 124.65966797 C-57.28127424 118.30748442 -57.08358106 111.60437771 -57.04394531 104.82446289 C-57.03763541 102.57158428 -57.0845978 100.32400683 -57.13525391 98.07177734 C-57.2255143 87.74428252 -55.57564898 79.29102029 -48.52856445 71.21020508 C-34.27445989 57.17198094 -12.84651671 55.06769566 6.08544922 55.14599609 C6.77372803 55.15219971 7.46200684 55.15840332 8.17114258 55.16479492 C10.31196657 55.18342807 12.45236384 55.18530108 14.59326172 55.18505859 C25.91180453 55.22537258 25.91180453 55.22537258 29.58740234 56.37060547 C29.55426435 53.63822753 29.48698273 50.91385704 29.39990234 48.18310547 C29.39410156 47.41417969 29.38830078 46.64525391 29.38232422 45.85302734 C29.21720037 41.57815437 28.96518682 39.83883672 26.18896484 36.39794922 C16.92826955 29.18128126 3.02046489 30.5535842 -8.08447266 31.86669922 C-16.88389102 33.07504776 -25.31746059 34.92470442 -33.71899414 37.83227539 C-38.30294295 39.34769174 -41.74043574 39.69554691 -46.41259766 38.37060547 C-49.63054134 33.67461773 -48.82112825 27.82972825 -48.85009766 22.37060547 C-48.88296875 21.27748047 -48.91583984 20.18435547 -48.94970703 19.05810547 C-49.00342887 11.08773756 -49.00342887 11.08773756 -46.25634766 7.75341797 C-43.34092527 6.33575379 -40.58210524 5.17809955 -37.47509766 4.24560547 C-36.47607422 3.93365234 -35.47705078 3.62169922 -34.44775391 3.30029297 C-23.08296562 0.44839747 -11.64873087 -0.00231631 0 0 Z " fill="#020202" transform="translate(502.41259765625,50.62939453125)"/>
<path d="M0 0 C0.89074219 0.30035156 1.78148437 0.60070312 2.69921875 0.91015625 C13.68566827 5.21893357 20.56594492 12.95977729 25.63671875 23.35546875 C27.90406662 29.63163393 27.47290361 36.28992779 27.4375 42.875 C27.45748047 44.18597656 27.47746094 45.49695312 27.49804688 46.84765625 C27.49252452 57.85923495 25.56104096 66.09808961 17.94921875 74.23828125 C14.91420819 76.98134691 11.59028534 79.06031338 8 81 C8.7734375 81.32871094 9.546875 81.65742187 10.34375 81.99609375 C20.4608083 86.61638399 27.18075683 92.29383926 31.20166016 102.81542969 C32.74733884 108.98112777 32.54958321 115.26274814 32.46655273 121.5859375 C32.43755424 123.9954927 32.4459844 126.40284412 32.45898438 128.8125 C32.44027862 143.16194521 29.77365236 154.76491019 19.875 165.75 C15.2869873 170.05379952 9.72114082 172.52537957 4 175 C3.29359375 175.30808594 2.5871875 175.61617187 1.859375 175.93359375 C-15.30942834 182.45638715 -36.23417165 182.9789373 -54 179 C-54.93457031 178.82855469 -55.86914062 178.65710938 -56.83203125 178.48046875 C-63.16684517 177.16601606 -68.7294089 174.91380475 -74.5 172.0625 C-75.18288086 171.72653809 -75.86576172 171.39057617 -76.56933594 171.04443359 C-83.92599504 167.25991036 -83.92599504 167.25991036 -86 164 C-86.38219534 160.50759262 -86.14313799 157.12037023 -85.875 153.625 C-85.82601562 152.69171875 -85.77703125 151.7584375 -85.7265625 150.796875 C-84.99077134 138.99077134 -84.99077134 138.99077134 -82 136 C-75.87238688 135.43856948 -71.379764 137.08307669 -65.75 139.375 C-55.0319673 143.71871671 -44.99237955 145.3513008 -33.4375 145.3125 C-31.99213867 145.33666992 -31.99213867 145.33666992 -30.51757812 145.36132812 C-22.76838661 145.36655347 -15.60218623 144.32641194 -9 140.0625 C-4.20216698 135.11473469 -4.63392802 130.11120362 -4.625 123.5625 C-4.58826172 122.15000977 -4.58826172 122.15000977 -4.55078125 120.70898438 C-4.53259351 116.41364629 -4.56724814 113.7426828 -6.76171875 109.9765625 C-16.02423694 101.79709618 -30.78237163 102.07768474 -42.515625 101.8359375 C-43.6389624 101.80910889 -44.7622998 101.78228027 -45.91967773 101.75463867 C-48.15322282 101.71044029 -50.38735822 101.68916546 -52.62133789 101.69262695 C-60.19110347 101.55684906 -60.19110347 101.55684906 -63.6953125 99.14453125 C-65.65201906 94.42851693 -65.61877281 90.05793264 -65.5625 85 C-65.58634766 84.01515625 -65.61019531 83.0303125 -65.63476562 82.015625 C-65.63283203 81.06171875 -65.63089844 80.1078125 -65.62890625 79.125 C-65.62963135 78.26132813 -65.63035645 77.39765625 -65.63110352 76.5078125 C-64.68866014 72.76283053 -63.05601756 71.31172615 -60 69 C-57.19699072 68.44801414 -54.94502407 68.19037637 -52.13671875 68.14453125 C-51.3859053 68.11195724 -50.63509186 68.07938324 -49.86152649 68.04582214 C-47.47041723 67.94561663 -45.07980548 67.87739162 -42.6875 67.8125 C-40.30649359 67.73152983 -37.92603325 67.64361847 -35.54560852 67.54704285 C-34.06891676 67.48884416 -32.59180094 67.4402601 -31.11442566 67.40327454 C-23.29081283 67.13159211 -16.52114915 65.43438142 -10 61 C-7.31366733 56.73297793 -7.59609131 52.5218663 -7.5625 47.625 C-7.51319336 46.36816406 -7.51319336 46.36816406 -7.46289062 45.0859375 C-7.42570733 40.78619634 -7.77100959 38.41096021 -9.90234375 34.5859375 C-15.28772095 29.14807124 -23.68503403 28.6145397 -30.94140625 28.48168945 C-31.86824219 28.48773193 -32.79507813 28.49377441 -33.75 28.5 C-35.22533203 28.50422974 -35.22533203 28.50422974 -36.73046875 28.50854492 C-48.5281155 28.76121745 -61.03495656 30.82848112 -71.890625 35.640625 C-75.5634576 37.24633573 -78.03358131 37.53394098 -82 37 C-86.3025574 32.60708194 -85.71174644 27.31225828 -85.9375 21.5 C-86.00517578 20.45457031 -86.07285156 19.40914062 -86.14257812 18.33203125 C-86.18705078 17.32527344 -86.23152344 16.31851563 -86.27734375 15.28125 C-86.32109131 14.36408203 -86.36483887 13.44691406 -86.40991211 12.50195312 C-85.8665325 9.18536335 -84.56714925 8.09280043 -82 6 C-58.15452981 -6.55024747 -25.30848539 -8.67633722 0 0 Z " fill="#020202" transform="translate(673,17)"/>
<path d="M0 0 C0.70493591 0.00087616 1.40987183 0.00175232 2.13616943 0.00265503 C21.51432507 0.08205794 40.00801479 3.4537837 54.5390625 17.390625 C59.22617834 22.6352392 61.42203705 27.96206511 61.45967102 34.97389221 C61.46682632 35.89219818 61.47398163 36.81050415 61.48135376 37.75663757 C61.48404266 38.75677383 61.48673157 39.7569101 61.48950195 40.78735352 C61.49607315 41.84625793 61.50264435 42.90516235 61.50941467 43.99615479 C61.52912086 47.49873932 61.54080084 51.00128115 61.55078125 54.50390625 C61.55485678 55.6990428 61.5589323 56.89417934 61.56313133 58.12553215 C61.58397491 64.44428204 61.59828729 70.76301029 61.60766602 77.08178711 C61.61876125 83.62146005 61.65320204 90.16079562 61.69283772 96.70034885 C61.71891201 101.71966711 61.72734938 106.73890358 61.73094749 111.75828362 C61.73583279 114.1701175 61.74750147 116.58194728 61.76598549 118.99371529 C61.79019385 122.36010149 61.78944591 125.72559542 61.7824707 129.09204102 C61.79528076 130.09420151 61.80809082 131.096362 61.82128906 132.12889099 C61.81434525 133.04437714 61.80740143 133.95986328 61.80024719 134.90309143 C61.80263555 135.69893426 61.8050239 136.49477709 61.80748463 137.31473637 C61.3125 139.375 61.3125 139.375 59.48428631 141.12924099 C56.3783599 142.91083239 53.84427826 142.78085788 50.28125 142.80859375 C49.60831909 142.8138356 48.93538818 142.81907745 48.24206543 142.82447815 C46.82333757 142.8308841 45.4045565 142.82957977 43.98583984 142.82104492 C41.81902353 142.81252565 39.65483787 142.84132317 37.48828125 142.87304688 C36.10677162 142.87465892 34.72525734 142.8740813 33.34375 142.87109375 C32.09142578 142.87294678 30.83910156 142.8747998 29.54882812 142.87670898 C26.3125 142.375 26.3125 142.375 24.13938904 140.91784668 C21.41230264 137.12201538 21.77875252 133.75289032 21.84594727 129.18774414 C21.84364105 128.25884872 21.84133484 127.32995331 21.83895874 126.37290955 C21.83632956 124.35729806 21.84277404 122.34165899 21.85721016 120.32609749 C21.87907293 117.13583416 21.87538743 113.94652028 21.86473083 110.75621033 C21.84304648 102.83310223 21.86044201 94.91020421 21.88623047 86.98712158 C21.90761796 80.29224324 21.90959791 73.59797277 21.88331413 66.90310478 C21.8789583 63.76021356 21.90361813 60.61837346 21.92884827 57.4756012 C21.92357756 55.54761281 21.91685513 53.61962765 21.90844727 51.69165039 C21.92335709 50.81824005 21.93826691 49.94482971 21.95362854 49.04495239 C21.90241324 44.68750149 21.75831905 42.93608878 18.9627533 39.41770935 C11.15000782 33.3959573 2.89979264 33.80617465 -6.6875 34.375 C-13.86906399 35.47848516 -13.86906399 35.47848516 -19.80039978 39.36997986 C-22.40478388 43.51720352 -22.23995176 46.79684479 -22.18579102 51.59985352 C-22.19130981 52.52074768 -22.19682861 53.44164185 -22.20251465 54.39044189 C-22.2118247 56.38527356 -22.21194805 58.38016467 -22.20392036 60.37500191 C-22.19129602 63.53146713 -22.20257439 66.68705726 -22.21995544 69.8434906 C-22.24666178 75.40356599 -22.25225076 80.96342698 -22.25085449 86.52355957 C-22.24862606 95.42679366 -22.26267596 104.32976295 -22.30644035 113.23289299 C-22.3162957 116.34400665 -22.30755336 119.45470589 -22.29774475 122.56581116 C-22.30388763 124.47039056 -22.31079891 126.3749677 -22.31860352 128.27954102 C-22.31088425 129.14562485 -22.30316498 130.01170868 -22.29521179 130.90403748 C-22.32491213 134.40969534 -22.37156692 136.76250991 -23.9961853 139.91210938 C-26.75327608 142.29683545 -29.87979999 141.92505565 -33.34765625 141.87109375 C-34.09333359 141.87254898 -34.83901093 141.87400421 -35.60728455 141.87550354 C-37.18167025 141.87384511 -38.75607226 141.86228982 -40.33032227 141.84155273 C-42.74500021 141.81256003 -45.15748805 141.82095013 -47.57226562 141.83398438 C-49.1015732 141.82774802 -50.63087384 141.81935788 -52.16015625 141.80859375 C-52.88413101 141.81152939 -53.60810577 141.81446503 -54.35401917 141.81748962 C-56.38696289 141.77905273 -56.38696289 141.77905273 -59.6875 141.375 C-61.83889114 138.1479133 -61.94399023 137.25965871 -61.97511292 133.53691101 C-61.98797836 132.54017365 -62.00084381 131.54343628 -62.01409912 130.51649475 C-62.01790588 129.42396896 -62.02171265 128.33144318 -62.02563477 127.20581055 C-62.03717087 126.05433533 -62.04870697 124.90286011 -62.06059265 123.7164917 C-62.0949699 119.89822047 -62.11341505 116.08011095 -62.12890625 112.26171875 C-62.13580915 110.95908396 -62.14271206 109.65644917 -62.14982414 108.31434059 C-62.18254143 102.13243578 -62.20644195 95.9505817 -62.218638 89.76860207 C-62.23288978 82.63795871 -62.27675147 75.50830566 -62.34613949 68.37799042 C-62.39795511 62.86279361 -62.42281376 57.3478781 -62.42746013 51.83244163 C-62.43085553 48.53981553 -62.44909282 45.2484185 -62.48874092 41.95599937 C-62.53008252 38.28066958 -62.52737187 34.60785443 -62.51391602 30.93237305 C-62.53594086 29.84591995 -62.5579657 28.75946686 -62.58065796 27.64009094 C-62.49086261 20.42661583 -62.49086261 20.42661583 -60.17152214 17.39055824 C-58.41158492 15.84956047 -56.6858622 14.58543269 -54.6875 13.375 C-53.7696875 12.80652344 -52.851875 12.23804688 -51.90625 11.65234375 C-34.93889202 3.2905567 -18.90230562 -0.05750194 0 0 Z " fill="#000000" transform="translate(139.6875,51.625)"/>
<path d="M0 0 C2.23565107 0.01605232 4.46948201 0.00006888 6.70507812 -0.01904297 C19.36020195 -0.03814701 31.74545997 1.47345211 43.68164062 5.89111328 C44.80183594 6.29330078 45.92203125 6.69548828 47.07617188 7.10986328 C51.50484625 9.14147894 51.50484625 9.14147894 52.86914062 11.39111328 C52.97978023 14.02553187 52.92466914 16.35029425 52.68164062 18.95361328 C52.62484131 19.66727051 52.56804199 20.38092773 52.50952148 21.11621094 C51.21637471 36.0438792 51.21637471 36.0438792 47.86914062 39.39111328 C40.81518713 40.04425712 34.64157574 38.21859577 27.86914062 36.39111328 C18.15195123 33.97728917 8.68501195 33.19559046 -1.31835938 33.14111328 C-2.75598633 33.11017578 -2.75598633 33.11017578 -4.22265625 33.07861328 C-9.56962529 33.0490516 -13.59079789 33.21084108 -18.13085938 36.39111328 C-19.71509258 41.1438129 -19.45581101 45.60656571 -18.13085938 50.39111328 C-14.44445867 51.1465806 -10.75671459 51.89524769 -7.06835938 52.64111328 C-5.94469971 52.86855225 -4.82104004 53.09599121 -3.66333008 53.33032227 C2.95809116 54.65534856 9.58431316 55.87368575 16.24731445 56.96972656 C30.54013463 59.32669217 42.86726503 61.91109914 53.74414062 72.07861328 C59.16677655 80.53154576 59.34307075 90.11901569 59.24414062 99.89111328 C59.25574219 101.03708984 59.26734375 102.18306641 59.27929688 103.36376953 C59.2360777 116.02698719 56.63478553 126.85798472 47.55664062 136.01611328 C30.56737192 149.81594678 4.33489801 148.49188985 -16.13085938 146.39111328 C-21.53448679 145.68915203 -26.81962814 144.61094551 -32.13085938 143.39111328 C-33.24203125 143.15263672 -34.35320312 142.91416016 -35.49804688 142.66845703 C-50.51515375 139.24186033 -50.51515375 139.24186033 -55.13085938 133.39111328 C-55.39550781 131.41748047 -55.39550781 131.41748047 -55.24023438 129.18798828 C-55.18996094 128.37201172 -55.1396875 127.55603516 -55.08789062 126.71533203 C-55.01957031 125.86583984 -54.95125 125.01634766 -54.88085938 124.14111328 C-54.82800781 123.30708984 -54.77515625 122.47306641 -54.72070312 121.61376953 C-53.84649986 108.66336303 -53.84649986 108.66336303 -52.00585938 105.39111328 C-48.31748766 103.4239817 -43.80392901 105.20777407 -39.94726562 106.25830078 C-38.87347656 106.59087891 -37.7996875 106.92345703 -36.69335938 107.26611328 C-24.09750796 110.88000154 -12.72538829 112.66738324 0.36914062 112.76611328 C1.4793457 112.7799707 2.58955078 112.79382813 3.73339844 112.80810547 C10.14581001 112.77126367 15.05900102 112.16600307 20.86914062 109.39111328 C23.41700001 106.52477147 23.10598463 103.07508075 23.13476562 99.39111328 C22.80325894 96.89506294 22.26443126 95.5077735 20.86914062 93.39111328 C12.52369708 88.82566005 3.09719561 87.21664523 -6.19335938 85.76611328 C-38.18087603 80.57800099 -38.18087603 80.57800099 -48.13085938 70.39111328 C-56.13629524 58.09137076 -55.38804745 42.29181636 -52.87304688 28.35595703 C-50.35365131 18.29163473 -44.87074611 11.51063284 -36.04101562 6.11376953 C-24.80897492 0.57095615 -12.27557063 -0.1043477 0 0 Z " fill="#020202" transform="translate(278.130859375,50.60888671875)"/>
<path d="M0 0 C1.21042969 0.01345459 2.42085938 0.02690918 3.66796875 0.04077148 C4.31870361 0.04310287 4.96943848 0.04543427 5.63989258 0.0478363 C7.01168991 0.05755231 8.38344838 0.07929106 9.75488281 0.11230469 C11.84891482 0.1617106 13.94059398 0.17378637 16.03515625 0.17944336 C27.43935389 0.29970438 27.43935389 0.29970438 30.85546875 2.59936523 C32.27814737 5.44472248 32.07518744 7.96155075 32.171875 11.13842773 C32.21376953 12.44038086 32.25566406 13.74233398 32.29882812 15.08374023 C32.33864174 16.46394568 32.37835397 17.84415406 32.41796875 19.22436523 C32.46116282 20.61239938 32.5047774 22.00042051 32.54882812 23.38842773 C32.65518875 26.7919678 32.75721589 30.19558301 32.85546875 33.59936523 C33.6326123 33.61918457 34.40975586 33.63900391 35.21044922 33.65942383 C38.71747566 33.75443532 42.22388669 33.86421082 45.73046875 33.97436523 C47.56544922 34.02077148 47.56544922 34.02077148 49.4375 34.06811523 C50.60410156 34.10678711 51.77070313 34.14545898 52.97265625 34.18530273 C54.59083252 34.23243408 54.59083252 34.23243408 56.24169922 34.28051758 C58.85546875 34.59936523 58.85546875 34.59936523 60.85546875 36.59936523 C61.34440218 41.22697639 61.22587569 45.88639206 61.23046875 50.53686523 C61.25496094 51.83817383 61.27945313 53.13948242 61.3046875 54.48022461 C61.30855469 55.72481445 61.31242187 56.9694043 61.31640625 58.25170898 C61.32462402 59.39631592 61.3328418 60.54092285 61.34130859 61.72021484 C60.85546875 64.59936523 60.85546875 64.59936523 59.1913147 66.26100159 C56.25809936 67.94163844 54.36383376 67.94388103 50.99609375 67.89233398 C49.88105469 67.88266602 48.76601563 67.87299805 47.6171875 67.86303711 C46.45832031 67.83790039 45.29945313 67.81276367 44.10546875 67.78686523 C42.93113281 67.77333008 41.75679688 67.75979492 40.546875 67.74584961 C37.64927577 67.71051303 34.75260448 67.66117502 31.85546875 67.59936523 C31.8935107 76.52703412 31.95284977 85.45423346 32.03937149 94.38156509 C32.07887843 98.52693514 32.1110509 102.67209175 32.12646484 106.81762695 C32.1416106 110.81846646 32.17601808 114.81871932 32.22377777 118.81929779 C32.23861325 120.34545543 32.24651101 121.87169682 32.2473526 123.39792633 C32.2497177 125.5363466 32.27675553 127.67313949 32.30957031 129.8112793 C32.31845276 131.02817444 32.32733521 132.24506958 32.33648682 133.49884033 C32.95361676 137.18572544 33.89736685 138.38034567 36.85546875 140.59936523 C42.1071833 141.47341646 47.70747564 141.1610866 52.79296875 139.53686523 C56.05354988 138.53872815 57.67707106 138.41881752 60.85546875 139.59936523 C64.78628989 145.49559695 64.01445189 153.54271351 64.16796875 160.47436523 C64.19777832 161.22411621 64.22758789 161.97386719 64.25830078 162.74633789 C64.31549703 168.12400267 64.31549703 168.12400267 61.98046875 170.53686523 C53.07095156 174.99162383 44.34634049 174.80667227 34.54296875 174.84936523 C32.78436523 174.88030273 32.78436523 174.88030273 30.99023438 174.91186523 C19.56371216 174.96290498 10.04302983 172.63260165 0.85546875 165.59936523 C-7.53436993 157.07085153 -7.44464305 147.95959461 -7.43505859 136.57348633 C-7.44104945 135.15200957 -7.44785627 133.73053606 -7.45541382 132.30906677 C-7.47301658 128.46420931 -7.47776655 124.61944097 -7.47904539 120.7745471 C-7.4804699 118.3708641 -7.48474499 115.96720356 -7.49003983 113.56352615 C-7.50851558 105.17409075 -7.51671283 96.78471875 -7.51513672 88.39526367 C-7.51393343 80.57947782 -7.53507859 72.76396727 -7.56662405 64.94825113 C-7.59277058 58.23045218 -7.60350482 51.51274331 -7.6022259 44.79489386 C-7.60171613 40.78565305 -7.60740864 36.77665753 -7.628582 32.7674675 C-7.64793925 28.99984368 -7.64810657 25.23269999 -7.63354874 21.46505928 C-7.63145693 20.08357225 -7.63618378 18.70205533 -7.64826965 17.32061958 C-7.66371165 15.43323859 -7.65201975 13.54569398 -7.63900757 11.65829468 C-7.6400971 10.60271551 -7.64118664 9.54713634 -7.64230919 8.45956993 C-6.81301603 3.694497 -4.79152161 0.9132908 0 0 Z " fill="#010101" transform="translate(366.14453125,22.400634765625)"/>
<path d="M0 0 C0.74093399 -0.00287018 1.48186798 -0.00574036 2.24525452 -0.00869751 C3.81121587 -0.0107375 5.37720274 -0.00521208 6.94311523 0.00732422 C9.33570637 0.02335742 11.72660255 0.00748656 14.11914062 -0.01171875 C15.6419308 -0.00973586 17.16471993 -0.00589123 18.6875 0 C19.40115219 -0.00607269 20.11480438 -0.01214539 20.8500824 -0.0184021 C23.72836694 0.02217881 26.00343146 0.19578593 28.59888458 1.48897648 C31.28811651 4.32399214 30.91352529 6.47761589 30.91809082 10.33799744 C30.92433078 11.04827656 30.93057075 11.75855568 30.9369998 12.49035841 C30.95298814 14.87663847 30.94030359 17.26190526 30.92773438 19.64819336 C30.93315298 21.35641579 30.94027417 23.06463354 30.94897461 24.77284241 C30.96724348 29.41752937 30.96012545 34.06186179 30.94745827 38.70655513 C30.93734736 43.56272653 30.94671878 48.41886711 30.95300293 53.27503967 C30.96028561 61.43203188 30.9506761 69.58887936 30.93164062 77.74584961 C30.90987798 87.18048108 30.91691633 96.61476672 30.93894625 106.04938978 C30.95709128 114.14374344 30.95966274 122.2379929 30.94919157 130.33236033 C30.94295076 135.16933871 30.94213696 140.0061545 30.95533752 144.84312248 C30.96688212 149.3912584 30.95889587 153.9389481 30.9357605 158.48703575 C30.93046563 160.15757251 30.93200047 161.82814675 30.94081116 163.49866867 C30.95172034 165.77691951 30.9380611 168.05373491 30.91809082 170.33189392 C30.91658272 171.60744613 30.91507462 172.88299833 30.91352081 174.19720364 C30.31981431 177.97298267 29.46873632 179.16871548 26.41015625 181.3984375 C23.77751685 181.79686665 21.57003457 181.96059445 18.94140625 181.9296875 C18.22408325 181.9335144 17.50676025 181.93734131 16.7677002 181.94128418 C15.25478711 181.94399977 13.7418268 181.93666305 12.22900391 181.91992188 C9.91722649 181.89850301 7.60855612 181.91973101 5.296875 181.9453125 C3.82421191 181.94266916 2.35155075 181.93754403 0.87890625 181.9296875 C0.19026489 181.93778442 -0.49837646 181.94588135 -1.20788574 181.95422363 C-4.31701812 181.89367747 -6.23324446 181.65835029 -8.77226353 179.80774784 C-11.24296839 176.53268207 -11.09037936 174.41441854 -11.09104919 170.33189392 C-11.09658359 169.62005481 -11.10211799 168.9082157 -11.10782009 168.1748057 C-11.12143481 165.78927781 -11.10645401 163.40479472 -11.09155273 161.01928711 C-11.0953356 159.30929622 -11.10083537 157.59930838 -11.10792542 155.889328 C-11.12190055 151.24475344 -11.11069635 146.60054845 -11.0942142 141.95599437 C-11.08037809 137.09936774 -11.08682205 132.24276287 -11.09034729 127.38612366 C-11.09305029 119.2309065 -11.07956516 111.07583645 -11.05639648 102.9206543 C-11.02977727 93.48545838 -11.02804214 84.05050832 -11.03978485 74.61528772 C-11.05055451 65.54582118 -11.04438253 56.47644378 -11.03022957 47.40698433 C-11.0244636 43.54378725 -11.02455721 39.68065526 -11.02929497 35.8174572 C-11.0340585 31.27101035 -11.0239891 26.72483362 -11.00234032 22.17843819 C-10.99676407 20.50748226 -10.99631481 18.83650042 -11.00129318 17.1655426 C-11.00722545 14.88939197 -10.99478165 12.61407299 -10.9775238 10.33799744 C-10.97509391 9.06282226 -10.97266401 7.78764708 -10.97016048 6.47383022 C-10.58984375 3.3984375 -10.58984375 3.3984375 -9.27800083 1.48897648 C-6.43283542 -0.34898269 -3.2780312 -0.02781491 0 0 Z " fill="#000000" transform="translate(21.58984375,12.6015625)"/>
<path d="M0 0 C3.48625698 2.01666404 5.86868171 4.67192083 7.93147945 8.11728573 C8.74690825 11.398587 8.72395833 14.53649039 8.66023922 17.90463924 C8.66593426 18.86162716 8.6716293 19.81861507 8.67749691 20.80460262 C8.68856722 23.95256108 8.65659167 27.0984197 8.6228857 30.24619198 C8.61930682 32.44141553 8.61795156 34.63664374 8.61872005 36.83187008 C8.61403473 41.42591903 8.58923822 46.01926357 8.54891109 50.61313534 C8.49791183 56.49667975 8.4864695 62.37945164 8.48874664 68.26319122 C8.48793026 72.79372667 8.47146675 77.32409384 8.44974232 81.85457325 C8.44020843 84.02385784 8.43428621 86.19316146 8.4320612 88.36246586 C8.4255439 91.39508214 8.39925669 94.4268857 8.36727047 97.45932674 C8.36863003 98.35248089 8.36998959 99.24563503 8.37139034 100.16585445 C8.29382874 105.20409269 7.79194365 108.78704126 4.93147945 113.11728573 C-3.46986288 118.93359965 -12.01017087 119.89756982 -22.06852055 119.11728573 C-28.27728658 117.93642087 -32.61602444 115.56978184 -37.06852055 111.11728573 C-38.76232216 108.30265184 -39.32053864 106.225539 -39.33594608 102.95618343 C-39.34447605 102.13476864 -39.35300602 101.31335384 -39.36179447 100.46704769 C-39.3608881 99.57448269 -39.35998173 98.68191769 -39.35904789 97.76230526 C-39.36576511 96.815509 -39.37248234 95.86871273 -39.37940311 94.89322567 C-39.3984069 91.76212986 -39.40230851 88.63124813 -39.40445805 85.50009823 C-39.41088425 83.32300382 -39.41761247 81.14591029 -39.42463017 78.96881771 C-39.43660884 74.40419163 -39.44031037 69.83964126 -39.43912601 65.27500057 C-39.43892278 59.42835516 -39.46622729 53.58219558 -39.50067043 47.73566532 C-39.52291684 43.23863149 -39.52696425 38.741715 -39.52590656 34.24463177 C-39.52826583 32.08927263 -39.53710763 29.93391042 -39.5525713 27.77860546 C-39.57218534 24.7624101 -39.56641092 21.74726788 -39.55436039 18.73105526 C-39.57121891 17.39828045 -39.57121891 17.39828045 -39.58841801 16.03858089 C-39.53292646 10.56776751 -38.69112174 7.47191926 -35.06852055 3.11728573 C-27.25420251 -4.17607777 -9.46857186 -4.27064615 0 0 Z " fill="#FEFEFE" transform="translate(944.0685205459595,46.88271427154541)"/>
<path d="M0 0 C0.89009766 -0.01611328 1.78019531 -0.03222656 2.69726562 -0.04882812 C10.03461775 -0.05418777 16.60819749 0.9362132 22.4375 5.625 C27.50169729 12.0297201 28.03373695 17.14968374 27.9375 25.0625 C27.94910156 26.0009375 27.96070313 26.939375 27.97265625 27.90625 C27.94399063 34.82421953 27.55010235 42.73598234 22.93505859 48.26074219 C16.62297377 54.29739749 8.95550625 54.67500112 0.625 54.6875 C-0.23029297 54.71199219 -1.08558594 54.73648438 -1.96679688 54.76171875 C-8.5499789 54.79184773 -14.02484682 53.46973631 -18.96411133 48.90014648 C-23.82077179 43.40683526 -24.73536457 38.51889033 -24.6328125 31.38671875 C-24.6299826 30.63912796 -24.62715271 29.89153717 -24.62423706 29.12129211 C-24.61309469 26.7473612 -24.58800162 24.37381575 -24.5625 22 C-24.55246249 20.3847711 -24.54333799 18.76953624 -24.53515625 17.15429688 C-24.51317489 13.20688406 -24.47868657 9.25975726 -24.4375 5.3125 C-16.17116731 1.04988733 -9.17127515 -0.03306155 0 0 Z " fill="#FBFBFB" transform="translate(784.4375,110.6875)"/>
<path d="M0 0 C1.12212891 -0.00128906 2.24425781 -0.00257813 3.40039062 -0.00390625 C5.13772461 0.00189453 5.13772461 0.00189453 6.91015625 0.0078125 C8.64168945 0.00201172 8.64168945 0.00201172 10.40820312 -0.00390625 C16.03302682 0.00254794 21.43493484 0.11716054 26.97265625 1.1328125 C27.05386376 4.02921368 27.11325046 6.92332162 27.16015625 9.8203125 C27.18529297 10.63693359 27.21042969 11.45355469 27.23632812 12.29492188 C27.29475541 17.10543527 27.0786904 20.21293767 23.97265625 24.1328125 C15.70231307 32.16686016 4.59456666 32.37475341 -6.3203125 32.2890625 C-12.75216231 32.0179624 -18.83751191 31.22177092 -24.02734375 27.1328125 C-26.77904162 22.65036473 -26.62602061 18.23732043 -26.02734375 13.1328125 C-24.94883836 9.12693532 -23.2059344 6.90979435 -19.74609375 4.62890625 C-13.21671099 1.17738012 -7.38135338 0.0082165 0 0 Z " fill="#FAFAFA" transform="translate(505.02734375,133.8671875)"/>
</svg>
