<?xml version="1.0" encoding="utf-8"?>
<!-- Generator: Adobe Illustrator 27.5.0, SVG Export Plug-In . SVG Version: 6.00 Build 0)  -->
<svg version="1.1" id="layer" xmlns="http://www.w3.org/2000/svg" xmlns:xlink="http://www.w3.org/1999/xlink" x="0px" y="0px"
	 viewBox="0 0 524 47.7" style="enable-background:new 0 0 524 47.7;" xml:space="preserve">
<style type="text/css">
	.st0{fill:#FFBE00;}
</style>
<g>
	<polygon class="st0" points="42.3,12.1 74.3,12.1 78.7,4.6 46.6,4.6 	"/>
	<path d="M205.5,12c-3.8,0-6.2,0.6-7.3,2.5L188,32.2c-0.8,1.3-1.4,3.3,2.3,3.3h28.4c2.2-0.2,4.1-1.1,5.1-2.6
		c1.9-3.2,2.4-4.1,3.1-5.4h-17.4l4.2-7.3h35.9l-8.9,15.2c-3.4,5.3-5.1,7.8-18.9,7.8h-40.2c-7.9,0-18.7,0.7-14.8-6.4l14.6-25.4
		c2.3-4.6,7.6-6.9,17.8-6.8h59.2l-4.3,7.4L205.5,12L205.5,12z M338.4,43.1l21.9-38.5h-17.6l-21.8,38.5H338.4z M82.7,4.6L67.2,31.5
		c-1.1,1.8-2.3,4-6.4,4h-28c-2.4,0-3.2-1.3-2.4-2.6c7-12.5,7.2-12.7,7.2-12.7H19.7l-9.2,15c-3.3,5.5-2,7.9,7.7,7.9h49.2
		c11.6,0,13.6-3.8,16.2-8.2l17.5-30.3L82.7,4.6L82.7,4.6z M291.5,4.6l-17.7,30.9h-3.6c-3.2,0-5-0.3-3.4-3.4l15.7-27.5h-18.3
		L246,35.9c-1.5,2.5-3.4,7.2,6.8,7.2h50c10.4,0,13.5-2.5,16.5-7.7l17.8-30.8h-18.4l-15.5,27.2c-2.7,4-4.5,3.5-6.7,3.7h-4.2
		l17.8-30.9H291.5z M167.2,4.6c10,0,10.9,2.3,8.6,6.5l-13.6,23.8c-3.8,7-7.5,8-19.8,8.2H98.6c-11.5,0-13.6-1.3-9.6-7.7l8.8-15.3
		h54.4l3-5c1.1-2.1,0.5-3-2.9-3h-49.8l4.3-7.4L167.2,4.6 M138.8,35.6c5.3,0,7.5-5,7.5-5l1.7-3h-35.9c-1.3,2.3-1.7,2.9-3.2,5.6
		c-0.7,1.3-0.1,2.4,1.7,2.4H138.8 M503.6,4.6c11.5,0,13.6,1.3,9.6,7.7l-8.8,15.3h-54.2l-3,5c-1.1,2.1-0.7,3,2.7,3h49.6l-4.3,7.4h-60
		c-10,0-11.2-2.3-9-6.5l13.6-23.8c3.8-7,7.5-8,19.8-8.2h44 M493.2,14.6c0.7-1.3,0.1-2.4-1.7-2.4h-28c-5.2,0-7.5,5-7.5,5l-1.7,3h35.8
		C491.3,18,491.6,17.3,493.2,14.6 M429.1,4.6c10.4,0,7.5,4.1,4.4,9.6l-4.8,8.4c-2,3.5-7.9,5.1-13.4,5.1H408l8.8,15.4h-17.6
		l-8.7-15.4H389h-17.5l-8.7,15.4h-18.5l18.2-31.7c2.8-5.2,7.2-6.9,17.4-6.8H429.1 M412.9,17.5c0.9-2.1,4-5.4-1-5.4h-27
		c-3.8,0-5.9,2.1-7,3.9l-2.4,4.1h35.8L412.9,17.5 M499.6,39.4h1.3v3.5h0.7v-3.5h1.3v-0.6h-3.4v0.6H499.6z M503.5,43h0.7v-3.2l0,0
		l1.2,3.2h0.6l1.2-3.2l0,0V43h0.7v-4.2h-1l-1.1,3.3l0,0l-1.1-3.3h-1V43H503.5z"/>
</g>
</svg>
