<?xml version="1.0" encoding="UTF-8"?>
<svg xmlns="http://www.w3.org/2000/svg" version="1.1" viewBox="0 0 106.5 52">
  <defs>
    <style>
      .cls-1 {
        fill: #ff671d;
      }

      .cls-2 {
        fill: #f32735;
      }

      .cls-3 {
        fill: #fff;
      }
    </style>
  </defs>
  <!-- Generator: Adobe Illustrator 28.6.0, SVG Export Plug-In . SVG Version: 1.2.0 Build 709)  -->
  <g>
    <g id="Layer_1">
      <rect x="-1.1" y="-.8" width="107.5" height="53.5"/>
      <g>
        <polygon class="cls-3" points="87 26.9 76.9 26.9 72.4 39.5 69 26.9 64.2 26.9 64.2 26.9 53.4 26.9 43.8 51 55.6 51 61.3 35 65.8 51 75.6 51 75.6 51 77.5 51 87 26.9"/>
        <polygon class="cls-3" points="75.9 1 65.8 1 56 12.8 60.4 1 49.1 1 39.6 25.1 51.2 25.1 55.2 14.9 58.2 25.1 68.5 25.1 65.4 13.6 75.9 1"/>
        <path class="cls-3" d="M99.4,14.3c-1.7,0-2.8,1.3-3.1,2.1.2-.1.8-.3,1.5-.3s1.5.6,1.5,1.1-.3,1.1-1.1,1.1c-2.1,0-4.6-5.5-10.8-5.5s-5.1,1.3-5.1,2.9,1.1,2.1,2.7,2.1,2.3-.8,2.4-1.7c.3.1.6.5.6,1.1,0,1.1-1.5,2.4-4.4,2.4s-4.4-1.5-4.4-3.4,1.4-3,4.3-3.7c1.3-.3,2.3-.8,2.7-1.3-1.4-.3-2.9-1.2-2.9-2.9s1.3-2.8,3.1-2.8,2.6.6,2.9,1c-1.2,0-2.2.8-2.2,1.8s.7,2.1,2.8,2.1,3.2-1.4,3.2-3.3c0-3.3-3.5-6-9.2-6s-8.5,2.4-8.5,6,.3,1.6.8,2.4c-4.1,1.3-7,4.1-7,8.1,0,5.7,4.4,7.6,11.6,7.6s8.5-1.9,10.4-4.6c1.6,2.5,3.5,4.8,7.2,4.8s5.8-2.9,5.8-6.1c-.1-3.9-2.9-5-4.8-5Z"/>
        <g>
          <polygon class="cls-2" points="51.3 26.9 11 26.9 1.5 51 41.8 51 51.3 26.9"/>
          <polygon class="cls-1" points="47 1 11 1 1.5 25.1 37.5 25.1 47 1"/>
        </g>
        <path class="cls-3" d="M80.8,49.7h-.5v-.3h1.5v.3h-.7l-.5,1.4h-.3l.5-1.4Z"/>
        <path class="cls-3" d="M83.7,49.4l-.6,1.6h-.3l.4-1.1-.8.9h0l-.2-.9-.4,1.1h-.3l.6-1.6h.2l.3,1.1,1-1.1s.2,0,.2,0Z"/>
      </g>
    </g>
  </g>
</svg>