<?xml version="1.0" encoding="UTF-8"?>
<svg version="1.1" xmlns="http://www.w3.org/2000/svg" width="300" height="168">
<path d="M0 0 C1.7916373 0.04989411 3.58330452 0.09872539 5.375 0.14648438 C14.31800674 0.40045216 23.21950316 0.7837973 32.125 1.6875 C31.09972187 6.2031486 29.28501072 8.29626898 26.125 11.6875 C25.465 11.6875 24.805 11.6875 24.125 11.6875 C24.125 12.3475 24.125 13.0075 24.125 13.6875 C22.1574413 15.54749285 20.06944402 17.22140198 17.97265625 18.93359375 C15.87701831 20.64755081 15.87701831 20.64755081 15.125 23.6875 C16.115 24.6775 16.115 24.6775 17.125 25.6875 C14.815 26.0175 12.505 26.3475 10.125 26.6875 C10.125 27.0175 10.125 27.3475 10.125 27.6875 C11.70857459 27.37622484 13.29184993 27.06342711 14.875 26.75 C15.75671875 26.57597656 16.6384375 26.40195312 17.546875 26.22265625 C19.01841149 25.91720095 20.48714849 25.59429966 21.94262695 25.21972656 C45.16432248 19.55653199 70.43322921 15.45145243 94.3125 15.1875 C95.26157227 15.16905029 96.21064453 15.15060059 97.18847656 15.1315918 C105.44619543 15.20619194 111.86129429 18.004436 119.125 21.6875 C118.795 22.6775 118.465 23.6675 118.125 24.6875 C116.475 25.0175 114.825 25.3475 113.125 25.6875 C114.775 25.6875 116.425 25.6875 118.125 25.6875 C118.125 27.0075 118.125 28.3275 118.125 29.6875 C111.79166667 29.6875 105.45833333 29.6875 99.125 29.6875 C96.55296001 30.09361158 94.48054179 30.49252547 92.1875 31.75 C89.44908942 32.99473208 87.09897774 32.75358839 84.125 32.6875 C83.795 33.0175 83.465 33.3475 83.125 33.6875 C80.64797943 34.18380649 78.16141868 34.58704792 75.66796875 34.9921875 C72.88797825 35.75230779 71.39249584 36.96212894 69.125 38.6875 C66.79166667 38.6875 64.45833333 38.6875 62.125 38.6875 C59.3487322 39.50433536 56.79956356 40.56136797 54.125 41.6875 C54.125 43.0075 54.125 44.3275 54.125 45.6875 C47.195 45.6875 40.265 45.6875 33.125 45.6875 C33.125 46.3475 33.125 47.0075 33.125 47.6875 C33.71302399 47.68527939 34.30104797 47.68305878 34.90689087 47.68077087 C41.03899527 47.65861021 47.17108825 47.6435484 53.30322266 47.63256836 C55.59033673 47.62754636 57.87744761 47.62072753 60.16455078 47.61206055 C63.45606273 47.59990155 66.74753215 47.59425027 70.0390625 47.58984375 C71.05803619 47.58468246 72.07700989 47.57952118 73.12686157 47.57420349 C77.90894261 47.57382746 82.42363529 47.6810597 87.125 48.6875 C87.455 51.6575 87.785 54.6275 88.125 57.6875 C88.5375 57.06875 88.95 56.45 89.375 55.8125 C91.23446208 53.55458176 92.54195087 52.93988746 95.125 51.6875 C95.71120117 51.01493164 96.29740234 50.34236328 96.90136719 49.64941406 C99.71404845 47.1677818 101.06522397 47.21814306 104.765625 47.296875 C105.83554687 47.30976562 106.90546875 47.32265625 108.0078125 47.3359375 C109.11898438 47.36945312 110.23015625 47.40296875 111.375 47.4375 C113.06496094 47.46457031 113.06496094 47.46457031 114.7890625 47.4921875 C117.56856896 47.53929778 120.3463534 47.60506639 123.125 47.6875 C123.37894531 48.61691406 123.63289063 49.54632813 123.89453125 50.50390625 C125.63715762 56.76300247 127.45073155 62.75760039 130.125 68.6875 C132.69071159 74.85877104 133.44388067 79.09309664 132.125 85.6875 C131.795 85.6875 131.465 85.6875 131.125 85.6875 C131.125 84.0375 131.125 82.3875 131.125 80.6875 C125.515 80.6875 119.905 80.6875 114.125 80.6875 C114.125 80.0275 114.125 79.3675 114.125 78.6875 C105.215 78.3575 96.305 78.0275 87.125 77.6875 C86.795 80.3275 86.465 82.9675 86.125 85.6875 C83.485 85.6875 80.845 85.6875 78.125 85.6875 C77.795 84.3675 77.465 83.0475 77.125 81.6875 C71.845 81.3575 66.565 81.0275 61.125 80.6875 C63.125 76.6875 63.125 76.6875 68.125 73.6875 C59.215 73.3575 50.305 73.0275 41.125 72.6875 C41.125 74.3375 41.125 75.9875 41.125 77.6875 C40.465 77.3575 39.805 77.0275 39.125 76.6875 C39.125 77.3475 39.125 78.0075 39.125 78.6875 C38.465 78.6875 37.805 78.6875 37.125 78.6875 C36.795 80.9975 36.465 83.3075 36.125 85.6875 C36.970625 85.89375 37.81625 86.1 38.6875 86.3125 C42.45660253 87.82014101 44.62293535 89.66942408 47.51171875 92.4453125 C49.18181919 93.99254078 49.18181919 93.99254078 52.125 93.6875 C52.455 94.0175 52.785 94.3475 53.125 94.6875 C54.07375 94.996875 55.0225 95.30625 56 95.625 C59.125 96.6875 59.125 96.6875 62.125 98.6875 C61.795 99.3475 61.465 100.0075 61.125 100.6875 C59.475 99.6975 57.825 98.7075 56.125 97.6875 C56.125 98.3475 56.125 99.0075 56.125 99.6875 C56.8675 99.97625 57.61 100.265 58.375 100.5625 C60.69467575 101.51145826 62.90118682 102.5372518 65.125 103.6875 C65.785 104.0175 66.445 104.3475 67.125 104.6875 C68.45833333 105.35416667 69.79166667 106.02083333 71.125 106.6875 C71.125 107.3475 71.125 108.0075 71.125 108.6875 C73.105 108.6875 75.085 108.6875 77.125 108.6875 C77.455 109.6775 77.785 110.6675 78.125 111.6875 C78.846875 111.72875 79.56875 111.77 80.3125 111.8125 C84.35774817 113.07102165 85.61981257 115.32339117 88.125 118.6875 C87.125 119.6875 87.125 119.6875 83.5625 119.75 C82.428125 119.729375 81.29375 119.70875 80.125 119.6875 C80.125 120.3475 80.125 121.0075 80.125 121.6875 C72.58395938 122.73967721 65.14955298 122.87361716 57.54443359 122.87280273 C55.26250511 122.87498802 52.98106201 122.89318821 50.69921875 122.91210938 C42.95105399 122.94169018 35.67735901 122.57231912 28.125 120.6875 C26.25185675 120.38413747 24.37709306 120.09037782 22.5 119.8125 C11.81232684 118.06110066 1.34014388 115.26915833 -8.875 111.6875 C-12.45725477 110.53389253 -15.29871861 109.6875 -19.0625 109.6875 C-24.13554146 109.6875 -27.24108958 106.72865753 -31.203125 103.8671875 C-33.04404535 102.56822034 -34.74611854 101.44781481 -36.875 100.6875 C-38.36 101.1825 -38.36 101.1825 -39.875 101.6875 C-41.77734375 101.015625 -41.77734375 101.015625 -43.8125 99.9375 C-44.48152344 99.59203125 -45.15054688 99.2465625 -45.83984375 98.890625 C-47.97772634 97.62677118 -49.91659857 96.21216151 -51.875 94.6875 C-54.06208019 96.89739957 -56.22060308 99.13326267 -58.375 101.375 C-58.99503906 102.00083984 -59.61507812 102.62667969 -60.25390625 103.27148438 C-63.84507847 106.89708481 -63.84507847 106.89708481 -65.28125 111.64453125 C-65.08015625 112.65580078 -65.08015625 112.65580078 -64.875 113.6875 C-66.195 114.0175 -67.515 114.3475 -68.875 114.6875 C-68.875 115.6775 -68.875 116.6675 -68.875 117.6875 C-70.195 118.0175 -71.515 118.3475 -72.875 118.6875 C-72.875 119.6775 -72.875 120.6675 -72.875 121.6875 C-75.875 122.6875 -75.875 122.6875 -77.8125 121.875 C-78.493125 121.483125 -79.17375 121.09125 -79.875 120.6875 C-82.60640176 119.19764449 -83.68101677 118.6875 -86.875 118.6875 C-86.875 118.0275 -86.875 117.3675 -86.875 116.6875 C-88.36 117.1825 -88.36 117.1825 -89.875 117.6875 C-90.535 117.0275 -91.195 116.3675 -91.875 115.6875 C-93.95704291 114.64221789 -96.0653834 113.64882122 -98.1875 112.6875 C-99.31800781 112.171875 -100.44851562 111.65625 -101.61328125 111.125 C-104.34852575 109.91952698 -107.09698568 108.78887205 -109.875 107.6875 C-114.875 105.1875 -114.875 105.1875 -119.875 102.6875 C-119.875 102.0275 -119.875 101.3675 -119.875 100.6875 C-120.761875 100.48125 -121.64875 100.275 -122.5625 100.0625 C-125.76896963 98.7315126 -126.54039832 98.1957817 -128.5625 95.625 C-130.60989697 92.4704173 -130.60989697 92.4704173 -133.875 91.6875 C-134.3390625 90.7284375 -134.3390625 90.7284375 -134.8125 89.75 C-136.1092338 87.23281085 -137.2971737 86.71863052 -139.875 85.6875 C-140.07586443 81.97150809 -140.0269437 80.91541555 -137.875 77.6875 C-138.535 77.6875 -139.195 77.6875 -139.875 77.6875 C-140.205 80.3275 -140.535 82.9675 -140.875 85.6875 C-141.205 85.6875 -141.535 85.6875 -141.875 85.6875 C-141.875 84.0375 -141.875 82.3875 -141.875 80.6875 C-146.165 80.6875 -150.455 80.6875 -154.875 80.6875 C-155.205 81.6775 -155.535 82.6675 -155.875 83.6875 C-158.0836355 80.37454675 -157.875 79.46296697 -157.875 75.6875 C-158.535 75.0275 -159.195 74.3675 -159.875 73.6875 C-159.26221191 73.61635986 -158.64942383 73.54521973 -158.01806641 73.47192383 C-155.71197146 72.87513689 -155.71197146 72.87513689 -154.62646484 70.7097168 C-154.28309082 69.86062744 -153.9397168 69.01153809 -153.5859375 68.13671875 C-153.20179688 67.21052734 -152.81765625 66.28433594 -152.421875 65.33007812 C-152.03515625 64.35490234 -151.6484375 63.37972656 -151.25 62.375 C-150.46686338 60.46194569 -149.68303473 58.54917449 -148.8984375 56.63671875 C-148.55731934 55.78424561 -148.21620117 54.93177246 -147.86474609 54.0534668 C-146.95424172 51.87692564 -145.9576009 49.78280778 -144.875 47.6875 C-143.93180908 47.66768066 -142.98861816 47.64786133 -142.0168457 47.62744141 C-138.50356966 47.54915234 -134.99070736 47.46245302 -131.4777832 47.37011719 C-129.95996022 47.33193296 -128.44204999 47.29706192 -126.92407227 47.265625 C-124.73682569 47.21974372 -122.55017418 47.16178971 -120.36328125 47.1015625 C-118.39161987 47.05443115 -118.39161987 47.05443115 -116.38012695 47.00634766 C-113.11075466 46.70894568 -110.81376104 46.09632573 -107.875 44.6875 C-107.545 45.6775 -107.215 46.6675 -106.875 47.6875 C-97.305 47.6875 -87.735 47.6875 -77.875 47.6875 C-79.38755182 46.17494818 -80.7731306 46.49189461 -82.8828125 46.40625 C-83.70523438 46.36886719 -84.52765625 46.33148438 -85.375 46.29296875 C-86.24125 46.25816406 -87.1075 46.22335938 -88 46.1875 C-93.69230888 45.95249642 -99.24815918 45.60243347 -104.875 44.6875 C-105.205 43.6975 -105.535 42.7075 -105.875 41.6875 C-105.215 41.3575 -104.555 41.0275 -103.875 40.6875 C-102.885 41.1825 -102.885 41.1825 -101.875 41.6875 C-101.7925 40.90375 -101.71 40.12 -101.625 39.3125 C-101.3775 38.44625 -101.13 37.58 -100.875 36.6875 C-99.55365029 35.99738611 -98.2184403 35.33355756 -96.875 34.6875 C-95.20667755 33.21892468 -95.20667755 33.21892468 -93.66796875 31.4921875 C-92.79277588 30.54702271 -92.79277588 30.54702271 -91.89990234 29.58276367 C-91.29355957 28.91607666 -90.6872168 28.24938965 -90.0625 27.5625 C-89.43811035 26.88614502 -88.8137207 26.20979004 -88.17041016 25.51293945 C-84.44521946 21.46329038 -80.78629917 17.36809061 -77.3046875 13.10546875 C-75.61392738 11.42856732 -74.05435486 10.63819824 -71.875 9.6875 C-70.78638672 9.20990234 -70.78638672 9.20990234 -69.67578125 8.72265625 C-62.47181844 5.90666451 -55.29478356 4.52053643 -47.6953125 3.30078125 C-45.66964713 2.97559775 -43.64440484 2.6390066 -41.63671875 2.21679688 C-27.76974931 -0.44087549 -14.05076836 -0.48117303 0 0 Z M103.125 26.6875 C103.125 27.3475 103.125 28.0075 103.125 28.6875 C103.785 28.3575 104.445 28.0275 105.125 27.6875 C104.465 27.3575 103.805 27.0275 103.125 26.6875 Z M51.125 41.6875 C51.125 42.3475 51.125 43.0075 51.125 43.6875 C51.785 43.3575 52.445 43.0275 53.125 42.6875 C52.465 42.3575 51.805 42.0275 51.125 41.6875 Z M48.125 42.6875 C47.135 43.3475 46.145 44.0075 45.125 44.6875 C46.445 44.6875 47.765 44.6875 49.125 44.6875 C48.795 44.0275 48.465 43.3675 48.125 42.6875 Z M-63.875 44.6875 C-63.875 45.0175 -63.875 45.3475 -63.875 45.6875 C-56.615 45.6875 -49.355 45.6875 -41.875 45.6875 C-41.875 45.3575 -41.875 45.0275 -41.875 44.6875 C-49.135 44.6875 -56.395 44.6875 -63.875 44.6875 Z M-25.875 44.6875 C-25.545 46.0075 -25.215 47.3275 -24.875 48.6875 C-24.25969925 48.68527939 -23.6443985 48.68305878 -23.01045227 48.68077087 C-16.60275859 48.65863652 -10.19507579 48.64355931 -3.78735352 48.63256836 C-1.39639851 48.6275416 0.99455343 48.62071925 3.38549805 48.61206055 C6.82341266 48.59992253 10.26128661 48.59425508 13.69921875 48.58984375 C15.30104256 48.58210182 15.30104256 48.58210182 16.93522644 48.57420349 C17.93588638 48.57412796 18.93654633 48.57405243 19.9675293 48.57397461 C20.84467087 48.571754 21.72181244 48.56953339 22.62553406 48.56724548 C25.21275147 48.69172191 27.60178996 49.11638096 30.125 49.6875 C27.50936478 46.30256031 24.17190417 45.44151886 20.125 44.6875 C16.53965929 44.43032155 12.97189566 44.45395409 9.37890625 44.4921875 C8.36779282 44.4950174 7.35667938 44.49784729 6.31492615 44.50076294 C3.10566048 44.51190111 -0.10331958 44.53699403 -3.3125 44.5625 C-5.49674074 44.57253802 -7.68098589 44.58166243 -9.86523438 44.58984375 C-15.20191932 44.61181957 -20.53843924 44.64523344 -25.875 44.6875 Z M-41.875 45.6875 C-44.39945756 45.36392654 -44.39945756 45.36392654 -47.3203125 45.61328125 C-48.93486328 45.69545898 -48.93486328 45.69545898 -50.58203125 45.77929688 C-52.27392578 45.88854492 -52.27392578 45.88854492 -54 46 C-55.13566406 46.06123047 -56.27132812 46.12246094 -57.44140625 46.18554688 C-60.25366961 46.3391579 -63.06435144 46.50705472 -65.875 46.6875 C-65.875 47.0175 -65.875 47.3475 -65.875 47.6875 C-57.955 47.6875 -50.035 47.6875 -41.875 47.6875 C-41.545 49.0075 -41.215 50.3275 -40.875 51.6875 C-40.545 50.6975 -40.215 49.7075 -39.875 48.6875 C-40.535 47.6975 -41.195 46.7075 -41.875 45.6875 Z M-67.875 47.6875 C-66.875 50.6875 -66.875 50.6875 -66.875 50.6875 Z M-112.875 48.6875 C-112.875 49.3475 -112.875 50.0075 -112.875 50.6875 C-111.885 50.3575 -110.895 50.0275 -109.875 49.6875 C-110.865 49.3575 -111.855 49.0275 -112.875 48.6875 Z M-26.875 48.6875 C-27.205 49.3475 -27.535 50.0075 -27.875 50.6875 C-27.215 50.6875 -26.555 50.6875 -25.875 50.6875 C-26.205 50.0275 -26.535 49.3675 -26.875 48.6875 Z M-127.875 49.6875 C-128.205 51.3375 -128.535 52.9875 -128.875 54.6875 C-129.9375 57 -129.9375 57 -130.875 58.6875 C-125.98865993 59.26236354 -123.79934484 57.43454139 -119.875 54.6875 C-117.57357354 53.57854652 -115.24925819 52.63720328 -112.875 51.6875 C-112.875 51.3575 -112.875 51.0275 -112.875 50.6875 C-117.825 50.3575 -122.775 50.0275 -127.875 49.6875 Z M30.125 49.6875 C30.125 50.6775 30.125 51.6675 30.125 52.6875 C30.785 51.6975 31.445 50.7075 32.125 49.6875 C31.465 49.6875 30.805 49.6875 30.125 49.6875 Z M-87.875 50.6875 C-87.875 51.6775 -87.875 52.6675 -87.875 53.6875 C-87.215 53.0275 -86.555 52.3675 -85.875 51.6875 C-86.535 51.3575 -87.195 51.0275 -87.875 50.6875 Z M-39.875 50.6875 C-40.205 51.3475 -40.535 52.0075 -40.875 52.6875 C-40.215 53.3475 -39.555 54.0075 -38.875 54.6875 C-39.205 53.3675 -39.535 52.0475 -39.875 50.6875 Z M-70.875 50.6875 C-71.535 51.3475 -72.195 52.0075 -72.875 52.6875 C-71.885 52.6875 -70.895 52.6875 -69.875 52.6875 C-70.205 52.0275 -70.535 51.3675 -70.875 50.6875 Z M-28.875 52.6875 C-29.205 54.0075 -29.535 55.3275 -29.875 56.6875 C-29.215 56.6875 -28.555 56.6875 -27.875 56.6875 C-27.545 55.3675 -27.215 54.0475 -26.875 52.6875 C-27.535 52.6875 -28.195 52.6875 -28.875 52.6875 Z M-92.875 53.6875 C-92.545 54.3475 -92.215 55.0075 -91.875 55.6875 C-91.545 55.0275 -91.215 54.3675 -90.875 53.6875 C-91.535 53.6875 -92.195 53.6875 -92.875 53.6875 Z M-74.875 53.6875 C-75.205 54.3475 -75.535 55.0075 -75.875 55.6875 C-75.215 55.6875 -74.555 55.6875 -73.875 55.6875 C-74.205 55.0275 -74.535 54.3675 -74.875 53.6875 Z M-95.875 54.6875 C-95.545 55.3475 -95.215 56.0075 -94.875 56.6875 C-94.545 56.0275 -94.215 55.3675 -93.875 54.6875 C-94.535 54.6875 -95.195 54.6875 -95.875 54.6875 Z M-77.875 55.6875 C-77.215 56.3475 -76.555 57.0075 -75.875 57.6875 C-75.875 57.0275 -75.875 56.3675 -75.875 55.6875 C-76.535 55.6875 -77.195 55.6875 -77.875 55.6875 Z M-38.875 56.6875 C-38.215 58.0075 -37.555 59.3275 -36.875 60.6875 C-37.205 59.3675 -37.535 58.0475 -37.875 56.6875 C-38.205 56.6875 -38.535 56.6875 -38.875 56.6875 Z M-30.875 56.6875 C-31.205 58.3375 -31.535 59.9875 -31.875 61.6875 C-30.885 60.6975 -29.895 59.7075 -28.875 58.6875 C-29.535 58.0275 -30.195 57.3675 -30.875 56.6875 Z M-100.875 57.6875 C-100.545 58.3475 -100.215 59.0075 -99.875 59.6875 C-99.545 59.0275 -99.215 58.3675 -98.875 57.6875 C-99.535 57.6875 -100.195 57.6875 -100.875 57.6875 Z M-10.875 57.6875 C-11.535 59.6675 -12.195 61.6475 -12.875 63.6875 C-9.81196422 63.76865993 -6.75109185 63.82807409 -3.6875 63.875 C-2.82318359 63.90013672 -1.95886719 63.92527344 -1.06835938 63.95117188 C3.85538334 64.00776662 7.09331189 63.86777571 11.125 60.6875 C10.795 59.6975 10.465 58.7075 10.125 57.6875 C3.195 57.6875 -3.735 57.6875 -10.875 57.6875 Z M46.125 57.6875 C45.465 59.3375 44.805 60.9875 44.125 62.6875 C47.20727709 62.91405901 50.2907016 63.11553465 53.375 63.3125 C54.24769531 63.37695312 55.12039062 63.44140625 56.01953125 63.5078125 C57.28603516 63.58515625 57.28603516 63.58515625 58.578125 63.6640625 C59.35317383 63.71643066 60.12822266 63.76879883 60.92675781 63.82275391 C63.53050531 63.66254998 64.98993903 63.19001545 67.125 61.6875 C67.455 60.3675 67.785 59.0475 68.125 57.6875 C60.865 57.6875 53.605 57.6875 46.125 57.6875 Z M-103.875 58.6875 C-102.875 60.6875 -102.875 60.6875 -102.875 60.6875 Z M106.125 58.6875 C105.795 59.6775 105.465 60.6675 105.125 61.6875 C104.50625 61.831875 103.8875 61.97625 103.25 62.125 C100.4176285 62.8747454 99.67512483 64.28480651 98.125 66.6875 C103.9224423 66.93178343 103.9224423 66.93178343 109.125 64.6875 C108.465 62.7075 107.805 60.7275 107.125 58.6875 C106.795 58.6875 106.465 58.6875 106.125 58.6875 Z M-105.875 59.6875 C-105.875 60.3475 -105.875 61.0075 -105.875 61.6875 C-105.215 61.3575 -104.555 61.0275 -103.875 60.6875 C-104.535 60.3575 -105.195 60.0275 -105.875 59.6875 Z M-81.875 59.6875 C-80.875 61.6875 -80.875 61.6875 -80.875 61.6875 Z M-58.875 59.6875 C-58.545 60.3475 -58.215 61.0075 -57.875 61.6875 C-57.545 61.0275 -57.215 60.3675 -56.875 59.6875 C-57.535 59.6875 -58.195 59.6875 -58.875 59.6875 Z M-84.875 61.6875 C-84.875 62.3475 -84.875 63.0075 -84.875 63.6875 C-85.865 64.1825 -85.865 64.1825 -86.875 64.6875 C-85.555 64.3575 -84.235 64.0275 -82.875 63.6875 C-82.875 63.0275 -82.875 62.3675 -82.875 61.6875 C-83.535 61.6875 -84.195 61.6875 -84.875 61.6875 Z M-35.875 61.6875 C-36.205 62.3475 -36.535 63.0075 -36.875 63.6875 C-36.215 63.6875 -35.555 63.6875 -34.875 63.6875 C-35.205 63.0275 -35.535 62.3675 -35.875 61.6875 Z M-32.875 61.6875 C-32.875 62.6775 -32.875 63.6675 -32.875 64.6875 C-33.865 64.6875 -34.855 64.6875 -35.875 64.6875 C-35.545 66.0075 -35.215 67.3275 -34.875 68.6875 C-34.215 68.6875 -33.555 68.6875 -32.875 68.6875 C-32.215 66.7075 -31.555 64.7275 -30.875 62.6875 C-31.535 62.3575 -32.195 62.0275 -32.875 61.6875 Z M-62.875 62.6875 C-63.205 63.6775 -63.535 64.6675 -63.875 65.6875 C-64.865 66.1825 -64.865 66.1825 -65.875 66.6875 C-62.905 66.6875 -59.935 66.6875 -56.875 66.6875 C-56.875 66.3575 -56.875 66.0275 -56.875 65.6875 C-57.679375 65.56375 -58.48375 65.44 -59.3125 65.3125 C-60.158125 65.10625 -61.00375 64.9 -61.875 64.6875 C-62.205 64.0275 -62.535 63.3675 -62.875 62.6875 Z M-55.875 64.6875 C-54.875 66.6875 -54.875 66.6875 -54.875 66.6875 Z M-108.875 65.6875 C-109.205 66.3475 -109.535 67.0075 -109.875 67.6875 C-109.215 67.6875 -108.555 67.6875 -107.875 67.6875 C-108.205 67.0275 -108.535 66.3675 -108.875 65.6875 Z M-90.875 66.6875 C-90.545 67.6775 -90.215 68.6675 -89.875 69.6875 C-89.545 68.6975 -89.215 67.7075 -88.875 66.6875 C-89.535 66.6875 -90.195 66.6875 -90.875 66.6875 Z M-134.875 68.6875 C-136.855 71.6575 -136.855 71.6575 -138.875 74.6875 C-137.885 76.1725 -137.885 76.1725 -136.875 77.6875 C-136.215 76.6975 -135.555 75.7075 -134.875 74.6875 C-133.885 74.6875 -132.895 74.6875 -131.875 74.6875 C-131.875 74.0275 -131.875 73.3675 -131.875 72.6875 C-131.215 72.0275 -130.555 71.3675 -129.875 70.6875 C-132.35 69.6975 -132.35 69.6975 -134.875 68.6875 Z M-104.875 68.6875 C-104.875 69.6775 -104.875 70.6675 -104.875 71.6875 C-104.215 71.6875 -103.555 71.6875 -102.875 71.6875 C-103.205 70.6975 -103.535 69.7075 -103.875 68.6875 C-104.205 68.6875 -104.535 68.6875 -104.875 68.6875 Z M22.125 68.6875 C23.125 70.6875 23.125 70.6875 23.125 70.6875 Z M-93.875 69.6875 C-92.875 71.6875 -92.875 71.6875 -92.875 71.6875 Z M-128.875 71.6875 C-128.215 73.0075 -127.555 74.3275 -126.875 75.6875 C-126.875 74.6975 -126.875 73.7075 -126.875 72.6875 C-127.535 72.3575 -128.195 72.0275 -128.875 71.6875 Z M-102.875 71.6875 C-101.555 73.0075 -100.235 74.3275 -98.875 75.6875 C-98.875 74.6975 -98.875 73.7075 -98.875 72.6875 C-100.195 72.3575 -101.515 72.0275 -102.875 71.6875 Z M19.125 70.6875 C18.465 71.3475 17.805 72.0075 17.125 72.6875 C18.115 73.1825 18.115 73.1825 19.125 73.6875 C18.795 75.0075 18.465 76.3275 18.125 77.6875 C19.77055699 76.45940909 19.77055699 76.45940909 21.125 74.6875 C20.89742269 72.52450789 20.89742269 72.52450789 20.125 70.6875 C19.795 70.6875 19.465 70.6875 19.125 70.6875 Z M15.125 72.6875 C15.785 73.3475 16.445 74.0075 17.125 74.6875 C17.125 74.0275 17.125 73.3675 17.125 72.6875 C16.465 72.6875 15.805 72.6875 15.125 72.6875 Z M-125.875 74.6875 C-125.875 75.3475 -125.875 76.0075 -125.875 76.6875 C-125.215 76.3575 -124.555 76.0275 -123.875 75.6875 C-124.535 75.3575 -125.195 75.0275 -125.875 74.6875 Z M-78.875 75.6875 C-78.545 76.6775 -78.215 77.6675 -77.875 78.6875 C-69.295 78.3575 -60.715 78.0275 -51.875 77.6875 C-51.875 77.0275 -51.875 76.3675 -51.875 75.6875 C-60.785 75.6875 -69.695 75.6875 -78.875 75.6875 Z M-123.875 76.6875 C-122.875 78.6875 -122.875 78.6875 -122.875 78.6875 Z M-121.875 77.6875 C-122.205 78.3475 -122.535 79.0075 -122.875 79.6875 C-122.215 79.6875 -121.555 79.6875 -120.875 79.6875 C-121.205 79.0275 -121.535 78.3675 -121.875 77.6875 Z M-18.875 75.6875 C-19.535 77.0075 -20.195 78.3275 -20.875 79.6875 C-24.96838652 79.73689115 -29.06165798 79.77321501 -33.15527344 79.79736328 C-34.54820781 79.80742877 -35.94112102 79.82108234 -37.33398438 79.83837891 C-39.3345436 79.8626022 -41.33525615 79.87290814 -43.3359375 79.8828125 C-44.54040527 79.89328613 -45.74487305 79.90375977 -46.98583984 79.91455078 C-49.875 79.6875 -49.875 79.6875 -51.875 77.6875 C-52.205 78.6775 -52.535 79.6675 -52.875 80.6875 C-51.885 82.1725 -51.885 82.1725 -50.875 83.6875 C-47.67074675 84.10604048 -47.67074675 84.10604048 -43.8984375 83.98046875 C-42.87056625 83.97410149 -42.87056625 83.97410149 -41.82192993 83.96760559 C-39.63088871 83.95079753 -37.44076368 83.91314405 -35.25 83.875 C-33.76563827 83.85995579 -32.28126215 83.84626693 -30.796875 83.83398438 C-27.15595167 83.8008879 -23.51556522 83.74909207 -19.875 83.6875 C-17.6736134 79.88322508 -17.6736134 79.88322508 -16.875 75.6875 C-17.535 75.6875 -18.195 75.6875 -18.875 75.6875 Z M17.125 78.6875 C17.125 79.3475 17.125 80.0075 17.125 80.6875 C17.785 80.3575 18.445 80.0275 19.125 79.6875 C18.465 79.3575 17.805 79.0275 17.125 78.6875 Z M-80.875 77.6875 C-81.205 78.3475 -81.535 79.0075 -81.875 79.6875 C-86.66198137 79.85519074 -91.44912878 80.0157422 -96.23657227 80.16967773 C-97.86521855 80.22305204 -99.4938021 80.27837782 -101.12231445 80.33569336 C-103.46291578 80.41773211 -105.80365288 80.49275361 -108.14453125 80.56640625 C-109.23686821 80.60695885 -109.23686821 80.60695885 -110.35127258 80.64833069 C-113.50545624 80.74148179 -115.85299764 80.69483412 -118.875 79.6875 C-118.875 80.6775 -118.875 81.6675 -118.875 82.6875 C-112.44193219 84.19176468 -105.94762628 83.91180058 -99.375 83.9375 C-97.39693359 83.9684375 -97.39693359 83.9684375 -95.37890625 84 C-93.47431641 84.00773437 -93.47431641 84.00773437 -91.53125 84.015625 C-89.79584961 84.02964355 -89.79584961 84.02964355 -88.02539062 84.04394531 C-84.52649668 83.64806922 -82.61717613 82.88098391 -79.875 80.6875 C-79.875 79.6975 -79.875 78.7075 -79.875 77.6875 C-80.205 77.6875 -80.535 77.6875 -80.875 77.6875 Z M19.125 80.6875 C19.125 81.6775 19.125 82.6675 19.125 83.6875 C24.735 83.6875 30.345 83.6875 36.125 83.6875 C36.125 82.6975 36.125 81.7075 36.125 80.6875 C30.515 80.6875 24.905 80.6875 19.125 80.6875 Z " fill="#211E1D" transform="translate(161.875,2.3125)"/>
<path d="M0 0 C1.7916373 0.04989411 3.58330452 0.09872539 5.375 0.14648438 C14.31800674 0.40045216 23.21950316 0.7837973 32.125 1.6875 C31.09972187 6.2031486 29.28501072 8.29626898 26.125 11.6875 C25.465 11.6875 24.805 11.6875 24.125 11.6875 C24.125 12.3475 24.125 13.0075 24.125 13.6875 C22.1574413 15.54749285 20.06944402 17.22140198 17.97265625 18.93359375 C15.87701831 20.64755081 15.87701831 20.64755081 15.125 23.6875 C16.115 24.6775 16.115 24.6775 17.125 25.6875 C14.815 26.0175 12.505 26.3475 10.125 26.6875 C10.125 27.0175 10.125 27.3475 10.125 27.6875 C11.70857459 27.37622484 13.29184993 27.06342711 14.875 26.75 C16.19757813 26.48896484 16.19757813 26.48896484 17.546875 26.22265625 C19.01841149 25.91720095 20.48714849 25.59429966 21.94262695 25.21972656 C45.16432248 19.55653199 70.43322921 15.45145243 94.3125 15.1875 C95.26157227 15.16905029 96.21064453 15.15060059 97.18847656 15.1315918 C105.44619543 15.20619194 111.86129429 18.004436 119.125 21.6875 C118.795 22.6775 118.465 23.6675 118.125 24.6875 C116.475 25.0175 114.825 25.3475 113.125 25.6875 C114.775 25.6875 116.425 25.6875 118.125 25.6875 C118.125 27.0075 118.125 28.3275 118.125 29.6875 C111.79166667 29.6875 105.45833333 29.6875 99.125 29.6875 C96.55296001 30.09361158 94.48054179 30.49252547 92.1875 31.75 C89.44908942 32.99473208 87.09897774 32.75358839 84.125 32.6875 C83.795 33.0175 83.465 33.3475 83.125 33.6875 C80.64797943 34.18380649 78.16141868 34.58704792 75.66796875 34.9921875 C72.88797825 35.75230779 71.39249584 36.96212894 69.125 38.6875 C66.79166667 38.6875 64.45833333 38.6875 62.125 38.6875 C59.3487322 39.50433536 56.79956356 40.56136797 54.125 41.6875 C54.125 43.0075 54.125 44.3275 54.125 45.6875 C46.39727893 45.82440844 38.81618596 45.43916913 31.125 44.6875 C30.795 46.0075 30.465 47.3275 30.125 48.6875 C29.53119537 48.47687424 28.93739075 48.26624847 28.32559204 48.04924011 C21.800225 45.89263839 15.93134306 45.22160409 9.0859375 45.17578125 C8.07906891 45.15783005 7.07220032 45.13987885 6.03482056 45.12138367 C2.85658814 45.0677187 -0.32149796 45.03352647 -3.5 45 C-5.67059309 44.96678821 -7.84116698 44.93229505 -10.01171875 44.89648438 C-15.29934775 44.8120182 -20.58699678 44.74348542 -25.875 44.6875 C-26.01091553 45.43926514 -26.14683105 46.19103027 -26.28686523 46.96557617 C-27.05314395 50.51196114 -28.47253714 53.69958482 -29.9375 57 C-30.21916016 57.64517578 -30.50082031 58.29035156 -30.79101562 58.95507812 C-31.4812743 60.53448358 -32.17753198 62.11126493 -32.875 63.6875 C-33.535 63.6875 -34.195 63.6875 -34.875 63.6875 C-37.27158905 59.10373259 -39.37261096 54.65694068 -40.875 49.6875 C-41.205 48.6975 -41.535 47.7075 -41.875 46.6875 C-58.75176639 45.45692993 -58.75176639 45.45692993 -73.3125 52.125 C-75.34513717 54.45636064 -75.34513717 54.45636064 -76.875 56.6875 C-78.875 58.6875 -78.875 58.6875 -81.1875 60 C-84.22063954 61.90452948 -86.37593719 64.12748444 -88.875 66.6875 C-95.49592624 72.67377787 -95.49592624 72.67377787 -98.875 73.6875 C-102.76856893 72.55710902 -105.11317348 69.52200616 -107.875 66.6875 C-108.535 66.3575 -109.195 66.0275 -109.875 65.6875 C-109.875 65.0275 -109.875 64.3675 -109.875 63.6875 C-108.8334375 63.21441406 -107.791875 62.74132812 -106.71875 62.25390625 C-96.47025547 57.54439015 -86.62390004 52.35577028 -76.875 46.6875 C-77.77424194 46.64991577 -77.77424194 46.64991577 -78.69165039 46.61157227 C-81.44043324 46.49464227 -84.18895375 46.37236053 -86.9375 46.25 C-87.88044922 46.21068359 -88.82339844 46.17136719 -89.79492188 46.13085938 C-94.88615478 45.90024604 -99.84564756 45.5175873 -104.875 44.6875 C-105.37 43.2025 -105.37 43.2025 -105.875 41.6875 C-104.885 41.1925 -104.885 41.1925 -103.875 40.6875 C-103.215 41.0175 -102.555 41.3475 -101.875 41.6875 C-101.75125 40.511875 -101.75125 40.511875 -101.625 39.3125 C-101.25375 38.013125 -101.25375 38.013125 -100.875 36.6875 C-99.55365029 35.99738611 -98.2184403 35.33355756 -96.875 34.6875 C-95.20667755 33.21892468 -95.20667755 33.21892468 -93.66796875 31.4921875 C-93.08450684 30.86207764 -92.50104492 30.23196777 -91.89990234 29.58276367 C-91.29355957 28.91607666 -90.6872168 28.24938965 -90.0625 27.5625 C-89.43811035 26.88614502 -88.8137207 26.20979004 -88.17041016 25.51293945 C-84.44521946 21.46329038 -80.78629917 17.36809061 -77.3046875 13.10546875 C-75.61392738 11.42856732 -74.05435486 10.63819824 -71.875 9.6875 C-71.14925781 9.36910156 -70.42351562 9.05070313 -69.67578125 8.72265625 C-62.47181844 5.90666451 -55.29478356 4.52053643 -47.6953125 3.30078125 C-45.66964713 2.97559775 -43.64440484 2.6390066 -41.63671875 2.21679688 C-27.76974931 -0.44087549 -14.05076836 -0.48117303 0 0 Z M103.125 26.6875 C103.125 27.3475 103.125 28.0075 103.125 28.6875 C103.785 28.3575 104.445 28.0275 105.125 27.6875 C104.465 27.3575 103.805 27.0275 103.125 26.6875 Z M51.125 41.6875 C51.125 42.3475 51.125 43.0075 51.125 43.6875 C51.785 43.3575 52.445 43.0275 53.125 42.6875 C52.465 42.3575 51.805 42.0275 51.125 41.6875 Z M48.125 42.6875 C47.135 43.3475 46.145 44.0075 45.125 44.6875 C46.445 44.6875 47.765 44.6875 49.125 44.6875 C48.795 44.0275 48.465 43.3675 48.125 42.6875 Z M-63.875 44.6875 C-63.875 45.0175 -63.875 45.3475 -63.875 45.6875 C-56.615 45.6875 -49.355 45.6875 -41.875 45.6875 C-41.875 45.3575 -41.875 45.0275 -41.875 44.6875 C-49.135 44.6875 -56.395 44.6875 -63.875 44.6875 Z " fill="#E86323" transform="translate(161.875,2.3125)"/>
<path d="M0 0 C0.66 0.66 1.32 1.32 2 2 C2.33 1.34 2.66 0.68 3 0 C4.98 0.66 6.96 1.32 9 2 C9 2.66 9 3.32 9 4 C9.66 4 10.32 4 11 4 C11.763125 4.804375 12.52625 5.60875 13.3125 6.4375 C19.03418512 11.89306023 28.0415624 10.220837 35.5 10.25 C37.47806641 10.2809375 37.47806641 10.2809375 39.49609375 10.3125 C41.40068359 10.32023437 41.40068359 10.32023437 43.34375 10.328125 C45.07915039 10.34214355 45.07915039 10.34214355 46.84960938 10.35644531 C51.30778242 9.8520333 53.87221375 8.12778625 57 5 C59.61376953 4.77294922 59.61376953 4.77294922 62.8828125 4.8046875 C64.63271484 4.81435547 64.63271484 4.81435547 66.41796875 4.82421875 C67.64128906 4.84097656 68.86460938 4.85773438 70.125 4.875 C71.35605469 4.88402344 72.58710937 4.89304687 73.85546875 4.90234375 C76.90383815 4.92597452 79.95182382 4.95891946 83 5 C83.495 7.475 83.495 7.475 84 10 C94.23 10.33 104.46 10.66 115 11 C115.33 9.68 115.66 8.36 116 7 C116.63654342 5.6520257 117.29605388 4.31403276 118 3 C118.85231201 2.98018066 119.70462402 2.96036133 120.58276367 2.93994141 C123.76058324 2.86160496 126.93803582 2.77490335 130.11547852 2.68261719 C131.48778581 2.64445712 132.86018871 2.60958204 134.23266602 2.578125 C136.2113229 2.53219318 138.18966442 2.47326363 140.16796875 2.4140625 C141.35672607 2.3826416 142.5454834 2.3512207 143.77026367 2.31884766 C146.91270329 2.00861815 149.10375661 1.16800657 152 0 C152.99 0.33 153.98 0.66 155 1 C154.01 3.31 153.02 5.62 152 8 C158.93 8.495 158.93 8.495 166 9 C166 9.33 166 9.66 166 10 C167.65 10.33 169.3 10.66 171 11 C171 11.66 171 12.32 171 13 C171.845625 13.20625 172.69125 13.4125 173.5625 13.625 C177.33160253 15.13264101 179.49793535 16.98192408 182.38671875 19.7578125 C184.05681919 21.30504078 184.05681919 21.30504078 187 21 C187.33 21.33 187.66 21.66 188 22 C188.94875 22.309375 189.8975 22.61875 190.875 22.9375 C194 24 194 24 197 26 C196.67 26.66 196.34 27.32 196 28 C194.35 27.01 192.7 26.02 191 25 C191 25.66 191 26.32 191 27 C191.7425 27.28875 192.485 27.5775 193.25 27.875 C195.56967575 28.82395826 197.77618682 29.8497518 200 31 C200.66 31.33 201.32 31.66 202 32 C203.33333333 32.66666667 204.66666667 33.33333333 206 34 C206 34.66 206 35.32 206 36 C207.98 36 209.96 36 212 36 C212.33 36.99 212.66 37.98 213 39 C213.721875 39.04125 214.44375 39.0825 215.1875 39.125 C219.23274817 40.38352165 220.49481257 42.63589117 223 46 C222 47 222 47 218.4375 47.0625 C217.303125 47.041875 216.16875 47.02125 215 47 C215 47.66 215 48.32 215 49 C207.45895938 50.05217721 200.02455298 50.18611716 192.41943359 50.18530273 C190.13750511 50.18748802 187.85606201 50.20568821 185.57421875 50.22460938 C177.82605399 50.25419018 170.55235901 49.88481912 163 48 C161.12685675 47.69663747 159.25209306 47.40287782 157.375 47.125 C146.68732684 45.37360066 136.21514388 42.58165833 126 39 C122.41774523 37.84639253 119.57628139 37 115.8125 37 C110.73945854 37 107.63391042 34.04115753 103.671875 31.1796875 C101.83095465 29.88072034 100.12888146 28.76031481 98 28 C96.515 28.495 96.515 28.495 95 29 C93.09765625 28.328125 93.09765625 28.328125 91.0625 27.25 C90.39347656 26.90453125 89.72445312 26.5590625 89.03515625 26.203125 C86.89727366 24.93927118 84.95840143 23.52466151 83 22 C80.81291981 24.20989957 78.65439692 26.44576267 76.5 28.6875 C75.87996094 29.31333984 75.25992188 29.93917969 74.62109375 30.58398438 C71.02992153 34.20958481 71.02992153 34.20958481 69.59375 38.95703125 C69.79484375 39.96830078 69.79484375 39.96830078 70 41 C68.68 41.33 67.36 41.66 66 42 C66 42.99 66 43.98 66 45 C64.68 45.33 63.36 45.66 62 46 C62 46.99 62 47.98 62 49 C59 50 59 50 57.0625 49.1875 C56.381875 48.795625 55.70125 48.40375 55 48 C52.26859824 46.51014449 51.19398323 46 48 46 C48 45.34 48 44.68 48 44 C47.01 44.33 46.02 44.66 45 45 C44.34 44.34 43.68 43.68 43 43 C40.91795709 41.95471789 38.8096166 40.96132122 36.6875 40 C35.55699219 39.484375 34.42648438 38.96875 33.26171875 38.4375 C30.52647425 37.23202698 27.77801432 36.10137205 25 35 C21.66666667 33.33333333 18.33333333 31.66666667 15 30 C15 29.34 15 28.68 15 28 C13.6696875 27.690625 13.6696875 27.690625 12.3125 27.375 C9.10603037 26.0440126 8.33460168 25.5082817 6.3125 22.9375 C4.26510303 19.7829173 4.26510303 19.7829173 1 19 C0.690625 18.360625 0.38125 17.72125 0.0625 17.0625 C-1.2342338 14.54531085 -2.4221737 14.03113052 -5 13 C-5.83861979 7.63283335 -2.92070405 4.20372761 0 0 Z " fill="#E56121" transform="translate(27,75)"/>
<path d="M0 0 C0.495 0.99 0.495 0.99 1 2 C3.52733235 2.65555119 3.52733235 2.65555119 6 3 C6 3.66 6 4.32 6 5 C5.34 5 4.68 5 4 5 C4.495 5.66 4.99 6.32 5.5 7 C7.48316621 10.96633241 7.22357461 13.60303262 7 18 C5.56260487 18.02712066 4.12506137 18.04645067 2.6875 18.0625 C1.48673828 18.07990234 1.48673828 18.07990234 0.26171875 18.09765625 C-2 18 -2 18 -5 17 C-5.495 17.495 -5.495 17.495 -6 18 C-8.33333333 18 -10.66666667 18 -13 18 C-13.66 18.33 -14.32 18.66 -15 19 C-15 16.36 -15 13.72 -15 11 C-15.66 12.65 -16.32 14.3 -17 16 C-16.67 16.33 -16.34 16.66 -16 17 C-19.13498292 18.85776765 -21.37471432 19.20140476 -25 19 C-24.79375 18.236875 -24.5875 17.47375 -24.375 16.6875 C-23.66608797 13.78114056 -23.66608797 13.78114056 -26 11 C-26.66 13.31 -27.32 15.62 -28 18 C-29.98 18 -31.96 18 -34 18 C-34 15.03 -34 12.06 -34 9 C-34.99 9 -35.98 9 -37 9 C-37.33 7.35 -37.66 5.7 -38 4 C-34.5647952 1.70986347 -33.014669 1.82157027 -29 2 C-28.67 2.66 -28.34 3.32 -28 4 C-27.67 3.34 -27.34 2.68 -27 2 C-25.56260487 1.97287934 -24.12506137 1.95354933 -22.6875 1.9375 C-21.48673828 1.92009766 -21.48673828 1.92009766 -20.26171875 1.90234375 C-18 2 -18 2 -15 3 C-14.67 2.67 -14.34 2.34 -14 2 C-12.48071962 1.92820036 -10.95832518 1.91607993 -9.4375 1.9375 C-8.61121094 1.94652344 -7.78492188 1.95554688 -6.93359375 1.96484375 C-6.29550781 1.97644531 -5.65742188 1.98804688 -5 2 C-5 3.65 -5 5.3 -5 7 C-6.98 6.34 -8.96 5.68 -11 5 C-11 5.66 -11 6.32 -11 7 C-9.576875 7.185625 -9.576875 7.185625 -8.125 7.375 C-5 8 -5 8 -3 10 C-2.67 8.68 -2.34 7.36 -2 6 C-1.34 6 -0.68 6 0 6 C0 4.02 0 2.04 0 0 Z M-22 5 C-21.67 6.32 -21.34 7.64 -21 9 C-21 7.68 -21 6.36 -21 5 C-21.33 5 -21.66 5 -22 5 Z M-29 6 C-30.23267348 7.00836062 -30.23267348 7.00836062 -30.09765625 9.06640625 C-30.08605469 9.89011719 -30.07445312 10.71382812 -30.0625 11.5625 C-30.05347656 12.38878906 -30.04445312 13.21507812 -30.03515625 14.06640625 C-30.02355469 14.70449219 -30.01195312 15.34257812 -30 16 C-27.81668311 14.23863645 -27.81668311 14.23863645 -27.8046875 12.0546875 C-27.82789063 11.33539063 -27.85109375 10.61609375 -27.875 9.875 C-27.936875 7.956875 -27.936875 7.956875 -28 6 C-28.33 6 -28.66 6 -29 6 Z M-10 10 C-10.33 11.32 -10.66 12.64 -11 14 C-10.01 14 -9.02 14 -8 14 C-8.66 12.68 -9.32 11.36 -10 10 Z M-4 13 C-3 15 -3 15 -3 15 Z M1 13 C1.33 13.66 1.66 14.32 2 15 C2.33 14.34 2.66 13.68 3 13 C2.34 13 1.68 13 1 13 Z " fill="#1C1B1B" transform="translate(198,146)"/>
<path d="M0 0 C9.1796875 -0.1953125 9.1796875 -0.1953125 12 0 C12.66 0.66 13.32 1.32 14 2 C13.67 2.99 13.34 3.98 13 5 C13.66 5 14.32 5 15 5 C15 3.35 15 1.7 15 0 C16.32 0 17.64 0 19 0 C19 4.95 19 9.9 19 15 C19.66 15.33 20.32 15.66 21 16 C16.33333333 16 11.66666667 16 7 16 C7 11.38 7 6.76 7 2 C6.01 2 5.02 2 4 2 C4.33 6.62 4.66 11.24 5 16 C3.35 16 1.7 16 0 16 C0 10.72 0 5.44 0 0 Z " fill="#1F1C1D" transform="translate(107,148)"/>
<path d="M0 0 C3.63 0 7.26 0 11 0 C11 3.96 11 7.92 11 12 C9.02 12 7.04 12 5 12 C7.97 12.495 7.97 12.495 11 13 C11 13.99 11 14.98 11 16 C7.37 16 3.74 16 0 16 C-0.19441368 13.7089095 -0.38033135 11.41709663 -0.5625 9.125 C-0.71912109 7.21074219 -0.71912109 7.21074219 -0.87890625 5.2578125 C-1 2 -1 2 0 0 Z M5 4 C5 4.66 5 5.32 5 6 C6.65 6 8.3 6 10 6 C10 5.34 10 4.68 10 4 C8.35 4 6.7 4 5 4 Z " fill="#1D1B1C" transform="translate(142,148)"/>
<path d="M0 0 C0.66 0.33 1.32 0.66 2 1 C2 2.32 2 3.64 2 5 C2.01160156 5.75539062 2.02320312 6.51078125 2.03515625 7.2890625 C2.04417969 8.05992187 2.05320312 8.83078125 2.0625 9.625 C2.07410156 10.40101563 2.08570312 11.17703125 2.09765625 11.9765625 C2 14 2 14 1 16 C-0.9609375 16.51953125 -0.9609375 16.51953125 -3.375 16.8125 C-4.56222656 16.97685547 -4.56222656 16.97685547 -5.7734375 17.14453125 C-8 17 -8 17 -9.7890625 15.63671875 C-11 14 -11 14 -11 12 C-8.69 12 -6.38 12 -4 12 C-4.825 11.484375 -5.65 10.96875 -6.5 10.4375 C-9 8 -9 8 -9.3125 4.25 C-9.209375 3.1775 -9.10625 2.105 -9 1 C-6.01405576 -0.49297212 -3.29146376 -0.11755228 0 0 Z " fill="#201E1E" transform="translate(103,148)"/>
<path d="M0 0 C3.63 0 7.26 0 11 0 C11 1.98 11 3.96 11 6 C9.35 6 7.7 6 6 6 C6 5.34 6 4.68 6 4 C5.01 4 4.02 4 3 4 C3 6.64 3 9.28 3 12 C5.64 11.34 8.28 10.68 11 10 C11 11.98 11 13.96 11 16 C7.04 16 3.08 16 -1 16 C-2.25 5.625 -2.25 5.625 0 0 Z " fill="#1D1B1B" transform="translate(130,148)"/>
<path d="M0 0 C10.89 0 21.78 0 33 0 C28.56704258 3.32471807 27.56351543 3.36267783 22.265625 3.29296875 C20.97011719 3.28330078 19.67460937 3.27363281 18.33984375 3.26367188 C16.97655646 3.23860783 15.61327521 3.21321302 14.25 3.1875 C12.87110816 3.17244518 11.49220065 3.15875817 10.11328125 3.14648438 C6.74179085 3.11111909 3.37109346 3.06175904 0 3 C0 2.01 0 1.02 0 0 Z " fill="#010000" transform="translate(144,75)"/>
<path d="M0 0 C0.99 0.33 1.98 0.66 3 1 C3 1.66 3 2.32 3 3 C12.9 3 22.8 3 33 3 C30 6 30 6 27.65917969 6.26464844 C26.30421387 6.18778809 26.30421387 6.18778809 24.921875 6.109375 C23.92542969 6.05910156 22.92898437 6.00882813 21.90234375 5.95703125 C20.86207031 5.88871094 19.82179688 5.82039063 18.75 5.75 C17.72519531 5.69714844 16.70039062 5.64429688 15.64453125 5.58984375 C10.37849588 5.2984158 5.20484411 4.85277107 0 4 C-0.33 3.01 -0.66 2.02 -1 1 C-0.67 0.67 -0.34 0.34 0 0 Z " fill="#773C2A" transform="translate(57,43)"/>
<path d="M0 0 C0.99 0.33 1.98 0.66 3 1 C2.34 2.32 1.68 3.64 1 5 C-0.32 4.67 -1.64 4.34 -3 4 C-3 4.66 -3 5.32 -3 6 C-7.62 6 -12.24 6 -17 6 C-17 5.01 -17 4.02 -17 3 C-16.02417969 2.95101562 -15.04835937 2.90203125 -14.04296875 2.8515625 C-12.77066406 2.77679688 -11.49835937 2.70203125 -10.1875 2.625 C-8.29064453 2.52058594 -8.29064453 2.52058594 -6.35546875 2.4140625 C-2.87244766 2.23897061 -2.87244766 2.23897061 0 0 Z " fill="#000000" transform="translate(52,47)"/>
<path d="M0 0 C8.58 0 17.16 0 26 0 C26.33 0.99 26.66 1.98 27 3 C14.13 2.505 14.13 2.505 1 2 C0.67 1.34 0.34 0.68 0 0 Z " fill="#000000" transform="translate(248,78)"/>
<path d="M0 0 C0 2.97 0 5.94 0 9 C-2.64 9 -5.28 9 -8 9 C-8.33 7.68 -8.66 6.36 -9 5 C-7.68921847 4.16396622 -6.37632511 3.3312426 -5.0625 2.5 C-3.96615234 1.80390625 -3.96615234 1.80390625 -2.84765625 1.09375 C-1 0 -1 0 0 0 Z " fill="#000000" transform="translate(248,79)"/>
<path d="M0 0 C0 1.32 0 2.64 0 4 C-5.61 4 -11.22 4 -17 4 C-17.33 3.34 -17.66 2.68 -18 2 C-17.39671875 1.93941406 -16.7934375 1.87882812 -16.171875 1.81640625 C-14.97304688 1.69072266 -14.97304688 1.69072266 -13.75 1.5625 C-12.96109375 1.48128906 -12.1721875 1.40007813 -11.359375 1.31640625 C-9.02307595 1.04770264 -9.02307595 1.04770264 -6.875 0.46875 C-4.54761802 -0.1130955 -2.38888559 -0.06635793 0 0 Z " fill="#020000" transform="translate(280,28)"/>
<path d="M0 0 C1.32 0 2.64 0 4 0 C4.33 1.98 4.66 3.96 5 6 C2.69 5.67 0.38 5.34 -2 5 C-1.34 3.35 -0.68 1.7 0 0 Z " fill="#010000" transform="translate(101,63)"/>
<path d="M0 0 C0.99 0.33 1.98 0.66 3 1 C5.05893621 1.22325814 7.12233653 1.40705759 9.1875 1.5625 C10.27417969 1.64628906 11.36085937 1.73007813 12.48046875 1.81640625 C13.72763672 1.90728516 13.72763672 1.90728516 15 2 C15 2.33 15 2.66 15 3 C12.87562788 3.19448477 10.75046809 3.38038289 8.625 3.5625 C7.44164062 3.66691406 6.25828125 3.77132812 5.0390625 3.87890625 C2 4 2 4 0 3 C0 2.01 0 1.02 0 0 Z " fill="#010001" transform="translate(178,82)"/>
<path d="M0 0 C0.33 0.66 0.66 1.32 1 2 C1.99 1.67 2.98 1.34 4 1 C4 1.99 4 2.98 4 4 C0.37 4 -3.26 4 -7 4 C-7 3.67 -7 3.34 -7 3 C-5.02 3 -3.04 3 -1 3 C-0.67 2.01 -0.34 1.02 0 0 Z " fill="#080000" transform="translate(212,44)"/>
<path d="M0 0 C0.66 0.33 1.32 0.66 2 1 C2 1.99 2 2.98 2 4 C-1 5 -1 5 -3.1875 4.0625 C-3.785625 3.711875 -4.38375 3.36125 -5 3 C-2.625 1.4375 -2.625 1.4375 0 0 Z " fill="#040000" transform="translate(87,120)"/>
<path d="M0 0 C0.66 0.33 1.32 0.66 2 1 C1.67 1.99 1.34 2.98 1 4 C-0.32 3.67 -1.64 3.34 -3 3 C-2.01 2.67 -1.02 2.34 0 2 C0 1.34 0 0.68 0 0 Z " fill="#000000" transform="translate(191,11)"/>
<path d="M0 0 C0.99 0.33 1.98 0.66 3 1 C1.35 1.33 -0.3 1.66 -2 2 C-1.34 1.34 -0.68 0.68 0 0 Z " fill="#000000" transform="translate(181,25)"/>
<path d="" fill="#807F7F" transform="translate(0,0)"/>
<path d="M0 0 C2 1 2 1 2 1 Z " fill="#010000" transform="translate(203,153)"/>
<path d="M0 0 C2 1 2 1 2 1 Z " fill="#000000" transform="translate(48,108)"/>
<path d="M0 0 C2 1 2 1 2 1 Z " fill="#000000" transform="translate(39,103)"/>
<path d="M0 0 C2 1 2 1 2 1 Z " fill="#0D0000" transform="translate(31,97)"/>
<path d="M0 0 C2 1 2 1 2 1 Z " fill="#030000" transform="translate(227,76)"/>
<path d="M0 0 C2 1 2 1 2 1 Z " fill="#010000" transform="translate(27,73)"/>
<path d="" fill="#000000" transform="translate(0,0)"/>
<path d="M0 0 C2 1 2 1 2 1 Z " fill="#010000" transform="translate(35,58)"/>
<path d="M0 0 C2 1 2 1 2 1 Z " fill="#000000" transform="translate(247,35)"/>
<path d="" fill="#000000" transform="translate(0,0)"/>
<path d="" fill="#000000" transform="translate(0,0)"/>
<path d="" fill="#000000" transform="translate(0,0)"/>
<path d="" fill="#1F0000" transform="translate(0,0)"/>
<path d="" fill="#000000" transform="translate(0,0)"/>
<path d="" fill="#040000" transform="translate(0,0)"/>
<path d="" fill="#000000" transform="translate(0,0)"/>
<path d="" fill="#000002" transform="translate(0,0)"/>
<path d="" fill="#000100" transform="translate(0,0)"/>
<path d="" fill="#1C0000" transform="translate(0,0)"/>
<path d="" fill="#000000" transform="translate(0,0)"/>
<path d="" fill="#000000" transform="translate(0,0)"/>
<path d="" fill="#000002" transform="translate(0,0)"/>
</svg>
