<?xml version="1.0" encoding="utf-8"?>
<!-- Generator: Adobe Illustrator 27.5.0, SVG Export Plug-In . SVG Version: 6.00 Build 0)  -->
<svg version="1.1" id="Livello_1" xmlns="http://www.w3.org/2000/svg" xmlns:xlink="http://www.w3.org/1999/xlink" x="0px" y="0px"
	 viewBox="0 0 136 35" style="enable-background:new 0 0 136 35;" xml:space="preserve">
<g>
	<path d="M0,0h9.8v34.4H0V0z M12.1,16.8L22.5,0h11.1L22.9,16.8l11.2,17.6H23.1L12.1,16.8z"/>
	<path d="M101.5,0h9.8v34.4h-9.8V0z M113.6,16.8L124,0h11.1l-10.7,16.8l11.3,17.6h-11.1L113.6,16.8z"/>
	<polygon points="59.4,0 47.4,0 36.4,34.4 46,34.4 53.4,7.9 60.8,34.4 70.4,34.4 	"/>
	<path d="M87.5,2.6c-7.3,5.5-5.7,23.3-14.6,23.3v8.5c5.2,0,7.5-0.7,10-2.9c6.9-6.2,5.9-23,14.4-23V0C94.5,0,91.2-0.2,87.5,2.6z"/>
</g>
</svg>
