<?xml version="1.0" encoding="utf-8"?>
<!-- Generator: Adobe Illustrator 27.5.0, SVG Export Plug-In . SVG Version: 6.00 Build 0)  -->
<svg version="1.1" id="layer" xmlns="http://www.w3.org/2000/svg" xmlns:xlink="http://www.w3.org/1999/xlink" x="0px" y="0px"
	 viewBox="0 0 618 348" style="enable-background:new 0 0 618 348;" xml:space="preserve">
<style type="text/css">
	
		.st0{clip-path:url(#SVGID_00000160191563627036101150000007801658003786135731_);fill:url(#SVGID_00000094595278161637189620000010026647485529101217_);}
	
		.st1{clip-path:url(#SVGID_00000005967365125592764440000002227584742192224421_);fill:url(#SVGID_00000158714116291347014310000010148086829249021339_);}
	
		.st2{clip-path:url(#SVGID_00000171687921378618147950000011428723450847882682_);fill:url(#SVGID_00000043416240317634622860000011229329979750275982_);}
	.st3{clip-path:url(#SVGID_00000172408874937827895800000007213533085419466918_);}
	.st4{clip-path:url(#SVGID_00000124125022234556184760000002206076341933696436_);}
	.st5{clip-path:url(#SVGID_00000165195505561410772470000006989005712644909726_);}
	.st6{fill:#FFFFFF;}
	.st7{fill:url(#SVGID_00000180330318739726256930000011498138827912873371_);}
	.st8{fill:url(#SVGID_00000020367446251203606730000011963792945492834983_);}
</style>
<g>
	<g>
		<g>
			<defs>
				<path id="SVGID_1_" d="M476.1,338.8L476.1,338.8c0.3-0.1,0.5-0.1,0.8-0.2C476.7,338.7,476.4,338.8,476.1,338.8 M476.9,338.6
					L476.9,338.6L476.9,338.6 M334.3,308.5L334.3,308.5L334.3,308.5z M333.9,308.3C333.9,308.2,333.9,308.2,333.9,308.3
					C333.9,308.2,333.9,308.2,333.9,308.3 M333.5,307.9C333.5,307.9,333.4,307.9,333.5,307.9C333.4,307.9,333.5,307.9,333.5,307.9
					 M333.4,307.9L333.4,307.9L333.4,307.9 M333.1,307.6c-0.1-0.1-0.3-0.2-0.4-0.3C332.8,307.4,332.9,307.5,333.1,307.6
					 M332.5,307.2c-0.1-0.1-0.2-0.2-0.3-0.3C332.3,307,332.4,307.1,332.5,307.2 M332.1,306.8c-0.1-0.1-0.3-0.2-0.4-0.3
					C331.8,306.6,331.9,306.7,332.1,306.8 M331.6,306.5c-0.1-0.1-0.2-0.2-0.3-0.2C331.4,306.3,331.5,306.4,331.6,306.5 M331.3,306.2
					c-0.3-0.3-0.7-0.5-1-0.8l0,0c-0.1-0.1-0.2-0.2-0.3-0.3l-0.1-0.1c-0.1-0.1-0.2-0.1-0.3-0.2C330.1,305.3,330.7,305.8,331.3,306.2
					 M329.5,304.8L329.5,304.8L329.5,304.8L329.5,304.8 M329.5,304.8L329.5,304.8C329.4,304.8,329.5,304.8,329.5,304.8 M329.4,304.7
					L329.4,304.7c-0.2-0.1-0.4-0.3-0.6-0.5C329,304.4,329.2,304.5,329.4,304.7 M328.8,304.2c-0.2-0.1-0.3-0.3-0.5-0.4l0,0
					c-0.1-0.1-0.2-0.1-0.2-0.2C328.3,303.8,328.5,304,328.8,304.2 M328,303.5C328,303.5,328,303.6,328,303.5
					C328,303.6,328,303.5,328,303.5C327.9,303.5,328,303.5,328,303.5 M327.9,303.5l-0.1-0.1c-0.1-0.1-0.2-0.2-0.3-0.2l0,0
					C327.6,303.3,327.8,303.4,327.9,303.5 M327.5,303.1L327.5,303.1L327.5,303.1 M327.5,303.1C327.4,303.1,327.4,303.1,327.5,303.1
					c-0.1-0.1-0.2-0.2-0.3-0.3C327.3,302.9,327.4,303,327.5,303.1 M327.1,302.8L327.1,302.8L327.1,302.8L327.1,302.8 M327.1,302.8
					C327.1,302.8,327,302.8,327.1,302.8C327,302.8,327.1,302.8,327.1,302.8 M327,302.7L327,302.7L327,302.7L327,302.7 M326.9,302.7
					c-0.2-0.1-0.3-0.3-0.5-0.4l-0.1-0.1c-0.1,0-0.1-0.1-0.2-0.1C326.4,302.2,326.7,302.4,326.9,302.7 M326,301.9l0.1,0.1
					C326.1,301.9,326,301.9,326,301.9C326,301.8,326,301.9,326,301.9 M325.9,301.8L325.9,301.8c-0.2-0.1-0.3-0.2-0.3-0.3l0,0
					C325.7,301.6,325.8,301.7,325.9,301.8 M325.5,301.4l0.1,0.1c-0.1-0.1-0.2-0.2-0.3-0.3C325.3,301.3,325.4,301.3,325.5,301.4
					 M325.2,301.2L325.2,301.2c-0.1-0.1-0.1-0.1-0.1-0.1c-0.1-0.1-0.2-0.1-0.2-0.2C325,301,325.1,301.1,325.2,301.2 M324.9,300.9
					c-0.2-0.2-0.5-0.4-0.7-0.6C324.4,300.5,324.6,300.7,324.9,300.9 M324.1,300.2L324.1,300.2L324.1,300.2L324.1,300.2 M324,300.2
					C324,300.2,324,300.1,324,300.2C324,300.1,324,300.2,324,300.2 M324,300.1L324,300.1L324,300.1 M324,300.1L324,300.1l-0.1-0.1
					C323.9,300,323.9,300.1,324,300.1 M323.9,300L323.9,300 M323.2,299.4L323.2,299.4c0.2,0.2,0.3,0.3,0.4,0.3l0.1,0.1
					c0.1,0.1,0.1,0.1,0.2,0.2c-0.5-0.4-0.9-0.8-1.4-1.3C322.7,299,322.9,299.2,323.2,299.4 M322.5,298.7c-0.1-0.1-0.2-0.2-0.3-0.3
					l0,0C322.2,298.5,322.3,298.6,322.5,298.7 M437,4.2c-0.1,0-0.2,0-0.2,0c-0.1,0-0.2,0-0.3,0c-0.1,0-0.2,0-0.3,0
					c-0.1,0-0.2,0-0.3,0c-0.1,0-0.2,0-0.2,0c-0.1,0-0.2,0-0.3,0c-0.1,0-0.2,0-0.3,0c-0.1,0-0.2,0-0.3,0c-0.1,0-0.2,0-0.2,0
					c-0.1,0-0.2,0-0.4,0c-0.1,0-0.1,0-0.2,0s-0.2,0-0.4,0c-0.1,0-0.1,0-0.2,0s-0.2,0-0.4,0c-0.1,0-0.1,0-0.2,0s-0.2,0-0.4,0
					c-0.1,0-0.1,0-0.2,0s-0.2,0-0.3,0c-0.1,0-0.2,0-0.3,0c-0.2,0-0.3,0-0.5,0c-0.1,0-0.1,0-0.2,0s-0.2,0-0.3,0c-0.1,0-0.2,0-0.3,0
					c-0.1,0-0.2,0-0.3,0c-0.1,0-0.2,0-0.3,0c-0.1,0-0.2,0-0.3,0c-0.1,0-0.2,0-0.3,0c-0.1,0-0.2,0-0.3,0c-0.1,0-0.2,0-0.2,0
					c-0.1,0-0.2,0-0.3,0c-0.1,0-0.2,0-0.3,0c-0.1,0-0.2,0-0.3,0c-0.1,0-0.2,0-0.2,0c-0.1,0-0.2,0-0.3,0c-0.1,0-0.2,0-0.2,0
					c-0.1,0-0.3,0-0.4,0s-0.1,0-0.2,0s-0.3,0-0.4,0s-0.1,0-0.2,0c-0.2,0-0.4,0-0.6,0c-0.1,0-0.1,0-0.2,0s-0.3,0-0.4,0s-0.2,0-0.2,0
					c-0.1,0-0.2,0-0.3,0c-0.1,0-0.2,0-0.2,0c-0.1,0-0.2,0-0.3,0c-0.1,0-0.2,0-0.3,0c-0.1,0-0.2,0-0.3,0c-0.1,0-0.2,0-0.2,0
					c-0.1,0-0.2,0-0.3,0c-0.1,0-0.2,0-0.2,0c-0.1,0-0.2,0-0.3,0c-0.1,0-0.2,0-0.2,0c-0.1,0-0.2,0-0.3,0c-0.1,0-0.2,0-0.2,0
					c-0.1,0-0.2,0-0.4,0c-0.1,0-0.1,0-0.2,0s-0.3,0-0.4,0.1c-0.1,0-0.1,0-0.2,0c-0.2,0-0.3,0-0.5,0.1c-0.1,0-0.1,0-0.2,0
					s-0.3,0-0.4,0.1c-0.1,0-0.2,0-0.3,0c-0.1,0-0.2,0-0.3,0c-0.1,0-0.2,0-0.3,0c-0.1,0-0.2,0-0.3,0c-0.1,0-0.2,0-0.2,0
					c-0.1,0-0.2,0-0.3,0c-0.1,0-0.2,0-0.2,0c-0.1,0-0.2,0-0.3,0c-0.1,0-0.2,0-0.2,0c-0.1,0-0.2,0-0.3,0c-0.1,0-0.2,0-0.2,0
					c-0.1,0-0.2,0-0.3,0c-0.1,0-0.2,0-0.3,0c-0.1,0-0.2,0-0.3,0c-0.1,0-0.2,0-0.3,0c-0.1,0-0.2,0-0.3,0c-0.1,0-0.2,0-0.3,0.1
					c-0.1,0-0.2,0-0.3,0c-0.2,0-0.3,0.1-0.5,0.1c-0.1,0-0.2,0-0.3,0c-0.1,0-0.2,0-0.2,0c-0.1,0-0.2,0-0.3,0.1c-0.1,0-0.1,0-0.2,0
					s-0.2,0-0.3,0.1c-0.1,0-0.2,0-0.2,0c-0.1,0-0.2,0-0.3,0.1c-0.1,0-0.2,0-0.3,0c-0.1,0-0.2,0-0.3,0c-0.1,0-0.2,0-0.3,0
					c-0.1,0-0.2,0-0.3,0c-0.1,0-0.2,0-0.3,0.1c-0.1,0-0.2,0-0.3,0c-0.1,0-0.2,0-0.3,0.1c-0.1,0-0.2,0-0.3,0c-0.1,0-0.2,0-0.3,0.1
					c-0.1,0-0.2,0-0.2,0c-0.1,0-0.2,0-0.3,0.1c-0.1,0-0.2,0-0.3,0c-0.1,0-0.2,0-0.3,0.1c-0.1,0-0.3,0-0.4,0.1
					c-0.1,0-0.3,0.1-0.4,0.1s-0.2,0-0.3,0.1c-0.1,0-0.2,0-0.3,0.1c-0.1,0-0.2,0-0.3,0.1c-0.1,0-0.2,0-0.3,0.1c-0.1,0-0.2,0-0.3,0.1
					c-0.1,0-0.2,0-0.3,0.1c-0.1,0-0.2,0-0.3,0.1c-0.1,0-0.2,0-0.3,0.1c-0.1,0-0.2,0-0.3,0.1c-0.1,0-0.2,0-0.3,0.1
					c-0.1,0-0.2,0-0.3,0.1c-0.1,0-0.2,0-0.3,0.1c-0.1,0-0.2,0-0.3,0.1c-0.1,0-0.2,0-0.2,0.1c-0.1,0-0.2,0-0.3,0.1s-0.2,0-0.3,0.1
					c-0.1,0-0.2,0-0.3,0.1c-0.1,0-0.2,0-0.3,0.1c-0.1,0-0.2,0-0.3,0.1c-0.2,0-0.4,0.1-0.6,0.1c-0.1,0-0.1,0-0.1,0
					c-0.1,0-0.2,0.1-0.4,0.1c-0.1,0-0.1,0-0.2,0s-0.2,0.1-0.4,0.1c-0.1,0-0.1,0-0.2,0S399.4,8,399.3,8s-0.2,0-0.2,0.1
					c-0.1,0-0.2,0.1-0.3,0.1c-0.1,0-0.1,0-0.2,0.1c-0.1,0-0.2,0.1-0.3,0.1c-0.1,0-0.2,0-0.2,0.1c-0.1,0-0.2,0.1-0.3,0.1
					c-0.1,0-0.1,0-0.2,0.1c-0.1,0-0.2,0.1-0.3,0.1c-0.1,0-0.1,0-0.2,0.1c-0.1,0-0.2,0.1-0.3,0.1c-0.1,0-0.1,0-0.2,0.1
					c-0.1,0-0.2,0.1-0.3,0.1h-0.1c-0.4,0.1-0.9,0.2-1.3,0.3h-0.1c-0.1,0-0.2,0.1-0.3,0.1c-0.1,0-0.1,0-0.2,0.1
					c-0.1,0-0.2,0.1-0.3,0.1c-0.1,0-0.1,0-0.2,0.1c-0.1,0-0.2,0.1-0.3,0.1c-0.1,0-0.1,0-0.2,0.1c-0.1,0-0.2,0.1-0.3,0.1
					c-0.1,0-0.1,0-0.2,0.1c-0.1,0-0.2,0.1-0.3,0.1c-0.1,0-0.1,0-0.2,0.1c-0.1,0-0.2,0.1-0.3,0.1c-0.1,0-0.1,0-0.2,0.1
					c-0.1,0-0.2,0.1-0.3,0.1c-0.1,0-0.1,0-0.2,0.1c-0.1,0-0.2,0.1-0.3,0.1h-0.1c-0.4,0.1-0.9,0.3-1.3,0.4c0,0,0,0-0.1,0
					s-0.3,0.1-0.4,0.1s-0.1,0-0.2,0s-0.2,0.1-0.3,0.1c-0.1,0-0.1,0-0.2,0.1c-0.1,0-0.2,0.1-0.3,0.1c-0.1,0-0.1,0-0.2,0.1
					c-0.1,0-0.2,0.1-0.3,0.1c-0.1,0-0.1,0-0.2,0.1c-0.1,0-0.2,0.1-0.3,0.1c-0.1,0-0.1,0-0.2,0.1c-0.1,0-0.2,0.1-0.3,0.1
					c-0.1,0-0.2,0-0.2,0.1c-0.1,0-0.2,0.1-0.3,0.1c-0.1,0-0.1,0-0.2,0.1c-0.1,0-0.2,0.1-0.3,0.1c-0.1,0-0.1,0-0.2,0.1
					c-0.6,0.2-1.1,0.4-1.7,0.6c-0.1,0-0.1,0-0.1,0c-0.1,0.1-0.3,0.1-0.4,0.1h-0.1c-0.1,0-0.3,0.1-0.4,0.1s-0.1,0-0.2,0.1
					s-0.2,0.1-0.3,0.1c-0.1,0-0.1,0-0.2,0.1c-0.1,0-0.2,0.1-0.3,0.1c-0.1,0-0.1,0-0.2,0.1c-0.1,0-0.2,0.1-0.3,0.1
					c-0.1,0-0.1,0-0.2,0.1c-0.1,0-0.2,0.1-0.4,0.1c-0.1,0-0.1,0-0.2,0.1c-0.1,0-0.2,0.1-0.3,0.1c-0.1,0-0.1,0.1-0.2,0.1
					s-0.2,0.1-0.3,0.1h-0.1c-0.4,0.2-0.9,0.3-1.3,0.5l0,0c-0.1,0-0.3,0.1-0.4,0.1s-0.1,0-0.1,0.1c-0.1,0-0.3,0.1-0.4,0.1
					c0,0-0.1,0-0.1,0.1c-0.1,0-0.2,0.1-0.4,0.1c0,0-0.1,0-0.1,0.1c-0.1,0-0.2,0.1-0.3,0.1c-0.1,0-0.1,0-0.2,0.1
					c-0.1,0-0.2,0.1-0.3,0.1c-0.1,0-0.1,0-0.2,0.1c-0.1,0-0.2,0.1-0.3,0.1c-0.1,0-0.1,0-0.2,0.1c-0.1,0-0.2,0.1-0.3,0.1
					c0,0-0.1,0-0.1,0.1c-0.1,0-0.2,0.1-0.4,0.1c0,0,0,0-0.1,0c-0.5,0.2-0.9,0.4-1.4,0.6l0,0c-0.1,0.1-0.3,0.1-0.4,0.2h-0.1
					c-0.1,0.1-0.2,0.1-0.3,0.2c-0.1,0-0.1,0-0.2,0.1s-0.2,0.1-0.3,0.1c-0.1,0-0.1,0-0.2,0.1s-0.2,0.1-0.3,0.1c-0.1,0-0.1,0-0.2,0.1
					c-0.1,0-0.2,0.1-0.3,0.1c-0.1,0-0.1,0.1-0.2,0.1s-0.2,0.1-0.3,0.1c-0.1,0-0.1,0-0.2,0.1s-0.2,0.1-0.3,0.1c0,0-0.1,0-0.1,0.1
					c-0.1,0.1-0.2,0.1-0.4,0.2c0,0-0.1,0-0.1,0.1c-0.6,0.3-1.2,0.5-1.8,0.8c-0.1,0.1-0.3,0.1-0.4,0.2h-0.1c-0.1,0.1-0.2,0.1-0.4,0.2
					c0,0-0.1,0-0.1,0.1c-0.1,0.1-0.2,0.1-0.3,0.2c0,0-0.1,0-0.1,0.1c-0.1,0.1-0.2,0.1-0.3,0.2c-0.1,0-0.1,0.1-0.2,0.1
					s-0.2,0.1-0.3,0.2c-0.1,0-0.1,0.1-0.2,0.1s-0.2,0.1-0.3,0.1c-0.1,0-0.1,0.1-0.2,0.1s-0.2,0.1-0.3,0.1l-0.1,0.1
					c-0.1,0.1-0.2,0.1-0.3,0.2c-0.1,0-0.1,0.1-0.2,0.1c-0.4,0.2-0.8,0.4-1.2,0.6h-0.1c-0.1,0.1-0.2,0.1-0.3,0.2
					c-0.1,0-0.1,0.1-0.2,0.1c-0.1,0.1-0.2,0.1-0.3,0.1c-0.1,0-0.1,0.1-0.2,0.1s-0.2,0.1-0.3,0.1c-0.1,0-0.2,0.1-0.2,0.1
					c-0.1,0-0.2,0.1-0.2,0.1c-0.1,0-0.1,0.1-0.2,0.1c-0.1,0.1-0.2,0.1-0.3,0.1c-0.1,0-0.1,0.1-0.2,0.1c-0.1,0.1-0.2,0.1-0.3,0.1
					c-0.1,0-0.1,0.1-0.2,0.1s-0.2,0.1-0.3,0.1c-0.1,0-0.2,0.1-0.2,0.1c-0.1,0-0.2,0.1-0.3,0.1c-0.1,0-0.2,0.1-0.2,0.1
					c-0.1,0-0.2,0.1-0.2,0.1c-0.1,0.1-0.2,0.1-0.3,0.2c-0.1,0.1-0.2,0.1-0.3,0.2c-0.1,0.1-0.2,0.1-0.3,0.2c-0.1,0-0.1,0.1-0.2,0.1
					c-0.1,0.1-0.2,0.1-0.3,0.1c-0.1,0-0.1,0.1-0.2,0.1s-0.2,0.1-0.3,0.1c-0.1,0-0.1,0.1-0.2,0.1c-0.1,0.1-0.2,0.1-0.3,0.2
					c-0.1,0-0.1,0.1-0.2,0.1c-0.1,0.1-0.2,0.1-0.3,0.2c-0.1,0-0.1,0.1-0.2,0.1c-0.1,0.1-0.2,0.1-0.3,0.2c-0.1,0-0.1,0.1-0.2,0.1
					c-0.1,0.1-0.2,0.1-0.3,0.2c-0.1,0-0.1,0.1-0.2,0.1c-0.1,0.1-0.2,0.1-0.3,0.2c-0.1,0-0.1,0.1-0.2,0.1c-0.1,0.1-0.3,0.2-0.4,0.2
					c0,0-0.1,0-0.1,0.1c-0.3,0.2-0.6,0.4-1,0.6l0,0c-0.1,0.1-0.3,0.2-0.4,0.3h-0.1c-0.1,0.1-0.3,0.2-0.4,0.2h-0.1
					c-0.1,0.1-0.3,0.2-0.4,0.2c0,0-0.1,0-0.1,0.1c-0.1,0.1-0.3,0.1-0.4,0.2c0,0-0.1,0-0.1,0.1c-0.1,0.1-0.3,0.2-0.4,0.2
					c0,0,0,0-0.1,0c-0.1,0.1-0.3,0.2-0.4,0.3l0,0c-15.1,9.2-28.6,20.7-40.1,33.9c25.8,29.7,41.4,68.3,41.4,110.6
					c0,42.2-15.6,80.9-41.4,110.5c0.1,0.2,0.3,0.3,0.4,0.5s0.3,0.3,0.4,0.5l0,0c0.3,0.3,0.5,0.6,0.8,0.9l0.1,0.1
					c0.1,0.1,0.2,0.2,0.3,0.3c0.1,0.1,0.1,0.1,0.2,0.2s0.1,0.1,0.2,0.2s0.1,0.1,0.2,0.2s0.1,0.1,0.2,0.2c0.2,0.2,0.4,0.4,0.5,0.6
					l0,0c0.1,0.1,0.2,0.2,0.3,0.3l0.1,0.1c0.1,0.1,0.2,0.2,0.3,0.3l0.1,0.1c0.1,0.1,0.2,0.2,0.3,0.3l0,0c1,1.1,2.1,2.2,3.2,3.3l0,0
					c1.2,1.2,2.4,2.4,3.6,3.6l0,0c0.6,0.6,1.2,1.2,1.8,1.7l0,0c0.1,0.1,0.2,0.2,0.3,0.3l0.1,0.1c0.1,0.1,0.2,0.2,0.3,0.3l0,0
					c-4.9-4.4-9.5-9.2-13.8-14.2c39.5-40.1,73.3-53.8,136.4-53.8c41.9,0,92.4,18.3,128.2,46.4c-23.5,30.4-57.2,52.7-96,61.8
					c23.3-5.5,44.8-15.7,63.3-29.6l0,0c0.7-0.5,1.4-1,2.1-1.6c0,0,0,0,0.1,0c0.2-0.2,0.4-0.3,0.7-0.5l0,0c0.4-0.3,0.9-0.7,1.3-1
					c0,0,0,0,0.1,0c0.2-0.2,0.4-0.3,0.6-0.5c0,0,0.1,0,0.1-0.1c0.2-0.2,0.4-0.3,0.6-0.5l0,0c0.2-0.2,0.4-0.4,0.7-0.5l0,0
					c0.2-0.2,0.4-0.3,0.6-0.5l0.1-0.1c0.2-0.2,0.4-0.3,0.6-0.5c0,0,0.1,0,0.1-0.1c0.2-0.2,0.4-0.4,0.6-0.5c0.2-0.2,0.4-0.4,0.6-0.5
					c0,0,0,0,0.1-0.1c0.2-0.2,0.4-0.3,0.6-0.5l0.1-0.1c0.2-0.2,0.4-0.3,0.6-0.5c0,0,0,0,0.1,0c0.2-0.2,0.4-0.3,0.6-0.5l0,0
					c0.2-0.2,0.4-0.3,0.6-0.5l0.1-0.1c0.2-0.2,0.4-0.3,0.6-0.5l0.1-0.1c0.2-0.2,0.4-0.3,0.6-0.5c0,0,0,0,0.1-0.1
					c0.2-0.2,0.4-0.3,0.5-0.5l0.1-0.1c0.2-0.2,0.4-0.3,0.5-0.5l0.1-0.1c0.2-0.2,0.4-0.3,0.5-0.5l0.1-0.1c0.2-0.2,0.4-0.3,0.5-0.5
					c0,0,0,0,0.1,0c0.2-0.2,0.4-0.3,0.5-0.5l0.1-0.1c0.2-0.2,0.4-0.3,0.5-0.5l0.1-0.1c0.2-0.2,0.4-0.3,0.5-0.5l0.1-0.1
					c0.2-0.2,0.3-0.3,0.5-0.5l0.1-0.1c0.2-0.2,0.3-0.3,0.5-0.5c0.1,0,0.1-0.1,0.2-0.1c0.2-0.2,0.3-0.3,0.5-0.5l0.1-0.1
					c0.2-0.2,0.3-0.3,0.5-0.5l0.1-0.1c0.2-0.2,0.3-0.3,0.5-0.5c0.1-0.1,0.1-0.1,0.2-0.2c0.2-0.2,0.3-0.3,0.5-0.5
					c0.1-0.1,0.1-0.1,0.2-0.2c0.2-0.2,0.3-0.3,0.5-0.5c0.1-0.1,0.1-0.1,0.2-0.2c0.1-0.1,0.3-0.3,0.4-0.4c0.1-0.1,0.1-0.1,0.1-0.2
					c0.2-0.2,0.3-0.3,0.5-0.5c0.1-0.1,0.1-0.1,0.2-0.2c0.2-0.2,0.3-0.3,0.5-0.5c0.1-0.1,0.1-0.1,0.2-0.2c0.1-0.2,0.3-0.3,0.4-0.5
					c0.1-0.1,0.1-0.1,0.2-0.2c0.1-0.1,0.3-0.3,0.4-0.4c0.1-0.1,0.1-0.1,0.2-0.2c0.1-0.2,0.3-0.3,0.4-0.5c0.1-0.1,0.1-0.1,0.2-0.2
					c0.1-0.2,0.3-0.3,0.4-0.5c0.1-0.1,0.1-0.1,0.2-0.2c0.1-0.1,0.2-0.3,0.4-0.4c0.1-0.1,0.1-0.1,0.2-0.2c0.1-0.2,0.3-0.3,0.4-0.5
					c0.1-0.1,0.1-0.1,0.2-0.2c0.1-0.2,0.3-0.3,0.4-0.5c0.1-0.1,0.1-0.2,0.2-0.2c0.1-0.1,0.2-0.3,0.4-0.4c0.1-0.1,0.1-0.2,0.2-0.3
					c0.1-0.1,0.2-0.3,0.3-0.4s0.1-0.1,0.2-0.2c0.1-0.2,0.3-0.3,0.4-0.5c0.1-0.1,0.1-0.2,0.2-0.2c0.1-0.2,0.3-0.3,0.4-0.5
					c0.1-0.1,0.1-0.1,0.2-0.2c0.1-0.1,0.2-0.3,0.3-0.4s0.2-0.2,0.2-0.3c0.1-0.1,0.2-0.3,0.3-0.4s0.1-0.2,0.2-0.2
					c0.1-0.2,0.3-0.3,0.4-0.5c0.1-0.1,0.1-0.2,0.2-0.2c0.1-0.2,0.2-0.3,0.4-0.5c0.1-0.1,0.1-0.2,0.2-0.2c0.1-0.1,0.2-0.3,0.3-0.4
					s0.1-0.1,0.2-0.2c0.1-0.2,0.3-0.3,0.4-0.5c0.1-0.1,0.1-0.2,0.2-0.2c0.1-0.2,0.3-0.3,0.4-0.5c0.1-0.1,0.1-0.2,0.2-0.2
					c0.1-0.1,0.2-0.3,0.3-0.4s0.1-0.2,0.2-0.3c0.1-0.1,0.2-0.3,0.3-0.4s0.1-0.2,0.2-0.2c0.1-0.2,0.2-0.3,0.4-0.5
					c0.1-0.1,0.1-0.2,0.2-0.3c0.1-0.1,0.2-0.3,0.3-0.4s0.2-0.2,0.2-0.3c0.1-0.1,0.2-0.2,0.2-0.4c0.1-0.1,0.2-0.2,0.2-0.3
					c0.1-0.1,0.2-0.3,0.3-0.4s0.1-0.2,0.2-0.3c0.1-0.2,0.2-0.3,0.4-0.5c0.1-0.1,0.1-0.2,0.2-0.3c0.1-0.1,0.2-0.3,0.3-0.4
					s0.2-0.2,0.2-0.3c0.1-0.1,0.2-0.2,0.3-0.4c0.1-0.1,0.1-0.2,0.2-0.3c0.1-0.2,0.2-0.3,0.3-0.5c0.1-0.1,0.1-0.2,0.2-0.3
					c0.1-0.1,0.2-0.3,0.3-0.4s0.2-0.2,0.2-0.4c0.1-0.1,0.2-0.2,0.2-0.4c0.1-0.1,0.2-0.2,0.2-0.4c0.1-0.1,0.2-0.3,0.3-0.4
					s0.1-0.2,0.2-0.3c0.1-0.2,0.2-0.3,0.3-0.5c0.1-0.1,0.1-0.2,0.2-0.3c0.1-0.1,0.2-0.3,0.3-0.4s0.2-0.2,0.2-0.4
					c0.1-0.1,0.2-0.3,0.3-0.4s0.1-0.2,0.2-0.3c0.1-0.2,0.2-0.3,0.3-0.5c0.1-0.1,0.1-0.2,0.2-0.3c0.1-0.1,0.2-0.3,0.3-0.4
					s0.1-0.2,0.2-0.3c0.1-0.1,0.2-0.2,0.2-0.4c0.1-0.1,0.2-0.2,0.2-0.4c0.1-0.1,0.2-0.3,0.3-0.4s0.1-0.2,0.2-0.3
					c0.1-0.2,0.2-0.3,0.3-0.5c0.1-0.1,0.1-0.2,0.2-0.3c0.1-0.1,0.2-0.2,0.2-0.4c0.1-0.1,0.2-0.3,0.3-0.4s0.1-0.2,0.2-0.4
					c0.1-0.1,0.1-0.2,0.2-0.3c0.1-0.2,0.2-0.3,0.3-0.5c0.1-0.1,0.1-0.2,0.2-0.3c0.1-0.2,0.2-0.3,0.3-0.5c0.1-0.1,0.1-0.2,0.2-0.3
					c0.1-0.1,0.1-0.2,0.2-0.3c0.1-0.2,0.2-0.3,0.3-0.5c0.1-0.1,0.1-0.2,0.2-0.3c0.1-0.1,0.1-0.2,0.2-0.3c0.1-0.2,0.2-0.3,0.3-0.5
					c0.1-0.1,0.1-0.2,0.2-0.3c0.1-0.1,0.2-0.3,0.2-0.4c0.1-0.1,0.1-0.3,0.2-0.4c0.1-0.1,0.1-0.2,0.2-0.4c0.1-0.1,0.1-0.3,0.2-0.4
					c0.1-0.2,0.2-0.3,0.2-0.4c0.1-0.1,0.1-0.2,0.2-0.3c0.1-0.2,0.2-0.4,0.3-0.5s0.1-0.2,0.2-0.3c0.1-0.1,0.1-0.2,0.2-0.4
					c0.1-0.1,0.1-0.3,0.2-0.4c0.1-0.1,0.1-0.3,0.2-0.4c0.1-0.1,0.1-0.2,0.2-0.3c0.1-0.2,0.2-0.3,0.3-0.5c0.1-0.1,0.1-0.2,0.2-0.3
					c0.1-0.1,0.2-0.3,0.2-0.4c0.1-0.1,0.1-0.3,0.2-0.4c0.1-0.1,0.1-0.3,0.2-0.4c0.1-0.1,0.1-0.3,0.2-0.4c0.1-0.1,0.2-0.3,0.2-0.4
					c0.1-0.1,0.1-0.2,0.2-0.3c0.1-0.2,0.2-0.4,0.3-0.5c0-0.1,0.1-0.2,0.1-0.3c0.1-0.1,0.1-0.3,0.2-0.4c0.1-0.1,0.1-0.3,0.2-0.4
					c0.1-0.1,0.1-0.3,0.2-0.4c0.1-0.1,0.1-0.2,0.2-0.3c0.1-0.2,0.2-0.4,0.2-0.5c0.1-0.1,0.1-0.2,0.1-0.3c0.1-0.2,0.2-0.4,0.2-0.5
					c0.1-0.1,0.1-0.2,0.1-0.3c0.1-0.1,0.1-0.3,0.2-0.4c0.1-0.1,0.1-0.2,0.2-0.4c0.1-0.2,0.1-0.3,0.2-0.5c0-0.1,0.1-0.2,0.1-0.3
					c0.1-0.2,0.2-0.4,0.3-0.6c0-0.1,0.1-0.2,0.1-0.3c0.1-0.2,0.2-0.3,0.2-0.5c0.1-0.1,0.1-0.2,0.1-0.3c0.1-0.2,0.1-0.3,0.2-0.5
					c0-0.1,0.1-0.2,0.1-0.3c0.1-0.2,0.2-0.4,0.2-0.6c0-0.1,0.1-0.2,0.1-0.3c0.1-0.2,0.2-0.4,0.2-0.6c0-0.1,0.1-0.2,0.1-0.3
					c0.1-0.2,0.1-0.3,0.2-0.5c0.1-0.1,0.1-0.2,0.1-0.3c0.1-0.2,0.1-0.3,0.2-0.5c0-0.1,0.1-0.2,0.1-0.3c0.1-0.2,0.2-0.4,0.2-0.6
					c0-0.1,0.1-0.2,0.1-0.3c0.1-0.2,0.1-0.4,0.2-0.5c0-0.1,0.1-0.2,0.1-0.3c0.1-0.2,0.1-0.3,0.2-0.5c0-0.1,0.1-0.2,0.1-0.3
					c0.1-0.2,0.1-0.4,0.2-0.6c0-0.1,0.1-0.2,0.1-0.3c0.1-0.2,0.2-0.4,0.2-0.6c0-0.1,0.1-0.2,0.1-0.3c0.1-0.2,0.1-0.3,0.2-0.5
					c0-0.1,0.1-0.3,0.1-0.4c0.1-0.2,0.1-0.3,0.2-0.5c0-0.1,0.1-0.2,0.1-0.3c0.1-0.2,0.1-0.4,0.2-0.6c0-0.1,0.1-0.2,0.1-0.3
					c0.1-0.2,0.1-0.4,0.2-0.5c0-0.1,0.1-0.2,0.1-0.3c0.1-0.2,0.1-0.3,0.2-0.5c0-0.1,0.1-0.2,0.1-0.3c0.1-0.2,0.1-0.4,0.2-0.6
					c0-0.1,0.1-0.2,0.1-0.3c0.1-0.2,0.1-0.4,0.2-0.6c0-0.1,0.1-0.2,0.1-0.3c0.1-0.2,0.1-0.4,0.2-0.5c0-0.1,0.1-0.2,0.1-0.3
					c0.1-0.2,0.1-0.4,0.2-0.5c0-0.1,0.1-0.2,0.1-0.3c0.1-0.2,0.1-0.4,0.2-0.6c0-0.1,0.1-0.2,0.1-0.3c0.1-0.2,0.1-0.4,0.2-0.6
					c0-0.1,0.1-0.2,0.1-0.2c0.1-0.2,0.1-0.4,0.2-0.5c0-0.1,0-0.1,0.1-0.2c0.1-0.2,0.1-0.4,0.2-0.7c0-0.1,0.1-0.2,0.1-0.3
					c0.1-0.2,0.1-0.4,0.2-0.6c0-0.1,0.1-0.2,0.1-0.3c0.1-0.2,0.1-0.4,0.2-0.6c0-0.1,0.1-0.2,0.1-0.3c0.1-0.2,0.1-0.4,0.2-0.5
					c0-0.1,0-0.2,0.1-0.3c0.1-0.2,0.1-0.4,0.2-0.6c0-0.1,0-0.2,0.1-0.3c0.1-0.2,0.1-0.4,0.2-0.7c0-0.1,0-0.1,0.1-0.2
					c0.1-0.2,0.1-0.4,0.2-0.6c0-0.1,0-0.1,0.1-0.2c0.1-0.2,0.1-0.4,0.2-0.7c0-0.1,0-0.2,0.1-0.2c0.1-0.2,0.1-0.5,0.2-0.7
					c0-0.1,0-0.2,0.1-0.2c0.1-0.2,0.1-0.5,0.2-0.7c0-0.1,0-0.1,0-0.1c0.1-0.2,0.1-0.4,0.2-0.6c0-0.1,0-0.1,0.1-0.2
					c0.1-0.2,0.1-0.5,0.2-0.7c0-0.1,0-0.1,0.1-0.2c0.1-0.2,0.1-0.5,0.2-0.7c0-0.1,0-0.2,0.1-0.2c0-0.2,0.1-0.4,0.1-0.6
					c0-0.1,0-0.1,0-0.1c0.1-0.2,0.1-0.5,0.2-0.7c0-0.1,0-0.1,0.1-0.2c0.1-0.2,0.1-0.5,0.1-0.7c0-0.1,0-0.1,0-0.2
					c0.1-0.2,0.1-0.5,0.2-0.8v-0.1c0-0.2,0.1-0.4,0.1-0.7c0-0.1,0-0.1,0-0.2c0-0.3,0.1-0.5,0.1-0.7c0-0.1,0-0.1,0-0.2
					c0-0.2,0.1-0.5,0.1-0.7c0-0.1,0-0.1,0-0.2c0-0.2,0.1-0.4,0.1-0.6c0-0.1,0-0.1,0-0.2c0-0.2,0.1-0.4,0.1-0.7c0-0.1,0-0.2,0-0.2
					c0-0.2,0.1-0.5,0.1-0.7c0-0.1,0-0.1,0-0.2c0-0.2,0.1-0.5,0.1-0.7c0-0.1,0-0.1,0-0.2c0-0.2,0.1-0.5,0.1-0.7c0-0.1,0-0.1,0-0.2
					c0-0.2,0.1-0.5,0.1-0.8c0-0.1,0-0.1,0-0.2c0-0.2,0.1-0.5,0.1-0.7c0-0.1,0-0.1,0-0.2c0-0.2,0.1-0.5,0.1-0.7v-0.1
					c0-0.2,0.1-0.5,0.1-0.7c0-0.1,0-0.1,0-0.2c0-0.2,0.1-0.5,0.1-0.8c0-0.1,0-0.1,0-0.2c0-0.3,0.1-0.5,0.1-0.8c0-0.1,0-0.1,0-0.2
					c0-0.2,0.1-0.5,0.1-0.7v-0.1c0-0.3,0.1-0.5,0.1-0.8c0-0.1,0-0.1,0-0.2c0-0.3,0.1-0.5,0.1-0.8c0-0.1,0-0.1,0-0.2
					c0-0.3,0.1-0.5,0.1-0.8v-0.1c0-0.3,0-0.5,0.1-0.8c0-0.1,0-0.1,0-0.1c0-0.3,0-0.5,0.1-0.8c0-0.1,0-0.1,0-0.2c0-0.3,0-0.5,0.1-0.8
					c0-0.1,0-0.1,0-0.1c0-0.3,0-0.5,0.1-0.8v-0.1c0-0.3,0-0.5,0.1-0.8c0-0.1,0-0.1,0-0.2c0-0.3,0-0.5,0.1-0.8c0-0.1,0-0.1,0-0.2
					c0-0.3,0-0.5,0.1-0.8v-0.1c0-0.3,0-0.5,0-0.8v-0.1c0-0.3,0-0.5,0-0.8c0-0.1,0-0.1,0-0.2c0-0.3,0-0.5,0-0.8c0-0.1,0-0.1,0-0.2
					c0-0.3,0-0.5,0-0.8l0,0c0-0.3,0-0.5,0-0.8c0-0.1,0-0.1,0-0.2c0-0.3,0-0.5,0-0.8c0-0.1,0-0.1,0-0.2c0-0.3,0-0.5,0-0.8v-0.1
					c0-0.3,0-0.5,0-0.8v-0.1c0-0.3,0-0.5,0-0.8c0-0.1,0-0.1,0-0.2c0-0.3,0-0.5,0-0.8c0-0.1,0-0.1,0-0.2c0-0.3,0-0.6,0-0.8
					C609.6,80.4,533,4.4,438.9,4.4C437.4,4.2,437.2,4.2,437,4.2"/>
			</defs>
			<clipPath id="SVGID_00000000944958061924217640000016569228225974781830_">
				<use xlink:href="#SVGID_1_"  style="overflow:visible;"/>
			</clipPath>
			
				<linearGradient id="SVGID_00000065069672361861744740000003594662708860128151_" gradientUnits="userSpaceOnUse" x1="111.3533" y1="1144.5801" x2="117.6615" y2="1144.5801" gradientTransform="matrix(94.2087 0 0 94.2087 -10480.6504 -107657.8984)">
				<stop  offset="0" style="stop-color:#0096DF"/>
				<stop  offset="0.5" style="stop-color:#00A6E9"/>
				<stop  offset="1" style="stop-color:#0096DF"/>
			</linearGradient>
			
				<rect x="308.3" y="4.2" style="clip-path:url(#SVGID_00000000944958061924217640000016569228225974781830_);fill:url(#SVGID_00000065069672361861744740000003594662708860128151_);" width="300" height="334.6"/>
		</g>
	</g>
</g>
<g>
	<g>
		<g>
			<defs>
				<path id="SVGID_00000107546263906238482020000017631010791984667783_" d="M308.2,63c-0.1-0.1-0.2-0.2-0.3-0.3
					C308,62.8,308.1,62.9,308.2,63 M307.9,62.7c-0.1-0.1-0.3-0.3-0.4-0.4C307.6,62.4,307.8,62.6,307.9,62.7 M307.5,62.3
					c-0.1-0.1-0.2-0.2-0.3-0.4C307.3,62,307.4,62.1,307.5,62.3 M307.2,61.9L307.2,61.9L307.2,61.9 M179.6,4.2c-0.2,0-0.4,0-0.6,0
					C84.9,4.2,8.3,80.2,8.3,173.7c0,93.4,76.6,169.5,170.7,169.5c0.2,0,0.4,0,0.6,0c0.1,0,0.2,0,0.2,0c0.1,0,0.2,0,0.3,0
					s0.2,0,0.2,0c0.1,0,0.2,0,0.3,0s0.2,0,0.3,0s0.2,0,0.3,0s0.2,0,0.2,0c0.1,0,0.2,0,0.3,0s0.2,0,0.2,0c0.1,0,0.2,0,0.4,0
					c0.1,0,0.1,0,0.2,0c0.1,0,0.2,0,0.4,0c0.1,0,0.2,0,0.2,0c0.1,0,0.3,0,0.4,0c0.1,0,0.1,0,0.2,0c0.1,0,0.3,0,0.4,0
					c0.1,0,0.1,0,0.2,0c0.2,0,0.3,0,0.5,0h0.1c0.2,0,0.4,0,0.6,0c0.1,0,0.1,0,0.2,0c0.1,0,0.2,0,0.4,0c0.1,0,0.2,0,0.2,0
					c0.1,0,0.2,0,0.3,0s0.2,0,0.3,0s0.2,0,0.3,0s0.2,0,0.3,0s0.2,0,0.3,0s0.2,0,0.3,0s0.2,0,0.3,0s0.2,0,0.2,0c0.1,0,0.2,0,0.3,0
					s0.2,0,0.2,0c0.1,0,0.2,0,0.3,0s0.2,0,0.3,0s0.2,0,0.3,0s0.2,0,0.3,0s0.2,0,0.3,0s0.2,0,0.2,0c0.2,0,0.3,0,0.5,0
					c0.1,0,0.2,0,0.4,0c0.1,0,0.2,0,0.2,0c0.1,0,0.2,0,0.3,0s0.2,0,0.3,0s0.2,0,0.3,0s0.2,0,0.3,0s0.2,0,0.3,0s0.2,0,0.3,0
					s0.2,0,0.3,0s0.2,0,0.3,0s0.2,0,0.3,0s0.2,0,0.2,0c0.1,0,0.2,0,0.3,0s0.2,0,0.2,0c0.1,0,0.2,0,0.3,0s0.1,0,0.2,0
					c0.1,0,0.2,0,0.4,0h0.1c0.5,0,1-0.1,1.5-0.2h0.1c0.1,0,0.3,0,0.4-0.1h0.1c0.1,0,0.3,0,0.4,0c0.1,0,0.1,0,0.2,0
					c0.1,0,0.3,0,0.4-0.1c0.1,0,0.1,0,0.2,0c0.1,0,0.3,0,0.4-0.1c0.1,0,0.1,0,0.2,0c0.1,0,0.3,0,0.4-0.1c0.1,0,0.1,0,0.1,0
					c0.1,0,0.3,0,0.4-0.1h0.1c0.1,0,0.3,0,0.4-0.1c0,0,0,0,0.1,0c1.2-0.2,2.4-0.3,3.6-0.5l0,0c0.2,0,0.3-0.1,0.5-0.1c0,0,0,0,0.1,0
					c0.2,0,0.3-0.1,0.5-0.1h0.1c0.2,0,0.3-0.1,0.5-0.1l0,0c0.2,0,0.3-0.1,0.5-0.1l0,0c74.6-12.6,132.9-73.3,141.1-148.7l0,0
					c0-0.2,0-0.3,0.1-0.5c0,0,0,0,0-0.1c0-0.2,0-0.3,0.1-0.5v-0.1c0-0.2,0-0.3,0-0.5c0,0,0,0,0-0.1c0-0.2,0-0.3,0.1-0.5l0,0
					c0.1-0.7,0.1-1.4,0.2-2.1v-0.1c0-0.1,0-0.3,0-0.4v-0.1c0-0.1,0-0.3,0-0.4s0-0.1,0-0.2s0-0.3,0-0.4s0-0.1,0-0.1
					c0-0.1,0-0.3,0-0.4s0-0.1,0-0.1c0-0.1,0-0.3,0-0.4v-0.1c0-0.1,0-0.3,0-0.4v-0.1c0-0.5,0.1-1,0.1-1.6v-0.1c0-0.1,0-0.3,0-0.4
					s0-0.1,0-0.2s0-0.2,0-0.3s0-0.1,0-0.2s0-0.2,0-0.4c0-0.1,0-0.1,0-0.2s0-0.2,0-0.3s0-0.1,0-0.2s0-0.2,0-0.3s0-0.2,0-0.2
					c0-0.1,0-0.2,0-0.3s0-0.1,0-0.2s0-0.3,0-0.4s0-0.1,0-0.2c0-0.2,0-0.3,0-0.5v-0.1c0-0.1,0-0.3,0-0.4s0-0.1,0-0.2s0-0.2,0-0.3
					s0-0.1,0-0.2s0-0.2,0-0.3s0-0.1,0-0.2s0-0.2,0-0.3s0-0.1,0-0.2s0-0.2,0-0.3s0-0.2,0-0.2c0-0.1,0-0.2,0-0.3s0-0.1,0-0.2
					s0-0.2,0-0.3s0-0.1,0-0.2s0-0.3,0-0.4V175c0-0.2,0-0.3,0-0.5s0-0.4,0-0.5v-0.1c0-0.1,0-0.3,0-0.4s0-0.1,0-0.2s0-0.2,0-0.3
					s0-0.1,0-0.2s0-0.2,0-0.3s0-0.1,0-0.2s0-0.2,0-0.3s0-0.1,0-0.2s0-0.2,0-0.3s0-0.1,0-0.2s0-0.2,0-0.3s0-0.1,0-0.2s0-0.2,0-0.3
					s0-0.2,0-0.2c0-0.2,0-0.3,0-0.5l0,0c0-0.2,0-0.4,0-0.5v-0.1c0-0.1,0-0.3,0-0.4v-0.1c0-0.1,0-0.2,0-0.4c0-0.1,0-0.1,0-0.2
					s0-0.2,0-0.3s0-0.1,0-0.2s0-0.2,0-0.4c0-0.1,0-0.1,0-0.1c0-0.1,0-0.3,0-0.4v-0.1c0-0.1,0-0.2,0-0.4c0-0.1,0-0.1,0-0.2
					c0-0.2,0-0.3,0-0.4v-0.1c0-0.5-0.1-1.1-0.1-1.6l0,0c0-0.2,0-0.4,0-0.5l0,0c0-0.2,0-0.3,0-0.5v-0.1c0-0.2,0-0.3,0-0.5
					c0,0,0,0,0-0.1s0-0.3,0-0.5v-0.1c0-0.2,0-0.3,0-0.5l0,0c-3-36.9-17.9-70.5-40.9-97C268.8,103.3,235,117,171.9,117
					C130,117,79.5,98.7,43.7,70.6C74.9,30.3,124,4.3,179,4.3c51,0,96.8,22.3,128.2,57.6c-20.2-22.8-46.5-40.2-76.4-49.7
					c0,0,0,0-0.1,0c-0.2,0-0.3-0.1-0.5-0.2l0,0c-0.1-0.1-0.3-0.1-0.4-0.1h-0.1c-0.1,0-0.3-0.1-0.4-0.1l0,0c-0.2-0.1-0.3-0.1-0.5-0.1
					c-1-0.3-2-0.6-3-0.9l0,0c-0.2,0-0.3-0.1-0.5-0.1h-0.1c-0.2,0-0.3-0.1-0.4-0.1h-0.1c-0.1,0-0.3-0.1-0.4-0.1h-0.1
					c-0.1,0-0.3-0.1-0.4-0.1h-0.1c-0.1,0-0.3-0.1-0.4-0.1h-0.1c-0.1,0-0.3-0.1-0.4-0.1h-0.1c-0.8-0.2-1.6-0.4-2.4-0.6h-0.1
					c-0.1,0-0.2-0.1-0.4-0.1c-0.1,0-0.1,0-0.2,0c-0.1,0-0.3-0.1-0.4-0.1c-0.1,0-0.1,0-0.2,0c-0.1,0-0.2-0.1-0.4-0.1
					c-0.1,0-0.1,0-0.2,0c-0.1,0-0.2-0.1-0.4-0.1c-0.1,0-0.1,0-0.2,0c-0.1,0-0.2-0.1-0.4-0.1c-0.1,0-0.1,0-0.2,0
					c-0.1,0-0.2-0.1-0.4-0.1h-0.1c-0.1,0-0.3-0.1-0.4-0.1c0,0,0,0-0.1,0c-0.4-0.1-0.9-0.2-1.3-0.3c-0.1,0-0.1,0-0.2,0
					c-0.1,0-0.2,0-0.3-0.1c-0.1,0-0.1,0-0.2,0c-0.1,0-0.2,0-0.3-0.1c-0.1,0-0.2,0-0.3-0.1c-0.1,0-0.2,0-0.2-0.1
					c-0.1,0-0.2,0-0.3-0.1c-0.1,0-0.2,0-0.3-0.1c-0.1,0-0.2,0-0.3-0.1c-0.1,0-0.2,0-0.3-0.1c-0.1,0-0.2,0-0.2,0
					c-0.1,0-0.2,0-0.3-0.1c-0.1,0-0.2,0-0.2-0.1c-0.1,0-0.2,0-0.3-0.1c-0.1,0-0.2,0-0.3-0.1c-0.1,0-0.2,0-0.3-0.1
					c-0.1,0-0.2,0-0.3-0.1c-0.1,0-0.2,0-0.3-0.1c-0.1,0-0.2,0-0.3-0.1c-0.1,0-0.3-0.1-0.4-0.1c-0.1,0-0.2,0-0.4-0.1
					c-0.1,0-0.2,0-0.2,0c-0.1,0-0.2,0-0.3-0.1c-0.1,0-0.2,0-0.3-0.1c-0.1,0-0.2,0-0.2,0c-0.1,0-0.2,0-0.3-0.1c-0.1,0-0.2,0-0.2,0
					c-0.1,0-0.2,0-0.3-0.1c-0.1,0-0.2,0-0.3,0s-0.2,0-0.3-0.1c-0.1,0-0.2,0-0.3,0s-0.2,0-0.3,0s-0.2,0-0.3-0.1c-0.1,0-0.2,0-0.3,0
					s-0.2,0-0.3-0.1c-0.1,0-0.2,0-0.2,0c-0.1,0-0.2,0-0.4-0.1c-0.1,0-0.1,0-0.2,0c-0.1,0-0.2,0-0.3-0.1c-0.1,0-0.1,0-0.2,0
					c-0.1,0-0.2,0-0.4-0.1c-0.2,0-0.3,0-0.5-0.1c-0.1,0-0.2,0-0.3,0s-0.2,0-0.3,0s-0.2,0-0.3,0s-0.2,0-0.3,0s-0.2,0-0.3,0
					s-0.2,0-0.3,0s-0.2,0-0.3,0s-0.1,0-0.2,0c-0.1,0-0.2,0-0.3,0s-0.2,0-0.2,0c-0.1,0-0.2,0-0.3,0s-0.2,0-0.2,0c-0.1,0-0.2,0-0.3,0
					s-0.2,0-0.2,0c-0.1,0-0.2,0-0.3,0s-0.2,0-0.2,0c-0.1,0-0.2,0-0.3,0s-0.2,0-0.3,0c-0.2,0-0.4,0-0.5-0.1l0,0c-0.2,0-0.4,0-0.5-0.1
					h-0.1c-0.2,0-0.3,0-0.4-0.1h-0.1c-0.1,0-0.3,0-0.4,0c-0.1,0-0.2,0-0.2,0c-0.1,0-0.2,0-0.3,0s-0.2,0-0.2,0c-0.1,0-0.2,0-0.3,0
					s-0.2,0-0.2,0c-0.1,0-0.2,0-0.3,0s-0.1,0-0.2,0c-0.1,0-0.2,0-0.3,0s-0.2,0-0.3,0s-0.2,0-0.3,0s-0.2,0-0.2,0c-0.1,0-0.2,0-0.4,0
					c-0.1,0-0.1,0-0.2,0c-0.1,0-0.3,0-0.4,0H192c-0.2,0-0.4,0-0.6,0c-0.1,0-0.1,0-0.2,0c-0.1,0-0.3,0-0.4,0c-0.1,0-0.1,0-0.2,0
					c-0.1,0-0.3,0-0.4,0c-0.1,0-0.2,0-0.2,0c-0.1,0-0.2,0-0.3,0s-0.2,0-0.2,0c-0.1,0-0.2,0-0.3,0s-0.2,0-0.3,0s-0.2,0-0.3,0
					s-0.2,0-0.2,0c-0.1,0-0.2,0-0.3,0s-0.2,0-0.3,0s-0.2,0-0.3,0s-0.2,0-0.3,0s-0.2,0-0.3,0s-0.2,0-0.3,0s-0.2,0-0.3,0s-0.1,0-0.2,0
					c-0.2,0-0.3,0-0.5,0c-0.1,0-0.2,0-0.3,0s-0.2,0-0.4,0c-0.1,0-0.1,0-0.2,0c-0.1,0-0.2,0-0.4,0c-0.1,0-0.2,0-0.2,0
					c-0.1,0-0.2,0-0.4,0c-0.1,0-0.1,0-0.2,0c-0.1,0-0.3,0-0.4,0c-0.1,0-0.1,0-0.2,0c-0.1,0-0.2,0-0.4,0c-0.1,0-0.2,0-0.2,0
					c-0.1,0-0.2,0-0.3,0s-0.2,0-0.3,0s-0.2,0-0.3,0s-0.2,0-0.2,0c-0.1,0-0.2,0-0.3,0s-0.2,0-0.3,0s-0.2,0-0.3,0
					C179.7,4.2,179.7,4.2,179.6,4.2"/>
			</defs>
			<clipPath id="SVGID_00000096754507390980517700000005291901292645235619_">
				<use xlink:href="#SVGID_00000107546263906238482020000017631010791984667783_"  style="overflow:visible;"/>
			</clipPath>
			
				<linearGradient id="SVGID_00000081621931588493311760000013899829706917346964_" gradientUnits="userSpaceOnUse" x1="111.3534" y1="1144.6033" x2="117.6616" y2="1144.6033" gradientTransform="matrix(94.2079 0 0 94.2079 -10480.5527 -107657.0234)">
				<stop  offset="0" style="stop-color:#0096DF"/>
				<stop  offset="0.4956" style="stop-color:#00A6E9"/>
				<stop  offset="1" style="stop-color:#0096DF"/>
			</linearGradient>
			
				<rect x="8.3" y="4.2" style="clip-path:url(#SVGID_00000096754507390980517700000005291901292645235619_);fill:url(#SVGID_00000081621931588493311760000013899829706917346964_);" width="341.4" height="338.9"/>
		</g>
	</g>
</g>
<g>
	<g>
		<g>
			<defs>
				<path id="SVGID_00000057834986121933775330000008257376788686389657_" d="M436.2,343.2c0.1,0,0.2,0,0.2,0
					C436.4,343.2,436.3,343.2,436.2,343.2 M436.4,343.2c0.1,0,0.1,0,0.1,0S436.5,343.2,436.4,343.2 M438.6,343.2c0.1,0,0.1,0,0.2,0
					C438.7,343.2,438.7,343.2,438.6,343.2 M438.8,343.2c0.1,0,0.1,0,0.2,0C438.9,343.2,438.9,343.2,438.8,343.2 M435.6,343.2h0.1
					C435.7,343.2,435.7,343.2,435.6,343.2 M439.3,343.2C439.3,343.2,439.4,343.2,439.3,343.2C439.4,343.2,439.3,343.2,439.3,343.2
					 M439.4,343.2c0.1,0,0.1,0,0.2,0C439.5,343.2,439.4,343.2,439.4,343.2 M435.4,343.2c-0.1,0-0.2,0-0.3,0
					C435.2,343.2,435.3,343.2,435.4,343.2 M439.8,343.2L439.8,343.2c0,0,0.1,0,0.2,0C439.9,343.2,439.9,343.2,439.8,343.2
					 M440,343.2L440,343.2L440,343.2 M434.8,343.2h0.1C434.9,343.2,434.9,343.2,434.8,343.2 M440.1,343.2
					C440.2,343.2,440.2,343.2,440.1,343.2C440.2,343.2,440.2,343.2,440.1,343.2 M440.2,343.2c0.1,0,0.2,0,0.4,0
					C440.5,343.2,440.3,343.2,440.2,343.2 M440.6,343.1h0.1H440.6 M434.3,343.1C434.3,343.1,434.2,343.1,434.3,343.1
					C434.2,343.1,434.3,343.1,434.3,343.1 M434.2,343.1c-0.1,0-0.2,0-0.3,0C434,343.1,434.1,343.1,434.2,343.1 M441,343.1
					c0.1,0,0.1,0,0.2,0C441.1,343.1,441.1,343.1,441,343.1 M441.2,343.1c0.1,0,0.2,0,0.2,0C441.4,343.1,441.3,343.1,441.2,343.1
					 M441.4,343.1c0.1,0,0.1,0,0.1,0S441.5,343.1,441.4,343.1 M441.8,343.1L441.8,343.1L441.8,343.1z M441.8,343.1L441.8,343.1
					L441.8,343.1 M433.3,343.1L433.3,343.1L433.3,343.1L433.3,343.1 M433.3,343.1c-0.1,0-0.1,0-0.2,0
					C433.2,343.1,433.3,343.1,433.3,343.1 M441.9,343.1L441.9,343.1h0.1H441.9 M433.1,343.1L433.1,343.1h0.1
					C433.1,343.1,433.1,343.1,433.1,343.1C433,343.1,433,343.1,433.1,343.1 M433,343.1L433,343.1L433,343.1 M433,343.1
					c-0.1,0-0.2,0-0.3,0C432.8,343.1,432.9,343.1,433,343.1 M442,343.1c0.1,0,0.2,0,0.4,0C442.3,343.1,442.2,343.1,442,343.1
					 M442.4,343.1L442.4,343.1L442.4,343.1 M442.6,343.1L442.6,343.1L442.6,343.1 M442.6,343.1C442.6,343.1,442.7,343.1,442.6,343.1
					C442.7,343.1,442.6,343.1,442.6,343.1 M432.5,343.1L432.5,343.1C432.5,343.1,432.4,343.1,432.5,343.1
					C432.4,343.1,432.4,343.1,432.5,343.1 M432.4,343.1L432.4,343.1L432.4,343.1L432.4,343.1 M443,343.1L443,343.1L443,343.1
					 M443,343.1L443,343.1L443,343.1 M443.1,343.1C443.2,343.1,443.2,343.1,443.1,343.1C443.2,343.1,443.2,343.1,443.1,343.1
					 M432,343.1L432,343.1c-0.1,0-0.2,0-0.3,0C431.8,343.1,431.9,343.1,432,343.1 M431.7,343.1c-0.1,0-0.2,0-0.2,0
					S431.6,343.1,431.7,343.1 M443.3,343.1c0.1,0,0.2,0,0.4,0C443.5,343.1,443.4,343.1,443.3,343.1 M443.6,343.1c0.1,0,0.1,0,0.2,0
					C443.8,343.1,443.7,343.1,443.6,343.1 M443.8,343.1c0.2,0,0.3,0,0.5,0C444.1,343.1,444,343.1,443.8,343.1 M444.3,343
					c0.1,0,0.1,0,0.1,0H444.3 M430.7,343c-0.1,0-0.2,0-0.2,0S430.6,343,430.7,343 M444.4,343c0.1,0,0.3,0,0.4,0
					C444.7,343,444.5,343,444.4,343 M430.4,343c-0.1,0-0.1,0-0.2,0C430.3,343,430.4,343,430.4,343 M445,343L445,343L445,343L445,343
					 M445,343h0.1H445 M429.5,343c-0.1,0-0.2,0-0.3,0C429.3,343,429.4,343,429.5,343 M428.5,342.9L428.5,342.9L428.5,342.9
					 M428.5,342.9L428.5,342.9h-0.1C428.5,342.9,428.5,342.9,428.5,342.9 M428.4,342.9h-0.1H428.4 M428.3,342.9c-0.1,0-0.2,0-0.2,0
					C428.2,342.9,428.2,342.9,428.3,342.9 M427.5,342.9L427.5,342.9L427.5,342.9L427.5,342.9 M427,342.9
					C427,342.9,427.1,342.9,427,342.9C427.1,342.9,427,342.9,427,342.9 M427.5,342.9c-0.1,0-0.2,0-0.4,0
					C427.2,342.9,427.3,342.9,427.5,342.9 M426.7,342.8L426.7,342.8L426.7,342.8 M426.6,342.8L426.6,342.8L426.6,342.8 M426.1,342.8
					C426,342.8,426,342.8,426.1,342.8C426,342.8,426,342.8,426.1,342.8 M425.6,342.8h-0.1H425.6 M425.2,342.7c-0.1,0-0.2,0-0.2,0
					S425.1,342.7,425.2,342.7 M425,342.7C424.9,342.7,424.9,342.7,425,342.7C424.9,342.7,424.9,342.7,425,342.7 M424.6,342.7
					L424.6,342.7L424.6,342.7 M424.6,342.7c-0.2,0-0.3,0-0.4,0C424.3,342.7,424.4,342.7,424.6,342.7 M424.1,342.7H424
					C424,342.6,424.1,342.6,424.1,342.7 M423.5,342.6c-0.1,0-0.2,0-0.3,0C423.4,342.6,423.5,342.6,423.5,342.6 M423.1,342.6
					c0.1,0,0.1,0,0.2,0C423.2,342.6,423.2,342.6,423.1,342.6L423.1,342.6z M422.8,342.5L422.8,342.5
					C422.7,342.5,422.7,342.5,422.8,342.5C422.7,342.5,422.8,342.5,422.8,342.5 M422.7,342.5L422.7,342.5L422.7,342.5 M422.6,342.5
					L422.6,342.5L422.6,342.5L422.6,342.5 M421.4,342.4c-0.1,0-0.1,0-0.2,0C421.3,342.4,421.4,342.4,421.4,342.4 M421.2,342.4
					L421.2,342.4L421.2,342.4 M421.1,342.4L421.1,342.4L421.1,342.4L421.1,342.4 M421.1,342.4C421.1,342.4,421,342.4,421.1,342.4
					c-0.1,0-0.1,0-0.1,0S421,342.4,421.1,342.4 M421,342.4c-0.1,0-0.1,0-0.2,0C420.8,342.4,420.9,342.4,421,342.4 M420.8,342.4
					c-0.1,0-0.2,0-0.3,0C420.5,342.3,420.7,342.3,420.8,342.4 M420.3,342.3h0.1C420.4,342.3,420.4,342.3,420.3,342.3L420.3,342.3
					 M454.6,342.3c0.1,0,0.2,0,0.4,0C454.9,342.3,454.8,342.3,454.6,342.3 M419.3,342.2c-0.1,0-0.1,0-0.2,0
					C419.2,342.2,419.2,342.2,419.3,342.2 M455.4,342.3c0.3,0,0.5-0.1,0.8-0.1C455.9,342.2,455.6,342.2,455.4,342.3 M419.1,342.2
					c-0.1,0-0.2,0-0.3,0C418.9,342.2,419,342.2,419.1,342.2 M418.8,342.2L418.8,342.2L418.8,342.2 M418.6,342.1c-0.1,0-0.2,0-0.3,0
					C418.4,342.1,418.5,342.1,418.6,342.1 M418.3,342.1C418.3,342.1,418.2,342.1,418.3,342.1C418.2,342.1,418.3,342.1,418.3,342.1
					 M456.4,342.2c0.3,0,0.5-0.1,0.8-0.1C456.9,342.1,456.6,342.1,456.4,342.2 M417.8,342c-0.1,0-0.2,0-0.3,0
					C417.6,342,417.7,342,417.8,342 M417.2,342C417.2,342,417.1,342,417.2,342C417.1,342,417.2,342,417.2,342 M417.1,342L417.1,342
					L417.1,342 M457.2,342.1c0.3,0,0.6-0.1,0.9-0.1C457.8,342,457.5,342,457.2,342.1 M458.2,341.9c0.2,0,0.4,0,0.6-0.1
					C458.5,341.9,458.3,341.9,458.2,341.9 M458.7,341.9h0.1C458.8,341.9,458.8,341.9,458.7,341.9 M416.4,341.9
					C416.4,341.9,416.3,341.9,416.4,341.9C416.3,341.9,416.4,341.9,416.4,341.9 M416.3,341.9c-0.1,0-0.2,0-0.2,0
					C416.2,341.8,416.2,341.9,416.3,341.9 M458.8,341.9c0.2,0,0.3,0,0.5-0.1C459.1,341.8,459,341.9,458.8,341.9 M459.3,341.8
					L459.3,341.8L459.3,341.8 M415.7,341.8h-0.1H415.7 M459.4,341.8c0.2,0,0.3,0,0.5-0.1C459.7,341.8,459.5,341.8,459.4,341.8
					 M459.8,341.7C459.9,341.7,459.9,341.7,459.8,341.7C459.9,341.7,459.9,341.7,459.8,341.7 M415,341.7c-0.1,0-0.1,0-0.2,0
					C414.9,341.7,415,341.7,415,341.7 M414.9,341.7L414.9,341.7L414.9,341.7 M459.9,341.7c0.2,0,0.3,0,0.5-0.1
					C460.3,341.7,460.1,341.7,459.9,341.7 M460.4,341.7L460.4,341.7L460.4,341.7 M460.5,341.7c0.2,0,0.3,0,0.5-0.1
					C460.8,341.6,460.6,341.6,460.5,341.7 M461,341.6L461,341.6L461,341.6 M461,341.6c0.2,0,0.4-0.1,0.5-0.1
					C461.4,341.5,461.2,341.6,461,341.6 M461.6,341.5L461.6,341.5L461.6,341.5 M461.6,341.5c0.2,0,0.4-0.1,0.5-0.1
					C461.9,341.5,461.7,341.5,461.6,341.5 M462.1,341.4L462.1,341.4L462.1,341.4 M409.4,340.9c-0.1,0-0.1,0-0.2,0
					C409.2,340.8,409.3,340.8,409.4,340.9 M408.1,340.6L408.1,340.6L408.1,340.6 M408.2,340.7L408.2,340.7
					C408.2,340.7,408.1,340.6,408.2,340.7C408.1,340.6,408.1,340.7,408.2,340.7 M408,340.6L408,340.6L408,340.6 M408,340.6
					c-0.1,0-0.2,0-0.3,0h-0.1C407.7,340.6,407.8,340.6,408,340.6 M406.6,340.4L406.6,340.4L406.6,340.4 M406.4,340.4
					C406.4,340.3,406.4,340.3,406.4,340.4C406.4,340.3,406.4,340.3,406.4,340.4 M405.9,340.2c-0.1,0-0.1,0-0.2,0
					C405.7,340.2,405.8,340.2,405.9,340.2 M405.6,340.2L405.6,340.2L405.6,340.2 M405.5,340.2L405.5,340.2L405.5,340.2 M405.5,340.2
					c-0.1,0-0.1,0-0.2,0C405.4,340.2,405.4,340.2,405.5,340.2 M405.3,340.1L405.3,340.1c-0.1,0-0.1,0-0.1,0
					C405.2,340.1,405.3,340.1,405.3,340.1 M405.1,340.1L405.1,340.1L405.1,340.1 M405,340.1L405,340.1L405,340.1L405,340.1
					 M404.9,340.1h-0.1C404.9,340.1,404.9,340.1,404.9,340.1 M404.8,340h-0.1C404.8,340,404.8,340,404.8,340 M462.1,341.4
					c2.8-0.4,5.6-0.9,8.4-1.4C467.7,340.5,464.9,341,462.1,341.4 M470.5,340L470.5,340L470.5,340 M470.6,340c0.1,0,0.3-0.1,0.4-0.1
					C470.9,339.9,470.7,340,470.6,340 M471,339.9c0.1,0,0.2,0,0.2-0.1C471.2,339.9,471.1,339.9,471,339.9 M403.9,339.9L403.9,339.9
					L403.9,339.9 M471.2,339.9c0.1,0,0.2,0,0.3-0.1C471.4,339.8,471.3,339.8,471.2,339.9 M471.5,339.8c0.1,0,0.2,0,0.4-0.1
					C471.7,339.8,471.6,339.8,471.5,339.8 M403.9,339.9c-0.2,0-0.5-0.1-0.7-0.1C403.4,339.8,403.7,339.8,403.9,339.9 M471.9,339.7
					h0.1C471.9,339.7,471.9,339.7,471.9,339.7 M403.2,339.7c-0.1,0-0.1,0-0.1,0H403.2 M403.1,339.7c-0.1,0-0.1,0-0.2,0
					C402.9,339.7,403,339.7,403.1,339.7 M402.3,339.5L402.3,339.5L402.3,339.5L402.3,339.5L402.3,339.5z M402.1,339.5
					c-0.1,0-0.2,0-0.2-0.1C402,339.5,402,339.5,402.1,339.5 M401.8,339.4h0.1c-0.1,0-0.2,0-0.3-0.1
					C401.6,339.4,401.7,339.4,401.8,339.4 M401.6,339.4C401.5,339.4,401.5,339.4,401.6,339.4C401.5,339.4,401.5,339.4,401.6,339.4
					 M400.4,339.1h-0.1C400.3,339.1,400.3,339.1,400.4,339.1 M475.1,339.1c-1,0.2-2.1,0.5-3.1,0.7c1.1-0.2,2.1-0.4,3.2-0.7
					C475.1,339,475.1,339,475.1,339.1 M399.9,339L399.9,339L399.9,339 M399.3,338.9h-0.1C399.2,338.9,399.2,338.9,399.3,338.9
					 M399.1,338.8L399.1,338.8L399.1,338.8 M475.2,339c0.3-0.1,0.6-0.1,0.8-0.2C475.7,338.9,475.5,339,475.2,339 M399.1,338.8
					L399.1,338.8L399.1,338.8L399.1,338.8 M399.1,338.8L399.1,338.8L399.1,338.8 M399.1,338.8L399.1,338.8L399.1,338.8 M398.9,338.8
					c-0.2,0-0.3-0.1-0.5-0.1C398.6,338.7,398.7,338.7,398.9,338.8 M398.3,338.7C398.3,338.7,398.3,338.6,398.3,338.7
					C398.3,338.6,398.3,338.7,398.3,338.7 M398.3,338.6c-0.3-0.1-0.6-0.2-1-0.2C397.6,338.5,397.9,338.6,398.3,338.6 M397.3,338.4
					L397.3,338.4L397.3,338.4 M380.5,333.4c0.2,0.1,0.5,0.2,0.7,0.2c0.1,0,0.1,0,0.2,0.1c0.2,0.1,0.4,0.1,0.6,0.2
					c0.1,0,0.1,0,0.2,0.1c0.3,0.1,0.5,0.2,0.8,0.3c0.1,0,0.1,0,0.2,0.1c0.3,0.1,0.5,0.2,0.8,0.3h0.1c0.6,0.2,1.2,0.4,1.8,0.6l0,0
					c3.7,1.2,7.6,2.2,11.4,3.2c-5.8-1.4-11.5-3.1-17.1-5.1C380.3,333.4,380.4,333.4,380.5,333.4 M380.2,333.3L380.2,333.3
					C380.2,333.3,380.1,333.3,380.2,333.3L380.2,333.3 M376,331.8c0.1,0.1,0.3,0.1,0.4,0.2s0.3,0.1,0.4,0.2c0.2,0.1,0.4,0.2,0.6,0.2
					c0.1,0,0.3,0.1,0.4,0.1c0.1,0.1,0.3,0.1,0.4,0.1c0.2,0.1,0.3,0.1,0.5,0.2s0.3,0.1,0.5,0.2c0.1,0,0.2,0.1,0.3,0.1
					c0.2,0.1,0.4,0.1,0.6,0.2c-1.5-0.5-2.9-1.1-4.4-1.6C375.8,331.7,375.9,331.7,376,331.8 M375.8,331.7c-0.1,0-0.1-0.1-0.2-0.1
					C375.6,331.6,375.7,331.7,375.8,331.7 M375.6,331.6L375.6,331.6L375.6,331.6 M375.6,331.6h-0.1l0,0
					C375.5,331.6,375.5,331.6,375.6,331.6 M375.1,331.4c0.1,0,0.2,0.1,0.3,0.1c-0.3-0.1-0.6-0.2-0.9-0.4
					C374.7,331.3,374.9,331.3,375.1,331.4 M374.5,331.2C374.5,331.2,374.4,331.2,374.5,331.2c-0.1,0-0.1-0.1-0.2-0.1
					C374.4,331.1,374.4,331.2,374.5,331.2 M374.1,331c0.1,0,0.1,0,0.2,0.1c-0.4-0.2-0.8-0.3-1.2-0.5
					C373.4,330.8,373.8,330.9,374.1,331 M373.1,330.6c-0.1-0.1-0.3-0.1-0.4-0.2l0,0C372.8,330.5,372.9,330.6,373.1,330.6 M368,328.5
					c0.3,0.1,0.5,0.2,0.8,0.4c0.1,0,0.1,0.1,0.2,0.1c0.3,0.1,0.6,0.2,0.9,0.4c0,0,0.1,0,0.1,0.1c0.2,0.1,0.3,0.1,0.5,0.2l0,0
					c0.3,0.1,0.6,0.3,0.9,0.4c0.1,0,0.1,0.1,0.2,0.1c0.3,0.1,0.5,0.2,0.8,0.3c0.1,0,0.1,0,0.2,0.1c-1.6-0.7-3.2-1.3-4.7-2
					C367.9,328.4,368,328.5,368,328.5 M367.9,328.4L367.9,328.4c-0.1,0-0.1,0-0.1-0.1C367.8,328.4,367.9,328.4,367.9,328.4
					 M365.4,327.3c0.3,0.1,0.6,0.3,0.9,0.4c0,0,0.1,0,0.1,0.1c0.5,0.2,0.9,0.4,1.4,0.6C367,328,366.2,327.6,365.4,327.3L365.4,327.3
					 M365.3,327.2L365.3,327.2c-0.2-0.1-0.3-0.1-0.4-0.2C365.1,327.1,365.2,327.2,365.3,327.2 M364.9,327c-0.3-0.1-0.5-0.3-0.8-0.4
					C364.4,326.8,364.6,326.9,364.9,327 M364.1,326.7c-0.1-0.1-0.2-0.1-0.3-0.1l0,0C363.9,326.6,364,326.6,364.1,326.7 M362.8,326.1
					c0.3,0.2,0.6,0.3,0.9,0.4l0,0C363.4,326.3,363.1,326.2,362.8,326.1C362.8,326,362.8,326,362.8,326.1 M362.7,326L362.7,326
					L362.7,326L362.7,326 M359.2,324.2C359.2,324.2,359.2,324.3,359.2,324.2c0.3,0.2,0.7,0.3,1,0.5c0,0,0,0,0.1,0
					c0.5,0.3,1,0.5,1.5,0.8l0,0c0.3,0.1,0.6,0.3,0.9,0.4c-1.9-0.9-3.9-1.9-5.8-2.9C357.7,323.4,358.4,323.8,359.2,324.2 M356.9,323
					c-0.1,0-0.1-0.1-0.2-0.1l0,0C356.8,323,356.8,323,356.9,323 M356.7,322.9L356.7,322.9c-4.4-2.3-8.6-4.9-12.7-7.6
					C348.1,318.1,352.3,320.6,356.7,322.9 M344,315.4c-0.1,0-0.1-0.1-0.2-0.1C343.9,315.3,343.9,315.3,344,315.4 M343.8,315.3
					c-0.2-0.1-0.4-0.3-0.6-0.4C343.4,315,343.6,315.1,343.8,315.3 M343.2,314.8c-0.1-0.1-0.2-0.1-0.2-0.2
					C343,314.7,343.1,314.8,343.2,314.8 M343,314.7c-0.2-0.1-0.4-0.3-0.6-0.4C342.5,314.4,342.7,314.6,343,314.7 M342.3,314.3
					c-0.1,0-0.1-0.1-0.2-0.1C342.2,314.2,342.3,314.2,342.3,314.3 M342.1,314.2c-0.2-0.2-0.5-0.3-0.7-0.5
					C341.7,313.8,341.9,314,342.1,314.2 M341.4,313.7L341.4,313.7L341.4,313.7 M341.4,313.7L341.4,313.7L341.4,313.7L341.4,313.7
					 M341.4,313.7L341.4,313.7L341.4,313.7 M341.4,313.7L341.4,313.7L341.4,313.7 M341.3,313.6l0.1,0.1c-0.1-0.1-0.2-0.2-0.4-0.3
					C341.1,313.5,341.2,313.5,341.3,313.6 M341,313.4L341,313.4c-0.1-0.1-0.2-0.1-0.2-0.1C340.9,313.3,341,313.4,341,313.4 M339,312
					c0.4,0.3,0.9,0.6,1.3,0.9c0.2,0.1,0.3,0.2,0.5,0.3c-0.7-0.5-1.4-1-2.1-1.5C338.8,311.9,338.9,312,339,312"/>
			</defs>
			<clipPath id="SVGID_00000117675782608087427550000011758493914326060177_">
				<use xlink:href="#SVGID_00000057834986121933775330000008257376788686389657_"  style="overflow:visible;"/>
			</clipPath>
			
				<linearGradient id="SVGID_00000024701759957498823160000018025115096153654680_" gradientUnits="userSpaceOnUse" x1="108.9336" y1="1153.8167" x2="115.2418" y2="1153.8167" gradientTransform="matrix(41.223 0 0 41.223 -4180.7827 -47236.2852)">
				<stop  offset="0" style="stop-color:#4D8CCA"/>
				<stop  offset="0.2" style="stop-color:#4D8CCA"/>
				<stop  offset="0.8972" style="stop-color:#4D8CCA"/>
				<stop  offset="1" style="stop-color:#4D8CCA"/>
			</linearGradient>
			
				<rect x="338.7" y="311.8" style="clip-path:url(#SVGID_00000117675782608087427550000011758493914326060177_);fill:url(#SVGID_00000024701759957498823160000018025115096153654680_);" width="137.3" height="31.4"/>
		</g>
	</g>
</g>
<g>
	<g>
		<g>
			<defs>
				<path id="SVGID_00000088855177026773865340000001563581364432928899_" d="M472.1,339.7C472.1,339.7,472.2,339.7,472.1,339.7
					C472.2,339.7,472.1,339.7,472.1,339.7 M406.2,340.3C406.3,340.3,406.3,340.3,406.2,340.3c0.2,0,0.4,0.1,0.6,0.1l0,0
					c0.5,0.1,1.1,0.2,1.6,0.3h0.1c0.5,0.1,1,0.2,1.5,0.3c0.1,0,0.1,0,0.2,0c0.2,0,0.3,0.1,0.4,0.1s0.2,0,0.2,0
					c0.3,0,0.5,0.1,0.8,0.1c0.1,0,0.2,0,0.2,0c0.1,0,0.3,0,0.4,0.1c0.1,0,0.2,0,0.3,0c0.1,0,0.3,0,0.4,0.1c0.1,0,0.2,0,0.3,0
					c0.2,0,0.5,0.1,0.7,0.1c0.1,0,0.2,0,0.3,0c0.1,0,0.3,0,0.4,0.1c0.1,0,0.2,0,0.3,0c0.1,0,0.3,0,0.4,0.1c0.1,0,0.2,0,0.4,0
					c0.2,0,0.4,0.1,0.6,0.1c0.1,0,0.2,0,0.3,0c0.1,0,0.2,0,0.4,0c0.1,0,0.2,0,0.4,0c0.1,0,0.3,0,0.4,0.1c0.2,0,0.4,0,0.5,0.1
					c0.1,0,0.3,0,0.4,0s0.2,0,0.3,0c0.1,0,0.2,0,0.4,0c0.1,0,0.3,0,0.4,0c0.2,0,0.3,0,0.5,0.1c0.1,0,0.3,0,0.4,0s0.2,0,0.3,0
					c0.1,0,0.3,0,0.4,0s0.2,0,0.3,0c0.2,0,0.4,0,0.7,0.1c0.1,0,0.2,0,0.3,0c0.2,0,0.3,0,0.5,0c0.1,0,0.2,0,0.3,0c0.2,0,0.4,0,0.6,0
					c0.1,0,0.1,0,0.2,0c0.2,0,0.5,0,0.7,0.1c0.1,0,0.2,0,0.3,0c0.2,0,0.3,0,0.5,0c0.1,0,0.2,0,0.3,0c0.2,0,0.5,0,0.7,0.1
					c0.1,0,0.1,0,0.2,0c0.2,0,0.4,0,0.5,0s0.2,0,0.3,0c0.2,0,0.3,0,0.5,0c0.1,0,0.2,0,0.2,0c0.2,0,0.5,0,0.7,0c0.1,0,0.1,0,0.2,0
					c0.2,0,0.4,0,0.6,0c0.1,0,0.2,0,0.2,0c0.2,0,0.5,0,0.7,0l0,0c0.2,0,0.5,0,0.7,0c0.1,0,0.1,0,0.2,0c0.2,0,0.4,0,0.6,0
					c0.1,0,0.1,0,0.2,0c0.2,0,0.5,0,0.7,0c0.1,0,0.1,0,0.1,0c0.2,0,0.4,0,0.6,0c0.1,0,0.1,0,0.2,0c0.2,0,0.4,0,0.6,0
					c0.1,0,0.1,0,0.2,0c0.2,0,0.5,0,0.7,0c0.1,0,0.1,0,0.2,0c0.2,0,0.4,0,0.6,0c0.1,0,0.1,0,0.2,0c0.3,0,0.5,0,0.7,0s0.4,0,0.6,0
					c0.1,0,0.2,0,0.2,0c0.1,0,0.3,0,0.4,0s0.2,0,0.2,0c0.1,0,0.2,0,0.4,0c0.1,0,0.2,0,0.3,0c0.1,0,0.2,0,0.4,0c0.1,0,0.2,0,0.2,0
					c0.1,0,0.2,0,0.4,0c0.1,0,0.2,0,0.3,0c0.1,0,0.2,0,0.4,0c0.1,0,0.2,0,0.3,0c0.1,0,0.2,0,0.4,0c0.1,0,0.2,0,0.2,0
					c0.2,0,0.3,0,0.5,0h0.1c0.6,0,1.3,0,1.9-0.1h0.1c0.2,0,0.4,0,0.5,0c0,0,0,0,0.1,0c0.2,0,0.4,0,0.5,0h0.1c0.2,0,0.4,0,0.6,0
					c0,0,0,0,0.1,0c0.2,0,0.4,0,0.6,0l0,0c8.4-0.5,16.7-1.5,24.7-3.2c-11.1,2.3-22.6,3.4-34.3,3.4c-30.4,0-58.9-7.9-83.7-21.8
					C369.9,330.4,387.6,336.9,406.2,340.3 M353.9,321.4c-0.1,0-0.1-0.1-0.2-0.1C353.8,321.3,353.9,321.4,353.9,321.4 M353.8,321.3
					c-0.1-0.1-0.3-0.2-0.4-0.2C353.5,321.1,353.6,321.2,353.8,321.3 M353.3,321.1c-0.2-0.1-0.4-0.2-0.6-0.4
					C352.9,320.8,353.1,320.9,353.3,321.1 M352.7,320.7c-0.2-0.1-0.4-0.2-0.6-0.3C352.3,320.5,352.5,320.6,352.7,320.7 M351.9,320.3
					c-0.1-0.1-0.3-0.2-0.4-0.2C351.6,320.1,351.8,320.2,351.9,320.3 M351,319.7c-0.1,0-0.1-0.1-0.2-0.1
					C350.9,319.6,350.9,319.7,351,319.7 M350.4,319.4C350.4,319.3,350.3,319.3,350.4,319.4C350.3,319.3,350.3,319.3,350.4,319.4
					 M341.4,313.7L341.4,313.7L341.4,313.7L341.4,313.7L341.4,313.7"/>
			</defs>
			<clipPath id="SVGID_00000068661691254957451590000010319545785865397177_">
				<use xlink:href="#SVGID_00000088855177026773865340000001563581364432928899_"  style="overflow:visible;"/>
			</clipPath>
			<g transform="matrix(1 0 0 1 0 0)" style="clip-path:url(#SVGID_00000068661691254957451590000010319545785865397177_);">
				
					<image style="overflow:visible;enable-background:new    ;" width="91" height="22" xlink:href="../../../Documents/proyectos/logos/6061A911454A594F.jpeg"  transform="matrix(1.4737 0 0 1.451 340.5266 312.3433)">
				</image>
			</g>
		</g>
	</g>
</g>
<g>
	<g>
		<g>
			<defs>
				<path id="SVGID_00000130614031543128859480000018321989755055195274_" d="M171.9,117C130,117,79.5,98.7,43.7,70.6
					C79.5,98.7,130,117,171.9,117c63.1,0,96.9-13.7,136.4-53.8l0,0C268.8,103.3,235,117,171.9,117"/>
			</defs>
			<clipPath id="SVGID_00000055694624663718579770000005489650617345086364_">
				<use xlink:href="#SVGID_00000130614031543128859480000018321989755055195274_"  style="overflow:visible;"/>
			</clipPath>
			<g style="clip-path:url(#SVGID_00000055694624663718579770000005489650617345086364_);">
				<g>
					<g>
						<defs>
							<path id="SVGID_00000072248848241516968000000015563469792456390824_" d="M43.6,70.6C79.5,98.7,130,117,171.9,117
								c63.1,0,96.9-13.7,136.4-53.8C277,27.2,230.6,4.3,179,4.3C123.9,4.3,74.9,30.3,43.6,70.6"/>
						</defs>
						<clipPath id="SVGID_00000111895455663075169050000014164606836430631614_">
							<use xlink:href="#SVGID_00000072248848241516968000000015563469792456390824_"  style="overflow:visible;"/>
						</clipPath>
						<g style="clip-path:url(#SVGID_00000111895455663075169050000014164606836430631614_);">
							
								<image style="overflow:visible;enable-background:new    ;" width="178" height="38" xlink:href="../../../Documents/proyectos/logos/6061A911454A594B.jpeg"  transform="matrix(1.4965 0 0 1.4581 42.9675 62.4035)">
							</image>
						</g>
					</g>
				</g>
			</g>
		</g>
	</g>
</g>
<path class="st6" d="M395.8,115.6l0.2,114.7h-46.2v-43.5l0,0c0,0,0-3.1,0.5-5.8s3.3-7.9,3.3-7.9l-37,46.4c0,0-0.7,0.9-2.5,0.9
	c-1.5,0-2.4-0.9-2.4-0.9l-37-46.4c0,0,2.8,5.2,3.3,7.9c0.2,1.4,0.4,2.9,0.4,4v45.3h-46.2l0.2-114.7h42.5c6.2,0.3,10,3.3,11.4,5.3
	l27.8,39.7l27.8-39.6c1.3-1.6,5-4.9,11.7-5.3L395.8,115.6L395.8,115.6z M154.5,170.5l64.7-52.9v-1.9h-52.6c-4.9,0.1-8.9,2.2-11.3,4
	L109,161.8v-46.7H63.1v114.7H109V182l43.1,44.3c3.5,2.9,8,3.9,10.9,4.1c0.1,0,0.3,0,0.4,0c1.4,0.1,2.2,0,2.2,0h53.6v-1.6
	L154.5,170.5z M517.9,183.4c-2.7-0.1-2.8,0.9-2.8,2.1v8.5c0,3.8-3.6,7-8.1,7h-36.4c-4.5,0-8.1-3.1-8.1-7v-42c0-3.8,3.6-7,8.1-7H507
	c4.4,0,8.1,3.1,8.1,7v8.5c0,1.9,0.6,2.1,3.3,2c15.7-0.7,30.8-2.6,43.6-5.8l0.1-22.3c0-10.4-7-18.8-19.1-18.8H434.7
	c-12.1,0-19.1,8.4-19.1,18.8v77.2c0,10.4,7,18.8,19.1,18.8H543c12.1,0,19.1-8.4,19.1-18.8v-22.3
	C549.2,185.7,531.8,183.7,517.9,183.4"/>
<linearGradient id="SVGID_00000083774033763060651970000017126606040225422491_" gradientUnits="userSpaceOnUse" x1="43.65" y1="60.6423" x2="308.35" y2="60.6423">
	<stop  offset="0" style="stop-color:#0096DF"/>
	<stop  offset="0.2964" style="stop-color:#00A6E9"/>
	<stop  offset="0.3126" style="stop-color:#00A4E8"/>
	<stop  offset="0.5538" style="stop-color:#008FD8"/>
	<stop  offset="0.7866" style="stop-color:#0081CE"/>
	<stop  offset="1" style="stop-color:#007DCB"/>
</linearGradient>
<path style="fill:url(#SVGID_00000083774033763060651970000017126606040225422491_);" d="M43.7,70.5c0,0,49.7-68.4,135.4-66.3
	s129.3,58.9,129.3,58.9s-44.6,57.1-132.3,53.8C88.3,113.7,43.7,70.5,43.7,70.5z"/>
<linearGradient id="SVGID_00000118397926065449676970000015238815754470462638_" gradientUnits="userSpaceOnUse" x1="308.8" y1="286.7183" x2="573.4" y2="286.7183">
	<stop  offset="0" style="stop-color:#007DCB"/>
	<stop  offset="0.7615" style="stop-color:#00A6E9"/>
	<stop  offset="0.8802" style="stop-color:#009AE2"/>
	<stop  offset="1" style="stop-color:#0096DF"/>
</linearGradient>
<path style="fill:url(#SVGID_00000118397926065449676970000015238815754470462638_);" d="M308.8,284.6c0,0,49.9-60.1,136.4-53.8
	s128.2,46.4,128.2,46.4s-41.9,66.2-131.6,65.9S308.8,284.6,308.8,284.6z"/>
</svg>
