<svg version="1.1" xmlns="http://www.w3.org/2000/svg" xmlns:xlink="http://www.w3.org/1999/xlink" x="0px" y="0px" viewBox="0 0 661.2 111.4" xml:space="preserve"> <g> <g> <rect x="7.8" y="7.5" class="st0" width="27.2" height="96.3"></rect> <path class="st0" d="M259.2,5c-25.1,0-45.8,18.5-49.6,42.7h24.6c3.3-11.3,13.3-19.5,25.1-19.5c14.5,0,26.2,12.3,26.2,27.4
 c0,15.1-11.7,27.4-26.2,27.4c-11.8,0-21.8-8.2-25.1-19.5h-24.6c3.8,24.2,24.6,42.7,49.6,42.7c27.8,0,50.3-22.7,50.3-50.7
 S287,5,259.2,5z"></path> <polygon class="st0" points="101,7.5 70.3,7.5 41.5,54.6 71.8,103.9 102.4,103.9 71.2,54.6 		"></polygon> <path class="st0" d="M153.5,28.3c11.8,0,21.8,8.2,25.1,19.5h24.5C199.3,23.5,178.5,5,153.5,5c-27.8,0-50.3,22.7-50.3,50.7
 s22.5,50.7,50.3,50.7c25.1,0,45.8-18.5,49.6-42.7h-24.5c-3.3,11.3-13.3,19.5-25.1,19.5c-14.5,0-26.2-12.3-26.2-27.4
 C127.3,40.6,139,28.3,153.5,28.3z"></path> </g> <rect x="334.3" y="7.5" class="st0" width="1" height="96.3"></rect> <g> <path class="st0" d="M371.8,59.5h2.8c-0.5,2.9-2.9,5.3-7,5.3c-4.7,0-7.5-3.5-7.5-8.8c0-4.8,2.8-8.4,7.4-8.4c3.6,0,6.1,2.2,7,5.7
 c0.2,0.9,0.3,2.1,0.3,3.5h-11.9c0.1,4,2.1,5.8,4.7,5.8C369.9,62.6,371.4,61.3,371.8,59.5 M362.9,54.6h9.2
 c-0.3-3.2-2.1-4.8-4.5-4.8C364.9,49.8,363.1,51.5,362.9,54.6"></path> <path class="st0" d="M413.9,65.1c-1.6,4.2-3.1,5.3-6.6,5.3c-0.5,0-1,0-1.4-0.2v-2.4c0.4,0.1,0.8,0.2,1.3,0.2
 c2.1,0,2.9-0.8,3.9-3.6l-6-16.3h3l4.6,12.9h0.1l4.6-12.9h2.9L413.9,65.1z"></path> <path class="st0" d="M462.5,59.5h2.8c-0.5,2.9-2.9,5.3-7,5.3c-4.7,0-7.5-3.5-7.5-8.8c0-4.8,2.8-8.4,7.4-8.4c3.6,0,6.1,2.2,7,5.7
 c0.2,0.9,0.3,2.1,0.3,3.5h-11.9c0.1,4,2.1,5.8,4.7,5.8C460.6,62.6,462.1,61.3,462.5,59.5 M453.5,54.6h9.2
 c-0.3-3.2-2.1-4.8-4.5-4.8C455.6,49.8,453.8,51.5,453.5,54.6"></path> <path class="st0" d="M511.8,64.3l-1.9-7c-0.6-2.4-1.2-4.7-1.8-7h-0.1c-0.6,2.4-1.2,4.7-1.8,7l-1.9,7h-3.9l-4.2-16.3h2.8l1.7,6.8
 c0.6,2.4,1.2,4.9,1.8,7.3h0.1c0.5-2.3,1.1-4.8,1.8-7.1l1.8-6.9h3.9l1.8,6.9c0.6,2.4,1.2,4.8,1.8,7.1h0.1c0.6-2.4,1.2-4.9,1.8-7.3
 l1.7-6.8h2.8l-4.2,16.3H511.8z"></path> <path class="st0" d="M562.5,59.5h2.8c-0.5,2.9-2.9,5.3-7,5.3c-4.7,0-7.5-3.5-7.5-8.8c0-4.8,2.8-8.4,7.4-8.4c3.6,0,6.1,2.2,7,5.7
 c0.2,0.9,0.3,2.1,0.3,3.5h-11.9c0.1,4,2.1,5.8,4.7,5.8C560.7,62.6,562.2,61.3,562.5,59.5 M553.6,54.6h9.2
 c-0.3-3.2-2.1-4.8-4.5-4.8C555.7,49.8,553.9,51.5,553.6,54.6"></path> <path class="st0" d="M610.7,53.9v6.2c0,1.8,0.2,3.2,0.4,4.2h-2.5c-0.2-0.7-0.2-1.6-0.2-2.4h-0.1c-1.1,1.7-2.9,2.7-5.5,2.7
 c-3.3,0-5.4-2-5.4-4.8c0-2.7,1.5-4.4,6-5.1c1.4-0.2,3.4-0.4,4.6-0.5v-0.6c0-2.7-1.5-3.8-3.6-3.8c-2.3,0-3.5,1.3-3.6,3.2H598
 c0.2-3.1,2.4-5.4,6.4-5.4C608.3,47.6,610.7,49.6,610.7,53.9 M608,56.4c-1.2,0.1-2.9,0.3-4.2,0.5c-2.7,0.4-3.7,1.2-3.7,2.8
 c0,1.7,1.2,2.8,3.3,2.8c1.3,0,2.5-0.4,3.3-1.3c1-1,1.3-1.9,1.3-3.8V56.4z"></path> <path class="st0" d="M653.4,48v2.5c-0.3,0-0.8-0.1-1.1-0.1c-3,0-4.7,2-4.7,5.6v8.3h-2.8V48.1h2.6v2.5h0.1c1.1-1.8,2.7-2.7,4.7-2.7
 C652.6,47.9,653,47.9,653.4,48"></path> </g> </g> </svg>