<?xml version="1.0" encoding="utf-8"?>
<!-- Generator: Adobe Illustrator 27.5.0, SVG Export Plug-In . SVG Version: 6.00 Build 0)  -->
<svg version="1.1" id="Capa_1" xmlns="http://www.w3.org/2000/svg" xmlns:xlink="http://www.w3.org/1999/xlink" x="0px" y="0px"
	 viewBox="0 0 162.4 54.9" style="enable-background:new 0 0 162.4 54.9;" xml:space="preserve">
<style type="text/css">
	.st0{fill-rule:evenodd;clip-rule:evenodd;}
</style>
<g id="Symbols">
	<g id="HEADER-MENU-transparant" transform="translate(-156.000000, -47.000000)">
		<path id="Fill-1" class="st0" d="M208.2,69.1L208.2,69.1l-1.1,8.2h-3.9L208.2,69.1z M206.1,55.6h14l-3,36.8H205l0.7-5H197l-3,5
			h-33.6l13.4-36.8h11.5L176.2,81h10.3l-3.4,9L206.1,55.6z M263.9,55.6h23l-3.7,10.3h-11l-0.9,2.7h10.9l-3.6,10.3h-11.5l-0.9,2.6
			h11.4l-3.7,11h-24.1L263.9,55.6z M298.2,65.1L298.2,65.1h1.1c0.9,0,1.4,0.3,1.7,0.8c0.1,0.1,0.2,0.4,0.2,0.7
			c0,0.5-0.2,1.1-0.9,1.8l-5,4.8L298.2,65.1z M290,55.6L290,55.6l-13,37h11.4l4.4-12.1l5.2,12.1h11.8l-6.1-14.1l6.1-5.9
			c2.8-2.9,3.7-5.6,3.7-7.8c0-2-0.7-3.6-1.3-4.7l0,0c-1.8-3.1-5.1-4.4-10.8-4.4L290,55.6L290,55.6z M231.2,51.2l-6.7,10.5h16.7
			l-22.4,22.7l-0.7,9h-8.4l-3.2,3.1h39.8l3.8-10.9h-16.2l32.5-34.4C266.4,51.2,231.2,51.2,231.2,51.2z"/>
	</g>
</g>
</svg>
