<?xml version="1.0" encoding="utf-8"?>
<!-- Generator: Adobe Illustrator 27.5.0, SVG Export Plug-In . SVG Version: 6.00 Build 0)  -->
<svg version="1.1" id="Capa_1" xmlns="http://www.w3.org/2000/svg" xmlns:xlink="http://www.w3.org/1999/xlink" x="0px" y="0px"
	 viewBox="0 0 906.6 154.1" style="enable-background:new 0 0 906.6 154.1;" xml:space="preserve">
<g>
	<path d="M172.1,141.4c0-3.4,0-5,0-6.6c0-27.5,0-55,0-82.5c0-1.5,0-3,0-4.5c0.3-11.3,4.1-15.1,15.6-15.5c2-0.1,4-0.1,6-0.1
		c92,0,184,0.1,276-0.2c11.6,0,20.7,3.2,28.9,11.6c13.4,13.7,27.5,26.7,41.5,39.8c8,7.4,8.4,7.5,15.9-0.1
		c13.3-13.3,26.5-26.8,39.2-40.6c6.9-7.5,15-10.6,24.8-10.4c8.3,0.1,16.7,0,25,0c6.3,0,12,1.5,17.5,4.8
		c35,20.9,70.1,41.7,105.2,62.5c10.7,6.3,13.2,4.9,13.2-7.5c0.1-15.3,0-30.7,0-46c0-9,4.7-13.8,13.8-13.8c14-0.1,28,0,42,0
		c18.2,0,36.3-0.1,54.5,0.1c2.6,0,5.8,0.1,7.6,1.6c2.3,1.8,4.9,5.1,4.9,7.7c0,2.7-2.4,6-4.8,7.8c-2,1.5-5.3,1.7-8.1,1.7
		c-19.7,0.2-39.3,0.1-59,0.1c-7.8,0-10,2.3-10.1,10.2c0,6.2-0.1,12.3,0,18.5c0.2,7.3,2,9.1,9.4,9.1c16.2,0.1,32.3,0,48.5,0.1
		c2.5,0,5,0.3,7.3,1.1c3.8,1.3,6.1,4.1,6,8.3c-0.1,4.4-2.7,7.1-6.7,8.3c-2.7,0.8-5.6,1-8.4,1c-15.5,0-31-0.1-46.5-0.2
		c-7.9,0-9.4,1.6-9.5,9.3c0,1.2,0,2.3,0,3.5c0.1,6.7,1.4,8.1,8.3,8.2c19.3,0,38.7,0,58,0c1.5,0,3,0,4.5,0.1
		c7.2,0.5,11.3,3.9,11.3,9.4c0,5.2-4.7,9.2-11.3,9.8c-1,0.1-2,0-3,0c-28.8,0-57.7,0.1-86.5-0.1c-2.7,0-5.6-0.8-7.9-2.2
		c-39.3-22.7-78.6-45.5-117.9-68.3c-1.6-0.9-3.1-1.9-4.8-2.6c-3.6-1.4-6.3-0.2-7.4,3.5c-0.7,2.4-0.8,4.9-0.8,7.4
		c-0.1,17.3,0,34.7,0,52c0,8.1-2.3,10.3-10.5,10.3c-6.7,0-13.3,0-20,0c-7.5,0-9.7-2.2-9.7-9.9c0-21.7,0.1-43.3-0.1-65
		c0-3.2-1.8-6.4-2.7-9.5c-2.9,1.5-6.5,2.4-8.7,4.7c-11.3,11.6-22.2,23.4-33.2,35.3c-7.7,8.3-12.5,17.3-11.6,29.5
		c1.1,14.8,0.3,14.9-14.7,14.9c-5.7,0-11.3,0-17,0c-4.7,0-7.1-2.4-7.4-6.9c-0.2-4.5-0.6-9-0.2-13.5c0.6-6.8-1.8-12.4-6.1-17.3
		c-4.8-5.4-9.4-10.8-14.5-15.8c-10-9.8-20.2-19.4-30.5-28.9c-5.3-4.9-9.1-5.2-14.5-0.6c-20.8,17.2-41.5,34.5-62.1,52
		c-1.9,1.6-3.8,5.1-3.2,7c0.6,1.9,4.1,3.5,6.6,4.1c3.3,0.8,7,0.5,10.5,0.5c19,0,38,0,57,0.1c2.6,0,5.4,0.2,7.9,0.9
		c3.7,1.1,6.4,3.5,6.7,7.8c0.3,4.5-1.8,7.4-5.8,8.9c-2.8,1-5.8,1.8-8.7,1.8c-149,0.1-298,0.1-447,0c-3.8,0-7.6-0.7-11.3-1.5
		c-8.3-1.7-11.3-5.3-11.3-13.8c0-38.2,0-76.3,0-114.5c0-7.7,3.3-11.4,11-11.9c6.3-0.4,12.6-0.4,18.9,0c8.6,0.6,11.6,3.9,11.6,12.3
		c0,32,0.1,64,0,96c0,9.6,3.2,13.7,12.9,13.8c26.8,0.3,53.7,0.3,80.5,0.1c9.3-0.1,17.7,1.8,25.2,7.6
		C164.9,138.1,168,139.2,172.1,141.4z M266.8,128.6c0,0.1,0,0.1,0,0.2c13.7,0,27.3-0.3,41,0.1c11.7,0.3,21.9-2.9,30.8-10.5
		c17.5-14.7,35.1-29.2,52.7-43.8c6-5,12.1-10,17.9-15.3c3.5-3.2,2.7-5.8-1.9-6.9c-2.4-0.6-4.9-0.9-7.4-0.9
		c-59.3-0.1-118.7-0.1-178-0.1c-6.3,0-8.8,2.3-9,8.7c-0.2,6.8-0.2,13.7,0,20.5c0.2,7,2,8.7,9.2,8.7c16.3,0,32.7-0.1,49,0.1
		c2.7,0,6.2,0.2,8,1.8c2.4,2,4.9,5.5,4.8,8.3c-0.1,2.5-3.1,5.7-5.6,7.1c-2.5,1.4-6.1,1.4-9.2,1.5c-14.7,0.1-29.3,0.1-44,0.1
		c-12.3,0-12.3,0-12.2,12.1c0.1,7.2,1.2,8.4,8.5,8.4C236.5,128.6,251.7,128.6,266.8,128.6z"/>
</g>
</svg>
