<?xml version="1.0" encoding="UTF-8"?>
<svg xmlns="http://www.w3.org/2000/svg" version="1.1" viewBox="0 0 575 375">
  <defs>
    <style>
      .cls-1 {
        fill: #fff;
      }

      .cls-1, .cls-2, .cls-3 {
        fill-rule: evenodd;
      }

      .cls-2 {
        fill: #e30613;
      }

      .cls-3 {
        fill: #004f9f;
      }
    </style>
  </defs>
  <!-- Generator: Adobe Illustrator 28.6.0, SVG Export Plug-In . SVG Version: 1.2.0 Build 709)  -->
  <g>
    <g id="Capa_1">
      <g>
        <path class="cls-1" d="M25,0h525c13.8,0,25,11.2,25,25v325c0,13.8-11.2,25-25,25H25c-13.8,0-25-11.2-25-25V25C0,11.2,11.2,0,25,0h0Z"/>
        <path class="cls-2" d="M7.8,186.8v162.4c0,9.5,7.8,17.8,17.3,17.8h525.3c9.6,0,17.4-8.7,17.4-18.2v-162.1s-560,0-560,0h0Z"/>
        <polygon class="cls-1" points="357.7 205.7 397.6 205.7 397.6 313.4 445.4 313.4 445.4 347.5 357.7 347.5 357.7 205.7 357.7 205.7"/>
        <polygon class="cls-1" points="418.4 205.7 464.7 205.7 488.9 247.6 512.5 205.7 558.7 205.7 507.8 281.3 507.8 347.5 469.7 347.5 469.7 281.3 418.4 205.7 418.4 205.7"/>
        <polygon class="cls-1" points="39.1 205.7 73.9 205.7 111.6 259.3 148.4 205.7 183.7 205.7 183.7 347.5 148.4 347.5 148.4 257 114.7 302.1 108.4 302.1 73.9 257 73.9 347.5 39.1 347.5 39.1 205.7 39.1 205.7"/>
        <path class="cls-1" d="M191.7,276.6c0-41.8,35.3-75.6,78.8-75.6s78.8,33.9,78.8,75.6-35.3,75.6-78.8,75.6-78.8-33.9-78.8-75.6h0Z"/>
        <path class="cls-2" d="M233.3,276.6c0-22.7,16.7-41.1,37.2-41.1s37.2,18.4,37.2,41.1-16.7,41.1-37.2,41.1-37.2-18.4-37.2-41.1h0Z"/>
        <path class="cls-3" d="M25.8,6.7C15.9,6.7,7.8,14.8,7.8,24.8v162h560s0-162,0-162c0-10-8.2-18.1-18.2-18.1H25.8Z"/>
        <polygon class="cls-1" points="132.5 26.2 172.4 26.2 172.4 168 132.5 168 132.5 26.2 132.5 26.2"/>
        <polygon class="cls-1" points="496.5 26.2 536.9 26.2 536.9 168 496.5 168 496.5 26.2 496.5 26.2"/>
        <polygon class="cls-1" points="39.1 26.2 75.3 26.2 75.3 134.3 122.7 134.3 122.7 168 39.1 168 39.1 26.2 39.1 26.2"/>
        <path class="cls-1" d="M351.9,26.2h39.6v89.3c0,13.4,11.6,24.3,25.9,24.3s25.9-10.9,25.9-24.3V26.2h39.2v102.3c.1,0,0,43.9-65.1,43.9s-65.4-43.9-65.4-43.9V26.2h0Z"/>
        <path class="cls-1" d="M313.8,182.1l-16-17.4c-10.6,5.1-22.6,8-35.3,8-43.5,0-78.8-33.9-78.8-75.6s35.3-75.6,78.8-75.6,78.8,33.9,78.8,75.6-7.2,36.2-19.2,49.5l20.3,21.5-28.6,14.1h0Z"/>
        <path class="cls-3" d="M282.6,105.3l12,12.1c3.1-6,5.2-13,5.2-20.4,0-22.7-16.7-41.1-37.2-41.1s-37.2,18.4-37.2,41.1,16.7,41.1,37.2,41.1,6.9-.7,10.2-1.7l-16.1-17.8,26.1-13.3h0Z"/>
      </g>
    </g>
  </g>
</svg>