<?xml version="1.0" encoding="utf-8"?>
<!-- Generator: $$$/GeneralStr/196=Adobe Illustrator 27.6.0, SVG Export Plug-In . SVG Version: 6.00 Build 0)  -->
<svg version="1.1" id="Capa_1" xmlns="http://www.w3.org/2000/svg" xmlns:xlink="http://www.w3.org/1999/xlink" x="0px" y="0px"
	 viewBox="0 0 300 150" style="enable-background:new 0 0 300 150;" xml:space="preserve">
<style type="text/css">
	.st0{fill:#4F1B52;}
</style>
<g>
	<path class="st0" d="M122.1,102.6h12.4c0,0,6.6,0,11.2-7.9c4.6-7.9,16.7-28.9,16.7-28.9h-12.7c0,0-7.4,0.4-12,9.3
		C133.1,83.9,122.1,102.6,122.1,102.6z"/>
	<path class="st0" d="M91.8,86.6c0,0-6.7,9.4-3.2,13.2c3.6,3.8,11.7,2.9,11.7,2.9l10.4,0.1c0,0,7.6-0.9,10.8-7
		c3.3-6.2,5.1-9.1,5.1-9.1H91.8z"/>
	<path class="st0" d="M114.4,47.3L91.8,86.6c0,0-6.6,9.2-3.2,13.2c0,0-3.7-2.5-6.3-9.9s-4.6-11.4-0.5-19.4l9.7-16.9
		c0,0,3-6.2,12.9-6.2L114.4,47.3L114.4,47.3z"/>
	<path class="st0" d="M146.1,60.8h10.6c0,0,7.2,1.1,12.4-6.6l4.1-6.9h-11.7c0,0-8.7,0-12,7.7L146.1,60.8z"/>
	<path class="st0" d="M164.6,65.8l3.2,28.4c0,0,0.6,8.3,9.7,8.5c0,0,3.2-0.4,7.4-8.4l-2.7-21.3c0,0-0.2-6.5-8-7.2H164.6z"/>
	<path class="st0" d="M220.4,65.8l-17.1,29.6c0,0-2.6,5.2-9.9,7.2h-15.6c0,0,3.2-0.7,7.5-9L197.6,72c0,0,2.8-5.3,10.5-6.3
		L220.4,65.8L220.4,65.8z"/>
</g>
</svg>
