<?xml version="1.0" encoding="utf-8"?>
<!-- Generator: $$$/GeneralStr/196=Adobe Illustrator 27.6.0, SVG Export Plug-In . SVG Version: 6.00 Build 0)  -->
<svg version="1.1" id="Capa_1" xmlns="http://www.w3.org/2000/svg" xmlns:xlink="http://www.w3.org/1999/xlink" x="0px" y="0px"
	 viewBox="0 0 612 259" style="enable-background:new 0 0 612 259;" xml:space="preserve">
<g>
	<path d="M463,66.9c0-15.9,0-31.7,0-47.6c0-8,4.5-12.9,12.4-12.9c21.2,0,42.4-0.1,63.6,0.1c15.6,0.1,30.3,3.8,43.3,12.7
		c9.2,6.3,15.7,14.8,19.6,25.5c4.7,12.7,5,25.7,2,38.4c-3.8,16.3-13.6,28.6-28.8,36.3c-15.6,7.9-32.3,9.4-49.4,9.1
		c-9.9-0.2-14,4.2-14,14.3c0,12.5,0,25,0.1,37.4c0,2.7-0.7,3.6-3.5,3.6c-13.9-0.1-27.9-0.2-41.8,0c-3.1,0-3.6-1.1-3.5-3.9
		c0.1-19.2,0.1-38.3,0.1-57.5c-2-0.1-2.2,1.3-2.6,2.3c-7.2,20.1-20,35.4-38.5,46c-21.5,12.2-44.1,15.8-68.5,10.7
		c-23.4-4.9-41.7-17-56-35.7c-1.8-2.3-1.6-4.5-0.2-6.9C307,122,316.9,105,326.8,88c0.7-1.1,1.1-2.8,2.8-2.1c1.5,0.6,1.1,2,1,3.4
		c-1.4,19,5.1,34.7,21,45.5c8.2,5.5,17.8,7.1,27.9,5.9c10.7-1.3,19.7-5.9,26.6-14c5.7-6.6,9.6-14.3,10.5-23.2c0.5-5,0.9-9.9,0.2-15
		c-2.3-16.4-10.4-28.3-25.2-35.6c-15-7.3-35.9-4.8-47.5,7.9c-21,22.8-41.7,45.8-62.8,68.5c-10.2,11-19.7,22.6-30.8,32.8
		c-6.8,6.3-14.6,10.7-23.1,14.1c-13.6,5.4-27.7,8.4-42.3,7.4c-15.4-1.1-30.2-4.6-43.5-12.9c-0.7-0.5-1.6-0.8-2.3-1.3
		c-2.8-1.8-3.7-0.7-3.5,2.2c0,0.1,0,0.3,0,0.4c-0.6,3.7,1.8,8.8-1.1,11c-2.4,1.8-7.1,0.6-10.8,0.6c-34.8,0-69.7-0.2-104.5,0.2
		C11,184,6.1,177.8,6.1,170.6c0.2-49,0.1-98,0.1-147.1c0-1.8-0.2-3.6-0.1-5.3c0.3-7.2,4.5-11.8,11.6-12C29.2,6,40.6,6.2,52,6
		c3.7-0.1,2.6,2.4,2.6,4.3c0,26.7,0,53.5,0,80.2c0,12.6,0,25.3,0,37.9c0,9.4,4.2,13.6,13.3,13.6c14.2,0,28.4,0,43.2,0
		c-2.8-5.7-5.7-10.9-7.5-16.5c-4.7-14.4-6.7-28.9-4.1-44c2.4-14.5,7.6-27.7,16.5-39.2c9.5-12.2,21.1-21.7,35.5-27.9
		c14.8-6.4,30.2-9,46.2-7.8c28.7,2.2,52,14.3,69,37.9c1.2,1.7,1.8,3.1,0.8,4.8c-10.1,17.2-20.2,34.3-30.3,51.4
		c-0.6,1-0.8,2.5-2.5,1.6c-1.3-0.6-1-1.9-1-3.1c0.9-18.6-5.6-34-21.5-44.1c-10.8-6.8-22.8-7.9-35.3-4c-14.4,4.5-23,14.6-27.6,28.2
		c-2.7,8.1-3.5,16.6-1.5,25.3c2.3,9.8,6.4,18.4,13.9,25.3c9.7,8.9,21.1,12.2,34,10.9c13.2-1.3,22.5-8.7,30.8-18.3
		c9.7-11.1,19.9-21.9,29.8-32.8c10.5-11.6,20.7-23.6,31.6-34.9c8.8-9,16.3-19.2,25.9-27.4c10-8.5,21.4-14,34.1-17.6
		c10.6-3,21.2-4,32-3.3c30.2,2.1,54.5,14.8,71.6,40.4c3.9,5.9,6.6,12.2,9.3,18.7c0.2,0.5,0.6,1,0.9,1.5C462.3,67,462.6,67,463,66.9z
		 M511.6,72.5c0,5,0.1,10.1,0,15.1c-0.1,2.6,0.6,3.7,3.5,3.6c7.2-0.2,14.5,0.5,21.7-0.2c17.8-1.6,24-13.9,20.7-29.8
		c-1.3-6.2-5.5-11.1-11.9-13c-8.3-2.5-16.9-2.6-25.4-1.3c-5.4,0.8-8.3,5.3-8.5,10.9C511.5,62.7,511.6,67.6,511.6,72.5z"/>
	<path d="M570.6,229c0-6.5,0-13,0-19.6c0-1.6,0-3.1,2.2-2.9c7.8,0.4,15.6-0.9,23.3,1.3c4.9,1.4,7,4.8,7.9,9.1
		c0.9,4.4-1,8.3-4.7,10.7c-2.8,1.9-2.8,2.6,0,4.5c3.5,2.2,3.2,6.4,3.8,10c0.4,2.3,0.3,4.7,0.5,7.1c0.1,1,1,2.1-0.8,2.4
		c-1.5,0.3-2.4-0.6-2.5-1.8c-0.3-2.5-0.6-5.1-0.3-7.5c0.7-6.6-2.6-10.7-10.2-10.4c-4.3,0.2-8.6,0.2-12.9,0c-2.9-0.2-3.9,0.8-3.8,3.7
		c0.2,4.4,0.1,8.9,0,13.3c0,1,0.6,2.8-1.3,2.7c-1.7-0.1-1.3-1.7-1.3-2.8C570.6,242,570.6,235.5,570.6,229
		C570.6,229,570.6,229,570.6,229z M583.4,228.9c3.4-0.2,7.4,0.2,11.3-1.1c4.6-1.5,6-4.9,6.1-9.1c0.2-4.3-1.8-7.1-6-8.5
		c-3.8-1.3-7.6-1.1-11.4-1.1c-10.2-0.1-10.2,0-10.2,10.1C573.2,228.8,573.2,228.8,583.4,228.9z"/>
	<path d="M32,228c5.8,2.2,9.1,5.8,8.6,12.2c-0.5,6.2-5,11.1-11.2,11.2c-6.4,0.2-12.7,0-19.1,0.1c-2,0-2.9-0.3-2.9-2.6
		c0.1-13.2,0.1-26.4,0-39.6c0-1.4,0-2.8,1.9-2.7c7.2,0.3,14.5-0.8,21.6,1c5.1,1.3,7.7,4.5,8.4,9.4c0.6,4.6-1.3,8-5.5,10.1
		C33.3,227.3,32.8,227.6,32,228z M20.8,230.1C20.8,230.1,20.8,230.1,20.8,230.1c-2.8,0-5.6,0-8.4-0.1c-1.9,0-3,0.4-3,2.7
		c0.1,4.7,0,9.5,0,14.3c0,1.2,0,2.7,1.6,2.6c7.3-0.4,14.8,1.9,21.8-1.9c3.6-1.9,6.2-6.4,5.4-9.8c-0.9-4-4.9-7.6-9.1-7.8
		C26.5,230,23.6,230.1,20.8,230.1z M18.7,227.5c4.4,0,8.9,0.4,13-1.6c3.7-1.8,4.5-5,4.3-8.8c-0.1-3.5-1.5-5.6-5.1-6.7
		c-4.1-1.3-8.1-1.3-12.2-1.3c-9.4,0-9.4,0-9.4,9.2C9.5,227.4,9.5,227.4,18.7,227.5z"/>
	<path d="M358.2,230.2c5.6,0,11.3,0,16.9,0c1.8,0,1.6,1.4,1.6,2.5c0,5.3,0,10.7-0.1,16c0,1,0.6,2.7-1.4,2.6c-1.6-0.1-1-1.5-1.1-2.5
		c-0.1-1.1,0.3-2.4-0.7-3.6c-2.7,2.3-5,5-8.6,6.3c-15.1,5.4-29.8-5.1-28.7-23.2c0.6-9.6,4-17.7,13.1-20.9c11.8-4,21.7-1.2,26.8,11
		c0.4,1,1,2.1-0.5,2.6c-1.5,0.5-2.1-0.5-2.5-1.8c-1.3-3.7-3.4-6.7-6.8-8.8c-9.8-6.1-19.8-1.3-24.6,7.1c-4.1,7.2-3.9,20,2,26.8
		c4.2,5,13.5,7.4,20.5,5.2c5.7-1.8,9.7-7.9,10-14.3c0.1-3-1.1-3.5-3.6-3.5c-4.1,0.1-8.2,0-12.3,0
		C358.2,231.3,358.2,230.8,358.2,230.2z"/>
	<path d="M492.1,251.4c-1.3-0.5-0.8-1.6-0.5-2.5c2.2-5.7,4.1-11.5,6.7-17.1c3.1-6.6,5.4-13.5,8.2-20.3c0.4-1,0.8-1.9,1.3-2.8
		c0.5-1,1-2.3,2.4-2.3c1.6,0,2.3,1.3,2.8,2.5c3.2,7.9,6.3,15.8,9.4,23.7c1.9,4.8,3.6,9.6,5.5,14.3c0.6,1.5,1.9,3.5,0.1,4.2
		c-2,0.8-2.2-1.8-2.9-3.1c-0.9-1.8-2.1-3.7-2.3-5.7c-0.6-4.8-3.4-5.5-7.5-5.2c-3.7,0.2-7.4,0.3-11.1,0c-3.9-0.3-6,1-6.8,5
		c-0.6,2.7-2,5.2-3.1,7.7C494,250.7,493.4,251.5,492.1,251.4z M510.3,209.8c-3.2,8.2-5.9,15.2-8.8,22.2c-0.8,1.9-0.8,2.8,1.5,2.7
		c4.9-0.1,9.8,0,14.7-0.1c1.3,0,2.4-0.1,1.6-2C516.4,225.3,513.5,218,510.3,209.8z"/>
	<path d="M135.6,232.4c10.9-9.1,19.7-19,30.9-26c-2,4.5-6.3,6.8-9.3,10.2c-1.2,1.4-2.8,2.5-4.1,3.9c-5.5,5.4-5.5,5.4-0.5,11.4
		c5.2,6.3,10.4,12.6,15.7,19.2c-2,1-3.1,0.6-4.4-0.9c-6.1-7.4-12.4-14.8-18.6-22.2c-0.3,0.1-0.6,0.2-0.8,0.3
		c-7.6,4.7-10.4,11.5-8.9,20.2c0.2,1,0.8,2.8-0.9,2.9c-2.1,0.2-1.6-1.7-1.6-2.9c0-13.1,0-26.1,0-39.2c0-1.1-0.3-2.7,1.4-2.7
		c1.9,0,1.2,1.7,1.2,2.7C135.6,216.6,135.6,224,135.6,232.4z"/>
	<path d="M239.5,251.5c-2.5,0-5.1,0-7.6,0c-6.5,0-13,0-19.6,0.1c-2.2,0-3.1-0.5-3.1-3c0.1-12.9,0.1-25.8,0-38.7
		c0-2.4,0.6-3.5,3.2-3.5c8.1,0.1,16.3-0.1,24.4-0.1c1.1,0,2.6-0.5,2.6,1.4c0,1.9-1.4,1.5-2.6,1.5c-7,0-13.9,0-20.9-0.1
		c-2.8-0.1-4,0.9-3.8,3.9c0.4,4.7-1.9,10.7,1.1,13.7c2.6,2.6,8.5,0.6,12.9,0.8c3.1,0.1,6.2,0,9.3,0c0.9,0,2.3-0.4,2.3,1.3
		c-0.1,1.5-1.3,1.3-2.4,1.3c-6.4,0-12.8,0.2-19.1-0.1c-3.4-0.1-4.4,1.1-4.2,4.3c0.3,3.7,0.3,7.4,0,11.1c-0.2,3.3,0.9,4.5,4.2,4.4
		c7.7-0.2,15.3-0.1,23-0.1C239.5,250.3,239.5,250.9,239.5,251.5z"/>
	<path d="M453.3,251.5c-10.1,0-19.7,0-29.2,0c-1.7,0-1.7-1.3-1.7-2.5c0-13.1,0-26.1,0-39.2c0-2.3,0.6-3.6,3.3-3.5
		c8.2,0.2,16.3,0.1,24.5,0.1c1.1,0,2.7-0.3,2.6,1.5c-0.1,1.6-1.7,1.3-2.8,1.3c-7.3,0-14.5,0-21.8-0.1c-2.6,0-3.7,0.8-3.5,3.6
		c0.2,3.7,0.2,7.4,0,11.1c-0.2,2.8,0.9,3.6,3.6,3.6c6.8-0.1,13.6,0,20.5,0c0.9,0,2.3-0.6,2.5,1c0.2,1.8-1.3,1.6-2.4,1.6
		c-6.8,0-13.6,0.1-20.5,0c-2.6,0-3.8,0.7-3.6,3.5c0.2,4.3,0.2,8.6,0,12.9c-0.1,2.5,0.7,3.4,3.3,3.3c7.7-0.1,15.4,0,23.1,0
		C451.6,249.8,452.4,249.6,453.3,251.5z"/>
	<path d="M84.9,228.9c0-6.7,0-13.4,0-20c0-0.8-0.5-2,0.8-2.2c1.4-0.2,1.5,1.1,1.5,2.1c0,13.4,0,26.7-0.1,40.1c0,1,0.2,2.4-1.2,2.4
		c-1.6,0-1-1.5-1-2.4C84.9,242.3,84.9,235.6,84.9,228.9C84.9,228.9,84.9,228.9,84.9,228.9z"/>
</g>
</svg>
