<?xml version="1.0" encoding="UTF-8"?>
<svg version="1.1" xmlns="http://www.w3.org/2000/svg" width="2048" height="548">
<path d="M0 0 C3.7560755 0.0031529 7.51135565 -0.02034745 11.26733398 -0.0456543 C25.63798145 -0.08402403 39.45900872 0.67601999 53.59350586 3.31567383 C54.78903076 3.53473389 55.98455566 3.75379395 57.21630859 3.97949219 C60.23411494 4.5754211 63.22493115 5.23362717 66.21850586 5.94067383 C67.82991455 6.32026245 67.82991455 6.32026245 69.47387695 6.70751953 C112.13253144 17.12646782 152.91560271 37.36778631 185.34350586 67.24926758 C187.32797406 69.07180869 189.35136478 70.82350941 191.40600586 72.56567383 C200.15888245 80.22001125 208.28486116 88.54162599 215.49584961 97.66333008 C216.87318331 99.40487493 218.28155794 101.12239911 219.72241211 102.81176758 C230.2519008 115.18721314 238.82331465 129.0812059 246.59350586 143.31567383 C247.25446038 144.49304013 247.91592791 145.67011858 248.57788086 146.84692383 C264.37443354 175.26923024 273.55302672 207.15806292 277.59350586 239.31567383 C277.69791992 240.0875 277.80233398 240.85932617 277.90991211 241.65454102 C287.56179118 313.89091445 265.28212058 386.32064151 221.48413086 443.64770508 C217.76317453 448.43161624 213.72038972 452.88189841 209.59350586 457.31567383 C208.5061022 458.58302609 207.42264992 459.8537812 206.34350586 461.12817383 C197.90275008 470.78033437 188.64615682 479.37083678 178.59350586 487.31567383 C177.73499023 488.04141602 176.87647461 488.7671582 175.99194336 489.51489258 C159.66679636 503.31180885 140.85886476 514.18377588 121.59350586 523.31567383 C120.90981934 523.64422363 120.22613281 523.97277344 119.52172852 524.3112793 C102.50418499 532.43355898 84.75153783 538.31335299 66.40600586 542.62817383 C65.4353418 542.85843262 64.46467773 543.08869141 63.46459961 543.32592773 C60.18415823 544.05939913 56.89893423 544.70389929 53.59350586 545.31567383 C52.52891144 545.51422974 52.52891144 545.51422974 51.44281006 545.71679688 C36.90049893 548.3416055 22.56391042 548.78268867 7.80981445 548.70678711 C4.098015 548.69069338 0.387304 548.70673512 -3.32446289 548.72583008 C-17.60489867 548.7390084 -31.35965935 547.92617944 -45.40649414 545.31567383 C-46.60242188 545.09669434 -47.79834961 544.87771484 -49.03051758 544.65209961 C-52.04781888 544.05580788 -55.03833081 543.39762332 -58.03149414 542.69067383 C-59.1057666 542.43761475 -60.18003906 542.18455566 -61.28686523 541.92382812 C-97.32499017 533.12187774 -130.72497217 517.55237524 -160.40649414 495.31567383 C-161.31987549 494.63770752 -161.31987549 494.63770752 -162.25170898 493.94604492 C-199.87080051 465.86245493 -229.34223136 428.32796985 -248.41772461 385.51831055 C-249.27173107 383.61587937 -250.16557623 381.73142487 -251.06665039 379.85083008 C-273.03976119 332.44750571 -278.22817833 269.02651569 -266.40649414 218.31567383 C-265.97191895 216.45120605 -265.97191895 216.45120605 -265.52856445 214.54907227 C-262.11355235 200.19777331 -258.32394899 185.85890556 -252.40649414 172.31567383 C-252.02122559 171.42750977 -251.63595703 170.5393457 -251.23901367 169.62426758 C-239.37178865 142.50428626 -224.98130922 116.48753188 -204.63696289 94.72192383 C-202.75427777 92.69086597 -200.93872409 90.62604167 -199.12915039 88.53051758 C-189.83487864 77.87765184 -179.64823162 67.89247627 -168.40649414 59.31567383 C-167.24216422 58.39934686 -166.0781205 57.48265615 -164.91430664 56.56567383 C-128.60873179 28.30987787 -85.72713331 9.94014169 -40.40649414 2.31567383 C-39.32053955 2.12803467 -38.23458496 1.94039551 -37.11572266 1.74707031 C-24.78996943 -0.09527436 -12.44098279 -0.02178806 0 0 Z " fill="#E9550D" transform="translate(270.406494140625,-0.315673828125)"/>
<path d="M0 0 C44.55 0 89.1 0 135 0 C136.80888433 4.82369155 138.39348583 9.08220154 139.61328125 13.984375 C139.88873779 15.07451904 140.16419434 16.16466309 140.44799805 17.2878418 C140.73328369 18.430354 141.01856934 19.57286621 141.3125 20.75 C143.43738861 29.11890519 145.64769973 37.4345815 148.1875 45.6875 C155 67.86464863 155 67.86464863 155 74 C155.66 74 156.32 74 157 74 C157.12906738 73.15542236 157.25813477 72.31084473 157.39111328 71.44067383 C158.01982224 67.88798925 158.84460913 64.44344621 159.7421875 60.94921875 C159.99574509 59.96185478 159.99574509 59.96185478 160.25442505 58.95454407 C160.61120462 57.56840485 160.96928878 56.18260082 161.32861328 54.79711914 C161.87046538 52.70500834 162.40619621 50.61139661 162.94140625 48.51757812 C164.5529828 42.25553736 166.22664109 36.05505819 168.35205078 29.94360352 C169.42892005 26.71340145 170.20079934 23.43502275 171 20.125 C171.33901966 18.74068334 171.67886821 17.35656941 172.01953125 15.97265625 C172.18404785 15.30250488 172.34856445 14.63235352 172.51806641 13.94189453 C173.21316215 11.14108829 173.94236907 8.35038012 174.6875 5.5625 C174.91824219 4.69753906 175.14898437 3.83257812 175.38671875 2.94140625 C176 1 176 1 177 0 C180.1050725 -0.09533653 183.18786458 -0.12551126 186.29321289 -0.11352539 C187.26871597 -0.11367142 188.24421906 -0.11381744 189.24928284 -0.1139679 C192.49042953 -0.11326833 195.73151954 -0.10547391 198.97265625 -0.09765625 C201.21325143 -0.09579222 203.45384702 -0.09436825 205.69444275 -0.09336853 C211.6045951 -0.08954213 217.51472305 -0.0797108 223.42486572 -0.06866455 C229.45055817 -0.05845306 235.47625453 -0.05387147 241.50195312 -0.04882812 C253.33464616 -0.03808864 265.16732106 -0.02101076 277 0 C277.22139648 1.25124664 277.44279297 2.50249329 277.67089844 3.79165649 C278.51229517 8.54526104 279.35508443 13.29861792 280.19824219 18.0519104 C280.55928448 20.08834471 280.91997559 22.12484132 281.28027344 24.16140747 C284.54470883 42.61105256 287.96960896 61.02770651 291.484375 79.43115234 C292.00105933 83.00733205 292.09282024 86.39219337 292 90 C292.66 90 293.32 90 294 90 C294.04798737 89.44085907 294.09597473 88.88171814 294.14541626 88.30563354 C294.64911115 83.09859251 295.5932601 78.21340061 297.0859375 73.1953125 C297.53994344 71.61525501 297.99265318 70.03482473 298.44433594 68.45410156 C298.69260132 67.58998657 298.9408667 66.72587158 299.19665527 65.83557129 C300.73615451 60.40159049 302.19328382 54.94508333 303.6640625 49.4921875 C304.31743572 47.08065529 304.97108488 44.66919782 305.625 42.2578125 C306.63180733 38.54348309 307.63744638 34.82885614 308.63964844 31.11328125 C309.6234011 27.46777766 310.61204867 23.82363091 311.6015625 20.1796875 C311.89850006 19.0743869 312.19543762 17.9690863 312.50137329 16.83029175 C312.78531952 15.78785309 313.06926575 14.74541443 313.36181641 13.67138672 C313.7289122 12.31386795 313.7289122 12.31386795 314.10342407 10.92892456 C315.23548582 7.23071746 316.64199635 3.62134307 318 0 C343.74 0 369.48 0 396 0 C395.30572848 4.85990067 394.55937511 8.95692278 393.21484375 13.59375 C392.85269775 14.85727295 392.49055176 16.1207959 392.11743164 17.42260742 C391.92504913 18.08714935 391.73266663 18.75169128 391.53445435 19.43637085 C387.6255776 32.9490826 383.99078504 46.51756275 380.56420898 60.16015625 C380.25555908 61.37960938 379.94690918 62.5990625 379.62890625 63.85546875 C379.2278064 65.45878052 379.2278064 65.45878052 378.81860352 67.09448242 C378.04769916 69.83069857 377.07429049 72.37176136 376 75 C375.51310193 76.87950908 375.02971143 78.7601129 374.57617188 80.64794922 C373.39333871 85.47651476 372.05078689 90.26464424 370.75 95.0625 C368.41531747 103.69752674 366.11806288 112.34073402 363.875 121 C360.85415688 132.63138091 357.71214716 144.22038105 354.30859375 155.74609375 C353.70556322 157.78901352 353.1027013 159.83198307 352.5 161.875 C352.19989014 162.89190918 351.89978027 163.90881836 351.59057617 164.95654297 C349.47681934 172.18839275 347.5540757 179.44831517 345.86132812 186.79052734 C344.04685967 194.43456592 341.52536961 201.42389118 339 209 C312.93 209 286.86 209 260 209 C256.0069452 188.94559533 256.0069452 188.94559533 254.3125 180.40234375 C253.15584281 174.57068678 251.99835249 168.7392038 250.8359375 162.90869141 C249.89893272 158.20853477 248.96563444 153.50765609 248.03491211 148.80625153 C247.67899757 147.01183046 247.32174351 145.21767456 246.96313477 143.42378998 C246.46146815 140.9130962 245.96455278 138.40150577 245.46875 135.88964844 C245.24433228 134.77510536 245.24433228 134.77510536 245.01538086 133.63804626 C244.36675195 130.32786994 244 127.39193795 244 124 C243.34 124 242.68 124 242 124 C241.87544434 124.83104248 241.75088867 125.66208496 241.62255859 126.51831055 C240.94561086 130.30417394 240.02787163 133.99403958 239.0390625 137.70703125 C238.84782806 138.43186203 238.65659363 139.15669281 238.45956421 139.90348816 C238.0557786 141.43089083 237.65061275 142.95792921 237.24414062 144.48461914 C236.62992094 146.79399795 236.02169468 149.10489599 235.4140625 151.41601562 C233.66287653 158.03937023 231.87930924 164.61701838 229.62597656 171.09106445 C228.54030818 174.40184491 227.81214684 177.78792004 227.0625 181.1875 C224.90891321 190.62805279 222.60248269 199.99379326 219 209 C186 209 153 209 119 209 C116.36 195.7175 113.72 182.435 111 168.75 C110.1646875 164.55764648 109.329375 160.36529297 108.46875 156.04589844 C107.453125 150.92236328 107.453125 150.92236328 106.97851562 148.52301025 C106.64658313 146.84874104 106.3131446 145.17476997 105.97851562 143.5010376 C105.47171037 140.9645974 104.96970378 138.42724987 104.46875 135.88964844 C104.3188562 135.14520351 104.1689624 134.40075859 104.01452637 133.63375473 C103.36619904 130.32500721 103 127.3904763 103 124 C102.34 124 101.68 124 101 124 C100.89478027 124.65701904 100.78956055 125.31403809 100.68115234 125.9909668 C99.47391735 133.10462722 97.71025424 139.91035866 95.625 146.8125 C94.99847341 148.92311045 94.37217019 151.03378722 93.74609375 153.14453125 C93.44558105 154.15080566 93.14506836 155.15708008 92.83544922 156.19384766 C91.76478907 159.79003929 90.72088066 163.39291657 89.6875 167 C89.40261719 167.99 89.11773437 168.98 88.82421875 170 C88.04026887 172.85342896 87.32035708 175.7185737 86.60913086 178.59082031 C85.27512084 183.86697697 83.84895446 189.11915102 82.4375 194.375 C82.12103516 195.56222656 81.80457031 196.74945313 81.47851562 197.97265625 C81.17494141 199.10316406 80.87136719 200.23367188 80.55859375 201.3984375 C80.28329834 202.42630371 80.00800293 203.45416992 79.72436523 204.51318359 C79 207 79 207 78 209 C33.45 209 -11.1 209 -57 209 C-55.87499722 199.99997779 -55.87499722 199.99997779 -54.98448181 196.74043274 C-54.78431458 195.99724289 -54.58414734 195.25405304 -54.37791443 194.48834229 C-54.1603096 193.70239685 -53.94270477 192.91645142 -53.71850586 192.10668945 C-53.48737091 191.25477524 -53.25623596 190.40286102 -53.01809692 189.52513123 C-52.25555307 186.71973309 -51.48525859 183.91652711 -50.71484375 181.11328125 C-50.17446611 179.13165262 -49.63456306 177.14989452 -49.09510803 175.16801453 C-47.67113887 169.94178612 -46.24054073 164.71739446 -44.80859375 159.49334717 C-43.38192933 154.28380288 -41.96180594 149.07247685 -40.54101562 143.86132812 C-37.60415274 133.09458313 -34.65695297 122.33069189 -31.70443726 111.56822968 C-31.03907305 109.14245211 -30.37419187 106.71654275 -29.70947266 104.29058838 C-28.60905489 100.27521697 -27.50609084 96.2605513 -26.40234375 92.24609375 C-26.0987645 91.13889481 -25.79518524 90.03169586 -25.48240662 88.89094543 C-23.2050951 80.62796771 -20.76464585 72.42070828 -18.2265625 64.234375 C-17.12798822 60.58383837 -16.28572054 56.91029042 -15.48730469 53.18408203 C-14.72616791 49.77269445 -13.77120454 46.42273162 -12.8125 43.0625 C-11.23638098 37.48560303 -9.70126381 31.90052016 -8.22265625 26.296875 C-7.91674561 25.14179443 -7.61083496 23.98671387 -7.2956543 22.79663086 C-6.69267014 20.51469319 -6.09371988 18.23168487 -5.49926758 15.94750977 C-5.21849365 14.88846436 -4.93771973 13.82941895 -4.6484375 12.73828125 C-4.40270996 11.80024658 -4.15698242 10.86221191 -3.90380859 9.89575195 C-2.84731837 6.51081664 -1.3968291 3.25926789 0 0 Z " fill="#FEFEFD" transform="translate(105,165)"/>
<path d="M0 0 C1.97481441 -0.00958531 3.94948657 -0.04071957 5.92407227 -0.07226562 C23.82926868 -0.14406591 39.85128128 4.90218352 55.57446289 13.24023438 C55.90446289 8.95023438 56.23446289 4.66023437 56.57446289 0.24023438 C76.37446289 0.24023438 96.17446289 0.24023438 116.57446289 0.24023438 C116.64232278 25.50186079 116.6975277 50.7634128 116.72989941 76.02510738 C116.74533321 87.75594801 116.76635572 99.48672776 116.80078125 111.2175293 C116.83079072 121.44844356 116.8500632 131.6793137 116.85672837 141.91027075 C116.86062115 147.32171028 116.8696962 152.73302365 116.89165306 158.14442253 C116.91220109 163.25056839 116.91826014 168.35653759 116.91378593 173.46272087 C116.91460302 175.3245439 116.92045851 177.18637361 116.93207932 179.04816055 C117.0918041 205.98720067 111.2765282 231.5519575 94.57446289 253.24023438 C93.88481445 254.14515625 93.19516602 255.05007813 92.48461914 255.98242188 C75.2778803 277.81592881 49.15051328 292.98844145 21.50415039 296.64648438 C18.52574852 296.9264386 15.56317758 297.11356037 12.57446289 297.24023438 C11.16100586 297.30210937 11.16100586 297.30210937 9.71899414 297.36523438 C-17.85078112 297.96053317 -43.01528909 288.2902493 -64.42553711 271.24023438 C-65.15772461 270.66402344 -65.88991211 270.0878125 -66.64428711 269.49414062 C-79.7045651 258.68831538 -90.63026849 242.19426799 -96.42553711 226.24023438 C-96.42553711 224.92023438 -96.42553711 223.60023438 -96.42553711 222.24023438 C-87.69782443 222.07759343 -78.97063825 221.95344027 -70.24173737 221.87754917 C-66.18787371 221.84111288 -62.13505146 221.79174444 -58.08178711 221.7121582 C-54.16539884 221.63574631 -50.25000803 221.59417194 -46.33293152 221.57609367 C-44.84336147 221.5632217 -43.35384223 221.53808429 -41.86470032 221.50012398 C-28.74607611 221.17920339 -28.74607611 221.17920339 -23.61499023 225.67626953 C-22.53945684 226.85305933 -21.47427813 228.03950603 -20.42553711 229.24023438 C-14.85275133 232.77992534 -8.9241116 235.12797836 -2.42553711 236.24023438 C-1.35819336 236.45873047 -1.35819336 236.45873047 -0.26928711 236.68164062 C11.18019658 238.49447554 23.87594077 235.41666162 33.57446289 229.24023438 C34.32985352 228.78261719 35.08524414 228.325 35.86352539 227.85351562 C46.12093185 220.85662496 52.17173142 208.89994362 55.57446289 197.24023438 C54.65407227 197.69914063 53.73368164 198.15804687 52.78540039 198.63085938 C44.20200751 202.82426396 35.89048458 205.99117193 26.57446289 208.24023438 C25.94427246 208.41611084 25.31408203 208.5919873 24.66479492 208.77319336 C17.56558381 210.61095575 10.50124002 210.66533045 3.19946289 210.67773438 C2.53827454 210.67913422 1.87708618 210.68053406 1.19586182 210.68197632 C-10.3159522 210.66198872 -20.62070746 209.2247581 -31.42553711 205.24023438 C-32.55733398 204.83289063 -33.68913086 204.42554688 -34.85522461 204.00585938 C-55.72922211 195.82622677 -74.58652818 181.45239824 -86.42553711 162.24023438 C-87.0069043 161.34175781 -87.58827148 160.44328125 -88.18725586 159.51757812 C-102.37941214 136.6438859 -106.66949825 107.768428 -100.80053711 81.49023438 C-94.05243998 54.45806115 -77.15449697 30.31932041 -53.41381836 15.56054688 C-41.9970896 8.77558639 -30.39858271 4.06810269 -17.42553711 1.24023438 C-16.67038818 1.06516357 -15.91523926 0.89009277 -15.13720703 0.7097168 C-10.13368954 -0.1565625 -5.0662678 0.01480103 0 0 Z M-3.86694336 54.41210938 C-16.20694833 55.9569088 -28.66665769 62.52184204 -36.42553711 72.24023438 C-36.88959961 72.78035156 -37.35366211 73.32046875 -37.83178711 73.87695312 C-47.11306221 85.56343671 -48.53863284 99.89124889 -47.42553711 114.24023438 C-45.25484137 126.57135533 -38.53060919 138.65370473 -28.42553711 146.24023438 C-20.06957611 151.4398635 -11.34800139 155.54169289 -1.42553711 156.24023438 C-0.67143555 156.29695313 0.08266602 156.35367188 0.85961914 156.41210938 C14.83393928 156.90503072 27.51245093 151.93427021 38.07446289 142.86523438 C48.57857359 132.61899873 54.00233511 119.89652854 54.19946289 105.24023438 C53.97213841 90.62918668 48.58360251 79.06592402 38.77368164 68.25585938 C29.15558517 58.94669534 16.25048722 54.43332192 3.07446289 53.99023438 C0.75424182 54.07207639 -1.55112604 54.24907584 -3.86694336 54.41210938 Z " fill="#363A36" transform="translate(1278.425537109375,164.759765625)"/>
<path d="M0 0 C69.71153846 0 69.71153846 0 94.0612793 23.6315918 C95.53716494 25.33180123 96.99036784 27.05201895 98.41796875 28.79296875 C100.08846502 30.73256657 101.76089057 32.67050416 103.43505859 34.60693359 C104.26269714 35.57765808 105.09033569 36.54838257 105.9430542 37.54852295 C110.27863677 42.55307661 114.8131736 47.36846063 119.33203125 52.20703125 C128.08582185 61.63641295 136.61835649 71.23891017 145 81 C150.09394634 76.82519284 154.41406121 72.45275045 158.66381836 67.43408203 C165.16276914 59.87570385 171.82448423 52.48650599 178.59529781 45.17085457 C182.66499496 40.75988727 186.65680255 36.31338205 190.51293945 31.71386719 C191.65729084 30.36998932 191.65729084 30.36998932 192.82476044 28.9989624 C194.22344961 27.34966461 195.60452166 25.68508151 196.95874786 23.99908447 C205.66398223 13.82064654 215.56712261 8.26228162 227 0 C248.12 0 269.24 0 291 0 C291 69.3 291 138.6 291 210 C269.88 210 248.76 210 227 210 C226.67 171.06 226.34 132.12 226 92 C200.16750294 118.03054706 200.16750294 118.03054706 174.36230469 144.08813477 C169.36572266 149.1072998 169.36572266 149.1072998 167.0256958 151.45152283 C165.38875786 153.09615414 163.75678894 154.74574009 162.12872314 156.39915466 C159.66596198 158.89833983 157.18803887 161.38149713 154.70605469 163.86157227 C153.98034649 164.60527101 153.25463829 165.34896975 152.50693893 166.11520481 C151.83810307 166.7771532 151.1692672 167.43910158 150.48016357 168.12110901 C149.90127758 168.70460397 149.32239159 169.28809893 148.72596359 169.88927555 C147 171 147 171 144.99762726 170.87252045 C142.67600147 169.85848444 141.34460473 168.71401411 139.55780029 166.91856384 C138.89736095 166.26225699 138.23692162 165.60595015 137.55646896 164.92975521 C136.84012913 164.20262105 136.12378929 163.47548689 135.38574219 162.72631836 C134.22529325 161.56641183 134.22529325 161.56641183 133.04140091 160.38307285 C130.53616339 157.87559422 128.04140009 155.35797504 125.546875 152.83984375 C124.00279593 151.29135447 122.45804111 149.74353872 120.91259766 148.19641113 C115.1835305 142.4516079 109.46756103 136.6937549 103.75 130.9375 C90.9625 118.088125 78.175 105.23875 65 92 C64.67 130.94 64.34 169.88 64 210 C42.88 210 21.76 210 0 210 C0 140.7 0 71.4 0 0 Z " fill="#363A36" transform="translate(641,165)"/>
<path d="M0 0 C0.67601257 -0.00261841 1.35202515 -0.00523682 2.04852295 -0.00793457 C12.55170059 -0.01230296 21.74187213 0.85108959 31.6875 4.3125 C32.79996094 4.64765625 33.91242188 4.9828125 35.05859375 5.328125 C40.72626113 7.07629168 45.68308037 9.12786932 50.6875 12.3125 C51.0175 8.3525 51.3475 4.3925 51.6875 0.3125 C69.8375 0.3125 87.9875 0.3125 106.6875 0.3125 C106.6875 69.6125 106.6875 138.9125 106.6875 210.3125 C88.5375 210.3125 70.3875 210.3125 51.6875 210.3125 C51.3575 206.3525 51.0275 202.3925 50.6875 198.3125 C49.77871094 198.77140625 48.86992188 199.2303125 47.93359375 199.703125 C39.01695948 204.09561463 30.39659398 207.13672713 20.6875 209.3125 C19.92872559 209.4875708 19.16995117 209.6626416 18.38818359 209.84301758 C2.59643966 212.58822853 -16.20473421 211.47713559 -31.3125 206.3125 C-32.25488525 205.99901611 -32.25488525 205.99901611 -33.21630859 205.67919922 C-46.24585936 201.25650655 -60.38897631 194.02087954 -70.3125 184.3125 C-70.3125 183.6525 -70.3125 182.9925 -70.3125 182.3125 C-70.88613281 182.07144531 -71.45976563 181.83039063 -72.05078125 181.58203125 C-87.53865494 172.88849248 -96.8716187 150.32837768 -101.52368164 134.02758789 C-103.64481578 126.15076135 -105.14042752 118.49823369 -105.3125 110.3125 C-105.35117187 109.53648437 -105.38984375 108.76046875 -105.4296875 107.9609375 C-106.30082792 79.01971673 -95.09240678 52.52991824 -75.46533203 31.48876953 C-55.52505927 10.77331088 -28.42255706 0.10440974 0 0 Z M-37.47265625 70.6015625 C-47.35664925 82.73837526 -51.56537327 95.6814145 -50.3125 111.3125 C-48.02610948 126.10679162 -41.13197855 138.20200646 -29.3125 147.3125 C-17.25238721 155.43046977 -3.49774245 158.02507277 10.75 155.5625 C22.76849345 152.85833897 33.98607126 145.95493923 41.6875 136.3125 C49.91841065 123.22081534 53.83207418 109.28820174 50.40625 93.89453125 C46.30224188 79.15132817 37.58837001 67.19444424 24.23828125 59.59765625 C3.62059217 49.20987722 -21.67139086 53.85736445 -37.47265625 70.6015625 Z " fill="#363A36" transform="translate(1053.3125,164.6875)"/>
<path d="M0 0 C0.6482373 0.20898926 1.29647461 0.41797852 1.96435547 0.63330078 C28.82337339 9.66751316 50.12117012 29.16783636 63.56640625 53.87890625 C70.86731498 69.23599014 74.12086861 84.48518605 74.25 101.4375 C74.2641394 102.85977905 74.2641394 102.85977905 74.27856445 104.31079102 C74.27429443 105.21756592 74.27002441 106.12434082 74.265625 107.05859375 C74.26336914 107.86611084 74.26111328 108.67362793 74.25878906 109.50561523 C74 112 74 112 72 118 C22.17 118 -27.66 118 -79 118 C-71.65144067 132.69711866 -64.23199297 142.61632199 -48.75 148.875 C-34.88370968 153.0348871 -20.16443705 151.93515223 -7.3125 145.25 C-4.70540646 143.80300072 -2.3999996 142.3870724 -0.25164795 140.30815125 C6.4857917 134.09241956 12.34536493 134.06736491 21.22265625 134.31640625 C22.57740195 134.3294894 23.93218115 134.33944072 25.28697205 134.34642029 C28.82402708 134.37293499 32.35901581 134.4415018 35.89526367 134.51934814 C39.51517798 134.59142428 43.13543177 134.62302537 46.75585938 134.65820312 C53.83807636 134.73289834 60.9189021 134.85210083 68 135 C67.18356845 139.63990311 65.49582627 143.50902311 63.375 147.6875 C63.015271 148.39793457 62.65554199 149.10836914 62.28491211 149.84033203 C50.65680051 172.35940002 31.3369466 189.87194591 7.9375 199.375 C7.14738525 199.69678223 6.35727051 200.01856445 5.54321289 200.35009766 C-6.53483916 205.01457155 -18.27673637 206.58227907 -31.125 206.5 C-31.84789215 206.49856995 -32.5707843 206.49713989 -33.31558228 206.4956665 C-45.14210852 206.43788138 -55.8907651 205.222743 -67 201 C-68.86011719 200.33097656 -68.86011719 200.33097656 -70.7578125 199.6484375 C-83.87074577 194.48972309 -94.93311312 186.78354735 -105 177 C-105.81984375 176.25363281 -106.6396875 175.50726563 -107.484375 174.73828125 C-124.80784982 158.46389885 -136.09297621 134.20994047 -137.1105957 110.41381836 C-137.76771448 78.69595335 -130.42141092 51.94425148 -108.296875 28.33203125 C-80.37561008 -0.01659997 -38.59956077 -12.44685614 0 0 Z M-65.6484375 62.64453125 C-68.78151 65.78280819 -71.33929085 69.4523878 -74 73 C-46.28 73 -18.56 73 10 73 C3.73937517 62.04390656 -4.88937359 55.59392654 -17 52 C-34.95932585 48.20014264 -51.17436546 50.98071718 -65.6484375 62.64453125 Z " fill="#363A36" transform="translate(1548,169)"/>
<path d="M0 0 C21.70844704 16.66352625 38.45924799 40.19657426 42.3203125 67.77734375 C42.4116312 70.44953577 42.46074527 73.09430194 42.453125 75.765625 C42.45408173 76.50942917 42.45503845 77.25323334 42.45602417 78.01957703 C42.45670096 79.58019089 42.45488182 81.14080765 42.45068359 82.70141602 C42.44529003 85.09983531 42.45066486 87.49807056 42.45703125 89.89648438 C42.45637112 91.415365 42.45509132 92.93424551 42.453125 94.453125 C42.45514923 95.17284988 42.45717346 95.89257477 42.45925903 96.6341095 C42.43528997 101.66236628 42.43528997 101.66236628 41.3203125 102.77734375 C39.37136291 102.87399342 37.41885795 102.89921496 35.46751404 102.89759827 C34.19560211 102.89897293 32.92369019 102.9003476 31.61323547 102.90176392 C30.19064308 102.8982243 28.76805092 102.89458948 27.34545898 102.89086914 C25.85764569 102.89058728 24.36983226 102.89074499 22.88201904 102.89131165 C18.8305425 102.89159965 14.7790953 102.88570242 10.72762561 102.87873769 C6.49819253 102.87250467 2.26875886 102.87190039 -1.9606781 102.87071228 C-9.97528472 102.86759881 -17.98987777 102.85938521 -26.00447839 102.84936279 C-35.12645434 102.83820214 -44.24843092 102.83269133 -53.37041199 102.82766736 C-72.1401782 102.81720261 -90.90993176 102.79960287 -109.6796875 102.77734375 C-108.73385357 104.70901518 -107.78342485 106.63843727 -106.83105469 108.56689453 C-106.03788849 110.17892258 -106.03788849 110.17892258 -105.22869873 111.82351685 C-99.28324555 123.16096825 -88.90219063 130.44964715 -76.8828125 134.234375 C-62.91320501 137.67723926 -48.96157429 136.06883971 -36.23629761 129.3692627 C-33.56357138 127.70504197 -31.5522354 125.81108523 -29.27001953 123.65039062 C-22.93250674 118.53775564 -17.24315023 118.74231154 -9.359375 118.99609375 C-8.00606666 119.01105069 -6.65271442 119.02242137 -5.29934692 119.03039551 C-1.77022609 119.06066246 1.75617902 119.13898603 5.28424072 119.22802734 C8.89745353 119.31048211 12.51111369 119.34653246 16.125 119.38671875 C23.1912023 119.47202019 30.25557834 119.60820205 37.3203125 119.77734375 C33.51288724 140.09420563 16.83141705 159.75069161 0.3203125 171.58984375 C-1.33389332 172.67164184 -3.00098415 173.73396505 -4.6796875 174.77734375 C-5.57945312 175.36 -6.47921875 175.94265625 -7.40625 176.54296875 C-24.090592 186.88636136 -42.26814719 191.40245391 -61.8046875 191.27734375 C-62.52757965 191.2759137 -63.2504718 191.27448364 -63.99526978 191.27301025 C-75.81406806 191.21526289 -86.58168938 190.01734103 -97.6796875 185.77734375 C-98.32373535 185.54208984 -98.9677832 185.30683594 -99.63134766 185.06445312 C-126.5386276 175.08504815 -147.81252132 153.77236854 -159.88671875 128.0390625 C-164.28793472 118.03417632 -167.47087277 106.74011708 -167.6796875 95.77734375 C-167.70820801 94.71410889 -167.70820801 94.71410889 -167.73730469 93.62939453 C-168.52724098 61.24848125 -159.36068787 34.23233841 -136.9296875 10.58984375 C-100.24950203 -24.66198559 -41.56557398 -30.25587129 0 0 Z M-98.6796875 49.77734375 C-100.6596875 52.41734375 -102.6396875 55.05734375 -104.6796875 57.77734375 C-76.9596875 57.77734375 -49.2396875 57.77734375 -20.6796875 57.77734375 C-25.81576182 47.50519511 -34.48304047 41.69590382 -44.9921875 37.40234375 C-63.67258633 31.22876465 -84.7517632 35.82628337 -98.6796875 49.77734375 Z " fill="#363A36" transform="translate(2005.6796875,184.22265625)"/>
<path d="M0 0 C18.48 0 36.96 0 56 0 C56.33 8.58 56.66 17.16 57 26 C60.96 21.545 60.96 21.545 65 17 C78.96891102 5.47438464 94.57582896 -0.60625442 112.6875 -0.5 C113.82654785 -0.49427979 114.9655957 -0.48855957 116.13916016 -0.48266602 C135.23591865 -0.08047219 150.51013746 7.53367998 164 21 C164.62519531 21.61359375 165.25039062 22.2271875 165.89453125 22.859375 C180.56873433 38.36169338 184.17264422 57.71974723 184.11352539 78.37084961 C184.11324298 79.72161863 184.11340231 81.07238781 184.1139679 82.42315674 C184.11425377 86.07346584 184.10839106 89.7237418 184.10139394 93.37404323 C184.09512536 97.19504422 184.09455383 101.01604605 184.09336853 104.83705139 C184.09026553 112.06522449 184.08206607 119.29338239 184.07201904 126.52154881 C184.05873122 136.29423289 184.05334966 146.06692116 184.04751682 155.83961201 C184.03812547 171.22641938 184.01819966 186.61319469 184 202 C162.88 202 141.76 202 120 202 C119.96261719 193.73066406 119.92523437 185.46132813 119.88671875 176.94140625 C119.85258226 171.02857065 119.81658992 165.11576912 119.77792263 159.20296383 C119.7281122 151.54849451 119.68264326 143.89408112 119.65356445 136.23950195 C119.62805479 129.52854147 119.58709936 122.81783606 119.53681374 116.10700798 C119.52015664 113.54946634 119.50863519 110.99188581 119.50238609 108.43429756 C119.49273282 104.84601515 119.46465711 101.25830651 119.43237305 97.67016602 C119.43380814 96.61783783 119.43524323 95.56550964 119.4367218 94.48129272 C119.31814619 85.13367759 117.19863829 76.27000787 111 69 C102.61072132 62.00634993 94.78472977 60.15004068 84 61 C76.38903637 62.22017036 71.12289196 66.38333532 66 72 C60.78338179 79.41308904 60.69868496 86.87560172 60.68115234 95.62670898 C60.66608391 97.35462425 60.66608391 97.35462425 60.65071106 99.1174469 C60.61991585 102.91032429 60.60285381 106.7031312 60.5859375 110.49609375 C60.56722294 113.13168442 60.54764932 115.76726911 60.5272522 118.40284729 C60.48056882 124.62162397 60.44377441 130.84041779 60.41057932 137.0592795 C60.36852321 144.83841011 60.31318416 152.6174391 60.2578125 160.39648438 C60.15915926 174.264267 60.08051661 188.13207389 60 202 C40.2 202 20.4 202 0 202 C0 135.34 0 68.68 0 0 Z " fill="#363A36" transform="translate(1638,165)"/>
<path d="M0 0 C33 0 66 0 100 0 C102.64 14.85 105.28 29.7 108 45 C111.22088627 62.21974356 111.22088627 62.21974356 114.484375 79.43115234 C115.00105933 83.00733205 115.09282024 86.39219337 115 90 C115.66 90 116.32 90 117 90 C117.04798737 89.44085907 117.09597473 88.88171814 117.14541626 88.30563354 C117.64911115 83.09859251 118.5932601 78.21340061 120.0859375 73.1953125 C120.53994344 71.61525501 120.99265318 70.03482473 121.44433594 68.45410156 C121.69260132 67.58998657 121.9408667 66.72587158 122.19665527 65.83557129 C123.73615451 60.40159049 125.19328382 54.94508333 126.6640625 49.4921875 C127.31743572 47.08065529 127.97108488 44.66919782 128.625 42.2578125 C129.63180733 38.54348309 130.63744638 34.82885614 131.63964844 31.11328125 C132.6234011 27.46777766 133.61204867 23.82363091 134.6015625 20.1796875 C134.89850006 19.0743869 135.19543762 17.9690863 135.50137329 16.83029175 C135.78531952 15.78785309 136.06926575 14.74541443 136.36181641 13.67138672 C136.7289122 12.31386795 136.7289122 12.31386795 137.10342407 10.92892456 C138.23548582 7.23071746 139.64199635 3.62134307 141 0 C166.74 0 192.48 0 219 0 C218.30572848 4.85990067 217.55937511 8.95692278 216.21484375 13.59375 C215.85269775 14.85727295 215.49055176 16.1207959 215.11743164 17.42260742 C214.92504913 18.08714935 214.73266663 18.75169128 214.53445435 19.43637085 C210.6255776 32.9490826 206.99078504 46.51756275 203.56420898 60.16015625 C203.25555908 61.37960938 202.94690918 62.5990625 202.62890625 63.85546875 C202.2278064 65.45878052 202.2278064 65.45878052 201.81860352 67.09448242 C201.04769916 69.83069857 200.07429049 72.37176136 199 75 C198.51310193 76.87950908 198.02971143 78.7601129 197.57617188 80.64794922 C196.39333871 85.47651476 195.05078689 90.26464424 193.75 95.0625 C191.41531747 103.69752674 189.11806288 112.34073402 186.875 121 C183.85415688 132.63138091 180.71214716 144.22038105 177.30859375 155.74609375 C176.70556322 157.78901352 176.1027013 159.83198307 175.5 161.875 C175.19989014 162.89190918 174.89978027 163.90881836 174.59057617 164.95654297 C172.47681934 172.18839275 170.5540757 179.44831517 168.86132812 186.79052734 C167.04685967 194.43456592 164.52536961 201.42389118 162 209 C135.93 209 109.86 209 83 209 C79.0069452 188.94559533 79.0069452 188.94559533 77.3125 180.40234375 C76.15584281 174.57068678 74.99835249 168.7392038 73.8359375 162.90869141 C72.89893272 158.20853477 71.96563444 153.50765609 71.03491211 148.80625153 C70.67899757 147.01183046 70.32174351 145.21767456 69.96313477 143.42378998 C69.46146815 140.9130962 68.96455278 138.40150577 68.46875 135.88964844 C68.31913818 135.14661972 68.16952637 134.403591 68.01538086 133.63804626 C67.36675195 130.32786994 67 127.39193795 67 124 C66.34 124 65.68 124 65 124 C67.11445024 115.33975169 69.3273606 106.73341723 71.81640625 98.171875 C73.3701306 92.76030057 74.79858466 87.31468727 76.25 81.875 C79.04770889 71.40309911 81.99941487 60.98231886 85.00976562 50.56982422 C87.70902183 41.16828864 90.19661362 31.72051348 92.56640625 22.23071289 C94.39927599 14.97992985 96.61995944 8.14012169 99 1 C66.33 1 33.66 1 0 1 C0 0.67 0 0.34 0 0 Z " fill="#FEFDFD" transform="translate(282,165)"/>
<path d="M0 0 C33 0 66 0 100 0 C97.75452044 11.2273978 97.75452044 11.2273978 96.51953125 15.27734375 C96.24625 16.18871094 95.97296875 17.10007813 95.69140625 18.0390625 C95.40136719 18.99554688 95.11132812 19.95203125 94.8125 20.9375 C92.18795102 29.74848587 89.76649173 38.59038704 87.5 47.5 C85.02890975 57.20393878 82.34435165 66.81874237 79.48876953 76.41601562 C77.37939434 83.55617313 75.52904655 90.73342947 73.77734375 97.96850586 C72.19563393 104.42169863 70.2906669 110.72227223 68.2109375 117.03125 C66.89110754 121.18653284 65.87454843 125.40864708 64.83447266 129.64111328 C63.45690779 135.18603353 61.98953224 140.70698053 60.52050781 146.22827148 C59.99797986 148.19510396 59.47945908 150.16296744 58.9609375 152.13085938 C57.35800364 158.16021555 55.68475026 164.11102248 53.64794922 170.00756836 C52.56123973 173.34917956 51.81856506 176.75881399 51.0625 180.1875 C48.90891321 189.62805279 46.60248269 198.99379326 43 208 C10.33 208 -22.34 208 -56 208 C-53.76352705 195.6993988 -53.76352705 195.6993988 -52.25 190.6875 C-50.43726221 184.5417124 -48.73232222 178.37363718 -47.0625 172.1875 C-45.30764184 165.70355918 -43.50138699 159.24371531 -41.5625 152.8125 C-38.99228014 144.26155603 -36.80981749 135.61454225 -34.5949707 126.96606445 C-32.57100607 119.10013895 -30.3957045 111.30000949 -28.0546875 103.5234375 C-26.61256401 98.70567682 -25.30268707 93.85683909 -24 89 C-23.76667969 88.15824219 -23.53335938 87.31648438 -23.29296875 86.44921875 C-21.84007547 81.20481787 -20.48244695 75.94394207 -19.1796875 70.66015625 C-17.09783142 62.28040782 -14.84990555 53.95059245 -12.5625 45.625 C-12.16443329 44.17109336 -11.76648526 42.71715422 -11.36865234 41.26318359 C-8.95637498 32.45362671 -6.52902264 23.648281 -4.0703125 14.8515625 C-2.69595844 9.90589424 -1.35060201 4.95220737 0 0 Z " fill="#FEFEFE" transform="translate(281,166)"/>
<path d="M0 0 C2.20337111 3.30505666 2.93839263 6.32704439 3.8125 10.125 C5.17815171 15.82469017 6.67840298 21.45259909 8.375 27.0625 C11.27803113 36.71124379 13.76714369 46.4630985 16.27050781 56.22167969 C17.27813177 60.05928363 18.35712769 63.87628009 19.44482422 67.69189453 C20 70 20 70 20 73 C20.66 73 21.32 73 22 73 C21.23946809 77.290392 20.01789532 81.40161264 18.75 85.5625 C16.82541921 91.98221137 15.09579632 98.42854701 13.5 104.9375 C11.57808705 112.76826499 9.5022574 120.53999141 7.31640625 128.30078125 C6.10533853 132.60241298 4.9341625 136.91428094 3.76708984 141.22802734 C1.54185582 149.45048662 -0.74637134 157.6465931 -3.17578125 165.81103516 C-5.33002279 173.06606496 -7.34338973 180.35861849 -9.35302734 187.65478516 C-10.5002016 191.81318361 -11.65699867 195.96890932 -12.8125 200.125 C-13.23571721 201.64842635 -13.65889817 203.17186278 -14.08203125 204.6953125 C-14.53642578 206.33113281 -14.53642578 206.33113281 -15 208 C-15.33 208 -15.66 208 -16 208 C-18.0906191 197.50888177 -20.17714129 187.01695791 -22.25842285 176.523983 C-23.22495144 171.65181501 -24.19289421 166.77993687 -25.1640625 161.90869141 C-26.10106728 157.20853477 -27.03436556 152.50765609 -27.96508789 147.80625153 C-28.32100243 146.01183046 -28.67825649 144.21767456 -29.03686523 142.42378998 C-29.53853185 139.9130962 -30.03544722 137.40150577 -30.53125 134.88964844 C-30.68086182 134.14661972 -30.83047363 133.403591 -30.98461914 132.63804626 C-31.63324805 129.32786994 -32 126.39193795 -32 123 C-32.66 123 -33.32 123 -34 123 C-29.95791988 106.40369457 -25.48023415 89.93914031 -20.625 73.5625 C-17.82801415 64.11495546 -15.30697907 54.60884189 -12.875 45.0625 C-10.1333521 34.30287116 -7.27325606 23.61187285 -4 13 C-3.60257515 11.69930715 -3.20544155 10.39852528 -2.80859375 9.09765625 C-1.87907932 6.06296977 -0.94337654 3.03039948 0 0 Z " fill="#F5B99C" transform="translate(240,166)"/>
<path d="M0 0 C33 0 66 0 100 0 C102.64 14.85 105.28 29.7 108 45 C111.22088627 62.21974356 111.22088627 62.21974356 114.484375 79.43115234 C115.00105933 83.00733205 115.09282024 86.39219337 115 90 C115.66 90.33 116.32 90.66 117 91 C116.57589844 92.21171875 116.15179688 93.4234375 115.71484375 94.671875 C113.67841455 100.78235699 112.13538265 107.00729502 110.5625 113.25 C108.56876751 121.16220577 106.41932073 128.97626194 103.97973633 136.76269531 C102.33034127 142.21272732 100.95616133 147.73012565 99.5625 153.25 C97.26818788 162.2206255 94.85974605 171.13039096 92.19140625 179.99609375 C90.39928579 185.96135877 88.76775378 191.9720277 87.11328125 197.9765625 C86.09875352 201.6578741 85.05475766 205.33002128 84 209 C83.67 209 83.34 209 83 209 C80.9093809 198.50888177 78.82285871 188.01695791 76.74157715 177.523983 C75.77504856 172.65181501 74.80710579 167.77993687 73.8359375 162.90869141 C72.89893272 158.20853477 71.96563444 153.50765609 71.03491211 148.80625153 C70.67899757 147.01183046 70.32174351 145.21767456 69.96313477 143.42378998 C69.46146815 140.9130962 68.96455278 138.40150577 68.46875 135.88964844 C68.31913818 135.14661972 68.16952637 134.403591 68.01538086 133.63804626 C67.36675195 130.32786994 67 127.39193795 67 124 C66.34 124 65.68 124 65 124 C67.11445024 115.33975169 69.3273606 106.73341723 71.81640625 98.171875 C73.3701306 92.76030057 74.79858466 87.31468727 76.25 81.875 C79.04770889 71.40309911 81.99941487 60.98231886 85.00976562 50.56982422 C87.70902183 41.16828864 90.19661362 31.72051348 92.56640625 22.23071289 C94.39927599 14.97992985 96.61995944 8.14012169 99 1 C66.33 1 33.66 1 0 1 C0 0.67 0 0.34 0 0 Z " fill="#F5B99C" transform="translate(282,165)"/>
</svg>
