<?xml version="1.0" encoding="UTF-8"?>
<svg version="1.1" xmlns="http://www.w3.org/2000/svg" width="691" height="200">
<path d="M0 0 C228.03 0 456.06 0 691 0 C691 66 691 132 691 200 C462.97 200 234.94 200 0 200 C0 134 0 68 0 0 Z " fill="#FDFDFD" transform="translate(0,0)"/>
<path d="M0 0 C1.03889877 -0.00200912 1.03889877 -0.00200912 2.0987854 -0.00405884 C20.10436299 0.0034191 38.58718261 1.14696547 55.9375 6.25 C56.74106934 6.47671387 57.54463867 6.70342773 58.37255859 6.93701172 C75.4440974 11.79585776 88.82877112 18.33007325 102.9375 29.25 C103.77152344 29.87777344 104.60554688 30.50554688 105.46484375 31.15234375 C109.93234882 34.94231251 113.33198278 39.65819093 116.9375 44.25 C117.75734375 45.25353516 117.75734375 45.25353516 118.59375 46.27734375 C121.74999283 50.32357366 122.63208634 53.26157692 122.9375 58.25 C123.5975 58.25 124.2575 58.25 124.9375 58.25 C127.67061633 65.852309 129.74148501 73.25558401 130.9375 81.25 C131.824375 80.693125 132.71125 80.13625 133.625 79.5625 C134.12386719 79.24925781 134.62273437 78.93601562 135.13671875 78.61328125 C137.63729693 76.72021881 139.72585282 74.47153532 141.9375 72.25 C147.57907031 67.33499556 153.38722715 62.76629777 159.68359375 58.72265625 C162.20138009 57.07758614 164.62475273 55.32370806 167.0625 53.5625 C170.8962228 50.87123837 174.55004318 48.94340439 178.9375 47.25 C180.64733298 46.44066064 182.35550888 45.6278161 184.0625 44.8125 C190.1991948 42.01698787 196.46117245 40.09138596 202.9375 38.25 C203.82308594 37.94835938 204.70867187 37.64671875 205.62109375 37.3359375 C219.9481978 32.88600968 240.33635575 32.80160315 253.87890625 39.76171875 C256.68867011 41.4628683 259.31209531 43.27786502 261.9375 45.25 C262.66839844 45.78625 263.39929688 46.3225 264.15234375 46.875 C274.42102101 55.07417416 279.23885554 66.47903957 280.9375 79.25 C281.30189546 84.25959673 281.19689057 89.23511555 280.9375 94.25 C278.33836642 92.95043321 278.24322088 91.91708433 277.1875 89.25 C274.9873576 84.13527781 272.27935438 79.69761502 268.9375 75.25 C268.4940625 74.64285156 268.050625 74.03570312 267.59375 73.41015625 C260.57480392 65.17782853 247.12484553 59.65039699 236.55078125 58.421875 C216.50682601 57.4684328 198.86095077 58.44972435 179.9375 65.25 C178.35567021 65.75473653 176.77257441 66.2555472 175.1875 66.75 C158.80368631 72.25202699 143.38836031 81.40580931 130.21875 92.55078125 C127.9375 94.25 127.9375 94.25 124.9375 94.25 C123.4296875 92.01171875 123.4296875 92.01171875 121.8125 88.9375 C112.69208296 72.68102444 98.4150631 58.07900104 81.87890625 49.29296875 C80.38132121 48.48843111 78.9152634 47.62503071 77.46484375 46.73828125 C67.44278505 40.86237068 56.65174992 37.56894124 45.61547852 34.1003418 C43.72393854 33.49971879 41.84257337 32.86659104 39.96948242 32.21069336 C22.49509764 26.67387847 2.40029948 26.85909657 -15.75 26.875 C-16.61475952 26.87336853 -17.47951904 26.87173706 -18.3704834 26.87005615 C-36.17318982 26.87386141 -53.64864193 28.74786999 -71.25 31.3125 C-72.48685547 31.48587891 -73.72371094 31.65925781 -74.99804688 31.83789062 C-76.16787109 32.00611328 -77.33769531 32.17433594 -78.54296875 32.34765625 C-79.58348389 32.49726807 -80.62399902 32.64687988 -81.69604492 32.80102539 C-84.01020695 33.01007037 -84.01020695 33.01007037 -85.0625 34.25 C-87.39367434 34.72655517 -89.71891616 35.15615832 -92.0625 35.5625 C-122.56622711 41.12042588 -152.26254843 50.96762246 -180.83398438 62.90551758 C-183.96454935 64.20920945 -187.1003842 65.49922689 -190.23828125 66.78515625 C-191.25083984 67.20216797 -192.26339844 67.61917969 -193.30664062 68.04882812 C-195.37029094 68.89872103 -197.43542628 69.74501615 -199.50195312 70.58789062 C-205.81741274 73.19395211 -205.81741274 73.19395211 -211.85546875 76.37109375 C-214.56938175 77.96109637 -217.23376659 79.19639096 -220.13427734 80.39257812 C-225.06218348 82.58386786 -229.75183374 85.33233831 -234.47460938 87.9296875 C-235.29380859 88.37054688 -236.11300781 88.81140625 -236.95703125 89.265625 C-237.69800049 89.67071289 -238.43896973 90.07580078 -239.20239258 90.49316406 C-240.12314575 90.86779785 -240.12314575 90.86779785 -241.0625 91.25 C-241.7225 90.92 -242.3825 90.59 -243.0625 90.25 C-239.3125 87.25 -239.3125 87.25 -237.0625 87.25 C-237.0625 86.59 -237.0625 85.93 -237.0625 85.25 C-235.47265625 84.12890625 -235.47265625 84.12890625 -233.125 82.8125 C-229.16656777 80.52135722 -225.31463347 78.12931146 -221.50024414 75.60986328 C-196.71152365 59.26790883 -170.27993009 44.2210475 -142.62890625 33.28564453 C-140.01417892 32.23050057 -137.42787033 31.12399873 -134.84375 29.99609375 C-133.97363281 29.61646484 -133.10351562 29.23683594 -132.20703125 28.84570312 C-130.44257192 28.0729377 -128.67954737 27.29688802 -126.91796875 26.51757812 C-121.79737528 24.29106823 -116.72427152 22.47924716 -111.35473633 20.95239258 C-108.14807 19.96979816 -105.13782757 18.58180658 -102.0625 17.25 C-99.50217285 16.4469758 -96.96335793 15.69586961 -94.375 15 C-93.61155273 14.79383057 -92.84810547 14.58766113 -92.06152344 14.37524414 C-90.34543953 13.91566277 -88.62842201 13.45955793 -86.91064453 13.00634766 C-84.93024044 12.48043544 -82.95219516 11.94559274 -80.97607422 11.40380859 C-62.74597046 6.41707412 -44.83501226 3.26016787 -26.0625 1.25 C-24.685177 1.0953125 -24.685177 1.0953125 -23.2800293 0.9375 C-15.52964848 0.1369442 -7.78696513 0.00896566 0 0 Z " fill="#FB4E17" transform="translate(410.0625,13.75)"/>
<path d="M0 0 C7.92 0 15.84 0 24 0 C26.2504766 10.12714471 26.2504766 10.12714471 26.59423828 13.71850586 C26.7141362 14.93037819 26.7141362 14.93037819 26.8364563 16.16673279 C26.91362885 17.00760941 26.99080139 17.84848602 27.0703125 18.71484375 C27.15626678 19.61062637 27.24222107 20.506409 27.33078003 21.42933655 C27.50989356 23.31062255 27.68621849 25.19217596 27.85986328 27.07397461 C28.12403405 29.92706756 28.39925829 32.77894005 28.67578125 35.63085938 C28.84962028 37.47129176 29.02281856 39.31178481 29.1953125 41.15234375 C29.31714401 42.41062233 29.31714401 42.41062233 29.44143677 43.69432068 C29.96632074 49.4763366 30.08917754 55.19571559 30 61 C30.66 61 31.32 61 32 61 C32.24363281 60.30261719 32.48726562 59.60523438 32.73828125 58.88671875 C34.20477026 55.53150087 36.07239086 52.80132032 38.1875 49.8125 C38.5882373 49.24297607 38.98897461 48.67345215 39.40185547 48.08666992 C40.21523523 46.93133404 41.03064395 45.77742373 41.84814453 44.625 C43.45204806 42.36226539 45.03787297 40.08702218 46.625 37.8125 C48.39726854 35.28246244 50.17285819 32.75488709 51.953125 30.23046875 C52.90445313 28.87888672 52.90445313 28.87888672 53.875 27.5 C54.73738281 26.27796875 54.73738281 26.27796875 55.6171875 25.03125 C57.02656893 23.05824023 57.02656893 23.05824023 58 21 C58.66 21 59.32 21 60 21 C60.23847656 20.34644531 60.47695312 19.69289063 60.72265625 19.01953125 C63.76449036 11.82889589 67.11961477 4.22800712 74 0 C82.80257316 -2.01817705 92.10192887 -0.98740866 101 0 C100.54255579 1.89277475 100.08076104 3.78449834 99.6171875 5.67578125 C99.23216064 7.25613159 99.23216064 7.25613159 98.83935547 8.8684082 C98.07535762 11.71884463 97.17310078 14.43111999 96.125 17.1875 C92.83313809 25.90716475 90.43525372 34.92498959 87.8984375 43.88671875 C83.45846887 59.56218053 83.45846887 59.56218053 81.015625 65.3203125 C79.83144615 68.44472286 79.09961188 71.55174652 78.375 74.8125 C78.11460938 75.97394531 77.85421875 77.13539063 77.5859375 78.33203125 C77.29589844 79.65267578 77.29589844 79.65267578 77 81 C76.34 81 75.68 81 75 81 C74.855625 82.258125 74.71125 83.51625 74.5625 84.8125 C74.26251314 87.42667123 73.84186703 89.47439892 73 92 C66.73 92 60.46 92 54 92 C55.72771694 82.99119022 58.16715814 74.36169523 60.9375 65.625 C61.31551758 64.42617187 61.31551758 64.42617187 61.70117188 63.203125 C64.6012912 54.03548438 67.70939974 44.97164143 71.01171875 35.94140625 C72.10616427 33.20119054 72.10616427 33.20119054 72 31 C71.67837891 31.48766846 71.35675781 31.97533691 71.02539062 32.4777832 C65.42608254 40.95562289 59.82454246 49.4018255 53.78515625 57.57421875 C51.43842173 60.76310745 49.18216271 64.01125913 46.921875 67.26171875 C45.46551574 69.33673469 43.99735986 71.40025285 42.515625 73.45703125 C42.0827417 74.05974854 41.6498584 74.66246582 41.20385742 75.28344727 C40.32190731 76.50566841 39.43408122 77.72367206 38.5402832 78.93725586 C36.19915205 82.15103487 34.40215328 85.24518441 32.8125 88.875 C31.7578125 90.7109375 31.7578125 90.7109375 30 92 C24.91139909 92.66753689 20.09825681 92.46172892 15 92 C14.96261719 91.05125 14.92523438 90.1025 14.88671875 89.125 C14.43338296 79.28835249 13.38263612 69.6075943 12.09106445 59.84716797 C11.13841763 52.51396187 10.53206896 45.23758613 10.2109375 37.8515625 C10.18563079 35.05458475 10.18563079 35.05458475 9 33 C8.72325439 33.97646484 8.44650879 34.95292969 8.16137695 35.95898438 C7.11045998 39.66483587 6.05670671 43.36987634 5.00219727 47.07470703 C4.55060553 48.6627114 4.09973148 50.25092007 3.6496582 51.83935547 C-0.18351816 65.36468615 -4.06088242 78.82901978 -9 92 C-15.27 92 -21.54 92 -28 92 C-26.48053945 84.40269723 -24.39491457 77.03569826 -21.8828125 69.7109375 C-20.67350188 65.99739072 -19.59081208 62.24979274 -18.5 58.5 C-16.5522413 51.81837518 -14.47125417 45.21155221 -12.17578125 38.640625 C-9.31840346 30.29756411 -6.88310439 21.84368802 -4.46191406 13.36499023 C-4.1728418 12.35895752 -3.88376953 11.3529248 -3.5859375 10.31640625 C-3.3286084 9.41349854 -3.0712793 8.51059082 -2.80615234 7.58032227 C-2.00267475 5.0085613 -1.00065708 2.50164269 0 0 Z " fill="#141414" transform="translate(28,85)"/>
<path d="M0 0 C2.06298828 -0.34057617 2.06298828 -0.34057617 4.5703125 -0.29296875 C5.46621094 -0.28330078 6.36210937 -0.27363281 7.28515625 -0.26367188 C8.69087891 -0.2259668 8.69087891 -0.2259668 10.125 -0.1875 C11.06988281 -0.17396484 12.01476562 -0.16042969 12.98828125 -0.14648438 C15.32608779 -0.11106306 17.66276237 -0.06167271 20 0 C20.22139648 0.89082275 20.44279297 1.78164551 20.67089844 2.69946289 C21.51234125 6.08252707 22.35493284 9.4653012 23.19824219 12.84790039 C23.55936232 14.29733435 23.92005624 15.74687458 24.28027344 17.1965332 C26.17398696 24.81634976 28.10102146 32.42200409 30.15625 40 C31.57658612 45.28707876 32.82211124 50.54368016 33.75 55.9375 C34.1625 58.268125 34.575 60.59875 35 63 C29.39 63 23.78 63 18 63 C16 56 16 56 16 52 C10.59096536 51.89521525 5.18686662 51.85680058 -0.22314453 51.87792969 C-2.06016489 51.87599156 -3.89725946 51.85641059 -5.73388672 51.81835938 C-16.40209228 51.16359776 -16.40209228 51.16359776 -25.68359375 55.27978516 C-26.94610244 57.06908004 -28.15361506 58.89891529 -29.29296875 60.76904297 C-31 63 -31 63 -33.36328125 63.82080078 C-35.97461878 63.9788085 -38.39794093 63.8848062 -41 63.625 C-41.87011719 63.57988281 -42.74023438 63.53476563 -43.63671875 63.48828125 C-45.76084407 63.37157107 -47.8813723 63.19221421 -50 63 C-48.79618552 60.50638429 -47.54571278 58.31856917 -46 56 C-45.34 56 -44.68 56 -44 56 C-43.74863281 55.43796875 -43.49726562 54.8759375 -43.23828125 54.296875 C-41.81166901 51.65066681 -40.11798132 49.55654912 -38.1875 47.25 C-37.38699219 46.28578125 -36.58648437 45.3215625 -35.76171875 44.328125 C-35.32134277 43.79896484 -34.8809668 43.26980469 -34.42724609 42.72460938 C-31.76083209 39.50265444 -29.13349892 36.24886328 -26.5 33 C-20.52864881 25.64461215 -14.54264384 18.30138331 -8.51953125 10.98828125 C-7.30330078 9.50908203 -7.30330078 9.50908203 -6.0625 8 C-5.33160156 7.113125 -4.60070312 6.22625 -3.84765625 5.3125 C-1.89854558 2.94099979 -1.89854558 2.94099979 0 0 Z " fill="#161616" transform="translate(155,114)"/>
<path d="M0 0 C5.94 0 11.88 0 18 0 C26.39459331 18.63884278 26.39459331 18.63884278 29.796875 28.0078125 C31.31658484 31.78735062 33.13410097 35.38152954 35 39 C36.13660609 35.87910318 37.25704207 32.75262039 38.375 29.625 C38.85066406 28.31982422 38.85066406 28.31982422 39.3359375 26.98828125 C41.19672204 21.75482473 42.57752891 16.64058491 43.57958984 11.17822266 C44.32721203 7.30465407 45.6832519 3.71083556 47 0 C52.61 0 58.22 0 64 0 C62.5280259 7.02466846 60.66190041 13.86960952 58.625 20.75 C58.15537842 22.34714844 58.15537842 22.34714844 57.67626953 23.9765625 C55.50695251 31.33582147 53.29056394 38.67755462 51 46 C50.56067321 47.43213081 50.12191045 48.86443472 49.68359375 50.296875 C49.2266777 51.78128547 48.76964766 53.26566085 48.3125 54.75 C48.09770996 55.45511719 47.88291992 56.16023438 47.66162109 56.88671875 C46.11338629 61.88661371 46.11338629 61.88661371 45 63 C42.13732433 63.07325168 39.299281 63.09238205 36.4375 63.0625 C35.63119141 63.05798828 34.82488281 63.05347656 33.99414062 63.04882812 C31.99606244 63.03700518 29.99802217 63.01906914 28 63 C25.65876501 57.894602 23.51836666 52.7672232 21.5625 47.5 C19.75664389 42.71782549 17.65546928 38.40973704 15.0703125 34.01171875 C13.51588009 31.09006659 12.75217242 28.21382761 12 25 C11.34 25 10.68 25 10 25 C9.81824219 25.7734375 9.63648438 26.546875 9.44921875 27.34375 C8.17312034 32.6313783 6.83126981 37.74207973 4.82421875 42.796875 C2.36310089 49.37540805 0.37651757 56.11741215 -1 63 C-6.94 63 -12.88 63 -19 63 C-18.38125 60.421875 -17.7625 57.84375 -17.125 55.1875 C-16.93437988 54.37949951 -16.74375977 53.57149902 -16.54736328 52.73901367 C-15.71845356 49.35762195 -14.94769955 46.92154933 -13 44 C-12.43588135 42.02171564 -12.43588135 42.02171564 -12.05859375 39.86328125 C-11.08311102 35.1552685 -9.64895414 30.72001338 -8.0625 26.1875 C-5.94386886 20.0064513 -4.07727631 13.8625159 -2.640625 7.48046875 C-2 5 -2 5 0 0 Z " fill="#151515" transform="translate(554,114)"/>
<path d="M0 0 C0.83354507 0.00141495 1.66709015 0.0028299 2.52589417 0.00428772 C5.16443611 0.00984457 7.80289034 0.02238885 10.44140625 0.03515625 C12.24023314 0.04017683 14.03906138 0.04473876 15.83789062 0.04882812 C20.22659583 0.05979982 24.61523621 0.07703429 29.00390625 0.09765625 C27.50390625 6.09765625 27.50390625 6.09765625 26.00390625 12.09765625 C24.46851196 12.11953003 24.46851196 12.11953003 22.90209961 12.1418457 C19.07932814 12.2001213 15.2571278 12.27735046 11.43481445 12.36010742 C9.78516965 12.39321985 8.13541529 12.42129381 6.4855957 12.4440918 C4.10450857 12.47789158 1.72441319 12.53021629 -0.65625 12.5859375 C-1.38570328 12.59232742 -2.11515656 12.59871735 -2.86671448 12.6053009 C-9.71409701 12.79887223 -15.44232195 14.84150687 -20.64453125 19.54296875 C-26.32544861 26.0776656 -27.28267068 34.72079201 -26.99609375 43.09765625 C-25.87638799 46.57463729 -25.29268345 48.28649104 -22.20800781 50.21630859 C-19.63083533 51.2431952 -17.56291819 51.41509261 -14.79296875 51.51171875 C-13.81328125 51.55039063 -12.83359375 51.5890625 -11.82421875 51.62890625 C-10.30054688 51.6753125 -10.30054688 51.6753125 -8.74609375 51.72265625 C-7.19921875 51.78066406 -7.19921875 51.78066406 -5.62109375 51.83984375 C-3.07960435 51.93397299 -0.53811942 52.01960604 2.00390625 52.09765625 C2.15859375 50.33421875 2.15859375 50.33421875 2.31640625 48.53515625 C2.7134154 44.00925199 4.02492782 41.71527258 6.00390625 37.09765625 C-0.26609375 37.09765625 -6.53609375 37.09765625 -12.99609375 37.09765625 C-10.99609375 28.09765625 -10.99609375 28.09765625 -9.99609375 26.09765625 C1.88390625 26.09765625 13.76390625 26.09765625 26.00390625 26.09765625 C24.81952484 31.4273726 23.69080162 36.42910091 22.09375 41.59375 C21.74376953 42.72876953 21.39378906 43.86378906 21.03320312 45.03320312 C20.67291016 46.18884766 20.31261719 47.34449219 19.94140625 48.53515625 C19.57724609 49.71787109 19.21308594 50.90058594 18.83789062 52.11914062 C16.14464873 60.81617129 16.14464873 60.81617129 15.00390625 63.09765625 C9.2055944 63.17232742 3.40756819 63.22650299 -2.39111328 63.26245117 C-4.35991294 63.27745186 -6.32867968 63.29785908 -8.29736328 63.32397461 C-11.14233573 63.3607444 -13.98686288 63.37747012 -16.83203125 63.390625 C-17.69911713 63.40610886 -18.566203 63.42159271 -19.45956421 63.43754578 C-26.64467776 63.43948372 -33.91453515 62.52622855 -39.6875 57.9765625 C-40.30496094 57.21214844 -40.92242187 56.44773438 -41.55859375 55.66015625 C-42.19925781 54.89832031 -42.83992187 54.13648438 -43.5 53.3515625 C-47.20040108 47.77680682 -46.61079367 40.36943161 -45.6875 33.953125 C-45.22722678 31.95317674 -44.64729247 30.04372411 -43.99609375 28.09765625 C-43.64611328 26.92783203 -43.64611328 26.92783203 -43.2890625 25.734375 C-40.19132146 16.63918098 -33.58082721 8.56887159 -24.99609375 4.09765625 C-16.78087408 0.76920629 -8.79662205 -0.05710392 0 0 Z " fill="#161616" transform="translate(238.99609375,113.90234375)"/>
<path d="M0 0 C0.96069397 0.00007553 1.92138794 0.00015106 2.91119385 0.00022888 C3.94049011 0.00539017 4.96978638 0.01055145 6.03027344 0.01586914 C7.0900238 0.01728409 8.14977417 0.01869904 9.24163818 0.02015686 C12.62433705 0.02575158 16.00696959 0.03830314 19.38964844 0.05102539 C21.68391831 0.05604107 23.97818923 0.06060386 26.27246094 0.06469727 C31.89487938 0.07571928 37.51725917 0.09245218 43.13964844 0.11352539 C42.83070912 1.73920609 42.51737894 3.36405287 42.20214844 4.98852539 C42.028125 5.89344727 41.85410156 6.79836914 41.67480469 7.73071289 C41.13964844 10.11352539 41.13964844 10.11352539 40.13964844 12.11352539 C38.2626123 12.12754395 38.2626123 12.12754395 36.34765625 12.1418457 C31.70308893 12.18173021 27.05918509 12.2474848 22.41503906 12.32104492 C20.40536016 12.34926346 18.3955701 12.3704736 16.38574219 12.38452148 C13.49583995 12.40593874 10.60727553 12.45258242 7.71777344 12.50415039 C6.81971985 12.50537903 5.92166626 12.50660767 4.99639893 12.50787354 C-0.04840055 12.61255257 -0.04840055 12.61255257 -4.43945312 14.92114258 C-6.46433467 18.04544434 -6.20330138 20.47825728 -5.86035156 24.11352539 C-4.06979094 25.90408601 -1.37239746 25.26492017 1.04589844 25.28930664 C2.26535156 25.3131543 3.48480469 25.33700195 4.74121094 25.36157227 C7.30875854 25.4040217 9.87651357 25.43554951 12.44433594 25.45532227 C20.69028919 25.64115874 27.95984542 26.14271252 34.17089844 32.04321289 C36.51872223 37.06073954 35.95460606 42.79477691 34.15527344 47.91430664 C31.10036023 54.27870915 27.95356029 58.8115834 21.14038086 61.33911133 C15.06063023 63.39722748 9.49912752 63.63100197 3.12792969 63.50415039 C2.03369186 63.4984906 0.93945404 63.49283081 -0.1879425 63.48699951 C-3.64171348 63.46482382 -7.09440055 63.41466261 -10.54785156 63.36352539 C-12.90656041 63.34343611 -15.26528572 63.32518963 -17.62402344 63.30883789 C-23.36982845 63.26502105 -29.11501254 63.19830049 -34.86035156 63.11352539 C-34.55113272 61.65449281 -34.23786357 60.19631817 -33.92285156 58.73852539 C-33.66181641 57.52036133 -33.66181641 57.52036133 -33.39550781 56.27758789 C-32.86035156 54.11352539 -32.86035156 54.11352539 -31.86035156 52.11352539 C-30.68005371 52.09894287 -29.49975586 52.08436035 -28.28369141 52.06933594 C-23.88885781 52.01119842 -19.4945283 51.93396658 -15.10009766 51.85107422 C-13.20109257 51.81789746 -11.3019906 51.78984308 -9.40283203 51.76708984 C-6.66689921 51.73341021 -3.93184845 51.68108819 -1.19628906 51.62524414 C-0.3523056 51.61885422 0.49167786 51.61246429 1.36123657 51.60588074 C7.3101407 51.45875811 11.76915696 50.48401687 16.13964844 46.11352539 C16.47298177 43.11352539 16.47298177 43.11352539 16.13964844 40.11352539 C13.37216342 37.34604038 11.68305293 37.84585068 7.81152344 37.80493164 C6.53664063 37.77979492 5.26175781 37.7546582 3.94824219 37.72875977 C1.92302742 37.70012185 -0.10211198 37.67610218 -2.12744141 37.65722656 C-4.08546191 37.63541752 -6.04325174 37.59534791 -8.00097656 37.55493164 C-9.17176758 37.54147705 -10.34255859 37.52802246 -11.54882812 37.51416016 C-16.55274025 36.9087768 -19.80478753 35.28320446 -23.17285156 31.55102539 C-26.03609486 27.41522951 -26.47861946 24.07660738 -25.86035156 19.11352539 C-23.98669169 13.26925987 -21.32543617 7.00298927 -15.74707031 3.96118164 C-10.45217737 1.52605084 -5.86064901 -0.01542276 0 0 Z " fill="#131313" transform="translate(394.8603515625,113.886474609375)"/>
<path d="M0 0 C5.61 0 11.22 0 17 0 C15.875 7.875 15.875 7.875 14.58984375 11.83984375 C14.22814087 12.97087524 14.22814087 12.97087524 13.85913086 14.12475586 C13.55499268 15.05296143 13.25085449 15.98116699 12.9375 16.9375 C11.968125 19.928125 10.99875 22.91875 10 26 C19.9 26 29.8 26 40 26 C40.33 24.35 40.66 22.7 41 21 C41.60291029 18.70242295 42.22970767 16.41103563 42.875 14.125 C43.20242188 12.95195313 43.52984375 11.77890625 43.8671875 10.5703125 C45.01132807 6.96429705 46.50973478 3.47728552 48 0 C53.28 0 58.56 0 64 0 C62.8734161 7.88608729 62.8734161 7.88608729 61.9140625 11.33984375 C61.70523438 12.09330078 61.49640625 12.84675781 61.28125 13.62304688 C61.0646875 14.38681641 60.848125 15.15058594 60.625 15.9375 C60.41617188 16.69740234 60.20734375 17.45730469 59.9921875 18.24023438 C58.76397119 22.62511639 57.34682902 26.87413808 55.70947266 31.12231445 C54.65144491 33.92248355 53.75854462 36.76565482 52.875 39.625 C52.54242188 40.68976563 52.20984375 41.75453125 51.8671875 42.8515625 C51.02936997 45.89336847 50.45899238 48.88072526 50 52 C49.34 52 48.68 52 48 52 C47.7834375 53.60875 47.7834375 53.60875 47.5625 55.25 C47 59 47 59 46 63 C40.39 63 34.78 63 29 63 C29.72318779 59.38406105 30.49486916 55.82730599 31.375 52.25 C31.60960937 51.28578125 31.84421875 50.3215625 32.0859375 49.328125 C33.22780292 45.17056373 34.63657885 41.09026345 36 37 C26.1 37 16.2 37 6 37 C5.01 41.62 4.02 46.24 3 51 C1.80844789 55.07279685 0.41600726 58.99611741 -1 63 C-6.61 63 -12.22 63 -18 63 C-16.94613333 56.43359998 -15.67263001 51.09359643 -13 45 C-12.19287328 41.98895731 -11.4760941 38.96212023 -10.75390625 35.9296875 C-9.77992248 32.14477649 -8.41907283 28.64023031 -7 25 C-6.31334327 22.67058224 -5.64783302 20.34016612 -5 18 C-4.79270264 17.2572583 -4.58540527 16.5145166 -4.37182617 15.74926758 C-3.70406857 13.35426994 -3.03916046 10.95849747 -2.375 8.5625 C-2.14554687 7.73556641 -1.91609375 6.90863281 -1.6796875 6.05664062 C-1.11955405 4.03782633 -0.55974357 2.01892243 0 0 Z " fill="#141414" transform="translate(450,114)"/>
<path d="M0 0 C1.34807739 0.00424484 1.34807739 0.00424484 2.72338867 0.00857544 C5.56573365 0.01968125 8.40775186 0.04476745 11.25 0.0703125 C13.1887975 0.08035473 15.12759999 0.08947839 17.06640625 0.09765625 C21.79439482 0.11958905 26.5221422 0.15405166 31.25 0.1953125 C30.96640113 1.6344259 30.67278601 3.07156768 30.375 4.5078125 C30.21257812 5.30832031 30.05015625 6.10882813 29.8828125 6.93359375 C29.25 9.1953125 29.25 9.1953125 27.25 12.1953125 C24.78250283 12.49716576 22.55218339 12.61238535 20.08203125 12.6015625 C19.36899338 12.61239868 18.65595551 12.62323486 17.92131042 12.63439941 C15.63494917 12.66872846 13.34908518 12.68425342 11.0625 12.6953125 C8.06853734 12.70996225 5.0756717 12.74387072 2.08203125 12.7890625 C1.06288383 12.78453064 1.06288383 12.78453064 0.02314758 12.77990723 C-7.00255527 12.88857694 -12.67909549 15.26526645 -17.75 20.1953125 C-18.74 22.1753125 -19.73 24.1553125 -20.75 26.1953125 C-7.22 26.1953125 6.31 26.1953125 20.25 26.1953125 C19.59 29.8253125 18.93 33.4553125 18.25 37.1953125 C4.06 37.1953125 -10.13 37.1953125 -24.75 37.1953125 C-24.4670945 44.33732992 -24.4670945 44.33732992 -20.75 48.1953125 C-20.75 48.8553125 -20.75 49.5153125 -20.75 50.1953125 C-16.93422037 51.39736864 -13.10364011 51.41726232 -9.140625 51.51171875 C-8.41381531 51.53249985 -7.68700562 51.55328094 -6.93817139 51.57469177 C-4.62554009 51.63986762 -2.31279907 51.6989229 0 51.7578125 C1.57162575 51.80102816 3.14324056 51.84464342 4.71484375 51.88867188 C8.55978453 51.99551606 12.40483524 52.09687274 16.25 52.1953125 C15.26 55.8253125 14.27 59.4553125 13.25 63.1953125 C8.00306612 63.29486755 2.75669303 63.3671021 -2.4909668 63.41503906 C-4.27263986 63.43504155 -6.05424823 63.46225273 -7.83569336 63.49707031 C-26.75690852 63.85737349 -26.75690852 63.85737349 -33.75 59.1953125 C-35.1421875 58.3290625 -35.1421875 58.3290625 -36.5625 57.4453125 C-41.10779973 52.77014706 -42.99612172 48.16250868 -43.3125 41.6328125 C-42.8074884 27.89301425 -37.07766156 17.02160709 -27.1875 7.8203125 C-19.46765319 0.91235688 -9.9736028 -0.12033787 0 0 Z " fill="#161616" transform="translate(657.75,113.8046875)"/>
<path d="M0 0 C1.28148926 0.00424484 1.28148926 0.00424484 2.58886719 0.00857544 C5.28856053 0.01967371 7.98790877 0.04475823 10.6875 0.0703125 C12.52994309 0.08035571 14.37239143 0.0894792 16.21484375 0.09765625 C20.70585994 0.119579 25.19662168 0.15403604 29.6875 0.1953125 C28.6975 4.1553125 27.7075 8.1153125 26.6875 12.1953125 C25.65866699 12.2046582 24.62983398 12.21400391 23.56982422 12.22363281 C19.73394288 12.26366019 15.89885288 12.32945304 12.06347656 12.40283203 C10.40700486 12.43096812 8.75040073 12.4522192 7.09375 12.46630859 C4.70504324 12.48784141 2.31791614 12.53454005 -0.0703125 12.5859375 C-1.17223434 12.58778046 -1.17223434 12.58778046 -2.29641724 12.58966064 C-8.80063182 12.77280945 -12.17559923 15.4062793 -17 19.4453125 C-22.44343151 25.9185824 -23.71591723 34.31168644 -23.671875 42.55859375 C-23.4925187 45.49038878 -23.4925187 45.49038878 -20.9375 48.3203125 C-16.86354912 51.23027741 -14.56527614 51.3643485 -9.5546875 51.51171875 C-8.89163605 51.53249985 -8.22858459 51.55328094 -7.54544067 51.57469177 C-5.42623306 51.64010481 -3.306901 51.69903355 -1.1875 51.7578125 C0.24871081 51.80100559 1.68490902 51.84462014 3.12109375 51.88867188 C6.64309594 51.99577749 10.16523825 52.09706825 13.6875 52.1953125 C13.37828116 53.65434508 13.06501201 55.11251972 12.75 56.5703125 C12.57597656 57.38242188 12.40195312 58.19453125 12.22265625 59.03125 C11.6875 61.1953125 11.6875 61.1953125 10.6875 63.1953125 C5.72539993 63.29492998 0.7638946 63.3671303 -4.19897461 63.41503906 C-5.88364821 63.43503136 -7.56825351 63.46223473 -9.25268555 63.49707031 C-29.05221341 63.89599413 -29.05221341 63.89599413 -37.25 56.5703125 C-37.930625 55.7865625 -38.61125 55.0028125 -39.3125 54.1953125 C-39.9725 53.5353125 -40.6325 52.8753125 -41.3125 52.1953125 C-44.42966717 43.60312094 -43.06041465 31.35331754 -39.3125 23.1953125 C-34.11287251 13.41410109 -27.83326751 6.15184045 -17.3125 2.1953125 C-11.38407012 0.46129249 -6.1571471 -0.07829342 0 0 Z " fill="#171717" transform="translate(339.3125,113.8046875)"/>
<path d="M0 0 C1.58206057 0.00667536 3.16410534 0.0186375 4.74609375 0.03515625 C5.55240234 0.03966797 6.35871094 0.04417969 7.18945312 0.04882812 C9.18753131 0.06065107 11.18557158 0.07858711 13.18359375 0.09765625 C11.63024921 7.74011138 9.3092788 14.92466198 6.75 22.28125 C5.09344286 27.12294705 3.73466913 31.87895022 2.69335938 36.88720703 C1.79694911 40.77422741 0.48141688 44.51697176 -0.81640625 48.28515625 C-1.20699219 49.43661133 -1.20699219 49.43661133 -1.60546875 50.61132812 C-2.09160063 52.04394404 -2.57960556 53.47592713 -3.0703125 54.90698242 C-3.99866969 57.63281654 -4.90580103 60.36584058 -5.81640625 63.09765625 C-11.42640625 63.09765625 -17.03640625 63.09765625 -22.81640625 63.09765625 C-20.50559592 53.51207267 -17.98492007 44.10312647 -14.96484375 34.71875 C-14.21213157 32.34540242 -13.49703054 29.95972312 -12.82421875 27.5625 C-11.80164569 24.04690969 -10.59235026 20.65370082 -9.31640625 17.22265625 C-7.37310112 11.86713595 -5.9499877 6.67109839 -4.81640625 1.09765625 C-3.81640625 0.09765625 -3.81640625 0.09765625 0 0 Z " fill="#151515" transform="translate(529.81640625,113.90234375)"/>
<path d="M0 0 C5.61 0 11.22 0 17 0 C15.47430307 7.50134324 13.30145438 14.70372252 11 22 C10.29018407 24.31204535 9.58181264 26.62453475 8.875 28.9375 C7.98136642 31.85842629 7.07659434 34.77055292 6.109375 37.66796875 C4.48235946 42.55474429 2.93323386 47.46592991 1.375 52.375 C1.05015625 53.39722656 0.7253125 54.41945312 0.390625 55.47265625 C-0.40662581 57.98165145 -1.20336398 60.49080953 -2 63 C-7.61 63 -13.22 63 -19 63 C-16.98692826 54.66013137 -14.94653452 46.50581106 -12.13671875 38.3984375 C-10.0934394 32.28966418 -8.30160281 26.10306792 -6.46484375 19.9296875 C-6.22491699 19.12370117 -5.98499023 18.31771484 -5.73779297 17.48730469 C-5.2284421 15.77014166 -4.72246585 14.05197529 -4.21923828 12.33300781 C-3.96255371 11.46256836 -3.70586914 10.59212891 -3.44140625 9.6953125 C-3.21267822 8.91430176 -2.9839502 8.13329102 -2.74829102 7.32861328 C-1.95010017 4.84471629 -0.96895627 2.42239069 0 0 Z " fill="#171717" transform="translate(283,114)"/>
<path d="M0 0 C0.99 0.495 0.99 0.495 2 1 C-1.625 4 -1.625 4 -5 4 C-5 4.66 -5 5.32 -5 6 C-6.98 6 -8.96 6 -11 6 C-11.33 8.31 -11.66 10.62 -12 13 C-11.01 13.33 -10.02 13.66 -9 14 C-9.99 14 -10.98 14 -12 14 C-12 14.66 -12 15.32 -12 16 C-11.18015625 15.77183594 -10.3603125 15.54367188 -9.515625 15.30859375 C-7.89914062 14.87740234 -7.89914062 14.87740234 -6.25 14.4375 C-5.18265625 14.14746094 -4.1153125 13.85742188 -3.015625 13.55859375 C-0.15664073 13.02901506 1.31597383 13.01629138 4 14 C-1.2499655 15.96624183 -6.48311107 17.89442652 -11.875 19.4375 C-21.09947118 22.13770122 -29.93255361 25.95997864 -38.7890625 29.66210938 C-41.91361021 30.96400426 -45.04363927 32.25165461 -48.17578125 33.53515625 C-49.18833984 33.95216797 -50.20089844 34.36917969 -51.24414062 34.79882812 C-53.30779094 35.64872103 -55.37292628 36.49501615 -57.43945312 37.33789062 C-63.75491274 39.94395211 -63.75491274 39.94395211 -69.79296875 43.12109375 C-72.50688175 44.71109637 -75.17126659 45.94639096 -78.07177734 47.14257812 C-82.99968348 49.33386786 -87.68933374 52.08233831 -92.41210938 54.6796875 C-93.23130859 55.12054688 -94.05050781 55.56140625 -94.89453125 56.015625 C-95.63550049 56.42071289 -96.37646973 56.82580078 -97.13989258 57.24316406 C-98.06064575 57.61779785 -98.06064575 57.61779785 -99 58 C-99.66 57.67 -100.32 57.34 -101 57 C-97.25 54 -97.25 54 -95 54 C-95 53.34 -95 52.68 -95 52 C-93.41015625 50.87890625 -93.41015625 50.87890625 -91.0625 49.5625 C-87.10406777 47.27135722 -83.25213347 44.87931146 -79.43774414 42.35986328 C-55.03559859 26.27275821 -27.89745357 9.29915119 0 0 Z " fill="#F35524" transform="translate(268,47)"/>
<path d="M0 0 C0.96069397 0.00007553 1.92138794 0.00015106 2.91119385 0.00022888 C3.94049011 0.00539017 4.96978638 0.01055145 6.03027344 0.01586914 C7.61989899 0.01799156 7.61989899 0.01799156 9.24163818 0.02015686 C12.62433705 0.02575158 16.00696959 0.03830314 19.38964844 0.05102539 C21.68391831 0.05604107 23.97818923 0.06060386 26.27246094 0.06469727 C31.89487938 0.07571928 37.51725917 0.09245218 43.13964844 0.11352539 C42.83070912 1.73920609 42.51737894 3.36405287 42.20214844 4.98852539 C42.028125 5.89344727 41.85410156 6.79836914 41.67480469 7.73071289 C41.13964844 10.11352539 41.13964844 10.11352539 40.13964844 12.11352539 C24.62964844 12.11352539 9.11964844 12.11352539 -6.86035156 12.11352539 C-7.52035156 10.79352539 -8.18035156 9.47352539 -8.86035156 8.11352539 C-10.29826672 8.25520676 -11.73567526 8.40203582 -13.17285156 8.55102539 C-13.97335937 8.63223633 -14.77386719 8.71344727 -15.59863281 8.79711914 C-18.02122336 9.06618232 -18.02122336 9.06618232 -20.86035156 10.11352539 C-19.40419686 6.27680317 -17.64676203 5.14808343 -13.98535156 3.42602539 C-13.12167969 3.0096582 -12.25800781 2.59329102 -11.36816406 2.16430664 C-7.48300769 0.53641402 -4.20939657 -0.01107736 0 0 Z " fill="#1C1C1C" transform="translate(394.8603515625,113.886474609375)"/>
<path d="M0 0 C1.75367237 2.63050855 2.38191404 3.93074977 3.0703125 6.87109375 C3.24433594 7.61037109 3.41835937 8.34964844 3.59765625 9.11132812 C3.77167969 9.87896484 3.94570312 10.64660156 4.125 11.4375 C4.30675781 12.20126953 4.48851562 12.96503906 4.67578125 13.75195312 C5.50770462 17.34548677 6 20.26380645 6 24 C-1.59 24 -9.18 24 -17 24 C-15.98007435 19.92029741 -15.05512679 18.52025019 -12.4375 15.375 C-11.72464844 14.50875 -11.01179687 13.6425 -10.27734375 12.75 C-9.52582031 11.8425 -8.77429688 10.935 -8 10 C-6.49659001 8.12773308 -4.99641903 6.25285918 -3.5 4.375 C-2.33333333 2.91666667 -1.16666667 1.45833333 0 0 Z " fill="#F6F6F6" transform="translate(161,130)"/>
<path d="M0 0 C0.66 0.33 1.32 0.66 2 1 C1.01 1.66 0.02 2.32 -1 3 C-2.19232613 5.05003955 -2.19232613 5.05003955 -3 7 C-2.01 7.66 -1.02 8.32 0 9 C-1.11375 9.433125 -2.2275 9.86625 -3.375 10.3125 C-7.17512334 11.69911119 -7.17512334 11.69911119 -9 15 C-11.79296875 16.24609375 -11.79296875 16.24609375 -15.1875 17.4375 C-20.17170206 19.2633958 -24.4658076 21.27948456 -29 24 C-30.01707031 24.42539063 -31.03414062 24.85078125 -32.08203125 25.2890625 C-37.73263812 27.66332961 -43.04719135 30.72918412 -48.41210938 33.6796875 C-49.23130859 34.12054688 -50.05050781 34.56140625 -50.89453125 35.015625 C-51.63550049 35.42071289 -52.37646973 35.82580078 -53.13989258 36.24316406 C-54.06064575 36.61779785 -54.06064575 36.61779785 -55 37 C-55.66 36.67 -56.32 36.34 -57 36 C-53.25 33 -53.25 33 -51 33 C-51 32.34 -51 31.68 -51 31 C-49.41015625 29.87890625 -49.41015625 29.87890625 -47.0625 28.5625 C-43.10200686 26.27016436 -39.24833656 23.87645474 -35.43164062 21.35620117 C-27.44490782 16.08954629 -19.30231387 11.1106678 -11.0625 6.25 C-9.47091064 5.30060547 -9.47091064 5.30060547 -7.84716797 4.33203125 C-6.8573291 3.75324219 -5.86749023 3.17445312 -4.84765625 2.578125 C-3.96086182 2.05637695 -3.07406738 1.53462891 -2.16040039 0.99707031 C-1.44746826 0.66803711 -0.73453613 0.33900391 0 0 Z " fill="#EF5627" transform="translate(224,68)"/>
<path d="M0 0 C1.8133922 3.20010388 2.52213974 6.13283843 3.125 9.75 C3.29257812 10.73484375 3.46015625 11.7196875 3.6328125 12.734375 C3.81457031 13.85585937 3.81457031 13.85585937 4 15 C5.32 14.67 6.64 14.34 8 14 C7.67 15.32 7.34 16.64 7 18 C7.99 17.34 8.98 16.68 10 16 C13 15 13 15 16 15 C16 14.34 16 13.68 16 13 C17.74122549 11.96427104 19.49336595 10.9468748 21.25 9.9375 C22.22453125 9.36902344 23.1990625 8.80054687 24.203125 8.21484375 C27 7 27 7 29.359375 7.31640625 C29.90078125 7.54199219 30.4421875 7.76757812 31 8 C30.36835937 8.31710938 29.73671875 8.63421875 29.0859375 8.9609375 C19.86830986 13.76897958 11.21864423 19.58882508 3.2734375 26.3046875 C1 28 1 28 -2 28 C-3.82421875 25.375 -3.82421875 25.375 -5.6875 22 C-6.31011719 20.88625 -6.93273437 19.7725 -7.57421875 18.625 C-8.04472656 17.75875 -8.51523437 16.8925 -9 16 C-8.34 15.67 -7.68 15.34 -7 15 C-6.34 16.65 -5.68 18.3 -5 20 C-4.01 20 -3.02 20 -2 20 C-2 19.01 -2 18.02 -2 17 C-0.68 17 0.64 17 2 17 C1.67 15.865625 1.34 14.73125 1 13.5625 C-0.15847067 9.00204151 -0.19493291 4.67838994 0 0 Z " fill="#F44F1C" transform="translate(537,80)"/>
<path d="M0 0 C0 0.33 0 0.66 0 1 C-3.87899045 1.3526355 -6.31531351 0.4605596 -9.8046875 -1.140625 C-18.66807883 -4.61027997 -28.61520198 -5.75549418 -38 -7 C-38.65613281 -7.09700195 -39.31226563 -7.19400391 -39.98828125 -7.29394531 C-52.53772723 -9.12746826 -64.680623 -8.90873438 -77.328125 -8.29296875 C-86.21967044 -7.86534243 -95.10110451 -7.90867724 -104 -8 C-104 -8.33 -104 -8.66 -104 -9 C-69.28394205 -14.40027568 -33.1080624 -11.58553221 0 0 Z " fill="#E6623B" transform="translate(481,25)"/>
<path d="M0 0 C2.0625 0.4375 2.0625 0.4375 4 1 C4 2.32 4 3.64 4 5 C4.66 5.66 5.32 6.32 6 7 C5.34 7 4.68 7 4 7 C4 7.66 4 8.32 4 9 C2.948125 9.433125 1.89625 9.86625 0.8125 10.3125 C-1.54145526 11.31114769 -3.55481473 12.34045449 -5.75 13.6875 C-8 15 -8 15 -11 15 C-11 15.66 -11 16.32 -11 17 C-12.65 17.33 -14.3 17.66 -16 18 C-16 18.66 -16 19.32 -16 20 C-17.32 20 -18.64 20 -20 20 C-19.9375 18.1875 -19.9375 18.1875 -19 16 C-16.66666667 15 -14.33333333 14 -12 13 C-11.33820153 11.01954441 -11.33820153 11.01954441 -11 9 C-8.36425528 7.12723402 -6.07007492 6.02335831 -3 5 C-1.8499169 3.03327085 -1.8499169 3.03327085 -1 1 C-0.67 0.67 -0.34 0.34 0 0 Z " fill="#F94B15" transform="translate(564,78)"/>
<path d="M0 0 C11.95759793 4.74614336 21.25175662 13.19172163 27.78515625 24.10546875 C27.45515625 24.76546875 27.12515625 25.42546875 26.78515625 26.10546875 C26.29015625 24.62046875 26.29015625 24.62046875 25.78515625 23.10546875 C25.12515625 23.10546875 24.46515625 23.10546875 23.78515625 23.10546875 C20.78515625 18.72085337 20.78515625 18.72085337 20.78515625 16.10546875 C19.46515625 15.77546875 18.14515625 15.44546875 16.78515625 15.10546875 C16.78515625 14.11546875 16.78515625 13.12546875 16.78515625 12.10546875 C16.20765625 11.82832031 15.63015625 11.55117188 15.03515625 11.265625 C12.15038336 9.77816398 9.49400513 8.0095353 6.78515625 6.2265625 C4.77742946 5.10113752 3.03266437 4.55196032 0.78515625 4.10546875 C0.78515625 3.44546875 0.78515625 2.78546875 0.78515625 2.10546875 C-4.06159104 1.33818087 -8.76472484 0.93182075 -13.6796875 0.7890625 C-14.69694664 0.75789085 -14.69694664 0.75789085 -15.73475647 0.72608948 C-17.87386206 0.66137566 -20.01307671 0.60207785 -22.15234375 0.54296875 C-23.61394299 0.49970891 -25.07553172 0.45609241 -26.53710938 0.41210938 C-30.09624215 0.30577624 -33.65549372 0.20429545 -37.21484375 0.10546875 C-27.84628671 -5.33481889 -10.14916203 -2.84818381 0 0 Z " fill="#E46C48" transform="translate(658.21484375,50.89453125)"/>
<path d="M0 0 C-0.33 0.66 -0.66 1.32 -1 2 C-0.01 2.33 0.98 2.66 2 3 C1.34 3.66 0.68 4.32 0 5 C-1.32 5 -2.64 5 -4 5 C-4 5.99 -4 6.98 -4 8 C-5.76505435 8.86604534 -7.53728074 9.71748642 -9.3125 10.5625 C-10.79169922 11.27599609 -10.79169922 11.27599609 -12.30078125 12.00390625 C-15 13 -15 13 -18 12 C-16.02 11.01 -14.04 10.02 -12 9 C-12.66 8.34 -13.32 7.68 -14 7 C-12.31937211 3.34216283 -11.15994668 2.08724364 -7.5625 0.125 C-2.99442897 -1.31754875 -2.99442897 -1.31754875 0 0 Z " fill="#F45421" transform="translate(234,68)"/>
<path d="M0 0 C0.54140625 0.22558594 1.0828125 0.45117188 1.640625 0.68359375 C1.00898437 1.00070313 0.37734375 1.3178125 -0.2734375 1.64453125 C-9.49106514 6.45257333 -18.14073077 12.27241883 -26.0859375 18.98828125 C-28.359375 20.68359375 -28.359375 20.68359375 -31.359375 20.68359375 C-33.359375 17.68359375 -33.359375 17.68359375 -33.359375 14.68359375 C-32.699375 14.68359375 -32.039375 14.68359375 -31.359375 14.68359375 C-30.369375 16.16859375 -30.369375 16.16859375 -29.359375 17.68359375 C-28.369375 17.35359375 -27.379375 17.02359375 -26.359375 16.68359375 C-26.029375 15.03359375 -25.699375 13.38359375 -25.359375 11.68359375 C-24.410625 11.39484375 -23.461875 11.10609375 -22.484375 10.80859375 C-19.30725922 9.91534266 -19.30725922 9.91534266 -17.359375 7.68359375 C-16.039375 7.68359375 -14.719375 7.68359375 -13.359375 7.68359375 C-13.359375 7.02359375 -13.359375 6.36359375 -13.359375 5.68359375 C-11.61814951 4.64786479 -9.86600905 3.63046855 -8.109375 2.62109375 C-7.13484375 2.05261719 -6.1603125 1.48414062 -5.15625 0.8984375 C-2.359375 -0.31640625 -2.359375 -0.31640625 0 0 Z " fill="#E76136" transform="translate(566.359375,87.31640625)"/>
<path d="M0 0 C1.79161812 -0.00472824 1.79161812 -0.00472824 3.61943054 -0.009552 C4.89977676 -0.00752777 6.18012299 -0.00550354 7.49926758 -0.00341797 C8.81921219 -0.00437469 10.1391568 -0.00533142 11.49909973 -0.00631714 C14.2855446 -0.0077878 17.07195732 -0.00565885 19.85839844 -0.00097656 C23.43296187 0.00473703 27.00745049 0.00142748 30.58201122 -0.00454903 C33.99193607 -0.00902436 37.40184061 -0.00589495 40.81176758 -0.00341797 C42.09818649 -0.0054422 43.38460541 -0.00746643 44.71000671 -0.009552 C45.89496231 -0.00639984 47.07991791 -0.00324768 48.30078125 0 C49.87033821 0.00119339 49.87033821 0.00119339 51.47160339 0.00241089 C53.95629883 0.12939453 53.95629883 0.12939453 55.95629883 1.12939453 C55.95629883 1.78939453 55.95629883 2.44939453 55.95629883 3.12939453 C54.77630058 3.02281273 54.77630058 3.02281273 53.57246399 2.91407776 C45.65298417 2.24523409 37.81927659 1.99493106 29.87426758 2.03173828 C28.10397942 2.0338607 28.10397942 2.0338607 26.29792786 2.036026 C22.57985752 2.0415613 18.86185053 2.05410113 15.14379883 2.06689453 C12.601482 2.07191791 10.05916421 2.07647934 7.5168457 2.08056641 C1.32997564 2.09150942 -4.85685824 2.10818151 -11.04370117 2.12939453 C-11.04370117 1.79939453 -11.04370117 1.46939453 -11.04370117 1.12939453 C-7.30071768 0.26182217 -3.83871158 0.00291207 0 0 Z " fill="#E66A44" transform="translate(373.043701171875,38.87060546875)"/>
<path d="M0 0 C0.66 0.33 1.32 0.66 2 1 C1.78881836 2.82299805 1.78881836 2.82299805 1 5 C-1.00952148 6.47973633 -1.00952148 6.47973633 -3.62109375 7.83203125 C-4.55630859 8.31994141 -5.49152344 8.80785156 -6.45507812 9.31054688 C-7.43927734 9.80619141 -8.42347656 10.30183594 -9.4375 10.8125 C-10.41783203 11.32748047 -11.39816406 11.84246094 -12.40820312 12.37304688 C-17.78747426 15.13857718 -17.78747426 15.13857718 -20 16 C-20.66 15.67 -21.32 15.34 -22 15 C-18.25 12 -18.25 12 -16 12 C-16 11.34 -16 10.68 -16 10 C-14.0234375 8.6328125 -14.0234375 8.6328125 -11.375 7.125 C-7.48207206 4.86887131 -3.7123173 2.54000657 0 0 Z " fill="#DF6C4A" transform="translate(189,89)"/>
<path d="M0 0 C0.66 0.33 1.32 0.66 2 1 C0.6392976 5.08210719 -1.22687686 5.11343843 -5 7 C-6.68711423 8.6459651 -8.3545622 10.31237149 -10 12 C-10.928125 12.515625 -11.85625 13.03125 -12.8125 13.5625 C-13.534375 14.036875 -14.25625 14.51125 -15 15 C-15 16.32 -15 17.64 -15 19 C-17.64 19.66 -20.28 20.32 -23 21 C-20.60770778 16.19801706 -17.38252355 13.6363841 -13.1875 10.5 C-11.97199808 9.57377976 -10.75714877 8.64670244 -9.54296875 7.71875 C-8.95435059 7.27144531 -8.36573242 6.82414062 -7.75927734 6.36328125 C-5.11225763 4.31207974 -2.55726439 2.16173039 0 0 Z " fill="#E86138" transform="translate(568,73)"/>
<path d="M0 0 C1.64935547 0.01353516 1.64935547 0.01353516 3.33203125 0.02734375 C6.01325758 0.05065876 8.69400607 0.0833796 11.375 0.125 C11.87 1.115 11.87 1.115 12.375 2.125 C11.71604736 2.15005615 11.05709473 2.1751123 10.37817383 2.20092773 C-7.14185676 2.85334265 -7.14185676 2.85334265 -24.625 4.125 C-18.92004095 -1.57995905 -7.46941086 -0.11798583 0 0 Z " fill="#E6744F" transform="translate(630.625,68.875)"/>
<path d="M0 0 C0.66 0.33 1.32 0.66 2 1 C-1.92657711 3.66380466 -6.15387609 3.25324779 -10.703125 3.1953125 C-11.54091492 3.1924826 -12.37870483 3.18965271 -13.24188232 3.18673706 C-15.91140163 3.17556349 -18.5805825 3.15046421 -21.25 3.125 C-23.06249515 3.11496654 -24.87499556 3.10584133 -26.6875 3.09765625 C-31.12512993 3.0756334 -35.56250763 3.04112304 -40 3 C-40.33 3.99 -40.66 4.98 -41 6 C-41.99 6.66 -42.98 7.32 -44 8 C-43.67 6.02 -43.34 4.04 -43 2 C-41.20598755 1.96241577 -41.20598755 1.96241577 -39.37573242 1.92407227 C-34.94202805 1.82996148 -30.508479 1.72974964 -26.07495117 1.62768555 C-24.15539175 1.5843506 -22.23579415 1.54267448 -20.31616211 1.50268555 C-17.55831386 1.44494822 -14.80065759 1.38126365 -12.04296875 1.31640625 C-11.18350143 1.29969376 -10.32403412 1.28298126 -9.43852234 1.26576233 C-8.63791885 1.24581711 -7.83731537 1.22587189 -7.01245117 1.20532227 C-6.3085173 1.18977798 -5.60458344 1.1742337 -4.87931824 1.15821838 C-2.77300917 1.05518396 -2.77300917 1.05518396 0 0 Z " fill="#2C2C2C" transform="translate(406,164)"/>
<path d="M0 0 C0.66 0.33 1.32 0.66 2 1 C1.01 2.32 0.02 3.64 -1 5 C-0.01 5.33 0.98 5.66 2 6 C-2.61012242 8.95047835 -5.36529617 10.5497272 -11 10 C-8.7057314 4.98128743 -4.95834368 2.21072648 0 0 Z " fill="#EA643D" transform="translate(200,82)"/>
<path d="M0 0 C0.66 0 1.32 0 2 0 C2 1.32 2 2.64 2 4 C-3.55079437 6.92678249 -9.00067626 9.1668733 -15 11 C-14.34 10.01 -13.68 9.02 -13 8 C-12.34 8 -11.68 8 -11 8 C-10.67 7.01 -10.34 6.02 -10 5 C-6.5065403 3.25327015 -3.93154432 2 0 2 C0 1.34 0 0.68 0 0 Z " fill="#F64B14" transform="translate(212,77)"/>
<path d="M0 0 C-8.73555437 4.73175861 -17.12958169 6.17316523 -27 6 C-23.56772861 3.71181908 -20.25503793 2.85248874 -16.3125 1.875 C-15.28866211 1.60236328 -15.28866211 1.60236328 -14.24414062 1.32421875 C-9.38028873 0.10251468 -5.01259657 -0.1687743 0 0 Z " fill="#E86F4B" transform="translate(362,19)"/>
<path d="M0 0 C0.66 0.33 1.32 0.66 2 1 C-1.625 4 -1.625 4 -5 4 C-5 4.66 -5 5.32 -5 6 C-6.98 6 -8.96 6 -11 6 C-11.33 7.32 -11.66 8.64 -12 10 C-14.97 10 -17.94 10 -21 10 C-16.88514874 5.88514874 -12.26647446 4.58573369 -6.83984375 2.9296875 C-4.03905571 2.10001757 -4.03905571 2.10001757 -1.75390625 0.8203125 C-1.17511719 0.54960938 -0.59632813 0.27890625 0 0 Z " fill="#EE6C49" transform="translate(268,47)"/>
<path d="M0 0 C25.56818182 0.56818182 25.56818182 0.56818182 32 7 C30.45737855 6.71342606 28.91594394 6.42046123 27.375 6.125 C26.51648438 5.96257813 25.65796875 5.80015625 24.7734375 5.6328125 C22 5 22 5 19.1875 4 C15.34363455 2.79408143 11.61705794 2.31535359 7.625 1.875 C6.88894531 1.78863281 6.15289062 1.70226563 5.39453125 1.61328125 C3.59700818 1.40318115 1.79858658 1.20079233 0 1 C0 0.67 0 0.34 0 0 Z " fill="#E5704B" transform="translate(431,42)"/>
<path d="M0 0 C3.63 0 7.26 0 11 0 C11 0.33 11 0.66 11 1 C7.89743488 1.8393758 4.79270556 2.6704505 1.6875 3.5 C0.80642578 3.73847656 -0.07464844 3.97695313 -0.98242188 4.22265625 C-1.82998047 4.44824219 -2.67753906 4.67382812 -3.55078125 4.90625 C-4.33106689 5.11572266 -5.11135254 5.32519531 -5.9152832 5.54101562 C-8 6 -8 6 -11 6 C-11 5.34 -11 4.68 -11 4 C-7.17679443 2.57741188 -4.08718695 1.75957724 0 2 C0 1.34 0 0.68 0 0 Z " fill="#E66437" transform="translate(293,51)"/>
<path d="M0 0 C0 0.33 0 0.66 0 1 C-2.05078125 1.22786458 -4.1015625 1.45572917 -6.15234375 1.68359375 C-8.01140229 1.81886614 -8.01140229 1.81886614 -9 3 C-11.58147238 3.56874905 -14.15163856 4.08445639 -16.75 4.5625 C-17.82507813 4.77036133 -17.82507813 4.77036133 -18.921875 4.98242188 C-22.66618324 5.68103821 -26.17192872 6.17331819 -30 6 C-28.66666667 5.33333333 -27.33333333 4.66666667 -26 4 C-25.42121094 3.67 -24.84242188 3.34 -24.24609375 3 C-16.92663451 -0.25875055 -7.89330529 -0.26756967 0 0 Z " fill="#E5724E" transform="translate(334,45)"/>
<path d="M0 0 C5.74548634 0.46585024 9.55497444 2.07098434 14.4375 5.0625 C15.07365234 5.43955078 15.70980469 5.81660156 16.36523438 6.20507812 C17.91632902 7.12640502 19.45907343 8.06176593 21 9 C20.67 9.66 20.34 10.32 20 11 C19.01 11 18.02 11 17 11 C16.34 10.01 15.68 9.02 15 8 C12.94074861 7.27617533 12.94074861 7.27617533 11 7 C11 6.34 11 5.68 11 5 C9.68 5 8.36 5 7 5 C7 4.34 7 3.68 7 3 C5.35 3 3.7 3 2 3 C2 2.34 2 1.68 2 1 C1.34 0.67 0.68 0.34 0 0 Z " fill="#E56841" transform="translate(481,26)"/>
<path d="M0 0 C0.99 0.33 1.98 0.66 3 1 C3 2.65 3 4.3 3 6 C3.66 6.33 4.32 6.66 5 7 C5.6328125 9.50390625 5.6328125 9.50390625 6.125 12.5625 C6.29257812 13.57441406 6.46015625 14.58632812 6.6328125 15.62890625 C6.75398437 16.41136719 6.87515625 17.19382812 7 18 C4.35674778 16.67837389 4.17570269 15.45029888 3.0625 12.75 C1.60231596 9.31009078 -0.0618139 6.19800707 -2 3 C-2 2.34 -2 1.68 -2 1 C-1.34 0.67 -0.68 0.34 0 0 Z " fill="#E56C4A" transform="translate(684,90)"/>
<path d="M0 0 C0.66 0 1.32 0 2 0 C3.52448631 2.9826906 4.93940067 5.818202 6 9 C3.03 9 0.06 9 -3 9 C-2.01 6.03 -1.02 3.06 0 0 Z " fill="#0E0E0E" transform="translate(539,167)"/>
<path d="M0 0 C1 2 1 2 0.2578125 4.390625 C-0.30292969 5.80601563 -0.30292969 5.80601563 -0.875 7.25 C-2.37106132 11.17587126 -3.54556382 14.79646537 -4 19 C-4.99 18.01 -5.98 17.02 -7 16 C-6.690625 15.401875 -6.38125 14.80375 -6.0625 14.1875 C-4.16405874 10.27894447 -3.98489667 8.17320256 -5 4 C-4.01 3.67 -3.02 3.34 -2 3 C-1.34 2.01 -0.68 1.02 0 0 Z " fill="#252525" transform="translate(119,114)"/>
<path d="M0 0 C-0.99 0 -1.98 0 -3 0 C-3.33 0.99 -3.66 1.98 -4 3 C-5.03125 3.12375 -6.0625 3.2475 -7.125 3.375 C-10.93929409 3.87198212 -10.93929409 3.87198212 -14.1875 5.125 C-17.16345922 6.05085398 -18.12903705 5.87296946 -21 5 C-4.5479249 -1.81916996 -4.5479249 -1.81916996 0 0 Z " fill="#E66C45" transform="translate(319,30)"/>
<path d="M0 0 C1.03125 0.165 2.0625 0.33 3.125 0.5 C6.48244326 0.93321848 9.62336157 1.08235703 13 1 C13 1.99 13 2.98 13 4 C8.05 4 3.1 4 -2 4 C-1.34 2.68 -0.68 1.36 0 0 Z " fill="#0F0F0F" transform="translate(268,172)"/>
<path d="M0 0 C-3.54082916 2.1244975 -6.94991891 2.46508363 -11 3 C-11.33 3.33 -11.66 3.66 -12 4 C-13.84891946 4.23363881 -15.70488031 4.41303635 -17.5625 4.5625 C-19.08037109 4.68818359 -19.08037109 4.68818359 -20.62890625 4.81640625 C-21.41136719 4.87699219 -22.19382812 4.93757813 -23 5 C-20.07948449 2.07948449 -16.5322813 1.71143432 -12.625 0.8125 C-11.85671875 0.62236328 -11.0884375 0.43222656 -10.296875 0.23632812 C-9.55179687 0.06166016 -8.80671875 -0.11300781 -8.0390625 -0.29296875 C-7.02126709 -0.53309692 -7.02126709 -0.53309692 -5.98291016 -0.77807617 C-3.74500552 -1.02853854 -2.13646318 -0.66529427 0 0 Z " fill="#FDE2D4" transform="translate(313,51)"/>
<path d="M0 0 C1.8133922 3.20010388 2.52213974 6.13283843 3.125 9.75 C3.29257812 10.73484375 3.46015625 11.7196875 3.6328125 12.734375 C3.81457031 13.85585937 3.81457031 13.85585937 4 15 C5.32 14.67 6.64 14.34 8 14 C7.67 14.99 7.34 15.98 7 17 C5.68 17 4.36 17 3 17 C3 16.01 3 15.02 3 14 C2.34 14 1.68 14 1 14 C-0.20568053 9.32798795 -0.09382426 4.78503708 0 0 Z " fill="#E86642" transform="translate(537,80)"/>
<path d="M0 0 C-0.99 1.485 -0.99 1.485 -2 3 C-1.34 3 -0.68 3 0 3 C0.33 3.66 0.66 4.32 1 5 C1.66 5.33 2.32 5.66 3 6 C2.34 7.32 1.68 8.64 1 10 C-1.66666667 6.66666667 -4.33333333 3.33333333 -7 0 C-3.98968256 -0.93423645 -3.13349732 -1.04449911 0 0 Z " fill="#EB5A2C" transform="translate(525,83)"/>
<path d="M0 0 C0.4125 0.94875 0.825 1.8975 1.25 2.875 C2.65955351 6.07852706 2.65955351 6.07852706 5.125 7.0625 C6.053125 7.5265625 6.053125 7.5265625 7 8 C7.75 10.625 7.75 10.625 8 13 C7.56429687 12.62488281 7.12859375 12.24976562 6.6796875 11.86328125 C2.81392401 8.54140223 -1.07657648 5.25357073 -5 2 C-2 0 -2 0 0 0 Z " fill="#E26348" transform="translate(510,70)"/>
<path d="M0 0 C1.485 0.99 1.485 0.99 3 2 C3.6875 5.625 3.6875 5.625 4 9 C4.66 9 5.32 9 6 9 C6.66 11.64 7.32 14.28 8 17 C7.34 17 6.68 17 6 17 C5.566875 15.96875 5.13375 14.9375 4.6875 13.875 C3.65386422 11.43857281 2.55523754 9.15989314 1.3125 6.8125 C0 4 0 4 0 0 Z " fill="#E66842" transform="translate(529,63)"/>
<path d="M0 0 C0.99 0.495 0.99 0.495 2 1 C2.59505999 3.04524321 2.95466781 5.09333957 3.33984375 7.1875 C3.55769531 7.785625 3.77554688 8.38375 4 9 C4.99 9.33 5.98 9.66 7 10 C7 9.34 7 8.68 7 8 C7.99 8.33 8.98 8.66 10 9 C5.25 13 5.25 13 3 13 C0.96834048 8.66579301 0.47939368 4.71403788 0 0 Z " fill="#FDDBCB" transform="translate(538,82)"/>
<path d="M0 0 C1.48831242 0.00667405 2.97660807 0.01863442 4.46484375 0.03515625 C5.22345703 0.03966797 5.98207031 0.04417969 6.76367188 0.04882812 C8.64326246 0.06064945 10.52281274 0.07858547 12.40234375 0.09765625 C12.40234375 0.42765625 12.40234375 0.75765625 12.40234375 1.09765625 C11.08169922 1.11892578 11.08169922 1.11892578 9.734375 1.140625 C2.25706555 1.09756472 2.25706555 1.09756472 -3.91015625 4.66015625 C-4.46703125 5.46453125 -5.02390625 6.26890625 -5.59765625 7.09765625 C-4.55898952 0.12375107 -4.55898952 0.12375107 0 0 Z " fill="#444444" transform="translate(501.59765625,113.90234375)"/>
<path d="M0 0 C0.99 0.66 1.98 1.32 3 2 C2.484375 2.391875 1.96875 2.78375 1.4375 3.1875 C0.963125 3.785625 0.48875 4.38375 0 5 C0.23043864 7.65466049 0.23043864 7.65466049 1 10 C-0.65 10.66 -2.3 11.32 -4 12 C-3.52494322 10.18641846 -3.04483958 8.37415821 -2.5625 6.5625 C-2.29566406 5.55316406 -2.02882813 4.54382813 -1.75390625 3.50390625 C-1 1 -1 1 0 0 Z " fill="#272727" transform="translate(11,142)"/>
<path d="M0 0 C0.33 1.98 0.66 3.96 1 6 C0.01 6 -0.98 6 -2 6 C-2 5.34 -2 4.68 -2 4 C-4.31 4.33 -6.62 4.66 -9 5 C-6.45523312 2.20075644 -3.92372883 0 0 0 Z " fill="#EF6A3E" transform="translate(239,61)"/>
<path d="M0 0 C0.66 0.33 1.32 0.66 2 1 C0.35 1.66 -1.3 2.32 -3 3 C-3 3.66 -3 4.32 -3 5 C-5.25 6.6875 -5.25 6.6875 -8 8 C-10.171875 7.58203125 -10.171875 7.58203125 -12 7 C-10.04754815 5.80285445 -8.08785003 4.61751926 -6.125 3.4375 C-5.03445312 2.77621094 -3.94390625 2.11492187 -2.8203125 1.43359375 C-1.88960937 0.96050781 -0.95890625 0.48742187 0 0 Z " fill="#E67652" transform="translate(224,68)"/>
<path d="M0 0 C0.79921875 0.00902344 1.5984375 0.01804687 2.421875 0.02734375 C3.02515625 0.03894531 3.6284375 0.05054687 4.25 0.0625 C3.92 0.7225 3.59 1.3825 3.25 2.0625 C-1.78890228 3.0908474 -6.63689982 3.15220351 -11.75 3.0625 C-7.71076287 0.36967525 -4.79463848 -0.07050939 0 0 Z " fill="#E95F36" transform="translate(346.75,21.9375)"/>
<path d="M0 0 C4.62 0 9.24 0 14 0 C13.67 2.31 13.34 4.62 13 7 C12.690625 6.360625 12.38125 5.72125 12.0625 5.0625 C11.1654837 3.06389179 11.1654837 3.06389179 10 2 C8.31816052 1.76712992 6.6287584 1.58735834 4.9375 1.4375 C4.01839844 1.35371094 3.09929688 1.26992187 2.15234375 1.18359375 C1.08693359 1.09271484 1.08693359 1.09271484 0 1 C0 0.67 0 0.34 0 0 Z " fill="#282828" transform="translate(664,140)"/>
<path d="M0 0 C0.66 0.33 1.32 0.66 2 1 C1 4 1 4 -1.75 5.5625 C-4.48116059 6.77051334 -7.21083436 7.93355431 -10 9 C-6.83047153 5.73991357 -3.60062011 2.77762123 0 0 Z " fill="#E6724F" transform="translate(568,73)"/>
<path d="M0 0 C-4.44404597 3.62107449 -8.21434368 5.33060893 -14 5 C-11.75043698 2.75043698 -9.93676737 1.99489035 -7 0.8125 C-6.113125 0.44769531 -5.22625 0.08289063 -4.3125 -0.29296875 C-2 -1 -2 -1 0 0 Z " fill="#FBD4C4" transform="translate(258,66)"/>
<path d="M0 0 C4.455 0.99 4.455 0.99 9 2 C8.67 2.66 8.34 3.32 8 4 C5.6859378 4.73075648 3.35171131 5.40138258 1 6 C0.67 4.02 0.34 2.04 0 0 Z " fill="#EC592D" transform="translate(567,81)"/>
<path d="M0 0 C2.125 0.9375 2.125 0.9375 4 2 C2.38007835 2.86375896 0.75388139 3.71575854 -0.875 4.5625 C-2.23238281 5.27599609 -2.23238281 5.27599609 -3.6171875 6.00390625 C-4.40351563 6.33261719 -5.18984375 6.66132812 -6 7 C-6.66 6.67 -7.32 6.34 -8 6 C-4.25 3 -4.25 3 -2 3 C-2 2.34 -2 1.68 -2 1 C-1.34 0.67 -0.68 0.34 0 0 Z " fill="#D29885" transform="translate(175,98)"/>
<path d="M0 0 C3.39417765 3.12621626 5.6062718 5.56541027 7 10 C6.34 10 5.68 10 5 10 C4.87625 9.071875 4.87625 9.071875 4.75 8.125 C4.18741541 5.81562433 4.18741541 5.81562433 1.9375 4.75 C1.298125 4.5025 0.65875 4.255 0 4 C0 2.68 0 1.36 0 0 Z " fill="#E66A48" transform="translate(522,53)"/>
<path d="M0 0 C0 0.66 0 1.32 0 2 C-4.53701494 3.45184478 -8.18061476 4.23509196 -13 4 C-8.68630028 1.12420019 -5.19265239 0 0 0 Z " fill="#E96641" transform="translate(613,53)"/>
<path d="M0 0 C0.33 1.32 0.66 2.64 1 4 C1.66 4 2.32 4 3 4 C1.63016497 7.16115776 1.0109362 7.9927092 -2 10 C-1.46274105 6.62294375 -0.88935377 3.303314 0 0 Z " fill="#373737" transform="translate(516,145)"/>
<path d="M0 0 C0.99 0.33 1.98 0.66 3 1 C2.67 3.31 2.34 5.62 2 8 C-2 3.25 -2 3.25 -2 1 C-1.34 0.67 -0.68 0.34 0 0 Z " fill="#ED5C39" transform="translate(684,90)"/>
<path d="M0 0 C-0.33 0.66 -0.66 1.32 -1 2 C-0.01 2.33 0.98 2.66 2 3 C-0.60582371 3.93065133 -1.64198224 4.14917407 -4.25 3.0625 C-4.8275 2.711875 -5.405 2.36125 -6 2 C-6 1.34 -6 0.68 -6 0 C-3.50907189 -1.24546405 -2.58919267 -0.7767578 0 0 Z " fill="#F74C0E" transform="translate(234,68)"/>
<path d="M0 0 C0.33 0.66 0.66 1.32 1 2 C-1 5 -3 8 -5 11 C-5.66 10.67 -6.32 10.34 -7 10 C-3.535 5.05 -3.535 5.05 0 0 Z " fill="#464646" transform="translate(71,128)"/>
<path d="M0 0 C1 3 1 3 0.3125 5.625 C-1 8 -1 8 -3.125 8.8125 C-3.74375 8.874375 -4.3625 8.93625 -5 9 C-3.7508258 5.54074837 -2.32472205 2.85306797 0 0 Z " fill="#BDBDBD" transform="translate(100,115)"/>
<path d="M0 0 C4.35535069 1.16142685 6.64619703 2.07699505 9 6 C3.50847458 5.38983051 3.50847458 5.38983051 1.125 3.5625 C0 2 0 2 0 0 Z " fill="#FDE9DA" transform="translate(666,79)"/>
<path d="M0 0 C0 0.99 0 1.98 0 3 C-6.625 6.125 -6.625 6.125 -10 5 C-8.71186658 4.16121545 -7.41936744 3.32913217 -6.125 2.5 C-5.40570313 2.0359375 -4.68640625 1.571875 -3.9453125 1.09375 C-2 0 -2 0 0 0 Z " fill="#E46642" transform="translate(212,76)"/>
<path d="M0 0 C3.87132028 0.57352893 6.08172796 2.48704352 9 5 C8.67 5.99 8.34 6.98 8 8 C7.34 7.67 6.68 7.34 6 7 C6 6.01 6 5.02 6 4 C5.38125 3.71125 4.7625 3.4225 4.125 3.125 C2 2 2 2 0 0 Z " fill="#E7623B" transform="translate(669,59)"/>
<path d="M0 0 C1.32 0.66 2.64 1.32 4 2 C3.67 3.65 3.34 5.3 3 7 C0.525 6.01 0.525 6.01 -2 5 C-1.34 3.35 -0.68 1.7 0 0 Z " fill="#1E1E1E" transform="translate(523,164)"/>
<path d="M0 0 C2.29633824 3.44450737 2.54016485 5.93812283 3 10 C2.01 9.67 1.02 9.34 0 9 C0 6.03 0 3.06 0 0 Z " fill="#E55F31" transform="translate(687,81)"/>
<path d="M0 0 C-0.99 0.33 -1.98 0.66 -3 1 C-3 1.66 -3 2.32 -3 3 C-5.64 3.33 -8.28 3.66 -11 4 C-9.71264403 1.42528807 -8.71510189 1.29583343 -6.0625 0.3125 C-5.35222656 0.04050781 -4.64195312 -0.23148438 -3.91015625 -0.51171875 C-2 -1 -2 -1 0 0 Z " fill="#E66C4D" transform="translate(600,58)"/>
<path d="M0 0 C2.57626463 1.28813232 3.07451225 2.30066074 4 5 C3.125 7.25 3.125 7.25 2 9 C0.14223235 5.86501708 -0.20140476 3.62528568 0 0 Z " fill="#3A3A3A" transform="translate(568,141)"/>
<path d="M0 0 C1.27351308 2.54702616 0.80191925 3.4282945 0.0625 6.125 C-0.13214844 6.84945312 -0.32679688 7.57390625 -0.52734375 8.3203125 C-0.68332031 8.87460938 -0.83929688 9.42890625 -1 10 C-1.33 9.01 -1.66 8.02 -2 7 C-2.66 6.67 -3.32 6.34 -4 6 C-1.125 1.125 -1.125 1.125 0 0 Z " fill="#212121" transform="translate(462,128)"/>
<path d="M0 0 C1.1875 2.0625 1.1875 2.0625 2 4 C-3.75 2.25 -3.75 2.25 -6 0 C-3 -1 -3 -1 0 0 Z " fill="#E5623A" transform="translate(485,55)"/>
<path d="M0 0 C0.66 0.33 1.32 0.66 2 1 C-1.625 4 -1.625 4 -5 4 C-5 4.66 -5 5.32 -5 6 C-5.99 5.67 -6.98 5.34 -8 5 C-5.31158141 2.74754119 -3.35358125 1.11786042 0 0 Z " fill="#EC582E" transform="translate(268,47)"/>
<path d="M0 0 C6.52307692 0.61538462 6.52307692 0.61538462 8.9375 2.5625 C9.288125 3.036875 9.63875 3.51125 10 4 C8.68 4.33 7.36 4.66 6 5 C5.34 4.01 4.68 3.02 4 2 C1.94996045 0.80767387 1.94996045 0.80767387 0 0 Z " fill="#EC5932" transform="translate(492,32)"/>
<path d="M0 0 C0.66 0.33 1.32 0.66 2 1 C2 2.65 2 4.3 2 6 C0.68 6.33 -0.64 6.66 -2 7 C-1.125 1.125 -1.125 1.125 0 0 Z " fill="#0C0C0C" transform="translate(427,155)"/>
<path d="M0 0 C0.33 1.65 0.66 3.3 1 5 C-3.875 3.25 -3.875 3.25 -5 1 C-2 0 -2 0 0 0 Z " fill="#ED5C2F" transform="translate(510,70)"/>
</svg>
