<?xml version="1.0" encoding="UTF-8"?>
<svg xmlns="http://www.w3.org/2000/svg" version="1.1" viewBox="0 0 612 131.1">
  <defs>
    <style>
      .cls-1 {
        fill-rule: evenodd;
      }

      .cls-1, .cls-2 {
        fill: #1d1d1b;
      }
    </style>
  </defs>
  <!-- Generator: Adobe Illustrator 28.6.0, SVG Export Plug-In . SVG Version: 1.2.0 Build 709)  -->
  <g>
    <g id="Layer_1">
      <g>
        <g>
          <polygon class="cls-1" points="596.4 13.6 596.4 117 570.5 117 570.5 73.6 562.8 73.6 562.8 117 536.8 117 536.8 13.6 562.8 13.6 562.8 50.6 570.5 50.6 570.5 13.6 596.4 13.6"/>
          <path class="cls-1" d="M527.5,58.7h-25.9v-18c0-5.2-.3-8.5-.8-9.8-.5-1.3-1.8-1.9-3.7-1.9s-3.5.8-4.1,2.4c-.6,1.6-.9,5-.9,10.2v48c0,5,.3,8.3.9,9.8.6,1.5,1.9,2.3,3.9,2.3s3.2-.8,3.8-2.3c.6-1.5.9-5.1.9-10.8v-12.9h25.9v4c0,10.7-.7,18.3-2.2,22.7-1.5,4.5-4.7,8.4-9.7,11.8-5,3.4-11.2,5.1-18.4,5.1s-13.9-1.4-18.8-4.3c-4.9-2.9-8.2-6.8-9.8-11.8-1.6-5.1-2.4-12.6-2.4-22.8v-30.2c0-7.5.2-13,.7-16.8.5-3.7,2-7.3,4.4-10.8,2.4-3.5,5.8-6.2,10.2-8.1,4.3-2,9.3-3,14.9-3s14,1.6,18.9,4.6c5,3.1,8.2,6.9,9.8,11.4,1.5,4.6,2.3,11.7,2.3,21.4v9.8Z"/>
          <polygon class="cls-1" points="414.6 13.6 457.8 13.6 457.8 34.3 440.5 34.3 440.5 53.9 456.7 53.9 456.7 73.6 440.5 73.6 440.5 96.3 459.5 96.3 459.5 117 414.6 117 414.6 13.6"/>
          <polygon class="cls-1" points="408.6 13.6 408.6 34.3 393.2 34.3 393.2 117 367.3 117 367.3 34.3 352 34.3 352 13.6 408.6 13.6"/>
          <path class="cls-1" d="M346.1,44.9h-24.1v-7.7c0-3.6-.3-5.9-.9-6.8-.6-1-1.6-1.5-3.1-1.5s-2.7.7-3.5,2c-.8,1.3-1.2,3.3-1.2,6s.4,6.1,1.3,7.8c.9,1.7,3.3,3.8,7.3,6.3,11.5,7.1,18.8,12.9,21.8,17.5,3,4.6,4.5,11.9,4.5,22s-.9,12.8-2.5,16.3c-1.7,3.5-4.9,6.4-9.6,8.8-4.8,2.4-10.3,3.6-16.6,3.6s-12.9-1.4-17.8-4.1c-4.9-2.7-8.1-6.2-9.7-10.4-1.5-4.2-2.3-10.2-2.3-18v-6.8h24.1v12.6c0,3.9.3,6.4,1,7.5.7,1.1,1.9,1.7,3.6,1.7s3-.7,3.8-2.1c.8-1.4,1.3-3.5,1.3-6.2,0-6.1-.8-10.1-2.4-12-1.6-1.9-5.7-5-12.1-9.4-6.5-4.4-10.7-7.7-12.8-9.7-2.1-2-3.8-4.8-5.2-8.3-1.4-3.5-2.1-8-2.1-13.5,0-7.9,1-13.7,2.9-17.4,1.9-3.7,5.1-6.5,9.4-8.6,4.4-2.1,9.6-3.1,15.8-3.1s12.5,1.1,17.2,3.4c4.7,2.3,7.9,5.1,9.4,8.5,1.5,3.4,2.3,9.2,2.3,17.5v4.1Z"/>
          <polygon class="cls-1" points="271.9 13.6 286.7 117 260.2 117 254.8 42 248.1 117 221.2 117 234.4 13.6 271.9 13.6"/>
          <path class="cls-1" d="M216.7,13.6v103.4h-22.7V47.2l-9.1,69.8h-16.1l-9.5-68.2v68.2h-22.7V13.6h33.6c1,6.2,2,13.5,3.1,22l3.6,26.3,5.9-48.3h33.8Z"/>
        </g>
        <g>
          <polygon class="cls-2" points="45.2 27.5 57.6 27.5 62.2 27.5 74.7 27.5 84.1 85.1 102.1 55.6 94.1 13.6 75.6 13.6 71.2 19.8 62.2 19.8 57.6 19.8 48.6 19.8 44.3 13.6 25.8 13.6 17.7 55.6 35.7 85 45.2 27.5"/>
          <polygon class="cls-2" points="59.9 52.1 49.2 117 70.6 117 59.9 52.1"/>
        </g>
        <rect class="cls-2" x="118.1" y="13.6" width="2.7" height="103.4"/>
      </g>
    </g>
  </g>
</svg>