<?xml version="1.0" encoding="utf-8"?>
<!-- Generator: Adobe Illustrator 27.5.0, SVG Export Plug-In . SVG Version: 6.00 Build 0)  -->
<svg version="1.1" xmlns="http://www.w3.org/2000/svg" xmlns:xlink="http://www.w3.org/1999/xlink" x="0px" y="0px"
	 viewBox="0 0 135.3 46.5" style="enable-background:new 0 0 135.3 46.5;" xml:space="preserve">
<style type="text/css">
	.st0{fill-rule:evenodd;clip-rule:evenodd;fill:#FEEE00;}
	.st1{fill-rule:evenodd;clip-rule:evenodd;}
</style>
<g id="Designs">
	<rect class="st0" width="135.3" height="46"/>
	<polygon class="st1" points="18.9,37.9 12.2,38 16.5,14.7 26.7,14.6 27.3,26.9 33.5,14.5 43.7,14.4 39.2,37.9 32.5,37.9 35.6,22.3 
		28.4,37.9 23.1,37.9 21.8,22.2 18.9,37.9 	"/>
	<path class="st1" d="M60.4,14.2l-7,0.1L40.3,37.9h7.4l1.8-3.4l7.6-0.1l0.5,3.3h7.1L60.4,14.2L60.4,14.2z M52.1,29.4l3.3-6.8l1,6.8
		H52.1L52.1,29.4z"/>
	<polygon class="st1" points="76.4,37.4 68.2,37.6 65.8,14.2 72.9,14.1 74.2,27.7 80.1,13.9 87.6,13.8 76.4,37.4 	"/>
	<polygon class="st1" points="89.4,13.8 96.6,13.7 92.2,37.2 84.9,37.3 89.4,13.8 	"/>
	<path class="st1" d="M112.6,22.1c0.2-4.2-7.3-5.7-8.5,3c-1.2,8.8,6.8,8.1,7.8,2.7h6.9c-1.1,8.8-9,9.7-12.6,9.5
		c-3.6-0.2-10.4-1.9-9.4-12.9c1.1-10.8,11.1-11.9,13-11.6c1.9,0.3,9.5,0.1,9.5,9.1L112.6,22.1L112.6,22.1z"/>
	<path class="st1" d="M123.4,8c0.5,0,0.6,0.2,0.6,0.5c0,0.3-0.2,0.5-0.6,0.5h-0.7V8H123.4L123.4,8z M122.1,7.6V11h0.6V9.5h0.7
		c0.2,0,0.4,0.1,0.4,0.3c0.1,0.2,0.1,0.4,0.1,0.6c0,0.2,0.1,0.4,0.1,0.6h0.6c-0.1-0.3-0.2-0.6-0.2-0.9c-0.1-0.4-0.1-0.7-0.6-0.8v0
		c0.4-0.1,0.7-0.4,0.7-0.8c0-0.7-0.6-0.9-1.2-0.9H122.1L122.1,7.6z M126.5,9.3c0-1.8-1.5-3-3.2-3c-1.7,0-3.2,1.3-3.2,3
		c0,1.8,1.5,3.1,3.2,3.1C125,12.3,126.5,11.1,126.5,9.3L126.5,9.3z M125.9,9.3c0,1.4-1.1,2.6-2.6,2.6c-1.4,0-2.6-1.1-2.6-2.6
		c0-1.4,1.2-2.6,2.6-2.6C124.8,6.7,125.9,7.9,125.9,9.3L125.9,9.3z"/>
</g>
<g id="Cut_Lines">
</g>
</svg>
