<?xml version="1.0" encoding="utf-8"?>
<!-- Generator: Adobe Illustrator 27.5.0, SVG Export Plug-In . SVG Version: 6.00 Build 0)  -->
<svg version="1.1" id="Livello_1" xmlns="http://www.w3.org/2000/svg" xmlns:xlink="http://www.w3.org/1999/xlink" x="0px" y="0px"
	 viewBox="0 0 283.7 266.3" style="enable-background:new 0 0 283.7 266.3;" xml:space="preserve">
<style type="text/css">
	.st0{fill:#E40521;}
	.st1{fill:#FFFFFF;}
</style>
<path class="st0" d="M0,0h283.7v266.3H0V0z"/>
<path class="st1" d="M131.7,195.6l6-33.8h59.8l-1,6.2h-37.6l-1.2,7h35.7l-1,6.3h-35.8l-1.4,8.1h38.5l-1.1,6.3L131.7,195.6z
	 M229,181.1l4.9-27.3h22.6l1.1-6.2H140l-1,6.2h71.4l-4.8,27.3L229,181.1z M48.1,181.1l3.8-21.7L76,173.6l29-14.1l-3.9,21.6h22.1
	l5.8-33.5h-21L78.1,162l-24.9-14.4H32l-5.9,33.6L48.1,181.1z"/>
</svg>
