<?xml version="1.0" encoding="UTF-8"?>
<svg xmlns="http://www.w3.org/2000/svg" xmlns:xlink="http://www.w3.org/1999/xlink" version="1.1" viewBox="0 0 1920 375.1">
  <defs>
    <style>
      .cls-1 {
        fill: #1c1c1c;
      }

      .cls-2 {
        fill: #fff;
      }

      .cls-3 {
        fill: #27509b;
      }
    </style>
    <symbol id="logo-brand" viewBox="0 0 1920 351.2">
      <g>
        <path class="cls-1" d="M523.1,27.2l2.3.8s1.3.5,1.8.5c7.8,2.6,25.2,11.7,31.7,24.6,13.3,4.9,22.9,11.7,28.8,19.7,11.4,2.1,20.3,7,25.2,9.6,11.4,6.5,19.5,12.7,24.4,19.4,4.2,5.4,6.8,9.6,8.8,14,4.8,2.6,9.5,5.4,14,8.5,20,13.2,24.2,37.6,24.7,40.4,0,.5.3,1.3.3,1.8h3.1c20,0,46.2,12.4,60.3,19.4h.3c2.1,1,4.2,2.1,4.9,2.3,4.7,2.1,14.3,7.2,24.2,13.7,12.7,8.5,21.3,16.3,26,23.6.8,1,1.3,2.3,1.8,3.6l8.3,5.2c2.4,1.5,4.4,3.7,5.7,6.2,2.3,1.3,4.2,2.3,4.7,2.9,6.5,4.1,9.3,11.4,7,18.4v.3c-2.1,6.2-7.8,13.7-17.4,16.1-3.4,7.3-10.6,11.4-18.7,11.4s-3.4-.3-4.4-.5c-.5,0-2.6-.5-18.2-4.4l-23.1-5.4c2.1,5.6,1.8,11.7-.8,17.1-3.1,6.5-9.6,10.6-16.4,10.6s-4.7-.5-6.8-1.6h-.3c-.8-.5-2.6-1.3-43.9-28-.5-.3-1-.8-1.6-1-20-17.4-27.3-27.7-29.1-30.3-1.6-2.3-3-4.7-4.2-7.2l-3.1,1.6c-8.1,3.6-16.9,5.4-25.7,5.4-15.8,0-27-6.2-29.9-8-1.6-.8-7.5-4.4-16.4-11.4-3.6-2.8-6.8-6-9.6-9.6-5-1-9.9-2.7-14.6-4.9-4.7-2.3-9.1-6-14-9.8l-.3-.3c-.8-.8-1.6-1.3-2.6-2.1-4.9-3.7-9.2-8.2-12.7-13.2h-.5c-.8-.3-7.3-1.6-15.6-5.4-2.1-1-4.2-2.1-6-3.4-4.7-.3-12-1-21.6-3.9h-.5c-.8.3-8.1,1.6-16.9,1.6s-7.5-.3-10.7-.8c-2.1-.3-9.6-1.6-15.8-3.4-3.1-.8-10.7-3.4-19.5-9.1-19,4.4-37.9,5.7-49.9,6.2,11.4,15.3,16.9,32.9,15.1,47.9-3.6,28.5-22.9,45.3-29.9,50.2-12,49.7-46.8,71-75.4,74.1-5.7,6.5-16.4,10.6-28.6,10.6s-9.6-.5-14.3-1.8c-15.3-4.1-27.5-15.8-29.9-28.5-15.3-12.7-39.2-41.2-32.5-92.2-5.7-7.8-16.9-27.5-9.4-57.5,5.2-20.5,17.9-35.2,37.2-43-14.8-7.2-27.8-15.8-38.7-25.9-.8-.5-1.3-1.3-1.8-1.8-25.7-1.3-49.1-11.9-67.6-30.8-13.3-13.5-22.3-29-28.1-42.8h465.9v.3h0Z"/>
        <path class="cls-2" d="M522,43.5c-5.5-1.8-14.8-5.4-27.8-5.4h-1.3c-13.5.3-29.6,7.2-41.1,19.9-11.7,12.7-17.9,31.9-16.1,50.8,1.8,18.9,13.3,34.7,27,43.3,3,2,6.4,3.6,9.9,4.7,1.3.5,2.9,1,4.2,1.3-.3-.3-.5-.8-.8-1-14-20.7-13-47.4-6.2-63.2,3.2-7.6,7.5-14.6,12.7-21,6.2-7.6,14.2-13.6,23.1-17.6,8.3-3.6,16.9-5.4,25.7-5.4h2.9c-4.4-2.8-8.8-5.2-12.2-6.2"/>
        <path class="cls-2" d="M550.4,66.6c-6.1-2.2-12.5-3.3-19-3.4-7,0-13.9,1.5-20.3,4.4-15.3,6.7-23.6,19.9-28.8,31.6-5.2,11.9-6.2,33.2,4.9,50,6.2,9.1,15.1,14.5,22.1,17.6-4.4-13.2-6.5-33.7,8.1-58.3v-.5c6.9-11.2,16.7-20.3,28.3-26.4,6.8-3.6,14-6,21.6-7.3-5.2-3.1-11.4-5.7-16.9-7.8"/>
        <path class="cls-2" d="M604.9,96.1c-6.2-3.4-14.8-8-25.7-8.6h-1.6c-16.4,0-36.1,7.8-48.9,28.2-22.9,38.3,2.1,64.7,10.4,71.2,4.9,3.9,9.9,7.8,13.8,10.1-1.8-5.2-2.6-9.1-2.6-10.4-1.8-9.6-.3-22,4.2-33.2,5.7-14.8,15.6-26.7,28.6-34.2,10.7-6.2,21.6-9.3,32.7-9.3s6,.3,8.3.5c-5.5-6.2-13.8-11.7-19.2-14.5M116.2,27.2c1,8.5,3.4,18.9,8.1,30,3.9,9.3,8.6,18.1,14.5,26.2-16.6-3.4-31.4-11.7-43.9-24.4-8.6-8.5-15.9-19.4-21.8-31.6h43.1v-.3ZM404.6,27.2c-2.5,2.3-4.9,4.6-7.3,7-9.9,10.1-17.7,28-20,40.4-4.2,20.2-1.3,39.9,8.3,58.3,3.1,5.7,6.8,11.1,11.2,15.8-21.6,3.9-42.1,4.1-48.9,4.1-.8-1.5-1.9-2.9-3.1-4.1-7.8-6.7-14.3-8.3-9.6-3.4,4.4,5.2,4.2,10.6,2.9,11.9-1,1-2.9.3-3.9,0-12.7-4.7-15.1-2.6-12.5-1,8,4.8,15.3,10.5,21.8,17.1,9.6,10.9,17.4,26.7,15.6,41.2-2.1,16.8-11.7,30-21.6,38.1-1,.8-1.8,1.6-2.3,1.8-.3.3-.5.5-.8.5-1.6,1-3.6,2.3-5.2,2.9-2.6.8-1.8,2.6,1,3.4-.3,1.3-.5,2.8-1,4.1-.3,1.3-.8,2.6-1,3.9-11.4,37.8-38.5,53.9-60.8,56.2h-.8c-5.2.5-8.8.5-9.6.5-3.6.5-2.1,2.1,0,2.8.8.3,1,1,.8,1.6-2.6,3.9-14.6,7.5-27,3.9-6.1-1.8-11.5-5.3-15.6-10.1-.5-.8-1-1.8-1.6-2.6,0-.3-.3-.5-.3-.8-.5-1.6,1.3-1,1.3-1,6,1.3,8.6-.3,3.9-2.9-2.9-1.6-7-4.4-9.9-6.5-9.3-7.1-16.7-16.2-21.8-26.7-5.7-11.9-8.6-25.9-8.1-40.9.3-2.1.3-6.2.5-7.5.3-1.6,1.3-3.1,4.9-2.6,4.9.5,8.1,1.6,3.6-2.1-1.8-1.3-7.5-6.7-10.9-10.9-6.8-8.5-12-24.4-6.8-44.3,4.4-17.1,15.1-28.5,32-33.9,10.1-2.9,33.3-6.7,51.2-5.7,1.8,0,2.3-.3,2.1-1-.3-.8-1.6-1.3-3.4-1.6-6.5-1.1-13.1-2-19.8-2.6-2.3-.3-4.2-1.8-4.4-2.8v-.3c-1.3-4.7,8.3-8.5,9.4-9.1,3.6-1,2.1-3.1.5-3.4-6.8-1.3-19,1.6-25.5,2.1-4.4.3-7.8-.5-9.1-1.3-15.3-6.7-28.3-15.3-39-25.1-11.7-10.8-20.9-24.1-27-38.8-3.2-8-5.5-16.3-6.8-24.9h274.1v.3h0Z"/>
        <path class="cls-2" d="M406.9,43.8c5.7-6,12.2-12.2,22.6-16.6h46.8c-13.2,3.8-25.1,11.3-34.3,21.5-7,7.8-12.5,17.4-16.1,28.2-3.4,10.7-4.6,22-3.7,33.2,1.1,11.3,5,22.1,11.2,31.6,4.2,6.7,9.6,12.4,15.6,17.4-.5,0-1.3-.3-1.8-.3,0,0-8.1-1-13.8-2.8-5.7-1.8-25.5-9.1-35.9-29.3-10.6-20.2-9.4-37.8-7-49.2,2.3-11.7,9.4-26.7,16.4-33.7M817,254.3c-1.3-.8-3.1-1.8-4.7-2.8v.3c-2.3,3.9-5.5,6.5-9.3,7.2-6,1.3-13.5-1-23.4-7.5-14.6-9.3-37.2-14.8-37.4-14.8-1.4-.2-2.4-1.5-2.2-3,0-.1,0-.3,0-.4.3-1.3,1.5-2.3,2.9-2.3h.8c1,.3,23.9,5.7,39.2,15.5,8.3,5.4,14.8,7.8,19,6.7,2.1-.5,3.6-1.5,4.9-3.9,1.8-2.9.3-4.4,0-4.4s-7.3-4.7-10.4-6.5c-2.5,2.6-5.8,4.2-9.4,4.7-5.2.5-10.6-1.8-16.1-7-13.3-12.4-27.5-16.3-27.8-16.6-1.5-.5-2.4-2.1-2.1-3.6.3-1.3,1.6-2.1,2.9-2.1h.8c.5.3,15.9,4.4,30.1,17.9,4.2,3.9,8.1,5.7,11.4,5.4,3.4-.3,5.5-2.6,6-3.1.5-.7.5-1.7,0-2.3-8.1-12.7-36.1-28.8-44.2-32.1-6-2.6-29.9-15.3-49.4-19.4-2.1-.5-4.4-.8-6.5-1h-.8c-2.9,0-16.1-.3-20,3.6-5.7,5.7-7.8,1.6-6-5.7-6.2-3.9-15.6-9.3-17.9-10.9-6.5-3.9-14.8.5-16.4.5-3.4,0,4.7-10.1,11.4-11.1,7.3-1,20.8,7.5,20.8,7.5l5.2,3.4s-3.1-19.7-17.7-29.5c-9.1-6-13-8-16.4-9.6-2.3-1-9.1-4.7-19.2-4.7s-15.9,1.8-25.7,7.5c-23.6,14-28.3,41.4-26.2,53.6,0,0,2.6,18.1,16.6,28.8,9.4,7.2,14.8,10.4,14.8,10.4,0,0,8.8,5.7,21.8,5.7s12.2-1,19-4.1c-2.1-1.6-3.9-3.1-4.9-4.4-2.6-4.1-6.5-13.2-3.9-13.2s3.1,4.7,9.4,7.8c3.1,1.6,17.7,10.1,17.7,10.1,0,0,.5,2.3,1.3,3.6,0,0,1.8,3.9,5.5,9.3.3.3.8,1,1.6,2.3,2.1,2.8,4.9,6.2,8.3,9.3,3.9,4.1,9.4,9.3,16.6,15.8,0,0,40.5,26.2,42.4,27.2.3.3.8.3,1,.3,3.4,0,8.3-6,2.3-14-4.9-6.5-10.7-10.9-15.1-14.2-1.3-1-3.1-2.1-4.4-2.6-6.2-2.1-14.3-7-15.6-8-1.3-1-1.3-2.8.3-2.1,5.5,2.3,14,4.4,15.6,4.9,9.4,2.1,77.2,18.4,78.2,18.6.3,0,1,.3,1.6.3,2.3,0,6.2-.8,7.3-5.7v-.5l-62.1-18.4c-1.5-.4-2.3-2-1.9-3.5,0,0,0,0,0-.1.3-1,1.3-1.8,2.3-2.1h1.3l55.4,16.3c1,.3,3.1.8,7.3,2.1l.5.3c1.3.3,2.3.5,3.4.5,5.7,0,9.1-4.7,10.1-7.5,1.6-1,1-1.8,0-2.6"/>
        <path class="cls-1" d="M244,202.8c-3.6-2.6-4.4-4.4-4.9-5.7-.5-1.3-.5-2.6-.3-3.1.3-.5,0-1.3-.5-1.5-.5-.3-1,0-1.3,0l-.8.8c-1,2.3,0,7.5,2.6,9.8,1,1,2.3,1.8,3.6,2.3.5.3,1.8.8,2.6-.3.5-1-.3-1.8-1-2.3M329.2,219.4c-.8-.3-1,.8-1.6,2.1-2.3-3.1-7.5-8-8.3-9.1l-3.1-4.7c-1.6-2.8-2.9-5.4-4.9-8-2.6-3.4-5.7-6.5-9.4-8.6-7-4.1-15.6-6.2-23.6-4.9-4.2.9-8.3,2.3-12.2,4.1-3.1,1.6-6.5,3.4-9.9,3.6-3.9,0-8.1-.3-12,.3-1.3.3-2.6.8-2.9,2.1-.5,1.8.8,3.9,2.6,3.9s1.3-.3,1.8-.3c1.3,0,2.6-.3,3.9-.3,14-.5,28.6,1.8,41.8,6,8.3,2.6,16.4,6,23.4,10.9,2.9,2.1,5.7,4.4,8.1,7,.3.5.8,1,1,1.3-.3.3-.5.3-.8.3-.8.3-.8,1.6.5,1.8,1.4.2,2.8-.2,3.9-1,.9-.9,1.4-2.1,1.6-3.4,1-1,1-2.8,0-3.1M310.5,207.5c-12.5-6.7-26.8-10.4-40.8-12.2,3.8-1.8,7.8-3.1,12-3.6,3.9-.3,7.5.3,11.2,1.3,3.6,1,7.3,2.8,10.4,5.2,3.1,2.8,5.5,6,7.3,9.3M231.3,237.5c-2.3,4.1-3.6,8.8-4.4,13.5-.8,4.7-1,9.6,0,14.2.8,4.7,2.9,8.8,6.8,11.4,3.1,2.3,7,3.6,10.9,3.6s2.1,0,3.1-.3c9.9-2.1,14.6-10.1,18.5-21.5,4.4-12.4,1.3-28-6.8-31.3-2.1-.8-5.2-1.8-5.2-1.8-2.1-.5-4.2-1-6.2-1s-4.7.5-6.8,1.8c-4.4,2.8-7.5,7.2-9.9,11.4M234.6,239.3c2.3-4.4,5.2-7.8,8.3-9.6,1.6-.8,3.1-1.3,4.9-1.3s3.1.3,5.2.8c.8.3,3.4,1,4.7,1.5,2.6,1,4.7,4.7,5.7,9.3.3,1.8.5,3.6.5,5.4-.5-5.9-3.6-10.6-7.8-11.4-6.2-1.6-13.3,5.2-15.6,15-.5,2.5-.8,5-.8,7.5,1.3-1.6,2.9-2.3,4.7-1.8,2.3.5,3.6,3.6,2.8,6.7-.8,2.3-2.6,4.1-4.4,4.4,1.3,1.8,3.1,3.1,4.9,3.6,4.7,1,9.6-2.1,12.7-7.8,0,.3-.3.5-.3.8-3.1,6.2-8.6,12.7-19,9.8-13.8-3.6-10.6-21.5-9.1-26.9.5-2.1,1.3-4.1,2.3-6.2M282.7,258.8c-1,4.1-2.6,10.4-2.1,16.3.5,8.6,4.9,13.5,10.1,15.3,6.5,2.1,13.5-1.3,17.4-6.2,2.3-2.8,4.4-7,6.2-11.1.5-1.3,1.3-2.8,1.8-4.4,1.6-4.7,2.3-9.3,2.1-13.7-.3-2.6-.5-5.2-1.6-7.2-.8-2.3-2.3-5.4-4.9-7-1.8-1-3.9-1.3-5.5-1.8-1.6-.3-3.3-.5-4.9-.5-1,0-2.1,0-3.1.3h-.8c-4.4,1.3-7,4.7-9.4,7.5-1.7,2.5-3.1,5.2-4.2,8,0,0-.3.5-.5,1.6-.3.6-.5,1.2-.5,1.8,0,.8,0,1-.3,1.3M285,270.1c0-3.6.5-7.8,1.6-11.4,1-3.6,2.6-7.2,4.7-10.4,1.8-2.6,4.2-5.2,7.5-6.2h.5c.8-.3,1.6-.3,2.3-.3,1.3,0,2.6.3,4.2.5,1.6.3,3.1.8,4.7,1.6,1.8,1,2.6,3.1,3.4,4.9.8,2.1,1,4.1,1.3,6.2.2,3.8-.3,7.6-1.6,11.1v-.5c2.1-9.6-.8-18.1-6.5-19.4-5.7-1.3-12,5.4-14,14.8-.5,2.4-.8,4.8-.8,7.2,1-1.5,2.9-2.6,4.7-2.1,2.3.5,3.6,3.6,2.9,6.5-.8,2.6-2.9,4.4-4.9,4.4,1,1.6,2.6,2.9,4.4,3.1,3.6.8,7.5-1.6,10.4-6.2l-2.3,3.9c-2.1,2.8-5.2,5.7-8.8,6.5-.5,0-1.3.3-1.8.3-3.4,0-6.8-1.6-8.6-4.1-2.6-2.8-3.1-6.7-3.1-10.4"/>
        <path class="cls-3" d="M1056.8,198.1l-40-108h52.5l40,108h-52.5ZM1876.1,198.1l-27.3-74.1c.3,7.5,1.8,37,2.9,53.9.3,7-1,12.4-4.4,15.8-4.2,4.4-9.4,4.4-9.6,4.4h-61.1l-40-108h44.2l28.3,76.7-3.4-76.7h74.3l40,108h-43.9ZM952.9,198.1l-38.5-58s2.3,30.3,3.1,37.8c.5,5.4-.3,20.5-13.8,20.5h-60.8l-40-108h47.6l28.8,78.2-6-78.2h42.4l52,76.9-28.3-76.9h47.8l40,108h-74.3v-.3h0ZM1354.1,198.1l-14.6-38.8h-26.5l14.3,38.8h-50.2l-39.5-108h49.9l13.5,36.5h26.5l-13.5-36.5h49.9l40,108h-49.9ZM1182,197.4c-31.7-6.5-74.8-29.8-74.6-72.3.3-24.6,29.9-38.1,64.2-37.3,19.2.5,37.4,3.9,39.5,4.4l12.7,32.6c-16.6-2.6-32.7-6.7-45.5-1.6-22.6,9.1-8.8,32.6,7.3,39.9,7,3.1,16.6,6.2,28.3,6,4.7,0,16.6-.3,21-10.6l15.8,38.1c-27.3,6.7-54.6,3.6-68.9.8h0ZM1472.8,169.9h60l10.6,28.2h-109.4l-40-108h110.7l10.6,29.3h-61.1l4.4,11.9h57.2l9.9,26.7h-57.2l4.2,11.9h0ZM1694.2,198.1l-40-108h52.5l40,108h-52.5ZM1622.7,198.1h-51.2l-40-108h102.6l13.3,36h-51.5l26.8,72h0ZM1856.6,27.2H10.1L0,0h1846.7l9.9,27.2Z"/>
      </g>
    </symbol>
  </defs>
  <!-- Generator: Adobe Illustrator 28.6.0, SVG Export Plug-In . SVG Version: 1.2.0 Build 709)  -->
  <g>
    <g id="Capa_1">
      <use id="logo-brand-usage" width="1920" height="351.2" transform="translate(0 361.1) scale(1 -1)" xlink:href="#logo-brand"/>
    </g>
  </g>
</svg>