<?xml version="1.0" encoding="UTF-8"?>
<svg xmlns="http://www.w3.org/2000/svg" version="1.1" viewBox="0 0 481 146">
  <defs>
    <style>
      .cls-1 {
        fill: #0088ed;
      }
    </style>
  </defs>
  <!-- Generator: Adobe Illustrator 28.6.0, SVG Export Plug-In . SVG Version: 1.2.0 Build 709)  -->
  <g>
    <g id="Layer_1">
      <g>
        <path class="cls-1" d="M5.4,28.1c.7-1.1,1.8-1.4,3-1.4,6.2,0,12.5,0,18.7,0,1.7,0,2.7.7,3.4,2.2,8.5,17.9,17,35.8,25.6,53.7.2.3.3.6.5,1,.4.8.7,1.7,1.8,1.7,1.2,0,1.5-1,1.9-1.8,8.6-18,17.2-36,25.7-54,.9-2,2.1-2.8,4.3-2.7,5.9.1,11.9,0,17.8,0,2.7,0,3.3.6,3.3,3.2,0,26.7,0,53.3,0,80,0,2.5-.6,3-3,3-3.7,0-7.4,0-11.1,0-3.4,0-3.8-.3-3.8-3.7,0-14.8,0-29.7,0-44.5,0-.9,0-1.8,0-2.6,0-1.1-.3-2.1-1.5-2.3-1.2-.2-1.6.8-2,1.6-4.3,8.7-8.5,17.4-12.8,26.2-3.8,7.8-7.6,15.6-11.4,23.5-.6,1.3-1.5,1.9-3,1.9-2.9,0-5.8-.1-8.6,0-1.7,0-2.6-.6-3.3-2-5.5-11.4-11-22.8-16.6-34.1-2.4-5-4.9-10.1-7.4-15.1-.5-.9-.8-2.2-2.2-1.9-1.5.3-1.5,1.6-1.5,2.8,0,14.8,0,29.7,0,44.5,0,6.9-.4,5.7-5.9,5.8-3,0-6,0-9,0-1.2,0-2.2-.3-3-1.1V28.1Z"/>
        <path class="cls-1" d="M209.2,9.4c2.2.8,4.3,1.8,6,3.6,3.4,3.6,4.1,9.3,1.6,13.6-2.7,4.6-7.7,6.7-12.7,5.4-4.8-1.3-8.3-5.9-8.4-11,0-5.3,2.8-9.3,7.9-11.1.3-.1.6-.3.9-.4,1.5,0,3.1,0,4.6,0Z"/>
        <path class="cls-1" d="M311.8,42.9c2,0,4,0,6,0,1.7-.1,2.4.6,2.9,2.1,3.7,10.5,7.4,21,11.1,31.5.2.7.5,1.3.7,2,.3.7.5,1.5,1.4,1.6,1,0,1.2-.8,1.5-1.5,1.2-3.1,2.4-6.2,3.5-9.2,3.1-8.1,6.2-16.1,9.2-24.3.6-1.6,1.3-2.3,3.1-2.2,2.1.1,4.2.1,6.4,0,1.5,0,2.3.5,2.9,1.9,3.9,10.6,8,21.1,11.9,31.7.2.6.5,1.2.7,1.8.2.6.6,1.2,1.3,1.2.9,0,1.2-.6,1.4-1.3.7-2,1.5-4.1,2.2-6.1,3.2-9,6.5-18,9.7-27.1.6-1.6,1.4-2.2,3.1-2.2,4,.1,8,0,12,0,2.5,0,2.9.6,2.1,3-6.9,18.8-13.7,37.6-20.6,56.4-1.1,3-2.2,6-3.2,9-.4,1.3-1.2,1.8-2.5,1.7-2.4,0-4.8-.1-7.2,0-1.6,0-2.4-.5-3-2-3.8-10.4-7.7-20.7-11.6-31.1-.4-.9-.7-1.9-1.1-2.8-.3-.7-.6-1.5-1.5-1.5-.8,0-1.1.8-1.4,1.4-1.6,4.1-3.1,8.1-4.7,12.2-2.8,7.2-5.6,14.5-8.3,21.7-.6,1.5-1.4,2.1-3,2-2.3-.1-4.7,0-7.1,0-1.3,0-2-.4-2.5-1.7-7.9-21.9-15.7-43.7-23.6-65.6-.8-2.2-.4-2.7,2-2.7,2.1,0,4.1,0,6.2,0Z"/>
        <path class="cls-1" d="M200.1,136.6c-1.8,0-3.6,0-5.4,0-3.1-.2-6-1.1-8.9-1.9-1.1-.3-1.6-1-1.6-2.2,0-2.8,0-5.5,0-8.3,0-1.3.6-2,1.9-2,1.9,0,3.8,0,5.6,0,3.6-.1,5.5-1.8,6.1-5.3.2-1.3.2-2.6.2-3.9,0-23.2,0-46.5,0-69.7,0-4,0-4,4-4,3.8,0,7.5,0,11.3,0,2,0,2.5.5,2.5,2.5,0,24.2,0,48.3,0,72.5,0,3.5-.4,7-1.3,10.5-1.8,6.8-7.3,11.3-14.4,11.9Z"/>
        <path class="cls-1" d="M472.9,40.8c-3.5,0-7.1,0-10.6,0-2.2,0-2.6.4-2.7,2.7,0,.6.3,1.3-.4,1.6-.6.2-1-.4-1.5-.7-8.2-4.9-17-6.6-26.3-4.8-19.3,3.7-31.9,21.9-29.2,41.6,3.4,24.4,30.2,40.2,55.1,26.5,2.4-1.3,2.3-1.4,2.4,1.3,0,0,0,.1,0,.2,0,2.3.6,2.8,2.8,2.8,3.5,0,6.9,0,10.4,0,1.1,0,2-.3,2.7-1V41.6c-.8-.5-1.7-.7-2.7-.7ZM457.6,75.7c0,10.2-5.5,17.9-14.2,20.1-11.7,3-22.6-4.7-23.8-16.7-.7-6.8.6-12.9,5.5-17.9,5.4-5.4,12.1-6.7,19.3-4.6,7.1,2.1,11.1,7.2,12.7,14.3.4,1.7.5,3.4.4,4.8Z"/>
        <path class="cls-1" d="M296.4,44c0-2.4-.6-3-2.9-3-3.5,0-6.9,0-10.4,0-2.1,0-2.7.6-2.8,2.8,0,2,0,2-1.8,1-7.7-4.7-16.1-6.5-25.1-5.1-22.9,3.7-36.8,27.2-28.8,49,8.6,23.5,34.7,30.3,53.8,19,.5-.3.9-1,1.5-.7.5.3.2,1.1.3,1.7,0,.2,0,.5,0,.7,0,2.3.5,2.8,2.8,2.8,3.3,0,6.6,0,9.9,0,3,0,3.4-.4,3.4-3.3,0-10.8,0-21.5,0-32.3,0-10.9,0-21.8,0-32.6ZM273.2,90.5c-5.4,5.8-12.1,7.3-19.5,5.2-7.4-2.1-11.4-7.5-12.9-14.9-.3-1.6-.4-3.1-.4-4.7.2-8.1,3.2-14.7,10.7-18.3,10.9-5.2,25.2.2,27.2,14.6.9,6.7-.2,12.9-5,18.1Z"/>
        <path class="cls-1" d="M155.1,39.2c-19-.2-36.6,16.2-36.4,36.9.2,20.6,16,36.8,36.4,36.9,20.7,0,36.9-16,37.2-36.2.3-20.6-16.1-37.4-37.2-37.5ZM169,90.8c-5.5,5.7-12.3,7-19.6,4.8-7-2.1-11-7.3-12.5-14.4-.4-1.7-.5-3.4-.4-4.8,0-9.1,4.3-16.3,11.6-19.1,12.6-4.8,25.1,2.7,26.3,16,.6,6.6-.6,12.6-5.3,17.5Z"/>
      </g>
    </g>
  </g>
</svg>