<?xml version="1.0" encoding="utf-8"?>
<!-- Generator: Adobe Illustrator 26.0.1, SVG Export Plug-In . SVG Version: 6.00 Build 0)  -->
<svg version="1.1" id="Artwork" xmlns="http://www.w3.org/2000/svg" xmlns:xlink="http://www.w3.org/1999/xlink" x="0px" y="0px"
	 viewBox="0 0 845 298.3" style="enable-background:new 0 0 845 298.3;" xml:space="preserve">
<style type="text/css">
	.st0{fill:#FFFFFF;}
</style>
<g>
	<g>
		<path d="M689.6,190c-3.1,0-5.5,0-8.4,0c-0.1-1.8-0.3-3.4-0.3-5.1c0-17.8,0-35.6,0-53.4c0-9.9-4.3-14.9-14-16.8
			c-7.2-1.4-14.2-1-21.1,1.6c-6.2,2.4-8.7,6.1-8.8,12.7c-0.1,12.4-0.2,24.8-0.3,37.2c0,2.4-0.1,4.8-0.3,7.3
			c-1.1,12.2-8.5,19.1-20.8,19.2c-2.6,0-5.1,0-7.7,0c-11.7-0.3-19.8-7.8-20.1-19.5c-0.3-17.4-0.1-34.7-0.1-52.1
			c0.5-0.2,0.9-0.6,1.2-0.6c7.5-0.6,7.5-0.6,7.5,7c0,14.1,0,28.2,0,42.3c0,10.6,3.8,14.3,14.5,14.4c13.9,0.1,17.1-3.1,17.1-17
			c0-11.5,0-23.1,0-34.6c0-15.6,6.5-24.1,22.2-26.2c7.4-1,15.4-0.1,22.8,1.3c4.3,0.8,8.1,4.3,12.6,6.8c10.2-10,23.6-10.3,37.3-7.8
			c12,2.2,19,11.2,19.1,23.3c0.1,18.7,0,37.3,0,56c0,1.3-0.1,2.5-0.2,4c-2.7,0-5.2,0-8.4,0c0-1.5,0-3,0-4.5c0-17.4,0-34.8,0-52.1
			c0-12.3-3.9-17.3-16.1-18.7c-5.8-0.6-12,0.1-17.7,1.5c-7.3,1.7-10.1,6.3-10.1,13.9c0,18.4,0,36.8,0,55.1
			C689.6,186.6,689.6,188.1,689.6,190z"/>
		<path d="M479.3,189.1c-3.2,0-5.8,0-8.9,0c0-1.7,0-3.2,0-4.7c0-17.7,0.4-35.3-0.1-53c-0.5-15,8.2-23.4,20.9-25.2
			c7.5-1.1,15.4-0.8,22.9,0.6c11,2,17.7,11.4,17.8,22.6c0,14.5,0,29.1,0,43.6c0,8.7,3.2,11.8,11.9,11.7c2.1,0,4.3-0.2,6.4-0.6
			c3-0.7,5.2-2.4,5.2-5.9c0-16.1,0-32.2,0-48.7c-4.5,0-8.9,0-13.6,0c0-3.2,0-5.9,0-9.1c4.5,0,8.8,0,13.7,0c0-4.5,0-8.6,0-12.9
			c3.1,0,5.8,0,8.9,0c0,4.2,0,8.3,0,12.8c4.5,0,8.6,0,12.9,0c0,3.1,0,5.8,0,8.9c-4.2,0-8.2,0-12.5,0c-0.1,1.6-0.3,2.7-0.3,3.8
			c0,13.7,0,27.4,0,41c0,7.6-1.3,14.9-9.7,17.7c-9.3,3-18.7,3.5-26.6-3.6c-4.1-3.7-4.8-8.8-4.8-14.1c0.1-13.8,0-27.6,0-41.5
			c0-12.2-5.6-18.2-17.9-18.4c-5.3-0.1-10.9,0.4-16,1.7c-7.3,1.9-9.8,6.1-9.8,13.6c0,18.2,0,36.5,0,54.7
			C479.3,185.6,479.3,187.1,479.3,189.1z"/>
		<path d="M284.1,189.8c-2.9,0-5.3,0-8.3,0c-0.1-1.5-0.2-3.2-0.2-4.8c0-18,0-35.9,0-53.9c0-14.5,6.1-22.1,20.3-25.1
			c7.8-1.7,15.8-1.9,23.3,0.7c4.8,1.7,9.2,4.9,14,7.5c10.5-10.2,24-10.8,38-7.8c12,2.6,18.5,11.2,18.5,23.3c0,18.5,0,37.1,0,55.6
			c0,1.4-0.1,2.8-0.2,4.4c-2.8,0-5.3,0-8.4,0c0-1.6,0-3.1,0-4.6c0-17.8,0-35.6,0-53.4c0-10.5-4-16.1-14.3-17.2
			c-6.6-0.7-13.7,0.1-20.2,1.5c-6.5,1.5-9.3,6.4-9.3,13.1c0,18.4,0,36.8,0,55.2c0,1.7,0,3.4,0,5.4c-3,0-5.8,0-9.2,0
			c0-1.4,0-2.9,0-4.4c0-18,0-35.9,0-53.9c0-10.1-3.9-15.1-13.8-16.9c-7.4-1.3-14.8-1.2-21.9,1.9c-5.6,2.4-8.3,6.6-8.3,12.7
			c0.1,18.4,0,36.8,0,55.1C284.1,185.9,284.1,187.6,284.1,189.8z"/>
		<path d="M142.9,189.7c-2.1,0.1-3.6,0.1-5.1,0.3c-3.2,0.4-4.1-1-4.1-4.1c0.1-15,0.1-29.9,0.1-44.9c0-3,0-6,0-9
			c0-11.7-5-17.3-16.9-18c-4.9-0.3-10,0-14.9,1c-8.8,1.8-12.2,6.4-12.2,15.4c0,17.9,0,35.9,0,53.8c0,1.7,0,3.4,0,5.4
			c-2.6,0-4.9,0-7.8,0c0-1.4,0-2.9,0-4.4c0-19.4,0.3-38.8-0.1-58.1c-0.2-8.4,3.5-14.2,10.4-17.6c12.5-6.2,25.6-6.5,38.4-0.4
			c2.8,1.3,5,3.7,7.7,5.7c11.3-10.8,25.2-11.6,39.6-8c11.2,2.7,17.5,11.4,17.6,22.8c0.1,18.8-0.1,37.6,0.1,56.4c0,3.8-1.6,4-4.6,4.1
			c-3.4,0.1-4.4-0.9-4.4-4.3c0.2-18.2,0.1-36.5,0.1-54.7c0-9.7-3.7-15.1-13.2-16.4c-6.6-0.9-13.7-0.4-20.3,1
			c-7.6,1.6-10.4,6.3-10.4,14c0,18.2,0,36.5,0,54.7C142.9,186,142.9,187.6,142.9,189.7z"/>
		<path d="M423.7,145.9c10,0,18.5,0,28.1,0c-0.3-7.4-0.2-14.4-1.1-21.3c-0.6-4.7-4.4-7.6-8.9-9c-8.7-2.7-17.4-2.6-26,0.8
			c-5.6,2.3-8.3,6.6-8.2,12.7c0.1,12,0,23.9,0,35.9c0,11.3,4.3,16.8,15.5,18.1c5.6,0.6,11.5,0.2,16.9-1c8.1-1.7,10.8-5.6,11.8-14.4
			c0.2-0.2,0.4-0.4,0.7-0.5c8.1-0.9,9.5,0.8,6.9,8.6c-2.4,7.3-7.7,11.9-14.9,14.2c-9.2,3-18.6,3.2-27.9,0.7
			c-11.3-3-17.5-11.5-17.5-23.1c0-12.2,0-24.5,0-36.7c0-14,5.9-21.6,19.7-24.7c7.8-1.8,15.6-1.7,23.3,0.3c11.1,2.9,17.6,10.7,18,22
			c0.3,7.3,0,14.5,0.1,21.8c0,2.6-1,3.5-3.6,3.5c-9.6-0.1-19.1,0-28.7,0C421.6,153.7,425.9,148.9,423.7,145.9z"/>
		<path d="M266.1,149.2c0,6.4,0,12.8,0,19.2c0,10-4.7,17.2-14,20.8c-10.5,4-21.3,4.1-31.9,0.6c-9.6-3.2-15.4-11.7-15.4-21.8
			c0-12.4,0-24.8,0-37.2c0-13.7,6.1-21.5,19.4-24.7c8-1.9,16.1-1.9,24.1,0.3c11.3,3.1,17.7,11.5,17.7,23.1
			C266.1,136.1,266.1,142.6,266.1,149.2z M257.5,149.2c0-6.5,0-13.1,0-19.6c-0.1-6.2-2.6-11.3-8.5-13.5c-9.4-3.6-19-3.4-28.3,0.7
			c-4.6,2.1-7,6-7,11.3c0.1,13.2,0,26.5,0,39.7c0,7.2,3.2,11.8,10.2,14.1c8.1,2.6,16.3,2.3,24.4-0.5c6.5-2.3,9.2-6.4,9.3-13.3
			C257.6,161.7,257.5,155.5,257.5,149.2z"/>
		<path class="st0" d="M754,118.3c-3,0-5.6-2.7-5.7-5.8c-0.1-3.3,2.6-6.2,5.7-6.1c3.1,0,5.8,2.9,5.7,6.2
			C759.6,115.7,757,118.3,754,118.3z M751.6,115c0.7-0.8,1.3-1.5,2-2.4c0.9,1.1,1.7,2,2.4,3c0.4-2.1,1.6-4.3,0.9-5.5
			c-0.6-1.1-3.2-1-5.3-1.5C751.6,111.2,751.6,113,751.6,115z"/>
	</g>
	<g>
		<g>
			<g>
				<path d="M753.9,109.5c0.5-0.1,1.3-0.2,2-0.2c1.1,0,1.8,0.2,2.3,0.7c0.4,0.4,0.6,0.9,0.6,1.5c0,1.1-0.7,1.8-1.5,2.1v0
					c0.6,0.2,1,0.8,1.2,1.6c0.3,1.1,0.5,1.9,0.6,2.2H758c-0.1-0.2-0.3-0.9-0.5-1.9c-0.2-1.1-0.7-1.5-1.6-1.6h-1v3.5h-1V109.5z
					 M754.9,113.1h1.1c1.1,0,1.8-0.6,1.8-1.5c0-1-0.8-1.5-1.9-1.5c-0.5,0-0.9,0-1,0.1V113.1z"/>
			</g>
		</g>
		<g>
			<path d="M756.1,120.5c-3.9,0-7-3.2-7-7s3.2-7,7-7s7,3.2,7,7S760,120.5,756.1,120.5z M756.1,107.4c-3.3,0-6,2.7-6,6
				c0,3.3,2.7,6,6,6s6-2.7,6-6C762.2,110.1,759.4,107.4,756.1,107.4z"/>
		</g>
	</g>
</g>
</svg>
