<?xml version="1.0" encoding="utf-8"?>
<!-- Generator: $$$/GeneralStr/196=Adobe Illustrator 27.6.0, SVG Export Plug-In . SVG Version: 6.00 Build 0)  -->
<svg version="1.1" id="Capa_1" xmlns="http://www.w3.org/2000/svg" xmlns:xlink="http://www.w3.org/1999/xlink" x="0px" y="0px"
	 viewBox="0 0 127 59.1" style="enable-background:new 0 0 127 59.1;" xml:space="preserve">
<style type="text/css">
	.st0{fill:#009888;}
	.st1{fill-rule:evenodd;clip-rule:evenodd;fill:#009888;}
	.st2{fill:#FFD400;}
</style>
<g>
	<g>
		<path class="st0" d="M62,2.3c-2.2-0.1-4.4,0.1-6.6,0.4v0.6c2.8,0.4,5.1,1.1,5.2,2.3s-1.5,1.5-6.5,2C48,8,45.4,9.9,45.3,13
			c-0.1,4.1,7,7.9,16.9,7.9s17.7-3.8,17.7-9.3C79.7,6.8,71.9,2.3,62,2.3 M67.1,9.7c-2,1.1-5.8,1.5-7.6,2s-3.8,1.3-3.9,3.1
			c-0.1,3.5,5.5,5.2,10,4.9h-0.3c-1.3,0.2-2.6,0.3-3.9,0.3l0,0c-1.4,0-2.8-0.1-4.2-0.3c-0.5-0.1-1.1-0.2-1.5-0.4
			c-4.2-1.3-5.6-3.7-5.5-5.3c0-1.5,1.4-3.8,7.5-4.4S65,8,65.1,6.3s-1.8-3.2-5.6-3.2h3.4c0.4,0,0.8,0,1.1,0.1c3,0.4,5.3,1.7,5.3,3.8
			C69,8.2,68.2,9.2,67.1,9.7"/>
	</g>
	<g>
		<path class="st0" d="M124.5,25.2c0-0.3,0-0.4-0.1-0.6c-0.2-0.2-0.4-0.3-0.7-0.3h-1.1v2.5h0.4v-1h0.6l0.7,1h0.6l-0.7-1.1
			C124.3,25.8,124.5,25.5,124.5,25.2 M123.6,25.5h-0.7v-0.7h0.7c0.2,0,0.3,0,0.4,0.1c0.1,0.1,0.1,0.2,0.1,0.3
			C124.1,25.4,123.9,25.5,123.6,25.5"/>
	</g>
	<g>
		<path class="st0" d="M114.9,32.8l7.5,10.4h-6.5l-4.2-6.9l-4.4,6.9H89.7V23.8h18.7l3.4,5.5l3.2-5.5h6.3L114.9,32.8z M103.9,39
			l4.5-6.2l-3.4-4.8h-10v3h8.6v4.2h-8.6v3.9L103.9,39z"/>
	</g>
	<g>
		<path class="st0" d="M89,30.3c0.1,2.4-1.5,4.5-3.8,5.2l4.4,7.7h-5.9L80,36.4h-2.5v6.8h-5.2v-6.3c-0.4,1.6-1.3,3.1-2.5,4.2
			c-1.8,1.8-4.3,2.8-6.9,2.7c-2.6,0-5-0.9-6.9-2.7c-2-2-3-4.8-3-7.6c-0.1-1.9,0.4-3.8,1.4-5.5h-3.8v15.3h-5.2V28h-3.8
			c1,1.7,1.5,3.6,1.4,5.5c0.1,2.8-1,5.6-3,7.6c-1.8,1.8-4.3,2.8-6.9,2.7c-2.6,0-5-0.9-6.9-2.7c-1.3-1.2-2.1-2.8-2.5-4.5v6.6h-5.1
			V30.1l-3.4,13.1h-4.6L7.3,30.1v13.1H2.5V23.8H10l3.2,13.4l3.2-13.4h7.2v6.8c1-4.3,5-7.3,9.4-7.2c2.6,0,5,0.9,6.9,2.7l0.4,0.4v-2.7
			h15.2v2.7c1.8-2.1,4.5-3.3,7.3-3.2c2.6,0,5,0.9,6.9,2.7c1.2,1.2,2,2.6,2.5,4.2v-6.3H82c2.4,0,4.2,0.6,5.5,1.8
			C88.6,26.9,89.1,28.6,89,30.3 M33,39.3c3.4,0,4.6-3,4.6-5.8c0.1-1.7-0.5-3.3-1.5-4.6c-0.8-0.7-1.9-1.1-3-1.1
			c-1.1,0-2.2,0.4-3.1,1.1c-1,1-1.4,2.5-1.4,4.6c-0.1,1.7,0.5,3.4,1.5,4.6C30.9,38.9,32,39.4,33,39.3 M62.7,39.3
			c3.4,0,4.6-3,4.6-5.8c0.1-1.7-0.5-3.3-1.5-4.6c-0.8-0.7-1.9-1.1-3-1.1c-1.1,0-2.2,0.4-3.1,1.1c-1,1-1.4,2.5-1.4,4.6
			c-0.1,1.7,0.5,3.4,1.5,4.6C60.6,38.9,61.7,39.3,62.7,39.3 M81.4,32.4c1.1,0.1,2.1-0.6,2.3-1.7c0-0.2,0-0.3,0-0.5
			c0.2-1.1-0.5-2.1-1.6-2.3c-0.2,0-0.4,0-0.6,0h-4.1v4.6h4.1V32.4z"/>
	</g>
	<g>
		<path class="st1" d="M2.2,50.8c0,2.7,1.4,4.9,4.2,4.9s4.2-2.1,4.2-4.9c0-2.7-1.4-4.9-4.2-4.9S2.2,48.1,2.2,50.8 M3.5,50.8
			c0-2,0.6-3.8,3-3.8s3,1.7,3,3.8c0,2-0.6,3.8-3,3.8S3.5,52.8,3.5,50.8"/>
	</g>
	<g>
		<path class="st1" d="M14.5,49h-1.3v6.5h1.3V49z M13.1,47.6h1.4v-1.3h-1.4V47.6z"/>
	</g>
	<g transform="translate(0 0)">
		<rect x="17.4" y="46.2" class="st0" width="1.3" height="9.3"/>
	</g>
	<g>
		<path class="st1" d="M29.4,48.8c-1.9-0.1-3.4,1.4-3.5,3.2c-0.1,1.9,1.4,3.4,3.2,3.5c1.9,0.1,3.4-1.4,3.5-3.2c0,0,0-0.1,0-0.1
			c0.2-1.7-1-3.2-2.7-3.4C29.7,48.8,29.6,48.8,29.4,48.8 M27.4,52.2c0-1.4,0.4-2.5,2-2.5s2,1.1,2,2.5s-0.4,2.5-2,2.5
			S27.4,53.6,27.4,52.2"/>
	</g>
	<g>
		<path class="st0" d="M36.7,55.4v-5.6h1.5V49h-1.5v-1c0-0.7,0.4-0.8,1.1-0.8h0.6v-1c-0.3,0-0.6-0.1-0.8-0.1c-0.9-0.1-1.8,0.5-2,1.5
			c0,0.1,0,0.2,0,0.4v1.3h-1.3V50h1.3v5.6h1.1V55.4z"/>
	</g>
	<g>
		<path class="st0" d="M44.7,52.8c0,2.1,1.4,3,3.4,3c1.8,0,3.8-0.7,3.8-2.8c0-2.4-2.4-2.4-4.1-3c-0.8-0.3-1.5-0.3-1.5-1.4
			s1.3-1.4,2.1-1.4c1,0,1.8,0.4,1.8,1.4h1.4c0-1.8-1.5-2.5-3.1-2.5c-1.7,0-3.7,0.7-3.7,2.8s2.5,2.4,4.1,2.8c0.8,0.1,1.5,0.6,1.5,1.4
			c0,1.3-1.3,1.5-2.4,1.5c-1.3,0-2-0.4-2.1-1.8L44.7,52.8z"/>
	</g>
	<g>
		<path class="st0" d="M62.6,49L61,54.2h-0.1L59.5,49h-1.6l-1.7,5.2l0,0L54.7,49h-1.4l2.3,6.5H57l1.7-5.2l0,0l1.5,5.2h1.4l2.3-6.5
			H62.6z"/>
	</g>
	<g>
		<path class="st1" d="M67.1,49h-1.3v6.5h1.3V49z M65.7,47.6h1.4v-1.3h-1.4V47.6z"/>
	</g>
	<g>
		<path class="st0" d="M69.3,49v1h1.1V54c0,0.8,0,0.8,0.3,1.3c0.2,0.2,0.4,0.4,0.7,0.4h0.8c0.3,0,0.6,0,0.8-0.1v-1
			c-0.2,0.1-0.5,0.1-0.7,0.1c-0.4,0-0.8-0.3-0.8-0.7v-4.2h1.6v-1h-1.5V47l-1.3,0.4v1.4L69.3,49z"/>
	</g>
	<g>
		<path class="st0" d="M80,54.6h-3.4l3.2-4.8V49h-4.5v0.8h3.2l-3.4,4.8v0.8H80L80,54.6z"/>
	</g>
	<g>
		<path class="st1" d="M87.8,52.5v-0.6c0-1.8-1-3.1-2.8-3.1c-2.1,0-3,1.5-3,3.5s0.8,3.4,3,3.4c1.5,0,2.7-0.7,2.8-2.3h-1.3
			c-0.1,1-0.6,1.3-1.5,1.3c-1.3,0-1.7-1.1-1.7-2.3L87.8,52.5L87.8,52.5z M83.1,51.6c0-1.1,0.6-2,1.7-2s1.7,0.8,1.7,2H83.1z"/>
	</g>
	<g>
		<path class="st0" d="M91.6,52.3c0-1.4,0.3-2.3,1.8-2.3H94V49h-0.4c-0.9,0-1.7,0.5-2,1.4l0,0v-1.3h-1.3v6.5h1.3V52.3z"/>
	</g>
	<g transform="translate(0 0)">
		<rect x="95.9" y="46.2" class="st0" width="1.3" height="9.3"/>
	</g>
	<g>
		<path class="st1" d="M103.9,52.3c0,1.3-0.3,2.4-1.7,2.4c-0.7,0-1.2-0.4-1.3-1.1c0-0.1,0-0.1,0-0.2c0-1,1-1.3,1.7-1.3h1.3V52.3z
			 M102.8,51.5c-1.5,0-3.1,0.6-3.1,2.4c0,1.3,1.1,1.8,2.3,1.8c0.8,0.1,1.6-0.4,2-1.1l0,0v0.8c0,0.1,0.3,0.1,0.3,0.1h0.8v-4.5
			c0-1.8-1.3-2.3-2.7-2.3c-1.3,0-2.4,0.6-2.4,2h1.3c0-0.7,0.6-1,1.3-1c1.3,0,1.4,0.7,1.4,1.8h-1.1V51.5z"/>
	</g>
	<g>
		<path class="st0" d="M109.3,49H108v6.5h1.3v-3.5c0-1.3,0.3-1.5,0.6-1.7c0.3-0.3,0.7-0.5,1.1-0.4c1,0,1.5,0.6,1.5,1.7v4.1h1.3v-4.5
			c0-1.2-1-2.2-2.2-2.3c-0.1,0-0.1,0-0.2,0c-0.8,0-1.6,0.4-2,1.1l0,0v-1L109.3,49z"/>
	</g>
	<g>
		<path class="st1" d="M117.4,52.2c0-1.3,0.4-2.5,1.8-2.5s1.8,1.4,1.8,2.5c0,1.3-0.3,2.5-1.8,2.5C117.9,54.9,117.4,53.5,117.4,52.2
			 M121.1,50L121.1,50c-0.4-0.8-1.2-1.2-2.1-1.1c-2,0-3,1.7-3,3.4s0.7,3.4,2.7,3.4c0.9,0.1,1.9-0.4,2.3-1.3l0,0v1h1.3V46H121V50
			L121.1,50z"/>
	</g>
	<g>
		<path class="st2" d="M49.9,13.9c0-1.5,1.4-3.8,7.5-4.4S64.8,8,65,6.3s-1.8-3.2-5.6-3.2l0,0c0.3,0.1,2.3,0.8,2.3,2.4
			c0,2-2.8,2.3-5.3,2.5c-0.3,0-0.7,0-1,0.1c-3.4,0.4-5.1,0.6-6.8,1.4c-1.4,0.6-2.3,1.9-2.4,3.4c-0.1,2.3,3.4,4.2,5.5,5.1
			c1.8,0.7,3.6,1.2,5.5,1.5c-0.6-0.1-1.1-0.3-1.5-0.4C51.3,18,49.9,15.6,49.9,13.9"/>
	</g>
	<g>
		<path class="st2" d="M75.8,6.9c-2.3-1.5-6-3.7-13.2-3.9c0.4,0,0.8,0,1.1,0.1c3,0.4,5.3,1.7,5.3,3.8c0,1.2-0.7,2.3-1.8,2.8
			c-2,1.1-5.8,1.5-7.6,2s-3.8,1.3-3.9,3.1c-0.1,3.5,5.5,5.2,10,4.9h0.4c3-0.3,7.2-1.4,9.3-3c2-1.4,3.2-2.5,3.4-4.4
			C78.9,10.8,78.8,9,75.8,6.9"/>
	</g>
</g>
<g>
	<g>
		<path d="M308.8,497.2L308.8,497.2l-1.4,0.7l-0.2-0.8l1.7-0.9h0.9v7.8h-1V497.2z"/>
		<path d="M312.8,503.4c0-0.4,0.3-0.8,0.7-0.8c0.4,0,0.7,0.3,0.7,0.8c0,0.4-0.3,0.8-0.7,0.8C313.1,504.1,312.8,503.8,312.8,503.4z"
			/>
		<path d="M324.8,502.7c0.5,0.3,1.2,0.5,1.9,0.5c1.1,0,1.7-0.6,1.7-1.4c0-0.8-0.4-1.2-1.5-1.6c-1.3-0.5-2.1-1.2-2.1-2.3
			c0-1.3,1-2.2,2.6-2.2c0.8,0,1.4,0.2,1.8,0.4l-0.3,0.9c-0.3-0.1-0.8-0.4-1.5-0.4c-1.1,0-1.5,0.7-1.5,1.2c0,0.8,0.5,1.1,1.6,1.6
			c1.4,0.5,2.1,1.2,2.1,2.4c0,1.2-0.9,2.3-2.8,2.3c-0.8,0-1.6-0.2-2.1-0.5L324.8,502.7z"/>
		<path d="M330.8,495.5h1.1v8.5h-1.1V495.5z"/>
		<path d="M334.8,496.6c0,0.4-0.3,0.6-0.7,0.6c-0.4,0-0.6-0.3-0.6-0.6c0-0.4,0.3-0.7,0.7-0.7C334.5,495.9,334.8,496.2,334.8,496.6z
			 M333.6,504v-5.8h1.1v5.8H333.6z"/>
		<path d="M336.4,499.8c0-0.6,0-1.1,0-1.6h0.9l0,0.9h0c0.3-0.6,0.9-1.1,1.8-1.1c0.8,0,1.4,0.5,1.6,1.2h0c0.2-0.3,0.4-0.6,0.6-0.8
			c0.3-0.3,0.7-0.4,1.3-0.4c0.8,0,1.9,0.5,1.9,2.5v3.4h-1v-3.3c0-1.1-0.4-1.8-1.3-1.8c-0.6,0-1.1,0.4-1.2,1c0,0.1-0.1,0.3-0.1,0.5
			v3.6h-1v-3.5c0-0.9-0.4-1.6-1.2-1.6c-0.7,0-1.1,0.5-1.3,1.1c-0.1,0.2-0.1,0.3-0.1,0.5v3.5h-1V499.8z"/>
		<path d="M347,501.3c0,1.4,0.9,2,2,2c0.8,0,1.2-0.1,1.6-0.3l0.2,0.8c-0.4,0.2-1,0.4-1.9,0.4c-1.8,0-2.9-1.2-2.9-2.9s1-3.1,2.7-3.1
			c1.9,0,2.4,1.7,2.4,2.7c0,0.2,0,0.4,0,0.5H347z M350.1,500.5c0-0.7-0.3-1.7-1.5-1.7c-1.1,0-1.5,1-1.6,1.7H350.1z"/>
	</g>
</g>
</svg>
