<?xml version="1.0" encoding="utf-8"?>
<!-- Generator: Adobe Illustrator 27.5.0, SVG Export Plug-In . SVG Version: 6.00 Build 0)  -->
<svg version="1.1" id="Capa_1" xmlns="http://www.w3.org/2000/svg" xmlns:xlink="http://www.w3.org/1999/xlink" x="0px" y="0px"
	 viewBox="0 0 755.3 246.5" style="enable-background:new 0 0 755.3 246.5;" xml:space="preserve">
<g>
	<polygon points="263.7,88.5 174,88.5 138.5,7 102.9,88.5 12.2,88.5 72.5,154.5 35.9,235.9 114.7,210.6 179.2,239.5 124.5,184.3 
		78.1,199.8 100.7,151.4 64.2,112.2 116.3,112.2 137.9,64.8 159.1,113.2 	"/>
	<polygon points="202.4,81.8 178.1,81.8 163.2,49.3 176.1,19.9 	"/>
	<polygon points="210.6,81.8 232.8,81.8 210.6,27.6 198.3,54.7 	"/>
	<path d="M218.4,123.3l-55.2,76.5h35.1l44.8-61.9h35.6l-43.3,61.9h31.4l42.8-61.3h24.2c0,0,12.4-0.5,3.6,9.8s-35.6,51.5-35.6,51.5
		h34.5l39.9-54.6c0,0,16.3-17.5-30.1-21.9H218.4z"/>
	<path d="M359.6,184.9l-9.8,14.9h119.1c0,0,34.5,1.5,47.4-14.9l11.9-19.6c0,0,5.7-10.8-12.4-11.9h-94.3c0,0,7.7-14.9,22.2-14.9
		h108.2l9.8-15.2H424.5c0,0-23.2,1.8-32,15.2L381.2,155c0,0-9.3,14.9,7.7,13.9h99.5c0,0-7.7,15.5-22.2,17L359.6,184.9z"/>
	<path d="M743.1,123.3H602.9c0,0-31.4,0.8-41.2,14.2l-30.4,44.8c0,0-12.9,16.1,21.1,17.6h132l12.4-14.5h-116c0,0-11.3,0.5-3.6-10.8
		c7.7-11.3,22.2-30.9,22.2-30.9s8.8-7.7,21.6-5.7h111.3L743.1,123.3z"/>
</g>
</svg>
