<?xml version="1.0" encoding="UTF-8"?>
<svg xmlns="http://www.w3.org/2000/svg" version="1.1" viewBox="0 0 389.7 121">
  <defs>
    <style>
      .cls-1 {
        fill: #f3ff00;
      }

      .cls-2 {
        fill: #fff;
      }

      .cls-3 {
        fill: #f07d13;
      }
    </style>
  </defs>
  <!-- Generator: Adobe Illustrator 28.6.0, SVG Export Plug-In . SVG Version: 1.2.0 Build 709)  -->
  <g>
    <g id="Layer_1">
      <rect x="8" y="6.7" width="375.4" height="105.1"/>
      <path class="cls-3" d="M195,2.4h187.9q3,0,3,3.1v108.1c0,3,.4,2.7-2.6,2.7H6.7q-2.7,0-2.7-2.8V5.2c0-3-.5-2.7,2.6-2.7,62.8-.1,125.6-.1,188.4-.1h0ZM177.7,12.4H17.6c-3.1,0-2.6-.3-2.6,2.7v87q0,3.1,3.2,3.1h320.5c1.1,0,1.9-.3,2.6-1.2,2.3-3.3,4.8-6.5,7.2-9.8,8.3-11.1,16.5-22.2,24.8-33.4q1.6-2.2,0-4.4c-10.4-14-20.9-27.9-31.3-41.9-1.2-1.6-2.4-2.1-4.3-2.1h-160Z"/>
      <path class="cls-2" d="M233.8,74.5c-1.9-1.4-3.9-1.6-6-.6-3.7,1.8-4.2,7.4-2.2,10.2,1.2,1.6,2.7,2.7,4.9,2.5,1.4.2,2.6-.4,3.7-1.3,3-2.8,2.8-8.3-.4-10.8ZM230.5,84.7c-1.8,0-3.2-.9-3.9-2.6-.6-1.7-.4-4,.7-5.5,1-1.3,2.6-1.9,4.2-1.3,1.9.8,2.9,2.5,3,4.5,0,2.1-1.5,5.3-4,4.9ZM216.3,78.8c-.7-4.5-4.9-6.6-8.4-4.9-4.3,2.2-4.7,9.2-.6,11.8,2.1,1.4,5,1.2,6.9-.5,1.6-1.4,2.3-3.2,2.2-5.6-.1,0-.1-.5-.1-.8h0ZM213.6,83.1c-1.3,2-4.1,2.2-5.8.6-2-1.9-2.1-5.3-.2-7.3,1-1,2.2-1.6,3.6-1.2,1.6.5,2.7,1.7,3.1,3.3.1.4.1.8.1,1.2.1,1.3-.1,2.4-.8,3.4h0ZM177.8,82.8q-.8-1.2.4-2.3c1.3-1.1,1.7-3,1.2-4.6-.5-1.4-1.8-2.3-3.5-2.3h-4.6c-.7,0-1,.2-1,.9v11c0,.5.1.9.8.9s1.1-.3,1.1-1v-2.1c0-1.7.1-1.7,1.7-1.7s1.2.3,1.6.9c.6,1,1.4,2,2,3,.4.7.9,1.1,1.7,1,.6,0,.9-.3.5-.9-.7-.9-1.3-1.8-1.9-2.8ZM174.9,79.9h-1.9c-.6,0-.9-.2-.9-.8v-1.4c0-2.6.1-2.7,2.7-2.4.2,0,.3,0,.5,0,1.7.3,2.6,1.1,2.5,2.3-.1,1.3-1.2,2.1-2.9,2.2h0ZM255.1,79.2c-.3-3.3-2.7-5.5-6.3-5.5h-3.1c-.8,0-1.1.3-1.1,1.1v5.3c0,.7-.1,1.4,0,2.1.1,1.4-.7,3.3.4,4.1,1.2.8,3.1.4,4.7.2,3.6-.5,5.7-3.5,5.4-7.3ZM252.7,82.4c-.9,1.7-2.4,2.4-4.3,2.3-2,0-1.9.2-1.9-1.7v-6.7c0-.8.3-1.1,1.1-1.1,1.8.2,3.7.2,4.8,2,1.1,1.7,1.2,3.4.3,5.2ZM160.9,84.7h-3.6c-2.7,0-2.4.5-2.4-2.4v-.2c-.1-.9.2-1.3,1.2-1.2,1,0,1.9,0,2.9,0,.7,0,2,.6,2.1-.8,0-1.6-1.4-.8-2.2-1-.7,0-1.4,0-2.1,0-2,0-1.7,0-1.8-1.8v-.7c-.1-1,.4-1.2,1.3-1.2h4.3c.6,0,1.1,0,1.1-.8s-.5-.8-1.1-.8c-2.1,0-4.1,0-6.2,0-1.1,0-1.3.4-1.3,1.4.1,1.6,0,3.2,0,4.8v5.5c0,.8.2,1.2,1.1,1.2h6.7c.8,0,1-.4,1-1.1-.1-.8-.5-.9-1-.9ZM127.3,74.5c0-.6-.2-.8-.8-.9-.7,0-1,.2-1,1v5.7c0,.8,0,1.6-.3,2.4-.5,1.5-1.4,2.1-3.1,2.1-1.5,0-2.6-1-2.7-2.4-.1-1.6-.1-3.2-.1-4.8v-3.1c0-.6-.4-.7-1-.8-.6,0-.9,0-.9.8v3.8c0,1.3-.1,2.6,0,3.8.2,2.7,1.9,4.4,4.6,4.5,2.9,0,4.6-1.3,5-4.2.5-2.7.2-5.3.3-7.9ZM106.3,79.4c-.7-.3-1.5-.4-2.3-.7-1.2-.5-1.6-1.2-1.4-2.2.2-.9,1.4-1.6,2.5-1.4.8,0,1.5.5,2.1,1,.5.4.8.3,1.1-.2.4-.5.6-.9-.1-1.4-1.1-.8-2.3-1.2-3.5-1.2-1.8,0-3.7,1.4-4,3.1-.3,1.8.6,3.3,2.6,4,.4.2.9.3,1.4.4.6.2,1.2.4,1.8.7.6.4,1.2.9,1,1.7-.2.8-.8,1.4-1.7,1.5-1.4.2-2.7-.2-3.8-1.2-.6-.6-.9-.3-1.3.2s-.3.8,0,1.2c1.2,1,2.5,1.6,4.4,1.6s3.7-1.2,4.1-3.2c.3-1.7-.9-3.2-3-3.9ZM141,73.7h-3.8c-.7,0-1,.2-1,.9v11.2c0,.4.2.7.7.7s.8-.2.8-.6c.1-.6,0-1.3.1-1.9,0-1.7,0-1.8,1.7-1.7,1,0,1.9-.2,2.8-.5,2-.7,3-2.5,2.6-5-.4-2-1.8-3.1-3.9-3.1h0ZM140.6,80.3c-2.6.4-2.9.2-2.9-2.6s.1-2.9,3-2.3c1.7.3,2.5,1.1,2.5,2.3s-1,2.4-2.6,2.6ZM195.6,73.7h-6.5c-.8,0-1.1.2-1.1,1.1.1,1.7,0,3.5,0,5.2v5.2c0,.7.1,1.3,1,1.3s.9-.7.9-1.3v-3.1c0-.8.3-1.1,1.1-1.1h3.8c.5,0,.9,0,.9-.8s-.3-.8-.9-.8h-2.2q-3.1,0-2.9-3.1c.1-.8.3-1.1,1.1-1.1h4.5c.6,0,1.1,0,1-.9.2-.7-.3-.6-.7-.6h0Z"/>
      <path class="cls-1" d="M198.2,44.5c-1.2-5.6-5.1-8.4-10.1-8.2-1.5,0-3,0-4.6,0h-5.5c-1.8,0-1.9,0-1.9,1.8v21.8c0,.8,0,1.4,1.1,1.4,3.9,0,7.8,0,11.7,0,4.6-.2,7.9-3.1,9.1-7.5.9-3,.9-6.2.2-9.2ZM189.9,53.3c-1,1.2-4.2,1.9-5.8,1.4-.6-.2-.5-.7-.5-1.2v-9.6c0-.7.2-1,.9-1,2.9-.3,5.1.6,6.1,2.7,1.2,2.3.9,5.9-.7,7.7Z"/>
      <path class="cls-2" d="M216.2,46.4c-1.6-.6-3.4-1-5-1.5-.8-.2-1.7-.5-2.4-1.1-.8-.7-.8-1.6.2-2.1,1.5-.9,3.7-.3,4.5,1.3.2.4.2.9.8.9h5.5c.6,0,.8-.3.8-.9-.3-2.2-1.1-4.1-2.9-5.5-3.5-2.6-10.4-2.5-13.8.3-4.3,3.4-3.5,9.9,1.5,12.1,1.6.7,3.3,1.1,5,1.7,1,.3,2,.6,2.9,1.1,1.1.6,1.1,2,.2,2.8-1.6,1.3-4.9.6-5.5-1.3-.4-1.3-1-1.6-2.1-1.5-.6,0-1.1,0-1.7,0h-2.6c-.9,0-1.2.3-1.1,1.3.3,2.8,1.6,5,4.1,6.3,3.8,2,7.8,2,11.8.5,3.6-1.3,5.3-4,5.3-7.7-.2-3.3-1.8-5.4-5.5-6.7Z"/>
      <path class="cls-1" d="M171.6,54.6c-3.3,0-6.5,0-9.8,0s-1.2,0-1.2-1c0-1.8-.1-2,1.8-1.9,2.6,0,5.3,0,7.9,0s1.4-.3,1.4-1.4c-.1-1-.1-2.1,0-3.1.1-1.2-.4-1.5-1.5-1.5-2.8,0-5.6,0-8.4,0s-1.2-.7-1.2-1.6.1-1.4,1.1-1.4c2,0,4,0,6,0s3.2.2,4.7-.2c.6-1.7.1-3.4.3-5.2.1-1.1-.5-1.3-1.4-1.3h-16.8c-1.1,0-1.5.3-1.5,1.5.1,3.6,0,7.2,0,10.7v11.2c0,1.1.3,1.5,1.5,1.5,5.7,0,11.5,0,17.2,0s1.5-.2,1.4-1.3c-.1-1.3-.1-2.6,0-3.8.1-.9-.4-1.2-1.5-1.2Z"/>
      <path class="cls-1" d="M119.9,58.9c-1.4-4.1-2.8-8.1-4.2-12.2h0c-1.1-3.1-2.1-6.1-3.2-9.2-.3-.9-.8-1.2-1.7-1.2-1.6,0-3.2,0-4.8,0-1,0-1.4.4-1.6,1.3-.5,1.6-1.1,3.1-1.6,4.7-2.1,5.9-4.1,11.8-6.2,17.7-.3.8-.2,1.2.7,1.2h5.5c.6,0,1-.2,1.2-.9.2-.8.2-2,.9-2.3.7-.4,1.7-.2,2.6-.2h3.6c.6,0,1,0,1.2.8.2.8,0,2,.9,2.4.8.4,1.9.2,2.8.2h2.1q2.6,0,1.8-2.3ZM110.1,52c-.5.3-1.4,0-1.9,0s-1.5.2-1.6-.4c0-.2,0-.5,0-.7.1-.4.3-.8.4-1.3.5-1.5.8-3.2,1.6-4.5.5,1.9,1.1,3.8,1.6,5.8,0,.4.2.8-.2,1Z"/>
      <path class="cls-2" d="M66.2,37.5c0-.8-.2-1.2-1.1-1.1h-9.1c-.7,0-1,.2-1,1v9c0,.7.2,1,.9,1h9.1c.8,0,1.1-.2,1.1-1.1,0-3,0-5.9,0-8.8Z"/>
      <path class="cls-1" d="M148.1,36.3c-2.6,0-5.1,0-7.7,0-1.2,0-1.6.5-1.8,1.4-.7,3-1.3,6-2,9.1-.2.8-.3,1.5-.5,2.3,0,.2,0,.5-.3.5s-.2-.2-.3-.3c-.2-.4-.3-.9-.4-1.4-.8-3.4-1.6-6.8-2.3-10.2-.2-1-.6-1.3-1.6-1.3-2.6,0-5.1,0-7.7,0-1.1,0-1.5.3-1.5,1.5.1,3.6,0,7.2,0,10.8s-.1,4.9,0,7.4c.1,1.7-.4,3.5.3,5.1,1.7.3,3.5,0,5.2.2,1.1,0,1.3-.4,1.3-1.4v-11.2c0-.6.1-1.1.1-1.7.6.4.5,1.1.7,1.7.8,3,1.5,6,2.3,9,.3,1.1.2,2.6,1.1,3.3.9.7,2.3.2,3.5.2q1.9,0,2.4-1.8c.9-3.6,1.9-7.2,2.8-10.8.1-.4,0-1,.4-1s.2.6.2,1v11.2c0,1,.2,1.5,1.3,1.4,1.5,0,3,0,4.6,0s1.3-.2,1.3-1.2v-22.5c.1-1.2-.4-1.3-1.4-1.3h0Z"/>
      <path class="cls-2" d="M269.5,45c-1.3-5.6-5.5-9.2-11.3-9.3-5.9-.1-10.2,3.2-11.7,8.9-.3,1.3-.5,2.6-.5,4.1,0,2,.3,3.9,1,5.8,1.7,4.5,5.9,7.5,11.2,7.3,5.1-.2,9.1-2.9,10.8-7.6,1.1-3,1.2-6,.5-9.2ZM259.7,55.1h0c-2,1-4.3.2-5.3-1.7-1.3-2.5-1.4-5.5-.4-8.1.4-1,.9-2,1.9-2.6.9-.6,2.1-.7,3.1-.4,2.9.7,3.4,4.1,3.5,6.6-.1,2.2-.5,5-2.8,6.2Z"/>
      <path class="cls-2" d="M294.5,59.2c0-.8,0-1.8-.1-2.7h0c-.2-2.2-.5-4.3-2.2-5.9-.8-.8-.6-1,.1-1.8,2.3-2.3,2.7-5.2,1.6-8.2-1.1-2.9-3.6-4.2-6.6-4.3-4.4-.1-8.8,0-13.2,0s-1.2.3-1.2,1.2v22.4c0,.9.2,1.3,1.2,1.2,1.7,0,3.4,0,5,0s1.1-.2,1.1-1.1c0-1.4,0-2.9,0-4.3q0-3.3,3.3-3.2c2.2,0,3,.8,3.4,2.9.2,1.5.4,3,.5,4.5,0,.8.5,1.3,1.4,1.2,1.4,0,2.9,0,4.3,0s1.3,0,1.6-.2c.6-.5-.1-1.1-.2-1.7ZM286.9,45c0,1.2-.7,1.8-2,2-.7,0-1.4,0-2.1,0-3,0-2.6.4-2.6-2.6s0-2,1.9-1.9c1,0,2.1,0,3.1.2,1.2,0,1.8,1,1.7,2.3Z"/>
      <path class="cls-2" d="M314.7,36.3c-3,0-5.9,0-8.9,0h-9.1c-1.1,0-1.5.3-1.3,1.3.1.4,0,.8,0,1.2.1,1.3-.5,2.8.2,3.7.8.9,2.4.2,3.7.3h1q1.7,0,1.7,1.7v13.9q0,2.8,2.7,2.8c1.5,0,3,.3,4.5-.2,0-1.4.1-2.8.1-4.3,0-4.1.1-8.3,0-12.4,0-1.2.4-1.5,1.5-1.4,1.4,0,2.7,0,4.1,0s1.1-.3,1.1-1.1c0-1.4-.1-2.7,0-4.1,0-1-.2-1.4-1.3-1.4h0Z"/>
      <path class="cls-2" d="M65.2,50.6h-9.1c-.9,0-1.1.4-1,1.2v8.8c0,.8.3,1.1,1.1,1.1h8.8c.8,0,1.2-.2,1.2-1v-9c0-.9-.4-1.1-1-1.1Z"/>
      <path class="cls-1" d="M50.9,51.9c0-.9-.2-1.3-1.2-1.3-2.9,0-5.9,0-8.8,0s-1.2.2-1.1,1.1v8.6c0,1,.2,1.4,1.3,1.4,2.9,0,5.7,0,8.6,0,.9,0,1.3-.3,1.2-1.2,0-2.9,0-5.8,0-8.6Z"/>
      <path class="cls-2" d="M235.5,36.3c-3.5.2-7,0-10.5,0-1.2,0-1.5.3-1.5,1.5,0,3.7,0,7.3,0,11s-.1,4.5,0,6.7c0,1.9-.4,3.8.3,5.6,1.9,0,3.8,0,5.7,0h.5c.7,0,1-.3,1-1s-.1-1.8,0-2.6c0-1.2-.6-2.8.3-3.7s2.3-.2,3.5-.3h1.9c4.1-.3,6.7-2.7,7.5-6.7,1.1-5.5-2.4-10.9-8.7-10.6ZM235.8,47.4c-1.3.5-2.7.3-4,.3s-.8-.4-.8-.9v-1.2c0-3.1-.4-2.7,3-2.7s.9,0,1.5.1c1.3.2,1.8.8,1.9,2,.1,1.2-.4,2-1.6,2.4Z"/>
      <path class="cls-2" d="M51,37.2c0-.6-.2-.9-.8-.9h-9.3c-.7,0-1,.3-1,1v9c0,.7.3,1,1,1h9.3c.6,0,.8-.3.8-.9,0,0,0-9.2,0-9.2Z"/>
      <path class="cls-1" d="M94.6,36.5c-1.8,0-3.7,0-5.5,0-1.1,0-1.4.3-1.3,1.4,0,3.3,0,6.7,0,10s.2.7-.3.7-.3-.3-.4-.5c-1.1-2.1-2.1-4.3-3.3-6.4-.9-1.7-1.6-3.6-2.9-5.2-1.9,0-3.8,0-5.7,0s-1.7,0-1.7,1.7v18.2c0,1.6-.3,3.3.3,4.9,1.6.3,3.2,0,4.8,0s2,.2,2-2.1v-9.8c0-.2,0-.7,0-.7.4,0,.4.3.6.6,1.3,2.4,2.6,4.9,4,7.3.9,1.6,1.1,3.9,2.8,4.5,1.6.6,3.6,0,5.5.2,1.2,0,1.5-.3,1.5-1.5,0-3.7,0-7.3,0-11s0-4.6,0-6.9c-.3-1.8.2-3.6-.5-5.3Z"/>
    </g>
  </g>
</svg>