<?xml version="1.0" encoding="UTF-8"?>
<svg xmlns="http://www.w3.org/2000/svg" version="1.1" viewBox="0 0 426 121">
  <defs>
    <style>
      .cls-1 {
        fill: #fff;
      }
    </style>
  </defs>
  <!-- Generator: Adobe Illustrator 28.6.0, SVG Export Plug-In . SVG Version: 1.2.0 Build 709)  -->
  <g>
    <g id="layer">
      <g>
        <path class="cls-1" d="M269.8,37.4c0,.3.2.6.2.8-.8-.6-1.6-1.3-2.4-2-5.1-4.4-10.9-6.5-17.7-6.9-15.6-.8-28.9,13-28.4,27.8.3,10.6,0,21.1,0,31.7,0,.8.1,1.7.2,2.5h13.7c0-1.2,0-2.2,0-3.2,0-10.6-.1-21.1,0-31.7.2-9.5,10.2-15.9,18.9-12.2,5.8,2.5,8.6,7,8.6,13.3,0,10.4,0,20.8,0,31.1,0,1,.9,2.7,1.4,2.7,4,.2,8,.1,12.4.1,0-5.4,0-10.4,0-15.5.1-7.3,0-14.6.7-21.8.4-5.3,4.1-8.6,8.9-10.2,4.6-1.5,9-.8,13,2.3,4.1,3.2,5.2,7.6,5.2,12.4,0,10.1,0,20.2,0,30.3,0,.9.9,2.4,1.4,2.5,4.1.2,8.2.1,12.2.1.2-.7.3-1,.3-1.3,0-11.3.2-22.7-.2-34-.2-4.1-1.2-8.5-3.1-12.1-6.4-12.1-18.8-17.6-32.5-13.5-4.6,1.4-8.7,4.4-13,6.7Z"/>
        <path class="cls-1" d="M145,91.6v-3.5c0-10.2-.1-20.4,0-30.5,0-2.4.7-5,1.8-7.1,3-5.8,9.6-8.5,15.6-6.9,6.2,1.7,10.2,7.1,10.2,13.9,0,10.4,0,20.7,0,31.1,0,2.4.8,3.2,3.1,3.1,2.7-.2,5.4-.2,8.1,0,2.2.2,3-.5,3-2.8-.1-10.8,0-21.5-.1-32.3,0-3.3-.7-6.7-1.9-9.8-4.3-10.8-14.9-18-27.9-17.3-13,.7-24.9,11.7-25.6,25.2-.6,11.6-.1,23.2-.2,34.9,0,1.4.3,2.1,1.9,2.1,3.8,0,7.7,0,12,0Z"/>
        <path class="cls-1" d="M402,91.6c4.3,0,8.2,0,12.1,0,1.9,0,1.8-1.3,1.8-2.6,0-26,0-52,0-78.1,0-2-.8-2.6-2.6-2.5-2.6,0-5.2.2-7.8,0-3-.3-3.7.9-3.7,3.7.1,24.9,0,49.7,0,74.6,0,1.4,0,2.9,0,4.9Z"/>
        <path class="cls-1" d="M210.6,91.4v-58.7h-13.4v58.7h13.4Z"/>
        <path d="M6.3,60.4c0-30.6,24.9-55.5,55.5-55.5,30.9,0,55.7,25,55.6,56-.1,30.3-24.9,55.4-56.1,55.1-30.5-.3-55.1-25-55-55.6ZM86.8,85.6c-.9-2.4-1.7-4.3-2.3-6.3-.7-2.2-1.7-2.5-3.8-1.6-7.5,3.2-15.2,6.2-22.8,9.2-6.8,2.6-13.8.3-17.3-5.5-3.5-6-2.5-13.4,3-17.5,2.8-2.1,6.2-3.4,9.4-4.7,6.6-2.8,13.3-5.2,19.9-8.2,1.4-.6,2.7-2.6,3-4.1.2-1.2-1-3.4-2.2-3.9-1.5-.7-3.8-.7-5.4-.1-7.9,3-15.8,6.3-23.7,9.4-12,4.7-18.2,17-14.3,29.3,3.5,11.1,15.4,18.3,26.8,15.1,10-2.8,19.6-7.3,29.6-11.2ZM40.2,44.1c1.2-.3,2.1-.5,3-.9,7.4-3,14.8-6,22.2-9,7-2.8,14.3-.4,17.8,5.8,4.4,7.8.4,16.9-8.6,20.2-8,3-15.9,6.4-23.9,9.7-3,1.3-3.9,4.2-2.3,6.8,1.3,2.1,4,2.6,7.2,1.2,7.3-3,14.5-6.3,21.9-9,7.7-2.8,13.1-7.5,15.6-15.4,2.8-8.9.7-16.7-5.7-23.3-6.6-6.7-14.7-8.2-23.6-5.6-3.3,1-6.4,2.4-9.6,3.7-5.8,2.3-11.6,4.7-17.7,7.1,1.2,2.9,2.3,5.5,3.5,8.4Z"/>
        <path d="M269.8,37.4c4.3-2.3,8.4-5.4,13-6.7,13.7-4.1,26.2,1.4,32.5,13.5,1.9,3.6,3,8,3.1,12.1.4,11.3.2,22.7.2,34,0,.3-.1.5-.3,1.3-4,0-8.1,0-12.2-.1-.5,0-1.4-1.6-1.4-2.5-.1-10.1,0-20.2,0-30.3,0-4.9-1.2-9.2-5.2-12.4-4-3.1-8.4-3.8-13-2.3-4.8,1.6-8.5,4.9-8.9,10.2-.6,7.3-.5,14.6-.7,21.8,0,5.1,0,10.1,0,15.5-4.4,0-8.4.1-12.4-.1-.6,0-1.4-1.8-1.4-2.7-.1-10.4,0-20.8,0-31.1,0-6.3-2.8-10.8-8.6-13.3-8.7-3.7-18.7,2.7-18.9,12.2-.2,10.6,0,21.1,0,31.7,0,1,0,2.1,0,3.2h-13.7c0-.9-.2-1.7-.2-2.5,0-10.6.3-21.1,0-31.7-.5-14.8,12.8-28.6,28.4-27.8,6.8.3,12.6,2.5,17.7,6.9.8.7,1.6,1.3,2.4,2,0-.3-.2-.6-.2-.8Z"/>
        <path d="M341.2,35.3c7-4.6,13.8-6,21.2-5.8,12.3.3,24.7,9.4,28.8,21.5,6.2,17.9-3,36.5-20.6,42.6-16.9,5.8-35.9-3.7-41.2-19.8-1.2-3.8-2-7.8-2.1-11.8-.2-16.6,0-33.3-.2-49.9,0-2.9.9-4,3.8-3.7,2.4.2,4.8.1,7.2,0,2.3-.1,3,.8,3,3-.1,6.7,0,13.5,0,20.2,0,.9,0,1.8,0,3.6ZM360.3,43.3c-10.6,0-19.1,8.2-19.1,18.8,0,10.4,8.5,19.2,18.8,19.3,10.4.1,19.4-8.8,19.4-19.1,0-10.5-8.5-19-19-19Z"/>
        <path d="M145,91.6c-4.3,0-8.2,0-12,0-1.6,0-1.9-.7-1.9-2.1,0-11.6-.4-23.3.2-34.9.7-13.5,12.5-24.5,25.6-25.2,13-.7,23.6,6.5,27.9,17.3,1.2,3,1.8,6.5,1.9,9.8.2,10.8,0,21.5.1,32.3,0,2.4-.8,3-3,2.8-2.7-.2-5.4-.2-8.1,0-2.4.1-3.1-.6-3.1-3.1.1-10.4,0-20.7,0-31.1,0-6.8-4-12.2-10.2-13.9-6-1.6-12.5,1.1-15.6,6.9-1.1,2.1-1.8,4.7-1.8,7.1-.2,10.2,0,20.4,0,30.5v3.5Z"/>
        <path d="M402,91.6c0-2,0-3.4,0-4.9,0-24.9,0-49.7,0-74.6,0-2.9.7-4,3.7-3.7,2.6.2,5.2,0,7.8,0,1.7,0,2.6.6,2.6,2.5,0,26,0,52,0,78.1,0,1.3,0,2.6-1.8,2.6-3.9,0-7.8,0-12.1,0Z"/>
        <path d="M210.6,91.4h-13.4v-58.7h13.4v58.7Z"/>
      </g>
    </g>
  </g>
</svg>