<?xml version="1.0" encoding="UTF-8"?>
<svg xmlns="http://www.w3.org/2000/svg" version="1.1" viewBox="0 0 465 62">
  <!-- Generator: Adobe Illustrator 28.6.0, SVG Export Plug-In . SVG Version: 1.2.0 Build 709)  -->
  <g>
    <g id="layer">
      <path d="M366.4-181.2h0ZM227.4,19.6c-1.5-3-4.6-4.9-7.9-4.9h-16.8c-.5,0-.9-.4-.9-.9v-7.1c0-.5-.4-.9-.9-.9h-7.1c-.5,0-.9.4-.9.9v47c0,.5.4.9.9.9h7.1c.5,0,.9-.4.9-.9v-29.2c0-.5.4-.9.9-.9h16.8l15.1,30.3c.2.5.7.7,1.2.7h8.3c.3,0,.6-.4.4-.7l-17.1-34.3ZM184,22.6v-7.1c0-.5-.4-.9-.9-.9h-15.9c-.5,0-.9-.4-.9-.9v-7.1c0-.5-.4-.9-.9-.9h-7.1c-.5,0-.9.4-.9.9v7.1c0,.5-.4.9-.9.9h-1.8c-.5,0-.9.2-1.1.6l-4.6,7.5c-.2.3,0,.7.4.7h7.2c.5,0,.9.4.9.9v21.3c0,4.9,4,8.9,8.9,8.9h16.7c.5,0,.9-.4.9-.9v-7.1c0-.5-.4-.9-.9-.9h-15.9c-.5,0-.9-.4-.9-.9v-20.4c0-.5.4-.9.9-.9h15.9c.5,0,.9-.3.9-.8M63,53.9l-17.2-34.3c-1.5-3-4.6-4.9-7.9-4.9h-17.6c-4.9,0-8.9,4-8.9,8.9v30c0,.5.4.9.9.9h7.1c.5,0,.9-.4.9-.9v-29.2c0-.5.4-.9.9-.9h16c.5,0,1,.3,1.2.7l14.8,29.5c.2.4.7.7,1.2.7h8.3c.2,0,.4-.2.3-.5M346.6,14.7h-4.4c-3.4,0-6.4,1.9-7.9,4.9l-11.1,22.2c-2.9,5.9,1.3,12.8,7.9,12.8h20.5c.3,0,.6-.4.4-.7l-3.7-7.4c-.2-.4-.7-.7-1.2-.7h-14.5c-.6,0-1.1-.7-.8-1.3l10.1-20.1c.2-.5.7-.7,1.2-.7h2.8c.5,0,1,.3,1.2.7l14.8,29.5c.2.5.7.7,1.2.7h9.1l-17.5-35c-1.6-3-4.7-4.9-8.1-4.9M386.6,54.5h4.4c3.4,0,6.4-1.9,7.9-4.9l17.1-34.3c.2-.3-.1-.7-.4-.7h-8.3c-.5,0-1,.3-1.2.7l-14.8,29.5c-.2.5-.7.7-1.2.7h-2.8c-.5,0-1-.3-1.2-.7l-14.8-29.5c-.2-.5-.7-.7-1.2-.7h-8.3c-.3,0-.6.4-.4.7l17.1,34.3c1.6,3,4.7,4.9,8.1,4.9M317.3,15.4l-15.1,30.3-14.3-28.6c-.7-1.5-2.3-2.4-3.9-2.4h-5.4c-1.7,0-3.2.9-3.9,2.4l-14.3,28.6-15.1-30.3c-.2-.5-.7-.7-1.2-.7h-8.3c-.3,0-.6.4-.4.7l18.4,36.8c.7,1.5,2.3,2.4,3.9,2.4h5.5c1.7,0,3.2-.9,3.9-2.4l14.3-28.5,14.3,28.5c.7,1.5,2.3,2.4,3.9,2.4h5.5c1.7,0,3.2-.9,3.9-2.4l13.8-27.6,4.6-9.2c.2-.3-.1-.7-.4-.7h-8.3c-.7,0-1.2.3-1.4.7M144.4,14.7h-22.3c-4.9,0-8.9,4-8.9,8.9v30.1c0,.5.4.9.9.9h7.1c.5,0,.9-.4.9-.9v-29.2c0-.5.4-.9.9-.9h16c.5,0,.9-.2,1.1-.6l4.6-7.5c.3-.4,0-.8-.3-.8M95.5,14.7c4.9,0,8.9,4,8.9,8.9v22.1c0,4.9-4,8.9-8.9,8.9h-16.7c-3.4,0-6.4-1.9-7.9-4.9l-11-22.1c-3-5.9,1.3-12.9,7.9-12.9h27.7M78.3,44.7c.3.6.9,1,1.6,1h14.7c.5,0,.9-.4.9-.9v-20.4c0-.5-.4-.9-.9-.9h-25.5c-.6,0-1.1.7-.8,1.3l10,19.9M423.9,39c-.5,0-1,.3-1.2.7l-2.3,4.6c-.3.6.1,1.3.8,1.3h30c.5,0,.9.3,1.2.7l3.7,7.5c0,.3,0,.6-.4.6h-35.7c-6.6,0-11-7-8-12.9l11-22c1.5-3,4.6-4.9,7.9-4.9h16.7c4.9,0,8.9,4,8.9,8.9v6.6c0,4.9-4,8.9-8.9,8.9h-23.7ZM447.5,24.4c0-.5-.4-.9-.9-.9h-15c-.5,0-1,.3-1.2.7l-2.3,4.6c-.3.6.1,1.3.8,1.3h17.7c.5,0,.9-.4.9-.9v-4.8"/>
    </g>
  </g>
</svg>