<?xml version="1.0" encoding="UTF-8"?>
<svg xmlns="http://www.w3.org/2000/svg" version="1.1" viewBox="0 0 623.6 224">
  <defs>
    <style>
      .cls-1 {
        fill: #181314;
      }
    </style>
  </defs>
  <!-- Generator: Adobe Illustrator 28.6.0, SVG Export Plug-In . SVG Version: 1.2.0 Build 709)  -->
  <g>
    <g id="_圖層_1" data-name="圖層_1">
      <g>
        <g>
          <path d="M95.1,202.3v.5c0,5.2-7.9,7.2-29.7,7.2s-26.5-1.7-28.4-5.4c-.2-.5-.5-1.7-.5-3.2v-33.8c0-4.4,1.9-6.2,7.4-7.5,4.7-1.1,12.5-1.7,21.6-1.7s16.5.6,21.6,1.6c6.1,1.2,8,2.9,8,7.1v35.2M59.1,201v.8c0,2.9,2.5,3.5,6.2,3.5s6.9-.5,6.9-3.1v-36.2c0-2.2-2.8-2.7-6.8-2.7s-6.4.5-6.4,2.9v34.9Z"/>
          <path d="M170.3,209.2l-4.1-12.5h-15.4l-3.5,12.5h-17.5l18.1-50.1h28.6l19.7,50.1h-25.8M164.7,190.9l-6.8-19.8-5.9,19.8h12.7Z"/>
          <polygon points="258.6 159 258.6 179.4 277.4 159 298.6 159 279.4 179.7 297.4 209.2 271.3 209.2 258.6 187.1 258.6 209.2 234.1 209.2 234.1 159 258.6 159"/>
          <polygon points="360.2 159 360.2 202.5 384.5 202.5 384.5 209.2 335.7 209.2 335.7 159 360.2 159"/>
          <polygon points="468.8 165.3 445.4 165.3 445.4 180.9 463.4 180.9 463.5 186.7 445.5 186.7 445.5 202.8 468.7 202.8 468.7 209.2 420.9 209.2 420.9 159 468.8 159 468.8 165.3"/>
          <polygon points="543.1 209.2 518.5 209.2 518.5 190.6 497.2 159 523.3 159 534.2 177.8 545.1 159 564.2 159 543.1 190.6 543.1 209.2"/>
          <path d="M299.8,12.3c-97.3,0-178.1,26.7-178.1,61.6s80.8,61.6,178.1,61.6,178.1-26.7,178.1-61.6S397.1,12.3,299.8,12.3M300.2,122.2c-57.1,0-108.5-20.8-108.5-48.9s51.4-48.9,108.5-48.9,108.5,20.9,108.5,48.9-51.4,48.9-108.5,48.9Z"/>
        </g>
        <path class="cls-1" d="M580.7,163c0,2-2.3,3.7-5.2,3.7s-5.3-1.6-5.3-3.7,2.3-3.6,5.3-3.6,5.2,1.6,5.2,3.6ZM571.5,163c0,1.6,1.7,2.9,4,2.9,2.2,0,3.9-1.3,3.9-2.9s-1.7-2.9-4-2.9-3.9,1.3-3.9,2.9ZM574.7,164.8h-1.2v-3.6c.5,0,1.1-.1,1.9-.1s1.4.1,1.8.3c.3.2.5.4.5.8s-.5.7-1.1.9h0c.5.2.7.4.9.9.2.5.3.7.4.9h-1.2c-.2-.1-.3-.4-.4-.9-.1-.4-.4-.6-1.1-.6h-.6v1.4ZM574.7,162.8h.6c.6,0,1.2-.2,1.2-.5s-.3-.6-1.1-.6-.5,0-.7,0v1.1Z"/>
        <path class="cls-1" d="M457.2,123c0,2-2.3,3.7-5.2,3.7s-5.3-1.6-5.3-3.7,2.3-3.6,5.3-3.6,5.2,1.6,5.2,3.6ZM448.1,123c0,1.6,1.7,2.9,4,2.9,2.2,0,3.9-1.3,3.9-2.9s-1.7-2.9-4-2.9-3.9,1.3-3.9,2.9ZM451.2,124.9h-1.2v-3.6c.5,0,1.1-.1,1.9-.1s1.4.1,1.8.3c.3.2.5.4.5.8s-.5.7-1.1.9h0c.5.2.7.4.9.9.2.5.3.7.4.9h-1.2c-.2-.1-.3-.4-.4-.9-.1-.4-.4-.6-1.1-.6h-.6v1.4ZM451.2,122.9h.6c.6,0,1.2-.2,1.2-.5s-.3-.6-1.1-.6-.5,0-.7,0v1.1Z"/>
      </g>
    </g>
  </g>
</svg>