<?xml version="1.0" encoding="UTF-8"?>
<svg xmlns="http://www.w3.org/2000/svg" version="1.1" viewBox="0 0 603.3 215.3">
  <!-- Generator: Adobe Illustrator 28.6.0, SVG Export Plug-In . SVG Version: 1.2.0 Build 709)  -->
  <g>
    <g id="Capa_1">
      <g>
        <path d="M327.4,13.2c41.6,0,83.3,0,124.9,0,1.3,0,2.7,0,4,0,10.1.6,14.6,7.3,11.1,16.8-7.8,21.1-15.7,42.1-23.6,63.1-3.4,9-6.8,18.1-10.2,27.1-4.2,11.1-13.7,18-25.7,18-85.1,0-170.2,0-255.4,0-11.2,0-15.8-6.8-11.9-17.2,11.2-30.1,22.5-60.1,33.9-90.1,4.2-11,14.2-17.7,26.5-17.7,42.1,0,84.3,0,126.4,0ZM282.5,133.3c31.8,0,63.6,0,95.4,0,13.2,0,23-6.7,27.8-18.9,10-25.4,20-50.8,30-76.2,5.1-12.8.2-20.2-13.5-20.2-63.5,0-126.9,0-190.4,0-13.8,0-23.7,6.9-28.7,19.8-5.8,14.9-11.7,29.7-17.6,44.6-4.3,11-8.7,22-12.9,33-3.7,9.8,1,17,11.4,17.7,1.7.1,3.3,0,5,0,31.1,0,62.3,0,93.4,0Z"/>
        <path d="M161.8,172.5h-23.4c-.4,1-.8,2-1.2,3.1-2.5,8.4-5.1,10.8-14.1,11.2-8.6.3-17.2,0-26.2,0,1.2-5,4.8-6.5,8.9-6.9,3.5-.4,7-.2,10.5-.2,6.3,0,6.4,0,6.9-7.4-9,0-17.9-.1-26.8.1-1.1,0-2.6,1.9-3,3.2-1.4,4.2-2.6,8.6-3.7,13-3.1,12.1-6.6,14.4-18.6,12.9,4.8-11.6,7.4-23.8,10.7-36.7,15.5,0,32.4-.2,49.4.2,2.8,0,5.6,2.6,8.7,4.2,2.2-3.8,6.8-4.7,11.8-4.7,15.8,0,31.6,0,47.8,0-.6,4.7-3.5,6.5-7,7-3.9.5-8,.6-11.9.5-3.3-.1-5.3.8-6.1,4.2-1,4.2-2.5,8.3-3.5,12.5-3.1,12.7-4.9,14-18,12.9,2.8-9.4,5.6-18.8,8.7-29.1Z"/>
        <path d="M46.1,164.9c6.2,0,12.3-.3,18.5,0,7.3.4,9.2,3.1,7.3,10-1.8,6.4-3.8,12.8-5.5,19.2-1.4,5.3-5.5,7.3-10.1,7.4-13.5.4-26.9.6-40.4.1-7.4-.3-8.9-3.3-6.8-10.2,1.5-4.9,2.8-9.9,4.2-14.9,2.4-8.5,5.5-11.2,14.3-11.7,6.1-.3,12.3,0,18.5,0ZM58.4,172.4c-9.7,0-18.5,0-27.3,0-1,0-2.6,1.1-2.9,2-2.1,6.6-4,13.2-6.1,20.4,9.7,0,18.5,0,27.3-.1,1.1,0,2.8-1.3,3.1-2.3,2-6.3,3.8-12.7,5.9-20.1Z"/>
        <path d="M317.8,180.2c-2,6.6-3.8,12-5.2,17.4-.7,2.7-1.7,4-4.7,3.8-3.9-.3-7.9,0-11.7,0,1.3-2.5,2.8-4.8,3.5-7.2,2.9-9.5,5.6-19.1,8.4-28.9,7.2-1.1,13.2,0,17.9,6,3.8,4.8,8.2,9.1,13.3,14.6,2.6-12.3,4.9-24,20.3-20.6-1.1,2.7-2.5,5.4-3.4,8.3-2.4,8.1-4.8,16.3-6.9,24.5-.7,2.9-2.3,4.3-4.9,3.3-4.4-1.7-9.1-3.2-12.7-6.1-4.9-4.1-8.9-9.3-14.2-15.1Z"/>
        <path d="M264.7,179.7c.5-3,.8-4.8,1.2-7.3-9.3,0-18.1,0-26.9.1-1.1,0-2.8,1.3-3.1,2.4-2.1,6.3-3.8,12.7-6,20,9.9,0,19.1,0,28.4,0,.7,0,1.7-.6,2-1.2,3.3-6,9.3-5.6,14.8-6.5.4,8.5-3.6,14.1-11.6,14.5-13,.6-26,.7-38.9.3-7.9-.2-9.8-3.8-7.5-11.4,1.4-4.8,3.5-9.4,4.3-14.3,1.4-8.1,6.4-10.8,12.7-11,13-.6,26-.3,39,0,3.2,0,6.9,1,7.5,5.2.6,4.2-2.6,5.9-5.8,7.1-3,1.1-6.3,1.5-10.1,2.4Z"/>
        <path d="M375.9,179.5h38.2c.3.5.5,1.1.8,1.6-2.2,1.5-4.4,4-6.8,4.3-7.4.9-14.9.9-22.3,1.2-2,0-4-.2-6-.2-6.9,0-7,0-8,7.6h38.7c-1.1,4.7-4.4,6.4-7.7,6.6-12.6.4-25.2.7-37.8.2-5.9-.2-7.3-3.3-5.8-9,1.4-5.6,2.9-11.3,4.3-16.9,1.7-6.4,4.9-9.8,11.4-10,11.8-.4,23.6-.3,35.4,0,3.7,0,6.8,1.7,7,7.4-4.2,0-8,0-11.9,0-7.5,0-15-.2-22.5-.3-6.1,0-6.1,0-7.1,7.5Z"/>
        <path d="M553.7,179.4h37.9c.3.6.6,1.2.9,1.8-2.3,1.5-4.5,4-7,4.4-5.4,1-10.9,1-16.4,1.2-4,.2-8,.4-12,0-5.1-.5-7.5,1.3-7.3,7.1h38.6c-1.1,4.9-4.3,6.3-7.7,6.8-5.1.7-10.2.7-15.4.8-6.5.1-13,.4-19.5,0-8.6-.5-10.5-3.3-8.3-11.5,1.3-5,2.6-10,3.9-15,1.7-6.5,5-9.8,11.9-10,11.6-.4,23.3-.1,34.9,0,1.6,0,3.4.6,4.6,1.6,1.1.9,1.6,2.6,2.3,3.9-1.2.6-2.4,1.6-3.7,1.6-10.3,0-20.6.3-30.9-.2-5.5-.2-6.9,2.3-6.9,7.5Z"/>
        <path d="M425.9,164.8c13.6,0,28.6-.1,43.6,0,6.4,0,8.3,3,6.9,9-2.3,9.6-3.5,10.8-14.1,13.5,5.2,4.4,10,8.5,15.2,13-8.3,1.5-15.2.9-21.1-5.2-4.9-5.1-10.6-9.4-15.9-14.1.1-.5.3-1,.4-1.5,5.2,0,10.4,0,15.6,0,6.3,0,6.4-.2,6.8-7.5-8.1,0-16.2,0-24.3.1-1,0-2.3,1.7-2.7,2.8-1.5,4.7-2.8,9.6-4.1,14.4-2.7,10.5-5.3,12.3-15.7,11.5,3-11.7,6.1-23.6,9.3-36Z"/>
        <path d="M484.2,164.9c.8,0,1.9,0,3.1,0,8.9.3,10.5,2.5,8,11.1-2.6,8.9-2.4,9,4.9,14.3,2.5,1.8,4.6,2.3,7.2.6.8-.6,1.7-1,2.7-1.4,6.7-2.5,10.5-7,11.9-14.4,1.5-8.3,6.1-10.8,15.3-9.7-1.8,6.7-3.4,13.5-5.4,20.1-.4,1.3-2,2.6-3.3,3.3-8,4.3-16.1,8.6-24.4,12.5-1.7.8-4.7.5-6.3-.5-5.2-3.2-10-7.1-15-10.6-2.4-1.7-3.4-3.7-2.3-6.8,1.3-3.4,2.2-7,3-10.5.5-2.4.5-5,.7-8Z"/>
        <path d="M207.8,201.9c-.2,0-1.1.1-1.9,0-11-.1-12.6-2.3-9.6-12.8,1.9-6.9,4.1-13.7,5.7-20.7,1.2-5.1,4.6-3.8,7.7-3.2,3.6.7,6.4,2.4,5.2,6.8-2,7.2-4.2,14.3-6.1,21.6-.7,2.5-.7,5.3-1,8.2Z"/>
        <path d="M268,68.1c-7.8,18.7-15.2,36.6-22.7,54.6h-54c10.5-3.8,13.4-13.1,17.1-22.1,9.3-23,18.9-45.9,28.1-68.9,1.4-3.4,3.1-4.6,6.6-4.2,10.4,1.1,20.9,1.6,31.2,3.2,9,1.4,15.2,7.9,21.7,13.6,13.4,11.7,26.9,23.4,40.3,35.1,1,.8,2.1,1.5,3.7,2.6,4-9.6,7.8-18.7,11.6-27.9,3.3-7.8,6.4-15.7,9.8-23.5.6-1.3,2.4-3,3.7-3,17.4-.2,34.8-.1,52.5.3-10,3.2-13.9,11.1-17.3,19.9-9.4,23.8-19.5,47.4-29,71.2-1.3,3.2-2.9,4.3-6.2,4.1-8-.6-16-.7-23.9-1.4-13.2-1.3-22.7-9.3-32.1-17.9-11.8-10.8-24-21.2-36-31.7-1.4-1.2-2.9-2.2-5.1-3.9Z"/>
      </g>
    </g>
  </g>
</svg>