<?xml version="1.0" encoding="utf-8"?>
<!-- Generator: Adobe Illustrator 27.5.0, SVG Export Plug-In . SVG Version: 6.00 Build 0)  -->
<svg version="1.1" id="Capa_1" xmlns="http://www.w3.org/2000/svg" xmlns:xlink="http://www.w3.org/1999/xlink" x="0px" y="0px"
	 viewBox="0 0 148 16" style="enable-background:new 0 0 148 16;" xml:space="preserve">
<style type="text/css">
	.st0{fill:#1B1B1B;}
</style>
<path class="st0" d="M19.5,0c-6.7,0-16.3,1-19,8c-2.7,7,6.2,8,12.9,8c6.7,0,16.3-1,19-8S26.1,0,19.5,0z M25.4,8
	c-1.7,4.5-7.2,5.1-10.9,5.1c-3.8,0-8.8-0.6-7.1-5.1s7.2-5.1,10.9-5.1C22.1,2.9,27.1,3.5,25.4,8z M93.1,4.1c1.3-3.1-2.9-3.6-6-3.6
	H67.9l-6.1,15h19.7c3.4,0,8.3-0.5,9.7-3.9C92.3,9,89.8,8,87.1,7.7V7.6C89.6,7.3,92.2,6.4,93.1,4.1z M84.7,10.8
	c-0.6,1.5-2.5,1.7-3.9,1.7H69.6L71,9.1h11.1C83.5,9.1,85.3,9.4,84.7,10.8z M86.2,4.8c-0.5,1.3-2.2,1.4-3.3,1.4H72.2l1.2-2.9H84
	C85.2,3.4,86.7,3.6,86.2,4.8z M63.8,5.3c1.6-4.2-3.7-4.8-7.6-4.8H37.8l-6,15h6.6l2.2-5.5h5.3l6.7,5.5h8L53.5,10
	C58,9.8,62.4,8.8,63.8,5.3z M52.5,7.1H41.8l1.5-3.8H54c1.5,0,3.5,0.2,2.8,1.9C56.2,6.9,54,7.1,52.5,7.1z M140.6,0.5h-7.8l-17.4,12
	h-9.2c-3,0-6.6-0.4-6.4-3.2h15.8l1.2-2.9H101c2.1-2.6,5.8-3,8.7-3h12.8l1.2-2.9h-12.4C105,0.5,95.9,1.4,93.4,8s5.9,7.5,12.1,7.5
	h12.9l4.5-3.1h16.2l1.5,3.1h7.4L140.6,0.5z M127.1,9.5L135,4l2.7,5.5H127.1z"/>
</svg>
