<?xml version="1.0" encoding="utf-8"?>
<!-- Generator: $$$/GeneralStr/196=Adobe Illustrator 27.6.0, SVG Export Plug-In . SVG Version: 6.00 Build 0)  -->
<svg version="1.1" id="Livello_1" xmlns="http://www.w3.org/2000/svg" xmlns:xlink="http://www.w3.org/1999/xlink" x="0px" y="0px"
	 viewBox="0 0 219.5 128.4" style="enable-background:new 0 0 219.5 128.4;" xml:space="preserve">
<style type="text/css">
	.Arco_x0020_verde{fill:url(#SVGID_1_);stroke:#FFFFFF;stroke-width:0.25;stroke-miterlimit:1;}
	.st0{fill:#FFFFFF;}
</style>
<linearGradient id="SVGID_1_" gradientUnits="userSpaceOnUse" x1="-71.2993" y1="482.626" x2="-70.5922" y2="481.9189">
	<stop  offset="0" style="stop-color:#65A753"/>
	<stop  offset="0.9831" style="stop-color:#283921"/>
</linearGradient>
<g>
	<path d="M210.4,50.1c0,1.3,0,2.6,0,3.9c0,0.1-0.2,0.3-0.4,0.4c-0.1-0.2-0.3-0.3-0.4-0.5c0-0.8,0-1.6-0.2-2.5
		c-0.4,0.6-0.7,1.1-1.2,1.8c-0.4-0.6-0.8-1.2-1.3-2c0,1,0,1.8,0,2.6c0,0.2-0.2,0.4-0.3,0.6c-0.1-0.2-0.4-0.4-0.4-0.6
		c0-1.2,0-2.5,0-3.8c1.5-0.3,1.3,1.2,2.1,1.7C209,51.4,208.9,49.8,210.4,50.1z"/>
	<path d="M205.7,50.1c0.2,1-0.6,0.5-1,0.8c0,1.1,0,2.3,0,3.4c-0.6,0.2-0.9,0.1-0.8-0.5c0-1,0-2,0-2.9c-0.3-0.4-1.3,0.2-1-0.8
		C203.8,50.1,204.7,50.1,205.7,50.1z"/>
	<path class="st0" d="M80.6,29.9c4.8-3.6,8.5-5.7,9.3-5.4C89.3,25.3,82.5,29.3,80.6,29.9z"/>
	<path d="M164.5,52.7c0.3-0.7,0.7-1.3,1.2-1.9c0.1-0.2,0.6,0,0.9-0.1c0,0.3,0.1,0.6,0,0.8c-0.2,0.5-0.5,1-0.8,1.4
		c-0.2,0.2-0.5,0.3-0.9,0.5C164.7,53.2,164.4,52.9,164.5,52.7z"/>
	<path d="M130.3,50.7c-0.3,1.5-1.5,3.3-2.4,3.5C127.8,53.2,129.3,51,130.3,50.7z"/>
	<g>
		<path d="M51.1,2.7c1.6,0.5,3.3,1,4.9,1.4c0.4,0.1,1-0.3,1.5-0.4c0,0.1-0.2,0.4-0.4,0.9c0.6-0.4,1-0.7,1.4-1c0,0,0.1,0.1,0.1,0.1
			c-1.9,3.1-3.7,6.2-5.7,9.5c0.4,0.1,0.5,0.1,0.7,0.1c6.7-0.1,13.4,0.3,20.1,1c5.1,0.5,10.2,1.3,15.1,2.7c3.1,0.9,5.1,2.8,6.1,5.8
			c0,0.1,0.1,0.3,0.2,0.4c1.3,1.5,1.1,3.2,0.5,4.9c-1.1,2.8-3,4.9-5.4,6.7c-4.3,3.1-9,5.6-13.8,7.7c-5.9,2.6-11.8,5.1-17.8,7.4
			c-6.9,2.7-14,5-21,7.5c-0.5,0.2-1.1,0.3-1.6,0.4c0-0.1-0.1-0.2-0.1-0.3c0.5-0.2,1-0.5,1.5-0.7c5.3-1.9,10.5-3.8,15.8-5.8
			c1.1-0.4,2.2-0.9,3.2-1.5c-5.3,1.5-10.3,4-15.8,4.8c0-0.1-0.1-0.2-0.1-0.3c0.9-0.3,1.8-0.7,2.7-1c1.1-0.4,1.1-0.5,0.4-1.4
			c-0.9-1-0.8-1.2,0.4-1.8c3.5-1.7,7.1-3.3,10.6-5.1c1-0.5,1.9-1.2,2.8-1.9c0.3-0.2,0.3-0.7,0.5-1.1c-0.4-0.1-0.8-0.2-1.1-0.1
			c-1.1,0.3-2.1,0.7-3.1,1c-0.3,0.1-0.7,0.1-1,0.2c0-0.1-0.1-0.2-0.1-0.3c0.4-0.2,0.8-0.4,1.3-0.6c3.7-1.4,7.3-2.7,11-4.1
			c5.4-2.1,10.3-5.4,15.3-8.4c2.1-1.3,4.2-2.7,6.2-4.2c0.5-0.4,1-0.9,1.5-1.3c0-0.1-0.1-0.2-0.1-0.2c-1.5-0.2-3.1-0.4-4.6-0.4
			c-7.3-0.2-14.5-0.4-21.8-0.4c-4.3,0-8.6,0.4-12.9,0.5c-0.6,0-0.9,0.3-1.1,0.7c-4.4,8.7-9,17.5-13.3,26.2
			C29.5,59.1,25.3,68,21.1,77c-1.5,3.2-2.7,6.5-4,9.7c-0.2,0.4-0.5,0.8-0.8,1.2c-0.4-1,0.7-2-0.5-3.1c-0.3,0.2-0.9,0.4-1.1,0.8
			c-0.8,1.3-1.6,2.7-2.3,4.1c-0.5,0.9-0.9,1.8-1.3,2.7c-0.4,0.8-0.7,0.8-1.3,0.3c-1.2-1-1.2-1-1.8,0.5c-0.3,0.8-0.6,1.6-1.1,2.3
			c0.2-3.6,1.5-6.9,2.5-10.3c-0.1,0.2-0.3,0.4-0.4,0.6c-0.1,0.3-0.3,0.5-0.4,0.8C7.2,90.3,5.8,94,4.4,97.7c-0.2,0.5-0.5,1-0.7,1.5
			c-0.1,0-0.2-0.1-0.4-0.1c0.1-0.5,0.2-1.1,0.4-1.6c1.5-4.2,3.1-8.3,4.6-12.5c5.2-14.7,12.1-28.6,18.8-42.6
			c2.7-5.6,5.2-11.3,7.9-16.9c0.1-0.2,0.2-0.4,0.3-0.7c-1.5,0.2-3,0.3-4.4,0.5C25,26,19.4,27.4,13.8,29c-0.7,0.2-1.4,0.6-2.2,0.8
			c-0.4,0.1-0.8,0.8-1.4,0.2C10,29.9,9.4,30.3,9,30.4c-0.1-0.1-0.1-0.2-0.2-0.2c0.4-0.4,0.8-0.9,1.4-1.5c-0.5,0.1-0.7,0.2-1.4,0.3
			c1-0.9,0.5-1.5,0.1-2.1c-0.2-0.3-0.3-0.6-0.4-1c-0.2-0.9,0.1-1.6,0.9-2.1c0.5-0.3,1-0.6,1.5-0.9c-1-0.6-1.1-1.7-0.2-2.3
			c1-0.7,2.2-1.3,3.3-2c-0.9,0.3-1.7,0.5-2.6,0.8c0-0.1-0.1-0.2-0.1-0.3c0.2-0.2,0.5-0.4,0.7-0.5c4.3-1.3,8.6-2.2,13.1-2.8
			c3.5-0.4,6.9-1,10.4-1.5c1.4-0.2,2.8-0.3,4.2-0.4c0.6,0,0.9-0.2,1.1-0.7c1.6-3,3.2-6.1,4.8-9.1c0.6-1.1,1.6-1.4,2.7-0.7
			c0.3,0.2,0.4,0.6,0.5,0.8c0.4-0.5,0.9-1,1.5-1.6C50.6,2.7,50.8,2.7,51.1,2.7z M80.6,29.9c1.9-0.6,8.7-4.6,9.3-5.4
			C89,24.2,85.4,26.3,80.6,29.9z"/>
		<path d="M149.1,102c0.2-1.5,0.3-2.7,0.5-3.9c0.4,0,0.8,0,1.3,0c-0.2,1.9-0.5,3.8-0.7,5.7c0,0.1-0.3,0.3-0.5,0.3
			c-0.3-0.1-0.9-0.2-1-0.4c-0.6-1.1-1-2.2-1.7-3.3c-0.2,1.2-0.3,2.5-0.5,3.7c-0.4,0-0.8,0-1.3,0c0.2-1.9,0.4-3.7,0.7-5.5
			c0-0.2,0.3-0.5,0.4-0.5c0.4,0,0.9,0.1,1,0.4c0.5,0.8,0.8,1.8,1.3,2.7C148.7,101.2,148.8,101.5,149.1,102z"/>
		<path d="M206.5,99.8c-0.5,0-1.1,0.3-1.4-0.5c-0.2-0.5-1.4-0.5-1.8-0.2c-0.4,0.4-0.3,0.9,0.2,1.1c0.4,0.2,0.9,0.2,1.3,0.3
			c0.7,0.2,1.3,0.3,1.5,1.1c0.1,0.8-0.1,1.6-0.8,2.1c-1,0.7-2.2,0.7-3.2,0.2c-0.5-0.2-0.7-0.9-1.2-1.6c0.8-0.1,1.3-0.4,1.7,0.4
			c0.3,0.6,1.7,0.6,2.2,0c0.3-0.4,0.2-0.8-0.3-1c-0.4-0.2-0.9-0.3-1.3-0.4c-0.7-0.2-1.4-0.3-1.5-1.2c-0.1-0.9,0.3-1.9,1.2-2.1
			c0.8-0.2,1.7-0.2,2.5-0.1C206.3,98.2,206.6,98.9,206.5,99.8z"/>
		<path d="M169.3,102c-0.2,1.4-1.2,2.2-2.8,2.2c-1.3,0-2.1-0.6-2.3-2c-0.2-1.3,0.1-2.5,1-3.5c0.8-0.9,2.1-1.2,3.2-0.7
			c0.8,0.3,1.3,0.9,1.3,1.9c-0.6,0.1-1.1,0.3-1.4-0.5c-0.3-0.8-1.5-0.7-2.1,0c-0.7,0.8-0.8,1.8-0.5,2.8c0.1,0.4,0.6,0.8,1,0.8
			c0.5,0,1.1-0.2,1.3-0.6C168.3,101.9,168.7,101.9,169.3,102z"/>
		<path d="M181.6,98c-0.2,1.7-0.4,3.3-0.6,5c0.9,0,1.8,0,2.8,0c0,0.4,0,0.7,0,1c-1.4,0-2.7,0-4.2,0c0.3-2,0.5-3.9,0.8-6
			C180.7,98,181.1,98,181.6,98z"/>
		<path d="M209,103.6c0.1-0.9,0.4-1.3,1-1.3c0.3,0,0.7,0.5,0.8,0.8c0.1,0.6-0.4,1-1,1C209.5,104.1,209.2,103.7,209,103.6z"/>
		<path class="st0" d="M54.2,70.7c-2.9,2.9-5.7,5.8-7.8,9.3C48,76.1,50.8,73.2,54.2,70.7z"/>
		<path class="st0" d="M90,74.6c-0.7,1.7-1.5,3.2-2,4.7c-0.8,2.4-0.4,3.3,1.6,4.9c-1.3-0.1-2.3-1.1-2.4-2.5
			C87.2,79,88.4,76.8,90,74.6z"/>
		<path d="M199.5,76.2c0.2-0.7,0.2-1.5-0.5-1.6c-0.3-0.7-0.5-1.2-0.7-1.6c-0.3-0.5-0.6-1.1-1.3-0.5c0.3-0.8,0.5-1.5,0.7-2.2
			c-0.1,0-0.2-0.1-0.2-0.1c-0.3,0.3-0.6,0.7-1.1,1.2c0.1-0.6,0.1-0.9,0.2-1.4c-0.2,0.1-0.3,0.1-0.4,0.2c-0.1,0.1-0.2,0.3-0.3,0.4
			c-0.8,2.2-2.3,4-3.9,5.7c-2.6,2.8-5.5,5-9.4,5.9c-1.9,0.4-3.8,0.4-5.5-0.7c-1.3-0.9-2.1-2.1-1.9-3.7c0.1-0.9,0.2-1.8,0.5-2.7
			c1.4-4.3,4.1-7.8,7.6-10.7c0.9-0.8,1.9-1.5,2.9-2.2c0.1,0.1,0.1,0.1,0.2,0.2c-0.7,1.4-1.3,2.9-2,4.3c0.1,0.1,0.2,0.1,0.3,0.2
			c0.4-0.3,0.7-0.6,1.2-1.1c0.3,0.7,0.9,1.4,0.7,1.8c-0.6,1.2,0,2,0.6,2.8c0.6-0.3,1.2-0.6,1.9-1c-0.5,0.9-0.9,1.7-1.3,2.4
			c0.1,0.1,0.1,0.1,0.2,0.2c0.2-0.2,0.4-0.3,0.5-0.5c0.5-0.7,0.9-1.5,1.3-2.2c1.5-2.8,2.9-5.6,4.3-8.3c0.6-1.1,1.3-2.3,2.1-3.3
			c0.5-0.7,0.4-1.1-0.2-1.6c-0.7-0.6-1.6-1.1-2.2-1.8c-1.1-1.3-2.3-1.2-3.7-0.8c-0.4,0.1-0.8,0.3-1.1,0.4
			c-6.5,2.6-12.3,6.5-17.4,11.2c-3,2.8-5,6.2-6.2,10.1c-0.3,0.8-0.4,1.7-0.7,2.5c-3.7-0.5-6.9,1-10.1,2.7c0.1-0.3,0.1-0.5,0.1-0.6
			c1.7-4.4,3.4-8.8,6-12.7c2.9-4.3,5.7-8.5,8.6-12.8c0.2-0.3,0.4-0.6,0.6-1c-0.1,0-0.1-0.1-0.2-0.1c-0.2,0.2-0.5,0.3-0.7,0.5
			c-0.4-0.9-1.3-0.1-1.8-0.5c-0.4-1.5,0.4-2.6,1.8-2.9c0.8-0.2,1.7-0.2,2.2-1.1c1.1-1.9,2.2-3.7,3.3-5.5c0.1-0.2,0.2-0.5,0.3-0.8
			c-0.1-0.1-0.1-0.1-0.2-0.2c-0.2,0.2-0.4,0.3-0.5,0.5c-0.2,0.3-0.4,0.6-0.6,0.9c-0.3,0.5-0.8,0.6-1.3,0.4c-0.6-0.3-0.3-0.8-0.1-1.1
			c0.8-1.5,1.6-3.1,2.5-4.6c1.3-2,2.7-4,4-6c0.2-0.3,0.2-0.7,0.3-1.1c-0.4,0-0.7-0.1-1.1-0.1c0.1-0.2,0.2-0.4,0.4-0.7
			c-0.1-0.1-0.1-0.1-0.2-0.2c-1.4,0.5-1.7,2.1-3.1,3c1.1-2.7,3.4-4.3,4.5-6.7c-1.2,0.9-2.3,1.9-3.3,3c-1,1.1-2,2.3-3,3.5
			c-0.9,1.2-1.9,2.3-2.8,3.5c-0.1,0-0.1-0.1-0.2-0.1c0.2-0.4,0.5-0.9,0.7-1.2c1.3-1.7,2.6-3.5,4-5.2c2-2.5,4-4.9,6-7.4
			c0.3-0.4,0.6-0.9,0.9-1.4c-0.1-0.1-0.2-0.1-0.3-0.2c-0.4,0.4-0.8,0.8-1.1,1.2c-3.7,4.6-7.4,9.2-11.1,13.9
			c-2.9,3.8-5.8,7.6-8.5,11.5c-1.4,1.9-1,2.4,1.3,2.5c0.9,0,1.8,0,2.7,0c-0.3,1.8-1.4,2.7-2.9,2.6c-1,0-2-0.2-3-0.1
			c-0.7,0-1.3,0.3-1.9,0.6c-0.9,0.4-1.7,1-2.6,1.2c-1.2,0.3-2.6,0.2-3.4-0.9c-0.8-1.1-0.8-2.4-0.1-3.5c2.6-4.7,5.1-9.5,7.8-14.1
			c1.8-3.2,3.8-6.2,5.7-9.3c0.2-0.4,0.6-0.8,1-0.9c0.5-0.1,1.1,0,1.6,0.2c0.6,0.4,1,0.4,1.3-0.4c0.9,0.7,1.7,1.4,2.6,2
			c0.1-0.1,0.1-0.2,0.2-0.3c-1.6-1.4-3.2-2.7-4.8-4.1c0,0,0.1-0.1,0.1-0.1c0.9,0.6,1.7,1.1,2.6,1.7c0-0.3-0.1-0.5-0.2-0.6
			c-2.6-2.1-5.2-4.3-7.8-6.4c-0.2-0.2-0.5-0.3-0.8-0.4c-2-0.5-3.4,0.2-4.6,2.5c-2.7,5-5.5,10-8.1,15.1
			c-7.2,14.1-13.5,28.6-19.3,43.2c-0.3,0.7-0.5,1.2-1.4,1.1c-2.4-0.2-4.6,0.4-6.8,1.5c-0.1,0.1-0.3,0.1-0.5,0.2
			c3-10.5,9.4-19,15.2-27.9c-2.7,2.7-4.6,6-6.7,9.1c-0.1,0-0.1-0.1-0.2-0.1c1.8-2.8,3.6-5.6,5.3-8.4c-0.1-0.1-0.1-0.1-0.2-0.2
			c-0.4,0.2-0.8,0.4-1.3,0.6c0-0.3,0-0.6,0-0.9c-0.4,0.4-0.8,0.6-1.2,1c-0.1-0.5-0.4-0.9-0.3-1.3c0.3-0.9,0.7-1.7,1.1-2.5
			c0.1-0.3,0.6-0.6,0.8-0.5c0.9,0.3,1.3-0.3,1.6-0.9c0.9-2,2.1-3.7,3.5-5.4c0.2-0.2,0.3-0.5,0.5-0.8c-0.1-0.1-0.2-0.1-0.2-0.2
			c-0.4,0.4-0.9,0.8-1.3,1.3c-0.4,0.4-0.6,1-0.9,1.5c-0.3,0.4-0.6,1.1-1.2,0.8c-0.7-0.3-0.2-1,0-1.5c1.8-4.5,4.6-8.3,7.3-12.2
			c1.1-1.6,1.1-1.6-0.7-2.2c-0.6-0.2-0.6-0.5-0.3-1c0.5-0.7,1.1-1.4,1.6-2.1c0.1-0.2,0.2-0.4,0.3-0.6c-0.1-0.1-0.1-0.1-0.2-0.2
			c-4.3,3.5-7.3,8.2-10.9,12.3c0.2-0.4,0.4-0.8,0.6-1.2c1.8-2.3,3.6-4.7,5.4-7c2.1-2.7,4.2-5.3,6.3-8c0.3-0.4,0.6-0.9,0.9-1.4
			c-0.1-0.1-0.2-0.2-0.4-0.2c-7.3,8.7-14.3,17.6-20.9,26.9c0.1,0.1,0.1,0.1,0.2,0.2c0.1,0,0.3-0.1,0.5-0.1c-0.5,1.3-0.5,1.3,0.8,1.6
			c0.1,0,0.1,0,0.1,0.1c0.9,0.5,1.9,0.6,2.9,0.6c0.5,0,1.1,0,1.6,0c-0.4,1.8-2.3,3.4-4,3.3c-0.6,0-1.3,0-1.9,0
			c-0.7,0-1.2,0.2-1.6,0.7c-1.1,1.6-2.4,3.1-3.4,4.7c-3.1,5.2-5.9,10.5-8,16.2c-0.1,0.3-0.2,0.6-0.4,0.7c-3.1,2.2-6.1,4.6-9.7,6.2
			c-2.6,1.2-5.3,1.8-8.2,1.5c-2.1-0.2-3.4-1.7-3.1-3.8c0.2-1.1,0.5-2.3,1-3.3c2.4-4.7,5.8-8.6,10.1-11.8c0.7-0.5,1.5-1,2.2-1.6
			c0.1,0.1,0.1,0.1,0.2,0.2c-0.6,1.1-1.2,2.2-1.8,3.2c-0.7,1.2-0.6,1.4,0.3,2.5c0.4-0.4,0.7-0.7,1.1-1c0.2-0.1,0.5,0,0.7,0.1
			c0.1,0.1,0.2,0.5,0.1,0.6c-0.8,0.8-0.2,1.5-0.1,2.4c0.5-0.2,1-0.3,1.8-0.6c-0.5,1-0.8,1.8-1.2,2.5c0.1,0.1,0.2,0.1,0.3,0.2
			c0.5-0.9,1.1-1.8,1.5-2.7c2-3.9,4.3-7.7,7.1-11.1c0.5-0.6,0.5-1.2,0-1.8c-0.9-0.9-1.8-1.8-2.7-2.7c-0.2-0.2-0.6-0.3-0.9-0.3
			c-1.5,0.2-3,0.3-4.4,0.8c-7.9,2.5-14.4,7.2-20.3,13c-3.7,3.6-6.4,7.8-7,13.1c0,0.2-0.2,0.5-0.4,0.6c-1.6,0.7-3.3,1.4-4.9,2.2
			c0.1-0.7,0.3-1.5,0.5-2.4c1.1-5.6,3.4-10.7,6.5-15.5c0.4-0.7,0.7-1.5,1.1-2.3c-0.1-0.1-0.1-0.1-0.2-0.2C79,64.4,78.6,64.7,78,65
			c0.2-0.4,0.3-0.6,0.3-0.6c-0.5-0.2-1.1-0.3-1.5-0.6c-1.3-0.9-2.1-0.8-3,0.4c-0.2,0.3-0.4,0.5-0.7,0.8c-0.3-0.8-1-1.1-1.7-0.6
			c-0.7,0.5-1.3,1.1-1.7,1.8c-0.5,0.6-0.8,1.4-1.1,2.1c0,0-0.1,0-0.1-0.1c0.4-1.1,0.8-2.1,1.3-3.2c-0.1,0-0.2-0.1-0.3-0.1
			c-0.2,0.2-0.4,0.4-0.5,0.7c-0.6,1.5-1.1,3-1.7,4.5c-0.7,2-1.7,3.7-3.4,5c-2.9,2.2-6,3.9-9.4,5.3c-1.6,0.7-3.2,1.1-4.9,1.5
			c-0.6,0.1-1.3-0.1-2-0.2c0.2-0.6,0.2-1.3,0.6-1.8c1.1-1.7,2.2-3.4,3.6-4.9c3.5-3.7,7-7.5,11.2-10.5c2.9-2,5.9-3.9,9.1-5.2
			c0.5-0.2,1.3-0.4,1.1-1.1c-0.4-1.5-0.7-2.9-1.3-4.3c-0.5-1.2-1.1-1.3-2.2-1c0,0-0.1,0-0.1-0.1c0.1-0.2,0.2-0.3,0.5-0.7
			c-0.5,0.1-0.8,0.2-1.1,0.3c-8.8,4.1-17.1,9-23.5,16.6c-2.5,3-5,6.1-6.7,9.7c-0.9,2.1-1.5,4.2-1.1,6.5c0.7,3.5,3.4,5.7,7.1,5.8
			c3.3,0.1,6.4-0.6,9.1-2.4c2.5-1.6,4.7-3.5,7.1-5.3c0.8-0.6,1.5-1.3,2.4-2.1c0,0.8-0.1,1.5-0.1,2.2c-0.2,2.5-0.1,5,0.8,7.5
			c0.1,0.4,0.4,0.9,0.8,1.1c1,0.5,2.1,0.8,3.2,1.1c1,0.3,1.4,0,1.9-0.9c0.6-1.2,1.3-2.4,2.1-3.5c1.2-1.7,3.1-2.6,5-3.8
			c0.7,2.8,2.5,4.4,4.9,5.6c2,1,4.2,1.4,6.4,1.4c6.6-0.1,12.4-2.4,17.7-6.4c0.6-0.5,1.3-1,2-1.6c-0.2,1-0.3,1.7-0.4,2.5
			c-0.3,1.9,0.1,2.8,1.8,3.5c1.2,0.5,2.6,0.8,3.9,1.1c0.9,0.2,1.6-0.1,2.1-0.9c1.6-2.5,3.7-4.4,6.1-6.1c1.5-1,3.1-1.5,5.1-1.4
			c-0.4,1.1-0.7,2-1.1,3c-4,10.5-8.1,21-11.3,31.8c-0.3,0.9-0.6,1.9-1,2.7c-0.2,0.3-0.8,0.6-1.2,0.5c-0.8-0.2-1.6-0.6-2.4-0.9
			c-0.1-0.1-0.3-0.1-0.5-0.1c0,0.3,0.1,0.6,0.1,1c-1.4-1.1-2.6-2-3.8-3c-0.1,0.1-0.2,0.2-0.3,0.3c1.8,1.5,3.5,3.1,5.3,4.6
			c-0.1,0.1-0.1,0.1-0.2,0.2c-0.8-0.6-1.6-1.1-2.4-1.7c-0.1,0.1-0.2,0.2-0.2,0.3c0.9,0.7,1.7,1.5,2.7,2.1c2.3,1.6,4.6,3.2,7,4.8
			c0.4,0.3,1,0.4,1.5,0.3c1.1-0.1,1.9-0.7,2.4-1.6c0.5-1,1-2,1.3-3c1.4-5.1,2.7-10.2,4.3-15.2c5.4-17.7,12.4-34.8,20.3-51.5
			c0.1-0.3,0.3-0.5,0.4-0.8c2.1,2.2,4.6,2.5,7.5,2.3c-0.3,0.3-0.5,0.5-0.6,0.8c-0.2,0.2-0.4,0.4-0.5,0.7c-4.8,7.2-9,14.7-11.4,23
			c-0.1,0.3,0,0.6-0.1,0.9c0.1,0,0.2,0,0.3,0.1c0.6-1.8,1.2-3.6,1.7-5.4c0.2,0.2,0.1,0.3,0.1,0.5c-0.5,2.1-1,4.2-1.4,6.3
			c-0.3,1.8,0.3,2.8,1.9,3.4c1.2,0.5,2.5,0.7,3.8,1.1c1.3,0.3,2.2-0.1,3.1-1.3c2-2.8,4.6-4.9,7.4-6.7c1.7-1.1,3.6-1.4,5.7-1.2
			c0,0.1,0,0.2,0.1,0.3c0,0.1,0.1,0.3,0.1,0.4c1,4,3.6,6.5,7.5,7.6c2.9,0.8,5.8,0.7,8.7,0.3c6.9-1.1,12.6-4.3,17.4-9.3
			c0.2-0.2,0.3-0.4,0.4-0.6c-0.1-0.1-0.1-0.2-0.2-0.2c-0.4,0.2-0.8,0.4-1.4,0.7c0.3-0.4,0.6-0.6,0.7-0.9
			C198.6,78.1,199.1,77.2,199.5,76.2z M54.2,70.7c-2.9,2.9-5.7,5.8-7.8,9.3C48,76.1,50.8,73.2,54.2,70.7z"/>
		<path d="M87.3,81.7c-0.1-2.7,1.1-4.9,2.8-7.1c-0.7,1.7-1.5,3.2-2,4.7c-0.8,2.4-0.4,3.3,1.6,4.9C88.3,84.2,87.3,83.1,87.3,81.7z"/>
		<path d="M173.7,79.7c-0.4-2.4,0.4-4.6,1.5-6.6c0.5-0.9,1.1-1.7,1.6-2.5c0.1,0,0.1,0.1,0.2,0.1c-0.2,0.5-0.5,0.9-0.7,1.4
			c-1.1,1.9-1.9,3.9-2,6.2c0,1.9,1.1,3.2,2.5,4.2c0.1,0.1,0.3,0.2,0.5,0.3C175.9,82.8,173.9,81.2,173.7,79.7z"/>
		<path d="M198.6,101.1c0.1-0.1,0.3-0.2,0.4-0.3c0.6-0.6,0.7-1.4,0.4-2.1c-0.3-0.7-0.9-0.7-1.5-0.7c-0.8,0-1.6,0-2.4,0
			c-0.2,0-0.6,0.3-0.6,0.5c-0.3,1.8-0.5,3.6-0.7,5.5c0.4,0,0.8,0,1.3,0c0.1-0.8,0.2-1.5,0.3-2.3c0.4,0,0.7,0,1,0c1,0,1.1,0.1,1,1.2
			c0,0.2-0.1,0.3-0.1,0.5c0,0.4,0.1,0.7,0.6,0.6c0.3,0,0.6,0,0.9,0c-0.1-1.1-0.1-2-0.2-2.9C198.8,101.1,198.7,101.1,198.6,101.1z
			 M197.6,100.5c-0.5,0.1-1.1,0-1.7,0c0.1-0.5,0.1-0.9,0.2-1.5c0.5,0,1-0.1,1.5,0c0.3,0,0.5,0.3,0.7,0.5
			C198.1,99.9,197.9,100.4,197.6,100.5z"/>
		<path d="M158.2,99.9c-0.1-1-0.7-1.8-1.6-1.9c-1-0.1-2,0-3.1,0c-0.3,2-0.5,4-0.8,6.1c0.9,0,1.7,0,2.5,0c0.9,0,1.6-0.4,2.1-1.1
			C158,102,158.3,101,158.2,99.9z M154.2,102.9c0.1-1.1,0.2-2.3,0.4-3.4c0-0.2,0.4-0.4,0.7-0.4c0.6-0.1,1.2-0.1,1.5,0.6
			C157.5,101.5,156.2,103.1,154.2,102.9z"/>
		<path d="M174.8,97.9c-2,0.1-3.5,2.2-3.1,4.3c0.3,1.5,1.1,2.1,2.5,2.1c1.9,0,3.3-1.6,3.3-3.7C177.5,98.8,176.6,97.8,174.8,97.9z
			 M175,103c-1.2,0.5-2.1-0.3-2.1-1.6c0-1.3,0.6-2.2,1.6-2.3c0.5,0,1.1,0.2,1.4,0.5C176.8,100.5,176.1,102.5,175,103z"/>
		<path d="M191.6,98.9c-0.3-0.4-0.9-0.8-1.5-0.9c-2.3-0.4-3.9,1.2-3.9,3.6c0,1.8,1,2.7,2.7,2.6c1.3,0,2.2-0.7,2.7-1.8
			C192.2,101.2,192.3,100,191.6,98.9z M189.2,103c-0.5,0-1.1-0.1-1.4-0.5c-0.8-0.9-0.2-3,0.9-3.4c1.2-0.5,2.1,0.2,2.1,1.6
			C190.8,102,190.2,102.9,189.2,103z"/>
		<path d="M141.6,97.8c-0.6,0.2-1.3,0.1-1.5,0.4c-1,1.9-1.8,3.8-2.7,5.7c0.1,0.1,0.1,0.2,0.2,0.3c0.4-0.2,1-0.3,1.3-0.6
			c0.5-0.5,1.7-1,2.4-0.7c0.1,0.1,0.2,0.2,0.2,0.3c0,1,0.7,0.9,1.5,0.8C142.5,101.9,142.1,99.9,141.6,97.8z M139.8,101.7
			c0.3-0.7,0.6-1.3,0.9-2.1c0.2,0.8,0.3,1.4,0.5,2.1C140.7,101.7,140.3,101.7,139.8,101.7z"/>
	</g>
</g>
</svg>
