<?xml version="1.0" encoding="utf-8"?>
<!-- Generator: Adobe Illustrator 27.5.0, SVG Export Plug-In . SVG Version: 6.00 Build 0)  -->
<svg version="1.1" id="Capa_1" xmlns:sketch="http://www.bohemiancoding.com/sketch/ns"
	 xmlns="http://www.w3.org/2000/svg" xmlns:xlink="http://www.w3.org/1999/xlink" x="0px" y="0px" viewBox="0 0 200 31"
	 style="enable-background:new 0 0 200 31;" xml:space="preserve">
<style type="text/css">
	.st0{fill-rule:evenodd;clip-rule:evenodd;}
	.st1{fill-rule:evenodd;clip-rule:evenodd;fill:#FFFFFF;}
</style>
<g id="Home" sketch:type="MSPage">
	<g id="article-alt" transform="translate(-100.000000, -21.000000)" sketch:type="MSArtboardGroup">
		<g id="header" transform="translate(100.000000, 21.000000)" sketch:type="MSLayerGroup">
			<g id="park-tool-horizontal-icon" sketch:type="MSShapeGroup">
				<path id="Fill-1" class="st0" d="M134.5,0.3c0,0-0.6,0.9-0.7,1c-0.3,0-0.8,0-0.8,0c0,0-19.9,0.1-19.9,0.1
					c-2.6,0-4.2,0.5-5.6,3.1c0,0-2.7,5.4-3,5.9c0.1-0.2,0.2-0.4,0.2-0.6c0.1-0.2,0.1-0.5,0.1-0.7c0-0.6-0.2-1.2-0.6-1.7
					c-0.9-1.2-2.3-1.2-3-1.2c0,0-3.2,0-5.2,0c0.1-0.2,0.1-0.4,0.2-0.6c0.1-0.3,0.1-0.7,0.1-1c0-1-0.4-1.6-0.7-2
					c-1.1-1.4-3-1.4-3.6-1.4c0,0-9.8,0-9.8,0S80.1,6,80,6.3c-0.2,0-3.4,0-3.4,0c-1.5,0-2.3,0.2-3.2,0.7c-1.1-0.7-2.4-0.7-2.9-0.7
					l-9.9,0c0,0-1.4,2.8-1.6,3.2c-0.1-0.3-0.3-0.6-0.5-0.9c-0.8-1-2.3-2.1-5.4-2.1L39,6.5c0,0-1,2-1.4,2.7c0-0.1,0-0.2,0.1-0.3
					c0.2-0.6,0.2-1.2,0.2-1.7c0-1.4-0.5-2.4-1-3.1c-1.2-1.5-3.2-2.3-6.3-2.3l-16.4,0c0,0-1.5,0-1.5,0l-1.4,0l-2.5,5
					c0,0,0.7,0.1,1.3,0.3c-1.6,3.2-8.6,17.3-8.7,17.3c0,0.1-0.5,0.9-0.5,0.9l0,0.1c-0.2,0.5-0.4,1-0.5,1.4c-0.1,0.3-0.1,0.6-0.1,0.9
					C0.3,29,0.9,30,2,30.6l0.5,0.3h34.7l0.3-0.1c0.5-0.2,1-0.4,1.5-0.7c0.3,0.2,0.6,0.5,0.9,0.6l0.4,0.2h45.1c0,0,0-0.1,0-0.1
					c0,0,0,0,0,0l0.3,0.1h103l2.5-5.4c0,0-0.8-0.2-1.5-0.3c1.5-3,8.8-17.3,8.8-17.3l0.2-0.4l0.3-0.6l-0.1,0.3
					c0.3-0.5,0.5-1.1,0.7-1.6c0.4-1.5-0.2-2.5-0.5-2.9c-1.1-1.4-3-1.4-3.6-1.4l-9.9,0l-2.5,5c0,0,0.7,0.1,1.3,0.3
					c-0.5,1-1.8,3.6-3.3,6.5c0.1-0.3,0.2-0.6,0.3-0.9c0.1-0.5,0.2-1.1,0.2-1.6c0-0.8-0.2-1.5-0.5-2.1c-1.3-2.6-4.4-2.8-8.1-2.8
					l-5.3,0c-5.3,0-8.5,1.5-11.2,5.3c0-0.1,0-0.3,0-0.4c0-0.8-0.2-1.5-0.5-2.1c-1.3-2.6-4.4-2.8-8.1-2.8l-5.3,0
					c-1.7,0-3.2,0.2-4.5,0.5c0.6-1.2,2.9-5.8,2.9-5.8L134.5,0.3L134.5,0.3z M59.5,11.6C59.5,11.6,59.5,11.6,59.5,11.6
					C59.5,11.6,59.5,11.6,59.5,11.6C59.5,11.6,59.5,11.6,59.5,11.6L59.5,11.6z"/>
				<path id="Fill-2" class="st1" d="M188,27.1c-0.8-0.1-1.4-0.4-1.2-0.9c0.1-0.3,0.3-0.8,0.7-1.6l9-17.8c0.2-0.4,0.3-0.7,0.4-0.9
					c0.2-0.4,0.3-0.7,0.4-1c0.2-1-0.4-1.4-1.9-1.4l-1,0l-6,0l-1.5,0l-0.5,1c0.8,0.1,1.1,0.4,0.9,1c0,0.1-0.1,0.2-0.1,0.4
					c-0.1,0.3-0.3,0.7-0.6,1.2l-9,17.8l-0.1,0.2l-5.9,0c0.9-0.9,1.7-2.1,2.6-3.6c0.8-1.4,1.6-2.9,2.4-4.4c1.4-2.8,2.1-4.4,2.4-5.6
					c0.2-0.8,0.2-1.6-0.1-2.1c-0.6-1.1-2.1-1.5-6.1-1.5l-5.3,0c-5,0-7.5,1.3-10.1,5.3c-2.5,3.7-5.1,8.9-5.6,11
					c-0.1,0.3-0.1,0.6-0.1,0.9l-5.4,0c0.9-0.9,1.8-2.1,2.7-3.7c0.8-1.4,1.6-2.9,2.4-4.4c1.4-2.8,2.1-4.4,2.4-5.6
					c0.2-0.8,0.2-1.5-0.1-2.1c-0.6-1.1-2.1-1.5-6.1-1.5l-5.3,0c-5,0-7.5,1.3-10.1,5.3c-2.5,3.7-5.1,8.9-5.6,11
					c-0.1,0.3-0.1,0.7-0.1,1l-7.7,0c0.1-0.2,0.2-0.4,0.3-0.7L127,9.2l4.8-0.1c1.5,0,2.1-0.3,2.7-1.5l2.6-5l-1.4,0
					c-0.5,0.7-0.9,1-1.7,1l-1,0l-19.9,0.1c-2.2,0-2.7,0.3-3.5,1.8l-2.4,4.7h1.3c0.6-0.9,0.9-1,1.9-1l5.7,0l-8,15.8l-0.5,0.8
					c-0.2,0.4-0.3,0.7-0.4,1c0,0.1-0.1,0.3-0.1,0.4h-7.9c-4-0.4-4.2-0.4-4-0.9c0.1-0.3,0.3-0.8,0.7-1.6l2.2-4.4
					c0.5-0.9,0.9-1.9,1-2.4c0.4-1.8-0.6-3-2.6-3l-1.1,0l6.3-4.8c0.5-0.3,0.7-0.7,0.8-1c0.1-0.4-0.2-0.6-1.2-0.6l-6.9,0L94,9.6
					c0.7,0,0.9,0.2,0.9,0.6c-0.1,0.3-0.4,0.6-1.4,1.4l-4,3.1L93.3,7c0.2-0.4,0.3-0.7,0.5-0.9c0.2-0.4,0.3-0.7,0.4-1
					c0.2-1-0.4-1.4-1.9-1.4l-1,0l-7.4,0l-0.5,1c0.8,0.1,1.1,0.4,0.9,1c-0.1,0.3-0.3,0.8-0.7,1.6l-9,17.8l-0.1,0.2h-9.6
					c0.1-0.1,0.1-0.3,0.2-0.5l3.3-6.5c1.7-3.3,2.2-3.8,4.7-3.8l1.2,0c2.3,0,3.1-0.4,4-2.1l1.9-3.8l-3.5,0c-1.5,0-1.8,0.1-2.7,1.1
					l-2.2,2.1l0.4-0.8c0.2-0.4,0.3-0.7,0.4-0.9c0.2-1-0.4-1.4-1.9-1.4l-1,0l-7.5,0l-0.5,1c0.8,0.1,1.1,0.4,0.9,1
					c-0.1,0.3-0.3,0.8-0.7,1.6l-6.5,12.9l-0.1,0.2h-4.5c0-0.1,0.1-0.2,0.2-0.3l5.4-10.7c0.4-0.7,0.6-1.3,0.8-1.9
					c0.5-2.2-0.9-3.5-3.9-3.5l-12.7,0l-1.3,2.5c-0.1,0.3-0.2,0.5-0.3,0.8c-0.3,1.2,0.2,1.5,2,1.5l4.4,0c1.1,0,1.5,0.2,1.3,0.8
					c-0.2,0.7-0.8,1-2.2,1l-3.5,0c-3.3,0-4.9,0.5-6.5,1.9c-1.8,1.5-3.9,5.2-4.6,7.8H14.4c0-0.1,0.1-0.1,0.1-0.2l2.5-4.9l5.7,0
					c3.5,0,5.6-0.8,7.7-2.8c1.3-1.2,2.1-2.5,3.4-5c1-2,1.4-2.9,1.7-4c0.7-2.8-0.9-4.2-4.8-4.2l-16.4,0l0,0l-1.5,0l-0.5,1
					c0.8,0.1,1.1,0.4,1,0.9c0,0,0,0,0,0l0,0c0,0,0,0,0,0c0,0,0,0,0,0.1L3.5,25.6L3,26.4c-0.2,0.4-0.3,0.7-0.4,1
					c-0.1,0.5,0,0.9,0.4,1.1h33.8c0.7-0.2,1.4-0.6,2-1.2l2.2-1.9l-0.3,0.7c-0.2,0.4-0.3,0.7-0.4,0.9c-0.2,0.7-0.1,1.3,0.5,1.5H84
					l0.6-1.3c-0.5-0.1-2-0.9-1.9-1.5c0.1-0.3,0.2-1.1,0.8-2.2l4.1-7.8l1.2,0.2c0.9,0,1.4,0.5,1.2,1.3c-0.1,0.2-0.2,0.5-0.3,0.7
					l-0.9,1.8c0,0,0,0.1,0,0.1c0,0.2-0.1,0.4-0.2,0.6l-2.3,4.6l-0.5,0.8c-0.2,0.4-0.3,0.7-0.4,1c-0.2,0.8-0.1,1.4,0.8,1.7h101.2
					L188,27.1L188,27.1z M161,23.8c0.1-0.4,0.3-0.9,0.7-1.7l4.5-8.9c1-1.9,1.5-2.4,2.6-2.4c0.8,0,1.1,0.4,0.9,1.3
					c-0.1,0.3-0.2,0.7-0.4,1.1l-4.5,8.9c-1.2,2.3-1.7,2.7-2.8,2.7C161.3,24.8,160.9,24.5,161,23.8L161,23.8z M136.1,23.7
					c0.1-0.4,0.3-0.9,0.7-1.7l4.5-8.9c1-1.9,1.5-2.4,2.6-2.4c0.8,0,1.1,0.4,0.9,1.3c-0.1,0.3-0.2,0.7-0.4,1.1L140,22
					c-1.2,2.3-1.7,2.7-2.8,2.7C136.4,24.7,136,24.3,136.1,23.7L136.1,23.7z M39.4,23c0.1-0.3,0.3-0.8,0.5-1.3l1-1.9
					c0.5-1.2,1.2-1.6,2.4-1.6l1.6,0l-3.1,6.1l-1.3,0C39.6,24.2,39.2,23.8,39.4,23L39.4,23z M23.4,7.5l1.8,0c1.4,0,1.9,0.5,1.6,1.7
					c-0.1,0.3-0.1,0.6-0.3,0.8L25,13.2c-1.1,2.1-2.4,3-4.4,3.1l-1.6,0L23.4,7.5L23.4,7.5z"/>
				<path id="Fill-3" class="st1" d="M196.1,28.8c0,1.2-0.9,2.1-2.1,2.1c-1.2,0-2.1-1-2.1-2.1c0-1.2,1-2.1,2.1-2.1
					C195.1,26.7,196.1,27.6,196.1,28.8L196.1,28.8z M192.2,28.8c0,1,0.8,1.7,1.7,1.7c1,0,1.7-0.8,1.7-1.7c0-1-0.8-1.8-1.7-1.8
					C193,27,192.2,27.8,192.2,28.8L192.2,28.8z M193,27.6h1.1c0.4,0,0.9,0,0.9,0.6c0,0.2-0.1,0.5-0.6,0.6v0c0.4,0,0.5,0.2,0.5,0.5
					c0.1,0.5,0.1,0.5,0.1,0.7h-0.7c0-0.1-0.1-0.3-0.1-0.5c0-0.3,0-0.4-0.3-0.4h-0.3V30H193V27.6L193,27.6z M193.7,28.6h0.2
					c0.2,0,0.4,0,0.4-0.3s-0.2-0.3-0.4-0.3h-0.2V28.6L193.7,28.6z"/>
			</g>
		</g>
	</g>
</g>
</svg>
