<?xml version="1.0" encoding="utf-8"?>
<!-- Generator: Adobe Illustrator 27.7.0, SVG Export Plug-In . SVG Version: 6.00 Build 0)  -->
<svg version="1.1" id="Layer_1" xmlns="http://www.w3.org/2000/svg" xmlns:xlink="http://www.w3.org/1999/xlink" x="0px" y="0px"
	 viewBox="0 0 1730.62 237.48" style="enable-background:new 0 0 1730.62 237.48;" xml:space="preserve">
<g>
	<g>
		<path d="M211.18,43.27c-0.06,21.11-12.95,37.82-38.91,52.1l-90.95,50.04l-17.16,46.2l-29.34,9.01L93.77,41.67l26.11-0.04
			l-25.73,69.26l61.78-33.64c19.26-10.54,28.84-20.2,28.84-30.91c0.05-8.4-3.45-16.19-10.71-18.96c-4.19-1.77-11.63-2-21.87-2.05
			H17.64L0,0l157.03,0.07C193.17,0.12,211.18,15.86,211.18,43.27z"/>
	</g>
	<g>
		<path d="M721.05,167.39l-1.5-3.65L762.1,17.29l-27.85,8.65l-39.89,134.49c-0.38,1.18-0.92,3.31-0.92,3.31l0.91,3.65h-66.36
			l-1.5-3.65c7.77-27.94,15.76-54.7,23.39-78.54l-83.11-0.12c-7.78-0.04-13.91,1.95-17.86,4.8c-4.02,2.9-7.13,8.09-9.52,15.68
			c-4.95,14.57-8.58,25.35-11.03,32.61c-3.91,11.56-6.13,21.56-6.87,29.23h-65.13l-1.53-3.65l19.32-64.9
			c1.61-1.96,24.23-81.55,24.23-81.55l-27.83,8.65L451.71,85.2l-56.7-0.02c-7.89,0-13.72,1.68-17.7,4.62
			c-4.05,2.96-7.24,8.11-9.65,15.51c-4.9,14.53-8.64,25.44-11.12,32.69c-3.79,11.51-6.02,21.72-6.79,29.4H245.53
			c-11.63,0-17.36-5.31-17.36-14.71c0-5.64,1.62-12.84,4.58-21.6l7.55-21.16h45.07l-43.33,31.91l15.01,17.87l37.96-27.76
			c10.11-7.5,15.08-15.71,15.14-24.81c0-7.24-2.71-12.84-8.24-16.68c-4.72-3.4-10.94-5.27-18.38-5.27l-61.72-0.04l-11.76,35.46
			c-5.46,16.6-8.23,28.97-8.2,37.04c-0.03,10.96,4.23,19.61,12.69,25.79c7.57,5.3,17.1,8.68,28.62,8.68h122.86l0.15-0.67
			c0.91,0.07,1.9,0.11,3.02,0.16c11.32-0.05,23.1-4.69,35.59-14.4c6.51-4.95,16-14.21,28.46-27.57c-3,9.3-4.46,15.68-4.52,19.16
			c-0.11,15.27,10.8,23.24,32.52,23.32h76.81l0.11-0.51c0.84,0.12,1.82,0.21,2.66,0.17c11.42,0.04,23.22-4.78,35.65-14.34
			c6.45-5.1,15.99-14.24,28.44-27.61c-2.97,9.26-4.5,15.64-4.52,19.14c-0.02,15.24,10.91,23.07,32.61,23.15h76.8l0.27-0.67
			c2.13,0.33,4.38,0.5,6.9,0.57l76.83,0.1l7.24-24.75h-79.99V167.39z M377.38,167.39l-1.53-3.65c1.55-7.91,16.35-53.82,16.35-53.82
			h48.22C408.53,146.02,387.51,165.64,377.38,167.39z M549,167.39l-1.53-3.65c1.5-7.87,16.43-53.82,16.43-53.82h48.62
			C580.66,145.96,559.18,165.71,549,167.39z"/>
		<path d="M1638.74,167.4l-1.57-3.66c7.83-28.17,15.75-54.61,23.28-78.54h-82.65c-7.85,0.05-13.79,1.48-17.81,4.27
			c-3.89,2.96-7.97,9.8-10.4,17.29c-4.85,14.57-8.63,25.44-11.07,32.6c-3.89,11.64-6.11,20.33-6.83,28.05h-62.09l-1.52-3.66
			l23.66-78.54h-115.42l18.55-67.91l-27.85,8.56l-16.63,59.35h-39.7l-7.56,24.77c7.78,0.05,35.83,0.35,39.64,1.01l-17.04,56.41
			h-69.2l-1.65-3.61l23.5-78.59h-83.27c-7.83,0-13.81,1.39-17.79,4.33c-3.94,2.9-7.27,9.35-9.68,16.83
			c-4.86,14.54-8.65,25.45-11.13,32.61c-3.78,11.58-6.08,20.73-6.79,28.43l-46.22-0.07c-13.82,0-20.72-3.56-20.67-11.58
			c0-3.11,0.84-7.67,2.62-13.6l30.11-100.53c2.96-9.65,4.38-17.49,4.38-23.54c0-10.63-9.52-18.46-20.51-18.46
			c-15.08,0-24.07,7.87-29.06,13.89c-9.01,10.9-86.1,138.2-86.1,138.2c-7.02,11.75-12.12,17.74-15.88,17.79l-1.16-2.38
			c0-1.86,36.7-125.69,36.7-125.69c2.88-9.57,4.32-16.11,4.32-23.53c0-12.24-7.49-18.28-19.23-18.28
			c-13.95,0-22.66,5.44-31.07,13.87c-4.84,4.58-11.92,16.69-26.75,41.56c-12.69,21.28-21.75,37.63-27.26,48.07l11.23-31.61
			c4.38-12.87,6.51-24.09,6.45-33.5c0.06-23.93-16.22-37.93-48.61-37.93l-60.22-0.07l17.64,25.33h36.35
			c18.36,0.04,27.23,5.69,27.23,18.16c0,5.41-1.45,11.75-3.18,17.51l-38.11,131.14h25l87.6-147.48
			c6.62-11.09,11.89-17.61,15.6-19.64l1.21,2.19c-0.95,4.79-2.01,9.14-3.19,12.98l-35.06,114.6c-2.01,6.51-2.99,12.52-3.05,18.17
			c-0.04,14.35,7.36,21.49,22.37,21.54c15.82,0,30.79-11.73,44.94-35.19l68.91-114.41c6.5-10.85,11.76-17.52,15.65-20.11l1.1,2.05
			c-1.05,5.28-2.01,9.87-3.19,13.49l-30.69,100.37c-2.01,6.39-2.99,12.35-2.99,18c0,11.39,4,20.02,12.09,25.94
			c7.08,5.3,16.52,7.41,28.29,7.41l67.52,0.1l0.22-0.29c1.24,0.26,2.62,0.26,4.12,0.26c11.34,0,23.2-4.25,35.57-13.79
			c6.53-5.06,15.94-14.29,28.46-27.67c-2.99,9.29-4.49,15.65-4.57,19.16c0.03,15.25,11.04,22.22,32.83,22.27l56.93,0.05l-1.12,4.01
			c-1.27,4.22-1.95,8.42-1.9,12.85c-0.09,8.74,2.68,15.72,8.01,20.81c5.5,5.16,12.52,7.66,21.44,7.66
			c19.52,0.05,35.14-8.81,46.65-26.62c9.98-15.42,15.05-33.45,15.05-54.04c0-7.76-1.33-15.86-3.91-24.22
			c-3-9.35-8.48-17.82-13.26-22.66h69.25l-15.55,51.38c-1.22,4.25-1.85,8.14-1.85,11.67c0,11.63,8.09,19.11,24.12,19.17l82.29,0.02
			l0.12-0.12c1.17,0.1,2.27,0.12,3.42,0.12c11.28,0.04,23.2-3.93,35.51-13.45c6.57-5.03,16.07-14.3,28.52-27.61
			c-3.08,9.23-4.52,15.62-4.52,19.09c0,15.31,11.3,21.86,33.08,21.94l69.7-0.04l17.18-24.71
			C1718.78,167.42,1638.74,167.4,1638.74,167.4z M1177.04,167.4l-1.43-3.66c1.44-7.87,4.05-14.32,7.52-25.03
			c3.95-12.28,7.22-22.7,9.2-28.79h49.15C1209.58,146,1187.26,165.7,1177.04,167.4z M1373.46,192.34
			c-5.67,13.4-13.35,20.04-23.05,20.04c-5.61,0-8.31-3.01-8.34-8.94c0.02-3.68,3.41-16.87,10.26-39.36l12.96-42.09
			c9.87,9.33,14.79,21.81,14.82,37.75C1380.08,171.09,1377.87,182.01,1373.46,192.34z M1558.49,167.4l-1.54-3.66
			c1.62-7.8,17.48-53.82,17.48-53.82h49.45C1591.99,146.03,1568.64,165.84,1558.49,167.4z"/>
		<polygon points="1507.29,32.64 1481.53,32.48 1472.13,63.74 1497.84,63.76 		"/>
	</g>
</g>
</svg>
