<?xml version="1.0" encoding="UTF-8"?>
<svg version="1.1" xmlns="http://www.w3.org/2000/svg" width="1599" height="484">
<path d="M0 0 C527.67 0 1055.34 0 1599 0 C1599 159.72 1599 319.44 1599 484 C1071.33 484 543.66 484 0 484 C0 324.28 0 164.56 0 0 Z " fill="#FEFEFE" transform="translate(0,0)"/>
<path d="M0 0 C0.88413574 0.2172876 1.76827148 0.4345752 2.67919922 0.65844727 C28.50445909 7.20559656 50.9894705 21.97148809 65.18701172 44.89697266 C81.15835588 71.79955375 87.40033123 105.22464979 79.6953125 135.89550781 C71.44196424 167.52060618 54.87639768 192.918455 26.4609375 209.875 C-4.87965827 227.5660419 -39.89369415 226.93210566 -74.75 226.6875 C-74.75 247.1475 -74.75 267.6075 -74.75 288.6875 C-99.83 288.6875 -124.91 288.6875 -150.75 288.6875 C-150.75 192.6575 -150.75 96.6275 -150.75 -2.3125 C-22.21724359 -5.56649383 -22.21724359 -5.56649383 0 0 Z " fill="#0159FE" transform="translate(1257.75,84.3125)"/>
<path d="M0 0 C21.83352811 21.72702309 31.50361952 51.96782775 31.71484375 82.265625 C31.7596943 113.28725564 18.96264424 143.40552729 -2.12890625 166.01953125 C-30.82001684 193.57570867 -69.93308818 199.91000301 -108.22265625 199.515625 C-116.82328125 199.45375 -116.82328125 199.45375 -125.59765625 199.390625 C-125.59765625 219.850625 -125.59765625 240.310625 -125.59765625 261.390625 C-150.67765625 261.390625 -175.75765625 261.390625 -201.59765625 261.390625 C-201.59765625 165.360625 -201.59765625 69.330625 -201.59765625 -29.609375 C-36.37827756 -33.79214408 -36.37827756 -33.79214408 0 0 Z " fill="#0159FE" transform="translate(250.59765625,111.609375)"/>
<path d="M0 0 C25.08 0 50.16 0 76 0 C76 35.64 76 71.28 76 108 C102.73 108 129.46 108 157 108 C157 72.36 157 36.72 157 0 C182.08 0 207.16 0 233 0 C233 96.03 233 192.06 233 291 C207.92 291 182.84 291 157 291 C156.95989119 271.9394025 156.95989119 271.9394025 156.95117188 263.56054688 C156.94528586 257.9318747 156.93847394 252.30321936 156.92456055 246.67456055 C156.91336869 242.11624791 156.90765007 237.55795342 156.90512276 232.99962807 C156.9033315 231.29528837 156.89984357 229.59094919 156.89426994 227.88661766 C156.8380171 209.90222804 157.4858741 191.99440636 158 174 C130.94 174 103.88 174 76 174 C76 212.61 76 251.22 76 291 C50.92 291 25.84 291 0 291 C0 194.97 0 98.94 0 0 Z " fill="#0159FE" transform="translate(318,82)"/>
<path d="M0 0 C2.06892902 0.01115177 4.13785806 0.02230083 6.20678711 0.03344727 C25.00539204 0.20072357 43.8230842 1.24186402 62.375 4.4375 C63.56888403 55.59670082 63.56888403 55.59670082 63.375 75.4375 C58.3525228 75.03647843 53.42412021 74.51599305 48.4921875 73.46484375 C36.91654399 71.01800482 25.61747938 70.02364102 13.8125 70 C12.49427246 69.99025146 11.17604492 69.98050293 9.81787109 69.97045898 C-1.72106201 70.06982 -16.52440812 70.62347909 -25.3671875 79.109375 C-28.86850921 83.0295151 -31.39746627 86.42761872 -32 91.75 C-31.55403447 96.13532774 -30.54176532 99.16903086 -27.625 102.4375 C-20.63674305 107.66859159 -12.78137557 110.39434985 -4.5625 113.0625 C-1.99916691 113.92210466 0.56329334 114.7840259 3.125 115.6484375 C3.78850967 115.87112305 4.45201935 116.09380859 5.13563538 116.32324219 C12.38723457 118.76225751 19.59630226 121.31642273 26.79220581 123.91473389 C28.20070387 124.42209534 29.61028321 124.92646698 31.02102661 125.42755127 C53.09446928 133.27010704 73.68359204 144.46417027 84.375 166.4375 C89.68769145 179.11417211 91.75373194 190.93349378 91.6875 204.625 C91.68331055 205.81101807 91.67912109 206.99703613 91.67480469 208.21899414 C91.55824801 217.3048351 90.74406317 225.65562791 88.375 234.4375 C88.0965625 235.48421875 87.818125 236.5309375 87.53125 237.609375 C83.92257056 249.61756694 77.68760942 260.10925221 69.375 269.4375 C68.70984375 270.19675781 68.0446875 270.95601563 67.359375 271.73828125 C61.227708 278.31279086 54.08981162 282.96475111 46.375 287.4375 C45.29476563 288.06785156 44.21453125 288.69820313 43.1015625 289.34765625 C20.44547737 301.59055261 -5.29605063 303.66609202 -30.5625 303.6875 C-31.39281738 303.68850708 -32.22313477 303.68951416 -33.07861328 303.69055176 C-44.15562156 303.6815383 -55.09961477 303.33492116 -66.125 302.1875 C-67.17550537 302.07825195 -68.22601074 301.96900391 -69.30834961 301.85644531 C-80.19543091 300.57472172 -90.80020826 298.40564395 -101.625 296.4375 C-101.625 272.6775 -101.625 248.9175 -101.625 224.4375 C-91.625 226.4375 -91.625 226.4375 -86.6875 227.4375 C-69.99396627 230.77031376 -53.97634979 232.60854809 -36.9375 232.75 C-35.01381592 232.77658691 -35.01381592 232.77658691 -33.05126953 232.80371094 C-18.33422248 232.79240318 -3.59662986 230.6250299 8.375 221.4375 C12.52939109 216.72170471 13.74764719 213.94068464 13.6484375 207.75 C13.21601895 204.09297452 11.7933621 202.16590853 9.375 199.4375 C4.4846414 195.58240184 -0.02266853 193.23376867 -5.890625 191.23828125 C-6.67376572 190.96163635 -7.45690643 190.68499146 -8.26377869 190.39996338 C-9.93434881 189.81118517 -11.60668051 189.22738473 -13.28060913 188.64822388 C-15.90627666 187.73917147 -18.52654105 186.81590692 -21.14575195 185.88842773 C-24.65700929 184.64585964 -28.16967738 183.40746691 -31.68408203 182.17382812 C-38.40502459 179.81341897 -45.11581896 177.42853566 -51.8125 175 C-52.84729492 174.63624268 -53.88208984 174.27248535 -54.94824219 173.89770508 C-74.64544971 166.72580997 -90.26750001 154.21512586 -99.4375 135.1875 C-110.4478269 111.18224568 -109.86600294 84.49755714 -101.05859375 59.95703125 C-91.28097531 35.95257834 -73.17812068 17.80685861 -49.375 7.625 C-48.46693604 7.22631714 -48.46693604 7.22631714 -47.54052734 6.81958008 C-32.08168972 0.60282123 -16.43693387 -0.19657848 0 0 Z " fill="#0159FD" transform="translate(1474.625,76.5625)"/>
<path d="M0 0 C25.08 0 50.16 0 76 0 C75.67 74.25 75.34 148.5 75 225 C100.74 225 126.48 225 153 225 C153 246.78 153 268.56 153 291 C102.51 291 52.02 291 0 291 C0 194.97 0 98.94 0 0 Z " fill="#0159FE" transform="translate(769,82)"/>
<path d="M0 0 C25.08 0 50.16 0 76 0 C76 96.03 76 192.06 76 291 C50.92 291 25.84 291 0 291 C0 194.97 0 98.94 0 0 Z " fill="#0159FE" transform="translate(960,82)"/>
<path d="M0 0 C25.08 0 50.16 0 76 0 C76 96.03 76 192.06 76 291 C50.92 291 25.84 291 0 291 C0 194.97 0 98.94 0 0 Z " fill="#0159FD" transform="translate(622,82)"/>
<path d="M0 0 C8.79645807 7.41256684 15.30636556 16.83050189 16.45800781 28.48828125 C17.36336878 44.08679096 16.5859941 58.30437507 6.1875 70.75 C-4.23139996 81.99744071 -16.9895991 86.18069718 -31.8125 88.75 C-40.3925 88.75 -48.9725 88.75 -57.8125 88.75 C-57.8125 56.08 -57.8125 23.41 -57.8125 -10.25 C-37.82067884 -12.47131346 -16.99872126 -12.40447227 0 0 Z " fill="#FCFEFE" transform="translate(1240.8125,156.25)"/>
<path d="M0 0 C10.43205981 6.63353004 17.93531145 14.64777449 21.5390625 26.73828125 C24.27821227 41.92516488 23.3371412 58.31799899 14.51171875 71.3359375 C4.3331124 84.14856398 -9.04498021 89.46459869 -24.80078125 92.3984375 C-33.71078125 92.3984375 -42.62078125 92.3984375 -51.80078125 92.3984375 C-51.80078125 60.0584375 -51.80078125 27.7184375 -51.80078125 -5.6015625 C-34.80471062 -9.85058016 -15.57693436 -8.72731467 0 0 Z " fill="#FDFEFE" transform="translate(176.80078125,152.6015625)"/>
<path d="M0 0 C25.08 0 50.16 0 76 0 C76 35.64 76 71.28 76 108 C102.73 108 129.46 108 157 108 C157 72.36 157 36.72 157 0 C182.08 0 207.16 0 233 0 C233 96.03 233 192.06 233 291 C207.92 291 182.84 291 157 291 C156.95989119 271.9394025 156.95989119 271.9394025 156.95117188 263.56054688 C156.94528586 257.9318747 156.93847394 252.30321936 156.92456055 246.67456055 C156.91336869 242.11624791 156.90765007 237.55795342 156.90512276 232.99962807 C156.9033315 231.29528837 156.89984357 229.59094919 156.89426994 227.88661766 C156.8380171 209.90222804 157.4858741 191.99440636 158 174 C130.94 174 103.88 174 76 174 C76 212.61 76 251.22 76 291 C50.92 291 25.84 291 0 291 C0 194.97 0 98.94 0 0 Z M2 2 C2 96.71 2 191.42 2 289 C26.09 289.33 50.18 289.66 75 290 C75.33 251.06 75.66 212.12 76 172 C77.65 171.67 79.3 171.34 81 171 C81.33 171.33 81.66 171.66 82 172 C84.40348286 172.09496708 86.77810982 172.12558862 89.18188477 172.11352539 C90.3086412 172.11374443 90.3086412 172.11374443 91.4581604 172.1139679 C93.95260459 172.11326863 96.44697503 172.10547564 98.94140625 172.09765625 C100.66633564 172.09579212 102.39126557 172.09436819 104.11619568 172.09336853 C108.66512503 172.08954297 113.21402267 172.07971238 117.76293945 172.06866455 C122.40120006 172.05845124 127.03946577 172.05387108 131.67773438 172.04882812 C140.78517022 172.03809014 149.89258248 172.02101327 159 172 C159.85341301 178.61787932 160.13370326 185.05239544 160.09765625 191.72045898 C160.09619598 192.75243912 160.09473572 193.78441925 160.0932312 194.84767151 C160.089446 197.07218854 160.0833517 199.29670262 160.07516479 201.52120781 C160.0623458 205.03840108 160.05587224 208.55555644 160.05102539 212.07276917 C160.03963336 219.52769658 160.02036369 226.98259241 160 234.4375 C159.97641855 243.10146415 159.95604517 251.76541089 159.94406128 260.42939949 C159.93756181 263.90058371 159.92505902 267.37171399 159.91235352 270.84288025 C159.90872329 272.95702059 159.90537127 275.07116144 159.90234375 277.18530273 C159.89459427 278.64007523 159.89459427 278.64007523 159.88668823 280.12423706 C159.88661774 281.00588028 159.88654724 281.8875235 159.88647461 282.79588318 C159.884254 283.56403068 159.88203339 284.33217817 159.87974548 285.12360287 C159.88368998 287.09162438 159.88368998 287.09162438 161 289 C184.1 289 207.2 289 231 289 C231.02202595 252.70970559 231.04049759 216.41941747 231.05106533 180.1291183 C231.05231611 175.84934383 231.05361042 171.56956937 231.05493164 167.28979492 C231.05519395 166.43773202 231.05545626 165.58566912 231.05572652 164.70778614 C231.06008347 150.89272573 231.06797116 137.07766946 231.0771528 123.26261152 C231.08648863 109.09790151 231.09205546 94.93319368 231.09408849 80.76848072 C231.09546387 72.02088732 231.09981523 63.27330562 231.10791647 54.52571582 C231.11318306 48.53551286 231.11480449 42.54531599 231.11350138 36.55511088 C231.11285786 33.09379851 231.11387703 29.63250666 231.11920547 26.17119789 C231.12413504 22.42743407 231.12300102 18.68372152 231.12025452 14.93995667 C231.12316736 13.83394924 231.1260802 12.72794182 231.12908131 11.58841902 C231.12709026 10.59366023 231.12509921 9.59890144 231.12304783 8.57399845 C231.12361741 7.2759245 231.12361741 7.2759245 231.1241985 5.95162684 C231.21549725 3.99524027 231.21549725 3.99524027 230 3 C227.82194281 2.90570658 225.6407872 2.88257462 223.46069336 2.88647461 C222.77779739 2.88632858 222.09490143 2.88618256 221.39131165 2.8860321 C219.12412386 2.88673124 216.85701726 2.8945236 214.58984375 2.90234375 C213.02185613 2.90420793 211.45386793 2.90563183 209.88587952 2.90663147 C205.75123497 2.91045666 201.61662534 2.92028694 197.48199463 2.93133545 C193.26599602 2.94154956 189.04999178 2.94612909 184.83398438 2.95117188 C176.55597353 2.96190921 168.2779911 2.97898564 160 3 C159.19679863 5.8356227 158.86741086 8.37166682 158.84178162 11.31536865 C158.8319928 12.17069687 158.82220398 13.02602509 158.81211853 13.90727234 C158.80636307 14.83731583 158.8006076 15.76735931 158.79467773 16.72558594 C158.78477814 17.71128067 158.77487854 18.6969754 158.76467896 19.71253967 C158.73309786 22.9697937 158.70831983 26.22706231 158.68359375 29.484375 C158.6630213 31.74310688 158.64202475 34.00183493 158.62062073 36.26055908 C158.56543011 42.20514834 158.5160075 48.14977216 158.46777344 54.09442139 C158.40870366 61.2272164 158.3424922 68.35994825 158.27747345 75.49269104 C158.1795018 86.32842211 158.09061973 97.16419372 158 108 C130.94 108 103.88 108 76 108 C75.31097078 104.5548539 74.87166105 101.99579074 74.84178162 98.6023407 C74.8319928 97.75405197 74.82220398 96.90576324 74.81211853 96.0317688 C74.80636307 95.11467133 74.8006076 94.19757385 74.79467773 93.25268555 C74.78477814 92.27659836 74.77487854 91.30051117 74.76467896 90.29484558 C74.73314613 87.07549446 74.70833899 83.8561286 74.68359375 80.63671875 C74.66301713 78.40183636 74.64202047 76.16695779 74.62062073 73.93208313 C74.5654732 68.05491237 74.51603164 62.17770691 74.46777344 56.30047607 C74.41750497 50.30119749 74.36184681 44.30196919 74.30664062 38.30273438 C74.19914857 26.53519922 74.09768373 14.76762038 74 3 C50.46379403 -1.70724119 26.0023147 2 2 2 Z " fill="#1F66E2" transform="translate(318,82)"/>
<path d="M0 0 C25.08 0 50.16 0 76 0 C76 96.03 76 192.06 76 291 C50.92 291 25.84 291 0 291 C0 194.97 0 98.94 0 0 Z M3 2 C1.78369978 2.99599131 1.78369978 2.99599131 1.8758015 4.95803887 C1.87618122 5.82645926 1.87656094 6.69487966 1.87695217 7.58961582 C1.87496112 8.58785801 1.87297007 9.58610019 1.87091869 10.61459213 C1.87383153 11.72449051 1.87674437 12.83438888 1.87974548 13.97792053 C1.87889106 15.14667093 1.87803663 16.31542133 1.87715632 17.51958841 C1.87578815 20.7781938 1.87893556 24.03675994 1.88393438 27.29536068 C1.88823563 30.80389669 1.88679269 34.31243073 1.8860321 37.82096863 C1.88550666 43.90457154 1.88865557 49.98816377 1.89426994 56.07176399 C1.9023822 64.86772831 1.90499988 73.66368744 1.90625793 82.4596551 C1.90844889 96.72904709 1.91511014 110.99843337 1.92456055 125.26782227 C1.93373355 139.13273083 1.94081493 152.99763785 1.94506836 166.86254883 C1.94533108 167.71656684 1.94559381 168.57058485 1.94586449 169.4504822 C1.94716949 173.73465593 1.94843321 178.01882968 1.94967639 182.30300343 C1.96005035 217.86867402 1.97848938 253.43433406 2 289 C25.43 289 48.86 289 73 289 C73 194.29 73 99.58 73 2 C49.9 2 26.8 2 3 2 Z " fill="#1D61D7" transform="translate(960,82)"/>
<path d="M0 0 C0 0.33 0 0.66 0 1 C-0.66051361 0.94039597 -1.32102722 0.88079193 -2.0015564 0.81938171 C-23.98280596 -1.09171216 -45.84088009 -1.27774513 -67.89038086 -1.19561768 C-71.51734055 -1.1848511 -75.1442616 -1.18514884 -78.77123451 -1.18575573 C-82.38924122 -1.18547682 -86.00722593 -1.17988319 -89.62522507 -1.17275429 C-91.29327607 -1.16968567 -92.96132943 -1.16762988 -94.62938309 -1.16686058 C-112.43589904 -1.14964665 -130.18969461 -0.50886587 -148 0 C-148 94.71 -148 189.42 -148 287 C-124.24 287 -100.48 287 -76 287 C-76.07919455 267.34393951 -76.07919455 267.34393951 -76.18017578 247.68798828 C-76.1860145 245.23209811 -76.19111152 242.77620602 -76.1953125 240.3203125 C-76.20554443 239.03503662 -76.21577637 237.74976074 -76.22631836 236.42553711 C-76.22668091 234.59865356 -76.22668091 234.59865356 -76.22705078 232.73486328 C-76.231492 231.67341095 -76.23593323 230.61195862 -76.24050903 229.51834106 C-76 227 -76 227 -74 225 C-71.51644932 224.76640243 -69.13598001 224.65064461 -66.6484375 224.62109375 C-65.54914413 224.59560204 -65.54914413 224.59560204 -64.42764282 224.56959534 C-62.07685043 224.51640017 -59.72607192 224.47621166 -57.375 224.4375 C-55.04545058 224.39330473 -52.71602558 224.34624801 -50.3866272 224.29469299 C-48.93748295 224.2632268 -47.48823282 224.23619426 -46.03890991 224.21446228 C-41.29239476 224.11941277 -36.70663904 223.62228514 -32 223 C-30.44940903 222.89341936 -28.89710052 222.8067643 -27.34375 222.75390625 C-26.54839844 222.72103516 -25.75304688 222.68816406 -24.93359375 222.65429688 C-23.31134036 222.59310433 -21.68893517 222.53581167 -20.06640625 222.48242188 C-14.76906215 222.25490223 -10.1188001 221.37347115 -5 220 C-1.5 219.875 -1.5 219.875 1 220 C-19.23407543 231.31157952 -52.20975286 227.15291402 -74 227 C-74 247.46 -74 267.92 -74 289 C-99.08 289 -124.16 289 -150 289 C-150 192.97 -150 96.94 -150 -2 C-22.62208738 -5.22475728 -22.62208738 -5.22475728 0 0 Z " fill="#2C6AD3" transform="translate(1257,84)"/>
<path d="M0 0 C25.08 0 50.16 0 76 0 C76 96.03 76 192.06 76 291 C50.92 291 25.84 291 0 291 C0 194.97 0 98.94 0 0 Z M1 2 C1 96.71 1 191.42 1 289 C25.09 289 49.18 289 74 289 C74 194.29 74 99.58 74 2 C49.91 2 25.82 2 1 2 Z " fill="#2964CA" transform="translate(622,82)"/>
<path d="M0 0 C25.08 0 50.16 0 76 0 C75.67 74.25 75.34 148.5 75 225 C74.67 225 74.34 225 74 225 C74 151.41 74 77.82 74 2 C49.91 2 25.82 2 1 2 C1 96.71 1 191.42 1 289 C50.83 289 100.66 289 152 289 C152 268.21 152 247.42 152 226 C126.92 226 101.84 226 76 226 C76 225.67 76 225.34 76 225 C101.41 225 126.82 225 153 225 C153 246.78 153 268.56 153 291 C102.51 291 52.02 291 0 291 C0 194.97 0 98.94 0 0 Z " fill="#225FCC" transform="translate(769,82)"/>
<path d="M0 0 C25.08 0 50.16 0 76 0 C76 35.64 76 71.28 76 108 C75.67 108 75.34 108 75 108 C73.72316588 103.10203696 73.86678661 98.27477961 73.88647461 93.25268555 C73.88632858 92.27659836 73.88618256 91.30051117 73.8860321 90.29484558 C73.88672758 87.0754472 73.8945029 83.856107 73.90234375 80.63671875 C73.90420923 78.40184053 73.90563252 76.1669619 73.90663147 73.93208313 C73.91044643 68.05486926 73.92026802 62.17768017 73.93133545 56.30047607 C73.94337176 49.24612693 73.94795667 42.1917695 73.95378876 35.13741302 C73.96348029 24.42492479 73.98264403 13.71249091 74 3 C50.24 2.67 26.48 2.34 2 2 C2 96.71 2 191.42 2 289 C23.12 289 44.24 289 66 289 C66 289.33 66 289.66 66 290 C44.22 290.33 22.44 290.66 0 291 C0 194.97 0 98.94 0 0 Z " fill="#2967D8" transform="translate(318,82)"/>
<path d="M0 0 C0.33 0 0.66 0 1 0 C1 95.7 1 191.4 1 290 C-24.08 290 -49.16 290 -75 290 C-75.04010881 270.9394025 -75.04010881 270.9394025 -75.04882812 262.56054688 C-75.05471414 256.9318747 -75.06152606 251.30321936 -75.07543945 245.67456055 C-75.08663131 241.11624791 -75.09234993 236.55795342 -75.09487724 231.99962807 C-75.0966685 230.29528837 -75.10015643 228.59094919 -75.10573006 226.88661766 C-75.1619829 208.90222804 -74.5141259 190.99440636 -74 173 C-101.06 173 -128.12 173 -156 173 C-156 211.61 -156 250.22 -156 290 C-180.75 290 -205.5 290 -231 290 C-231 289.67 -231 289.34 -231 289 C-206.58 289 -182.16 289 -157 289 C-157.03480469 280.50507813 -157.06960938 272.01015625 -157.10546875 263.2578125 C-157.12273703 257.20704145 -157.13811741 251.15628882 -157.1507616 245.1055088 C-157.16741101 237.25892342 -157.18857579 229.41243329 -157.22631836 221.56591797 C-157.25936206 214.69301281 -157.27683283 207.82021086 -157.28463173 200.94723129 C-157.29019247 198.319664 -157.30105053 195.69210262 -157.31719017 193.06457901 C-157.33883691 189.39595405 -157.34197224 185.72776014 -157.34057617 182.05908203 C-157.351362 180.96288544 -157.36214783 179.86668884 -157.3732605 178.73727417 C-157.36913651 177.74165466 -157.36501251 176.74603516 -157.36076355 175.72024536 C-157.36352893 174.85191637 -157.36629431 173.98358738 -157.36914349 173.08894539 C-157.24732614 172.39959341 -157.12550879 171.71024143 -157 171 C-156.01 170.34 -155.02 169.68 -154 169 C-152.65521004 169.2835998 -151.32366457 169.63013381 -150 170 C-147.48433263 170.11692046 -144.99394614 170.18478352 -142.47753906 170.20532227 C-141.71381863 170.21535499 -140.95009819 170.22538771 -140.16323471 170.23572445 C-137.6973954 170.26704218 -135.23153997 170.29185278 -132.765625 170.31640625 C-131.24071741 170.3348159 -129.71581491 170.35365292 -128.19091797 170.3729248 C-122.54400565 170.44129587 -116.89699565 170.50139769 -111.25 170.5625 C-98.6275 170.706875 -86.005 170.85125 -73 171 C-72.67 209.61 -72.34 248.22 -72 288 C-48.24 288.33 -24.48 288.66 0 289 C0 193.63 0 98.26 0 0 Z " fill="#235DBD" transform="translate(550,83)"/>
<path d="M0 0 C0.33 0 0.66 0 1 0 C1 96.03 1 192.06 1 291 C26.08 291 51.16 291 77 291 C77 194.97 77 98.94 77 0 C77.33 0 77.66 0 78 0 C78 96.03 78 192.06 78 291 C78.66 291.33 79.32 291.66 80 292 C77.02244933 293.48877534 73.98485401 293.13868512 70.72045898 293.12939453 C69.59589294 293.13202301 69.59589294 293.13202301 68.4486084 293.13470459 C65.96441348 293.13911479 63.48028943 293.13618833 60.99609375 293.1328125 C59.27498867 293.13348571 57.55388368 293.13445587 55.83277893 293.13571167 C52.22387793 293.13718746 48.61500165 293.13503764 45.00610352 293.13037109 C40.36977137 293.1246696 35.73349705 293.12795622 31.09716702 293.13394356 C27.54311178 293.13754874 23.98907037 293.13641086 20.43501472 293.13381577 C18.72490495 293.1331466 17.01479393 293.13397457 15.30468559 293.13629532 C12.91980515 293.1388216 10.5350198 293.13498182 8.15014648 293.12939453 C7.08024223 293.13243088 7.08024223 293.13243088 5.98872375 293.13552856 C1.11426361 293.11426361 1.11426361 293.11426361 0 292 C-0.09695905 290.44136748 -0.12371663 288.87832522 -0.12304783 287.31667995 C-0.12503888 286.2975374 -0.12702993 285.27839484 -0.12908131 284.22836918 C-0.12616847 283.09512512 -0.12325563 281.96188105 -0.12025452 280.79429626 C-0.12110894 279.60104455 -0.12196337 278.40779284 -0.12284368 277.17838198 C-0.12421188 273.85136008 -0.12106437 270.52439628 -0.11606562 267.19738138 C-0.11176446 263.61522505 -0.11320731 260.03307066 -0.1139679 256.45091248 C-0.11449334 250.23962411 -0.11134437 244.02834621 -0.10573006 237.81706047 C-0.09761787 228.83648162 -0.09500013 219.85590786 -0.09374207 210.87532575 C-0.0915511 196.30644802 -0.08488982 181.73757587 -0.07543945 167.16870117 C-0.06626648 153.01277698 -0.05918509 138.8568543 -0.05493164 124.70092773 C-0.05466892 123.82898775 -0.05440619 122.95704776 -0.05413551 122.05868535 C-0.05283051 117.68460719 -0.05156679 113.31052902 -0.05032361 108.93645084 C-0.03994961 72.62429661 -0.02233009 36.31214874 0 0 Z " fill="#CFEEFE" transform="translate(959,82)"/>
<path d="M0 0 C0 0.33 0 0.66 0 1 C-2.97 0.67 -5.94 0.34 -9 0 C-56.78839124 -4.55127536 -104.99537059 -2 -153 -2 C-153 93.04 -153 188.08 -153 286 C-128.91 286 -104.82 286 -80 286 C-79.67 266.2 -79.34 246.4 -79 226 C-78.67 226 -78.34 226 -78 226 C-78 246.46 -78 266.92 -78 288 C-103.08 288 -128.16 288 -154 288 C-154 191.97 -154 95.94 -154 -3 C-23.9644614 -6.29203895 -23.9644614 -6.29203895 0 0 Z " fill="#245DBC" transform="translate(203,85)"/>
<path d="M0 0 C0.66 0 1.32 0 2 0 C2 96.03 2 192.06 2 291 C27.08 291 52.16 291 78 291 C76 293 76 293 73.276474 293.23377991 C71.53848289 293.22259377 71.53848289 293.22259377 69.76538086 293.21118164 C68.45319077 293.20780289 67.14100067 293.20442413 65.78904724 293.20094299 C64.34764559 293.18739868 62.90624444 293.17380176 61.46484375 293.16015625 C59.9871103 293.15388339 58.50937212 293.14864411 57.03163147 293.14439392 C53.13054772 293.13106647 49.22961936 293.10664293 45.32861328 293.07904053 C39.10985942 293.03602229 32.89106961 293.00602961 26.6722126 292.9829998 C24.50927228 292.97286444 22.34646755 292.95579448 20.18357849 292.93800354 C13.37598974 292.89677625 6.74851738 293.0483159 0 294 C-0.98521973 291.0443408 -1.11934974 289.1653491 -1.10743046 286.08620167 C-1.10593811 285.06656041 -1.10444576 284.04691915 -1.10290819 282.99637967 C-1.09270251 281.31108853 -1.09270251 281.31108853 -1.08229065 279.5917511 C-1.07906152 278.40087409 -1.07583239 277.20999708 -1.07250541 275.98303288 C-1.06250629 272.67191798 -1.04795958 269.36087867 -1.03152263 266.04979312 C-1.01490554 262.48131789 -1.00410981 258.91282458 -0.99261475 255.34432983 C-0.97189238 249.15980281 -0.94746418 242.97529927 -0.92053413 236.79079628 C-0.88160292 227.84899282 -0.84823707 218.90717545 -0.81623887 209.96534481 C-0.76417505 195.45856947 -0.70759692 180.95181537 -0.64819336 166.44506836 C-0.59049065 152.35132678 -0.53490563 138.25757947 -0.48217773 124.16381836 C-0.47892802 123.29539082 -0.4756783 122.42696327 -0.4723301 121.53221975 C-0.45604066 117.17566704 -0.43979295 112.81911419 -0.42356598 108.46256125 C-0.28884747 72.30834788 -0.14680835 36.15416619 0 0 Z " fill="#E5FDFE" transform="translate(620,82)"/>
<path d="M0 0 C27.06 0 54.12 0 82 0 C82 40.26022127 82 40.26022127 81.78125 56.35546875 C81.75863754 58.14390322 81.73622273 59.9323402 81.71398926 61.72077942 C81.65673893 66.28566088 81.596923 70.85050465 81.53643799 75.41534424 C81.4744621 80.13039075 81.41509813 84.84547021 81.35546875 89.56054688 C81.23943484 98.70706391 81.12067167 107.85354305 81 117 C80.67 117 80.34 117 80 117 C80 79.05 80 41.1 80 2 C78.02 2.33 76.04 2.66 74 3 C71.60110781 3.05777249 69.20054965 3.06015115 66.80126953 3.02172852 C66.09678114 3.01193686 65.39229275 3.00214521 64.66645622 2.99205685 C62.40513145 2.95940319 60.14401042 2.9193223 57.8828125 2.87890625 C56.4790927 2.85753934 55.07536535 2.83666317 53.67163086 2.81628418 C48.48932704 2.73762749 43.30717049 2.64949827 38.125 2.5625 C26.53375 2.376875 14.9425 2.19125 3 2 C2.67 39.95 2.34 77.9 2 117 C1.34 117 0.68 117 0 117 C0 78.39 0 39.78 0 0 Z " fill="#C9E9FD" transform="translate(394,256)"/>
<path d="M0 0 C0.66 0 1.32 0 2 0 C2.93482263 2.80446788 3.11367602 4.41806397 3.08229065 7.30900574 C3.07525116 8.18820175 3.06821167 9.06739777 3.06095886 9.97323608 C3.04801285 10.93492706 3.03506683 11.89661804 3.02172852 12.88745117 C3.01212097 13.90226059 3.00251343 14.91707001 2.99261475 15.96263123 C2.95958753 19.32281349 2.91926921 22.68286725 2.87890625 26.04296875 C2.85460878 28.37038213 2.83076504 30.69780028 2.80735779 33.02522278 C2.74447977 39.15568477 2.67542357 45.28606234 2.60510254 51.41644287 C2.52203456 58.76938703 2.44660128 66.12241296 2.36989594 73.47542572 C2.25246229 84.65035761 2.1253003 95.82514106 2 107 C27.41 107 52.82 107 79 107 C79.33 71.69 79.66 36.38 80 0 C80.33 0 80.66 0 81 0 C81 35.64 81 71.28 81 108 C54.27 108 27.54 108 0 108 C0 72.36 0 36.72 0 0 Z " fill="#D3F1FE" transform="translate(394,82)"/>
<path d="M0 0 C0.77907715 -0.00064453 1.5581543 -0.00128906 2.36083984 -0.00195312 C8.10074379 0.05060791 13.51623534 0.6267421 19.0625 2.1875 C15.93620799 3.11138385 13.17552163 3.29233151 9.921875 3.25 C8.93316406 3.24226562 7.94445313 3.23453125 6.92578125 3.2265625 C4.86588295 3.20071685 2.80598706 3.17467818 0.74609375 3.1484375 C-0.24777344 3.14070312 -1.24164062 3.13296875 -2.265625 3.125 C-3.1618457 3.11339844 -4.05806641 3.10179687 -4.98144531 3.08984375 C-8.64974509 3.21102974 -12.29554154 3.73225519 -15.9375 4.1875 C-15.9375 35.2075 -15.9375 66.2275 -15.9375 98.1875 C-8.6775 97.8575 -1.4175 97.5275 6.0625 97.1875 C9.5275 97.6825 9.5275 97.6825 13.0625 98.1875 C13.0625 98.5175 13.0625 98.8475 13.0625 99.1875 C2.92456245 101.21508751 -7.59879172 100.1875 -17.9375 100.1875 C-17.9375 67.5175 -17.9375 34.8475 -17.9375 1.1875 C-11.86161022 0.51240114 -6.07477727 -0.00526981 0 0 Z " fill="#CAE7FE" transform="translate(1200.9375,144.8125)"/>
<path d="M0 0 C36.42341892 -1.39301369 36.42341892 -1.39301369 47.66748047 6.10302734 C46.08364559 5.98455151 44.50043759 5.85770462 42.91748047 5.72802734 C42.03576172 5.65841797 41.15404297 5.58880859 40.24560547 5.51708984 C38.2082488 5.28132586 36.17251189 5.00949263 34.15722656 4.62866211 C26.37529253 3.1597645 18.76120858 2.7620931 10.859375 2.78735352 C8.80138053 2.79051368 6.74483007 2.76695003 4.68701172 2.74169922 C-7.12096197 2.68580328 -22.06666531 3.13041388 -31.07470703 11.77490234 C-34.57602874 15.69504244 -37.1049858 19.09314607 -37.70751953 24.41552734 C-37.261554 28.80085509 -36.24928486 31.8345582 -33.33251953 35.10302734 C-26.34438705 40.33402576 -18.48893558 43.06029073 -10.27001953 45.72802734 C-7.71966623 46.58230991 -5.17020725 47.43894604 -2.62158203 48.29833984 C-1.96013687 48.52019958 -1.29869171 48.74205933 -0.61720276 48.97064209 C6.83650995 51.47795519 14.24001104 54.12232413 21.63400269 56.79998779 C23.11108449 57.33405667 24.58905061 57.86568623 26.06790161 58.39483643 C28.1383024 59.13577148 30.20593414 59.88395736 32.27294922 60.63427734 C34.05415161 61.27719727 34.05415161 61.27719727 35.87133789 61.93310547 C38.66748047 63.10302734 38.66748047 63.10302734 40.66748047 65.10302734 C37.37416454 64.50200172 34.304823 63.71169179 31.15576172 62.57958984 C30.31464844 62.28052734 29.47353516 61.98146484 28.60693359 61.67333984 C27.74003906 61.36138672 26.87314453 61.04943359 25.97998047 60.72802734 C20.00616211 58.58381269 14.03020535 56.55633022 7.93798828 54.7722168 C2.5491419 53.18395573 -2.63713786 51.4721491 -7.70751953 49.04052734 C-12.73420671 46.71846477 -17.88064552 45.87749917 -23.33251953 45.10302734 C-23.33251953 44.44302734 -23.33251953 43.78302734 -23.33251953 43.10302734 C-24.01314453 42.85552734 -24.69376953 42.60802734 -25.39501953 42.35302734 C-31.68522736 39.67634316 -36.40638159 37.54053081 -39.33251953 31.10302734 C-40.69499016 22.94105707 -38.54575752 17.03982275 -34.33251953 10.10302734 C-33.34251953 10.10302734 -32.35251953 10.10302734 -31.33251953 10.10302734 C-31.33251953 9.11302734 -31.33251953 8.12302734 -31.33251953 7.10302734 C-29.02251953 6.44302734 -26.71251953 5.78302734 -24.33251953 5.10302734 C-24.33251953 4.44302734 -24.33251953 3.78302734 -24.33251953 3.10302734 C-16.21270514 1.03866775 -8.35704538 0.36913054 0 0 Z " fill="#2361D0" transform="translate(1480.33251953125,143.89697265625)"/>
<path d="M0 0 C1.21880859 -0.01224609 2.43761719 -0.02449219 3.69335938 -0.03710938 C4.86833984 -0.03904297 6.04332031 -0.04097656 7.25390625 -0.04296875 C8.32068604 -0.04707764 9.38746582 -0.05118652 10.48657227 -0.05541992 C13.53704071 0.19569418 15.66744568 0.92876038 18.4375 2.1875 C19.365625 2.47625 20.29375 2.765 21.25 3.0625 C25.16552096 4.44444857 28.76322598 6.26643287 32.4375 8.1875 C30.4375 9.1875 30.4375 9.1875 27.20703125 8.2265625 C25.88544682 7.76247433 24.56651806 7.29077129 23.25 6.8125 C21.94619573 6.34027636 20.64019357 5.87407562 19.33203125 5.4140625 C18.75300049 5.20346191 18.17396973 4.99286133 17.57739258 4.77587891 C6.01103863 1.59562642 -7.1466705 3.1875 -18.5625 3.1875 C-18.5625 35.8575 -18.5625 68.5275 -18.5625 102.1875 C0.56382007 101.4518723 15.98255751 100.53475182 33.4375 94.1875 C33.4375 94.8475 33.4375 95.5075 33.4375 96.1875 C31.81951889 96.99341454 30.19257186 97.78132983 28.5625 98.5625 C27.65757813 99.00335938 26.75265625 99.44421875 25.8203125 99.8984375 C16.73156631 103.36181653 7.66966594 103.47664987 -1.93383789 103.39331055 C-4.15196956 103.37477463 -6.36968872 103.3728033 -8.58789062 103.37304688 C-19.41464008 103.33535992 -19.41464008 103.33535992 -20.5625 102.1875 C-20.66314575 99.15939582 -20.69864574 96.1540594 -20.69189453 93.12548828 C-20.69364685 92.17431122 -20.69539917 91.22313416 -20.69720459 90.24313354 C-20.70162574 87.0813416 -20.69868373 83.91960507 -20.6953125 80.7578125 C-20.69598558 78.56924427 -20.69695563 76.38067612 -20.69821167 74.19210815 C-20.69968909 69.59697765 -20.69753309 65.00186654 -20.69287109 60.40673828 C-20.6871805 54.50945042 -20.6904483 48.61220813 -20.69644356 42.71492195 C-20.7000537 38.19228776 -20.69890837 33.6696644 -20.69631577 29.14702988 C-20.69564741 26.97246165 -20.69647176 24.79789244 -20.69879532 22.62332535 C-20.7013285 19.58495726 -20.69747145 16.54666333 -20.69189453 13.50830078 C-20.69391876 12.60428528 -20.69594299 11.70026978 -20.69802856 10.76885986 C-20.69520874 9.94159393 -20.69238892 9.114328 -20.68948364 8.26199341 C-20.68910662 7.54337191 -20.68872959 6.8247504 -20.68834114 6.08435249 C-20.5625 4.1875 -20.5625 4.1875 -19.5625 1.1875 C-13.0216599 -0.04147427 -6.63588188 0.00352036 0 0 Z " fill="#1B58C2" transform="translate(1201.5625,142.8125)"/>
<path d="M0 0 C1.19302734 0.04125 2.38605469 0.0825 3.61523438 0.125 C5.47438477 0.21394531 5.47438477 0.21394531 7.37109375 0.3046875 C9.18963867 0.35882813 9.18963867 0.35882813 11.04492188 0.4140625 C19.36087304 0.75294308 28.23739054 1.3940859 35.80859375 5.1796875 C35.47859375 5.8396875 35.14859375 6.4996875 34.80859375 7.1796875 C33.80183594 6.8909375 32.79507813 6.6021875 31.7578125 6.3046875 C17.86797964 2.55361391 5.04539576 2.40008725 -9.19140625 4.1796875 C-9.19140625 36.5196875 -9.19140625 68.8596875 -9.19140625 102.1796875 C-9.85140625 101.8496875 -10.51140625 101.5196875 -11.19140625 101.1796875 C-11.30711784 88.45398428 -11.3960292 75.72840565 -11.45046711 63.00228405 C-11.47659109 57.09337507 -11.51204092 51.18482527 -11.56860352 45.27612305 C-11.62282237 39.57676463 -11.65280566 33.87775225 -11.66579247 28.1781559 C-11.6750505 26.00074119 -11.69312881 23.82334599 -11.72005653 21.64607811 C-11.75621162 18.60241745 -11.7613572 15.56019731 -11.7590332 12.51635742 C-11.77700958 11.61077087 -11.79498596 10.70518433 -11.81350708 9.77215576 C-11.79438097 7.46613522 -11.73849743 5.41968245 -11.19140625 3.1796875 C-7.58453353 0.01191172 -4.70229284 -0.16916505 0 0 Z " fill="#306ED6" transform="translate(134.19140625,142.8203125)"/>
<path d="M0 0 C-3.94338745 2.62892497 -7.39145648 2.33372666 -11.97265625 2.37890625 C-13.29093666 2.40439796 -13.29093666 2.40439796 -14.635849 2.43040466 C-17.44465959 2.48355524 -20.25345544 2.52384232 -23.0625 2.5625 C-25.87503976 2.60641219 -28.68746437 2.65309975 -31.49986267 2.70530701 C-33.25039538 2.7372864 -35.00102986 2.76416956 -36.75172424 2.78553772 C-41.01129312 2.73915826 -41.01129312 2.73915826 -45 4 C-45.00808685 4.73471527 -45.01617371 5.46943054 -45.02450562 6.22640991 C-45.10237093 13.1425207 -45.18963694 20.05845546 -45.28752708 26.97430992 C-45.33752304 30.53003393 -45.38385244 34.08572776 -45.421875 37.64160156 C-45.46572333 41.72740639 -45.52538806 45.81284581 -45.5859375 49.8984375 C-45.59748871 51.17866791 -45.60903992 52.45889832 -45.62094116 53.77792358 C-45.64081085 54.95899689 -45.66068054 56.14007019 -45.68115234 57.35693359 C-45.69447601 58.40062103 -45.70779968 59.44430847 -45.7215271 60.5196228 C-46 63 -46 63 -48 65 C-50.44182558 65.15822696 -52.7644887 65.19260748 -55.20361328 65.13525391 C-56.3159584 65.12106163 -56.3159584 65.12106163 -57.45077515 65.10658264 C-59.9075351 65.07284256 -62.3637968 65.02474514 -64.8203125 64.9765625 C-66.52137949 64.95040177 -68.22246043 64.92513425 -69.92355347 64.90072632 C-74.40522896 64.83401255 -78.88661177 64.75513356 -83.36804199 64.67376709 C-87.93925729 64.59290809 -92.51064451 64.52349002 -97.08203125 64.453125 C-106.05489362 64.3133156 -115.02748847 64.160661 -124 64 C-124 63.67 -124 63.34 -124 63 C-98.92 63 -73.84 63 -48 63 C-48 42.54 -48 22.08 -48 1 C-38.904375 0.7525 -38.904375 0.7525 -29.625 0.5 C-27.73217285 0.44779297 -25.8393457 0.39558594 -23.88916016 0.34179688 C-15.92397854 0.12643511 -7.96895994 -0.06599553 0 0 Z " fill="#D7F3FE" transform="translate(1231,310)"/>
<path d="M0 0 C2.38565541 0.00187219 4.77131122 0.00329229 7.15696716 0.00428772 C13.34295776 0.00804999 19.52892372 0.01782403 25.71490479 0.0289917 C32.06449043 0.03934356 38.41408017 0.04381441 44.76367188 0.04882812 C57.15365648 0.05945403 69.54362304 0.07645166 81.93359375 0.09765625 C81.93359375 0.75765625 81.93359375 1.41765625 81.93359375 2.09765625 C83.91359375 2.09765625 85.89359375 2.09765625 87.93359375 2.09765625 C87.93359375 2.42765625 87.93359375 2.75765625 87.93359375 3.09765625 C86.94133789 3.02691895 85.94908203 2.95618164 84.92675781 2.88330078 C73.50317274 2.11434882 62.13014166 1.9410014 50.68359375 1.97265625 C49.27645111 1.9739856 49.27645111 1.9739856 47.84088135 1.9753418 C32.21792998 1.99237704 16.60752161 2.27435372 0.99002075 2.66885376 C-16.69923276 3.11544004 -34.37220026 3.21431346 -52.06640625 3.09765625 C-51.73640625 2.43765625 -51.40640625 1.77765625 -51.06640625 1.09765625 C-34.03421641 0.28059845 -17.05019047 -0.04022798 0 0 Z " fill="#D2ECFD" transform="translate(101.06640625,78.90234375)"/>
<path d="M0 0 C1.9375 0.3125 1.9375 0.3125 4 1 C5.0690003 4.20700089 5.13332529 6.56992069 5.125 9.9375 C5.12886719 11.49791016 5.12886719 11.49791016 5.1328125 13.08984375 C5.01932023 15.57665971 4.71928571 17.63092407 4 20 C3.34 20 2.68 20 2 20 C1.9175 20.61875 1.835 21.2375 1.75 21.875 C1 24 1 24 -0.9375 25.25 C-3 26 -3 26 -5 26 C-5.495 27.485 -5.495 27.485 -6 29 C-7.65 29.33 -9.3 29.66 -11 30 C-11 30.66 -11 31.32 -11 32 C-26.15077927 34.81318173 -40.59491196 36.64620343 -56 36 C-57.35544421 35.96644149 -58.71091282 35.93385143 -60.06640625 35.90234375 C-73.50126465 35.3901644 -86.73952987 33.10918719 -100 31 C-100.33 30.01 -100.66 29.02 -101 28 C-99.10416667 28.29166667 -97.20833333 28.58333333 -95.3125 28.875 C-94.12398437 29.05675781 -92.93546875 29.23851562 -91.7109375 29.42578125 C-89.3606142 29.78946285 -87.01146643 30.16089715 -84.6640625 30.54296875 C-83.59929687 30.71441406 -82.53453125 30.88585937 -81.4375 31.0625 C-80.48746094 31.21847656 -79.53742188 31.37445313 -78.55859375 31.53515625 C-68.27951145 32.87786843 -58.04654463 33.20923642 -47.6875 33.25 C-46.38876953 33.270625 -45.09003906 33.29125 -43.75195312 33.3125 C-28.90326874 33.37156985 -14.08961616 31.27807752 -2 22 C2.19230251 17.24117012 3.27452328 14.54497781 3.234375 8.33203125 C2.91065967 5.11106367 1.68105525 2.73171478 0 0 Z " fill="#1C5DD0" transform="translate(1485,276)"/>
<path d="M0 0 C1 3 1 3 -0.0625 5.375 C-2.34552654 8.46813273 -5.04939383 10.55162467 -8 13 C-9.19232613 15.05003955 -9.19232613 15.05003955 -10 17 C-10.46019531 17.43957031 -10.92039062 17.87914063 -11.39453125 18.33203125 C-16.26575379 23.39288776 -18.50867249 30.9396859 -20.32421875 37.578125 C-20.81892444 39.3510587 -21.39324307 41.10229525 -22.01171875 42.8359375 C-26.60978017 57.5570037 -27.85989884 79.46124279 -21.88671875 93.796875 C-20.78553403 96.53285819 -19.90242854 99.31744456 -19 102.125 C-17.91883688 105.43110498 -16.83330325 108.55884601 -15.1875 111.625 C-14.795625 112.40875 -14.40375 113.1925 -14 114 C-14.495 114.99 -14.495 114.99 -15 116 C-28.26061608 91.79615706 -31.3331673 66.67309604 -23.93359375 39.984375 C-19.30993612 25.15204755 -11.42697603 10.75916574 0 0 Z " fill="#306BCF" transform="translate(1395,104)"/>
<path d="M0 0 C5.58784239 0.00577107 11.17563751 0.00235637 16.76347828 -0.00357246 C21.10693215 -0.00718429 25.45037476 -0.0060379 29.79382896 -0.00344467 C31.85623874 -0.00278096 33.91864956 -0.00358424 35.98105812 -0.00592422 C38.8456356 -0.00846914 41.71013534 -0.00458758 44.57470703 0.00097656 C45.41257248 -0.00104767 46.25043793 -0.0030719 47.11369324 -0.00515747 C51.78947509 0.01163148 56.21678912 0.35374616 60.8293457 1.13037109 C60.8293457 1.46037109 60.8293457 1.79037109 60.8293457 2.13037109 C59.98325493 2.12704018 59.98325493 2.12704018 59.12007141 2.12364197 C33.19706654 2.02661031 7.29199772 2.0320875 -18.62371826 2.70184326 C-36.14317742 3.15308019 -53.64604148 3.24591018 -71.1706543 3.13037109 C-71.1706543 2.47037109 -71.1706543 1.81037109 -71.1706543 1.13037109 C-47.45453213 -0.06638392 -23.74006203 -0.02487619 0 0 Z " fill="#D4EFFD" transform="translate(1178.170654296875,78.86962890625)"/>
<path d="M0 0 C0.33 0 0.66 0 1 0 C1 20.46 1 40.92 1 62 C-24.08 62 -49.16 62 -75 62 C-74.67 61.34 -74.34 60.68 -74 60 C-49.91 60 -25.82 60 -1 60 C-0.67 40.2 -0.34 20.4 0 0 Z " fill="#2C67C9" transform="translate(124,311)"/>
<path d="M0 0 C0.78141357 -0.00386719 1.56282715 -0.00773438 2.36791992 -0.01171875 C3.16689697 -0.00269531 3.96587402 0.00632813 4.7890625 0.015625 C6.03490112 0.02142578 6.03490112 0.02142578 7.3059082 0.02734375 C13.22567591 0.11076156 18.66973344 0.75891574 24.4140625 2.265625 C24.4140625 2.595625 24.4140625 2.925625 24.4140625 3.265625 C18.28188531 3.36542535 12.48894509 3.18258841 6.4140625 2.265625 C2.0748978 2.12565195 -2.03451221 2.27347068 -6.34375 2.7734375 C-7.14184082 2.86512207 -7.93993164 2.95680664 -8.76220703 3.05126953 C-9.66495361 3.15737549 -9.66495361 3.15737549 -10.5859375 3.265625 C-10.60907047 15.35677371 -10.62685748 27.44791718 -10.63774967 39.53908348 C-10.6429764 45.15301671 -10.65007026 50.76693484 -10.66137695 56.38085938 C-10.67221326 61.79488906 -10.67821592 67.20890419 -10.68081474 72.62294388 C-10.68266764 74.69227961 -10.68628569 76.7616145 -10.69166756 78.83094406 C-10.69888782 81.72113541 -10.69992802 84.61126599 -10.69946289 87.50146484 C-10.70305817 88.36389297 -10.70665344 89.22632111 -10.71035767 90.11488342 C-10.82081362 94.32404683 -10.82081362 94.32404683 -9.5859375 98.265625 C-0.3459375 98.265625 8.8940625 98.265625 18.4140625 98.265625 C9.15243317 102.89643966 -2.23112112 100.265625 -12.5859375 100.265625 C-12.5859375 67.925625 -12.5859375 35.585625 -12.5859375 2.265625 C-3.57009451 0.01166425 -3.57009451 0.01166425 0 0 Z " fill="#D7F8FE" transform="translate(137.5859375,144.734375)"/>
<path d="M0 0 C13.69074104 16.7463557 14.32338072 46.55141676 13 67 C11.78660588 76.63917569 9.18411839 85.84616282 6 95 C5.67 95 5.34 95 5 95 C5.11498267 92.79112243 5.24243505 90.58289213 5.375 88.375 C5.44460938 87.14523438 5.51421875 85.91546875 5.5859375 84.6484375 C6.06617306 80.41692794 7.0975236 76.80495279 9 73 C12.02534119 53.40084325 12.06152483 27.8151442 2.875 9.79296875 C2 8 2 8 2 5 C1.34 5 0.68 5 0 5 C0 3.35 0 1.7 0 0 Z " fill="#2C69D5" transform="translate(269,139)"/>
<path d="M0 0 C3.0417728 0.14382628 6.0834027 0.29004195 9.125 0.4375 C9.96160156 0.47681641 10.79820313 0.51613281 11.66015625 0.55664062 C16.61773421 0.79892827 21.55983656 1.12019716 26.5078125 1.51367188 C33.55554846 2.02007824 40.55382906 2.1292836 47.6171875 2.09765625 C49.45194138 2.09553383 49.45194138 2.09553383 51.32376099 2.09336853 C55.17420045 2.08783678 59.02457855 2.07529771 62.875 2.0625 C65.50911373 2.05747616 68.14322839 2.05291481 70.77734375 2.04882812 C77.18491625 2.03788984 83.59245374 2.0212215 90 2 C90 2.33 90 2.66 90 3 C77.85517398 4.5726789 65.93148982 5.36443817 53.6875 5.3125 C52.47297653 5.3117598 52.47297653 5.3117598 51.23391724 5.31100464 C34.14914952 5.27943007 16.76378331 4.52052735 0 1 C0 0.67 0 0.34 0 0 Z " fill="#2967D8" transform="translate(1390,375)"/>
<path d="M0 0 C3.27477124 0.80339412 6.51531938 0.75331179 9.86761475 0.78065491 C10.61922379 0.7905545 11.37083282 0.8004541 12.1452179 0.81065369 C14.62328977 0.8421773 17.10138079 0.86698987 19.57952881 0.89173889 C21.30017589 0.91231632 23.02081801 0.933313 24.74145508 0.95471191 C29.26562473 1.00985116 33.78983938 1.05929631 38.31408691 1.1075592 C42.93255611 1.15783377 47.55096011 1.21348873 52.16937256 1.26869202 C61.22791059 1.37617391 70.28650528 1.47764096 79.34515381 1.57533264 C79.01515381 2.89533264 78.68515381 4.21533264 78.34515381 5.57533264 C78.34515381 4.91533264 78.34515381 4.25533264 78.34515381 3.57533264 C50.95515381 3.57533264 23.56515381 3.57533264 -4.65484619 3.57533264 C-4.32484619 2.58533264 -3.99484619 1.59533264 -3.65484619 0.57533264 C-1.65484619 -0.42466736 -1.65484619 -0.42466736 0 0 Z " fill="#0F59D7" transform="translate(397.65484619140625,252.42466735839844)"/>
<path d="M0 0 C4.95 0.99 4.95 0.99 10 2 C6 3 6 3 2 2 C2.33 24.44 2.66 46.88 3 70 C7.62 70.99 12.24 71.98 17 73 C17 73.33 17 73.66 17 74 C10.68892692 74.22949357 6.4403245 73.43118322 0 72 C0 48.24 0 24.48 0 0 Z " fill="#2E69D2" transform="translate(1373,301)"/>
<path d="M0 0 C0.33 0 0.66 0 1 0 C1.33 29.7 1.66 59.4 2 90 C26.84703687 91.13183292 26.84703687 91.13183292 38 88 C39.32 88.33 40.64 88.66 42 89 C39.525 89.495 39.525 89.495 37 90 C37 90.66 37 91.32 37 92 C28.38835197 92.73068529 19.83030601 93.10625882 11.1875 93.125 C10.3099707 93.12951172 9.43244141 93.13402344 8.52832031 93.13867188 C7.7081543 93.13673828 6.88798828 93.13480469 6.04296875 93.1328125 C5.31102295 93.13168457 4.57907715 93.13055664 3.82495117 93.12939453 C2 93 2 93 0 92 C-0.15356924 80.15241336 -0.30175102 68.30477295 -0.4429636 56.4570322 C-0.50869826 50.95626181 -0.57632213 45.45552789 -0.64819336 39.95483398 C-0.71742302 34.65108267 -0.7817819 29.34729299 -0.84269524 24.04343987 C-0.86685926 22.01512424 -0.89280902 19.98682911 -0.92053413 17.95855904 C-0.95892633 15.12808568 -0.99109412 12.29760742 -1.02172852 9.46704102 C-1.03467453 8.61971909 -1.04762054 7.77239716 -1.06095886 6.8993988 C-1.07900573 4.93291036 -1.04525569 2.96605046 -1 1 C-0.67 0.67 -0.34 0.34 0 0 Z M-2 92 C0 93 0 93 0 93 Z " fill="#0659F6" transform="translate(122,154)"/>
<path d="M0 0 C0.99 0.495 0.99 0.495 2 1 C-13.695136 20.07322818 -35.49353 32.8794431 -60 37 C-61.9995559 37.04214521 -64.00069622 37.05276755 -66 37 C-62.77208445 34.8480563 -61.71599191 34.79913557 -58 35 C-58 34.34 -58 33.68 -58 33 C-56.1746875 32.9071875 -56.1746875 32.9071875 -54.3125 32.8125 C-48.75568526 32.229432 -43.94557297 30.19714806 -38.8203125 28.05859375 C-36 27 -36 27 -33 27 C-32.505 25.515 -32.505 25.515 -32 24 C-29.56640625 22.61328125 -29.56640625 22.61328125 -26.5625 21.3125 C-25.57378906 20.87550781 -24.58507813 20.43851562 -23.56640625 19.98828125 C-21 19 -21 19 -19 19 C-19 17.68 -19 16.36 -19 15 C-17.68 15 -16.36 15 -15 15 C-14.34 13.68 -13.68 12.36 -13 11 C-11.68 11 -10.36 11 -9 11 C-9 10.34 -9 9.68 -9 9 C-8.02149805 7.97895449 -7.02019573 6.9793879 -6 6 C-5.67 5.34 -5.34 4.68 -5 4 C-4.01 4 -3.02 4 -2 4 C-1.34 2.68 -0.68 1.36 0 0 Z " fill="#1B5FD9" transform="translate(1546,340)"/>
<path d="M0 0 C0.66 0.33 1.32 0.66 2 1 C1.73445313 1.84820312 1.46890625 2.69640625 1.1953125 3.5703125 C-5.85204615 26.97577372 -6.59740292 50.92852938 3.8515625 73.45703125 C5.11331125 76.25090349 6.0708953 79.0805655 7 82 C6.01 82 5.02 82 4 82 C1.81668822 77.33888322 -0.04762248 73.07934676 -1 68 C-1.66 67.67 -2.32 67.34 -3 67 C-3 64.36 -3 61.72 -3 59 C-3.66 59 -4.32 59 -5 59 C-5.95165334 51.31740449 -6.15192299 43.73587344 -6.125 36 C-6.12886719 34.88882813 -6.13273437 33.77765625 -6.13671875 32.6328125 C-6.12570495 23.27108578 -6.05752711 14.60019354 -2.4375 5.875 C-1.98246094 4.75867188 -1.52742188 3.64234375 -1.05859375 2.4921875 C-0.70925781 1.66976562 -0.35992188 0.84734375 0 0 Z " fill="#DCF6FF" transform="translate(1372,137)"/>
<path d="M0 0 C-20.62903871 11.53237827 -52.25981512 7.22647851 -75 7 C-75 6.34 -75 5.68 -75 5 C-74.01193359 4.97494385 -73.02386719 4.9498877 -72.00585938 4.92407227 C-68.30815676 4.82925282 -64.61060975 4.72922025 -60.91308594 4.62768555 C-59.31872216 4.58461643 -57.72432053 4.54292424 -56.12988281 4.50268555 C-53.82605625 4.44429695 -51.52241541 4.38080789 -49.21875 4.31640625 C-48.16512268 4.29133751 -48.16512268 4.29133751 -47.09020996 4.26576233 C-42.33459504 4.12629518 -37.71716276 3.61891419 -33 3 C-31.44940903 2.89341936 -29.89710052 2.8067643 -28.34375 2.75390625 C-27.15072266 2.70459961 -27.15072266 2.70459961 -25.93359375 2.65429688 C-24.31134036 2.59310433 -22.68893517 2.53581167 -21.06640625 2.48242188 C-13.89660978 2.17448086 -7.13104023 -0.35655201 0 0 Z " fill="#2867D5" transform="translate(1258,304)"/>
<path d="M0 0 C5.95498484 -0.05014237 11.90984174 -0.08606363 17.86499023 -0.10986328 C19.88291571 -0.11980459 21.90082724 -0.13336235 23.91870117 -0.15087891 C39.89511789 -0.28590207 55.35991554 0.38779376 71 4 C71 4.33 71 4.66 71 5 C70.32573975 4.94465088 69.65147949 4.88930176 68.95678711 4.83227539 C56.47268469 3.83242353 44.01800785 2.99180331 31.49609375 2.71484375 C30.61398727 2.69527115 29.7318808 2.67569855 28.82304382 2.65553284 C24.43675463 2.56307331 20.0506901 2.4881215 15.66381836 2.42993164 C14.04410667 2.40128381 12.42439631 2.37256022 10.8046875 2.34375 C10.05904037 2.33854843 9.31339325 2.33334686 8.54515076 2.32798767 C4.82989897 2.2551364 3.17215273 2.11476849 0 0 Z " fill="#2C67D2" transform="translate(1186,80)"/>
<path d="M0 0 C2 2 2 2 2.24291992 4.67382812 C2.23675659 6.33575195 2.23675659 6.33575195 2.23046875 8.03125 C2.22853516 9.23394531 2.22660156 10.43664062 2.22460938 11.67578125 C2.20624023 13.56876953 2.20624023 13.56876953 2.1875 15.5 C2.18685547 16.76199219 2.18621094 18.02398437 2.18554688 19.32421875 C2.14023184 28.71953632 2.14023184 28.71953632 1 31 C0.92966231 32.87379605 0.9156978 34.75001102 0.9375 36.625 C0.94652344 37.62789062 0.95554688 38.63078125 0.96484375 39.6640625 C0.97644531 40.43492187 0.98804688 41.20578125 1 42 C-0.32 42 -1.64 42 -3 42 C-3.31904297 43.08087891 -3.31904297 43.08087891 -3.64453125 44.18359375 C-5.33166836 47.68914377 -7.70233598 49.69468904 -10.6875 52.0625 C-11.22697266 52.49860596 -11.76644531 52.93471191 -12.32226562 53.3840332 C-16.06813827 56.36712836 -19.6099788 59.07936572 -24 61 C-26.1875 60.58203125 -26.1875 60.58203125 -28 60 C-27.3709375 59.72027344 -26.741875 59.44054687 -26.09375 59.15234375 C-15.1829523 54.04201531 -7.7042909 47.27138247 -2.7421875 36.19140625 C1.34419404 24.51807156 0.37345783 12.19483455 0 0 Z " fill="#2160D3" transform="translate(198,179)"/>
<path d="M0 0 C1.21880859 -0.01224609 2.43761719 -0.02449219 3.69335938 -0.03710938 C4.86833984 -0.03904297 6.04332031 -0.04097656 7.25390625 -0.04296875 C8.32068604 -0.04707764 9.38746582 -0.05118652 10.48657227 -0.05541992 C13.53704071 0.19569418 15.66744568 0.92876038 18.4375 2.1875 C19.365625 2.47625 20.29375 2.765 21.25 3.0625 C25.16552096 4.44444857 28.76322598 6.26643287 32.4375 8.1875 C30.4375 9.1875 30.4375 9.1875 27.20703125 8.2265625 C25.88544682 7.76247433 24.56651806 7.29077129 23.25 6.8125 C13.61560349 3.32302704 4.70510272 3.05543192 -5.5 3.125 C-6.75619141 3.12951172 -8.01238281 3.13402344 -9.30664062 3.13867188 C-12.39194771 3.15040308 -15.47723012 3.16833683 -18.5625 3.1875 C-18.8925 7.8075 -19.2225 12.4275 -19.5625 17.1875 C-19.8925 17.1875 -20.2225 17.1875 -20.5625 17.1875 C-20.58951408 15.08340361 -20.60890223 12.97920822 -20.625 10.875 C-20.63660156 9.70324219 -20.64820313 8.53148437 -20.66015625 7.32421875 C-20.5625 4.1875 -20.5625 4.1875 -19.5625 1.1875 C-13.0216599 -0.04147427 -6.63588188 0.00352036 0 0 Z " fill="#105ADC" transform="translate(1201.5625,142.8125)"/>
<path d="M0 0 C0.33 0 0.66 0 1 0 C1.05849554 3.20825562 1.09376162 6.41637233 1.125 9.625 C1.14175781 10.52863281 1.15851563 11.43226563 1.17578125 12.36328125 C1.21238705 17.37827605 0.8355855 21.26795828 -1 26 C-1.24039076 27.57617035 -1.43372102 29.16081258 -1.5625 30.75 C-1.9 34.8 -1.9 34.8 -3 37 C-3.66 37 -4.32 37 -5 37 C-5.33 37.99 -5.66 38.98 -6 40 C-7.7421875 41.75390625 -7.7421875 41.75390625 -9.875 43.5625 C-10.57367187 44.16191406 -11.27234375 44.76132813 -11.9921875 45.37890625 C-15.56022638 48.25971586 -17.43924489 49.2465273 -22 49 C-20.13740395 47.05979578 -18.26339297 45.21127479 -16.1640625 43.52734375 C-8.02880859 36.93498282 -2.76982817 28.38123091 -1 18 C-0.41707366 12.01369248 -0.18984483 6.00957077 0 0 Z " fill="#296ADC" transform="translate(1257,188)"/>
<path d="M0 0 C0.33 0 0.66 0 1 0 C1.86583679 6.69001228 2.13390938 13.20012707 2.09765625 19.94140625 C2.0962413 20.94968979 2.09482635 21.95797333 2.09336853 22.99681091 C2.08781605 26.18540542 2.07527261 29.37392708 2.0625 32.5625 C2.05747885 34.73762919 2.05291702 36.91275949 2.04882812 39.08789062 C2.03786223 44.39195151 2.02117214 49.69597055 2 55 C-1.4690385 55.96470453 -4.15452847 55.94772909 -7.75 55.5625 C-8.73484375 55.46066406 -9.7196875 55.35882813 -10.734375 55.25390625 C-11.48203125 55.17011719 -12.2296875 55.08632812 -13 55 C-13 54.34 -13 53.68 -13 53 C-14.98 52.67 -16.96 52.34 -19 52 C-19 51.67 -19 51.34 -19 51 C-17.54107996 51.11795524 -16.08288823 51.24491151 -14.625 51.375 C-13.81289062 51.44460937 -13.00078125 51.51421875 -12.1640625 51.5859375 C-7.7299921 52.16619856 -3.37582704 53.08617698 1 54 C0.95456055 53.14510986 0.95456055 53.14510986 0.90820312 52.27294922 C0.01129809 34.83504549 -0.11672277 17.4545429 0 0 Z " fill="#C4E3FE" transform="translate(1537,98)"/>
<path d="M0 0 C0.66 0 1.32 0 2 0 C1.43765009 4.99181838 -0.18320637 9.06523502 -2.4375 13.5 C-2.78949463 14.19561035 -3.14148926 14.8912207 -3.50415039 15.60791016 C-9.25271821 26.63424172 -16.88930007 37.47835394 -26 46 C-26.66 46 -27.32 46 -28 46 C-28 44.35 -28 42.7 -28 41 C-26.68 41.33 -25.36 41.66 -24 42 C-24.33 40.68 -24.66 39.36 -25 38 C-23.948125 37.7525 -23.948125 37.7525 -22.875 37.5 C-18.75624474 35.35108421 -16.22623032 32.05464628 -14 28 C-14 26.68 -14 25.36 -14 24 C-13.01 24 -12.02 24 -11 24 C-11 23.34 -11 22.68 -11 22 C-10.34 22 -9.68 22 -9 22 C-9 20.68 -9 19.36 -9 18 C-7.5625 16.4375 -7.5625 16.4375 -6 15 C-5.67 14.01 -5.34 13.02 -5 12 C-4.34 12 -3.68 12 -3 12 C-2.86722656 11.30132812 -2.73445313 10.60265625 -2.59765625 9.8828125 C-2.42105469 8.97273437 -2.24445313 8.06265625 -2.0625 7.125 C-1.88847656 6.22007812 -1.71445312 5.31515625 -1.53515625 4.3828125 C-1 2 -1 2 0 0 Z " fill="#215FCF" transform="translate(272,234)"/>
<path d="M0 0 C1.65 0 3.3 0 5 0 C6.19388403 51.15920082 6.19388403 51.15920082 6 71 C2.7 70.67 -0.6 70.34 -4 70 C-4 69.67 -4 69.34 -4 69 C-1.36 69 1.28 69 4 69 C4 46.56 4 24.12 4 1 C2.68 0.67 1.36 0.34 0 0 Z " fill="#2460C6" transform="translate(1532,81)"/>
<path d="M0 0 C0.66 1.32 1.32 2.64 2 4 C1.01 4.495 1.01 4.495 0 5 C0.33 6.32 0.66 7.64 1 9 C0.1028125 9.3403125 0.1028125 9.3403125 -0.8125 9.6875 C-3.58532489 11.35119494 -4.43300136 13.20665459 -6 16 C-7.65089794 17.84900569 -8.7819772 18.8909886 -11 20 C-11.309375 20.66 -11.61875 21.32 -11.9375 22 C-13 24 -13 24 -16 25 C-17.35386936 26.65002828 -18.68678142 28.3174387 -20 30 C-20.99 30.66 -21.98 31.32 -23 32 C-23.99 31.67 -24.98 31.34 -26 31 C-25.24976563 30.35675781 -24.49953125 29.71351563 -23.7265625 29.05078125 C-14.02098737 20.55043195 -6.26963433 11.34233848 0 0 Z " fill="#E2F6FE" transform="translate(1324,253)"/>
<path d="M0 0 C0 0.33 0 0.66 0 1 C-2.74898737 1.48565444 -5.49898666 1.96356741 -8.25 2.4375 C-9.00796875 2.57220703 -9.7659375 2.70691406 -10.546875 2.84570312 C-23.43782282 5.04790671 -36.21619057 5.12898623 -49.25 5.0625 C-50.97786328 5.05747243 -52.70572798 5.05291176 -54.43359375 5.04882812 C-58.62243168 5.03792797 -62.81119967 5.02073348 -67 5 C-67 4.67 -67 4.34 -67 4 C-65.68281982 3.94465088 -64.36563965 3.88930176 -63.00854492 3.83227539 C-58.12749235 3.62602658 -53.2467002 3.41409725 -48.3659668 3.20043945 C-46.25242691 3.10871582 -44.13881933 3.01853848 -42.02514648 2.92993164 C-38.98922969 2.80239606 -35.95359875 2.66932453 -32.91796875 2.53515625 C-31.97100632 2.49656998 -31.02404388 2.4579837 -30.04838562 2.41822815 C-28.72735588 2.35827919 -28.72735588 2.35827919 -27.37963867 2.29711914 C-26.60464523 2.26380997 -25.82965179 2.23050079 -25.03117371 2.19618225 C-22.79804629 2.05688111 -22.79804629 2.05688111 -20 1 C-13.35342355 0.27246933 -6.68581046 -0.15548396 0 0 Z " fill="#326DD2" transform="translate(192,306)"/>
<path d="M0 0 C0.33 0 0.66 0 1 0 C3.49284297 21.23649767 1.69825125 40.49467081 -4.5625 60.88671875 C-4.79066406 61.63139404 -5.01882813 62.37606934 -5.25390625 63.14331055 C-6 65 -6 65 -8 67 C-7.67 64.03 -7.34 61.06 -7 58 C-6.34 58 -5.68 58 -5 58 C-4.87625 57.071875 -4.7525 56.14375 -4.625 55.1875 C-3.90250844 50.09864643 -2.94099095 45.05211646 -2 40 C-1.34 40 -0.68 40 0 40 C0 26.8 0 13.6 0 0 Z " fill="#2A63C8" transform="translate(1338,173)"/>
<path d="M0 0 C17.30192647 2.78066675 32.22344318 12.41196009 45 24 C43.68 24.33 42.36 24.66 41 25 C40.443125 24.21625 39.88625 23.4325 39.3125 22.625 C36.92331435 19.91295142 35.39926587 19.03866457 32 18 C32 17.01 32 16.02 32 15 C30.906875 14.731875 29.81375 14.46375 28.6875 14.1875 C24.99761963 12.99923344 24.5219708 12.52819789 22 10 C14.99501967 6.01236762 7.95147277 4.03046165 0 3 C0 2.01 0 1.02 0 0 Z " fill="#2361D4" transform="translate(204,86)"/>
<path d="M0 0 C0 0.66 0 1.32 0 2 C-1.61798111 2.80591454 -3.24492814 3.59382983 -4.875 4.375 C-6.23238281 5.03628906 -6.23238281 5.03628906 -7.6171875 5.7109375 C-16.70593369 9.17431653 -25.76783406 9.28914987 -35.37133789 9.20581055 C-37.58946956 9.18727463 -39.80718872 9.1853033 -42.02539062 9.18554688 C-52.85214008 9.14785992 -52.85214008 9.14785992 -54 8 C-54.04063832 6.33382885 -54.042721 4.66611905 -54 3 C-52 6 -52 6 -52 8 C-28.04463569 7.83695481 -28.04463569 7.83695481 -5.16796875 1.3671875 C-2 0 -2 0 0 0 Z " fill="#2563CC" transform="translate(1235,237)"/>
<path d="M0 0 C2.06269776 0.26932306 4.12513862 0.54061313 6.1875 0.8125 C7.1772583 0.94289673 7.1772583 0.94289673 8.18701172 1.07592773 C12.20085523 1.61021715 16.20919974 2.17285162 20.21484375 2.765625 C29.80615105 4.18147638 39.31061697 5.47867884 49 6 C49 6.33 49 6.66 49 7 C45.33340185 7.05864392 41.66692636 7.09381108 38 7.125 C36.45505859 7.15013672 36.45505859 7.15013672 34.87890625 7.17578125 C28.82621167 7.21433344 23.81636871 6.61669035 18 5 C14.67926293 4.70290121 11.3817855 4.56507228 8.05078125 4.44140625 C4.69380706 3.95569808 2.72900049 2.97966455 0 1 C0 0.67 0 0.34 0 0 Z " fill="#DEF7FE" transform="translate(1375,373)"/>
<path d="M0 0 C1.32 0 2.64 0 4 0 C4 0.66 4 1.32 4 2 C5.32 2 6.64 2 8 2 C8 2.66 8 3.32 8 4 C11.63 4.33 15.26 4.66 19 5 C19 5.66 19 6.32 19 7 C20.58298026 7.4803318 22.16639978 7.95921612 23.75 8.4375 C24.63171875 8.70433594 25.5134375 8.97117188 26.421875 9.24609375 C28.60565835 9.88468494 30.78835498 10.46775833 33 11 C33 11.66 33 12.32 33 13 C33.969375 13.12375 34.93875 13.2475 35.9375 13.375 C36.948125 13.58125 37.95875 13.7875 39 14 C39.495 14.99 39.495 14.99 40 16 C33.14794605 15.03908421 27.01700416 12.59888344 20.5625 10.1875 C19.36044922 9.74857422 18.15839844 9.30964844 16.91992188 8.85742188 C10.95890417 6.64464476 5.38151906 4.40010556 0 1 C0 0.67 0 0.34 0 0 Z " fill="#2764D1" transform="translate(1404,242)"/>
<path d="M0 0 C6.3392095 4.78675003 10.05592018 10.14716131 14 17 C14.391875 17.65871094 14.78375 18.31742188 15.1875 18.99609375 C18.57284225 25.14525057 20.53723426 32.16179452 22 39 C21.67 39.66 21.34 40.32 21 41 C18 34.375 18 34.375 18 31 C17.34 31 16.68 31 16 31 C15.9175 29.96875 15.835 28.9375 15.75 27.875 C14.92710017 23.62335086 13.42621728 21.52904331 11 18 C10.1501305 15.68046668 9.57806766 13.40861524 9 11 C8.34 11 7.68 11 7 11 C5.63636792 9.02053408 4.30581356 7.0180755 3 5 C2.4225 4.4225 1.845 3.845 1.25 3.25 C0.8375 2.8375 0.425 2.425 0 2 C0 1.34 0 0.68 0 0 Z " fill="#2B65CD" transform="translate(1543,223)"/>
<path d="M0 0 C-1.49234782 4.46036918 -3.94768716 7.89604586 -6.8125 11.5625 C-7.23853516 12.12646484 -7.66457031 12.69042969 -8.10351562 13.27148438 C-10.75696669 16.70370927 -13.47460201 19.41133254 -17 22 C-17 18 -17 18 -15.6875 16.25 C-14 15 -14 15 -11 15 C-11 13.35 -11 11.7 -11 10 C-9.68 10 -8.36 10 -7 10 C-7.3403125 8.3603125 -7.3403125 8.3603125 -7.6875 6.6875 C-8 3 -8 3 -6.875 1.0625 C-4.46420662 -0.30361625 -2.72705554 -0.22111261 0 0 Z " fill="#1D60D9" transform="translate(1322,256)"/>
<path d="M0 0 C2.8020753 1.40103765 3.0137578 2.83607602 4.125 5.75 C8.01763591 17.92359919 7.67821456 33.109538 3 45 C1.86125816 41.52192588 2.09841704 38.74841044 2.55859375 35.140625 C2.69716797 34.02558594 2.83574219 32.91054687 2.97851562 31.76171875 C3.12998047 30.60285156 3.28144531 29.44398438 3.4375 28.25 C3.58509766 27.07566406 3.73269531 25.90132812 3.88476562 24.69140625 C4.24996477 21.79337432 4.62194968 18.8963788 5 16 C4.34 16 3.68 16 3 16 C3 13.03 3 10.06 3 7 C2.34 7 1.68 7 1 7 C0.67 4.69 0.34 2.38 0 0 Z " fill="#D1EEFD" transform="translate(193,170)"/>
<path d="M0 0 C0.99 0.495 0.99 0.495 2 1 C4.36782601 9.08391369 4.67699989 17.89517337 5.3125 26.25 C5.42400391 27.4771875 5.53550781 28.704375 5.65039062 29.96875 C6.15179275 36.54031826 6.36886946 41.23454239 3 47 C2.67 47 2.34 47 2 47 C2.01047363 46.18023682 2.02094727 45.36047363 2.03173828 44.51586914 C2.31391081 22.18449883 2.31391081 22.18449883 0 0 Z " fill="#CEEDFD" transform="translate(1337,166)"/>
<path d="M0 0 C0.66 0 1.32 0 2 0 C2.05016131 4.46165577 2.08607179 8.92315374 2.10986328 13.38500977 C2.11980161 14.89675767 2.13335698 16.40848699 2.15087891 17.92016602 C2.37792295 38.04027473 2.37792295 38.04027473 0 46 C-0.99 46.66 -1.98 47.32 -3 48 C-2.7834375 47.04867187 -2.566875 46.09734375 -2.34375 45.1171875 C0.73571351 30.15351988 0.2930875 15.19545963 0 0 Z " fill="#E2F9FF" transform="translate(281,176)"/>
<path d="M0 0 C-1.65 0.33 -3.3 0.66 -5 1 C-5 1.66 -5 2.32 -5 3 C-16.35429868 3.95043457 -27.61076383 4.11033706 -39 4 C-39 3.34 -39 2.68 -39 2 C-38.22398438 1.98018066 -37.44796875 1.96036133 -36.6484375 1.93994141 C-33.09864413 1.84410122 -29.54939219 1.73466196 -26 1.625 C-24.77925781 1.5940625 -23.55851563 1.563125 -22.30078125 1.53125 C-14.75701547 1.31407759 -14.75701547 1.31407759 -7.375 -0.1015625 C-4.06434894 -0.98287007 -3.09901542 -0.96336751 0 0 Z " fill="#2260D0" transform="translate(164,243)"/>
<path d="M0 0 C0 4.0333534 -1.60879918 5.83517538 -4 9 C-4.66 9 -5.32 9 -6 9 C-7.24076077 10.50197356 -8.47921817 12.00612315 -9.69140625 13.53125 C-11.25534961 15.28660135 -12.80260134 16.18614864 -15 17 C-15.33 16.34 -15.66 15.68 -16 15 C-16.99 14.67 -17.98 14.34 -19 14 C-18.13117188 13.40832031 -17.26234375 12.81664062 -16.3671875 12.20703125 C-15.20301726 11.40901132 -14.03896084 10.61082532 -12.875 9.8125 C-12.30523437 9.42513672 -11.73546875 9.03777344 -11.1484375 8.63867188 C-7.24264023 5.95343625 -3.60178783 3.08177287 0 0 Z " fill="#DCF3FD" transform="translate(247,278)"/>
<path d="M0 0 C2.60693359 -0.29638672 2.60693359 -0.29638672 5.8984375 -0.1796875 C7.70248047 -0.1178125 7.70248047 -0.1178125 9.54296875 -0.0546875 C10.80753906 0.00460938 12.07210937 0.06390625 13.375 0.125 C15.21384766 0.17914063 15.21384766 0.17914063 17.08984375 0.234375 C25.45778309 0.57157722 34.37926103 1.18963052 42 5 C41.67 5.66 41.34 6.32 41 7 C40.07445312 6.71125 39.14890625 6.4225 38.1953125 6.125 C24.8556229 2.32285806 11.77727568 2.58688829 -2 3 C-1.34 2.01 -0.68 1.02 0 0 Z " fill="#1E5DD0" transform="translate(128,143)"/>
<path d="M0 0 C7.00388633 5.21566003 11.27786128 11.78294445 16 19 C15.67 19.66 15.34 20.32 15 21 C14.34 20.01 13.68 19.02 13 18 C10.41619823 17.74969023 10.41619823 17.74969023 8 18 C7.67 15.36 7.34 12.72 7 10 C5.02 10 3.04 10 1 10 C1 9.34 1 8.68 1 8 C1.66 8 2.32 8 3 8 C2.37063561 5.06296616 1.37579827 2.66211372 0 0 Z " fill="#1A5DDC" transform="translate(1308,112)"/>
<path d="M0 0 C0.66 0.33 1.32 0.66 2 1 C-4.99314903 4.86680005 -11.99291222 7.85789507 -19.5625 10.375 C-20.34802246 10.63748535 -21.13354492 10.8999707 -21.94287109 11.17041016 C-25.05946988 12.17949784 -27.70360937 13 -31 13 C-30.67 12.01 -30.34 11.02 -30 10 C-28.989375 9.87625 -27.97875 9.7525 -26.9375 9.625 C-23.1629219 9.02586062 -19.66109403 8.07679236 -16 7 C-15.34 7 -14.68 7 -14 7 C-13.67 6.01 -13.34 5.02 -13 4 C-11.07421875 3.33984375 -11.07421875 3.33984375 -8.6875 2.9375 C-6.11993114 2.49188888 -4.15612672 2.0807358 -1.83203125 0.87890625 C-1.22746094 0.58886719 -0.62289062 0.29882812 0 0 Z " fill="#1D5DD4" transform="translate(224,293)"/>
<path d="M0 0 C0.33 0 0.66 0 1 0 C1.30292969 1.25554687 1.60585937 2.51109375 1.91796875 3.8046875 C4.87757013 15.93336784 4.87757013 15.93336784 10.1796875 27.1875 C11 29 11 29 10 32 C6.01232544 28.7718825 4.39914264 24.04006237 3.4375 19.125 C3.2209375 18.073125 3.2209375 18.073125 3 17 C2.34 16.67 1.68 16.34 1 16 C0.68758545 13.28553021 0.48663408 10.66090639 0.375 7.9375 C0.33632812 7.17888672 0.29765625 6.42027344 0.2578125 5.63867188 C0.16326438 3.75952805 0.08053244 1.87979664 0 0 Z " fill="#CDE9FC" transform="translate(1368,188)"/>
<path d="M0 0 C14.52 0 29.04 0 44 0 C44 0.66 44 1.32 44 2 C45.98 2 47.96 2 50 2 C50 2.33 50 2.66 50 3 C49.15566406 2.93941406 48.31132812 2.87882812 47.44140625 2.81640625 C31.64544831 1.78243116 15.82141255 1.4353233 0 1 C0 0.67 0 0.34 0 0 Z " fill="#E3FBFF" transform="translate(139,79)"/>
<path d="M0 0 C-26.26596583 11.44514545 -26.26596583 11.44514545 -38 11 C-34.77208445 8.8480563 -33.71599191 8.79913557 -30 9 C-30 8.34 -30 7.68 -30 7 C-28.70835938 6.90976562 -27.41671875 6.81953125 -26.0859375 6.7265625 C-20.84794803 6.14593147 -16.43948955 4.43950473 -11.625 2.375 C-10.05831471 1.70756659 -8.48811702 1.04830096 -6.9140625 0.3984375 C-5.8923999 -0.03976318 -5.8923999 -0.03976318 -4.85009766 -0.48681641 C-3 -1 -3 -1 0 0 Z " fill="#2A66CB" transform="translate(1518,366)"/>
<path d="M0 0 C-2.51876293 0.81942948 -5.0397067 1.63065069 -7.5625 2.4375 C-8.26697266 2.66759766 -8.97144531 2.89769531 -9.69726562 3.13476562 C-16.09488142 5.16903055 -22.20075992 6.14566963 -28.9375 6.0625 C-29.89527344 6.05347656 -30.85304688 6.04445313 -31.83984375 6.03515625 C-32.55269531 6.02355469 -33.26554687 6.01195312 -34 6 C-34 5.67 -34 5.34 -34 5 C-26.36773263 3.38195932 -18.87677013 1.86216062 -11.0859375 1.25390625 C-0.20987654 -0.06995885 -0.20987654 -0.06995885 0 0 Z " fill="#CDE9FC" transform="translate(1476,304)"/>
<path d="M0 0 C0.33 0 0.66 0 1 0 C1.03738281 0.6290625 1.07476563 1.258125 1.11328125 1.90625 C1.49703782 6.90261008 2.1866954 11.17306896 4.11328125 15.796875 C5.21446597 18.53285819 6.09757146 21.31744456 7 24.125 C8.08116312 27.43110498 9.16669675 30.55884601 10.8125 33.625 C11.204375 34.40875 11.59625 35.1925 12 36 C11.67 36.66 11.34 37.32 11 38 C4.32077319 25.35547799 -0.76479282 14.64436622 0 0 Z " fill="#1D5BD0" transform="translate(1369,182)"/>
<path d="M0 0 C7.12632789 0.38628693 13.35132728 1.38849729 20 4 C21.010625 4.391875 22.02125 4.78375 23.0625 5.1875 C23.701875 5.455625 24.34125 5.72375 25 6 C25 6.66 25 7.32 25 8 C25.99 8.33 26.98 8.66 28 9 C26 10 26 10 23.38623047 9.28735352 C22.30744629 8.90506592 21.22866211 8.52277832 20.1171875 8.12890625 C18.95058594 7.71962891 17.78398438 7.31035156 16.58203125 6.88867188 C15.35871094 6.45103516 14.13539062 6.01339844 12.875 5.5625 C11.02841797 4.9118457 11.02841797 4.9118457 9.14453125 4.24804688 C6.09391626 3.17205477 3.04595357 2.08910366 0 1 C0 0.67 0 0.34 0 0 Z " fill="#D5EFFC" transform="translate(1457,185)"/>
<path d="M0 0 C1.81411114 4.80739453 -0.43787459 8.21986567 -2.39453125 12.67578125 C-9.41208366 27.20604183 -9.41208366 27.20604183 -13 29 C-13 27.35 -13 25.7 -13 24 C-12.01 24 -11.02 24 -10 24 C-9.34 21.36 -8.68 18.72 -8 16 C-7.34 16 -6.68 16 -6 16 C-6 14.35 -6 12.7 -6 11 C-5.01 10.67 -4.02 10.34 -3 10 C-1.97299556 7.67108904 -1.97299556 7.67108904 -1.3125 4.9375 C-1.06113281 4.01839844 -0.80976562 3.09929687 -0.55078125 2.15234375 C-0.36902344 1.44207031 -0.18726563 0.73179687 0 0 Z " fill="#2161D4" transform="translate(1561,311)"/>
<path d="M0 0 C3.22793788 0.70694507 4.93804095 1.31945323 7 4 C7 4.99 7 5.98 7 7 C7.66 7.66 8.32 8.32 9 9 C9.74222653 10.12417522 10.44857479 11.27254546 11.125 12.4375 C11.47820312 13.03433594 11.83140625 13.63117188 12.1953125 14.24609375 C13 16 13 16 13 19 C13.99 19.33 14.98 19.66 16 20 C16.33 22.31 16.66 24.62 17 27 C16.34 27 15.68 27 15 27 C14.50371094 25.97261719 14.00742188 24.94523437 13.49609375 23.88671875 C9.43782052 15.57730385 5.19737659 7.66613047 0 0 Z " fill="#D3EDFD" transform="translate(1316,120)"/>
<path d="M0 0 C2.15030168 3.22545253 3.34529505 6.42170876 4.5625 10.0625 C4.78574951 10.72773682 5.00899902 11.39297363 5.23901367 12.07836914 C6.93731678 17.35144441 7.85623965 22.44562278 8 28 C5.10955431 24.70698528 4.29954467 21.82346366 3.4375 17.5625 C2.77591865 14.33682371 2.14236709 11.35566075 0.91796875 8.296875 C-0.22514767 5.43665178 -0.14189709 3.05078736 0 0 Z " fill="#2C6AD5" transform="translate(1330,144)"/>
<path d="M0 0 C1.32 0.33 2.64 0.66 4 1 C-3.40212482 7.56640105 -11.09645037 11.89461689 -20 16 C-19.67 15.01 -19.34 14.02 -19 13 C-18.01 13 -17.02 13 -16 13 C-16 12.34 -16 11.68 -16 11 C-15.01 11 -14.02 11 -13 11 C-13 10.34 -13 9.68 -13 9 C-11.865625 8.566875 -10.73125 8.13375 -9.5625 7.6875 C-8.386875 7.130625 -7.21125 6.57375 -6 6 C-5.67 5.01 -5.34 4.02 -5 3 C-3.35 2.67 -1.7 2.34 0 2 C0 1.34 0 0.68 0 0 Z " fill="#2363D0" transform="translate(1296,282)"/>
<path d="M0 0 C3.3 0.33 6.6 0.66 10 1 C10 1.66 10 2.32 10 3 C12.64 3 15.28 3 18 3 C18.20625 3.639375 18.4125 4.27875 18.625 4.9375 C19.87885291 7.34069672 19.87885291 7.34069672 23 7.625 C23.99 7.74875 24.98 7.8725 26 8 C26.66 8.66 27.32 9.32 28 10 C21.37105659 8.67554915 15.24709958 6.78331885 8.9375 4.375 C8.07189453 4.05015625 7.20628906 3.7253125 6.31445312 3.390625 C4.20755504 2.59908318 2.10287198 1.80216278 0 1 C0 0.67 0 0.34 0 0 Z " fill="#1B5FD5" transform="translate(1444,258)"/>
<path d="M0 0 C0 0.33 0 0.66 0 1 C-3.57350041 1.81898622 -6.85659479 2.11811958 -10.51953125 2.09765625 C-11.54111328 2.09443359 -12.56269531 2.09121094 -13.61523438 2.08789062 C-14.67033203 2.07951172 -15.72542969 2.07113281 -16.8125 2.0625 C-17.88693359 2.05798828 -18.96136719 2.05347656 -20.06835938 2.04882812 C-22.71229683 2.03707729 -25.35611952 2.02064787 -28 2 C-28 1.34 -28 0.68 -28 0 C-8.78301887 -1.8490566 -8.78301887 -1.8490566 0 0 Z " fill="#E9FEFE" transform="translate(1214,243)"/>
<path d="M0 0 C2.10464793 0.30924214 4.2087053 0.6225056 6.3125 0.9375 C7.48425781 1.11152344 8.65601563 1.28554688 9.86328125 1.46484375 C13 2 13 2 16 3 C16 3.66 16 4.32 16 5 C17.2375 4.938125 18.475 4.87625 19.75 4.8125 C22.78211302 4.79637174 23.82248296 4.89348977 26.5 6.5 C26.995 6.995 27.49 7.49 28 8 C21.40474547 7.42100187 15.3108382 6.20265263 8.9375 4.4375 C8.07189453 4.20353516 7.20628906 3.96957031 6.31445312 3.72851562 C4.20802305 3.1582666 2.10377111 2.57998166 0 2 C0 1.34 0 0.68 0 0 Z " fill="#CFEBFC" transform="translate(1373,299)"/>
<path d="M0 0 C6.80743997 3.98513835 12.22511913 7.67650911 17 14 C13.01781501 13.72217314 11.25090158 13.20726652 8.125 10.625 C6 8 6 8 6 5 C5.195625 4.731875 4.39125 4.46375 3.5625 4.1875 C2.716875 3.795625 1.87125 3.40375 1 3 C0.67 2.01 0.34 1.02 0 0 Z " fill="#175CDA" transform="translate(1291,98)"/>
<path d="M0 0 C0 0.66 0 1.32 0 2 C-18.82004556 4.29612756 -18.82004556 4.29612756 -28 4 C-28 3.67 -28 3.34 -28 3 C-24.46147669 2.29561747 -20.91884782 1.61454028 -17.375 0.9375 C-15.87646484 0.63875977 -15.87646484 0.63875977 -14.34765625 0.33398438 C-9.28899573 -0.62079592 -5.07894431 -1.37807533 0 0 Z " fill="#D0ECFC" transform="translate(202,306)"/>
<path d="M0 0 C0.33 0 0.66 0 1 0 C1.64323227 8.07613852 -0.1082716 14.48666996 -3 22 C-3.33 22 -3.66 22 -4 22 C-3.88501733 19.79112243 -3.75756495 17.58289213 -3.625 15.375 C-3.55539062 14.14523438 -3.48578125 12.91546875 -3.4140625 11.6484375 C-2.93382694 7.41692794 -1.9024764 3.80495279 0 0 Z " fill="#195DDE" transform="translate(278,212)"/>
<path d="M0 0 C1 3 1 3 -0.0625 5.375 C-2.34552654 8.46813273 -5.04939383 10.55162467 -8 13 C-9.37254588 15.14980497 -9.37254588 15.14980497 -10 17 C-10.66 17 -11.32 17 -12 17 C-10.60827683 12.9625531 -8.70711315 10.10184153 -6 6.8125 C-5.29875 5.95269531 -4.5975 5.09289062 -3.875 4.20703125 C-2 2 -2 2 0 0 Z " fill="#1C5FDC" transform="translate(1395,104)"/>
<path d="M0 0 C1.65 0 3.3 0 5 0 C1.53726925 2.86134241 -2.00686276 5.36574534 -5.8125 7.75 C-6.78832031 8.36359375 -7.76414062 8.9771875 -8.76953125 9.609375 C-9.50558594 10.06828125 -10.24164062 10.5271875 -11 11 C-11.66 9.68 -12.32 8.36 -13 7 C-10.35067987 4.82377275 -8.37226046 3.61313827 -5 3 C-4.0925 2.814375 -3.185 2.62875 -2.25 2.4375 C-1.5075 2.293125 -0.765 2.14875 0 2 C0 1.34 0 0.68 0 0 Z " fill="#DFF4FE" transform="translate(1414,87)"/>
<path d="M0 0 C7.9300621 2.91630907 15.40685383 7.63538539 21 14 C18.03 13.505 18.03 13.505 15 13 C15 12.01 15 11.02 15 10 C14.236875 9.896875 13.47375 9.79375 12.6875 9.6875 C9.65089843 8.91069495 9.11526813 8.19662459 7 6 C4.71231643 4.57084038 2.36809857 3.29575205 0 2 C0 1.34 0 0.68 0 0 Z " fill="#2261CD" transform="translate(1522,209)"/>
<path d="M0 0 C0.33 0 0.66 0 1 0 C1 2.64 1 5.28 1 8 C-2.41139003 9.09651823 -5.20655581 8.94215473 -8.75 8.5625 C-9.73484375 8.46066406 -10.7196875 8.35882813 -11.734375 8.25390625 C-12.48203125 8.17011719 -13.2296875 8.08632812 -14 8 C-14 7.34 -14 6.68 -14 6 C-16.97 5.505 -16.97 5.505 -20 5 C-20 4.67 -20 4.34 -20 4 C-13.2142064 4.54863863 -6.64990964 5.54267938 0 7 C0 4.69 0 2.38 0 0 Z " fill="#D7F1FD" transform="translate(1538,145)"/>
<path d="M0 0 C0.66 0.33 1.32 0.66 2 1 C-0.75 5.875 -0.75 5.875 -3 7 C-3 7.66 -3 8.32 -3 9 C-6.3 9 -9.6 9 -13 9 C-9.00302635 5.62755348 -4.72909821 2.28625278 0 0 Z " fill="#D7F1FD" transform="translate(1529,358)"/>
<path d="M0 0 C0.33 0 0.66 0 1 0 C1.99390182 4.96950912 2.25593933 8.38069565 0 13 C-2.125 14.375 -2.125 14.375 -4 15 C-4 15.66 -4 16.32 -4 17 C-4.66 17 -5.32 17 -6 17 C-4.13236819 11.27789404 -2.14710968 5.62338249 0 0 Z " fill="#D7EFFB" transform="translate(1333,232)"/>
<path d="M0 0 C0.33 0 0.66 0 1 0 C1.33149066 6.89914937 0.3599425 12.10454923 -2 18.5625 C-2.28617188 19.38041016 -2.57234375 20.19832031 -2.8671875 21.04101562 C-3.5656909 23.0317503 -4.28107871 25.01654752 -5 27 C-5.33 27 -5.66 27 -6 27 C-5.505 22.545 -5.505 22.545 -5 18 C-4.34 18 -3.68 18 -3 18 C-2.87625 17.071875 -2.7525 16.14375 -2.625 15.1875 C-1.90250844 10.09864643 -0.94099095 5.05211646 0 0 Z " fill="#1A5BCE" transform="translate(1336,213)"/>
<path d="M0 0 C19.96810934 -0.3690205 19.96810934 -0.3690205 29 2 C29 2.33 29 2.66 29 3 C19.22209426 3.38767027 9.68243016 2.1929947 0 1 C0 0.67 0 0.34 0 0 Z " fill="#BADCFB" transform="translate(133,145)"/>
<path d="M0 0 C0 0.99 0 1.98 0 3 C-0.66 3 -1.32 3 -2 3 C-2 3.99 -2 4.98 -2 6 C-2.969375 6.28875 -3.93875 6.5775 -4.9375 6.875 C-8.10664203 7.64214682 -8.10664203 7.64214682 -9 10 C-12.1925693 12.12837953 -15.40824827 13.66592079 -19 15 C-13.53716609 8.97204534 -6.73862768 4.49241845 0 0 Z " fill="#2463D0" transform="translate(1415,89)"/>
<path d="M0 0 C-1.71896484 0.59748047 -1.71896484 0.59748047 -3.47265625 1.20703125 C-5.00264898 1.74205938 -6.53259438 2.27722285 -8.0625 2.8125 C-8.81466797 3.07353516 -9.56683594 3.33457031 -10.34179688 3.60351562 C-14.98292683 5.23092483 -19.50177338 7.01074441 -24 9 C-24.33 8.34 -24.66 7.68 -25 7 C-22.25138605 5.8507433 -19.50122016 4.70548659 -16.75 3.5625 C-15.97269531 3.23701172 -15.19539063 2.91152344 -14.39453125 2.57617188 C-13.64042969 2.26357422 -12.88632813 1.95097656 -12.109375 1.62890625 C-11.41811523 1.34088135 -10.72685547 1.05285645 -10.01464844 0.75610352 C-6.24636282 -0.65814522 -3.91400829 -1.25807409 0 0 Z " fill="#2662CE" transform="translate(1442,81)"/>
<path d="M0 0 C0.66 1.32 1.32 2.64 2 4 C1.01 4.33 0.02 4.66 -1 5 C-1 6.65 -1 8.3 -1 10 C-2.97746603 10.73080266 -4.98072489 11.39421747 -7 12 C-7.66 11.67 -8.32 11.34 -9 11 C-6.03 7.37 -3.06 3.74 0 0 Z " fill="#DEF5FC" transform="translate(257,266)"/>
<path d="M0 0 C0.99 0.33 1.98 0.66 3 1 C-1.82221635 6.27429914 -7.61288947 11.30745839 -15 12 C-15 11.34 -15 10.68 -15 10 C-14.46890625 9.74605469 -13.9378125 9.49210938 -13.390625 9.23046875 C-10.3066615 7.72788069 -7.43049859 6.32578272 -4.6875 4.25 C-3 3 -3 3 0 3 C0 2.01 0 1.02 0 0 Z " fill="#D5F0FE" transform="translate(183,228)"/>
<path d="M0 0 C2.9743509 2.86764773 5.57461569 5.87641162 8.125 9.125 C10.0185045 11.5329661 11.83403806 13.83403806 14 16 C11.25851328 15.62952882 9.41406801 15.31412056 7.1875 13.625 C6 12 6 12 6 9 C5.38125 8.814375 4.7625 8.62875 4.125 8.4375 C0.94397134 6.28562767 0.80548053 3.62466237 0 0 Z " fill="#D7F1FD" transform="translate(1379,219)"/>
<path d="M0 0 C0.99 0.33 1.98 0.66 3 1 C2.32453125 1.72445312 1.6490625 2.44890625 0.953125 3.1953125 C-0.38492187 4.64550781 -0.38492187 4.64550781 -1.75 6.125 C-2.63171875 7.07632813 -3.5134375 8.02765625 -4.421875 9.0078125 C-6.92271085 11.91029774 -8.95213096 14.77508474 -11 18 C-11.66 17.01 -12.32 16.02 -13 15 C-12.01 14.67 -11.02 14.34 -10 14 C-8.78130071 11.49552484 -8.78130071 11.49552484 -8 9 C-7.34 9 -6.68 9 -6 9 C-5.71125 8.401875 -5.4225 7.80375 -5.125 7.1875 C-4 5 -4 5 -2 2 C-1.34 2 -0.68 2 0 2 C0 1.34 0 0.68 0 0 Z " fill="#D6F1FE" transform="translate(1394,102)"/>
<path d="M0 0 C0 0.33 0 0.66 0 1 C-8.35178073 0.47662174 -16.6808105 -0.07999551 -25 -1 C-25 -1.33 -25 -1.66 -25 -2 C-15.87157573 -2.96010935 -8.75716633 -2.6271499 0 0 Z " fill="#CAE8FC" transform="translate(1537,80)"/>
<path d="M0 0 C6.03372245 3.78861642 10.77250691 8.20676873 15 14 C15 14.66 15 15.32 15 16 C14.34 16 13.68 16 13 16 C12.67 15.01 12.34 14.02 12 13 C11.05833984 12.78150391 11.05833984 12.78150391 10.09765625 12.55859375 C8 12 8 12 6.62109375 10.22265625 C6.23050781 9.50980469 5.83992187 8.79695312 5.4375 8.0625 C3.74561513 5.00601291 3.02489546 4.01659697 0 2 C0 1.34 0 0.68 0 0 Z " fill="#DBF3FD" transform="translate(178,154)"/>
<path d="M0 0 C5.51123596 0.61235955 5.51123596 0.61235955 7.8125 2.4375 C9 4 9 4 10 6 C10.825 6.45375 11.65 6.9075 12.5 7.375 C15 9 15 9 15.65625 11.1015625 C15.7696875 11.72804688 15.883125 12.35453125 16 13 C14.10353819 11.57765365 12.20733689 10.15498005 10.3125 8.73046875 C8.77581566 7.58055124 7.23415191 6.4372569 5.6875 5.30078125 C4.965625 4.76839844 4.24375 4.23601562 3.5 3.6875 C2.8296875 3.19636719 2.159375 2.70523438 1.46875 2.19921875 C0.9840625 1.80347656 0.499375 1.40773438 0 1 C0 0.67 0 0.34 0 0 Z " fill="#D7F2FE" transform="translate(235,99)"/>
<path d="M0 0 C0.33 0.99 0.66 1.98 1 3 C-5.28453206 6.32797915 -9.88658735 7.45164525 -17 7 C-13.52295239 5.15819755 -9.92565423 3.77174861 -6.25 2.375 C-5.07953125 1.92898438 -3.9090625 1.48296875 -2.703125 1.0234375 C-1.36507813 0.51683594 -1.36507813 0.51683594 0 0 Z " fill="#D6F1FD" transform="translate(1275,298)"/>
<path d="M0 0 C0.66 0.33 1.32 0.66 2 1 C0.38150935 2.83946539 -1.24418831 4.67151417 -2.875 6.5 C-3.33519531 7.02464844 -3.79539063 7.54929687 -4.26953125 8.08984375 C-5.47172076 9.43141755 -6.73245946 10.71999185 -8 12 C-8.66 12 -9.32 12 -10 12 C-10 10.35 -10 8.7 -10 7 C-8.68 7.33 -7.36 7.66 -6 8 C-6.33 6.68 -6.66 5.36 -7 4 C-5.824375 3.566875 -5.824375 3.566875 -4.625 3.125 C-1.90328368 2.15087746 -1.90328368 2.15087746 0 0 Z " fill="#2564DA" transform="translate(254,268)"/>
<path d="M0 0 C2.39611639 0.31044024 4.79187835 0.62328358 7.1875 0.9375 C8.19780273 1.06801758 8.19780273 1.06801758 9.22851562 1.20117188 C12.85081166 1.67825477 16.42803585 2.23012035 20 3 C20 3.33 20 3.66 20 4 C17.60347472 4.08139142 15.20974564 4.14067009 12.8125 4.1875 C12.13896484 4.21263672 11.46542969 4.23777344 10.77148438 4.26367188 C6.31116118 4.3289449 3.55034309 3.73686642 0 1 C0 0.67 0 0.34 0 0 Z " fill="#D1EDFE" transform="translate(1375,373)"/>
<path d="M0 0 C0.66 0.33 1.32 0.66 2 1 C1.36235365 4.40596465 0.0508817 6.76013121 -1.875 9.625 C-2.38804687 10.40101563 -2.90109375 11.17703125 -3.4296875 11.9765625 C-5 14 -5 14 -8 16 C-7.690625 15.278125 -7.38125 14.55625 -7.0625 13.8125 C-6.07439461 11.19692691 -5.4712246 8.74881018 -5 6 C-4.01 6 -3.02 6 -2 6 C-2 5.34 -2 4.68 -2 4 C-1.34 4 -0.68 4 0 4 C0 2.68 0 1.36 0 0 Z " fill="#195ED9" transform="translate(263,252)"/>
<path d="M0 0 C0 0.66 0 1.32 0 2 C-1.87383903 2.79441072 -3.74912886 3.58539974 -5.625 4.375 C-6.66914063 4.81585938 -7.71328125 5.25671875 -8.7890625 5.7109375 C-18.165 9.475 -18.165 9.475 -22 8 C-17.61884904 5.91084005 -13.36989662 3.96861929 -8.625 2.875 C-5.44329522 2.10700229 -3.12502429 0 0 0 Z " fill="#0E59E1" transform="translate(181,236)"/>
<path d="M0 0 C5.24972347 4.10037573 9.20962911 8.52964787 13 14 C12.67 14.66 12.34 15.32 12 16 C11.4225 15.21625 10.845 14.4325 10.25 13.625 C8.17102363 11.19952756 6.90959667 10.14305583 4 9 C4 7.68 4 6.36 4 5 C3.01 4.67 2.02 4.34 1 4 C0.3125 1.9375 0.3125 1.9375 0 0 Z " fill="#2864D3" transform="translate(249,111)"/>
<path d="M0 0 C6.28260706 -0.23268915 11.88019467 0.59545452 18 2 C18 2.33 18 2.66 18 3 C5.33029613 4.70159453 5.33029613 4.70159453 0 1 C0 0.67 0 0.34 0 0 Z " fill="#055AEC" transform="translate(186,84)"/>
<path d="M0 0 C1 3 1 3 -0.43359375 6.13671875 C-1.09135973 7.3260128 -1.75977815 8.50946371 -2.4375 9.6875 C-2.77587891 10.29400391 -3.11425781 10.90050781 -3.46289062 11.52539062 C-4.29957915 13.0220025 -5.14862831 14.51169189 -6 16 C-7 13 -7 13 -6 10 C-5.34 10 -4.68 10 -4 10 C-4.0825 9.0925 -4.165 8.185 -4.25 7.25 C-4 4 -4 4 -2 1.625 C-1.34 1.08875 -0.68 0.5525 0 0 Z " fill="#205ED3" transform="translate(1329,240)"/>
<path d="M0 0 C0.33 0 0.66 0 1 0 C1.08150744 2.06183633 1.1394194 4.12461349 1.1875 6.1875 C1.22230469 7.33605469 1.25710938 8.48460937 1.29296875 9.66796875 C0.97622579 13.27039199 0.08533398 15.09366839 -2 18 C-3.64177401 14.71645198 -2.26642648 11.34371004 -1.5625 7.875 C-1.34110352 6.74384766 -1.34110352 6.74384766 -1.11523438 5.58984375 C-0.74942352 3.72538843 -0.37547644 1.86253286 0 0 Z " fill="#D4F1FE" transform="translate(281,206)"/>
<path d="M0 0 C1.32 0 2.64 0 4 0 C4 0.66 4 1.32 4 2 C4.721875 2.226875 5.44375 2.45375 6.1875 2.6875 C9.5515082 4.25737049 11.49296687 6.28969392 14 9 C14.66 9.66 15.32 10.32 16 11 C15.67 11.99 15.34 12.98 15 14 C14.5875 13.48050781 14.175 12.96101562 13.75 12.42578125 C10.05531722 7.96412191 6.566725 4.74418193 1.50390625 1.91015625 C1.00761719 1.60980469 0.51132813 1.30945313 0 1 C0 0.67 0 0.34 0 0 Z " fill="#2661CB" transform="translate(1234,152)"/>
<path d="M0 0 C3 1 3 1 4.38671875 3.765625 C4.81597656 4.91546875 5.24523437 6.0653125 5.6875 7.25 C6.12449219 8.38953125 6.56148438 9.5290625 7.01171875 10.703125 C7.91164843 13.70526195 8.21552171 15.90114731 8 19 C5.85727214 15.7859082 4.37881715 12.47398867 2.875 8.9375 C2.59785156 8.30005859 2.32070313 7.66261719 2.03515625 7.00585938 C0 2.24880696 0 2.24880696 0 0 Z " fill="#D3EFFE" transform="translate(269,137)"/>
<path d="M0 0 C2.375 -0.1875 2.375 -0.1875 5 0 C5.66 0.99 6.32 1.98 7 3 C7.61875 2.814375 8.2375 2.62875 8.875 2.4375 C11 2 11 2 13 3 C13 4.98 13 6.96 13 9 C11.2063257 7.8782037 9.4151227 6.75245517 7.625 5.625 C6.12839844 4.68527344 6.12839844 4.68527344 4.6015625 3.7265625 C2 2 2 2 0 0 Z " fill="#DDF0FB" transform="translate(1287,95)"/>
<path d="M0 0 C-1.875 4.75 -1.875 4.75 -3 7 C-3.66 7 -4.32 7 -5 7 C-5 6.34 -5 5.68 -5 5 C-5.66 5 -6.32 5 -7 5 C-7.33 5.66 -7.66 6.32 -8 7 C-8 3 -8 3 -6.8125 1.25 C-4.44116664 -0.38540232 -2.81923877 -0.22858693 0 0 Z " fill="#145EE5" transform="translate(1322,256)"/>
<path d="M0 0 C4 0 4 0 5.625 1.3125 C8.52934424 4.87692248 9.39932488 7.4949366 10 12 C7.85772052 9.95765193 6.11553627 7.87301973 4.4375 5.4375 C3.03468652 3.40538702 1.7568647 1.7568647 0 0 Z " fill="#2261D9" transform="translate(185,159)"/>
<path d="M0 0 C0.33 0 0.66 0 1 0 C1.125 7.75 1.125 7.75 0 10 C-0.66 10 -1.32 10 -2 10 C-3.05236973 6.65155086 -3.20005388 5.40920111 -1.625 2.1875 C-1.08875 1.465625 -0.5525 0.74375 0 0 Z M-3 10 C-3 13 -3 13 -3 13 Z " fill="#0D5BE2" transform="translate(1254,215)"/>
<path d="M0 0 C6.258654 -0.5326514 10.45108785 1.18150494 16 4 C16 4.66 16 5.32 16 6 C10.63904723 4.41078475 5.29156027 2.81027062 0 1 C0 0.67 0 0.34 0 0 Z " fill="#CFEAFC" transform="translate(1494,198)"/>
<path d="M0 0 C0.99 0.33 1.98 0.66 3 1 C3.33 2.65 3.66 4.3 4 6 C4.99 6.33 5.98 6.66 7 7 C7 9.97 7 12.94 7 16 C5.30733254 12.61466508 3.81854415 9.24489637 2.375 5.75 C1.92898438 4.67234375 1.48296875 3.5946875 1.0234375 2.484375 C0.68570312 1.66453125 0.34796875 0.8446875 0 0 Z " fill="#2160D4" transform="translate(1250,166)"/>
<path d="M0 0 C8.86956522 0.73913043 8.86956522 0.73913043 12 4 C12 4.66 12 5.32 12 6 C12.66 6 13.32 6 14 6 C13.67 6.99 13.34 7.98 13 9 C12.48050781 8.59007812 11.96101562 8.18015625 11.42578125 7.7578125 C7.7576223 4.92363424 4.48550294 2.40171967 0 1 C0 0.67 0 0.34 0 0 Z " fill="#2363D5" transform="translate(171,150)"/>
<path d="M0 0 C0.66 0.33 1.32 0.66 2 1 C0.92173635 2.27513763 -0.16285519 3.54492569 -1.25 4.8125 C-1.85328125 5.52019531 -2.4565625 6.22789062 -3.078125 6.95703125 C-4.92370398 8.91889671 -6.79945332 10.45669625 -9 12 C-9 9 -9 9 -7.5625 7.4375 C-7.046875 6.963125 -6.53125 6.48875 -6 6 C-5.67 5.34 -5.34 4.68 -5 4 C-4.01 4 -3.02 4 -2 4 C-1.34 2.68 -0.68 1.36 0 0 Z " fill="#235ECE" transform="translate(1546,340)"/>
<path d="M0 0 C-1.93108963 1.03290841 -3.870118 2.05098672 -5.8125 3.0625 C-6.89144531 3.63097656 -7.97039062 4.19945312 -9.08203125 4.78515625 C-12 6 -12 6 -15 5 C-5.45454545 -1.81818182 -5.45454545 -1.81818182 0 0 Z " fill="#D3F2FE" transform="translate(1238,235)"/>
<path d="M0 0 C0.33 0 0.66 0 1 0 C1.268125 1.051875 1.53625 2.10375 1.8125 3.1875 C2.87962326 6.61352731 4.06756771 9.02083355 6 12 C6.68096422 13.32608822 7.35330586 14.65686601 8 16 C4.18687371 14.77435227 2.60989482 12.41136694 0.75 8.953125 C-0.40498408 5.94535397 -0.25867923 3.16882063 0 0 Z " fill="#C5E5FC" transform="translate(1442,165)"/>
<path d="M0 0 C-1.27313396 3.81940188 -2.64788507 4.81383809 -6 7 C-9.8125 7.75 -9.8125 7.75 -13 8 C-3.28571429 0 -3.28571429 0 0 0 Z " fill="#D4EEFD" transform="translate(1294,288)"/>
<path d="M0 0 C0.66 0 1.32 0 2 0 C0.40956621 5.08938811 -2.7446951 8.87456643 -6 13 C-6.33 12.01 -6.66 11.02 -7 10 C-6.34 10 -5.68 10 -5 10 C-5 9.01 -5 8.02 -5 7 C-4.34 7 -3.68 7 -3 7 C-2.67 5.35 -2.34 3.7 -2 2 C-1.34 2 -0.68 2 0 2 C0 1.34 0 0.68 0 0 Z " fill="#D2EEFD" transform="translate(193,216)"/>
<path d="M0 0 C2 1 2 1 3.125 3.375 C4.30959192 8.28259508 4.16087778 12.97703807 4 18 C3.67 18 3.34 18 3 18 C2.49490792 15.75113762 1.99610821 13.50086131 1.5 11.25 C1.2215625 9.99703125 0.943125 8.7440625 0.65625 7.453125 C0 4 0 4 0 0 Z " fill="#D8F2FE" transform="translate(277,156)"/>
<path d="M0 0 C1.32 0.33 2.64 0.66 4 1 C1.36 2.98 -1.28 4.96 -4 7 C-4.66 6.67 -5.32 6.34 -6 6 C-5.67 5.01 -5.34 4.02 -5 3 C-3.35 2.67 -1.7 2.34 0 2 C0 1.34 0 0.68 0 0 Z " fill="#185CD9" transform="translate(1296,282)"/>
<path d="M0 0 C2.62799102 1.86502588 3.86365751 3.30410791 4.48828125 6.4921875 C4.72593573 8.9964272 4.9040664 11.48653979 5 14 C2.42924159 10.98552165 1.47792934 8.64020229 0.8125 4.75 C0.65394531 3.85796875 0.49539063 2.9659375 0.33203125 2.046875 C0.22246094 1.37140625 0.11289063 0.6959375 0 0 Z " fill="#1D5ED5" transform="translate(1333,158)"/>
<path d="M0 0 C7.07487342 -0.64317031 11.09493185 1.17264102 17 5 C15 6 15 6 11.5234375 5.00390625 C10.13802064 4.53099953 8.75528453 4.05018356 7.375 3.5625 C6.31539062 3.19801758 6.31539062 3.19801758 5.234375 2.82617188 C3.48726713 2.22412795 1.74332214 1.61291983 0 1 C0 0.67 0 0.34 0 0 Z " fill="#2A64CD" transform="translate(1217,146)"/>
<path d="M0 0 C2.31 0 4.62 0 7 0 C6.67 0.66 6.34 1.32 6 2 C1.17574056 3.47180796 -2.92477148 4.25376143 -8 4 C-4.77208445 1.8480563 -3.71599191 1.79913557 0 2 C0 1.34 0 0.68 0 0 Z " fill="#195ED0" transform="translate(1488,373)"/>
<path d="M0 0 C3 1 3 1 4.1796875 2.734375 C5.13874367 5.38319681 5.19893014 7.44065467 5.125 10.25 C5.10695313 11.14203125 5.08890625 12.0340625 5.0703125 12.953125 C5.03550781 13.96632813 5.03550781 13.96632813 5 15 C4.67 15 4.34 15 4 15 C2.68 10.05 1.36 5.1 0 0 Z " fill="#DAF3FE" transform="translate(1560,247)"/>
<path d="M0 0 C0.99 0.33 1.98 0.66 3 1 C1.35 4.63 -0.3 8.26 -2 12 C-2.66 11.01 -3.32 10.02 -4 9 C-3.125 5.8125 -3.125 5.8125 -2 3 C-1.34 3 -0.68 3 0 3 C0 2.01 0 1.02 0 0 Z " fill="#D5EFFE" transform="translate(1377,124)"/>
<path d="M0 0 C1.81618856 1.11903546 3.62785526 2.24541284 5.4375 3.375 C6.44683594 4.00148437 7.45617188 4.62796875 8.49609375 5.2734375 C11 7 11 7 12 9 C7.25 8.125 7.25 8.125 5 7 C5 6.34 5 5.68 5 5 C3.68 4.67 2.36 4.34 1 4 C0.67 2.68 0.34 1.36 0 0 Z " fill="#CFEDFD" transform="translate(1393,235)"/>
<path d="M0 0 C1.58624235 0.42683239 3.1689098 0.86696158 4.75 1.3125 C6.07257813 1.67794922 6.07257813 1.67794922 7.421875 2.05078125 C10.05772505 3.02125331 11.85407326 4.21005644 14 6 C8.72250715 5.46148032 4.74354436 4.22656164 0 2 C0 1.34 0 0.68 0 0 Z " fill="#D0EFFE" transform="translate(1222,148)"/>
<path d="M0 0 C3.28465896 2.79196011 5.01321958 6.23196817 7 10 C7 10.66 7 11.32 7 12 C6.34 12 5.68 12 5 12 C1.9099331 8.06718758 0.47416578 4.97874064 0 0 Z " fill="#1D5ED3" transform="translate(262,127)"/>
<path d="M0 0 C0 0.66 0 1.32 0 2 C1.98 2 3.96 2 6 2 C6 2.33 6 2.66 6 3 C0.39 2.67 -5.22 2.34 -11 2 C-11 1.67 -11 1.34 -11 1 C-7.26562152 0.12132271 -3.83225427 -0.08912219 0 0 Z " fill="#D4EEFD" transform="translate(183,79)"/>
<path d="M0 0 C0.66 0 1.32 0 2 0 C1.67 0.66 1.34 1.32 1 2 C0.67 1.34 0.34 0.68 0 0 Z M0 1 C0 2.32 0 3.64 0 5 C-1.32 5.33 -2.64 5.66 -4 6 C-4.33 5.34 -4.66 4.68 -5 4 C-5.99 3.67 -6.98 3.34 -8 3 C-4.77208445 0.8480563 -3.71599191 0.79913557 0 1 Z " fill="#E9F6FB" transform="translate(236,289)"/>
<path d="M0 0 C-5.445 2.475 -5.445 2.475 -11 5 C-11.66 4.34 -12.32 3.68 -13 3 C-11.5903653 2.29819469 -10.17192359 1.61406042 -8.75 0.9375 C-7.96109375 0.55464844 -7.1721875 0.17179688 -6.359375 -0.22265625 C-4 -1 -4 -1 0 0 Z " fill="#D5F0FE" transform="translate(1466,149)"/>
<path d="M0 0 C0.66 0.33 1.32 0.66 2 1 C-0.75 5.875 -0.75 5.875 -3 7 C-3 7.66 -3 8.32 -3 9 C-3.99 8.67 -4.98 8.34 -6 8 C-5.34 7.67 -4.68 7.34 -4 7 C-3.855625 6.195625 -3.71125 5.39125 -3.5625 4.5625 C-3 2 -3 2 0 0 Z " fill="#EAF5FA" transform="translate(1529,358)"/>
<path d="M0 0 C-0.33 0.99 -0.66 1.98 -1 3 C-2.70703125 3.765625 -2.70703125 3.765625 -4.8125 4.25 C-5.49957031 4.42015625 -6.18664062 4.5903125 -6.89453125 4.765625 C-9.19499821 5.02170666 -10.80629727 4.69015367 -13 4 C-11.2097939 3.32942113 -9.41778511 2.6636531 -7.625 2 C-6.62726563 1.62875 -5.62953125 1.2575 -4.6015625 0.875 C-2 0 -2 0 0 0 Z " fill="#C2E5FB" transform="translate(213,300)"/>
<path d="M0 0 C0.33 0.66 0.66 1.32 1 2 C0.34 2 -0.32 2 -1 2 C-1.0825 2.61875 -1.165 3.2375 -1.25 3.875 C-2 6 -2 6 -4.0625 7.25 C-5.0215625 7.62125 -5.0215625 7.62125 -6 8 C-6 5 -6 5 -4.6875 3.61328125 C-3.125 2.40885417 -1.5625 1.20442708 0 0 Z " fill="#175CDB" transform="translate(1488,294)"/>
<path d="M0 0 C3.3 0.33 6.6 0.66 10 1 C10 1.66 10 2.32 10 3 C10.99 3.33 11.98 3.66 13 4 C11 5 11 5 8.3984375 4.22265625 C6.90183594 3.64837891 6.90183594 3.64837891 5.375 3.0625 C4.37210938 2.68222656 3.36921875 2.30195313 2.3359375 1.91015625 C1.56507812 1.60980469 0.79421875 1.30945313 0 1 C0 0.67 0 0.34 0 0 Z " fill="#2964D0" transform="translate(1444,258)"/>
<path d="M0 0 C5.29500913 1.36157378 7.23745533 4.60343955 10 9 C6.04322598 7.32598022 3.15535787 4.86850715 0 2 C0 1.34 0 0.68 0 0 Z " fill="#2B66D2" transform="translate(1388,229)"/>
<path d="M0 0 C4.99275057 1.27721526 7.57611908 3.17330957 11 7 C8.03 6.505 8.03 6.505 5 6 C5 5.01 5 4.02 5 3 C3.35 2.67 1.7 2.34 0 2 C0 1.34 0 0.68 0 0 Z " fill="#165DD8" transform="translate(1532,216)"/>
<path d="M0 0 C2.64 0.33 5.28 0.66 8 1 C8 1.66 8 2.32 8 3 C8.66 3.33 9.32 3.66 10 4 C7.03 3.67 4.06 3.34 1 3 C0.67 2.01 0.34 1.02 0 0 Z " fill="#1659D9" transform="translate(1384,304)"/>
<path d="M0 0 C0.99 0.33 1.98 0.66 3 1 C-0.96 4.465 -0.96 4.465 -5 8 C-5.33 7.01 -5.66 6.02 -6 5 C-4.68 4.67 -3.36 4.34 -2 4 C-2 3.34 -2 2.68 -2 2 C-1.34 2 -0.68 2 0 2 C0 1.34 0 0.68 0 0 Z " fill="#D0EFFE" transform="translate(1484,294)"/>
<path d="M0 0 C0 0.33 0 0.66 0 1 C-4.96073422 2.32286246 -9.91111512 2.08893197 -15 2 C-9.43605298 -0.82229197 -6.29214226 -1.08902462 0 0 Z " fill="#CFEBFE" transform="translate(1214,243)"/>
<path d="M0 0 C0.33 0 0.66 0 1 0 C1.29162929 4.95769796 1.12940055 8.02806853 -2 12 C-2.66 12 -3.32 12 -4 12 C-2.66666667 8 -1.33333333 4 0 0 Z " fill="#CEEBFD" transform="translate(274,234)"/>
<path d="M0 0 C1 3 1 3 0.3125 5.625 C-0.3371875 6.800625 -0.3371875 6.800625 -1 8 C-2.32 8.33 -3.64 8.66 -5 9 C-3.35 6.03 -1.7 3.06 0 0 Z " fill="#DBF4FE" transform="translate(1554,331)"/>
<path d="M0 0 C1.90401138 1.90401138 2.93520439 3.33425686 3.19921875 6.046875 C3.1886578 8.03233273 3.09915043 10.0169914 3 12 C2.67 10.68 2.34 9.36 2 8 C1.34 8 0.68 8 0 8 C0 5.36 0 2.72 0 0 Z " fill="#0B58EC" transform="translate(1335,168)"/>
<path d="M0 0 C1.31611677 0.95336021 2.62778961 1.91285774 3.9375 2.875 C4.66839844 3.40867187 5.39929688 3.94234375 6.15234375 4.4921875 C8 6 8 6 9 8 C5.41209425 7.70100785 4.21833224 7.23013399 1.6875 4.5625 C0 2 0 2 0 0 Z " fill="#2763D4" transform="translate(240,103)"/>
<path d="M0 0 C1.125 3.75 1.125 3.75 0 6 C-0.66 6 -1.32 6 -2 6 C-2.66 7.65 -3.32 9.3 -4 11 C-4.33 10.34 -4.66 9.68 -5 9 C-4.00390625 6.8359375 -4.00390625 6.8359375 -2.5625 4.375 C-2.08941406 3.55773437 -1.61632813 2.74046875 -1.12890625 1.8984375 C-0.75636719 1.27195312 -0.38382813 0.64546875 0 0 Z " fill="#0859E9" transform="translate(1383,121)"/>
<path d="M0 0 C1.41493551 -0.10884119 2.83232943 -0.18597617 4.25 -0.25 C5.03890625 -0.29640625 5.8278125 -0.3428125 6.640625 -0.390625 C9 0 9 0 13 4 C8.71 3.01 4.42 2.02 0 1 C0 0.67 0 0.34 0 0 Z " fill="#CBE6FC" transform="translate(199,84)"/>
<path d="M0 0 C0.66 0.66 1.32 1.32 2 2 C-0.57784846 4.64752004 -2.91648098 6.94432065 -6 9 C-6 6 -6 6 -4.6875 4.39453125 C-4.130625 3.87246094 -3.57375 3.35039062 -3 2.8125 C-2.443125 2.28269531 -1.88625 1.75289063 -1.3125 1.20703125 C-0.6628125 0.60955078 -0.6628125 0.60955078 0 0 Z " fill="#F3FBFB" transform="translate(1548,343)"/>
<path d="M0 0 C-1.39332574 3.36720387 -2.9789286 4.9859524 -6 7 C-6 3 -6 3 -4.6875 1.25 C-3 0 -3 0 0 0 Z " fill="#2463D1" transform="translate(1311,271)"/>
<path d="M0 0 C0.33 0 0.66 0 1 0 C1.125 2.875 1.125 2.875 1 6 C0.34 6.66 -0.32 7.32 -1 8 C-1.99 7.67 -2.98 7.34 -4 7 C-2.68 4.69 -1.36 2.38 0 0 Z " fill="#D4ECFD" transform="translate(266,252)"/>
<path d="M0 0 C2.64 0 5.28 0 8 0 C8 0.99 8 1.98 8 3 C5.6568787 2.74438677 3.32156597 2.40729228 1 2 C0.67 1.34 0.34 0.68 0 0 Z " fill="#195CD6" transform="translate(1415,247)"/>
<path d="M0 0 C3 1 3 1 4.1875 3.0625 C4.455625 3.701875 4.72375 4.34125 5 5 C3.35 5 1.7 5 0 5 C0 4.34 0 3.68 0 3 C-0.66 2.67 -1.32 2.34 -2 2 C-1.34 1.34 -0.68 0.68 0 0 Z " fill="#0959EC" transform="translate(170,145)"/>
<path d="M0 0 C-2.76223278 2.76223278 -5.20706617 2.57856291 -9 3 C-9 2.34 -9 1.68 -9 1 C-6.04335481 -0.4783226 -3.25770263 -0.06032783 0 0 Z " fill="#2061D2" transform="translate(1267,301)"/>
<path d="M0 0 C0.66 1.32 1.32 2.64 2 4 C1.01 4.495 1.01 4.495 0 5 C0.33 6.32 0.66 7.64 1 9 C0.34 8.67 -0.32 8.34 -1 8 C-1 7.34 -1 6.68 -1 6 C-1.66 5.67 -2.32 5.34 -3 5 C-2.01 3.35 -1.02 1.7 0 0 Z " fill="#DBF1FB" transform="translate(1324,253)"/>
<path d="M0 0 C0.99 0.33 1.98 0.66 3 1 C4.6875 4.5625 4.6875 4.5625 6 8 C2.24623848 6.74874616 1.75926711 5.4347596 0 2 C0 1.34 0 0.68 0 0 Z " fill="#2061D5" transform="translate(1554,239)"/>
<path d="M0 0 C0.99 0 1.98 0 3 0 C1.50902342 3.7952131 -0.75700849 5.61042731 -4 8 C-4 7.01 -4 6.02 -4 5 C-3.01 4.34 -2.02 3.68 -1 3 C-0.67 2.01 -0.34 1.02 0 0 Z " fill="#D7F4FE" transform="translate(1245,224)"/>
<path d="M0 0 C3.99996286 1.33332095 4.83782337 3.4957827 7 7 C6.67 7.66 6.34 8.32 6 9 C4.99406757 7.8803014 3.9954151 6.7540588 3 5.625 C2.443125 4.99851563 1.88625 4.37203125 1.3125 3.7265625 C0 2 0 2 0 0 Z " fill="#2161CE" transform="translate(1381,220)"/>
<path d="M0 0 C2.64 0.33 5.28 0.66 8 1 C8 1.66 8 2.32 8 3 C6.02 3 4.04 3 2 3 C2 2.34 2 1.68 2 1 C1.34 0.67 0.68 0.34 0 0 Z " fill="#1458DA" transform="translate(1455,186)"/>
<path d="M0 0 C0.99 0.33 1.98 0.66 3 1 C3.33 3.31 3.66 5.62 4 8 C3.34 8 2.68 8 2 8 C0.74335022 5.09399739 0 3.20395416 0 0 Z " fill="#E0F6FE" transform="translate(1329,139)"/>
<path d="M0 0 C1.32 0.33 2.64 0.66 4 1 C3.67 1.66 3.34 2.32 3 3 C3.99 3.33 4.98 3.66 6 4 C5.67 4.99 5.34 5.98 5 7 C2.47411298 4.63707344 1.11179163 3.33537489 0 0 Z " fill="#D7EDFD" transform="translate(258,120)"/>
<path d="M0 0 C2.4375 0.8125 2.4375 0.8125 5 2 C5.33 2.99 5.66 3.98 6 5 C5.01 5.495 5.01 5.495 4 6 C2.62437146 4.71034824 1.29233607 3.37310707 0 2 C0 1.34 0 0.68 0 0 Z M2 2 C3 4 3 4 3 4 Z " fill="#075BF4" transform="translate(224,95)"/>
</svg>
