<?xml version="1.0" encoding="UTF-8"?>
<svg id="Layer_1" xmlns="http://www.w3.org/2000/svg" version="1.1" viewBox="0 0 2500 650.54">
  <!-- Generator: Adobe Illustrator 29.6.0, SVG Export Plug-In . SVG Version: 2.1.1 Build 207)  -->
  <defs>
    <style>
      .st0 {
        fill-rule: evenodd;
      }
    </style>
  </defs>
  <path class="st0" d="M380.65,593.64h149.14v-269.6h-149.14v269.6h0ZM2284.96,593.64h149.15v-269.6h-149.15v269.6h0Z"/>
  <path class="st0" d="M2367.57,78.01H36.76v514.41h258.12v-323.15l2072.67.05c52.83.87,96.36-41.25,97.22-94.08.87-52.83-41.25-96.36-94.08-97.22-1.04-.02-2.09-.02-3.13,0h0ZM2081.25,204.09H294.89v-61.01l1786.35.17c16.8-.35,30.7,12.99,31.05,29.79.35,16.8-12.99,30.7-29.79,31.05-.42,0-.84,0-1.26,0Z"/>
  <path class="st0" d="M997.23,496.87c30.47-13.8,49.74-44.49,49.74-80.1,0-48.53-38.17-92.73-103.19-92.73h-306.88v269.6h149.14v-86.99h48.77l44.93,86.99h167.3l-49.8-96.77ZM871.14,441.35h-85.09v-57.07l85.09.29c15.68,0,28.39,12.71,28.39,28.39s-12.71,28.39-28.39,28.39ZM1140.57,593.64h328.89v-60.23h-179.76v-39.67h179.76v-65h-179.76v-39.67h179.76v-65.02h-328.89v269.6h0ZM1720.27,324.04h-149.15v269.6h300.2v-60.23h-151.05v-209.37ZM2071.76,324.04h-149.13v269.6h300.19v-60.23h-151.06v-209.37Z"/>
</svg>