<?xml version="1.0" encoding="UTF-8"?>
<svg xmlns="http://www.w3.org/2000/svg" version="1.1" viewBox="0 0 391.8 175.4">
  <!-- Generator: Adobe Illustrator 28.6.0, SVG Export Plug-In . SVG Version: 1.2.0 Build 709)  -->
  <g>
    <g id="Capa_1">
      <g>
        <path d="M81.5,11.3c8.7,0,17.3.2,26,0,19.5-.4,39.6,14.9,40.7,38.1.8,19.1.8,38.4-.9,57.4-2.8,30.3-30.7,54.9-61,57.2-42,3.2-74.1-30.8-73.3-69.6.3-13.7,0-27.3,0-41,.1-23.9,17.2-41.5,41-42.1,9.2-.2,18.3,0,27.5,0,0,0,0,0,0,0ZM80.9,17.4c-8.3,0-16.7,0-25,0-21.3,0-36.3,14.7-36.7,35.9-.3,14.2-.3,28.3,0,42.5.8,33.4,24.7,59.7,56.1,62.1,35.1,2.7,64.9-23.1,66.6-58.3.8-16.1.6-32.3.1-48.5-.6-19-15.7-33.4-34.7-33.7-8.8-.2-17.7,0-26.5,0Z"/>
        <path d="M206.1,121.7c2.3,3.2,6.4,6.6,7.6,10.9,2.8,10-3.7,18.3-14.7,19.2-7.6.6-15.2.1-23.2.1-.1-1.6-.3-2.9-.3-4.1,0-16.5,0-32.9,0-49.4,0-3.7,1.1-5.1,4.8-4.8,6.8.4,13.7,0,20.4.9,9.5,1.3,14.7,9.1,12,18.1-1.1,3.7-4.7,6.6-6.6,9.1ZM184.6,135.3q0,8.8,6.8,8.8c9.7,0,13.8-2.7,13.8-9,0-6.1-4.3-8.8-14-8.8q-6.6,0-6.6,9ZM191.9,101.4c0,.1,0,.2,0,.4-1.7,0-4.1-.7-4.8.1-1.3,1.6-2.5,4.1-2.2,6.1.4,3.4-2.8,8.6,2.2,10,3.7,1.1,8.5.4,12.2-1,2.3-.9,4.7-4.6,4.7-7.1,0-2.4-2.5-5.5-4.8-7.1-1.7-1.3-4.7-1-7.2-1.4Z"/>
        <path d="M175.7,81.5V23.4c9.6.6,19.1.1,28.2,1.9,8.7,1.7,13.6,11.4,12.7,21.3-.9,9.2-7.5,16.3-16.5,17.4-3.5.4-7,.5-10.5.4-3.6-.2-5.4,1-5,4.8.2,1.8,0,3.7,0,5.5,0,8.1-.3,8.4-8.9,6.7ZM184.6,44.3q0,13.1,11.5,12.1c7.3-.6,12.2-5.9,11.3-13.1-1.2-10.2-6.7-11.9-18.1-11.4-8.7.3-3.3,6.9-4.7,10.4-.2.6,0,1.3,0,2Z"/>
        <path d="M313.2,78.3c-12,6.7-21.2,6-27.1-1.8-6.1-7.9-5.4-21.7,1.4-28.6,6.6-6.7,16.2-6.9,25.1-.5.9-1.2,1.5-2.9,2.6-3.5,3.6-1.9,6.9.2,6.9,4.3,0,9.5,0,19,0,28.4,0,2,1.3,5.1-2.5,5.5-3,.3-6.2.8-6.4-3.8ZM290.6,62.8c0,7.5,4.7,12.8,11.6,12.8,6.9,0,11.7-5.3,11.8-12.8,0-7.4-4.8-12.8-11.7-12.8-6.8,0-11.6,5.2-11.6,12.8Z"/>
        <path d="M350.1,135.8c.9,8.7,10.2,12.6,17,8q4.7-3.2,11.1-2c-1,1.8-1.6,3.8-2.8,5.1-5.9,6.3-13.2,7.1-21.1,5.1-7.2-1.9-11.3-6.9-12.5-14-3-17,8.2-28.7,23.7-25,8.9,2.2,14.7,10.6,13.2,19.6-.2,1.2-2.5,2.8-3.9,2.9-6.5.3-13,.1-19.5.1-1.6,0-3.3.1-5.2.2ZM369.8,128.6c.1-6.1-3-9.3-9.1-9.4-6.5-.2-10.3,3.1-10.4,9.4h19.5Z"/>
        <path d="M260.8,133.1c0,11.9-8.3,20-20.3,20-12.1,0-20.2-8.4-20.1-20.6.2-11.9,8.5-20.2,20.2-20,12.1.1,20.1,8.5,20.1,20.7ZM252.2,132.5c0-7.5-4.4-12.4-11.2-12.5-7.1-.1-12,4.9-11.9,12.4,0,8.1,4.4,13,11.8,12.9,7.2,0,11.4-4.8,11.3-12.8Z"/>
        <path d="M239.9,83c-12,0-20-8.2-20.1-20.1,0-12.2,8.2-20.3,20.5-20.2,11.9,0,20.1,8.3,20.2,20.1,0,12-8.4,20.3-20.6,20.2ZM251.8,62.9c0-7.4-4.8-12.7-11.7-12.8-6.9,0-11.8,5.2-11.8,12.7,0,7.5,4.8,12.8,11.7,12.8,6.9,0,11.7-5.2,11.8-12.7Z"/>
        <path d="M300.1,120.9c-2.4-.3-4-.5-6-.7v-6.5c1.9-.3,3.7-.6,5.9-.9v-10.3c7.6-2.5,8.9-1.7,8.6,5.4-.1,4,1,6,5.3,5.4,1.1-.1,2.2.3,3.5.5v6.4c-2.8.2-5.4.5-8.5.7,0,6.4-.3,12.7,0,19,.4,5.7,5.4,4.8,9.1,5.2,1.7,6.5,1.2,7.3-5,7.3-8.5.1-12.6-3.7-13-12.3-.2-3.2,0-6.3,0-9.5,0-3.1,0-6.3,0-9.8Z"/>
        <path d="M289.7,145.2v6c-10.8,4-18.1-.6-18.5-11.7-.2-6.1,0-12.2,0-18.5-2.4-.3-4.1-.6-6.1-.9v-6.3c1.8-.3,3.6-.6,6.1-1.1,0-2.4.2-5,0-7.6-.3-3.5,1.8-3.7,4.4-3.7,2.7,0,4.7.4,4.4,3.7-.1,1.3,0,2.7,0,4-.2,2.9.9,4.1,4,4.2,5.3,0,5.3.3,4.6,6.3-.2.2-.5.6-.8.6q-7.8.9-7.8,8.9c0,1.8,0,3.7,0,5.5,0,8.9.7,9.7,10,10.5Z"/>
        <path d="M267.3,24.1h7.8c.2,1.4.4,2.7.4,3.9,0,16.5,0,32.9,0,49.4,0,3.2-.6,4.9-4.3,4.8-3.7,0-4.4-1.6-4.4-4.9.1-16.5,0-32.9,0-49.4,0-1.1.2-2.3.4-3.9Z"/>
        <path d="M325.7,152.5c0-7.9,0-14.5,0-21.2,0-11.1,0-22.3,0-33.4,0-3.2,1-4.4,4.3-4.4,3.3,0,4.3,1.3,4.3,4.4,0,16.6-.1,33.2,0,49.9,0,6.9-4.8,3.3-8.5,4.7Z"/>
        <path d="M337.7,47.2c4.2-1.4,8.2-2.8,12.2-4.2.7,2.4,1.3,4.7,2,7-13.2,3.6-14.4,5.2-14.4,18.6,0,2.8,0,5.7,0,8.5.1,2.9,0,5.1-4.1,5.1-4,0-4.7-1.7-4.6-5.1.2-9.3,0-18.7,0-28,0-2.4-1.1-5.6,3.4-5.6,3.5,0,6.3.3,5.4,3.7Z"/>
        <path d="M118.1,92.7c-4.1-17-11-32.1-23.7-44.1-.8-.7-1.4-1.9-1.4-2.9-.1-2.8-1.2-3.7-3.8-2.6-.6.2-1.4.6-1.9.4-7.9-3.5-15.2-.8-22.3,2.5-1.6.7-4.4,2.1-4.3,2.9.3,2.3,1.3,5.1,3,6.3,3.2,2.2,7.1,3.7,10.8,5,6.3,2.4,9.3,7,8.9,13.5-.3,5.7-1.4,11.4-2.2,17.6-2.7-.8-4.2-1.2-6-1.7.6-4.1,1.2-7.9,1.9-12.1-12.7,5.4-24.7,10.5-36.7,15.7-.4-.5-.7-1-1.1-1.4,2.3-2.2,4.2-4.9,6.8-6.4,6.2-3.5,12.8-6.4,19.1-9.6,3.6-1.8,7-3.9,10.6-5.9,0-.6-.2-1.1-.2-1.7-1.9-1-3.8-2.2-5.8-3.1-16.2-7.2-12.6-3.6-17.3-22.3,1.5-.4,3-.8,4.5-1.3,4.5-1.6,8.9-3.4,13.5-4.8,2.5-.7,5.2-1.1,7.8-1.1,4.3,0,8.7,0,12.8.9,2.7.7,5.4,2.8,7.4,4.9,2.2,2.3,3.4,5.6,5.5,8.1,8.6,10.6,14.7,22.5,18.6,35.6,1.3,4.5.1,6.6-4.5,7.7Z"/>
        <path d="M123.8,96.8c.8,7.7,0,9.1-6.4,12-8.3,3.8-16.7,4.1-25.2,1-3.6-1.3-7.2-2.6-10.7-4.1-13.1-5.6-26.2-5.4-39.4-.4-1.1.4-2.2.7-3.2,1-3.1-6.3-2.6-7.4,3.6-9.4,14.9-4.8,29.6-4.2,43.8,2.4,12,5.5,23.6,6.8,34.9-1.5.5-.4,1.1-.7,1.7-1,.3-.1.6,0,.9,0Z"/>
        <path d="M117,119.9c-5.7,9.8-9.5,11.6-18.6,8.9-6-1.8-12-4-17.7-6.7-12.2-5.7-24.4-9.9-38.2-4-1.1-2.4-2-4.5-3.1-6.8,9.4-4.7,18.9-5.3,28.4-2.4,6.2,1.9,12.2,4.4,18.1,7.1,9.7,4.4,19.3,8.3,31,3.8Z"/>
        <path d="M93.2,137.7c-15.3,6.6-39.4-1-47.2-15.6,5.3-2.3,10.7-2.2,15.9-.3,3.9,1.4,7.4,3.6,11.1,5.5,6.8,3.5,13.7,7.1,20.2,10.4Z"/>
        <path d="M45.2,56.7c.7,5.6,2.8,9.4,9.3,9.6-6,.8-9.1,3.7-9.2,9.9-.8-5.9-3.4-9.3-9.8-9.7,6.3-.5,9.1-3.8,9.6-9.8Z"/>
      </g>
    </g>
  </g>
</svg>