<?xml version="1.0" encoding="utf-8"?>
<!-- Generator: $$$/GeneralStr/196=Adobe Illustrator 27.6.0, SVG Export Plug-In . SVG Version: 6.00 Build 0)  -->
<svg version="1.1" id="Capa_1" xmlns="http://www.w3.org/2000/svg" xmlns:xlink="http://www.w3.org/1999/xlink" x="0px" y="0px"
	 viewBox="0 0 612 105" style="enable-background:new 0 0 612 105;" xml:space="preserve">
<style type="text/css">
	.st0{fill:#225297;}
</style>
<path class="st0" d="M307.1,68c-1.8,1.6-3.4,1.3-5,1.3c-8.1,0-16.3,0-24.4,0c-5,0-8.1,2.4-9.8,7.2c-1.2,3.4,0,4.6,3.2,4.6
	c6.1,0,12.3,0.2,18.4,0c14.7-0.6,29.6,2.1,44.1-3c3.8-1.3,6.8-3.4,9.6-6c1.5-1.4,1.6-3.2,0.6-5.4c-1.7-3.8-5.4-4.5-8.5-5.8
	c-6.5-2.8-13.4-4.7-20-7.1c-0.9-0.3-2.7-0.4-2.4-1.9c0.3-1.4,1.7-1,2.9-1c8.4,0,16.8-0.1,25.2,0c3.6,0.1,6.7-1.1,9.2-3.6
	c1.5-1.4,2.5-3.2,1.7-5.4c-0.8-2.2-2.8-1.8-4.4-1.8c-10.3-0.1-20.6,0.3-30.8-0.1c-11.4-0.5-21.8,2.6-31.6,8.2
	c-4.4,2.5-4.9,8.4-0.8,11.4c2.5,1.9,5.4,3.3,8.6,3.7C297.9,63.9,302.2,65.9,307.1,68z"/>
<path class="st0" d="M133,17.8c-0.5-1.8-1.8-2.2-2.9-2.8c-6.4-3.1-13-5.4-20.1-6.8c-20.8-4.1-40.8-0.6-60.3,6.3
	c-11.5,4.1-22,10.2-31,18.8C11.3,40.3,5.6,48.1,4.6,58.6C4.1,63.2,4.4,68,6.2,72.1C11.4,83.2,21.4,89,32.4,92.2
	c16.5,4.8,33.2,4.9,50.3,1.3c11.8-2.5,22.7-6.8,33.4-12c1.4-0.7,3.2-1.2,3.6-3.4c-3.7-0.2-5.8,2.7-8.6,3.8
	c-8.7,3.4-17.6,6.2-26.9,7.8c-17.6,3.2-34.6,2.2-50.2-7.5c-7.1-4.4-11.1-10.9-11.5-19.2c-0.5-9.2,3.8-16.8,9.4-23.4
	c6-7,13.6-11.9,21.8-16.3c14.1-7.6,29.1-11,44.9-11.6c9.5-0.4,19,0.8,28.1,3.9C128.8,16.1,130,19,133,17.8z"/>
<path class="st0" d="M586,28C586,28,586,28,586,28c-2.4-0.1-4.8-0.1-7.3-0.1c-8.5,0-9.5,0.7-12.5,8.9c-0.8,2.1-2,3.7-4.7,3.3
	c-1.8-0.2-3.9-0.3-5,1.6c-1.8,3.2-3.3,6.6-4.9,9.9c-1,2.1-0.2,3.1,1.9,3c3.4,0,3,1.2,1.6,3.6c-3.3,5.9-6.4,11.9-8.7,18.3
	c-1.2,3.5,0.2,4.5,3.2,4.6c6.7,0.1,13.4,0,20.1,0c3.2,0,6.1-1,7.7-3.8c3.1-5.4,6.2-10.8,8.7-16.4c1.7-4,4-6.4,8.5-6.2
	c2.3,0.1,4.8,0.2,6.1-2.1c1.4-2.4,2.5-5.1,3.8-7.6c1.5-2.8-0.1-4-2.4-4.7c-5.2-1.5-5.2-1.5-2.8-6.8c0.3-0.6,0.6-1.3,0.9-1.9
	c1.1-2.6,0.3-3.7-2.6-3.6C593.7,28.1,589.8,28,586,28z"/>
<path class="st0" d="M242.1,19.5C242.1,19.5,242.1,19.5,242.1,19.5c-3.6,0-7.1-0.1-10.7,0c-3.6,0.1-6.1,1.9-7.7,5.2
	c-3.6,7.4-7,14.9-11,22c-5.3,9.4-9.9,19.1-14.6,28.8c-2.1,4.3-1.1,5.8,3.9,5.8c6.3,0,12.5-0.2,18.8-0.1c3.3,0,6.3-1.4,7.6-4
	c3.2-6.5,6.8-12.7,9.7-19.3c2-4.7,4.7-9,6.8-13.7c3.1-6.9,7.2-13.4,10.1-20.5c1.1-2.8,0.2-4.1-2.7-4.2
	C249,19.4,245.6,19.5,242.1,19.5z"/>
<path class="st0" d="M508.6,81.1C508.6,81.1,508.6,81.1,508.6,81.1c3,0.1,6-0.1,9,0.1c3.6,0.2,6.6-1.8,7.8-4.3c1.8-3.8,4-7.5,6.1-11
	c2.7-4.6,5.5-9.7,11.5-10.4c5-0.6,6.3-4.1,8-7.7c0.5-1.2,0.7-2.5,1.3-3.6c1.5-2.9,0.1-3.9-2.6-4c-7.9-0.3-15.6,0.6-23.2,2.7
	c-5.3,1.5-10.4,3.5-14.2,7.2c-7.5,7.5-11.6,17.2-16,26.6c-1.5,3.2,0.2,4.2,3,4.3C502.3,81.2,505.4,81.1,508.6,81.1z"/>
<path class="st0" d="M246.5,81.1C246.5,81.1,246.5,81.1,246.5,81.1c3.4,0,6.8,0,10.3,0c3-0.1,5.4-1.3,6.9-4.1
	c5.8-10.5,11.5-21.1,16.6-32c1.6-3.4,0.9-4.6-3-4.7c-6.7-0.1-13.4-0.1-20.1-0.1c-3.7,0-6.8,2-8.3,5.1c-4.8,9.5-9.4,19.2-14.7,28.5
	c-0.6,1.1-0.8,2.4-1.1,3.6c-0.5,2.5,0.4,3.8,3.1,3.8C239.7,81.1,243.1,81.1,246.5,81.1z"/>
<path class="st0" d="M277.5,18.6c-5.9-1.2-12.1,1.9-18,5.4c-2.2,1.3-4.3,3.8-4,7c0.2,2.8,2.3,4.5,4.6,5.6c9.2,4.4,24.9,0.8,31.4-6.9
	c2.9-3.5,2.4-6.3-1.2-8.9C286.7,18.1,282.7,18.7,277.5,18.6z"/>
<path class="st0" d="M135.1,28.5c-4.7-2.7-9.6-4.9-15.3-4.8c-8.1,0.2-16.3,0-24.4,0c0,0,0-0.1,0-0.1c-8.1,0-16.3,0.3-24.4-0.1
	c-6.3-0.3-9.2,3.4-11.5,8.2c-3.5,7.1-6.9,14.2-10.5,21.2c-4.1,7.9-8.3,15.7-12.6,23.4c-1.4,2.6-0.8,4.5,1.9,4.5
	c8.5,0.2,17.1,0.9,25.6-0.3c5.3-0.8,6.8-5.3,8.2-9.4c1.8-5.2,4.9-7.6,10.5-7.2c3.3,0.2,6.6-0.1,9.8-0.1c16.6,0,31-5.8,43.4-16.7
	C141.6,42.2,141.2,32,135.1,28.5z M105.1,44c-4.4,4.8-10.5,5.1-16.1,6.5c-2.3,0-4.4-0.5-5.3-2.9c-0.9-2.4,0.4-4.2,2-5.6
	c4.6-3.9,10.1-5.4,15.9-5.9c2.5-0.2,4.6,1,5.6,3.2C108.1,41.2,106.3,42.6,105.1,44z"/>
<path class="st0" d="M419.6,43c-7.4-3.6-15-2.7-22.6-2.9c-8.6-0.2-17-0.2-25.2,3.3c-8.6,3.7-16.1,8.2-20.1,17.1
	c-2,4.5-4.7,8.8-6.9,13.2c-2.4,4.5-4.9,9-6.9,13.7c-1.5,3.6-0.3,5.1,3.4,5.1c6.1,0,12.3,0,18.4,0c4.1,0,7.1-2.2,7.9-5.9
	c0.9-4,3.6-4.8,6.7-5.3c2.2-0.4,4.6-0.2,6.8-0.2c8.8,0.2,17.7,0.3,26.1-3.2c6.3-2.6,12.1-5.9,14.8-12.6c1.1-2.8,2.2-5.5,3.4-8.3
	C427.5,52.2,426.8,46.5,419.6,43z M397.7,56.6c-0.5,6.8-9.4,15.3-15.8,15.5c-4.7,0.1-5.9-1.5-3.7-5.6c3.2-5.6,5.9-11.7,12.3-14.8
	c2-1,4-1.6,6-0.2C398.4,52.8,397.8,54.8,397.7,56.6z"/>
<path class="st0" d="M495.8,44c-6.6-2.9-13.5-5-21-4.8c-8.1,0.2-15.7,1.9-23.4,4.1c-9,2.6-17.2,6.6-23.2,13.9
	c-6.9,8.4-4.1,16.4,4.2,20.5c6.9,3.3,14.4,5.3,22,4.5c4.5,0.3,8.6-0.1,12.6-0.9c12.7-2.5,24.8-6.2,33-17.3
	C505,57.5,503,47.1,495.8,44z M460.2,72.6c-3.2,0.6-4-1.2-4.1-4.2c0-5.7,7.1-15.8,12.6-17.7c3-1,4.7,0.3,5.1,3.3
	C474.6,59.3,465.6,71.5,460.2,72.6z"/>
<path class="st0" d="M201.1,47.2c-3.2-3.5-7.3-4.8-11.4-6c-15.4-4.6-30.1-0.9-44.4,4.9c-6.9,2.8-13.1,6.8-16.9,13.5
	c-4.1,7.1-1.3,15.1,6.4,18.2c6.9,2.8,14,4.7,21.2,4.3c7.3,0.2,14-1,20.6-2.7c10.3-2.7,19.2-7.5,25.8-16
	C205.9,58.8,205,51.5,201.1,47.2z M171.1,65.2c-2.1,2.1-4.2,4.2-6.5,6.1c-1.7,1.4-3.7,2-5.4,0.9c-1.7-1.1-1.5-3.1-1.1-5
	c1.4-7,5.1-12.3,11.3-15.9c3.6-2.1,6.3-0.6,6.4,3.9C174.9,58.4,174.1,62.2,171.1,65.2z"/>
</svg>
