<?xml version="1.0" encoding="UTF-8"?>
<svg xmlns="http://www.w3.org/2000/svg" version="1.1" viewBox="0 0 617 136">
  <defs>
    <style>
      .cls-1 {
        fill: #e06906;
      }
    </style>
  </defs>
  <!-- Generator: Adobe Illustrator 28.6.0, SVG Export Plug-In . SVG Version: 1.2.0 Build 709)  -->
  <g>
    <g id="layer">
      <path d="M466.8,65.6l25.3,26.4h-22.2l-13.3-13.5c-2.1-1.9-5.5-1.9-7.6,0l-13.3,13.5h-22.2l25.3-26.4-25.3-26.4h22.2l13.3,13.5c2.1,1.9,5.5,1.9,7.6,0l13.3-13.5h22.2l-25.3,26.4M501.7,92.1h18.3v-52.9h-18.3v52.9ZM607.4,39.2h-63.9c-4,0-7.9,1.8-10.7,5-1.8,2-4.1,5.6-4.1,10.9s1,7.1,2.8,10c2.7,4.1,7,6.5,11.6,6.5h45.7c.7,0,1.3.4,1.8,1.2.5.8.8,1.9.8,3.1s-.3,2.1-.9,2.8c-.6.7-1.3,1-2,1h-59.1v12.3h63.9c4,0,7.9-1.8,10.7-5,1.8-2,4.1-5.6,4.1-10.9s-1-7.1-2.8-10c-2.7-4.1-7-6.5-11.6-6.5h-45.6c-.7,0-1.3-.4-1.8-1.2-.5-.8-.8-1.8-.8-3.1s.3-2.1.9-2.8c.6-.7,1.3-1,2-1h59.1v-12.3h-.1ZM232.4,57.2c0,5.8-2.4,9.7-4.4,11.9-3.1,3.5-7.3,5.4-11.7,5.4h-46.8v17.5h-18.4v-52.9h65.6c5.1,0,9.7,2.6,12.7,7.1,1.9,3.2,3,6.9,3,11M213.8,57.2c0-1.7-.4-3.1-1.1-4.1-.7-1.1-1.5-1.6-2.4-1.6h-40.9v10.8h40.5c.9,0,1.8-.5,2.6-1.4.9-.9,1.3-2.1,1.3-3.7M409.5,92.1h-20l-5.3-9.7h-33.2l-5.3,9.7h-20l26.4-48.7c1.7-2.8,3.9-4.2,6.2-4.2h18.5c2.2,0,4.4,1.4,6.1,4.1l26.6,48.8ZM377.7,70.2l-7.9-14.5-.2-.3c-1.1-1.9-2.9-1.9-4,0l-.4.7-7.6,14.1h20.1ZM319.4,79.5v12.5h-18.4v-12c0-1.5-.4-2.8-1-3.8-.7-1.1-1.5-1.6-2.4-1.6h-37.2v17.5h-18.4v-52.9h63.4c5.1,0,9.7,2.6,12.7,7.1,2.1,3.1,3.1,6.8,3.1,10.9,0,5.8-2.4,9.7-4.4,11.9l-.3.3c1.8,2.8,2.8,6.1,3,9.7h0v.4h-.1ZM298.7,62.3c.9,0,1.8-.5,2.6-1.4.8-.9,1.2-2.2,1.2-3.7s-.4-3.1-1.1-4.1c-.7-1.1-1.5-1.6-2.4-1.6h-38.7v10.8h38.4Z"/>
      <path class="cls-1" d="M128.4,75.7l-7-3.8c-.8-.4-1.2-1.2-1.2-2.1v-2.3c0-.9.5-1.7,1.2-2.1l7-3.8c.9-.5,1.4-1.5,1.2-2.5l-.4-2.3c-.2-1-1-1.8-2-1.9l-7.9-1.2c-.9-.1-1.6-.7-1.9-1.5l-.8-2.2c-.3-.8-.1-1.7.5-2.4l5.3-6c.7-.8.8-1.9.3-2.8l-1.2-2c-.5-.9-1.5-1.3-2.5-1.1l-7.8,1.6c-.9.2-1.7-.1-2.3-.8l-1.5-1.8c-.6-.7-.7-1.6-.4-2.4l2.9-7.4c.4-.9,0-2-.7-2.7l-1.8-1.5c-.8-.7-1.9-.7-2.8-.2l-6.8,4.2c-.7.5-1.7.5-2.4,0l-2-1.2c-.7-.4-1.2-1.2-1.2-2.1l.2-8c0-1-.6-1.9-1.6-2.3l-2.2-.8c-1-.4-2,0-2.7.8l-4.9,6.3c-.5.7-1.4,1-2.3.9l-2.3-.4c-.9-.2-1.6-.8-1.8-1.6l-2.5-7.6c-.3-1-1.2-1.6-2.3-1.6h-2.3c-1,0-1.9.7-2.3,1.6l-2.5,7.6c-.3.8-1,1.4-1.8,1.6l-2.3.4c-.9.2-1.7-.2-2.3-.9l-5-6.3c-.6-.8-1.7-1.1-2.7-.8l-2.2.8c-1,.4-1.6,1.3-1.6,2.3l.2,8c0,.9-.4,1.7-1.2,2.1l-2,1.1c-.8.4-1.7.4-2.4,0l-6.8-4.2c-.9-.5-2-.5-2.8.2l-1.8,1.5c-.8.7-1.1,1.7-.7,2.7l3,7.4c.3.8.2,1.7-.4,2.4l-1.5,1.8c-.6.7-1.4,1-2.3.8l-7.8-1.6c-1-.2-2,.3-2.5,1.1l-1.1,2c-.5.9-.4,2,.3,2.8l5.3,6c.6.7.8,1.6.5,2.4l-.8,2.2c-.3.8-1,1.4-1.9,1.5l-7.9,1.2c-1,.1-1.8.9-2,1.9l-.4,2.3c-.2,1,.3,2,1.2,2.5l7,3.8c.8.4,1.2,1.2,1.2,2.1v2.3c0,.9-.5,1.7-1.2,2.1l-7,3.8c-.9.5-1.4,1.5-1.2,2.5l.4,2.3c.2,1,1,1.8,2,1.9l7.9,1.2c.9.1,1.6.7,1.9,1.5l.8,2.2c.3.8,0,1.7-.5,2.4l-5.3,6c-.7.8-.8,1.9-.3,2.8l1.2,2c.5.9,1.5,1.3,2.5,1.1l7.8-1.6c.9-.2,1.7.1,2.3.8l1.5,1.8c.6.7.7,1.6.4,2.4l-2.9,7.4c-.4.9,0,2,.7,2.7l1.8,1.5c.8.7,1.9.7,2.8.2l6.8-4.2c.7-.5,1.7-.5,2.4,0l2,1.2c.7.4,1.2,1.3,1.2,2.1l-.2,8c0,1,.6,1.9,1.6,2.3l2.2.8c1,.4,2,0,2.7-.8l4.9-6.3c.5-.7,1.4-1,2.3-.9l2.3.4c.9.2,1.6.8,1.8,1.6l2.5,7.6c.3,1,1.2,1.6,2.3,1.6h2.3c1,0,1.9-.7,2.3-1.6l2.5-7.6c.3-.8,1-1.4,1.8-1.6l2.3-.4c.9-.2,1.7.2,2.3.9l5,6.3c.6.8,1.7,1.1,2.7.8l2.2-.8c1-.4,1.6-1.3,1.6-2.3l-.2-8c0-.9.4-1.7,1.2-2.1l2-1.1c.8-.4,1.7-.4,2.4,0l6.8,4.2c.9.5,2,.5,2.8-.2l1.8-1.5c.8-.7,1.1-1.7.7-2.7l-3-7.4c-.3-.8-.2-1.7.4-2.4l1.5-1.8c.6-.7,1.4-1,2.3-.8l7.8,1.6c1,.2,2-.3,2.5-1.1l1.1-2c.5-.9.4-2-.3-2.8l-5.3-6c-.6-.7-.8-1.6-.5-2.4l.8-2.2c.3-.8,1-1.4,1.9-1.5l7.9-1.2c1-.1,1.8-.9,2-1.9l.4-2.3c.2-1-.3-2-1.2-2.5M68.9,107.2c-21.3,0-38.5-17.2-38.5-38.5s17.2-38.5,38.5-38.5,38.5,17.2,38.5,38.5-17.2,38.5-38.5,38.5"/>
    </g>
  </g>
</svg>