<?xml version="1.0" encoding="utf-8"?>
<!-- Generator: Adobe Illustrator 27.5.0, SVG Export Plug-In . SVG Version: 6.00 Build 0)  -->
<svg version="1.1" id="Capa_1" xmlns="http://www.w3.org/2000/svg" xmlns:xlink="http://www.w3.org/1999/xlink" x="0px" y="0px"
	 viewBox="0 0 1096.1 411.4" style="enable-background:new 0 0 1096.1 411.4;" xml:space="preserve">
<style type="text/css">
	.st0{fill:#04AEEF;}
</style>
<path class="st0" d="M1071.8,162c-0.2-0.8-0.4-1.5-0.6-2.2c-1.5-5.6-3-11.2-4.6-16.8c-1.3-4.4-2.6-8.7-3.9-13.1
	c-0.1-0.4-0.3-0.7-0.5-1.1c-1.7-3.7-3.3-7.4-4.9-11.1c-1.3-3-2.6-5.9-4-8.8c-1-2.1-2.1-4.1-3.3-6.1c-2.4-3.9-4.8-7.9-7.4-11.7
	c-3.4-5.1-6.7-10.3-10.5-15.1c-4.1-5.2-8.6-10.3-13.4-15c-5.6-5.7-11.6-10.9-17.6-16.2c-2.8-2.4-5.9-4.5-8.9-6.7
	c-3.6-2.6-7.1-5.4-10.9-7.7c-4.1-2.5-8.4-4.6-12.6-6.9c-2.3-1.2-4.5-2.5-6.8-3.6c-3.3-1.6-6.7-3.3-10.1-4.7c-3.8-1.5-7.7-2.7-11.5-4
	c-4.5-1.6-9-3.5-13.6-4.6c-6.9-1.6-14-2.6-21-3.9c-10.3-1.9-20.6-2.8-31.1-2.7c-9.8,0.1-19.5,1-29.1,2.8c-6.9,1.3-13.9,2.4-20.8,3.8
	c-3.4,0.7-6.7,1.8-10,2.9c-2.9,0.9-5.8,1.9-8.7,3c-3,1.1-6,2.4-8.9,3.7c-3.3,1.5-6.5,3.1-9.8,4.7c-2.8,1.3-5.6,2.6-8.2,4.1
	c-4,2.4-8,5-11.9,7.6c-4,2.6-8,5.1-11.7,8c-5.3,4.2-10.5,8.4-15.3,13.1c-6.6,6.5-12.9,13.4-19.1,20.3c-2.5,2.9-4.7,6.1-7,9.3
	c-2.6,3.7-5.3,7.3-7.7,11.2c-2.5,4-4.7,8.2-6.9,12.3c-1.2,2.1-2.3,4.2-3.3,6.4c-1.6,3.6-3.5,7.1-4.8,10.8c-0.8,2.5-2,4.3-4.8,5.1
	c-0.2-1.3-0.6-2.5-0.6-3.7c0-7.9-2.4-15.3-4.1-22.8c-0.9-3.8-2.5-7.5-4-11.2c-1.3-3.2-2.9-6.4-4.5-9.6c-1.4-2.8-2.7-5.7-4.5-8.3
	c-3.4-4.9-6.9-9.9-10.8-14.5c-3.3-3.8-7-7.3-10.7-10.7c-3.3-2.9-6.8-5.6-10.4-8.1c-3.5-2.5-7-4.7-10.7-6.8c-2.8-1.6-5.8-2.8-8.7-4.1
	c-6-2.6-11.8-5.5-18-7.6c-7.1-2.4-14.4-4.4-21.8-5.9c-7.5-1.6-15.2-2.8-22.9-3.5c-9.2-0.8-18.5-1.1-27.7-1.1
	c-56.4,0-112.8,0-169.2,0c-0.8,0-1.7,0-2.5,0c-2.1-0.1-3,1.1-3.1,3c0,0.8,0,1.7,0,2.5c0,23.3,0,46.7,0,70c0,2-0.5,4-0.7,6
	c-0.3,0-0.6-0.1-0.8,0.6c-1.4-2.8-2.8-5.5-4.2-8.3c-1.4-2.8-2.5-5.9-4.3-8.4c-4.3-6.2-8.5-12.6-13.6-18
	c-6.2-6.6-13.1-12.8-20.3-18.3c-5.5-4.2-11.9-7-18-10.4c-2.4-1.3-4.9-2.4-7.4-3.5c-3.8-1.7-7.7-3.4-11.7-4.7c-4.9-1.6-10-2.9-15.1-4
	c-8.6-1.8-17.2-3.8-25.9-4.9c-7.6-1-15.3-1.1-23-1.1c-60,0-120.1,0-180.2,0c-4.2,0-4.7,0.5-4.7,4.6c0,122.5,0,245,0,367.5
	c0,3.6,0.4,4.1,4,4.1c46.3,0,92.7,0,139,0c4.3,0,4.9-0.6,4.9-4.9c0-32,0-64.1,0-96.2c0-5.7,1-6.7,6.6-6.7c23.5-0.1,47,0,70.5-0.6
	c7.5-0.2,15.1-2.3,22.6-3.6c0.5-0.1,0.9-0.3,1.4-0.5c1.9-0.6,3.7-1.1,5.5-1.7c4-1.3,7.9-2.6,11.8-4c2.4-0.9,4.6-1.9,6.8-3.1
	c2.8-1.5,5.5-3.1,8.2-4.7c3.9-2.4,8-4.7,11.6-7.5c3.9-3,7.4-6.7,11.2-10.1c6.5-5.8,11.5-12.8,16.1-20.1c2.9-4.6,4.9-9.7,7.3-14.6
	c0.2-0.4,0.5-0.7,0.8-1.1c0.3,0,0.6,0,0.9,0c0.3,2.4,0.7,4.9,0.7,7.4c0,55.7,0,111.3,0,167c0,4.7,0.1,4.9,4.9,4.9
	c46.7,0,93.5,0,140.2,0c0.5,0,1.1,0,1.7,0c2.2,0.1,3.1-1.1,3.1-3.2c0-1.2,0-2.3,0-3.5c0-24.7-0.1-49.3,0-74c0-1.7,0.5-3.5,0.8-5.3
	c0.3,0,0.6,0,0.9,0c1.5,2.6,2.9,5.1,4.3,7.7c1.4,2.7,2.6,5.5,4,8.2c1.5,3,3.2,5.8,4.7,8.7s2.7,5.8,4.2,8.7c2.5,4.8,5.2,9.4,7.6,14.2
	c2.4,4.7,4.6,9.6,7,14.3c3.5,6.7,7.5,13.3,10.6,20.2c1.5,3.4,3.6,4.2,6.7,4.1c0.8,0,1.7,0,2.5,0c54.5,0,109,0,163.5,0
	c1.2,0,2.4,0.1,3.5-0.1c1.1-0.3,2.2-0.9,3.5-1.4c-2.4-3.4-4.4-6.3-6.4-9.2c-2.4-3.4-4.7-6.8-7.1-10.2c-2.8-4.1-5.5-8.1-8.3-12.1
	c-2.4-3.4-4.8-6.9-7.2-10.4c-2.3-3.5-4.6-6.9-7-10.3c-3.5-5-7.1-10-10.6-15c-2.7-3.9-5.3-7.8-8-11.7c-3.3-4.8-6.8-9.6-10.1-14.4
	c-3.4-5.1-6.7-10.2-10.2-15.3c-3.8-5.6-7.7-11-11.5-16.5c-1.3-1.8-2.4-3.7-3.9-5.4c-3.1-3.6-6.4-7-9.5-10.5c-0.5-0.6-1-1.4-1.1-2.2
	c-0.1-0.7,0.3-1.9,0.8-2.2c2.1-1.2,4.4-2.1,6.5-3.2c4.5-2.3,9.3-4.3,13.6-7.1c5.2-3.4,10-7.1,14.6-11.2c5.1-4.5,9.9-9.6,13.1-15.8
	c0.3-0.5,0.5-1.1,0.7-1.6c0.3,0.2,0.7,0.3,1,0.5c0.3,1.3,0.7,2.7,0.9,4c1.1,9.8,2,19.7,3.3,29.5c0.8,5.1,2.1,10.2,3.4,15.3
	c0.6,2.6,1.6,5.2,2.5,7.8c0.2,0.6,0.6,1.1,1,1.7c2.7-1.9,5.3-3.8,7.8-5.6c4.7-3.4,9.4-6.8,14.1-10.2c4.8-3.5,9.6-7.1,14.4-10.6
	c3.3-2.4,6.6-4.7,9.9-7.1c4.8-3.5,9.5-7.2,14.3-10.7c5.1-3.7,10.3-7.3,15.4-11c4.8-3.5,9.5-7,14.3-10.4c3.4-2.5,6.8-4.8,10.1-7.3
	c4.8-3.5,9.5-7,14.2-10.5c3.2-2.4,6.6-4.6,9.9-7c5.3-3.8,10.5-7.8,15.9-11.5c3.1-2.2,3.6-4.7,1.3-7.7c-3.6-4.6-7.1-9.3-10.5-14.1
	c-4.8-6.6-9.4-13.4-14.1-20.1c-0.9-1.3-0.6-2.1,0.9-2.1c1.8,0.1,3.6,0.4,5.4,0.8c2.5,0.5,4.9,1.1,7.3,1.6c7.1,1.4,14.3,2.7,21.5,4
	c0.5,0.1,0.9,0.4,1.4,0.5c2.3,0.5,4.5,1.1,6.8,1.5c7.3,1.4,14.5,2.7,21.8,4c0.6,0.1,1.1,0.4,1.7,0.5c2.2,0.5,4.4,1.1,6.6,1.5
	c7.2,1.3,14.4,2.6,21.6,3.9c0.6,0.1,1.3,0.4,1.9,0.6c2.2,0.5,4.4,1.1,6.6,1.5c7.2,1.3,14.4,2.6,21.6,3.9c0.5,0,0.9,0.3,1.4,0.4
	c2.6,0.6,5.3,1.1,8,1.7c3.3,0.8,6.5,1.4,9.7,2.3c1.8,0.5,2.8,1.8,2.5,4c-1.2,8.4-2.3,16.8-3.3,25.2c-1.3,11.6-2.5,23.1-3.9,34.7
	c-0.8,6-1.8,11.9-2.6,17.8c-1.4,11.3-2.7,22.6-4.1,33.9c-0.1,0.6-0.3,1.1-0.4,1.7c-0.5,3.5-1,6.9-1.5,10.4c-0.9,6-1.6,12-2.6,18
	c-0.2,1.2-1.1,2.2-1.8,3.6c-2.5-3.4-4.8-6.2-6.9-9.2c-5.6-7.8-11-15.7-16.6-23.5c-1.6-2.3-3.5-4.4-5.4-6.5c-0.3-0.4-1.5-0.7-2-0.4
	c-1.5,0.9-2.8,2.1-4.2,3.1c-4.8,3.5-9.6,7.1-14.4,10.6c-4.7,3.5-9.6,6.8-14.3,10.3c-4.8,3.5-9.4,7.1-14.1,10.6
	c-5,3.6-10.1,7.2-15.1,10.9c-3.3,2.3-6.4,4.8-9.6,7.1c-5.1,3.8-10.3,7.5-15.5,11.2c-4.7,3.4-9.4,6.8-14.1,10.2
	c-3.3,2.4-6.6,4.7-9.9,7.1c-4.8,3.5-9.5,7.1-14.3,10.7c-5.2,3.9-10.4,7.8-15.7,11.7c-1.8,1.3-1.6,2.4,0.2,3.6
	c4,2.7,7.9,5.6,11.9,8.2c3.1,2,6.3,3.9,9.6,5.7c2.8,1.5,5.7,2.8,8.5,4.1c2.7,1.2,5.4,2.5,8.1,3.7c3.6,1.6,7,3.3,10.7,4.6
	c4.7,1.6,9.5,2.9,14.3,4.2c5.7,1.6,11.4,3.8,17.3,4.5c11.3,1.5,22.6,4,34.2,3.7c9.6-0.2,19.1,0,28.6-2c6.4-1.3,13.1-0.9,19.3-3.5
	c0.5-0.2,1.1-0.2,1.7-0.3c5.1-1.3,10.2-2.5,15.2-3.9c2.6-0.8,5.1-1.7,7.7-2.7c2.8-1,5.6-2.1,8.3-3.3c2.5-1.2,5.1-2.3,7.6-3.6
	c2.9-1.5,5.7-3.1,8.5-4.6s5.7-2.8,8.3-4.5c5.1-3.3,10.2-6.6,15.1-10.3c5.7-4.3,11.4-8.7,16.7-13.6c5.6-5.2,10.9-10.7,16-16.4
	c4.8-5.4,9.2-11.3,13.6-17.1c2.5-3.5,4.8-7.2,6.9-10.9c3-5,5.7-10.2,8.4-15.4c1.4-2.7,2.6-5.4,3.8-8.1c1.6-3.6,3.3-7,4.6-10.7
	c1.6-4.5,2.8-9.2,4.1-13.8c1.6-5.8,3.5-11.6,4.6-17.5c1.4-7.3,2.2-14.6,3-22C1076.6,197.2,1074.3,179.6,1071.8,162z M232.3,154
	c-0.1,5.5-2.7,10.3-5,15.1c-2.9,6.1-8.3,9.6-13.6,13.1c-2.3,1.5-5,2.6-7.7,3.4c-8.6,2.7-17.5,3.9-26.5,3.7c-8.2-0.2-16.3,0-24.5-0.1
	c-3,0-3.4-0.6-3.4-3.6c-0.1-12.3,0-24.4-0.1-36.6c0-11.3,0-22.6,0-34c0-0.7,0-1.5,0-2.2c0.1-4.2,0.4-4.5,4.6-4.5
	c7.8,0,15.7-0.4,23.5,0.1c8.2,0.5,16.5,1.2,24.5,3.1c8.1,1.9,15.9,5.6,21.2,12.5c3.9,5.1,6.8,10.9,7,17.5
	C232.4,145.7,232.4,149.8,232.3,154z M552.9,166c-2.4,5.8-6.5,10.6-12.1,14.1c-10.3,6.4-21.9,7.4-33.4,8.2c-6.5,0.4-13,0.1-19.5,0.2
	c-2.3,0.1-3.4-0.9-3.5-3.1c-0.1-1.2-0.2-2.5-0.2-3.7c-0.1-11.3-0.1-22.4-0.1-33.6c0-10.6,0-21.2,0-31.7c0-0.8,0-1.7,0-2.5
	c0.1-5.4,0.3-5.6,5.6-5.6c5.8,0,11.7-0.4,17.5,0.1c7.8,0.6,15.7,1.2,23.2,3.2s14.5,6,19,12.8c3.9,5.9,5.8,12.6,6.7,19.6
	C557.1,151.6,555.7,159.1,552.9,166z"/>
</svg>
