<?xml version="1.0" encoding="utf-8"?>
<!-- Generator: $$$/GeneralStr/196=Adobe Illustrator 27.6.0, SVG Export Plug-In . SVG Version: 6.00 Build 0)  -->
<svg version="1.1" id="Capa_1" xmlns="http://www.w3.org/2000/svg" xmlns:xlink="http://www.w3.org/1999/xlink" x="0px" y="0px"
	 viewBox="0 0 550 142" style="enable-background:new 0 0 550 142;" xml:space="preserve">
<style type="text/css">
	.st0{fill:#007BBE;}
	.st1{fill:#211915;}
</style>
<g id="_Grupo_">
	<g id="_Grupo_2">
		<path id="_Trazado_compuesto_" class="st0" d="M14.1,112.4V50.6c0-3.1,2.5-5.6,5.6-5.6c2.7-0.1,5.2,1.7,5.8,4.4
			c4.3-2.8,9.3-4.3,14.5-4.4c14.1,0,25.7,12.1,25.7,26.7S54.1,98,40,98c-5.1,0.1-10.1-1.5-14.2-4.4v18.7c-0.1,3.2-2.8,5.8-6.1,5.7
			C16.6,118,14.1,115.5,14.1,112.4z M25.8,71.7c0,4.1,1.4,8.2,4.1,10.6c2.5,2.9,6.2,4.5,10.1,4.5c3.8,0,7.4-1.6,10-4.5
			c2.7-2.9,4.2-6.7,4.1-10.6c0-4-1.5-7.8-4.1-10.7c-2.6-2.8-6.2-4.3-10-4.4c-3.8-0.1-7.5,1.5-10.1,4.4
			C27.1,63.8,25.7,67.7,25.8,71.7z"/>
		<path id="_Trazado_compuesto_2" class="st0" d="M104.2,50.6c0,3.1-2.5,5.6-5.6,5.6c-2.3-0.1-4.5,0.6-6.4,2c-2,1.3-3.7,3.1-4.9,5.1
			c-1.9,2.7-3.4,5.7-4.4,8.9v20.2c-0.1,3.2-2.7,5.7-5.8,5.6c-3.1,0-5.6-2.5-5.6-5.6V50.6c0-3.1,2.6-5.5,5.6-5.5
			c3.1-0.1,5.7,2.4,5.8,5.5v0.7c0.7-0.8,1.4-1.5,2.2-2.1c3.9-2.7,8.6-4.2,13.4-4.1c3-0.1,5.6,2.3,5.6,5.4
			C104.2,50.5,104.2,50.6,104.2,50.6z"/>
		<path id="_Trazado_compuesto_3" class="st0" d="M107.6,90.4c-4.8-5-7.4-11.7-7.3-18.7c0-6.9,2.6-13.5,7.3-18.6
			c4.7-5.1,11.3-8.1,18.3-8.1c6.8,0,13.3,2.9,17.7,8.1c4.8,5,7.5,11.7,7.4,18.6c0.2,7-2.5,13.7-7.4,18.7c-4.5,5.1-10.9,8.1-17.7,8.1
			C118.9,98.4,112.2,95.5,107.6,90.4z M111.8,71.7c-0.1,4.1,1.2,8.1,3.8,11.3c2.8,2.6,6.4,4,10.2,3.9c3.6,0,7.2-1.4,9.8-3.9
			c2.8-3.1,4.2-7.1,4.1-11.3c0.1-4.1-1.4-8-4.1-11c-2.7-2.5-6.1-3.9-9.8-4c-3.8,0-7.4,1.5-10.2,4C113.1,63.8,111.7,67.7,111.8,71.7
			L111.8,71.7z"/>
	</g>
	<g id="_Grupo_3">
		<path id="_Trazado_compuesto_4" class="st1" d="M203.4,88c-4.7,6.4-12.1,10.1-20,10.1c-14,0-25.2-11.7-25.2-25.9
			c0-14.4,11.2-26.1,25.2-26.1c7.9,0,15.3,3.8,20,10.2v-30c0-1.4,1.2-2.6,2.6-2.6c1.4,0,2.6,1.2,2.6,2.6v69.3c0,1.4-1.2,2.6-2.6,2.6
			c-1.4,0-2.6-1.2-2.6-2.6V88z M203.4,73v-1.7c-0.4-11.2-9.2-20.1-20-20.1c-10.9,0-20,9.3-20,20.9s9,20.7,20,20.7
			C194.2,92.9,203,84.1,203.4,73z"/>
		<path id="_Trazado_compuesto_5" class="st1" d="M262.8,48.6v47c0,1.4-1.1,2.6-2.5,2.6c-1.4,0-2.6-1.1-2.6-2.6v-7.8
			c-4.5,6.4-11.8,10.2-19.6,10.3c-13.7,0-24.6-11.8-24.6-26s10.9-26,24.6-26c7.8,0.1,15.1,3.9,19.6,10.2v-7.7c0-1.4,1.1-2.6,2.6-2.6
			C261.7,46.1,262.8,47.2,262.8,48.6z M257.7,72.1c0-11.7-8.8-21-19.6-21s-19.6,9.3-19.6,21S227.6,93,238.2,93
			S257.7,83.8,257.7,72.1z"/>
		<path id="_Trazado_compuesto_6" class="st1" d="M274.4,26.3c0-1.4,1.2-2.6,2.6-2.6c1.4,0,2.6,1.2,2.6,2.6l0,0v69.3
			c0,1.4-1.2,2.6-2.6,2.6c-1.4,0-2.6-1.2-2.6-2.6V26.3z"/>
		<path id="_Trazado_compuesto_7" class="st1" d="M292.1,72c0-14.4,11.9-25.9,26.8-25.9c6,0,11.8,2,16.6,5.7
			c1.1,0.8,1.2,2.3,0.4,3.4c0,0-0.1,0.1-0.1,0.1c-0.9,1-2.4,1.2-3.5,0.4c-3.8-3-8.5-4.7-13.4-4.7c-12.1,0-21.7,9.5-21.7,20.9
			c0,11.7,9.6,21,21.7,21c4.8,0,9.6-1.6,13.4-4.6c1.1-0.8,2.6-0.6,3.5,0.4c0.9,1.1,0.8,2.7-0.3,3.6c-0.1,0.1-0.1,0.1-0.2,0.2
			c-4.7,3.6-10.4,5.5-16.4,5.5C304,98.1,292.1,86.7,292.1,72z"/>
		<path id="_Trazado_compuesto_8" class="st1" d="M387.4,48.6v47c0,1.4-1.1,2.6-2.5,2.6c-1.4,0-2.6-1.1-2.6-2.6v-7.8
			c-4.5,6.4-11.8,10.2-19.5,10.3c-13.7,0-24.6-11.8-24.6-26s10.9-26,24.6-26c7.8,0.1,15.1,3.9,19.5,10.2v-7.7c0-1.4,1.1-2.6,2.6-2.6
			C386.3,46.1,387.4,47.2,387.4,48.6z M382.3,72.1c0-11.7-8.8-21-19.5-21s-19.5,9.3-19.5,21S352.2,93,362.8,93
			S382.3,83.8,382.3,72.1z"/>
	</g>
	<g id="_Grupo_4">
		<path id="_Trazado_compuesto_9" class="st1" d="M164.6,113.5c0.2-0.2,0.4-0.2,0.6-0.1c0.8,0.6,1.8,1,2.8,1c0.6,0,1.2-0.2,1.7-0.6
			c0.4-0.2,0.7-0.6,0.7-1.1c0-0.4-0.3-0.9-0.6-1.1c-0.6-0.4-1.2-0.6-1.9-0.7l0,0c-0.7-0.1-1.4-0.3-2-0.7c-0.6-0.3-1-0.9-1-1.6
			c0-0.7,0.4-1.4,1-1.8c0.7-0.4,1.4-0.6,2.2-0.6c1,0.1,1.9,0.4,2.7,1c0.2,0.1,0.3,0.4,0.1,0.6c-0.1,0.2-0.4,0.3-0.6,0.1
			c-0.6-0.5-1.4-0.8-2.2-0.9c-0.6,0-1.2,0.2-1.7,0.5c-0.3,0.2-0.5,0.6-0.6,1c0,0.4,0.2,0.7,0.5,0.9c0.6,0.3,1.2,0.5,1.8,0.6l0,0
			c0.8,0.1,1.5,0.4,2.2,0.7c0.6,0.4,1,1.1,1,1.8c0,0.7-0.4,1.4-1,1.8c-0.6,0.5-1.4,0.7-2.2,0.7c-1.2,0-2.4-0.5-3.3-1.3
			C164.5,113.9,164.5,113.6,164.6,113.5z"/>
		<path id="_Trazado_compuesto_10" class="st1" d="M179.2,106.3c2.5-0.1,4.6,1.8,4.7,4.2c0.1,2.5-1.8,4.6-4.2,4.7
			c-2.5,0.1-4.6-1.8-4.7-4.2c0-0.1,0-0.2,0-0.3C174.9,108.4,176.8,106.4,179.2,106.3z M179.2,114.4c2,0.1,3.7-1.4,3.9-3.4
			c0.1-2-1.4-3.7-3.4-3.9c-2-0.1-3.7,1.4-3.9,3.4c0,0.1,0,0.2,0,0.3C175.7,112.8,177.2,114.4,179.2,114.4z"/>
		<path id="_Trazado_compuesto_11" class="st1" d="M188,102.9c0-0.2,0.2-0.4,0.5-0.4c0.2,0,0.4,0.2,0.4,0.4v11.9
			c0,0.2-0.2,0.4-0.5,0.4c-0.2,0-0.4-0.2-0.4-0.4V102.9z"/>
		<path id="_Trazado_compuesto_12" class="st1" d="M193.4,106.8c0-0.2,0.2-0.4,0.4-0.4s0.4,0.2,0.4,0.4v4.9
			c-0.1,1.5,1.1,2.8,2.6,2.9s2.8-1.1,2.9-2.6c0-0.1,0-0.2,0-0.3v-4.9c0-0.2,0.2-0.4,0.4-0.4c0.2,0,0.4,0.2,0.5,0.4c0,0,0,0,0,0v4.9
			c0.1,2-1.4,3.7-3.5,3.8s-3.7-1.4-3.8-3.5c0-0.1,0-0.3,0-0.4L193.4,106.8z"/>
		<path id="_Trazado_compuesto_13" class="st1" d="M205.2,110.8c0-2.5,2.1-4.5,4.6-4.5c0,0,0,0,0.1,0c1,0,2,0.4,2.9,1
			c0.2,0.1,0.2,0.4,0.1,0.6c0,0,0,0,0,0c-0.2,0.2-0.4,0.2-0.6,0.1c-1.5-1.3-3.8-1.2-5.2,0.4c-1.3,1.5-1.2,3.8,0.4,5.2
			c0.7,0.6,1.6,0.9,2.5,0.9c0.8,0,1.6-0.3,2.3-0.8c0.2-0.1,0.4-0.1,0.6,0.1c0.2,0.2,0.1,0.5,0,0.6c0,0,0,0,0,0c-0.8,0.6-1.8,1-2.8,1
			c-2.5,0.1-4.6-1.9-4.6-4.4C205.2,110.9,205.2,110.9,205.2,110.8z"/>
		<path id="_Trazado_compuesto_14" class="st1" d="M217.5,103.9c0-0.2,0.2-0.4,0.5-0.4c0.2,0,0.4,0.2,0.4,0.4v0.4
			c0,0.2-0.2,0.5-0.4,0.5c-0.2,0-0.5-0.2-0.5-0.4c0,0,0,0,0,0V103.9z M217.5,106.8c0-0.2,0.2-0.4,0.4-0.4c0,0,0,0,0,0
			c0.2,0,0.4,0.2,0.5,0.4c0,0,0,0,0,0v8.1c0,0.2-0.2,0.4-0.5,0.4c-0.2,0-0.4-0.2-0.4-0.4L217.5,106.8z"/>
		<path id="_Trazado_compuesto_15" class="st1" d="M227.5,106.3c2.5-0.1,4.6,1.8,4.7,4.2c0.1,2.5-1.8,4.6-4.2,4.7
			c-2.5,0.1-4.6-1.8-4.7-4.2c0-0.1,0-0.2,0-0.3C223.2,108.4,225.1,106.4,227.5,106.3z M227.5,114.4c2,0.1,3.7-1.4,3.9-3.4
			c0.1-2-1.4-3.7-3.4-3.9c-2-0.1-3.7,1.4-3.9,3.4c0,0.1,0,0.2,0,0.3C224.1,112.8,225.6,114.4,227.5,114.4z"/>
		<path id="_Trazado_compuesto_16" class="st1" d="M242.7,110c0-1.5-1.2-2.8-2.7-2.8c0,0,0,0,0,0c-1.5,0-2.8,1.2-2.8,2.8v5
			c0,0.1,0,0.1-0.1,0.2c-0.1,0.1-0.2,0.2-0.3,0.2h-0.1c-0.1,0-0.2-0.1-0.3-0.2c0,0,0,0,0-0.1l0,0v-8.2c0-0.2,0.2-0.4,0.4-0.4
			c0.2,0,0.4,0.2,0.4,0.4v0.9c1.3-1.5,3.6-1.7,5.1-0.5c0.8,0.7,1.3,1.7,1.3,2.8v4.9c0,0.2-0.2,0.4-0.4,0.4s-0.4-0.2-0.4-0.4
			L242.7,110z"/>
		<path id="_Trazado_compuesto_17" class="st1" d="M247.9,110.9c0-2.4,2-4.3,4.4-4.3c2.2,0,4,1.7,4.3,3.9v0.1c0,0.2-0.2,0.4-0.4,0.4
			c0,0,0,0,0,0h-7.4c0,1.9,1.6,3.4,3.5,3.4c1.2,0,2.3-0.6,2.9-1.6c0.1-0.2,0.4-0.3,0.6-0.2c0,0,0,0,0,0c0.2,0.1,0.3,0.4,0.1,0.6
			c-0.8,1.2-2.2,2-3.6,2C249.9,115.2,247.9,113.3,247.9,110.9z M248.9,110.1h6.8c-0.3-1.7-1.7-2.9-3.4-2.9
			C250.6,107.3,249.2,108.5,248.9,110.1L248.9,110.1z"/>
		<path id="_Trazado_compuesto_18" class="st1" d="M260.2,113.5c0.2-0.2,0.4-0.2,0.6-0.1c0.8,0.6,1.8,1,2.8,1c0.6,0,1.2-0.2,1.7-0.6
			c0.4-0.2,0.7-0.6,0.7-1.1c0-0.4-0.3-0.9-0.6-1.1c-0.6-0.4-1.2-0.6-1.9-0.7l0,0c-0.7-0.1-1.4-0.3-2-0.7c-0.6-0.3-1-0.9-1-1.6
			c0-0.7,0.4-1.4,1-1.8c0.7-0.4,1.4-0.6,2.2-0.6c1,0.1,1.9,0.4,2.7,1c0.2,0.1,0.3,0.4,0.1,0.6c-0.1,0.2-0.4,0.3-0.6,0.1
			c-0.6-0.5-1.4-0.8-2.2-0.9c-0.6,0-1.2,0.2-1.7,0.5c-0.3,0.2-0.5,0.6-0.6,1c0,0.4,0.2,0.7,0.5,0.9c0.6,0.3,1.2,0.5,1.8,0.6l0,0
			c0.8,0.1,1.5,0.4,2.2,0.7c0.6,0.4,1,1.1,1,1.8c0,0.7-0.4,1.4-1,1.8c-0.6,0.5-1.4,0.7-2.2,0.7c-1.2,0-2.4-0.5-3.3-1.3
			C260.2,113.9,260.1,113.6,260.2,113.5z"/>
		<path id="_Trazado_compuesto_19" class="st1" d="M277.6,103.9c0-0.2,0.2-0.4,0.5-0.4c0.2,0,0.4,0.2,0.4,0.4v0.4
			c0,0.2-0.2,0.5-0.4,0.5c-0.2,0-0.5-0.2-0.5-0.4c0,0,0,0,0,0V103.9z M277.6,106.8c0-0.2,0.2-0.4,0.4-0.4c0,0,0,0,0,0
			c0.2,0,0.4,0.2,0.5,0.4c0,0,0,0,0,0v8.1c0,0.2-0.2,0.4-0.5,0.4c-0.2,0-0.4-0.2-0.4-0.4V106.8z"/>
		<path id="_Trazado_compuesto_20" class="st1" d="M290.2,110c0-1.5-1.2-2.8-2.7-2.8c0,0,0,0,0,0c-1.5,0-2.8,1.2-2.8,2.8v5
			c0,0.1,0,0.1-0.1,0.2c-0.1,0.1-0.2,0.2-0.3,0.2h-0.1c-0.1,0-0.2-0.1-0.3-0.2c0,0,0,0,0-0.1l0,0v-8.2c0-0.2,0.2-0.4,0.4-0.4
			c0.2,0,0.4,0.2,0.4,0.4c0,0,0,0,0,0v0.9c1.3-1.5,3.6-1.7,5.1-0.3c0.8,0.7,1.2,1.6,1.2,2.6v4.9c0,0.2-0.2,0.4-0.4,0.4
			s-0.4-0.2-0.4-0.4L290.2,110z"/>
		<path id="_Trazado_compuesto_21" class="st1" d="M299.3,106.8c0,0.2-0.2,0.4-0.4,0.4h-1.1v6.5c0,0.4,0.3,0.6,0.7,0.7
			c0.2,0,0.4,0.2,0.5,0.5c0,0.2-0.2,0.4-0.5,0.4c-0.8,0-1.6-0.6-1.6-1.5c0,0,0-0.1,0-0.1v-6.5h-1.1c-0.4,0-0.4-0.2-0.4-0.4
			s0-0.4,0.4-0.4h1.1V103c0-0.2,0.2-0.4,0.4-0.4c0.2,0,0.5,0.2,0.5,0.4v3.3h1.1C299.1,106.3,299.3,106.5,299.3,106.8z"/>
		<path id="_Trazado_compuesto_22" class="st1" d="M303.2,110.9c0-2.4,2-4.3,4.4-4.3c2.2,0,4,1.7,4.3,3.9v0.1c0,0.2-0.2,0.4-0.4,0.4
			c0,0,0,0,0,0h-7.4c0,1.9,1.6,3.4,3.5,3.4c1.2,0,2.3-0.6,2.9-1.6c0.1-0.2,0.4-0.3,0.6-0.2c0,0,0,0,0,0c0.2,0.1,0.3,0.4,0.1,0.6
			c-0.8,1.2-2.2,2-3.6,2C305.1,115.2,303.2,113.3,303.2,110.9z M304.1,110.1h6.8c-0.3-1.7-1.7-2.9-3.4-2.9
			C305.9,107.3,304.4,108.5,304.1,110.1L304.1,110.1z"/>
		<path id="_Trazado_compuesto_23" class="st1" d="M316.2,102.9c0-0.2,0.2-0.4,0.5-0.4c0.2,0,0.4,0.2,0.4,0.4v11.9
			c0,0.2-0.2,0.4-0.5,0.4c-0.2,0-0.4-0.2-0.4-0.4V102.9z"/>
		<path id="_Trazado_compuesto_24" class="st1" d="M321.8,103.9c0-0.2,0.2-0.4,0.5-0.4c0.2,0,0.4,0.2,0.4,0.4v0.4
			c0,0.2-0.2,0.5-0.4,0.5c-0.2,0-0.5-0.2-0.5-0.4c0,0,0,0,0,0V103.9z M321.8,106.8c0-0.2,0.2-0.4,0.4-0.4c0,0,0,0,0,0
			c0.2,0,0.4,0.2,0.5,0.4c0,0,0,0,0,0v8.1c0,0.2-0.2,0.4-0.5,0.4c-0.2,0-0.4-0.2-0.4-0.4V106.8z"/>
		<path id="_Trazado_compuesto_25" class="st1" d="M335.9,114.6c0,2.3-1.9,4.2-4.2,4.2h0c-0.6,0-1.3-0.2-1.9-0.4
			c-0.2-0.1-0.3-0.4-0.2-0.6c0.1-0.2,0.3-0.3,0.5-0.2c0,0,0,0,0.1,0c0.5,0.2,1,0.3,1.5,0.3c1.8,0,3.3-1.5,3.3-3.3c0,0,0,0,0,0v-1.1
			c-0.8,1.1-2,1.8-3.4,1.8c-2.5-0.2-4.3-2.3-4.2-4.8c0.1-2.2,1.9-4,4.2-4.2c1.3,0,2.6,0.7,3.4,1.8v-1.3c0-0.2,0.2-0.4,0.5-0.4
			c0,0,0,0,0,0c0.2,0,0.4,0.2,0.4,0.4L335.9,114.6z M335,110.8c-0.1-1.8-1.8-3.2-3.6-3.1c-1.8,0.1-3.2,1.8-3.1,3.6
			c0.1,1.7,1.6,3.1,3.3,3.1C333.6,114.4,335.1,112.8,335,110.8C335,110.8,335,110.8,335,110.8z"/>
		<path id="_Trazado_compuesto_26" class="st1" d="M340.6,110.9c0-2.4,2-4.3,4.4-4.3c2.2,0,4,1.7,4.3,3.9v0.1c0,0.2-0.2,0.4-0.4,0.4
			c0,0,0,0,0,0h-7.4c0,1.9,1.6,3.4,3.5,3.4c1.2,0,2.3-0.6,2.9-1.6c0.1-0.2,0.4-0.3,0.6-0.2c0,0,0,0,0,0c0.2,0.1,0.3,0.4,0.1,0.6
			c-0.8,1.2-2.2,2-3.6,2C342.5,115.2,340.6,113.3,340.6,110.9z M341.5,110.1h6.8c-0.3-1.7-1.7-2.9-3.4-2.9
			C343.2,107.3,341.8,108.5,341.5,110.1L341.5,110.1z"/>
		<path id="_Trazado_compuesto_27" class="st1" d="M359.9,110c0-1.5-1.2-2.8-2.7-2.8c0,0,0,0,0,0c-1.5,0-2.8,1.2-2.8,2.8v5
			c0,0.1,0,0.1-0.1,0.2c-0.1,0.1-0.2,0.2-0.3,0.2h-0.1c-0.1,0-0.2-0.1-0.3-0.2c0,0,0,0,0-0.1l0,0v-8.2c0-0.2,0.2-0.4,0.4-0.4
			c0.2,0,0.4,0.2,0.4,0.4c0,0,0,0,0,0v0.9c1.3-1.5,3.6-1.7,5.1-0.5c0.8,0.7,1.3,1.7,1.3,2.8v4.9c0,0.2-0.2,0.4-0.4,0.4
			s-0.4-0.2-0.4-0.4L359.9,110z"/>
		<path id="_Trazado_compuesto_28" class="st1" d="M368.9,106.8c0,0.2-0.2,0.4-0.4,0.4h-1.1v6.5c0,0.4,0.3,0.6,0.7,0.7
			c0.2,0,0.4,0.2,0.5,0.5c0,0.2-0.2,0.4-0.5,0.4c-0.8,0-1.6-0.6-1.6-1.5c0,0,0-0.1,0-0.1v-6.5h-1.1c-0.4,0-0.4-0.2-0.4-0.4
			s0-0.4,0.4-0.4h1.1V103c0-0.2,0.2-0.4,0.4-0.4c0.2,0,0.5,0.2,0.5,0.4v3.3h1.1C368.7,106.3,368.9,106.5,368.9,106.8z"/>
		<path id="_Trazado_compuesto_29" class="st1" d="M372.9,110.9c0-2.4,2-4.3,4.4-4.3c2.2,0,4,1.7,4.3,3.9v0.1c0,0.2-0.2,0.4-0.4,0.4
			c0,0,0,0,0,0h-7.4c0,1.9,1.6,3.4,3.5,3.4c1.2,0,2.3-0.6,2.9-1.6c0.1-0.2,0.4-0.3,0.6-0.2c0,0,0,0,0,0c0.2,0.1,0.3,0.4,0.1,0.6
			c-0.8,1.2-2.2,2-3.6,2C374.8,115.2,372.9,113.3,372.9,110.9z M373.8,110.1h6.8c-0.3-1.7-1.7-2.9-3.4-2.9
			C375.5,107.3,374.1,108.5,373.8,110.1L373.8,110.1z"/>
		<path id="_Trazado_compuesto_30" class="st1" d="M385.1,113.5c0.2-0.2,0.4-0.2,0.6-0.1c0.8,0.6,1.8,1,2.8,1c0.6,0,1.2-0.2,1.7-0.6
			c0.4-0.2,0.7-0.6,0.7-1.1c0-0.4-0.3-0.9-0.6-1.1c-0.6-0.4-1.2-0.6-1.9-0.7l0,0c-0.7-0.1-1.4-0.3-2-0.7c-0.6-0.3-1-0.9-1-1.6
			c0-0.7,0.4-1.4,1-1.8c0.7-0.4,1.4-0.6,2.2-0.6c1,0.1,1.9,0.4,2.7,1c0.2,0.1,0.3,0.4,0.1,0.6c-0.1,0.2-0.4,0.3-0.6,0.1
			c-0.6-0.5-1.4-0.8-2.2-0.9c-0.6,0-1.2,0.2-1.7,0.5c-0.3,0.2-0.5,0.6-0.6,1c0,0.4,0.2,0.7,0.5,0.9c0.6,0.3,1.2,0.5,1.8,0.6l0,0
			c0.8,0.1,1.5,0.4,2.2,0.7c0.6,0.4,1,1.1,1,1.8c0,0.7-0.4,1.4-1,1.8c-0.6,0.5-1.4,0.7-2.2,0.7c-1.2,0-2.4-0.5-3.4-1.3
			C385,113.9,385,113.6,385.1,113.5z"/>
	</g>
	<g id="_Grupo_5">
		<g id="_Grupo_6">
			<path class="st0" d="M535.7,71.6v-8.4c-1.6-14.8-7.9-27.7-18.9-38.7c-12.9-12.9-28.4-19.3-46.6-19.3s-33.7,6.4-46.5,19.3
				c-12.8,12.9-19.2,28.4-19.2,46.6c0,18.2,6.4,33.7,19.2,46.5c0.6,0.6,1.2,1.2,1.9,1.8V33.3c0-5.6,4.6-10.1,10.2-10.2
				c5.4,0,9.8,3.6,10.5,7.9c7.8-5,16.8-7.8,26.1-7.9c25.5,0,46.4,21.9,46.4,48.1s-20.9,47.6-46.4,47.6c-9.2,0.1-18.2-2.6-25.7-7.9
				v21.7c7.5,2.8,15.5,4.2,23.5,4.1c18.2,0,33.8-6.4,46.6-19.3c11.8-11.7,18.2-25.7,19.1-42C535.8,74.2,535.7,72.9,535.7,71.6z"/>
		</g>
		<g id="_Grupo_7">
			<path class="st0" d="M472.3,98.5c6.9,0,13.4-3,18-8.1c4.4-4.4,7.5-11.7,7.5-19.2c-0.1-7.1-2.7-14-7.5-19.4
				c-4.7-5-11.2-7.8-18-7.9c-6.9-0.1-13.5,2.8-18.2,7.9c-5,5-7.5,11.9-7.5,19.4s2.5,14.8,7.5,19.2C458.7,95.7,465.4,98.6,472.3,98.5
				z"/>
		</g>
	</g>
</g>
</svg>
