<?xml version="1.0" encoding="utf-8"?>
<!-- Generator: $$$/GeneralStr/196=Adobe Illustrator 27.6.0, SVG Export Plug-In . SVG Version: 6.00 Build 0)  -->
<svg version="1.1" id="Capa_1" xmlns="http://www.w3.org/2000/svg" xmlns:xlink="http://www.w3.org/1999/xlink" x="0px" y="0px"
	 viewBox="0 0 449 119" style="enable-background:new 0 0 449 119;" xml:space="preserve">
<g>
	<path d="M355.1,76.2c0.7-1,0.9-2.1,1.2-3.1c2.6-7.1,5.2-14.2,7.7-21.4c0.4-1.1,1-1.8,2-1.9c3.5-0.5,5.2-2.6,6.1-6
		c0.9-3.8,2.5-7.4,3.8-11.1c1.7-5.2,4.7-9.7,7.1-14.6c0.9-1.9,1.9-3.7,2.9-5.5c0.6-1,0.8-1,1.4-0.1c13.4,22.3,26.8,44.5,40.2,66.8
		c5.5,9.1,10.9,18.1,16.4,27.2c0.6,0.9,0.2,1.1-0.6,1.1c-1.4,0-2.8,0-4.2,0c-13.1,0-26.2,0-39.4,0c-2,0-2,0-2.2-1.9
		c-0.5-4.3-1-8.5-1.5-12.8c-0.1-1.1-0.6-1.6-1.7-1.5c-2.2,0.1-4.3,0-6.5,0c-0.9,0-1.2,0.3-1.2,1.2c-0.2,4.4,0.1,8.7,0.1,13.1
		c0,1.7-0.1,1.9-1.8,1.9c-16,0-32.1,0-48.1,0c-1.8,0-3.7,0-5.5,0c-1,0-0.8-0.6-0.4-1.1c3.2-4.7,6.5-9.3,9.7-14
		c0.5-0.7,1-0.7,1.4,0.1c0.1,0.1,0.2,0.3,0.2,0.4c0.2,0.3,0.3,0.9,0.8,0.9c0.5,0,0.6-0.5,0.7-0.9c1.6-3.7,3.1-7.4,4.7-11
		c1.2-2.9,3.1-5.5,4.7-8.3c0.1-0.2,0.3-0.5,0.7-0.5c0.3,0.1,0.4,0.4,0.5,0.7C354.4,74.6,354.5,75.4,355.1,76.2z M371.4,52.8
		c-0.1,0-0.2,0-0.4,0c-3.5,9.4-7,18.8-10.5,28.1c0.4,0.2,0.6,0,0.7-0.1c3-2.1,5.9-4.3,8.9-6.4c0.2-0.2,0.5-0.6,0.8-0.3
		c0.2,0.2-0.1,0.5-0.2,0.8c-0.8,1.4-1.6,2.7-2.4,4.1c-4.2,7-8.4,13.9-12.6,20.9c-0.2,0.3-0.6,0.6-0.3,1c0.3,0.3,0.7,0,1-0.1
		c1.8-0.7,3.6-1.4,5.4-2c6.3-2.3,12.5-4.5,18.8-6.8c0.7-0.2,1.4-0.3,1.1-1.5c-3.2-11.4-6.3-22.8-9.4-34.2
		C372,55.1,371.7,54,371.4,52.8z M386.7,79.6C386.7,79.6,386.7,79.6,386.7,79.6c0,1.5,0,3.1,0,4.6c0,0.8,0.2,1.2,1.1,1.2
		c2.2,0,4.3,0,6.5,0c0.8,0,1.1-0.4,1-1.2c-0.5-3-0.9-5.9-1.3-8.9c-0.1-1.1-0.6-1.6-1.8-1.5c-1.5,0.1-3.1,0.1-4.6,0.1
		c-0.7,0-0.8,0.4-0.8,0.9C386.7,76.5,386.7,78.1,386.7,79.6z M383.2,49.1c0.6-8.7,1.1-17.1,1.7-25.4c-2.5,5.4-4.7,10.8-7,16.2
		c-0.3,0.6-0.1,1.1,0.2,1.6c1,1.6,2,3.2,3,4.7C381.7,47.1,382.3,48.1,383.2,49.1z M386.7,64.2c0,1.2,0,2.5,0,3.7c0,0.8,0.3,1.1,1,1
		c1.3,0,2.6,0,3.9,0c1,0,1.3-0.4,1.2-1.4c-0.3-2.4-0.5-4.7-0.8-7.1c-0.1-0.7-0.5-0.9-1.1-0.9c-1.1,0-2.2,0-3.2,0c-0.7,0-1,0.3-1,1
		C386.8,61.8,386.7,63,386.7,64.2z M379.9,47.6c-1.1,4.6-2.2,9.2-3.2,13.8c1.8-1.8,3.2-3.7,4.7-5.6c0.4-0.5,0.5-1.1,0.3-1.8
		c-0.4-1.8-0.9-3.6-1.3-5.5C380.3,48.2,380.4,47.8,379.9,47.6z M386.7,52.2c0.1,3.8-0.7,3.2,3.4,3.3c0,0,0.1,0,0.1,0
		c0.8,0.1,1.1-0.4,1-1.2c-0.2-1.5-0.3-3-0.5-4.5c-0.1-0.6-0.4-0.9-1-0.9c-2.8-0.3-3.1,0-3.1,2.8C386.7,51.9,386.7,52,386.7,52.2z
		 M389.3,38.1c-0.2-1.6-0.4-3.2-0.5-4.8c-0.1-0.6-0.4-1-1.1-0.9c-0.5,0-0.9,0.2-0.9,0.8c0,1.7-0.1,3.4,0,5.1c0,1,0.9,0.9,1.6,0.9
		C389,39.1,389.4,38.8,389.3,38.1z M386.7,44C386.7,44,386.7,44,386.7,44c0,0.5,0,1,0,1.5c0,0.4,0.2,0.7,0.6,0.8
		c2.2,0.5,2.9-0.1,2.6-2.3c0-0.2-0.1-0.4-0.1-0.6c-0.2-1.5-0.2-1.5-2.2-1.4c-1.3,0-0.9,0.9-1,1.6C386.7,43.6,386.7,43.8,386.7,44z
		 M387.2,23.4c-0.6,1.6-0.4,3.1-0.4,4.7c0,0.5,0,0.9,0.3,1.3c0.4,0.4,1,0.6,1-0.1C388.2,27.3,387.9,25.3,387.2,23.4z"/>
	<path d="M311.8,87.6c3.6-6.1,6.5-12.3,9.9-18.3c1.3-2.3,2.7-4.6,3.8-7c0.4-0.9,1.2-1.1,2-1.1c5.3,0.1,10.6,0.1,15.9,0.2
		c0.6,0,1.2,0,1.9-0.1c0.9,0,1.1,0.3,0.7,1.1c-3.4,6.1-6.8,12.3-10.2,18.5c-4.7,8.5-9.5,17-14.2,25.6c-0.6,1.1-1.4,1.6-2.7,1.6
		c-6.3-0.1-12.7,0-19-0.1c-1.6,0-1.6,0-1.5-1.6c0.4-7.1,0.7-14.3,1.4-21.4c0-0.1,0-0.2,0-0.4c-0.5,0-0.6,0.5-0.7,0.7
		c-3.9,7-7.7,14-11.5,21c-0.6,1.2-1.4,1.6-2.8,1.6c-5.7-0.1-11.5-0.1-17.2,0c-1.1,0-1.1-0.3-0.7-1.2c5-9,9.9-18,14.9-27
		c3.2-5.8,6.4-11.5,9.6-17.3c0.5-0.9,1.1-1.3,2.1-1.2c6.7,0,13.3,0,20,0c1.8,0,1.8,0.2,1.6,1.9c-0.7,5.5-1.4,11-2.1,16.5
		c-0.2,1.9-0.6,3.7-0.9,5.5C311.7,85.9,311.7,86.6,311.8,87.6z"/>
	<path d="M168.7,7c4.5-0.1,9.1-0.1,13.5,1c1.7,0.4,3.3,1,4.8,2c2.8,2,3.8,4.7,3.6,8c-0.3,4.4-2.1,8.4-4,12.3
		c-2.9,5.9-6.5,11.3-10.8,16.3c-4.7,5.4-10.9,8.1-17.9,9c-8.5,1.1-16.9,1.1-25.4,0c-2.5-0.3-4.9-1.1-6.7-3c-1.4-1.4-2-3-2.1-4.9
		c-0.3-4.2,1.1-8.1,2.7-11.8c3.1-7.1,7.3-13.5,12.5-19.2c5-5.5,11.4-8.2,18.6-9.2C161.2,7,164.9,6.9,168.7,7z M151.4,43.5
		c2.9,0.2,5.7-0.8,7.9-3.3c0.8-1,1.6-1.9,2.4-2.9c2.2-3.1,4.1-6.4,5-10.1c0.5-2.1-0.3-3.8-2.3-4.2c-3.7-0.8-7.1-0.5-10,2.3
		c-2.3,2.2-4,4.8-5.6,7.5c-1.1,1.9-2.3,3.8-2.8,6c-0.7,3,0.7,4.8,3.8,4.9C150.3,43.5,150.7,43.5,151.4,43.5z"/>
	<path d="M24.6,107.1c-6.4,0-12.8,0-19.2,0c-1.6,0-1.7-0.2-0.9-1.6c8.2-14.6,16.4-29.3,24.5-43.9c0.5-0.8,1-1.1,2-1.1
		c11.4,0,22.7,0,34.1,0c1.8,0,3.5,0.2,5.2,0.7c4,1.1,6,4.4,5.6,8.5c-0.5,4.8-2.4,9.2-4.7,13.3c-2.8,5.1-5.6,10.2-9.5,14.7
		c-5.3,6-11.9,9.5-20.1,9.4C35.9,107.1,30.2,107.1,24.6,107.1C24.6,107.1,24.6,107.1,24.6,107.1z M35.5,94.5
		C35.5,94.5,35.5,94.5,35.5,94.5c0.5,0,0.9,0,1.4,0c3.6,0.3,6.6-1.1,8.9-3.8c2.8-3.2,4.6-6.9,5.9-10.9c0.6-1.9-0.2-3-2.2-3.4
		c-2.5-0.5-5.1-0.1-7.6-0.2c-0.6,0-0.8,0.5-1.1,0.9c-3.1,5.4-6.1,10.9-9.2,16.3c-0.5,0.9-0.1,1.1,0.7,1.1
		C33.3,94.5,34.4,94.5,35.5,94.5z"/>
	<path d="M104,8c6,0,12.1,0,18.1,0c1.9,0,3.8,0.1,5.6,0.7c2.4,0.8,3.9,2.8,3.6,5.3c-0.8,6.9-3.3,12.9-8.7,17.4
		c-3.7,3.1-8,4.3-12.7,4.3c-0.5,0-0.9,0-1.4,0c-0.9-0.1-1.1,0.2-0.7,1.1c2.3,5.5,4.6,11,6.9,16.5c0.6,1.4,0.5,1.5-1,1.5
		c-6.7,0-13.4,0-20.1,0c-1.9,0-1.9-0.1-2.5-1.9c-1.3-4.3-2.6-8.5-3.9-12.8c-0.1-0.3-0.1-0.8-0.4-0.8c-0.5-0.1-0.5,0.4-0.7,0.7
		c-2.4,4.4-4.8,8.8-7.2,13.3c-0.5,0.9-1.1,1.3-2.2,1.3c-5.9,0-11.7,0-17.6,0.1c-1,0-1.1-0.3-0.6-1.3c3-5.4,6.1-10.7,9.1-16.1
		c5.2-9.3,10.5-18.7,15.6-28c0.6-1,1.2-1.4,2.4-1.4C91.8,8,97.9,8,104,8C104,8,104,8,104,8z M96.7,30.7
		C96.7,30.7,96.7,30.7,96.7,30.7c1.1,0,2.2,0,3.2,0c4,0,7.3-2.5,8.4-6.4c0.4-1.3-0.1-2.3-1.4-2.7c-0.5-0.2-1.1-0.3-1.7-0.3
		c-2.5,0-5.1,0-7.6,0c-0.7,0-1.1,0.2-1.4,0.8c-1.4,2.6-2.8,5.1-4.2,7.7c-0.3,0.6-0.2,0.9,0.6,0.9C94,30.7,95.3,30.7,96.7,30.7z"/>
	<path d="M149.3,108.9c-10.3,0-18.8-0.4-27.2-2c-1.2-0.2-1.4-0.4-0.8-1.5c1.7-3.3,3.5-6.5,5.2-9.8c0.4-0.7,0.9-1,1.6-0.8
		c5.8,0.9,11.8,1.2,17.6,1.4c2.6,0.1,5.2,0.2,7.7-0.4c1.2-0.3,2.2-0.9,2.7-2c0.6-1.3,0.4-1.9-1-2.2c-1.5-0.4-3-0.5-4.6-0.6
		c-3.1-0.1-6.2,0.2-9.2-0.3c-1.3-0.2-2.6-0.5-3.8-1.1c-2.7-1.3-4.2-3.9-3.4-7c2.3-9.4,7.5-16.7,16.6-20.8c2.8-1.3,5.9-1.7,9-1.9
		c5-0.5,10-0.4,15-0.2c6.4,0.2,12.9,0.6,19.3,1.6c1.4,0.2,1.4,0.3,0.7,1.6c-2.3,4.1-4.6,8.1-6.9,12.2c-0.4,0.8-0.9,1.1-1.9,1
		c-6.9-0.9-13.7-1.6-20.7-1.3c-1.4,0.1-2.7,0.2-4.1,0.6c-0.9,0.3-1.8,0.7-2.4,1.4c-1.1,1.4-0.7,2.6,1.1,2.8c2.8,0.4,5.7,0.3,8.6,0.5
		c2.2,0.1,4.4-0.1,6.6,0.3c4.3,0.7,6.3,3.3,5.6,7.6c-0.1,0.8-0.3,1.6-0.5,2.3c-1.6,4.9-4.3,9.2-8,12.8c-3.5,3.4-7.9,4.8-12.7,5.4
		C155.5,108.9,151.6,108.9,149.3,108.9z"/>
	<path d="M350.2,8.8c6.1,0,12.2,0,18.2,0c2.3,0,4.7,0.1,7,0.1c0.8,0,1,0.2,0.6,0.9c-2.4,4.4-4.8,8.8-7.2,13.3
		c-0.3,0.6-0.8,0.8-1.4,0.8c-8.4,0-16.8,0-25.2-0.1c-1,0-1.7,0.3-2.2,1.2c-0.4,0.9-0.9,1.7-1.4,2.5c-0.5,0.9-0.3,1.2,0.7,1.2
		c4.6,0,9.2,0,13.7,0c3.7,0,7.5,0,11.2,0c1.4,0,1.5,0.2,0.8,1.5c-1.4,2.6-2.9,5.2-4.2,7.8c-0.5,0.9-1,1.1-2,1.1
		c-8.1,0-16.2,0-24.4,0c-1.8,0-3.5,1.4-3.8,3.2c-0.1,0.8,0.4,0.5,0.8,0.5c4.3,0,8.7,0,13,0c4,0,8.1,0.1,12.1,0.2
		c1.2,0,1.3,0.2,0.7,1.3c-1.8,3.4-3.7,6.8-5.5,10.2c-0.4,0.8-1,1.1-1.9,1.1c-11,0-22.1,0-33.1-0.1c-4.1-0.1-8.2-0.1-12.4-0.1
		c-1.4,0-1.5-0.1-0.8-1.3c5.5-10.1,10.9-20.1,16.4-30.2c2.6-4.8,5.2-9.5,7.7-14.3c0.5-0.9,1.2-0.9,2-0.9
		C336.5,8.7,343.3,8.7,350.2,8.8C350.2,8.8,350.2,8.8,350.2,8.8z"/>
	<path d="M89.5,107.3c-7.4,0-14.8,0-22.2,0c-1.9,0-1.9-0.1-1.1-1.8C73.2,92.8,79.9,80,87,67.4c1-1.8,2-3.7,3-5.6
		c0.4-0.9,1-1.2,2-1.2c15.2,0.5,30.3,0.1,45.5,0.2c1.2,0,1.4,0.2,0.8,1.3c-2.2,4.1-4.5,8.3-6.7,12.4c-0.5,1-1.2,1.4-2.4,1.4
		c-8.1-0.1-16.2,0-24.4-0.1c-1.3,0-2.2,0.3-2.6,1.5c-0.3,0.7-0.7,1.4-1.1,2.1c-0.5,0.8-0.4,1.2,0.6,1.2c1.3,0,2.6,0,3.9,0
		c7,0.1,14.1,0.1,21.1,0.2c1.3,0,1.3,0.1,0.7,1.3c-1.4,2.6-2.8,5.1-4.2,7.7c-0.5,1-1.1,1.3-2.3,1.2c-8.4-0.1-16.8,0-25.2-0.1
		c-0.8,0-1.2,0.3-1.4,1c-0.4,0.9-1.6,1.8-1.2,2.6c0.4,0.8,1.8,0.3,2.8,0.3c7.6,0,15.2,0,22.7,0c1.7,0,1.8,0.1,1,1.6
		c-1.7,3-3.4,6-4.9,9.1c-0.7,1.4-1.5,1.9-3.1,1.9C104.2,107.3,96.8,107.4,89.5,107.3C89.5,107.4,89.5,107.3,89.5,107.3z"/>
	<path d="M233.9,109.1c-3.3,0-7.1,0-11-0.7c-0.8-0.2-1.5-0.4-2.3-0.6c-4.5-1.5-6.6-5.1-6-9.8c0.5-3.7,1.9-7.2,3.4-10.5
		c3.1-6.7,6.8-13,11.9-18.3c4.9-5,10.8-7.8,17.7-8.7c10.9-1.5,21.8-0.7,32.5,1.7c2.7,0.6,2.7,0.6,1.4,3.1c-1.9,3.4-3.9,6.9-5.9,10.3
		c-0.5,0.9-1.1,1.1-2.2,1c-6.4-0.9-12.8-1.2-19.3-0.9c-6.9,0.4-11.1,4.3-14.3,9.8c-1.3,2.3-2.4,4.7-2.8,7.3
		c-0.5,2.5,0.7,3.9,3.2,4.3c2.4,0.3,3.9-0.2,5-2.6c1.3-2.8,3-5.5,4.5-8.2c0.5-0.8,1.1-1.2,2-1.2c5.9,0,11.7,0,17.6,0
		c0.9,0,1.2,0.3,0.7,1.1c-3.7,6.6-7.4,13.1-11.1,19.7c-0.4,0.8-1,1.1-1.9,1.3C249.7,108.4,242.1,109.2,233.9,109.1z"/>
	<path d="M42.7,44c-5-0.1-10.1-0.2-15.1-0.2c-1.2,0-1.9,0.4-2.5,1.4c-1.3,2.5-2.8,4.8-4.1,7.3c-0.8,1.5-1.7,2.1-3.4,2
		c-5.1-0.1-10.2,0-15.4-0.1c-0.5,0-0.9,0-1.4,0c-0.9-0.1-1.1-0.4-0.6-1.3c7.1-12.6,14.1-25.2,21.2-37.8c1.2-2.1,2.4-4.2,3.5-6.3
		c0.5-1,1.2-1.4,2.3-1.4c3.7,0,7.5,0.1,11.2,0.2C46.7,8,54.9,8,63.1,8c2.1,0,4.1,0.2,6,0.8c2.9,1,4.5,3.4,4,6.4
		c-1.6,9.3-5.8,17.3-12.8,23.7c-4,3.6-8.8,5.3-14.2,5.2C44.9,44,43.8,44,42.7,44z M37.4,32.5C37.4,32.5,37.4,32.4,37.4,32.5
		c1.7-0.1,3.4,0.2,5.1-0.1c4-0.7,6-3.5,7-7.2c0.6-2.1-0.2-3.2-2.4-3.2c-2.7,0-5.4,0-8.1-0.1c-0.9,0-1.4,0.3-1.9,1.1
		c-1.6,2.8-3.2,5.6-4.8,8.4c-0.5,0.8-0.3,1.1,0.6,1.1C34.4,32.5,35.9,32.5,37.4,32.5z"/>
	<path d="M229.3,24.1c-4,0-8,0-12,0c-1,0-1.7,0.3-2.2,1.3c-0.4,1-0.9,1.9-1.5,2.7c-0.4,0.7-0.2,1,0.6,0.9c0.2,0,0.5,0,0.7,0
		c7.8,0.1,15.6,0.1,23.4,0.2c1.3,0,1.4,0.2,0.8,1.3c-2.1,3.8-4.3,7.6-6.4,11.5c-0.4,0.8-1,1.1-1.9,1.1c-5.5,0-10.9,0-16.4-0.1
		c-2.5,0-5.1-0.1-7.6-0.2c-1.1,0-1.8,0.4-2.3,1.4c-1.7,3.2-3.5,6.4-5.2,9.6c-0.5,1-1.1,1.4-2.3,1.3c-5.7-0.1-11.5-0.1-17.2-0.1
		c-1.2,0-1.4-0.2-0.8-1.3c1.6-3,3.4-6,5-9.1c4.6-8.8,9.4-17.5,14.1-26.2c1.7-3.1,3.4-6.2,5.1-9.3c0.4-0.7,1-1,1.7-1
		c1.5,0.1,2.9,0.2,4.4,0.2c13.3,0,26.6,0,39.9,0c0.2,0,0.4,0,0.6,0c1.1,0.1,1.3,0.3,0.7,1.3c-1.5,2.7-3.1,5.4-4.6,8.2
		c-0.9,1.6-1.8,3.1-2.6,4.7c-0.6,1.2-1.4,1.5-2.6,1.5C237.1,24.1,233.2,24.1,229.3,24.1C229.3,24.1,229.3,24.1,229.3,24.1z"/>
	<path d="M277.9,55.3c-6.2,0-12.3,0-18.5,0c-1.8,0-1.9-0.2-1-1.7c7.9-14.6,15.8-29.1,23.7-43.7c0.6-1,1.3-1.4,2.4-1.4
		c5.8,0.1,11.7,0.1,17.5,0.2c1.2,0,1.3,0.2,0.6,1.3c-5,9.2-10,18.4-15,27.5c-0.7,1.4-0.7,1.4,0.8,1.4c5.8,0.1,11.6,0.1,17.4,0.2
		c0.9,0,1,0.3,0.6,1c-2.6,4.7-5.2,9.4-7.7,14.1c-0.4,0.8-0.9,1.1-1.8,1.1C290.5,55.4,284.2,55.4,277.9,55.3
		C277.9,55.4,277.9,55.4,277.9,55.3z"/>
	<path d="M247.2,55.3c-4.4-0.1-8.8-0.3-13.2-0.2c-1.3,0-1.4-0.1-0.7-1.3c3.3-6,6.6-11.9,9.8-17.8c4.8-8.8,9.7-17.6,14.5-26.4
		c0.4-0.8,1-1.2,1.9-1.1c5.8,0,11.7,0,17.5,0.1c1.5,0,1.5,0.2,0.8,1.5c-8.1,14.6-16.3,29.2-24.4,43.8c-0.6,1.1-1.3,1.6-2.5,1.5
		C249.6,55.3,248.4,55.3,247.2,55.3z"/>
	<path d="M189.1,107.6c-2.9,0-5.7,0-8.6,0c-1.3,0-1.4-0.2-0.8-1.3c8.1-14.8,16.3-29.5,24.4-44.3c0.5-0.8,1-1.1,1.9-1.1
		c5.7,0,11.5,0,17.2,0c1.6,0,1.7,0.2,0.9,1.6c-8.1,14.6-16.2,29.2-24.3,43.8c-0.5,0.9-1.1,1.3-2.2,1.3
		C194.8,107.6,191.9,107.6,189.1,107.6C189.1,107.6,189.1,107.6,189.1,107.6z"/>
</g>
</svg>
