<?xml version="1.0" encoding="utf-8"?>
<!-- Generator: Adobe Illustrator 27.5.0, SVG Export Plug-In . SVG Version: 6.00 Build 0)  -->
<svg version="1.1" id="Ebene_1" xmlns="http://www.w3.org/2000/svg" xmlns:xlink="http://www.w3.org/1999/xlink" x="0px" y="0px"
	 viewBox="0 0 289.5 60.8" style="enable-background:new 0 0 289.5 60.8;" xml:space="preserve">
<style type="text/css">
	.st0{fill:#C02F1B;}
</style>
<g>
	<path d="M57.7,45.2c0,0,3.3-16.4,8.9-23.7C71,15.7,80.7,9,80.7,9l5.5,5.9c0,0-7.3,5.3-10.9,9.8c-7.3,8.9-7.4,20.6-7.4,20.6H57.7z"
		/>
	<polygon points="123.8,44.6 137.9,3.1 146.5,3.1 133.2,44.6 	"/>
	<path class="st0" d="M264.9,20.3c0,0,2.3,0,4.4,0.3c1.8,0.3,4.2,1.4,4.2,1.4l-10.8,5.7L264.9,20.3z"/>
	<g>
		<path d="M40.3,10.4c-17,1.8-23,11.2-26.4,16.6C9.7,33.9,3,57.4,3,57.4h10.5c0,0,3.8-14.5,4.9-15c1.1-0.6,6.2,2.8,12.9,2.8
			c18.5,0,30.5-10.9,29.2-21.4C59.5,16.1,53.4,9,40.3,10.4z M33.7,37.1c-6.9,0-10.7-2.6-10.7-6.7c0-7.6,10.2-10.8,17.1-10.8
			c5.9,0,9.6,3,9.6,6.6C49.6,31.9,41.6,37.1,33.7,37.1z"/>
		<path d="M106.1,11.3c-12.9,0-26.9,11.5-27,19.9c0,12.6,13.9,13.2,19.9,13.3c8.4,0.1,22.3-4.8,26.6-17.8
			C127.9,20,122.1,11.4,106.1,11.3z M115.5,26.8c-2,6.4-9.7,10.4-16.4,10.4c-5.4,0-9.5-3-9.8-5.9C88.7,24.7,98,19.6,105,19.6
			C109.7,19.5,117.4,20.7,115.5,26.8z"/>
		<path d="M168.5,11.7c-12.9,0-26.9,11.5-27,19.9c0,12.6,13.9,13.2,19.9,13.3c8.4,0.1,22.2-4.8,26.6-17.8
			C190.2,20.4,184.4,11.8,168.5,11.7z M177.8,27.2c-2,6.4-9.7,10.4-16.4,10.4c-5.4,0-9.5-3-9.8-5.9c-0.6-6.5,8.7-11.7,15.6-11.7
			C172.1,19.9,179.7,21.1,177.8,27.2z"/>
		<path d="M272.8,12.7l2.9-9.5c-0.2-0.2-7.9-0.2-8.3,0l-3.8,9c0,0-23.5,4.3-24.5,19.8c-0.8,12.6,13.9,13.2,19.9,13.3
			c8.4,0.1,21.9-4.9,26.6-17.8C290.4,14.3,272.8,12.7,272.8,12.7z M275.5,27.6c-2,6.4-9.7,10.4-16.4,10.4c-5.4,0-9.5-3-9.8-5.9
			c-0.6-6.5,8.7-11.7,15.6-11.7C269.7,20.3,277.3,21.4,275.5,27.6z"/>
		<path d="M217,11.3c-13,0.4-24.5,9-26.8,19.9c-1.7,8.2,7.8,12.5,12.3,13.3c7.3,1.2,18.2-2.2,18.2-2.2s-0.1,2.9-6.7,7
			c-6.4,4-11.9,3.1-12.2,4.1c-0.2,0.7-1,3.7-0.3,4.5c0.6,0.6,14.3,1.4,24.7-9.6c4.2-4.4,8.7-15.2,10.2-22.2
			C239.1,13.5,226.1,11.1,217,11.3z M210.8,37.2c-3.1,0-10.8-0.5-10.3-6.7c0.5-6.5,10-10.7,16.6-10.6c6.7,0,10.1,3.7,10,6.8
			C226.7,33.4,216.5,37.2,210.8,37.2z"/>
	</g>
</g>
</svg>
