<?xml version="1.0" encoding="UTF-8"?>
<svg xmlns="http://www.w3.org/2000/svg" version="1.1" viewBox="0 0 719.7 286.4">
  <!-- Generator: Adobe Illustrator 28.6.0, SVG Export Plug-In . SVG Version: 1.2.0 Build 709)  -->
  <g>
    <g id="Capa_1">
      <g>
        <path d="M301.7,164.2h-35.4c.1-1.4,0-2.5.3-3.6,4.1-14.2,8-28.5,12.4-42.7,5.1-16.4,18.5-26,35.5-26.1,38.5,0,77,0,115.5-.2,10.5,0,16.4-6.7,14.4-16.2-1.1-5.4-4.8-8.8-10.3-9.2-4.3-.3-8.7-.4-13-.4-48.3,0-96.6,0-144.9,0-9.8,0-19.6,0-29.4,0-.3-.5-.7-1-1-1.4,1.4-2.4,2.3-5.4,4.3-7.1,14.8-13.4,29.8-26.6,45-39.6,2.3-2,6-2.5,9-3.6.3.5.6.9.8,1.4-2.2,7.9-4.4,15.9-6.7,24.6,2.4,0,4.2,0,6,0,20,0,40,0,60,0,23.3.1,46.7,1.1,69.9.3,29.4-.9,41.4,23.1,38.3,44.9-2.4,17.3-11.9,28-27.6,31.4-3.7.8-7.6.7-11.4.7-36.2.1-72.3.2-108.5.2-8.9,0-10.2,1-12.6,9.4-3.5,12.3-6.9,24.6-10.4,37.1Z"/>
        <path d="M329.1,208.8c15.8,0,30.7,0,45.5,0,16.5,0,33,0,49.5,0,2.5,0,5,.2,7.4.9,5.9,1.6,8.3,5.4,6.7,11.3-4.3,16.1-8.8,32.1-13.3,48.1-.3,1.2-1.7,2.8-2.7,2.8-5.6.3-11.2.1-17.3.1,4-14.3,7.8-27.9,11.5-41.5.4-1.4,1.3-3,1-4.3-.3-1.3-1.8-3.3-2.8-3.3-6.1-.3-12.3-.4-18.5,0-1.2,0-2.9,2.4-3.3,3.9-4,13.6-7.8,27.2-11.5,40.9-.9,3.3-2.2,4.7-5.7,4.5-4.4-.3-8.9,0-14.4,0,4.6-16.7,9-32.6,13.7-49.3-7.9,0-15.4-.1-22.8.2-.9,0-2.2,2.2-2.6,3.6-4,13.4-8,26.8-11.6,40.3-1.1,4.2-3,5.6-7.2,5.3-4.3-.3-8.6,0-13.5,0,3.2-11.4,6.2-22.1,9.2-32.7,1.1-3.8,2.1-7.7,3.3-11.5,2-6.1,3-12.3-.6-19.1Z"/>
        <path d="M442.2,209.4c1.9-.2,3.1-.3,4.2-.3,23,0,46,.3,69-.1,8.1-.2,12.4,6.6,10.6,13.7-1.6,6.3-3.4,12.5-5.2,18.8-1.3,4.6-4.8,7.1-9.3,7.1-15,.2-29.9,0-46,0,1.4-4.5,2.3-8.3,3.8-11.9.4-1,2.6-1.7,4-1.7,8.7-.2,17.3,0,26-.1,3.4,0,7.9-8.1,5.9-10.8-.6-.8-2.3-1.2-3.5-1.2-11.5-.1-23-.2-34.5-.1-1.3,0-3.4.7-3.7,1.5-3.2,11-6.1,22-9.3,33.7h61.5c-1.4,5.1-2.5,9.5-3.8,14.2-7.2,0-14.2,0-21.2,0-15.8,0-31.7,0-47.5,0-7.7,0-11.3-4.6-9.3-12,2.7-10,5.4-19.9,8.4-29.8,2.1-6.9,4.4-13.7,0-21Z"/>
        <path d="M605.4,272.1c4.3-15.1,8.2-29.1,12.2-43.2,1.8-6.4,4-12.8-1.1-19.8,2.9,0,4.6,0,6.4,0,17,0,34,.2,51,0,11.5-.2,21.5,2.7,26.6,13.8,5.5,11.9,3,23.2-5.1,33.1-7.8,9.7-18.5,15.3-30.6,15.9-19.4.9-38.9.2-59.4.2ZM629.1,258.6c11,0,21.3,0,31.5,0,1.2,0,2.3,0,3.5-.2,11-1.6,20.6-12.5,20.7-23.6,0-7-4.3-11.9-11.3-11.9-10.3,0-20.6,0-30.9.3-1.3,0-3.5,1.1-3.8,2.1-3.3,10.7-6.3,21.6-9.7,33.3Z"/>
        <path d="M193.9,248.5c7.7,8.4,14.3,15.6,21.7,23.7-7.6,0-14,0-20.5,0-1,0-2.2-.9-2.9-1.7-10.2-11.2-20.4-22.4-30.6-33.6-.3-.3-.4-.8-.8-1.9,8.6,0,16.8,0,25.1,0,6,0,12,.2,18,0,4.7,0,7.4-2.8,7.2-7-.2-4.5-3.3-5.1-7-5.1-15,0-30,.1-45,0-3.3,0-4.6,1.1-5.4,4.2-3.7,13.5-7.8,26.8-11.3,40.4-1.1,4.1-2.9,5.3-6.9,5.1-4.3-.3-8.6,0-13.6,0,1.7-6,3.3-11.3,4.9-16.7,2.5-8.8,4.8-17.7,7.6-26.4,2-6.4,2.7-12.7-.3-19.5,2-.1,3.5-.3,5.1-.3,22.8,0,45.7,0,68.5,0,12,0,18.4,6.6,18.4,19.2,0,12.9-6.3,19.9-18.3,19.9-4.1,0-8.2,0-13.8,0Z"/>
        <path d="M42.4,209.8c10.6,0,20.5,0,30.4,0,12.5,0,25,0,37.5,0,11.9,0,19.1,7.5,19.2,19.5,0,11.9-7.3,19.4-19.1,19.5-17.8,0-35.7.4-53.5.1-5.2,0-7.5,1.8-8.5,6.7-.9,4.6-2.3,9-3.7,13.4-.4,1.3-1.9,3-3.1,3-5.1.3-10.3.1-16.9.1,3.4-10.2,6-19.8,10-28.7,2.7-5.9,8.8-8.1,15.6-8.1,17.8.1,35.7,0,53.5,0,1.7,0,3.3,0,5-.2,3.8-.4,6.3-2.4,6-6.5-.2-4.1-2.8-5.6-6.8-5.6-18,0-36-.2-54-.3-12.6,0-25.3,0-37.9,0,.2-4.9,23-25.4,29.1-25.9-.9,4.1-1.8,8-2.9,12.8Z"/>
        <path d="M266.7,271.8c-6.3,0-12.7.6-18.9-.1-17.1-2.1-25.9-15.9-21.2-32.5,4.7-16.7,21.4-29.1,39.8-29.3,9.1-.1,18.3.2,27.4,0,25.5-.7,34.5,21.3,23.4,40.9-7.9,14-20.7,20.7-36.5,21.6-4.6.3-9.3,0-14,0,0-.2,0-.3,0-.5ZM268.9,258.4c3.7,0,7.3,0,11,0,11.9,0,22.4-9.7,23.6-21.5.9-8.4-3.9-13.9-12.3-14-7.2,0-14.3,0-21.5,0-12.8,0-22.1,7.3-25.2,19.8-2.3,9.1,2.6,15.6,11.9,15.7,4.2,0,8.3,0,12.5,0Z"/>
        <path d="M518.1,272.3c4.2-15.1,8-29.4,12.2-43.5,1.9-6.4,2.7-12.6-.6-19.6,2.2-.1,3.9-.3,5.6-.3,21.3,0,42.6,0,63.9,0,2.2,0,4.4,0,6.5.4,6.6,1.3,9.4,5.5,7.6,12-4.4,16-9,32-13.6,48-.3,1.2-2,2.7-3.2,2.8-5.3.3-10.5.1-16.4.1,3.9-13.9,7.6-27.1,11.4-40.3.4-1.4.9-2.9,1.2-4.3.6-2.6-.2-4.3-3.1-4.4-12-.1-24-.3-35.9-.2-1.2,0-3,2.2-3.5,3.7-4.1,13.7-8.1,27.4-11.9,41.2-.9,3.4-2.5,4.5-5.9,4.4-4.5-.2-8.9,0-14.2,0Z"/>
      </g>
    </g>
  </g>
</svg>