<?xml version="1.0" encoding="utf-8"?>
<!-- Generator: $$$/GeneralStr/196=Adobe Illustrator 27.6.0, SVG Export Plug-In . SVG Version: 6.00 Build 0)  -->
<svg version="1.1" id="Capa_1" xmlns="http://www.w3.org/2000/svg" xmlns:xlink="http://www.w3.org/1999/xlink" x="0px" y="0px"
	 viewBox="0 0 200 126.2" style="enable-background:new 0 0 200 126.2;" xml:space="preserve">
<style type="text/css">
	.st0{fill:url(#SVGID_1_);}
</style>
<g>
	<linearGradient id="SVGID_1_" gradientUnits="userSpaceOnUse" x1="100.1236" y1="10.6801" x2="181.8777" y2="92.4343">
		<stop  offset="0" style="stop-color:#BA5B24"/>
		<stop  offset="0.9999" style="stop-color:#B12936"/>
	</linearGradient>
	<path class="st0" d="M125.5,51.4c0.2-0.9-0.6-1.3-1.1-1.9c-3.3-3.4-6.7-6.8-10-10.1c-5.7-5.8-11.5-11.5-17.2-17.3
		c-0.7-0.7-1.3-1.3-2-2c-1.3-1.4-1.1-3.3,0.5-5c3.1-3.1,6.2-6.1,9.3-9.2c1.3-1.2,3.1-1.3,4.4,0c2.4,2.4,4.8,4.9,7.3,7.4
		c2.6,2.6,5.2,5.1,7.8,7.7c2.2,2.2,4.5,4.5,6.7,6.7c2.5,2.5,5,5,7.5,7.5c1.6,1.6,2.8,1.4,4.5-0.3c3-3,6-5.9,9-8.8
		c2.2-2.2,4.3-4.4,6.5-6.6c3-3,6-5.9,9-8.9c1.5-1.5,3-3,4.5-4.5c1.8-2,3.3-2.1,5.2-0.2c3.1,3.1,6.2,6.2,9.2,9.4
		c0.5,0.6,1,1.2,1.3,1.9c0.5,1.2-0.5,2.2-1.2,2.9c-2.7,2.7-5.3,5.5-8.1,8.1c-3.5,3.4-6.8,7-10.3,10.4c-3,2.8-5.9,5.9-8.9,8.7
		c-0.8,0.8-1.8,1.6-2.3,2.8c-0.6,1.5-0.7,2.5,0.4,3.6c2.2,2.2,4.4,4.4,6.7,6.5c2.3,2.1,4.3,4.3,6.5,6.5c1.8,1.9,3.7,3.7,5.5,5.6
		c1.9,1.9,3.8,3.7,5.7,5.6c1.6,1.6,3,3.2,4.6,4.7c1.9,1.8,2.1,3,0.3,4.9c-3.1,3.2-6.2,6.4-9.5,9.4c-2.4,2.1-3,2-5.9-0.8
		c-3.4-3.4-6.8-6.8-10.2-10.1c-2.5-2.5-4.9-5-7.4-7.5c-2.6-2.6-5.2-5.3-7.9-7.9c-0.8-0.8-1.7-1.6-2.5-2.5c-1.4-1.7-2.8-2.1-4.5-0.3
		c-4.3,4.3-8.7,8.6-12.9,13c-3.2,3.3-6.6,6.5-9.9,9.7c-2.1,2.1-4.3,4.2-6.4,6.3c-1.6,1.6-3.1,1.6-4.7,0c-2.2-2.2-4.4-4.3-6.6-6.4
		c-1.1-1.1-2.2-2.2-3.3-3.4c-0.8-0.9-0.7-3.1,0.2-4c4-4.1,8.1-8.1,12.1-12.2c3.5-3.5,6.9-7.1,10.4-10.5c2.5-2.5,5.1-4.9,7.5-7.6
		C125.3,52.5,125.6,52,125.5,51.4z"/>
	<path d="M12.3,61.4c0.2-11.7,0.1-23.4,0-35.1c0-2.5,0.8-3.4,3.3-3.3c19.8,0.7,39.7,0.3,59.6,0.3c2,0,4,0.1,5.9-0.1
		c2.4-0.3,4,0.9,5.5,2.4c2.7,2.7,5.5,5.2,8.2,7.9c1.8,1.8,3.5,3.7,5.3,5.4c3.4,3.3,6.7,6.6,10.1,9.9c1.4,1.3,1.3,4.1-0.1,5.4
		c-3.7,3.6-7.3,7.2-11,10.8c-3.3,3.2-6.6,6.5-9.8,9.8c-0.8,0.8-1.6,1.5-2.4,2.3c-0.8,0.9-1.6,0.9-2.6,0.9C69,77.8,53.7,78,38.4,77.9
		C33.2,77.9,28,78,22.9,78c-1.6,0-2,0.5-2,2.1c0,5.4-0.1,10.8,0,16.2c0.1,2.3-1.2,3.5-3.4,3.5c-0.7,0-1.5,0-2.2,0
		c-2.1,0-2.9-0.8-2.9-2.9C12.3,85.1,12.3,73.2,12.3,61.4z M51.8,69.7c9.2,0,18.4,0,27.7,0c1.3,0,2.6-0.2,3.6-1.2
		c1.4-1.5,2.9-2.8,4.3-4.3c3.3-3.5,6.8-6.9,10.3-10.3c0.9-0.8,1.3-1.8,1-3c-0.3-1.3-1.4-2-2.2-2.8c-4.7-4.8-9.4-9.5-14.1-14.3
		c-1.4-1.4-2.7-2.2-4.7-2.2c-10.4,0-20.9-0.1-31.3-0.1c-7.2,0-14.3,0.1-21.5,0.1c-3.3,0-4.2,1.2-4.2,4.1c-0.1,2.7-0.1,5.4-0.1,8
		c0.1,7.5,0.2,15,0.2,22.6c0,1,0,1.8,0.8,2.6c1,1.1,2.1,1,3.2,1C33.7,70,42.8,69.9,51.8,69.7z"/>
	<path d="M162,113.4c0,2.2,0,4.3,0,6.3c0,1.2-0.6,1.6-1.6,1.7c-1.5,0.1-2-0.4-2-2c0-3.8,0-7.7,0-11.5c0-1,0.5-1.3,1.5-1.4
		c1.8-0.3,2.5,1,3,2.1c0.4,1,1.3,1.5,1.7,2.6c0.4,1.1,1.3,1.9,2,3c0.4-0.4,0.3-0.9,0.3-1.4c0-1.6,0-3.3,0-4.9c0-1.2,0.8-1.3,1.7-1.3
		c0.9,0,1.9-0.1,1.9,1.2c0,4.1,0,8.2-0.1,12.3c0,0.6-0.1,1.4-1,1.4c-0.9,0-1.8-0.1-2.4-1c-1.3-1.9-2.5-3.8-3.9-5.6
		C162.8,114.4,162.8,113.8,162,113.4z"/>
	<path d="M116.3,113.9c0-2,0-4,0-6.1c0-1,0.4-1.3,1.3-1.3c1.8,0.1,3.5,0,5.3,0c3.4,0,5.3,1.9,5.4,5.4c0,1.4-0.1,2.7,0,4.1
		c0.3,3-1.9,4.7-4.4,5.2c-2.1,0.5-4.3,0.1-6.4,0.2c-0.8,0-1.1-0.5-1.1-1.3C116.3,118,116.3,115.9,116.3,113.9z M119.7,113.8
		C119.7,113.8,119.7,113.8,119.7,113.8c0,0.4,0,0.8,0,1.2c0,3.4,0.2,3.5,3.6,3c0.7-0.1,1.1-0.4,1.2-1.1c0.5-1.7,0.5-3.5,0.2-5.2
		c-0.3-1.4-1.5-2.5-3-2.5c-1.8,0-2,0.2-2,2C119.7,112.1,119.7,113,119.7,113.8z"/>
	<path d="M61.6,113.8c0-1.9,0-3.9,0-5.8c0-1,0.4-1.5,1.4-1.5c2,0,4,0,6,0c2.2,0.1,3.3,1.5,4.1,3.3c0.7,1.6,0.1,2.9-0.9,4.1
		c-1.4,1.6-1.4,1.6-0.2,3.5c0.4,0.7,0.7,1.4,1.2,2c0.3,0.4,0.4,1,0.1,1.4c-0.2,0.4-0.7,0.6-1.3,0.5c-1.1-0.1-1.9-0.2-2.4-1.5
		c-0.4-1.1-1.2-2.2-1.8-3.3c-0.5-0.8-1.3-0.6-2-0.5c-0.8,0.1-0.5,0.8-0.5,1.2c0,0.9,0,1.8,0,2.6c-0.1,1.3-1,1.3-2,1.4
		c-1,0-1.6-0.4-1.6-1.5C61.6,117.9,61.6,115.8,61.6,113.8z M65.2,110.7c0,2.2,0,2.2,1.6,2.2c2.4,0,3-0.4,3-1.9c0-1.3-1.1-1.9-3.1-2
		C64.8,108.9,65.2,110,65.2,110.7z"/>
	<path d="M133.2,113.6c0-1.8,0-3.7,0-5.5c0-1.1,0.4-1.6,1.5-1.6c2.1,0,4.3,0,6.4,0c1.7,0,3.4,1.8,3.4,3.4c0,0.5,0,1.1,0,1.6
		c0.2,1.5-0.5,2.5-1.5,3.4c-0.5,0.4-0.6,0.8-0.2,1.2c0.9,1.3,1.5,2.7,2.2,4c0.2,0.5,0.1,0.7-0.3,0.9c-1.4,0.8-3.1,0.1-3.7-1.5
		c-0.4-1.1-1-2.1-1.7-3c-0.5-0.6-1.2-0.6-1.9-0.4c-0.7,0.2-0.6,0.9-0.7,1.4c-0.1,0.9,0.3,1.7-0.1,2.6c-0.4,0.9-0.9,1.3-1.9,1.2
		c-1-0.2-1.5-0.8-1.5-1.7C133.2,117.7,133.2,115.7,133.2,113.6C133.2,113.6,133.2,113.6,133.2,113.6z M138.9,112.9
		c2.2-0.1,2.3-0.1,2.2-1.8c0-1.4-1-2-3.1-1.9c-1.1,0-1.6,0.7-1.5,2.2C136.6,112.7,137,112.9,138.9,112.9z"/>
	<path d="M56.7,113.8c0.2,2,0.1,3.7-0.9,5.2c-0.7,1.1-1.8,1.7-3,2.1c-2.8,1.1-5.4,0.3-7.2-1.7c-0.6-0.7-1-1.6-1.1-2.6
		c-0.2-1.7-0.3-3.3-0.2-5c0.2-2.2,1.3-3.8,3.1-5c0.6-0.4,1.4-0.2,2.1-0.3c0.6,0,1.1,0.1,1.7,0c3.3-0.5,5.3,2.8,5.5,5.3
		C56.7,112.6,56.7,113.3,56.7,113.8z M53.4,113.9c0-0.7,0-1.4,0-2.1c-0.1-1.3-1.6-2.7-2.9-2.7c-1.4,0-2.8,1.2-2.8,2.7
		c-0.1,1.5-0.1,3,0,4.5c0.1,1.8,2.5,2.9,4.1,2C53.7,117.1,53.5,115.5,53.4,113.9z"/>
	<path d="M98.2,106.4c1.3,0.2,2.6,0,3.9,1c1,0.8,1.3,1.7,1.5,2.8c0.1,0.4-0.1,0.8-0.4,0.9c-0.8,0.2-1.6,0.4-2.4-0.2
		c-0.4-0.3-0.8-0.7-1.1-1.1c-0.7-1-1.7-0.8-2.6-0.5c-0.5,0.2-1,0.7-1,1.4c0,0.7,0.6,0.9,1.2,1.1c1.2,0.4,2.4,1,3.7,1.2
		c1.4,0.2,2.7,1.2,3.2,2.6c0.5,1.6,0,3.1-1,4.4c-1.4,1.7-6,2.1-8.1,0.9c-1.1-0.7-2.2-1.2-2.6-2.6c-0.3-1,0.2-1.3,0.8-1.5
		c0.9-0.3,1.9,0,2.6,0.6c1.7,1.5,2.9,1.8,4.6,0.5c0.6-0.4,0.6-1.3,0.1-1.4c-1-0.3-1.8-1-2.9-1.2c-1.8-0.2-3.6-1.1-4.7-2.7
		c-0.9-1.2,0-4.1,1.2-5.1C95.3,106.4,96.7,106.6,98.2,106.4z"/>
	<path d="M179.4,118.4c0,2.3-0.7,3.3-2.3,3c-0.7-0.1-1.2-0.4-1.2-1.3c0-4.2-0.1-8.3-0.1-12.5c0-0.8,0.4-1.3,1.2-1.2
		c0.9,0.1,2.2-0.3,2.4,1.2c0.1,0.6,0,1.3,0,2c0,0.3,0,0.6,0.3,0.7c0.3,0.2,0.4-0.2,0.6-0.3c1.1-0.7,1.6-2.1,2.7-2.9
		c0.7-0.5,2.9-0.9,3.6-0.5c0.6,0.4,0.5,1,0.1,1.3c-1.7,1.5-2.9,3.3-4.4,4.9c-0.5,0.4-0.5,0.9-0.1,1.4c1.2,1.3,2.1,2.7,3.4,3.8
		c0.6,0.5,1.2,1.1,1.5,2c0.4,1.2-0.3,1.3-1,1.4c-1.6,0.3-2.7-0.6-3.7-1.7c-0.6-0.7-1.1-1.3-1.7-2c-0.3-0.3-0.5-0.9-1-0.7
		c-0.5,0.2-0.3,0.8-0.3,1.2C179.3,118.4,179.4,118.6,179.4,118.4z"/>
	<path d="M18,106.5c1.2,0.2,2.4-0.1,3.6,0.9c0.9,0.8,1.4,1.7,1.7,2.7c0.3,0.8-0.4,0.9-1,1.1c-1.4,0.4-2.1-0.5-2.8-1.3
		c-1-1.1-2.6-1.1-3.5,0c-0.6,0.7-0.6,1.4,0.3,1.8c1.3,0.4,2.4,1.2,3.9,1.4c1.5,0.2,3,1.1,3.5,2.5c0.5,1.6,0.2,3.3-1.1,4.6
		c-1.6,1.6-6,2-8,0.8c-1-0.6-2.2-1.1-2.5-2.5c-0.2-1.2,0.3-1.6,1.5-1.6c1.4,0,2.1,1.2,3.2,1.7c0.8,0.4,3,0.1,3.4-0.7
		c0.2-0.4,0.3-1.1-0.1-1.2c-0.8-0.3-1.4-1.1-2.4-1.2c-1.8-0.2-3.4-1-4.8-2.3c-1.4-1.3-0.7-4.4,0.8-5.4
		C15.3,106.5,15.8,106.4,18,106.5z"/>
	<path d="M28.6,113.9c0-2,0-4,0-5.9c0-1,0.4-1.4,1.4-1.4c2.1,0,4.2,0,6.3,0c2,0.1,3.7,2.2,4,4.2c0.3,1.9-1.2,3.8-2.9,4.6
		c-1.5,0.7-2.9,0.8-4.4,0.7c-0.7,0-0.8,0.3-0.8,0.9c0,0.9,0.1,1.8,0,2.8c-0.1,1.3-0.6,1.6-2.2,1.6c-1.1,0-1.4-0.7-1.4-1.6
		C28.7,117.8,28.6,115.9,28.6,113.9C28.6,113.9,28.6,113.9,28.6,113.9z M32.1,110.9c0.1,2.7-0.1,2.2,2.2,2.2c0.5,0,1-0.1,1.4-0.2
		c0.4-0.1,0.9-0.3,0.9-0.8c0.1-0.8,0.4-1.6-0.4-2.3c-0.7-0.6-3.1-1.2-3.8-0.7C31.8,109.5,32.3,110.4,32.1,110.9z"/>
	<path d="M81.3,115.4c0-1.4,0-2.9,0-4.3c0-1-0.3-1.6-1.4-1.6c-0.5,0-1.1,0.1-1.6,0c-1-0.1-1.4-0.8-1.4-1.7c0-0.9,0.4-1.3,1.3-1.3
		c3.1,0,6.2,0,9.3,0c0.8,0,1.3,0.2,1.3,1.1c0,0.9-0.1,1.6-1.1,1.9c-0.5,0.1-1,0.1-1.4,0.1c-1.6,0-1.8,0.1-1.8,1.8c0,2.7,0,5.4,0,8.2
		c0,1.5-1.3,2.3-2.7,1.9c-0.6-0.2-0.7-0.6-0.7-1.1C81.3,118.6,81.3,117,81.3,115.4C81.3,115.4,81.3,115.4,81.3,115.4z"/>
	<path d="M153.2,113.8c0,1.9,0,3.8,0,5.7c0,1.5-0.6,2.1-1.7,2.1c-1.3,0-1.9-0.7-1.9-2.2c0-3.8,0-7.6,0-11.3c0-1.3,0.8-1.5,1.8-1.5
		c1,0,1.8,0.1,1.7,1.5C153.1,109.9,153.1,111.8,153.2,113.8C153.2,113.8,153.2,113.8,153.2,113.8z"/>
</g>
</svg>
