<?xml version="1.0" encoding="UTF-8"?>
<svg version="1.1" xmlns="http://www.w3.org/2000/svg" width="474" height="248">
<path d="M0 0 C156.42 0 312.84 0 474 0 C474 81.84 474 163.68 474 248 C317.58 248 161.16 248 0 248 C0 166.16 0 84.32 0 0 Z " fill="#FDFDFD" transform="translate(0,0)"/>
<path d="M0 0 C0.91644287 0.00523682 1.83288574 0.01047363 2.77709961 0.01586914 C4.26113281 0.02070312 4.26113281 0.02070312 5.77514648 0.02563477 C6.81606445 0.03401367 7.85698242 0.04239258 8.92944336 0.05102539 C10.49662109 0.05779297 10.49662109 0.05779297 12.09545898 0.06469727 C14.68600996 0.07652627 17.27644895 0.0930085 19.86694336 0.11352539 C19.35587002 8.05481886 17.73543766 15.53246924 15.80444336 23.23852539 C15.5227832 24.38579102 15.24112305 25.53305664 14.95092773 26.71508789 C14.26233858 29.51612853 13.56757461 32.31547727 12.86694336 35.11352539 C14.61384863 33.36662012 15.50812069 31.04531083 16.63256836 28.86352539 C17.19331055 27.77942383 17.75405273 26.69532227 18.33178711 25.57836914 C18.92088867 24.4349707 19.50999023 23.29157227 20.11694336 22.11352539 C23.93034581 14.71809546 27.78153345 7.36282418 31.86694336 0.11352539 C37.80694336 0.11352539 43.74694336 0.11352539 49.86694336 0.11352539 C46.07936053 7.98771074 41.94234335 15.47963212 37.46875 22.97705078 C35.32004779 26.59381039 33.24841338 30.1912595 31.42944336 33.98852539 C28.6057859 39.86861493 25.25453008 45.4496339 21.96289062 51.07592773 C21.50841553 51.85274902 21.05394043 52.62957031 20.58569336 53.42993164 C19.98144531 54.45775757 19.98144531 54.45775757 19.36499023 55.50634766 C17.15591675 59.35098515 15.0203327 63.23742458 12.86694336 67.11352539 C5.60694336 67.11352539 -1.65305664 67.11352539 -9.13305664 67.11352539 C-8.46556649 61.10611402 -7.69604885 55.6023909 -6.25805664 49.80102539 C-6.09692383 49.13135742 -5.93579102 48.46168945 -5.76977539 47.77172852 C-4.26360589 41.5427252 -2.69149357 35.32960821 -1.13305664 29.11352539 C-1.49020752 29.802771 -1.8473584 30.4920166 -2.21533203 31.20214844 C-14.81107673 55.4987251 -14.81107673 55.4987251 -21.13305664 67.11352539 C-27.07305664 67.11352539 -33.01305664 67.11352539 -39.13305664 67.11352539 C-37.78997399 63.08427743 -36.84852527 60.30653781 -34.80493164 56.81274414 C-34.34183594 56.01296143 -33.87874023 55.21317871 -33.40161133 54.38916016 C-32.90048828 53.53507568 -32.39936523 52.68099121 -31.88305664 51.80102539 C-30.79862546 49.92926518 -29.71534162 48.05683989 -28.63305664 46.18383789 C-28.06329102 45.19931641 -27.49352539 44.21479492 -26.90649414 43.20043945 C-23.8526377 37.88477854 -20.87002015 32.52946817 -17.88305664 27.17602539 C-10.0847796 13.22384663 -10.0847796 13.22384663 -6.32055664 6.61352539 C-5.41370117 5.02024414 -5.41370117 5.02024414 -4.48852539 3.39477539 C-2.55213108 0.13582934 -2.55213108 0.13582934 0 0 Z " fill="#060606" transform="translate(294.133056640625,90.886474609375)"/>
<path d="M0 0 C1.47005996 -0.01926504 2.94081927 -0.00482198 4.41040039 0.03735352 C5.19193985 0.03872818 5.97347931 0.04010284 6.77870178 0.04151917 C8.42877901 0.05056669 10.07883207 0.07416802 11.72851562 0.11132812 C14.24645357 0.16600779 16.761072 0.17285777 19.27954102 0.17211914 C20.88568925 0.18687098 22.49181517 0.20435874 24.09790039 0.22485352 C24.8470018 0.22819199 25.59610321 0.23153046 26.36790466 0.23497009 C32.06833998 0.38918943 35.32415573 1.73235885 39.32055664 5.72875977 C40.8293065 14.78125892 36.2371044 21.50457551 31.32055664 28.72875977 C30.61286133 29.79739258 29.90516602 30.86602539 29.17602539 31.96704102 C26.32055664 34.72875977 26.32055664 34.72875977 16.32055664 37.72875977 C15.66055664 47.62875977 15.00055664 57.52875977 14.32055664 67.72875977 C8.38055664 67.72875977 2.44055664 67.72875977 -3.67944336 67.72875977 C-3.77107145 58.65757835 -3.51964347 49.760911 -2.67944336 40.72875977 C-4.32944336 40.72875977 -5.97944336 40.72875977 -7.67944336 40.72875977 C-7.95127441 41.44443115 -8.22310547 42.16010254 -8.50317383 42.89746094 C-9.67855011 45.72660971 -11.02442056 48.34568637 -12.49975586 51.02954102 C-13.0347168 52.00600586 -13.56967773 52.9824707 -14.12084961 53.98852539 C-14.67643555 54.99592773 -15.23202148 56.00333008 -15.80444336 57.04125977 C-16.36776367 58.06799805 -16.93108398 59.09473633 -17.51147461 60.15258789 C-18.89826632 62.67936939 -20.28851794 65.2042514 -21.67944336 67.72875977 C-27.94944336 67.72875977 -34.21944336 67.72875977 -40.67944336 67.72875977 C-39.23956796 63.40913358 -38.05094348 60.32190837 -35.85131836 56.49829102 C-35.29831055 55.52956055 -34.74530273 54.56083008 -34.17553711 53.56274414 C-33.59932617 52.5656543 -33.02311523 51.56856445 -32.42944336 50.54125977 C-31.29839914 48.56908266 -30.16818799 46.59642756 -29.03881836 44.62329102 C-28.46711914 43.65601074 -27.89541992 42.68873047 -27.30639648 41.69213867 C-25.61680088 38.7548578 -25.61680088 38.7548578 -24.41186523 35.57397461 C-23.09691441 32.46878349 -21.9923396 30.190146 -19.67944336 27.72875977 C-14.98925955 26.30940225 -10.54051744 26.50463237 -5.67944336 26.72875977 C-3.17967473 26.78254577 -0.67962082 26.82462634 1.82055664 26.85375977 C2.92399414 26.89758789 4.02743164 26.94141602 5.16430664 26.98657227 C9.13866818 26.66193382 11.07119005 26.09590586 14.32055664 23.72875977 C15.97055664 20.42875977 17.62055664 17.12875977 19.32055664 13.72875977 C9.75055664 13.39875977 0.18055664 13.06875977 -9.67944336 12.72875977 C-5.82081875 1.15288594 -5.82081875 1.15288594 0 0 Z " fill="#050505" transform="translate(52.679443359375,90.271240234375)"/>
<path d="M0 0 C4.57149757 -0.07457894 9.14263509 -0.12880276 13.71459961 -0.16479492 C15.2673968 -0.17981105 16.82015209 -0.20023028 18.37280273 -0.22631836 C20.61452624 -0.26302073 22.85568539 -0.27979787 25.09765625 -0.29296875 C25.78336197 -0.30845261 26.46906769 -0.32393646 27.17555237 -0.33988953 C32.95140732 -0.34187204 37.04757264 1.19044775 41.9375 4.1875 C43.75158887 7.2821222 43.47451243 10.55545945 43 14 C41.82525251 17.22005732 40.22597687 20.1072482 38.5 23.0625 C38.04657227 23.85527344 37.59314453 24.64804688 37.12597656 25.46484375 C33.25695157 32.00281721 29.39111585 36.93085299 22.421875 40.21484375 C19.16095078 40.96306951 17.34442679 40.92570342 14.09375 40.53515625 C8.12360279 39.93840793 2.57661726 39.44734423 -3 42 C-9.06058169 48.3224048 -12.55355085 56.63400579 -15.95043945 64.60742188 C-17 67 -17 67 -18 68 C-19.41570123 68.08651611 -20.835595 68.10704904 -22.25390625 68.09765625 C-23.10791016 68.09443359 -23.96191406 68.09121094 -24.84179688 68.08789062 C-25.73962891 68.07951172 -26.63746094 68.07113281 -27.5625 68.0625 C-28.46419922 68.05798828 -29.36589844 68.05347656 -30.29492188 68.04882812 C-32.53001314 68.03700225 -34.76497437 68.0205222 -37 68 C-30.42660504 54.33120519 -23.42224036 40.63336054 -15 28 C-12.17431641 27.58349609 -12.17431641 27.58349609 -8.6015625 27.5234375 C-7.31765625 27.4925 -6.03375 27.4615625 -4.7109375 27.4296875 C-3.34896859 27.41070764 -1.98698891 27.39248631 -0.625 27.375 C2.02883811 27.32679453 4.68228612 27.26943482 7.3359375 27.2109375 C8.51720215 27.19337402 9.6984668 27.17581055 10.91552734 27.15771484 C13.48015249 27.02658077 15.60327206 26.90010292 18 26 C19.16513613 23.80067065 19.16513613 23.80067065 20 21 C20.99 18.69 21.98 16.38 23 14 C13.43 13.67 3.86 13.34 -6 13 C-2 4 -2 4 0 0 Z " fill="#080808" transform="translate(173,90)"/>
<path d="M0 0 C2.78443464 -0.15318083 5.52433254 -0.13189741 8.31210327 -0.0592804 C9.3288765 -0.05220566 10.34564972 -0.04513092 11.39323425 -0.0378418 C14.64427936 -0.00982833 17.89360906 0.052925 21.14413452 0.11650085 C23.34658363 0.14157464 25.5490597 0.16438941 27.7515564 0.18486023 C33.15383548 0.24002075 38.55511247 0.32371594 43.95663452 0.42900085 C42.71739538 3.61641325 41.3815346 6.69336403 39.83163452 9.74150085 C39.4784314 10.43888367 39.12522827 11.13626648 38.76132202 11.8547821 C38.36300171 12.63402039 38.36300171 12.63402039 37.95663452 13.42900085 C37.14508911 13.39121521 36.3335437 13.35342957 35.49740601 13.3144989 C21.19822091 12.03001418 21.19822091 12.03001418 7.94345093 15.75224304 C4.78364827 19.43593373 4.29160545 22.51821493 2.95663452 27.42900085 C11.53663452 27.42900085 20.11663452 27.42900085 28.95663452 27.42900085 C26.70663452 34.17900085 26.70663452 34.17900085 24.95663452 37.42900085 C24.29663452 37.42900085 23.63663452 37.42900085 22.95663452 37.42900085 C22.95663452 38.41900085 22.95663452 39.40900085 22.95663452 40.42900085 C7.44663452 40.42900085 -8.06336548 40.42900085 -24.04336548 40.42900085 C-19.78321741 31.90870472 -15.56023382 23.57952015 -10.79336548 15.36650085 C-10.01992798 14.0216864 -10.01992798 14.0216864 -9.23086548 12.64970398 C-7.84187619 10.23866201 -6.44935429 7.83016773 -5.04336548 5.42900085 C-4.53857666 4.06460876 -4.53857666 4.06460876 -4.02359009 2.6726532 C-2.04336548 0.42900085 -2.04336548 0.42900085 0 0 Z " fill="#070707" transform="translate(404.0433654785156,117.57099914550781)"/>
<path d="M0 0 C15.18 0 30.36 0 46 0 C45.34 1.98 44.68 3.96 44 6 C43.80704346 6.69722168 43.61408691 7.39444336 43.4152832 8.11279297 C42.55575828 10.34018067 41.87624059 11.49138275 40 13 C35.38956033 13.71320841 30.8335433 13.34883128 26.1875 13.125 C17.74851989 12.6682064 17.74851989 12.6682064 10.00439453 15.29248047 C6.83892525 18.98534484 6.33670923 22.08281962 5 27 C13.58 27 22.16 27 31 27 C29 33 29 33 25 40 C9.82 40 -5.36 40 -21 40 C-20.19088346 36.76353385 -19.51244604 34.8605328 -17.92578125 32.05859375 C-17.50828613 31.31520752 -17.09079102 30.57182129 -16.66064453 29.8059082 C-16.21575684 29.0243335 -15.77086914 28.24275879 -15.3125 27.4375 C-14.39940798 25.81529077 -13.48664658 24.1928954 -12.57421875 22.5703125 C-12.13126465 21.7855957 -11.68831055 21.00087891 -11.23193359 20.19238281 C-9.23296428 16.6349622 -7.2921426 13.04650916 -5.3515625 9.45703125 C-3.60582433 6.28342052 -1.79705104 3.14483932 0 0 Z " fill="#060606" transform="translate(219,118)"/>
<path d="M0 0 C15.51 0 31.02 0 47 0 C44.69 4.29 42.38 8.58 40 13 C34.69784004 13.83319657 31.19004701 13.96423502 26 13.5 C17.68319869 12.83113228 17.68319869 12.83113228 10.01757812 15.26611328 C6.84833646 18.966126 6.33773717 22.07903828 5 27 C13.58 27 22.16 27 31 27 C29 33 29 33 25 40 C9.82 40 -5.36 40 -21 40 C-19.33056279 34.99168836 -17.60286172 31.26782428 -15 26.75 C-9.9280392 17.87406861 -4.96466154 8.93639078 0 0 Z " fill="#060606" transform="translate(100,118)"/>
<path d="M0 0 C1.97119141 -0.34057617 1.97119141 -0.34057617 4.3515625 -0.29296875 C5.20234375 -0.28330078 6.053125 -0.27363281 6.9296875 -0.26367188 C7.81914062 -0.23853516 8.70859375 -0.21339844 9.625 -0.1875 C10.97078125 -0.16719727 10.97078125 -0.16719727 12.34375 -0.14648438 C14.56309789 -0.11106925 16.78125188 -0.06168461 19 0 C17.536333 3.90566325 15.72534939 7.46958816 13.69921875 11.11328125 C13.38096634 11.68652634 13.06271393 12.25977142 12.7348175 12.85038757 C12.06300599 14.05885162 11.38973588 15.26650584 10.71508789 16.47338867 C9.69749796 18.29460629 8.68531243 20.11874518 7.67382812 21.94335938 C6.38289829 24.2700096 5.07285374 26.5818896 3.75024414 28.89111328 C2.69128128 30.77210547 1.67224978 32.67746407 0.73217773 34.62060547 C-0.36213037 36.75345474 -1.24948945 38.36265739 -3 40 C-6.16954773 40.92892158 -9.04575117 40.76814671 -12.3125 40.5 C-13.14845703 40.46390625 -13.98441406 40.4278125 -14.84570312 40.390625 C-16.89911906 40.29675456 -18.9501609 40.153259 -21 40 C-20.44110196 34.86829986 -17.95816611 30.95368253 -15.4375 26.5625 C-14.99148438 25.77351318 -14.54546875 24.98452637 -14.0859375 24.17163086 C-12.73035093 21.77738885 -11.36554162 19.38857445 -10 17 C-9.20903191 15.60450856 -8.41862971 14.20869617 -7.62890625 12.8125 C-2.42535864 3.63803796 -2.42535864 3.63803796 0 0 Z " fill="#070707" transform="translate(356,118)"/>
<path d="M0 0 C17.16 0 34.32 0 52 0 C51.34 1.65 50.68 3.3 50 5 C49.5645562 6.09435364 49.5645562 6.09435364 49.12031555 7.21081543 C47.95933555 9.55307539 46.90969489 11.2014097 45 13 C41.11387726 14.11747908 37.37103435 13.93339763 33.35546875 13.78125 C32.2305452 13.76993042 31.10562164 13.75861084 29.9466095 13.74694824 C26.3584971 13.70221308 22.77440142 13.60184465 19.1875 13.5 C16.75331297 13.45986981 14.31906322 13.42336826 11.88476562 13.390625 C5.92180985 13.3024873 -0.03880818 13.16867644 -6 13 C-4.29141232 8.4437662 -2.21277971 4.42555941 0 0 Z " fill="#0B0B0B" transform="translate(355,90)"/>
<path d="M0 0 C15.51 0 31.02 0 47 0 C42.95887855 10.10280363 42.95887855 10.10280363 40 13 C36.47233976 14.10289889 33.11580722 13.93567311 29.44921875 13.78125 C28.43527542 13.76993042 27.42133209 13.75861084 26.37666321 13.74694824 C23.14500216 13.70223984 19.91781442 13.60188599 16.6875 13.5 C14.4942048 13.45986592 12.3008399 13.42336503 10.10742188 13.390625 C4.73676064 13.30252488 -0.6313002 13.16874792 -6 13 C-4.29141232 8.4437662 -2.21277971 4.42555941 0 0 Z " fill="#090909" transform="translate(417,90)"/>
<path d="M0 0 C15.18 0 30.36 0 46 0 C44 6 44 6 40 13 C24.82 13 9.64 13 -6 13 C-5 9 -5 9 0 0 Z " fill="#0A0A0A" transform="translate(116,90)"/>
<path d="M0 0 C15.18 0 30.36 0 46 0 C41.95887855 10.10280363 41.95887855 10.10280363 39 13 C35.47233976 14.10289889 32.11580722 13.93567311 28.44921875 13.78125 C27.43527542 13.76993042 26.42133209 13.75861084 25.37666321 13.74694824 C22.14500216 13.70223984 18.91781442 13.60188599 15.6875 13.5 C13.4942048 13.45986592 11.3008399 13.42336503 9.10742188 13.390625 C3.73676064 13.30252488 -1.6313002 13.16874792 -7 13 C-4.79899013 8.59798026 -2.39014398 4.30225917 0 0 Z " fill="#090909" transform="translate(235,90)"/>
<path d="M0 0 C1.86553955 0.36607361 1.86553955 0.36607361 4 1 C5.46461952 1.1096445 6.93296047 1.17509036 8.40136719 1.20532227 C9.2619574 1.22526749 10.12254761 1.24521271 11.00921631 1.26576233 C11.92914368 1.28247482 12.84907104 1.29918732 13.796875 1.31640625 C15.22003021 1.3475779 15.22003021 1.3475779 16.67193604 1.37937927 C19.69788482 1.44467934 22.7239192 1.50366888 25.75 1.5625 C27.80339421 1.6057038 29.85677982 1.64931869 31.91015625 1.69335938 C36.9400168 1.80034073 41.96996332 1.90166323 47 2 C46.67 2.66 46.34 3.32 46 4 C30.82 3.67 15.64 3.34 0 3 C-0.66 4.98 -1.32 6.96 -2 9 C-3.28072371 11.0340906 -4.60287726 13.04402816 -6 15 C-7.32 14.34 -8.64 13.68 -10 13 C-10 10.69 -10 8.38 -10 6 C-10.433125 6.928125 -10.433125 6.928125 -10.875 7.875 C-12 10 -12 10 -14 12 C-14.99 11.34 -15.98 10.68 -17 10 C-12.25 4.25 -12.25 4.25 -10 2 C-10 2.66 -10 3.32 -10 4 C-9.34 4 -8.68 4 -8 4 C-7.67 3.34 -7.34 2.68 -7 2 C-6.01 2.66 -5.02 3.32 -4 4 C-3.4225 3.319375 -2.845 2.63875 -2.25 1.9375 C-1.5075 1.298125 -0.765 0.65875 0 0 Z " fill="#E2E2E2" transform="translate(219,115)"/>
<path d="M0 0 C1.32 0.99 2.64 1.98 4 3 C4 2.34 4 1.68 4 1 C5.32 0.67 6.64 0.34 8 0 C9.203125 1.609375 9.203125 1.609375 10 4 C8.734375 7.015625 8.734375 7.015625 6.75 10.25 C6.10546875 11.32765625 5.4609375 12.4053125 4.796875 13.515625 C4.20390625 14.33546875 3.6109375 15.1553125 3 16 C2.34 16 1.68 16 1 16 C-1.8394052 12.32547562 -3 10.73113419 -3 6 C-2.06295743 3.9697411 -1.07074592 1.96303418 0 0 Z " fill="#F3F3F3" transform="translate(263,122)"/>
<path d="M0 0 C1.65 0 3.3 0 5 0 C4.67 0.66 4.34 1.32 4 2 C5.1490712 3.2981424 5.1490712 3.2981424 8 4 C7.67 5.98 7.34 7.96 7 10 C20.86 10.495 20.86 10.495 35 11 C35 11.33 35 11.66 35 12 C30.62176083 12.04938149 26.24366854 12.0857104 21.86523438 12.10986328 C20.3752968 12.11993043 18.88537903 12.13358518 17.39550781 12.15087891 C15.25580972 12.17509653 13.11637247 12.18647564 10.9765625 12.1953125 C9.68830566 12.20578613 8.40004883 12.21625977 7.07275391 12.22705078 C4 12 4 12 2 10 C1.67 9.34 1.34 8.68 1 8 C0.34 8 -0.32 8 -1 8 C-1.66 8.66 -2.32 9.32 -3 10 C-4 7 -4 7 -3.22265625 5.17578125 C-2.1484375 3.45052083 -1.07421875 1.72526042 0 0 Z " fill="#E2E2E2" transform="translate(161,92)"/>
<path d="M0 0 C1.5 1.3125 1.5 1.3125 3 3 C3 3.99 3 4.98 3 6 C3.66 6.33 4.32 6.66 5 7 C3.4719611 12.09882455 1.28963144 16.65665659 -1.125 21.375 C-1.49753906 22.11105469 -1.87007813 22.84710938 -2.25390625 23.60546875 C-3.1656122 25.40550358 -4.08229932 27.20301402 -5 29 C-6.30024896 24.75508673 -5.33789268 21.48728087 -4.1875 17.3125 C-3.81033445 15.88173776 -3.43402723 14.45074897 -3.05859375 13.01953125 C-2.87538574 12.33068848 -2.69217773 11.6418457 -2.50341797 10.93212891 C-1.56003119 7.31139032 -0.7838331 3.6578878 0 0 Z " fill="#EFEFEF" transform="translate(312,101)"/>
<path d="M0 0 C1.65 0 3.3 0 5 0 C5 4.29 5 8.58 5 13 C4.34 12.01 3.68 11.02 3 10 C2.01 10.66 1.02 11.32 0 12 C0 11.34 0 10.68 0 10 C-1.32 9.34 -2.64 8.68 -4 8 C-2.68 5.36 -1.36 2.72 0 0 Z " fill="#F1F1F1" transform="translate(45,131)"/>
<path d="M0 0 C13.365 0.495 13.365 0.495 27 1 C26.34 2.98 25.68 4.96 25 7 C24.01 7.33 23.02 7.66 22 8 C21.67 8.66 21.34 9.32 21 10 C20.40267181 7.23735711 20 4.83967231 20 2 C13.4 2 6.8 2 0 2 C0 1.34 0 0.68 0 0 Z " fill="#1E1E1E" transform="translate(223,144)"/>
<path d="M0 0 C0.99 0.33 1.98 0.66 3 1 C3 1.33 3 1.66 3 2 C18.18 2.33 33.36 2.66 49 3 C48.67 3.66 48.34 4.32 48 5 C32.82 4.67 17.64 4.34 2 4 C1.67 4.66 1.34 5.32 1 6 C0.67 4.02 0.34 2.04 0 0 Z " fill="#BFBFBF" transform="translate(400,114)"/>
<path d="M0 0 C0.99 0.66 1.98 1.32 3 2 C3.66 2.33 4.32 2.66 5 3 C3.9831543 5.46948242 3.9831543 5.46948242 2 8 C-0.78466446 8.45661506 -2.95505165 8.58663497 -5.73046875 8.48828125 C-6.85609978 8.47766914 -6.85609978 8.47766914 -8.00447083 8.46684265 C-10.39983095 8.43886657 -12.79284747 8.37613009 -15.1875 8.3125 C-16.81181518 8.28742092 -18.43616703 8.26460706 -20.06054688 8.24414062 C-24.04126671 8.18903043 -28.02023615 8.10274233 -32 8 C-32 7.67 -32 7.34 -32 7 C-16.655 6.505 -16.655 6.505 -1 6 C-0.67 4.02 -0.34 2.04 0 0 Z " fill="#0C0C0C" transform="translate(242,150)"/>
<path d="M0 0 C0.144375 0.598125 0.28875 1.19625 0.4375 1.8125 C0.8872439 3.56150404 1.42892341 5.28677023 2 7 C1.34 7 0.68 7 0 7 C0 7.99 0 8.98 0 10 C0.66 10.33 1.32 10.66 2 11 C2 11.66 2 12.32 2 13 C-0.64 13 -3.28 13 -6 13 C-4.58707905 8.1725201 -2.57025846 4.2837641 0 0 Z " fill="#0F0F0F" transform="translate(261,145)"/>
<path d="M0 0 C0.66 0.66 1.32 1.32 2 2 C1.67 2.66 1.34 3.32 1 4 C-10.22 4 -21.44 4 -33 4 C-33 3.67 -33 3.34 -33 3 C-23.1 3 -13.2 3 -3 3 C-2.67 2.34 -2.34 1.68 -2 1 C-1.34 0.67 -0.68 0.34 0 0 Z " fill="#0D0D0D" transform="translate(124,154)"/>
<path d="M0 0 C3 4 3 4 2.875 6 C1.87137069 8.29400986 0.58559997 10.06970438 -1 12 C-2.32 11.01 -3.64 10.02 -5 9 C-3.35 6.03 -1.7 3.06 0 0 Z " fill="#EDEDED" transform="translate(144,122)"/>
<path d="M0 0 C4.62 0 9.24 0 14 0 C14 0.33 14 0.66 14 1 C13.31292969 1.03738281 12.62585938 1.07476562 11.91796875 1.11328125 C11.01691406 1.17902344 10.11585937 1.24476562 9.1875 1.3125 C8.29417969 1.37050781 7.40085937 1.42851563 6.48046875 1.48828125 C2.56071898 2.29692254 1.34200256 4.56472402 -1.0625 7.625 C-3 10 -3 10 -5 11 C-3.53447054 7.1670768 -1.85375622 3.70751245 0 0 Z " fill="#151515" transform="translate(100,118)"/>
<path d="M0 0 C1.06528748 2.73019786 1.07998186 3.79298812 0.00390625 6.578125 C-0.47175781 7.45984375 -0.94742187 8.3415625 -1.4375 9.25 C-1.91058594 10.14203125 -2.38367188 11.0340625 -2.87109375 11.953125 C-3.24363281 12.62859375 -3.61617188 13.3040625 -4 14 C-5.02328619 10.80588526 -4.96256253 8.5784116 -4.25 5.3125 C-4.09015625 4.52488281 -3.9303125 3.73726563 -3.765625 2.92578125 C-3.51296875 2.29027344 -3.2603125 1.65476562 -3 1 C-2.01 0.67 -1.02 0.34 0 0 Z " fill="#CECECE" transform="translate(311,116)"/>
<path d="M0 0 C1 2 1 2 0.51171875 3.83984375 C0.23972656 4.53207031 -0.03226563 5.22429687 -0.3125 5.9375 C-0.70888672 6.97197266 -0.70888672 6.97197266 -1.11328125 8.02734375 C-2 10 -2 10 -4 13 C-4.99 12.67 -5.98 12.34 -7 12 C-4.69 8.04 -2.38 4.08 0 0 Z " fill="#E3E3E3" transform="translate(167,136)"/>
<path d="M0 0 C0.66 0.33 1.32 0.66 2 1 C1.8125 3.875 1.8125 3.875 1 7 C-1.5625 8.375 -1.5625 8.375 -4 9 C-2.80100302 5.9168649 -1.52299523 2.93720508 0 0 Z " fill="#E9E9E9" transform="translate(109,136)"/>
<path d="M0 0 C0.97608217 2.92824652 1.08226668 4.95613276 1 8 C-0.65 8.33 -2.3 8.66 -4 9 C-2.94124926 5.59687262 -1.99097846 2.98646769 0 0 Z " fill="#161616" transform="translate(276,119)"/>
<path d="M0 0 C0.99 0.33 1.98 0.66 3 1 C3 1.33 3 1.66 3 2 C7.29 2.33 11.58 2.66 16 3 C16 3.33 16 3.66 16 4 C11.38 4 6.76 4 2 4 C1.67 4.66 1.34 5.32 1 6 C0.67 4.02 0.34 2.04 0 0 Z " fill="#DBDBDB" transform="translate(400,114)"/>
<path d="M0 0 C1.9375 0.8125 1.9375 0.8125 4 2 C4.33 2.99 4.66 3.98 5 5 C4.34 5.66 3.68 6.32 3 7 C2.67 6.34 2.34 5.68 2 5 C0.68 5.33 -0.64 5.66 -2 6 C-1.34 4.02 -0.68 2.04 0 0 Z " fill="#181818" transform="translate(387,144)"/>
<path d="M0 0 C0.144375 0.598125 0.28875 1.19625 0.4375 1.8125 C0.8872439 3.56150404 1.42892341 5.28677023 2 7 C0.02 7.66 -1.96 8.32 -4 9 C-2.80100302 5.9168649 -1.52299523 2.93720508 0 0 Z " fill="#1F1F1F" transform="translate(261,145)"/>
<path d="M0 0 C0.66 0.66 1.32 1.32 2 2 C0.68 4.31 -0.64 6.62 -2 9 C-4 6 -4 6 -4 3 C-2.68 2.67 -1.36 2.34 0 2 C0 1.34 0 0.68 0 0 Z " fill="#E9E9E9" transform="translate(153,123)"/>
<path d="M0 0 C-0.66 1.65 -1.32 3.3 -2 5 C-2.66 5 -3.32 5 -4 5 C-4 4.34 -4 3.68 -4 3 C-5.98 3.99 -5.98 3.99 -8 5 C-7.625 3.0625 -7.625 3.0625 -7 1 C-4.53721199 -0.231394 -2.7204945 -0.07159196 0 0 Z " fill="#121212" transform="translate(423,91)"/>
<path d="M0 0 C1.485 0.99 1.485 0.99 3 2 C3.66 2.33 4.32 2.66 5 3 C3.68 4.65 2.36 6.3 1 8 C-1.125 3.375 -1.125 3.375 0 0 Z " fill="#191919" transform="translate(242,150)"/>
<path d="M0 0 C1.32 0 2.64 0 4 0 C2.125 4.75 2.125 4.75 1 7 C0.34 6.67 -0.32 6.34 -1 6 C-1.625 3.9375 -1.625 3.9375 -2 2 C-1.34 2 -0.68 2 0 2 C0 1.34 0 0.68 0 0 Z " fill="#131313" transform="translate(459,91)"/>
<path d="M0 0 C1.125 1.6875 1.125 1.6875 2 4 C1.125 6.75 1.125 6.75 0 9 C-0.99 8.67 -1.98 8.34 -3 8 C-1.125 2.25 -1.125 2.25 0 0 Z " fill="#EBEBEB" transform="translate(250,145)"/>
<path d="M0 0 C0.99 0.66 1.98 1.32 3 2 C1.6875 4 1.6875 4 0 6 C-0.99 6 -1.98 6 -3 6 C-3 3 -3 3 -1.5 1.3125 C-0.7575 0.6628125 -0.7575 0.6628125 0 0 Z " fill="#EAEAEA" transform="translate(29,120)"/>
<path d="M0 0 C1.21744727 3.65234182 0.64202228 4.62953322 -1 8 C-1.66 8.66 -2.32 9.32 -3 10 C-3.99 9.34 -4.98 8.68 -6 8 C-4.73046875 6.50260417 -3.4609375 5.00520833 -2.19140625 3.5078125 C-0.9121848 1.99405921 -0.9121848 1.99405921 0 0 Z " fill="#DCDCDC" transform="translate(208,117)"/>
<path d="M0 0 C4.29 0 8.58 0 13 0 C13 0.33 13 0.66 13 1 C11.39602723 1.16852247 9.7918131 1.33474886 8.1875 1.5 C7.29417969 1.5928125 6.40085937 1.685625 5.48046875 1.78125 C3 2 3 2 0 2 C0 1.34 0 0.68 0 0 Z M-1 2 C-0.67 2.66 -0.34 3.32 0 4 C-0.66 3.67 -1.32 3.34 -2 3 C-1.67 2.67 -1.34 2.34 -1 2 Z " fill="#101010" transform="translate(356,118)"/>
<path d="M0 0 C0.33 1.32 0.66 2.64 1 4 C-0.65 5.32 -2.3 6.64 -4 8 C-4 5.66666667 -4 3.33333333 -4 1 C-2.68 0.67 -1.36 0.34 0 0 Z " fill="#EBEBEB" transform="translate(150,114)"/>
<path d="M0 0 C0.33 0.99 0.66 1.98 1 3 C0.33333333 4.33333333 -0.33333333 5.66666667 -1 7 C-0.67 7.99 -0.34 8.98 0 10 C-1.32 10 -2.64 10 -4 10 C-2.8905928 6.51329166 -1.73662334 3.22515763 0 0 Z " fill="#171717" transform="translate(47,93)"/>
<path d="M0 0 C0.33 0 0.66 0 1 0 C1.25 2.25 1.25 2.25 1 5 C-1 7.3125 -1 7.3125 -3 9 C-3.66 8.67 -4.32 8.34 -5 8 C-4.19185349 6.66402348 -3.37836819 5.331275 -2.5625 4 C-2.11003906 3.2575 -1.65757812 2.515 -1.19140625 1.75 C-0.79824219 1.1725 -0.40507812 0.595 0 0 Z " fill="#EDEDED" transform="translate(414,131)"/>
<path d="M0 0 C2 3.75 2 3.75 2 6 C0 7 -2 8 -4 9 C-2.80100302 5.9168649 -1.52299523 2.93720508 0 0 Z " fill="#1C1C1C" transform="translate(395,130)"/>
<path d="M0 0 C0.66 0 1.32 0 2 0 C0.83857315 4.35535069 -0.07699505 6.64619703 -4 9 C-2.80100302 5.9168649 -1.52299523 2.93720508 0 0 Z " fill="#D6D6D6" transform="translate(339,99)"/>
<path d="M0 0 C0.99 0.99 1.98 1.98 3 3 C2.03114628 4.68496298 1.03013277 6.35178756 0 8 C-0.33 8 -0.66 8 -1 8 C-0.67 5.36 -0.34 2.72 0 0 Z " fill="#DCDCDC" transform="translate(312,101)"/>
</svg>
