<?xml version="1.0" encoding="utf-8"?>
<!-- Generator: Adobe Illustrator 27.5.0, SVG Export Plug-In . SVG Version: 6.00 Build 0)  -->
<svg version="1.1" id="Capa_1" xmlns="http://www.w3.org/2000/svg" xmlns:xlink="http://www.w3.org/1999/xlink" x="0px" y="0px"
	 viewBox="0 0 295.3 78.1" style="enable-background:new 0 0 295.3 78.1;" xml:space="preserve">
<style type="text/css">
	.st0{fill-rule:evenodd;clip-rule:evenodd;fill:#050006;}
</style>
<g>
	<path class="st0" d="M169.5,25v-8c0-2.6-1.8-4.7-3.8-4.7l0,0c-2.1,0-3.8,2.1-3.8,4.7v9.4c7,7.7,11,11.5,18.2,20.2V62
		c0,8.4-5.4,15.3-13.9,15.3l0,0c-8.5,0-15.4-6.8-15.4-15.2V48.8h7.6l3.5,4.4v8.4c0,2.6,1.8,4.6,3.8,4.6l0,0c2.1,0,3.8-2.1,3.8-4.6
		v-9.8l-18.7-19.8V16.1c0-8.4,6.9-15.2,15.4-15.2l0,0c8.5,0,13.9,6.7,13.9,15v12.5l-7,0.1L169.5,25L169.5,25z"/>
	<path class="st0" d="M240.4,0.8c-8.1,0-14.8,6.7-14.8,14.9v45.1c0,8.1,6.7,14.8,14.8,14.8c8.1,0,14.7-6.7,14.7-14.8V15.7
		C255.2,7.6,248.6,0.8,240.4,0.8z M243.5,60.2c0,2.5-1.6,4.6-3.6,4.6s-3.7-2.1-3.7-4.6V16.5c0-2.5,1.7-4.6,3.7-4.6s3.6,2.1,3.6,4.6
		V60.2z"/>
	<polygon class="st0" points="199.5,75.6 188.1,75.6 188.1,1.6 199.5,1.6 199.5,32.7 205.7,32.7 205.7,1.6 217.3,1.6 217.3,75.6 
		205.7,75.6 205.7,45 199.5,45 199.5,75.6 	"/>
	<polygon class="st0" points="274.9,75.8 263.7,75.8 263.7,46.4 271.3,38.7 263.7,31.1 263.7,1.6 274.9,1.6 274.9,15.6 274.9,20.9 
		274.9,26.3 278.4,30.9 281.9,26.5 281.9,20.9 281.9,15.4 281.9,1.6 293.1,1.6 293.1,31.1 285.8,38.4 285.8,39.1 293.1,46.4 
		293.1,75.8 281.9,75.8 281.9,63 281.9,60.4 281.9,51.9 278.4,47.5 274.9,52.1 274.9,60.4 274.9,62.9 274.9,75.8 	"/>
	<path class="st0" d="M2.2,75.8c0-24.7,0-49.4,0-74c4.5,0,9.1,0,13.6,0c2.1,0,3.8-0.1,5.8,0.6c15,5,11.4,32.2,5.4,36.3
		c2.3,2.3,4.8,4.5,4.8,15.4c0,7.3,0,14.4,0,21.7c-3.8,0-7.6,0-11.5,0c0.1-8.4,0.1-16.8,0.2-25.2c0-0.7,0.1-1.5,0-2.1
		c-0.5-4.5-5.1-3.4-7-3.4c0,10.2,0,20.5,0,30.7C9.8,75.8,6,75.8,2.2,75.8L2.2,75.8z M13.8,33.5c-0.1-6.7-0.1-13.3-0.1-19.9
		c3.2,0.1,7.2,0.4,7.2,4.5c0.1,3.6,0.1,7.3,0.1,10.9c0,1-0.1,1.7-0.5,2.5C19.3,33.8,16.6,33.7,13.8,33.5L13.8,33.5z M54.9,76.4
		L54.9,76.4c-8.1,0-14.8-6.7-14.8-14.9v-45c0-8.2,6.7-14.9,14.8-14.9l0,0c8.1,0,14.8,6.7,14.8,14.9v45C69.7,69.7,63,76.4,54.9,76.4
		L54.9,76.4z M54.4,65.5L54.4,65.5c2,0,3.7-2.1,3.7-4.6V17.2c0-2.5-1.7-4.6-3.7-4.6l0,0c-2,0-3.6,2.1-3.6,4.6v43.6
		C50.8,63.4,52.4,65.5,54.4,65.5L54.4,65.5z M91.7,65.5L91.7,65.5c2,0,3.6-2.1,3.6-4.6V49.7h11.7v11.7c0,8.2-6.6,14.9-14.7,14.9l0,0
		c-8.2,0-14.8-6.7-14.8-14.9v-45c0-8.1,6.7-14.9,14.8-14.9c0.1,0,0.2,0,0.4,0l14.2,0.1l0.2,14.7v12.2H95.3V17.2l0.1-4.5l-3.4-0.1
		c-0.1,0-0.1,0-0.2,0l0,0c-2,0-3.7,2.1-3.7,4.6v43.6C88,63.4,89.7,65.5,91.7,65.5L91.7,65.5z M126.1,76.1h-11.1V2h11.1v27.9l6.7-6.5
		V2H144v26.5l-10.3,10.3L144,49.2v26.9h-11.1V54.4l-6.7-6.5V76.1L126.1,76.1z"/>
</g>
</svg>
