<?xml version="1.0" encoding="utf-8"?>
<!-- Generator: Adobe Illustrator 21.1.0, SVG Export Plug-In . SVG Version: 6.00 Build 0)  -->
<svg version="1.1" id="Livello_1" xmlns="http://www.w3.org/2000/svg" xmlns:xlink="http://www.w3.org/1999/xlink" x="0px" y="0px"
	 viewBox="0 0 235.8 32.1" enable-background="new 0 0 235.8 32.1" xml:space="preserve">
<g>
	<defs>
		<rect id="SVGID_1_" y="0" width="235.8" height="32.1"/>
	</defs>
	<clipPath id="SVGID_2_">
		<use xlink:href="#SVGID_1_"  overflow="visible"/>
	</clipPath>
	<path clip-path="url(#SVGID_2_)" fill="#020203" d="M83.2,31.7c0,0.2-0.4,0.4-1,0.4s-1-0.2-1-0.4v-5.3c0-0.2,0.3-0.4,1.1-0.4h4.1
		c3.4,0,5.4,0.8,5.4,1.9c0,1-2.3,1.9-5.4,1.9h-3.2V31.7z M83.2,29.1h3.1c2.1,0,3.4-0.5,3.4-1.2c0-0.6-0.9-1.2-3.5-1.2h-3V29.1z"/>
	<path clip-path="url(#SVGID_2_)" fill="#020203" d="M105.1,31.7c0,0.2-0.4,0.4-1,0.4s-1-0.2-1-0.4v-5.3c0-0.2,0.3-0.4,1.1-0.4h3.8
		c2.6,0,5.1,0.6,5.1,1.6c0,1.2-2.1,1.7-4.6,1.7l-0.9,0l5.4,2.1c0.3,0.1,0.4,0.2,0.4,0.3c0,0.2-0.4,0.3-0.9,0.3
		c-0.4,0-0.7-0.1-0.9-0.2l-6.4-2.5V31.7z M105.1,28.8h2.8c2.2,0,3.1-0.3,3.1-1.1c0-0.6-1.2-1-3.2-1h-2.8V28.8z"/>
	<path clip-path="url(#SVGID_2_)" fill="#020203" d="M131.6,26c4.8,0,7.4,1.5,7.4,3.1c0,1.6-2.6,3.1-7.4,3.1c-4.8,0-7.4-1.5-7.4-3.1
		C124.3,27.5,126.9,26,131.6,26 M131.6,31.4c3.8,0,5.1-1.3,5.1-2.4c0-1.1-1.4-2.4-5.1-2.4c-3.8,0-5.1,1.3-5.1,2.4
		C126.5,30.2,127.9,31.4,131.6,31.4"/>
	<path clip-path="url(#SVGID_2_)" fill="#020203" d="M154.7,26.4c0-0.2,0.4-0.4,1-0.4c0.6,0,1,0.2,1,0.4v4.1c0,1-1.1,1.6-4.1,1.6
		c-1.1,0-3.4-0.2-3.4-0.7c0-0.2,0.3-0.3,0.8-0.3c0.9,0,1,0.3,2.8,0.3c1.4,0,1.8-0.4,1.8-0.9V26.4z"/>
	<path clip-path="url(#SVGID_2_)" fill="#020203" d="M171.3,31.3h5c0.6,0,1,0.1,1,0.3c0,0.2-0.4,0.3-1,0.3h-6
		c-0.8,0-1.1-0.2-1.1-0.4v-5.2c0-0.2,0.3-0.4,1.1-0.4h6c0.6,0,1,0.1,1,0.3s-0.4,0.3-1,0.3h-5v2h4.6c0.6,0,1,0.1,1,0.3
		s-0.4,0.3-1,0.3h-4.6V31.3z"/>
	<path clip-path="url(#SVGID_2_)" fill="#020203" d="M196,31.4c2.5,0,3.6-0.5,4.5-0.5c0.5,0,0.8,0.1,0.8,0.3c0,0.4-2.4,0.8-5.3,0.8
		c-4.9,0-7.4-1.5-7.4-3.1c0-1.6,2.5-3.1,7.5-3.1c3,0,4.9,0.6,4.9,0.9c0,0.2-0.3,0.4-0.9,0.4c-0.9,0-1.4-0.6-4-0.6
		c-3.7,0-5.3,1.3-5.3,2.4C190.9,30.2,192.5,31.4,196,31.4"/>
	<path clip-path="url(#SVGID_2_)" fill="#020203" d="M215.8,26.7h-3.1c-0.6,0-1-0.1-1-0.3s0.4-0.3,1-0.3h8.4c0.6,0,1,0.1,1,0.3
		s-0.4,0.3-1,0.3h-3.1v5c0,0.2-0.4,0.4-1,0.4c-0.6,0-1-0.2-1-0.4V26.7z"/>
	<path clip-path="url(#SVGID_2_)" fill="#020203" d="M77.3,9.1v9.2c0,1.4-2.2,2.2-5.2,2.2c-3,0-5.2-0.8-5.2-2.2v-16
		c0-1.4,1.9-2.2,5.3-2.2h12.1c10.6,0,17.1,2,17.1,6.4c0,3.1-5.7,4.9-12.7,5.4l11.7,5.2c1,0.4,1.4,0.9,1.4,1.3c0,1.1-2.1,2.2-5.2,2.2
		c-1.2,0-2.9-0.2-4-0.7L82,14.5c-0.4-0.2-0.6-0.6-0.6-1.1l0-3.1c0-0.7,0.5-1.2,1.2-1.2h1.8c3.8,0,6.4-0.9,6.4-2.5
		c0-1.6-2.6-2.5-6.4-2.5h-5.9c-0.7,0-1.2,0.5-1.2,1.2V9.1"/>
	<path clip-path="url(#SVGID_2_)" fill="#020203" d="M106.9,2.2c0-1.4,2.2-2.2,5.2-2.2c3,0,5.2,0.8,5.2,2.2v9.9
		c0,2.6,4.1,4.7,10.6,4.7c6.3,0,10.5-2.2,10.5-4.7V2.2c0-1.4,2.2-2.2,5.2-2.2s5.2,0.8,5.2,2.2v10.2c0,4.8-9.5,8.4-20.8,8.4
		c-11.5,0-20.9-3.6-20.9-8.4V2.2z"/>
	<path clip-path="url(#SVGID_2_)" fill="#020203" d="M155.5,2.4c0-1.3,2.2-2.2,5.3-2.2h11.4c15.4,0,24.2,4.1,24.2,10.4
		c0,6-9.3,9.8-23.5,9.8h-12c-2.3,0-5.4-0.5-5.4-2.1V2.4z M165.8,15.3c0,0.7,0.5,1.2,1.2,1.2h5.8c8.9,0,12.9-2.7,12.9-6.1
		c0-3.6-4.1-6.3-13.6-6.3H167c-0.7,0-1.2,0.5-1.2,1.2V15.3z"/>
	<path clip-path="url(#SVGID_2_)" fill="#020203" d="M211.5,11.6c0-0.4-0.2-0.8-0.6-1l-12.4-7.2c-0.6-0.4-1-0.8-1-1.3
		c0-1.1,2.1-2.1,4.9-2.1c1.8,0,3.4,0.3,4.3,0.9l9.3,5.6c0.4,0.2,0.9,0.2,1.2,0l9.3-5.6c0.9-0.5,2.5-0.9,4.3-0.9
		c2.9,0,4.9,0.9,4.9,2.1c0,0.5-0.3,0.9-1,1.3l-12.4,7.2c-0.4,0.2-0.6,0.6-0.6,1v6.9c0,1.1-1.5,2.1-5.2,2.1c-3.6,0-5.2-1-5.2-2.1
		V11.6z"/>
	<path clip-path="url(#SVGID_2_)" fill-rule="evenodd" clip-rule="evenodd" fill="#020203" d="M38.4,0.1H9.8C4.4,0.1,0,4.5,0,9.9
		v12.3c0,5.4,4.4,9.8,9.8,9.8h28.6c5.4,0,9.8-4.4,9.8-9.8V9.9C48.3,4.5,43.8,0.1,38.4,0.1 M30.5,29c-1.4,0.7-3.6,0.6-4.9-0.2L5,16.1
		c-0.6-0.4-0.9-0.9-0.8-1.4c0.2-1,1.8-1.8,3.8-1.7c0.9,0,1.8,0.3,2.4,0.6l20.6,12.7C32.2,27.2,32,28.4,30.5,29 M39.5,27.5
		c-0.9,0-1.8-0.3-2.4-0.6L6.1,7.6C5.5,7.3,5.2,6.8,5.2,6.3C5.4,5.3,7,4.5,9,4.6c1,0.1,1.8,0.3,2.4,0.7l31,19.1
		c0.6,0.4,0.9,0.9,0.9,1.4C43.1,26.8,41.4,27.5,39.5,27.5 M40.3,19.1c-0.9,0-1.8-0.3-2.4-0.6L17.4,5.7c-1.2-0.8-1.1-1.9,0.4-2.6
		c1.4-0.7,3.6-0.6,4.9,0.2l20.6,12.7c0.6,0.4,0.9,0.9,0.8,1.4C44,18.4,42.3,19.2,40.3,19.1"/>
</g>
</svg>
