<?xml version="1.0" encoding="utf-8"?>
<!-- Generator: $$$/GeneralStr/196=Adobe Illustrator 27.6.0, SVG Export Plug-In . SVG Version: 6.00 Build 0)  -->
<svg version="1.1" id="Livello_1" xmlns="http://www.w3.org/2000/svg" xmlns:xlink="http://www.w3.org/1999/xlink" x="0px" y="0px"
	 viewBox="0 0 235.8 32.1" style="enable-background:new 0 0 235.8 32.1;" xml:space="preserve">
<style type="text/css">
	.st0{clip-path:url(#SVGID_00000062907088554587224430000016052081960727291818_);fill:#020203;}
	.st1{clip-path:url(#SVGID_00000142870784810544760510000002416959318575669938_);fill:#020203;}
	.st2{clip-path:url(#SVGID_00000153681120457871300290000009262206738103081361_);fill:#020203;}
	.st3{clip-path:url(#SVGID_00000084489946479932113610000000777465243719047831_);fill:#020203;}
	.st4{clip-path:url(#SVGID_00000150104096611487807700000006613589382365305528_);fill:#020203;}
	.st5{clip-path:url(#SVGID_00000164507439564446114600000000398004655174529470_);fill:#020203;}
	.st6{clip-path:url(#SVGID_00000104701008952314843540000006085010898584666264_);fill:#020203;}
	.st7{clip-path:url(#SVGID_00000096053884538404842380000007852323787146880643_);fill:#020203;}
	.st8{clip-path:url(#SVGID_00000155110764454367966420000009866554122779562911_);fill:#020203;}
	.st9{clip-path:url(#SVGID_00000090259765679433988060000013619410592920540809_);fill:#020203;}
	.st10{clip-path:url(#SVGID_00000043452962024630678110000015664709216373569726_);fill:#020203;}
	
		.st11{clip-path:url(#SVGID_00000057147358618317255620000002793298079322042517_);fill-rule:evenodd;clip-rule:evenodd;fill:#020203;}
</style>
<g>
	<g>
		<defs>
			<rect id="SVGID_1_" width="235.8" height="32.1"/>
		</defs>
		<clipPath id="SVGID_00000049183531984545032590000007252640630225077664_">
			<use xlink:href="#SVGID_1_"  style="overflow:visible;"/>
		</clipPath>
		<path style="clip-path:url(#SVGID_00000049183531984545032590000007252640630225077664_);fill:#020203;" d="M83.2,31.7
			c0,0.2-0.4,0.4-1,0.4s-1-0.2-1-0.4v-5.3c0-0.2,0.3-0.4,1.1-0.4h4.1c3.4,0,5.4,0.8,5.4,1.9c0,1-2.3,1.9-5.4,1.9h-3.2V31.7z
			 M83.2,29.1h3.1c2.1,0,3.4-0.5,3.4-1.2c0-0.6-0.9-1.2-3.5-1.2h-3V29.1z"/>
	</g>
	<g>
		<defs>
			<rect id="SVGID_00000116955894367612018640000001029755941704682909_" width="235.8" height="32.1"/>
		</defs>
		<clipPath id="SVGID_00000183218846130387359190000012960658450750000808_">
			<use xlink:href="#SVGID_00000116955894367612018640000001029755941704682909_"  style="overflow:visible;"/>
		</clipPath>
		<path style="clip-path:url(#SVGID_00000183218846130387359190000012960658450750000808_);fill:#020203;" d="M105.1,31.7
			c0,0.2-0.4,0.4-1,0.4s-1-0.2-1-0.4v-5.3c0-0.2,0.3-0.4,1.1-0.4h3.8c2.6,0,5.1,0.6,5.1,1.6c0,1.2-2.1,1.7-4.6,1.7h-0.9l5.4,2.1
			c0.3,0.1,0.4,0.2,0.4,0.3c0,0.2-0.4,0.3-0.9,0.3c-0.4,0-0.7-0.1-0.9-0.2l-6.4-2.5L105.1,31.7L105.1,31.7z M105.1,28.8h2.8
			c2.2,0,3.1-0.3,3.1-1.1c0-0.6-1.2-1-3.2-1H105L105.1,28.8L105.1,28.8z"/>
	</g>
	<g>
		<defs>
			<rect id="SVGID_00000078005588226722786990000017035467304923681689_" width="235.8" height="32.1"/>
		</defs>
		<clipPath id="SVGID_00000176735335144746635850000006005691782530152622_">
			<use xlink:href="#SVGID_00000078005588226722786990000017035467304923681689_"  style="overflow:visible;"/>
		</clipPath>
		<path style="clip-path:url(#SVGID_00000176735335144746635850000006005691782530152622_);fill:#020203;" d="M131.6,26
			c4.8,0,7.4,1.5,7.4,3.1s-2.6,3.1-7.4,3.1c-4.8,0-7.4-1.5-7.4-3.1C124.3,27.5,126.9,26,131.6,26 M131.6,31.4c3.8,0,5.1-1.3,5.1-2.4
			s-1.4-2.4-5.1-2.4c-3.8,0-5.1,1.3-5.1,2.4C126.5,30.2,127.9,31.4,131.6,31.4"/>
	</g>
	<g>
		<defs>
			<rect id="SVGID_00000030470126972115348410000006967799257591048833_" width="235.8" height="32.1"/>
		</defs>
		<clipPath id="SVGID_00000031199711596405091990000002261638303113562758_">
			<use xlink:href="#SVGID_00000030470126972115348410000006967799257591048833_"  style="overflow:visible;"/>
		</clipPath>
		<path style="clip-path:url(#SVGID_00000031199711596405091990000002261638303113562758_);fill:#020203;" d="M154.7,26.4
			c0-0.2,0.4-0.4,1-0.4s1,0.2,1,0.4v4.1c0,1-1.1,1.6-4.1,1.6c-1.1,0-3.4-0.2-3.4-0.7c0-0.2,0.3-0.3,0.8-0.3c0.9,0,1,0.3,2.8,0.3
			c1.4,0,1.8-0.4,1.8-0.9L154.7,26.4L154.7,26.4z"/>
	</g>
	<g>
		<defs>
			<rect id="SVGID_00000155834139820956873440000016022598747524256413_" width="235.8" height="32.1"/>
		</defs>
		<clipPath id="SVGID_00000177477071482232874130000002827304638370139827_">
			<use xlink:href="#SVGID_00000155834139820956873440000016022598747524256413_"  style="overflow:visible;"/>
		</clipPath>
		<path style="clip-path:url(#SVGID_00000177477071482232874130000002827304638370139827_);fill:#020203;" d="M171.3,31.3h5
			c0.6,0,1,0.1,1,0.3c0,0.2-0.4,0.3-1,0.3h-6c-0.8,0-1.1-0.2-1.1-0.4v-5.2c0-0.2,0.3-0.4,1.1-0.4h6c0.6,0,1,0.1,1,0.3
			s-0.4,0.3-1,0.3h-5v2h4.6c0.6,0,1,0.1,1,0.3s-0.4,0.3-1,0.3h-4.6V31.3z"/>
	</g>
	<g>
		<defs>
			<rect id="SVGID_00000158024910281946121350000006470245684725741722_" width="235.8" height="32.1"/>
		</defs>
		<clipPath id="SVGID_00000071545801561306348780000012395087737456961669_">
			<use xlink:href="#SVGID_00000158024910281946121350000006470245684725741722_"  style="overflow:visible;"/>
		</clipPath>
		<path style="clip-path:url(#SVGID_00000071545801561306348780000012395087737456961669_);fill:#020203;" d="M196,31.4
			c2.5,0,3.6-0.5,4.5-0.5c0.5,0,0.8,0.1,0.8,0.3c0,0.4-2.4,0.8-5.3,0.8c-4.9,0-7.4-1.5-7.4-3.1s2.5-3.1,7.5-3.1c3,0,4.9,0.6,4.9,0.9
			c0,0.2-0.3,0.4-0.9,0.4c-0.9,0-1.4-0.6-4-0.6c-3.7,0-5.3,1.3-5.3,2.4C190.9,30.2,192.5,31.4,196,31.4"/>
	</g>
	<g>
		<defs>
			<rect id="SVGID_00000111183203126050595200000012172702350685789062_" width="235.8" height="32.1"/>
		</defs>
		<clipPath id="SVGID_00000175282396543377118380000017182806377769910171_">
			<use xlink:href="#SVGID_00000111183203126050595200000012172702350685789062_"  style="overflow:visible;"/>
		</clipPath>
		<path style="clip-path:url(#SVGID_00000175282396543377118380000017182806377769910171_);fill:#020203;" d="M215.8,26.7h-3.1
			c-0.6,0-1-0.1-1-0.3s0.4-0.3,1-0.3h8.4c0.6,0,1,0.1,1,0.3s-0.4,0.3-1,0.3H218v5c0,0.2-0.4,0.4-1,0.4s-1-0.2-1-0.4v-5H215.8z"/>
	</g>
	<g>
		<defs>
			<rect id="SVGID_00000113328745676705600240000008281943991738387633_" width="235.8" height="32.1"/>
		</defs>
		<clipPath id="SVGID_00000151502145929802973640000012438119919533637278_">
			<use xlink:href="#SVGID_00000113328745676705600240000008281943991738387633_"  style="overflow:visible;"/>
		</clipPath>
		<path style="clip-path:url(#SVGID_00000151502145929802973640000012438119919533637278_);fill:#020203;" d="M77.3,9.1v9.2
			c0,1.4-2.2,2.2-5.2,2.2s-5.2-0.8-5.2-2.2v-16c0-1.4,1.9-2.2,5.3-2.2h12.1c10.6,0,17.1,2,17.1,6.4c0,3.1-5.7,4.9-12.7,5.4l11.7,5.2
			c1,0.4,1.4,0.9,1.4,1.3c0,1.1-2.1,2.2-5.2,2.2c-1.2,0-2.9-0.2-4-0.7L82,14.5c-0.4-0.2-0.6-0.6-0.6-1.1v-3.1c0-0.7,0.5-1.2,1.2-1.2
			h1.8c3.8,0,6.4-0.9,6.4-2.5s-2.6-2.5-6.4-2.5h-5.9c-0.7,0-1.2,0.5-1.2,1.2V9.1"/>
	</g>
	<g>
		<defs>
			<rect id="SVGID_00000111876106594088060240000000341047509399180215_" width="235.8" height="32.1"/>
		</defs>
		<clipPath id="SVGID_00000006691172199006670980000001885976288530348427_">
			<use xlink:href="#SVGID_00000111876106594088060240000000341047509399180215_"  style="overflow:visible;"/>
		</clipPath>
		<path style="clip-path:url(#SVGID_00000006691172199006670980000001885976288530348427_);fill:#020203;" d="M106.9,2.2
			c0-1.4,2.2-2.2,5.2-2.2s5.2,0.8,5.2,2.2v9.9c0,2.6,4.1,4.7,10.6,4.7c6.3,0,10.5-2.2,10.5-4.7V2.2c0-1.4,2.2-2.2,5.2-2.2
			s5.2,0.8,5.2,2.2v10.2c0,4.8-9.5,8.4-20.8,8.4c-11.5,0-20.9-3.6-20.9-8.4V2.2H106.9z"/>
	</g>
	<g>
		<defs>
			<rect id="SVGID_00000112631045998351146040000016016542173365032604_" width="235.8" height="32.1"/>
		</defs>
		<clipPath id="SVGID_00000131351925957425270410000006487854688986250368_">
			<use xlink:href="#SVGID_00000112631045998351146040000016016542173365032604_"  style="overflow:visible;"/>
		</clipPath>
		<path style="clip-path:url(#SVGID_00000131351925957425270410000006487854688986250368_);fill:#020203;" d="M155.5,2.4
			c0-1.3,2.2-2.2,5.3-2.2h11.4c15.4,0,24.2,4.1,24.2,10.4c0,6-9.3,9.8-23.5,9.8h-12c-2.3,0-5.4-0.5-5.4-2.1V2.4z M165.8,15.3
			c0,0.7,0.5,1.2,1.2,1.2h5.8c8.9,0,12.9-2.7,12.9-6.1c0-3.6-4.1-6.3-13.6-6.3H167c-0.7,0-1.2,0.5-1.2,1.2V15.3z"/>
	</g>
	<g>
		<defs>
			<rect id="SVGID_00000140731401821345542840000009462380382006361789_" width="235.8" height="32.1"/>
		</defs>
		<clipPath id="SVGID_00000145026794186577092050000002904622786154851004_">
			<use xlink:href="#SVGID_00000140731401821345542840000009462380382006361789_"  style="overflow:visible;"/>
		</clipPath>
		<path style="clip-path:url(#SVGID_00000145026794186577092050000002904622786154851004_);fill:#020203;" d="M211.5,11.6
			c0-0.4-0.2-0.8-0.6-1l-12.4-7.2c-0.6-0.4-1-0.8-1-1.3c0-1.1,2.1-2.1,4.9-2.1c1.8,0,3.4,0.3,4.3,0.9l9.3,5.6c0.4,0.2,0.9,0.2,1.2,0
			l9.3-5.6c0.9-0.5,2.5-0.9,4.3-0.9c2.9,0,4.9,0.9,4.9,2.1c0,0.5-0.3,0.9-1,1.3l-12.4,7.2c-0.4,0.2-0.6,0.6-0.6,1v6.9
			c0,1.1-1.5,2.1-5.2,2.1c-3.6,0-5.2-1-5.2-2.1v-6.9H211.5z"/>
	</g>
	<g>
		<defs>
			<rect id="SVGID_00000166634119557227348330000004561716846028328066_" width="235.8" height="32.1"/>
		</defs>
		<clipPath id="SVGID_00000034088729032724141850000017670216311473598599_">
			<use xlink:href="#SVGID_00000166634119557227348330000004561716846028328066_"  style="overflow:visible;"/>
		</clipPath>
		
			<path style="clip-path:url(#SVGID_00000034088729032724141850000017670216311473598599_);fill-rule:evenodd;clip-rule:evenodd;fill:#020203;" d="
			M38.4,0.1H9.8C4.4,0.1,0,4.5,0,9.9v12.3C0,27.6,4.4,32,9.8,32h28.6c5.4,0,9.8-4.4,9.8-9.8V9.9C48.3,4.5,43.8,0.1,38.4,0.1
			 M30.5,29c-1.4,0.7-3.6,0.6-4.9-0.2L5,16.1c-0.6-0.4-0.9-0.9-0.8-1.4C4.4,13.7,6,12.9,8,13c0.9,0,1.8,0.3,2.4,0.6L31,26.3
			C32.2,27.2,32,28.4,30.5,29 M39.5,27.5c-0.9,0-1.8-0.3-2.4-0.6L6.1,7.6C5.5,7.3,5.2,6.8,5.2,6.3C5.4,5.3,7,4.5,9,4.6
			c1,0.1,1.8,0.3,2.4,0.7l31,19.1c0.6,0.4,0.9,0.9,0.9,1.4C43.1,26.8,41.4,27.5,39.5,27.5 M40.3,19.1c-0.9,0-1.8-0.3-2.4-0.6
			L17.4,5.7c-1.2-0.8-1.1-1.9,0.4-2.6c1.4-0.7,3.6-0.6,4.9,0.2L43.3,16c0.6,0.4,0.9,0.9,0.8,1.4C44,18.4,42.3,19.2,40.3,19.1"/>
	</g>
</g>
</svg>
