<svg xmlns="http://www.w3.org/2000/svg" xmlns:xlink="http://www.w3.org/1999/xlink" viewBox="0 0 200 57">
  <defs>
    <path id="a" d="M0 0h51.452v56.915H0z"/>
  </defs>
  <g fill="none" fill-rule="evenodd">
    <g>
      <mask id="b" fill="#fff">
        <use xlink:href="#a"/>
      </mask>
      <path d="m47.416 11.274-3.16-1.825c-.094.582-.659 1.025-1.343 1.554-.51.396-5.508 3.895-5.508 3.895h-21.7c-.79 0-1.52.299-2.234.91-.565.638-.84 1.328-.84 2.107 0 1.384.858 2.129.858 2.129s16.68 14.954 19.797 17.403c.445.35.424 1.187-.646 1.187h-8.433c-2.118-1.86-12.331-10.911-15.3-13.541l-.032-.03a9.881 9.881 0 0 1-2.264-3.253 9.77 9.77 0 0 1-.799-3.895c0-1.353.25-2.625.742-3.778.48-1.128 1.25-2.356 2.104-3.208 1.747-1.749 4.387-2.848 7.047-2.848h26.18l-12.123-7a8.074 8.074 0 0 0-8.072 0L4.035 11.274A8.069 8.069 0 0 0 0 18.264v20.387a8.07 8.07 0 0 0 4.035 6.99l3.161 1.825c.094-.581.659-1.026 1.342-1.554l5.508-3.896h21.701c.79 0 1.52-.298 2.233-.91.566-.637.84-1.327.84-2.106 0-1.384-.857-2.13-.857-2.13s-16.68-14.954-19.798-17.403c-.444-.349-.424-1.186.646-1.186h8.434a9391.642 9391.642 0 0 1 15.3 13.542l.031.028a9.86 9.86 0 0 1 2.263 3.254c.532 1.228.8 2.539.8 3.895 0 1.354-.25 2.625-.74 3.779-.48 1.127-1.253 2.355-2.105 3.207-1.748 1.749-4.387 2.849-7.047 2.849H9.567l12.123 7a8.074 8.074 0 0 0 8.072 0L47.416 45.64a8.073 8.073 0 0 0 4.036-6.99V18.264a8.071 8.071 0 0 0-4.036-6.99" fill="#FFCF01" mask="url(#b)"/>
    </g>
    <path d="M165.645 12.968h-5.265c-1.047 0-1.778.636-1.778 1.545v27.923c0 .91.731 1.544 1.778 1.544h5.265c1.046 0 1.777-.635 1.777-1.544V14.513c0-.91-.731-1.545-1.777-1.545M193.914 27.392l-11.523-3.556c-1.288-.41-1.516-.736-1.516-1.447v-.922c0-.993.7-1.635 2.014-1.635h11.163c1.313 0 6.074-6.898 3.798-6.898h-17.17c-5.775 0-8.58 2.273-8.58 6.945v2.93c0 4.025 2.33 5.553 6.086 6.714l11.525 3.554c1.284.412 1.514.737 1.514 1.448v.703c0 .993-.195 1.634-1.508 1.634H176.65c-2.445 0-4.859 7.117-3.75 7.117h18.52c5.773 0 8.58-2.27 8.58-6.943v-2.93c0-4.025-2.329-5.553-6.086-6.714M112.98 14.331c-.369-.904-1.132-1.363-2.268-1.363h-6.318c-1.135 0-1.9.46-2.27 1.368l-6.578 16.61-3.57-.019c-.385.001-.693.138-.877.411-.196.288-.217.668-.063 1.07l2.017 4.807-1.984 5.04c-.178.435-.159.855.054 1.182.229.35.64.543 1.16.543h5.793c1.584 0 2.108-.874 2.274-1.383l1.733-4.846.186-.518 6.526-.011c.534.01.734-.388.538-.896l-1.537-4.303c-.302-.782-.592-1.123-1.319-1.123l-1.89.026 2.967-8.269 3.024 8.354 2.446 6.74 1.74 4.866c.37.904 1.133 1.363 2.269 1.363h5.792c.501 0 .92-.202 1.15-.556.214-.329.236-.743.066-1.167l-11.06-27.926ZM82.37 27.392l-11.523-3.556c-1.287-.41-1.515-.736-1.515-1.447v-.922c0-.993.7-1.635 2.012-1.635H82.51c1.313 0 6.074-6.898 3.798-6.898h-17.17c-5.775 0-8.58 2.273-8.58 6.945v2.93c0 4.025 2.328 5.553 6.085 6.714l11.524 3.554c1.287.412 1.515.737 1.515 1.448v.703c0 .993-.195 1.634-1.509 1.634H65.107c-2.445 0-4.86 7.117-3.751 7.117h18.52c5.775 0 8.58-2.27 8.58-6.943v-2.93c0-4.025-2.328-5.553-6.086-6.714M149.595 33.961c1.467-.379 4.104-1.763 4.104-6.56v-7.304c0-4.797-3.007-7.129-6.733-7.129H128.44c-1.046 0-1.776.636-1.776 1.545v27.923c0 .909.73 1.543 1.776 1.543h5.265c1.047 0 1.778-.634 1.778-1.543V19.709h7.844c1.32 0 2.173.658 2.173 1.676v4.726c0 1.02-.853 1.678-2.173 1.678h-3.436c-.963 0-1.653 1.062-1.23 1.952.068.14 7.224 12.77 7.224 12.77.448.785 1.016 1.398 1.76 1.468h5.687c.427 0 .97-.205 1.228-.662.19-.341.176-.74-.041-1.12l-4.924-8.236Z" fill="#687279"/>
  </g>
</svg>