<?xml version="1.0" encoding="utf-8"?>
<!-- Generator: $$$/GeneralStr/196=Adobe Illustrator 27.6.0, SVG Export Plug-In . SVG Version: 6.00 Build 0)  -->
<svg version="1.1" id="layer" xmlns="http://www.w3.org/2000/svg" xmlns:xlink="http://www.w3.org/1999/xlink" x="0px" y="0px"
	 viewBox="0 0 613 176" style="enable-background:new 0 0 613 176;" xml:space="preserve">
<g>
	<path id="Path_1" d="M48.4,9.8L6.5,166.4h157.4L205.8,9.9L48.4,9.8L48.4,9.8z M155.3,133.5l-10.6,3.6c-16.3,3.8-34.6,1.6-45.8-12.2
		c-1.3-1.9-2.2-3.2-3.8-5.6c-11.6,13.8-22.5,21.6-44.6,19.6c-5.8-1-11.4-3.1-16.4-6.1c0,0,11.4-42.6,11.6-42.8c3,1.4,7,5,9.3,4.6
		c3-0.5-2.3-11.8-1.1-19.3c1.8-17.9,14.8-32.7,32.4-36.7c11.5-2.6,23.6-0.7,33.8,5.3l-0.9,3.2c3.6-2.2,7.4-4.2,11.3-5.9
		c12-4.9,25.3-5.5,37.6-1.6l11.4,4.5L155.3,133.5z"/>
	<path d="M107.5,49.9c-4.2-1.5-8.7-2.2-13.1-2c-14.1,0.8-26,10.9-29.1,24.7c-2.8,10.4,4.1,19.1,1.4,28.2c-0.8,2.6-3,4.6-5.6,5.3
		c-2.8,0.7-5.8,0.2-8.2-1.4l-5.7,21.1c4.4,1.9,9.2,2.6,13.9,2.1c14-2,25.8-11.8,30.3-25.2c2.8-8.6-1.7-16.7-1.9-24.7
		c0.5-2.9,2.5-5.4,5.3-6.4c2.1-0.6,4.4-0.6,6.5,0C103.3,64.2,107.5,49.9,107.5,49.9z M108.3,72.1c-7.4,12.1-10.4,31.8-3,43.1
		c6,9.3,16.8,14.5,27.9,13.1c4.6-0.3,9.1-1.4,13.2-3.3l6.8-25.2c-6.1,5.4-19.1,7.2-24.6,0.3c-2.7-3.2-3.6-7.5-2.5-11.5
		c1.6-8.3,8.1-14.8,16.5-16.3c5.7-1,11.6,0.4,16.1,4.1l7-26.3C143.8,42.6,119.5,51.8,108.3,72.1z"/>
	<ellipse id="Ellipse_1" transform="matrix(0.753 -0.658 0.658 0.753 43.9798 291.2649)" cx="410" cy="87" rx="30.1" ry="23.1"/>
	<path id="Path_4" d="M595.4,30.6C584.7,17.1,568.2,9.4,551,9.8h-62.9L480.2,39c-1.1-1.9-2.3-3.7-3.6-5.4
		c-9.2-11.9-22.6-20-37.4-22.6c-4.8-0.8-9.6-1.2-14.5-1.3c-19,0.2-37.4,6.5-52.5,18.1L377,9.7h-32.1h-4.8
		c-18.5-0.2-36.6,6-51.1,17.5l4.7-17.5h-70.2l-41.6,156.4h70l7.8-29.2c3.5,5.8,8,11,13.2,15.4c10.6,8.4,23.7,13.2,37.2,13.6
		c3.1,0.2,6.1,0.3,8.8,0.3c2.8,0,4.4-0.1,4.9-0.1l12.1-0.8l7.2-26.9c11.4,16.2,30.1,25.8,49.9,25.6l0,0c0.7,0,1.4,0,2.1,0
		c20.9-0.9,41-8.6,57.2-21.8l-6.5,24.2h135.3l22.8-84.8C609.3,64.2,606.1,45.3,595.4,30.6z M238.9,149.3h-35l32.6-122.4h35.1
		L238.9,149.3z M339.3,62c-15.2,0.8-28.3,11.1-32.6,25.7c-3.8,14.2,4.6,25.7,18.8,25.7h6.7l-9.6,35.8c-3.9,0.2-7.8,0.1-11.6-0.1
		c-9.9-0.2-19.4-3.6-27.2-9.7c-14.3-11.9-18.2-28.9-15.5-46.9c4.3-28.9,26.9-56.1,54.6-63.6c5.8-1.5,11.9-2.2,17.9-2.1
		c2.1,0,14.2,0,14.2,0l-9.4,35.4C345.6,62.2,340.6,62,339.3,62L339.3,62z M394.6,147c-16.3,0.8-31.7-7.6-39.9-21.8
		c-10.7-18.5-5.2-44.4,6-60.7c17.5-25.6,44.7-42,75.6-36.6c10.7,1.9,20.3,7.7,26.9,16.2C474.3,58.5,473,82,466,97.9
		C453.2,126.3,425.7,145.2,394.6,147L394.6,147z M587.6,77.2l-19.4,72.2h-37l20.7-76.8c1.9-5-0.6-10.6-5.6-12.5
		c-1.3-0.5-2.6-0.7-3.9-0.6c-7.3,0-13-0.2-13-0.2L505,149.4h-37l33.1-122.6H551C578.6,26.8,595,49.6,587.6,77.2z"/>
</g>
</svg>
