<?xml version="1.0" encoding="utf-8"?>
<!-- Generator: Adobe Illustrator 27.5.0, SVG Export Plug-In . SVG Version: 6.00 Build 0)  -->
<svg version="1.1" xmlns="http://www.w3.org/2000/svg" xmlns:xlink="http://www.w3.org/1999/xlink" x="0px" y="0px"
	 viewBox="0 0 585 124.7" style="enable-background:new 0 0 585 124.7;" xml:space="preserve">
<g id="SombreadoScott">
	<g>
		<path d="M157.6,51.9c-0.6,1.1-0.6,2.4,0,3.5c0.6,1.1,1.8,1.8,3.1,1.8h40.2c3.1,0,5.9,1.6,7.5,4.3c1.5,2.7,1.5,5.9,0,8.6
			l-10.1,17.5h-92.6l5.5-9.6h61.3l3.1-5.3c0.6-1.1,0.6-2.4,0-3.5c-0.6-1.1-1.8-1.8-3.1-1.8h-40.2c-3.1,0-5.9-1.6-7.5-4.3
			c-1.5-2.7-1.5-5.9,0-8.6l4.7-8.1c3.3-5.8,9.5-9.4,16.2-9.4h79.3l-5.5,9.6h-58.7L157.6,51.9z"/>
		<path d="M246,72.3c-0.7,1.2-0.7,2.6,0,3.8c0.7,1.2,1.9,1.9,3.3,1.9H283l-5.5,9.6h-56.8c-3.1,0-5.9-1.6-7.5-4.3
			c-1.5-2.7-1.5-5.9,0-8.6l16.3-28.3c3.3-5.8,9.5-9.4,16.2-9.4h60.8l-5.5,9.6h-37.4c-1.8,0-3.5,1-4.4,2.5L246,72.3z"/>
		<path d="M401.3,41.3c1.5,2.7,1.5,5.9,0,8.6L385,78.2c-3.3,5.8-9.5,9.4-16.2,9.4h-66.9c-3.1,0-5.9-1.6-7.5-4.3
			c-1.5-2.7-1.5-5.9,0-8.6l16.3-28.3c3.3-5.8,9.5-9.4,16.2-9.4h66.9C396.9,37,399.8,38.6,401.3,41.3z M326.9,72.7
			c-0.6,1.1-0.6,2.4,0,3.5c0.6,1.1,1.8,1.8,3.1,1.8h20.8c1.8,0,3.5-1,4.4-2.5l13.3-23.2c0.7-1.2,0.7-2.6,0-3.8
			c-0.7-1.2-1.9-1.9-3.3-1.9h-20.4c-1.8,0-3.5,1-4.4,2.5L326.9,72.7z"/>
		<polygon points="489.7,46.6 466.9,46.6 443.3,87.6 411.9,87.6 435.5,46.6 407.5,46.6 413,37 495.3,37 		"/>
		<polygon points="526.5,87.6 495.2,87.6 518.8,46.6 497.3,46.6 502.9,37 578.5,37 573,46.6 550.2,46.6 		"/>
		<path d="M89.5,59.5c4.5,7.8,4.5,17.4,0,25.3l-16.4,28.4c-2.7,4.7-7.7,7.6-13.2,7.6H15.6l12.9-22.5H52c2.7,0,5.2-1.5,6.6-3.8
			l8-13.8c1.8-3.1,1.8-7,0-10.1l-8.1-14.1c-1.8-3.1-1.8-7,0-10.1L70.2,26L89.5,59.5z"/>
		<path d="M70.2,26H48c-2.7,0-5.2,1.5-6.6,3.8L31.4,47.3c-0.9,1.6-0.9,3.5,0,5.1l8.9,15.5c1.8,3.1,1.8,7,0,10.1L28.5,98.3L9.9,65.9
			c-4.5-7.8-4.5-17.4,0-25.3L28.2,8.9c1.8-3.1,5.2-5.1,8.8-5.1h46L70.2,26z"/>
	</g>
</g>
<g id="DibujoScott">
</g>
<g id="LetrasScott">
</g>
<g id="Aux">
</g>
<g id="_x0030_">
</g>
<g id="Capa_1">
</g>
</svg>
