<?xml version="1.0" encoding="UTF-8"?>
<svg xmlns="http://www.w3.org/2000/svg" version="1.1" viewBox="0 0 620 149">
  <!-- Generator: Adobe Illustrator 28.6.0, SVG Export Plug-In . SVG Version: 1.2.0 Build 709)  -->
  <g>
    <g id="layer">
      <path d="M209.3,102.1l-1.8,6.6h-31.1c0,.1,1.7-6.1,1.7-6.1,3-11,7-12.2,15.4-12.2h8.9c4,0,6.2.6,7.2,2,1.2,1.5,1.2,4.5-.3,9.7M216.6,87.2c-2.2-2.9-6.3-4.4-12.1-4.4h-10.7c-12,0-20.7,6.4-23.8,17.7l-6.1,21.9c-1.7,6.2-1.5,10.3.5,13,2,2.6,5.8,3.8,12.3,3.8h.5c14,0,24.8-.7,24.9-.7h.5l2-6.8h-24.8c-3.7,0-6.4-.3-7.5-1.7-1-1.3-.8-3.6.3-8l1.6-5.9h37.5c1.4,0,1.8-.8,2-1.5l3.8-13.6c1.7-6.2,1.4-10.8-.9-13.8M169.1,66.3l-20,72.4h-8.6l20-72.4h8.6ZM149,66.3l-20,72.4h-8.6l20-72.4h8.6ZM113.4,102l-1.8,6.6h-31.1c0,.1,1.7-6.1,1.7-6.1,3-11,7-12.2,15.4-12.2h8.9c4,0,6.2.6,7.2,2,1.2,1.5,1.1,4.5-.3,9.7M120.6,87.1c-2.2-2.9-6.3-4.4-12.1-4.4h-10.7c-12.1,0-20.7,6.4-23.8,17.7l-6,21.8c-1.7,6.2-1.5,10.3.5,12.9s5.8,3.8,12.3,3.8h.5c14,0,24.8-.7,24.9-.7h.5l2-6.8h-24.8c-3.7,0-6.4-.3-7.5-1.7-1-1.3-.8-3.6.3-8l1.6-5.9h37.5c1.4,0,1.8-.8,2-1.5l3.8-13.6c1.7-6,1.4-10.6-1-13.6M31.5,98.6c-.5,1.6-.7,2.8-.4,3.3.2.3.8.6,2,.8,2.7.5,5.6,1,8.8,1.5,3.6.6,7.3,1.2,11.2,1.9h.2c3.9.8,7.3,1.4,8.9,3.9,1.1,1.8,1.2,4.4.2,8.1l-1.7,6.2c-2.7,9.9-9.6,14.5-21.6,14.5h-.8c-14.1,0-25.4-.7-25.5-.7h-1c0-.1,1.9-7.1,1.9-7.1h25.5c8.2,0,12-2.2,13.5-7.7l1.2-4.3c.4-1.6.7-2.8.3-3.7-.3-.6-1.1-1-2.4-1.3-3.7-.7-8.4-1.4-13-2.1-3.5-.5-6.9-1.1-9.8-1.6-3.3-.6-5.2-1.5-6.3-3.2s-1.2-4.2-.2-7.7l1.1-4.2c3.1-11.1,9.8-13.1,21.2-12.9,14.1,0,21.7.4,21.8.4h1c0,.1-2,7.4-2,7.4h-22.1c-7.8,0-10,1.1-11.3,5.7l-.7,2.8ZM609,77.5l-17,61.6h-27l8.8-32,1.1-4.1h-23.1c-5.5-.1-9.6.1-12.7,2.5-2.5,2-4.2,5.1-5.8,10.9l-6.2,22.6h-26.2l6.8-24.7c6.2-22.6,15.9-27.3,32.8-28.4h.3c.5,0,1.1-.1,1.6-.1,2.7-.1,37.2,0,37.2,0l1.4-5c3-11.8-.2-15.7-12.8-15.7l-29,.2,4.8-17.4h40.4c30.5,0,29.6,11.2,24.6,29.6M424.6,77.3l-16.9,61.5h-27l8.8-31.9,1.1-4.1h-23.1c-5.5-.1-9.6.1-12.7,2.5-2.5,2-4.2,5.1-5.8,10.9l-6.2,22.6h-26.2l6.8-24.7c6.2-22.6,15.9-27.3,32.8-28.4h.3c.5,0,1.1-.1,1.6-.1,2.7-.1,37.2,0,37.2,0l1.4-5c3-11.8-2.4-15.7-15-15.7l-26.7.2,4.8-17.4h40.4c30.3,0,29.4,11.2,24.4,29.6M519,33.6h-29.2l6.6-24.1h29.2l-6.6,24.1ZM515.6,46.1l-25.6,92.9h-29.2l25.5-92.9h29.3ZM276.7,33.4h-29.2l6.6-24.1h29.2l-6.6,24.1ZM244.1,45.8h29.2l-25.5,92.9h-29.2l25.5-92.9ZM322.5,64.8l-20.3,73.7h-27l20.3-73.7h-18l4.7-17.2h18l10.6-38.6h27l-10.6,38.6h18l-4.7,17.2h-18ZM484.6,9.1l-35.6,129.5h-27L457.6,9.1h27Z"/>
    </g>
  </g>
</svg>