<?xml version="1.0" encoding="utf-8"?>
<!-- Generator: Adobe Illustrator 27.2.0, SVG Export Plug-In . SVG Version: 6.00 Build 0)  -->
<svg version="1.1" xmlns="http://www.w3.org/2000/svg" xmlns:xlink="http://www.w3.org/1999/xlink" x="0px" y="0px"
	 viewBox="0 0 241.2 39.3" style="enable-background:new 0 0 241.2 39.3;" xml:space="preserve">
<style type="text/css">
	.st0{fill:#050006;}
	.st1{display:none;}
	.st2{display:inline;fill:#009BDB;}
	.st3{display:inline;}
	.st4{fill:#FFFFFF;}
</style>
<g id="Camada_1">
	<path class="st0" d="M219.2,9.5c-2,0-3.4,1.8-3.4,3.3c0,1.6,0,12.3,0,13.3c0,2.3,1.9,3.5,3.4,3.5c1.1,0,4,0,5.7,0
		c1.6,0,3.4-1.4,3.4-3.4c0-2,0-11.7,0-13.4c0-1.7-1.5-3.4-3.4-3.4C223,9.5,220,9.5,219.2,9.5z M229.6,4.1c2.7,0,7.2,2,7.2,9.1
		c0,3.1,0,8.6,0,13c0,7.6-5.6,8.9-7.3,8.9c-1.5,0-12.5,0-15.1,0c-2.6,0-7.3-1.9-7.3-9c0-1.6,0-11.5,0-13.3c0-4.5,2.6-8.6,7.4-8.7
		C215.8,4.1,228,4.1,229.6,4.1"/>
	<path class="st0" d="M145.1,22.1h13.5c0,0,0-7.6,0-9c0-1.6-1.2-3.6-3.2-3.6c-2.1,0-5.3,0-6.9,0c-1.7,0-3.4,1.5-3.4,3.4
		C145.1,14.8,145.1,22.1,145.1,22.1z M136.6,13.1c0-5.3,2.9-9,7.4-9c2.1,0,14,0,16.1,0c4.3,0,7.1,3.8,7.1,8.8c0,3.1,0,22.1,0,22.1
		h-8.5v-6.8h-13.6V35h-8.5C136.6,35,136.6,16.5,136.6,13.1"/>
	<path class="st0" d="M172.8,35h8.5V9.5c0,0,6.7,0,8.4,0c1.9,0,3.4,1.6,3.5,3.4c0,1.7,0,22.1,0,22.1h8.4c0,0,0-18.2,0-21.8
		c0-4.2-1.9-9.1-7.4-9c-2.3,0-21.5,0-21.5,0V35z"/>
	<path class="st0" d="M91,4.2V35h8.4V9.5h7.4V35h8.5V9.5c0,0,2.5,0,3.9,0c1.8,0,3.4,1.7,3.4,3.4c0,1.8,0,22.1,0,22.1h8.5
		c0,0,0-19.1,0-22.1c0-4.4-2.4-8.8-7.3-8.8C122.5,4.2,91,4.2,91,4.2z"/>
	<rect x="75.4" y="4.1" class="st0" width="9" height="30.9"/>
	<polygon class="st0" points="39.3,4.2 39.3,35 47.8,35 47.8,28.2 60.3,28.2 60.3,35 68.8,35 68.8,4.2 60.3,4.2 60.3,22.2 
		47.8,22.2 47.8,4.2 	"/>
	<path class="st0" d="M33.7,4.2c0,0-19.5,0-21.1,0C7.3,4.2,5.3,8.3,5,9.3c-0.7,2.9-0.7,6.7,0.1,8.9c0.5,1.3,2.6,4.5,7.4,4.6
		c1.5,0,9.5,0,11,0c1.6,0,2.6,1.1,2.7,3.3c0.1,2-0.7,3.6-2.7,3.6c-1.9,0-18.1,0-18.1,0V35c0,0,18.9,0,21.2,0
		c5.1-0.1,6.4-3.2,7.1-4.7c1.3-3,1.1-7.3,0-10.2c-0.3-1-2.3-4.3-7.3-4.3c-1.5,0-9.4,0-11.1,0c-1.6,0-2.5-1.1-2.5-3.2
		c0-2,0.9-3.2,2.5-3.2c1.6,0,18.4,0,18.4,0V4.2z"/>
</g>
<g id="Camada_1_cÛpia" class="st1">
	<rect x="-20.8" y="86.8" class="st2" width="279.6" height="110.5"/>
	<g class="st3">
		<path class="st4" d="M217,132.1c-2,0-3.4,1.8-3.4,3.3c0,1.6,0,12.2,0,13.2c0,2.3,1.9,3.4,3.4,3.4c1.1,0,4,0,5.7,0
			c1.6,0,3.4-1.4,3.4-3.4c0-2,0-11.6,0-13.3c0-1.7-1.5-3.4-3.4-3.4C220.8,132.1,217.8,132.1,217,132.1z M227.3,126.7
			c2.7,0,7.2,2,7.2,9c0,3.1,0,8.6,0,12.9c0,7.6-5.6,8.8-7.2,8.8c-1.5,0-12.4,0-15,0c-2.6,0-7.2-1.8-7.2-8.9c0-1.6,0-11.4,0-13.2
			c0-4.5,2.6-8.6,7.3-8.6C213.6,126.7,225.7,126.7,227.3,126.7"/>
		<path class="st4" d="M143.4,144.6h13.5c0,0,0-7.5,0-8.9c0-1.6-1.2-3.6-3.2-3.6c-2.1,0-5.3,0-6.8,0c-1.7,0-3.4,1.5-3.4,3.4
			C143.4,137.3,143.4,144.6,143.4,144.6z M134.9,135.6c0-5.2,2.8-8.9,7.3-8.9c2.1,0,14,0,16,0c4.3,0,7.1,3.8,7.1,8.7
			c0,3.1,0,21.9,0,21.9h-8.4v-6.8h-13.5v6.8h-8.4C134.9,157.3,134.9,139,134.9,135.6"/>
		<path class="st4" d="M170.9,157.4h8.5v-25.3c0,0,6.7,0,8.4,0c1.9,0,3.4,1.6,3.5,3.4c0,1.7,0,21.9,0,21.9h8.4c0,0,0-18.1,0-21.7
			c0-4.2-1.9-9-7.3-8.9c-2.3,0-21.4,0-21.4,0V157.4z"/>
		<path class="st4" d="M89.6,126.8v30.6H98v-25.3h7.4v25.3h8.5v-25.3c0,0,2.5,0,3.8,0c1.8,0,3.4,1.7,3.4,3.4c0,1.8,0,21.9,0,21.9
			h8.5c0,0,0-19,0-21.9c0-4.4-2.4-8.7-7.2-8.7C120.9,126.8,89.6,126.8,89.6,126.8z"/>
		<rect x="74.1" y="126.7" class="st4" width="9" height="30.7"/>
		<polygon class="st4" points="38.2,126.8 38.2,157.4 46.7,157.4 46.7,150.6 59.1,150.6 59.1,157.4 67.6,157.4 67.6,126.8 
			59.1,126.8 59.1,144.6 46.7,144.6 46.7,126.8 		"/>
		<path class="st4" d="M32.6,126.8c0,0-19.4,0-21,0c-5.2,0-7.3,4.1-7.5,5.1c-0.7,2.8-0.7,6.6,0.1,8.8c0.5,1.3,2.6,4.5,7.4,4.5
			c1.5,0,9.5,0,11,0c1.6,0,2.6,1.1,2.7,3.3c0.1,2-0.7,3.6-2.7,3.6c-1.9,0-18,0-18,0v5.3c0,0,18.8,0,21,0c5.1-0.1,6.4-3.2,7-4.6
			c1.3-3,1.1-7.2,0-10.2c-0.3-1-2.3-4.3-7.2-4.3c-1.5,0-9.4,0-11.1,0c-1.6,0-2.5-1.1-2.5-3.2s0.9-3.2,2.5-3.2c1.6,0,18.3,0,18.3,0
			V126.8z"/>
	</g>
	<rect x="262.5" y="86.6" class="st2" width="217" height="110.5"/>
	<g class="st3">
		<path class="st4" d="M318.5,114.8c14.2,0,22.4,7.1,22.4,19.5c0,10.8-6.9,17.4-18,17.4h-12.5c0,0,0,14.7,0,17.2
			c-2.4,0-15.2,0-17.6,0c0-2.8,0-51.3,0-54.1C295.6,114.8,318.5,114.8,318.5,114.8z M291.3,111.7h-1.5v60.1h23.7c0,0,0-14.7,0-17.2
			c2.3,0,9.4,0,9.4,0c12.8,0,21-8,21-20.5c0-14.1-9.5-22.5-25.5-22.5H291.3"/>
		<path class="st4" d="M314,130.4c4.8,0,6.4,0.8,6.4,3.2c0,2.3-1,3.7-6.3,3.7c0,0-0.4,0-0.6,0c0-1.8,0-5.1,0-6.9
			C313.7,130.4,314,130.4,314,130.4z M312,127.3h-1.5v13h3.6c2.3,0,9.3,0,9.3-6.8c0-6.2-6.6-6.2-9.4-6.2H312"/>
		<path class="st4" d="M369.9,114.8c8.6,0,23,2.4,23,18.3c0,7.5-2.6,10.9-10.4,13.4l-1,0.3v2.3l1,0.7c1,0.8,2,1.5,2.9,2.8
			c0,0,7.7,11.2,11.2,16.2c-4.3,0-19.4,0-20.9,0c-0.8-1.5-9.4-18.3-9.4-18.3h-2.8c0,0,0,15.8,0,18.3c-2.4,0-15.5,0-17.9,0
			c0-2.8,0-51.3,0-54.1C348.2,114.8,369.9,114.8,369.9,114.8z M344,111.7h-1.5v60.1h24c0,0,0-8.9,0-14.3c2.7,5.2,7.3,14.3,7.3,14.3
			h28.5l-14.5-20.9c-0.7-1-1.5-1.8-2.2-2.4c7.4-2.9,10.3-7.3,10.3-15.5c0-13.6-9.5-21.4-26.1-21.4H344"/>
		<path class="st4" d="M366.6,130.4c4.2,0,5.4,0.8,5.4,3.4c0,2.1-0.9,3.2-5.5,3.2c0-1.8,0-4.9,0-6.7H366.6z M365,127.3h-1.5v12.7h3
			c2.3,0,8.6,0,8.6-6.3c0-6.4-5.9-6.4-8.4-6.4H365"/>
		<path class="st4" d="M397.2,141.8c0-15.9,12.9-28.8,28.8-28.8c15.9,0,28.8,12.9,28.8,28.8c0,15.9-12.9,28.8-28.8,28.8
			c-4.8,0-9.6-1.3-13.8-3.6c2.9-2.1,15.2-11.1,17.1-12.5c1.3,1.8,7.6,10.6,7.6,10.6l4.4-34.6l-34.1-6.8c0,0,6.2,8.6,7.5,10.4
			c-1.9,1.4-14,10.2-17,12.4C397.4,144.9,397.2,143.4,397.2,141.8z M394.2,141.8c0,2.5,0.3,5.1,1,7.6l0.5,2.2l23.2-16.9
			c0,0-3-4.1-4.8-6.6c5.4,1.1,21.6,4.3,23.8,4.8c-0.3,2.2-2.4,18.6-3.1,24.1c-1.8-2.6-4.9-6.8-4.9-6.8l-23.3,17l1.8,1.2
			c5.2,3.4,11.2,5.2,17.4,5.2c17.5,0,31.8-14.3,31.8-31.8c0-17.5-14.3-31.8-31.8-31.8C408.5,110,394.2,124.3,394.2,141.8"/>
	</g>
	<g class="st3">
		<path d="M217-83.3c-2,0-3.4,1.8-3.4,3.3c0,1.6,0,12.2,0,13.2c0,2.3,1.9,3.4,3.4,3.4c1.1,0,4,0,5.7,0c1.6,0,3.4-1.4,3.4-3.4
			c0-2,0-11.6,0-13.3s-1.5-3.4-3.4-3.4C220.8-83.3,217.8-83.3,217-83.3z M227.3-88.6c2.7,0,7.2,2,7.2,9c0,3.1,0,8.6,0,12.9
			c0,7.6-5.6,8.8-7.2,8.8c-1.5,0-12.4,0-15,0c-2.6,0-7.2-1.8-7.2-8.9c0-1.6,0-11.4,0-13.2c0-4.5,2.6-8.6,7.3-8.6
			C213.6-88.6,225.7-88.6,227.3-88.6"/>
		<path d="M143.4-70.8h13.5c0,0,0-7.5,0-8.9c0-1.6-1.2-3.6-3.2-3.6c-2.1,0-5.3,0-6.8,0c-1.7,0-3.4,1.5-3.4,3.4
			C143.4-78.1,143.4-70.8,143.4-70.8z M134.9-79.7c0-5.2,2.8-8.9,7.3-8.9c2.1,0,14,0,16,0c4.3,0,7.1,3.8,7.1,8.7
			c0,3.1,0,21.9,0,21.9h-8.4v-6.8h-13.5v6.8h-8.4C134.9-58,134.9-76.3,134.9-79.7"/>
		<path d="M170.9-57.9h8.5v-25.3c0,0,6.7,0,8.4,0c1.9,0,3.4,1.6,3.5,3.4c0,1.7,0,21.9,0,21.9h8.4c0,0,0-18.1,0-21.7
			c0-4.2-1.9-9-7.3-8.9c-2.3,0-21.4,0-21.4,0V-57.9z"/>
		<path d="M89.6-88.6v30.6H98v-25.3h7.4v25.3h8.5v-25.3c0,0,2.5,0,3.8,0c1.8,0,3.4,1.7,3.4,3.4c0,1.8,0,21.9,0,21.9h8.5
			c0,0,0-19,0-21.9c0-4.4-2.4-8.7-7.2-8.7C120.9-88.6,89.6-88.6,89.6-88.6z"/>
		<rect x="74.1" y="-88.6" width="9" height="30.7"/>
		<polygon points="38.2,-88.6 38.2,-57.9 46.7,-57.9 46.7,-64.7 59.1,-64.7 59.1,-57.9 67.6,-57.9 67.6,-88.6 59.1,-88.6 
			59.1,-70.7 46.7,-70.7 46.7,-88.6 		"/>
		<path d="M32.6-88.6c0,0-19.4,0-21,0c-5.2,0-7.3,4.1-7.5,5.1c-0.7,2.8-0.7,6.6,0.1,8.8c0.5,1.3,2.6,4.5,7.4,4.5c1.5,0,9.5,0,11,0
			c1.6,0,2.6,1.1,2.7,3.3c0.1,2-0.7,3.6-2.7,3.6c-1.9,0-18,0-18,0v5.3c0,0,18.8,0,21,0c5.1-0.1,6.4-3.2,7-4.6c1.3-3,1.1-7.2,0-10.2
			c-0.3-1-2.3-4.3-7.2-4.3c-1.5,0-9.4,0-11.1,0c-1.6,0-2.5-1.1-2.5-3.2c0-2,0.9-3.2,2.5-3.2c1.6,0,18.3,0,18.3,0V-88.6z"/>
	</g>
	<g class="st3">
		<path d="M318.5-100.6c14.2,0,22.4,7.1,22.4,19.5c0,10.8-6.9,17.4-18,17.4h-12.5c0,0,0,14.7,0,17.2c-2.4,0-15.2,0-17.6,0
			c0-2.8,0-51.3,0-54.1C295.6-100.6,318.5-100.6,318.5-100.6z M291.3-103.6h-1.5v60.1h23.7c0,0,0-14.7,0-17.2c2.3,0,9.4,0,9.4,0
			c12.8,0,21-8,21-20.5c0-14.1-9.5-22.5-25.5-22.5H291.3"/>
		<path d="M314-85c4.8,0,6.4,0.8,6.4,3.2c0,2.3-1,3.7-6.3,3.7c0,0-0.4,0-0.6,0c0-1.8,0-5.1,0-6.9C313.7-85,314-85,314-85z M312-88
			h-1.5v13h3.6c2.3,0,9.3,0,9.3-6.8c0-6.2-6.6-6.2-9.4-6.2H312"/>
		<path d="M369.9-100.6c8.6,0,23,2.4,23,18.3c0,7.5-2.6,10.9-10.4,13.4l-1,0.3v2.3l1,0.7c1,0.8,2,1.5,2.9,2.8
			c0,0,7.7,11.2,11.2,16.2c-4.3,0-19.4,0-20.9,0c-0.8-1.5-9.4-18.3-9.4-18.3h-2.8c0,0,0,15.8,0,18.3c-2.4,0-15.5,0-17.9,0
			c0-2.8,0-51.3,0-54.1C348.2-100.6,369.9-100.6,369.9-100.6z M344-103.6h-1.5v60.1h24c0,0,0-8.9,0-14.3c2.7,5.2,7.3,14.3,7.3,14.3
			h28.5l-14.5-20.9c-0.7-1-1.5-1.8-2.2-2.4c7.4-2.9,10.3-7.3,10.3-15.5c0-13.6-9.5-21.4-26.1-21.4H344"/>
		<path d="M366.6-85c4.2,0,5.4,0.8,5.4,3.4c0,2.1-0.9,3.2-5.5,3.2c0-1.8,0-4.9,0-6.7H366.6z M365-88h-1.5v12.7h3
			c2.3,0,8.6,0,8.6-6.3c0-6.4-5.9-6.4-8.4-6.4H365"/>
		<path d="M397.2-73.5c0-15.9,12.9-28.8,28.8-28.8c15.9,0,28.8,12.9,28.8,28.8c0,15.9-12.9,28.8-28.8,28.8c-4.8,0-9.6-1.3-13.8-3.6
			c2.9-2.1,15.2-11.1,17.1-12.5c1.3,1.8,7.6,10.6,7.6,10.6l4.4-34.6l-34.1-6.8c0,0,6.2,8.6,7.5,10.4c-1.9,1.4-14,10.2-17,12.4
			C397.4-70.4,397.2-72,397.2-73.5z M394.2-73.5c0,2.5,0.3,5.1,1,7.6l0.5,2.2l23.2-16.9c0,0-3-4.1-4.8-6.6
			c5.4,1.1,21.6,4.3,23.8,4.8c-0.3,2.2-2.4,18.6-3.1,24.1c-1.8-2.6-4.9-6.8-4.9-6.8l-23.3,17l1.8,1.2c5.2,3.4,11.2,5.2,17.4,5.2
			c17.5,0,31.8-14.3,31.8-31.8c0-17.5-14.3-31.8-31.8-31.8C408.5-105.3,394.2-91,394.2-73.5"/>
	</g>
</g>
</svg>
