<svg width="643" height="256" viewBox="0 0 643 256" fill="none" xmlns="http://www.w3.org/2000/svg">
<path d="M63.9891 113.613L49.5353 112.563C38.6581 111.629 35.5613 109.146 35.5613 102.387C35.5613 97.6193 38.2614 91.6416 55.3962 91.9808C71.9835 92.5727 88.4624 94.9087 104.561 98.9503L107.12 67.6416C90.1849 63.5191 72.8061 61.5007 55.3769 61.632C21.2483 61.632 0.351323 72.8704 0.178568 101.53C0.00581329 130.88 15.6497 138.483 51.1988 141.069C65.0832 142.08 77.3552 143.443 77.3552 153.869C77.3552 161.459 71.7375 163.469 55.3769 163.014C37.4961 162.089 19.7635 159.272 2.47562 154.611L0.00585938 186.611C17.9583 192.004 36.6349 194.595 55.3769 194.291C105.789 194.291 110.946 171.251 110.946 153.632C110.94 128.986 102.328 117.517 63.9891 113.613Z" fill="black"/>
<path d="M642.999 91.9487V62.688H540.261V92.9983H597.897V94.0479L536.256 163.885V193.325H642.999V163.014H580.487V161.965L642.999 91.9487Z" fill="black"/>
<path d="M326.864 60.8643C289.491 60.8643 268.709 68.3266 266.08 109.043C265.322 121.672 265.322 134.335 266.08 146.963C269.81 187.283 289.21 195.149 326.864 195.149C364.518 195.149 383.905 187.258 387.648 146.963C388.402 134.335 388.402 121.672 387.648 109.043C385.018 68.3266 364.236 60.8643 326.864 60.8643ZM351.613 143.117C350.595 162.074 345.131 164.666 326.915 164.666C308.699 164.666 303.977 161.863 302.224 143.117C301.629 132.997 301.629 122.85 302.224 112.73C303.318 93.5297 308.699 91.3475 326.915 91.3475C345.131 91.3475 350.519 93.5361 351.613 112.73C352.137 121.958 352.003 136.077 351.613 143.117Z" fill="black"/>
<path d="M245.81 193.325V62.688H210.965V111.801H165.537V62.688H130.711V193.325H165.537V142.125H210.965V193.325H245.81Z" fill="black"/>
<path d="M522.679 62.688H480.54L446.437 113.133H442.738V62.688H407.912V193.325H442.738V141.312H446.437L483.208 193.325H526.371L476.624 124.781L522.679 62.688Z" fill="black"/>
<path d="M326.928 241.875C310.664 241.875 272.261 241.875 245.9 215.162L239.854 221.677C260.079 243.84 289.94 256 326.992 256C364.045 256 393.97 243.751 414.227 221.869L407.995 215.136C381.628 241.875 343.231 241.875 326.928 241.875Z" fill="black"/>
<path d="M259.522 29.6451C281.372 15.8979 307.017 14.1188 326.935 14.1188C346.853 14.1188 372.529 15.8979 394.348 29.6451C399.283 32.7344 403.86 36.362 407.995 40.4611L414.074 33.914C410.383 29.9842 406.394 26.3465 402.141 23.0339C379.943 8.03844 353.769 0.0258789 326.983 0.0258789C300.197 0.0258789 274.023 8.03844 251.825 23.0339C247.544 26.3717 243.533 30.0418 239.828 34.01L245.874 40.4932C250.008 36.3828 254.585 32.7444 259.522 29.6451Z" fill="black"/>
<path d="M327.012 227.45C356.681 227.45 379.747 218.157 394.732 200.858L386.133 191.597C372.792 205.965 352.254 209.805 326.948 209.805C301.643 209.805 281.072 205.965 267.764 191.597L259.414 200.557C274.329 218.157 297.235 227.45 327.012 227.45Z" fill="black"/>
<path d="M384.43 45.4529C367.82 33.3371 347.524 27.355 326.999 28.525H326.897C306.374 27.356 286.08 33.3381 269.472 45.4529C265.807 48.2993 262.426 51.4929 259.375 54.989L267.725 64.0002C282.044 49.0498 304.106 46.2081 326.948 46.2017C349.79 46.1953 371.851 49.0561 386.171 64.0002L394.521 54.989C391.471 51.4938 388.092 48.3003 384.43 45.4529Z" fill="black"/>
</svg>
