<?xml version="1.0" encoding="UTF-8"?>
<svg xmlns="http://www.w3.org/2000/svg" version="1.1" viewBox="0 0 652 121">
  <defs>
    <style>
      .cls-1 {
        fill: #008335;
      }

      .cls-2 {
        fill: #e4272b;
      }

      .cls-3 {
        fill: #fff;
      }
    </style>
  </defs>
  <!-- Generator: Adobe Illustrator 28.6.0, SVG Export Plug-In . SVG Version: 1.2.0 Build 709)  -->
  <g>
    <g id="layer">
      <g>
        <path d="M371.2,43.9l-5.8,15.8c-4.8-2.7-11.1-4.5-18.4-5.3l-82.4-8.9c-2.7-.3-4.3-1.7-3.6-3.3.7-1.9,3.9-3.4,7.1-3.4h142.6l7.9-21.8h-142.6c-24,0-47.6,11.3-52.7,25.2-4.5,12.4,7.3,22.7,26.9,24.8l82.4,8.9c3.6.4,5.7,2.2,4.9,4.5-.9,2.5-5.2,4.6-9.6,4.6h-120.1l-7.9,21.8h120.2c10.7,0,21.2-2.1,30.3-5.7l-2.1,5.7h37.7l22.9-62.9h-37.7Z"/>
        <path d="M547.2,61.9c-4.6,12.8-26.3,23.1-48.4,23.1h-61.5l16.8-46.2h61.5c22.1,0,36.2,10.4,31.6,23.1M583.8,17l-6,16.6c-10.5-10.1-29.9-16.6-54.2-16.6h-99.1l-32.7,89.8h99.1c24.3,0,48.4-6.5,66.3-16.6l-6,16.6h37.6l32.7-89.8h-37.7Z"/>
        <path class="cls-2" d="M114.4,48.7c-5.1,4.6-17.7,9.1-27.3,4.8-9.4-4.1-5.5-11.3.5-14.7,6.3-3.6,18.5-8.3,38.9-8.3,21-.1,37.8,3.7,50.2,9.5,12.7,5.9,21.2,14.3,21.2,28s-23.7,38.2-59.8,44.2c9.1-5.1,11.6-8.7,12.7-10.3-14.9,6.8-44.8,11.8-77.6,9.5,7.2-1,18.4-4.3,23.6-7-25.5-.2-51.7-7.2-66.9-17.2,7.1,1.8,19.6,3.3,27.3,2.3-18.4-6.6-35.7-18.1-35.7-34.1,1.9,2.8,10.3,9.3,16.6,10.8-5.5-6.2-12.5-24.8,8.4-40.1-2.2,4.6-.9,9,.5,11.9,5.7-7.2,19.2-17.4,43.5-22.6-4,3.1-6.4,5.7-8.6,8.9,9.5-4.5,28.6-11.6,59.2-11.6-8.9,1.4-13.9,3.3-18.5,5.9,11.4-.9,33.5-2,59.9,6.7-6.6-.6-10.8-.6-17.4-.1,12.2,2.6,26.2,9.1,36.4,17.9-16-6.2-33.7-15.2-72.5-15.2s-53.2,11.9-53.2,19.6,11.5,15.5,36.1,15.5,21.3-1.9,28.4-5.3c6.6-3.2,10.8-9.5,1.4-13.6-9.6-4.5-22.2,0-27.3,4.6"/>
        <path class="cls-3" d="M195.9,59.6c-1.7-5-4.8-9.2-9-12.6l-66.4,61.9c12.9-1.8,21.4-4.2,31.3-8.2l44.1-41.1Z"/>
        <path class="cls-1" d="M176.6,40c-1-.5-2.1-.9-3.1-1.4l-78.4,73.1c8.7-.2,17-.9,24.6-2l67.8-63.2c-3.1-2.5-6.8-4.6-10.9-6.5"/>
        <path d="M601.8,102v-1.6h1.1c.5,0,1.1.1,1.1.8s-.6.8-1.2.8h-1ZM601.8,102.7h.9l1.3,2.2h.9l-1.5-2.3c.8-.1,1.3-.5,1.3-1.4s-.6-1.5-1.8-1.5h-1.9v5.1h.8v-2.1ZM602.7,106.8c2.4,0,4.5-1.9,4.5-4.4s-2.1-4.4-4.5-4.4-4.5,1.9-4.5,4.4,2.1,4.4,4.5,4.4M599.1,102.4c0-2.1,1.6-3.7,3.6-3.7s3.6,1.6,3.6,3.7-1.6,3.7-3.6,3.7-3.6-1.6-3.6-3.7"/>
      </g>
    </g>
  </g>
</svg>