<?xml version="1.0" encoding="utf-8"?>
<!-- Generator: $$$/GeneralStr/196=Adobe Illustrator 27.6.0, SVG Export Plug-In . SVG Version: 6.00 Build 0)  -->
<svg version="1.1" id="sigma-sport-logo-navi" xmlns="http://www.w3.org/2000/svg" xmlns:xlink="http://www.w3.org/1999/xlink"
	 x="0px" y="0px" viewBox="0 0 238 41.4" style="enable-background:new 0 0 238 41.4;" xml:space="preserve">
<style type="text/css">
	.st0{fill:none;}
	.st1{fill:#171411;}
	.st2{fill:#D61436;}
	.st3{fill:#C71232;}
	.st4{fill:none;stroke:#171411;}
</style>
<path class="st0" d="z"/>
<g>
	<path class="st1" d="M112.6,4.2h4.4l-4.1,22l-4.6,0L112.6,4.2z"/>
	<path class="st1" d="M104.2,4.2l-0.8,4.5c0,0-12.1-0.5-16.2,0c-3.2,0.3-3.4,0.9-3.7,2.2c-0.3,1.4-0.4,2.2,2.7,2.2h14.2
		c4.1,0,3.7,2.1,2.9,6.6c-0.8,4.4-1.1,6-5.4,6.4c-4.4,0.4-23.6,0-23.6,0l0.9-4.5c0,0,16,0.5,20.1,0c3.2-0.4,3.4-0.7,3.6-2
		c0.3-1.7,0.4-2-2.8-2H82.1c-4.1,0-3.8-2.4-2.9-6.8c0.8-4.3,1.2-6.3,5.4-6.7C88.8,3.8,104.2,4.2,104.2,4.2z"/>
	<path class="st1" d="M219.2,21.7l-12.7,0l0.9-4.7h12.6l0.8-3.9c0.4-2.2,0.8-4.1-2.3-4.5c-2.7-0.3-7.9-0.4-11.6,0
		c-3.2,0.3-3.7,2.2-4.1,4.4c-0.8,4.2-2.5,13-2.5,13h-4.4c0,0,1.7-8.6,2.9-15.2c0.8-4,1.2-6.3,5.3-6.7c4.2-0.4,14.4-0.4,18.5,0
		c4.2,0.4,3.7,2.8,3,6.7c-0.4,2-2.9,15.3-2.9,15.3h-4.5L219.2,21.7z"/>
	<path class="st1" d="M162.5,8.7l-3.3,17.4h-4.5l4.2-21.9c0,0,2.8,0,4.5,0c5.5,0,5.4,0.4,6.9,4.4c0.9,2.5,2.9,8.4,2.9,8.4
		c1.5,0,1.5,0,4.4-4.1c1.2-1.7,5.7-8.7,5.7-8.7s4.8-0.2,6.3,0c4.1,0.4,3.6,3.2,3.3,4.7c-0.5,2.5-3.3,17.2-3.3,17.2h-4.4l2.8-15
		c0.5-2.7,0.1-2.4-2.2-2.4c0,0-4.5,6.5-5.9,8.7c-1.5,2.3-2.6,4.4-5.2,4.4c-0.6,0-4.6,0-4.6,0c-0.9-2.4-3.8-11.1-3.8-11.1
		C165.5,8.4,165.7,8.7,162.5,8.7z"/>
	<g>
		<path class="st2" d="M145.4,34.6c0.3-1.7-0.6-1.7-1.9-1.7c-1.5,0-2.5,0.3-2.9,2l-0.3,1.4c-0.3,1.7,0.4,2,2,2
			c1.9,0,2.4-0.3,2.7-2.1l0.2-0.9h-2.3l-0.2,1h0.9c-0.1,0.7-0.4,0.9-1.1,0.9c-0.7,0-1-0.1-0.8-1l0.2-0.9c0.2-0.9,0.3-1.2,1.3-1.2
			c0.4,0,0.9,0,0.8,0.5H145.4z"/>
		<path class="st2" d="M154.7,34.1h2.3l0.2-1.2h-3.7l-1.1,5.3h3.8l0.2-1.2h-2.4l0.2-1h2.2l0.2-1h-2.2L154.7,34.1z"/>
		<path class="st2" d="M164.9,35.6l0.3-1.4h1.1c0.5,0,0.6,0.1,0.4,0.6c-0.1,0.6-0.1,0.8-0.7,0.8H164.9 M163,38.2h1.4l0.3-1.4h1.1
			c0.4,0,0.5,0.3,0.4,0.7l-0.1,0.7h1.4l0.2-1.1c0.1-0.6-0.2-0.9-0.7-0.9l0-0.1c1-0.2,1.1-0.8,1.3-1.6c0.3-1.3-0.3-1.6-1.4-1.6h-2.7
			L163,38.2z"/>
		<path class="st2" d="M178.6,34.2L178.6,34.2l0.5,4.1h1.2l2.1-4.1h0l-1,4.1h1.4l1.1-5.3h-2.2l-1.6,3.3h0l-0.3-3.3h-2.2l-1.1,5.3
			h1.4L178.6,34.2z"/>
		<path class="st2" d="M194.1,37.3l0.1,0.9h1.4l-0.5-5.3H193l-2.6,5.3h1.4l0.4-0.9H194.1 M194,36.3h-1.3l1.1-2.3h0L194,36.3z"/>
		<path class="st2" d="M203.9,34.1L203.9,34.1l0.7,4.1h2.3l1.1-5.3h-1.4l-0.8,4.1h0l-0.6-4.1h-2.3l-1.1,5.3h1.4L203.9,34.1z"/>
		<path class="st2" d="M221.8,32.9h-1.6l-1.4,2h0l-0.5-2h-1.6l1.1,3.4l-0.4,1.9h1.4l0.4-1.9L221.8,32.9z"/>
	</g>
	<path class="st1" d="M139.2,17.5h5.6c-0.4,2.5-0.7,3.7-4,4.1c-3.2,0.4-10.2,0.5-13.9,0c-3-0.4-2.5-2.1-2.3-3.9
		c0.1-1.1,0.6-3.6,0.9-4.8c0.5-2.2,1-4,4-4.3c4.6-0.5,17.4,0,17.4,0l0.8-4.5c0,0-16.6-0.4-20.8,0c-4.3,0.4-4.5,2.7-5.5,6.7
		c-0.5,2.1-1.4,6.5-1.7,8.9c-0.4,3.9-1.1,5.9,3,6.3c4.2,0.5,16.6,0.4,20.8,0c4.2-0.4,4.6-2.2,5.3-6.3c0.3-2,1.2-6.6,1.2-6.6H140
		L139.2,17.5z"/>
	<path class="st1" d="M29.5,32.6c-7.7,0.9-15.7,0.4-28.3-3.6l6.4,6.6c8.3,2.7,20.5,3.4,24.8,3.2c32.4-1.2,31.5-8.2,21.4-18.3
		c-2.8-2.7-5.4-5.4-5.4-5.4C47,22,43.9,30.9,29.5,32.6z"/>
	<path class="st3" d="M33,8.4c6-1.2,13.4-1,22.4,2.2l-6.2-6.4c-5.9-1.7-13.9-1.9-18.6-1.6C1.9,4.2,4.6,7.2,16.9,20.7
		C18.6,22.5,20,24,20,24C20.8,19.6,23.6,10.3,33,8.4z"/>
	<g>
		<path class="st4" d="M231.2,6.1c0-1.6,1.2-2.9,2.8-2.9c1.6,0,2.8,1.3,2.8,2.9c0,1.6-1.2,2.9-2.8,2.9C232.4,9,231.2,7.7,231.2,6.1z
			"/>
		<path class="st1" d="M235.2,7.3l-0.5-0.6h-1.4l0.1-0.5c0.1,0,1.1,0,1.1,0c0.4,0,0.5-0.2,0.6-0.5c0.1-0.2,0.1-0.4-0.3-0.5
			c-0.2,0-0.9,0-1.2,0c-0.5,0.1-0.6,0.3-0.6,0.5c-0.1,0.5-0.3,1.5-0.3,1.5H232c0,0,0.2-1,0.4-1.8c0.1-0.5,0.1-0.7,0.9-0.8
			c0.5,0,1.1,0,1.6,0c0.5,0,0.7,0.3,0.7,0.6c0,0.5-0.1,0.8-0.4,1l0.7,0.9H235.2z"/>
	</g>
</g>
<path class="st0" d="z"/>
</svg>
