<?xml version="1.0" encoding="UTF-8"?>
<svg xmlns="http://www.w3.org/2000/svg" version="1.1" viewBox="0 0 106.3 63.3">
  <defs>
    <style>
      .cls-1 {
        fill-rule: evenodd;
      }
    </style>
  </defs>
  <!-- Generator: Adobe Illustrator 28.6.0, SVG Export Plug-In . SVG Version: 1.2.0 Build 709)  -->
  <g>
    <g id="Capa_1">
      <g id="SIS_Logo">
        <path id="Path_1" class="cls-1" d="M59.9,5.6c0,.2.2,0,.2.2,0,0,0,.2,0,.2,0,0-.2.2-.2.2-.2.2-.3.2-.4.3-.4,0-.8.2-1.1.5-.2.2-.5.3-.7.5-.4.2-.7.3-1.1.3-.3-.2-.2-.5-.5-.8h0c-.2-.2-.2-.5-.3-.8-.3.2-.7.3-1.1.3-.2,0-.4,0-.5.2-.2,0-.4,0-.6,0,0,.2-.3.4,0,.5,0,.2.4,0,.3.3.5.3.9.8,1.1,1.4,0,.4.4.6.2,1,0,.5-.5.5-.8.6-.4,0-.8,0-1.2,0-.5-.2-1-.1-1.5,0l-.2.5c-.3.2,0,.6-.5.8-.2,0-.2,0-.2-.2,0,0,0-.3,0-.4,0-.2,0-.2,0-.4-.2,0-.4,0-.6.2h0c-.6.3-1.2.6-1.7.9,0,.3,0,.7.2,1,0,0,.2,0,.3.2v.2c0,0,0,0-.2,0h-.4c0,0-.2,0-.3-.2-.1-.2-.2-.4-.2-.6-.2-.2-.6-.5-.6-.8,0-.2.3-.2.4-.4.4,0,.7-.3,1-.6.2-.3.5-.6.8-.8.3-.2.8-.2.8-.6,0-.5.2-1,.4-1.5v-.6c0,0-.3-.2-.2-.3,0,0,0-.2,0-.2,0-.2,0-.4,0-.5v-.2c0-.2.1-.4.2-.5.3-.4.8-.5,1.1-.7,0-.2,0-.4.3-.5.3-.1.7-.2,1.1-.3.5-.2.8-.2,1.3-.4-.1-.1-.2-.3-.3-.5h0c-.3,0-.6,0-.9,0h-.7c-.4.1-.9,0-1.2-.4,0-.2-.2-.4-.3-.5,0-.2,0-.3.2-.5,0,0,0,0,.2,0,0,0,0,0,0,.2,0,0,0,.2.2,0,0,0,.2.2.2.2.2.2.5,0,.5.4.2,0,.4-.2.5-.2.4-.3.9-.5,1.4-.6.2,0,.3.2.5.3.1,0,.3.2.4.3.1.2.3.4.5.6.2,0,.2.4.4.3v-.3c.2-.3.4-.5.8-.6.3,0,.6,0,.8,0,.2.2.4.3.4.5s.2.4,0,.5c0,.2,0,.3,0,.4,0,.2.2.3,0,.5-.3,0,0,.2-.2.2.2.2-.2.2-.2.3-.2.2-.3,0-.5,0,0,0,0,0,0,.2,0,.2,0,.5,0,.7,0,0,.2.2.2.3,0,.2,0,.2.2.4.4-.2.9-.3,1.3-.5.2,0,.3-.4.5-.5.1,0,.2,0,.3-.2,0,0,.2-.2.2,0,.5.3.6.2.7.2M52.4,8.5c-.1.5-.4.9-.7,1.3.5,0,1-.1,1.4-.4,0,0,.4,0,.5,0-.2-.2-.4-.4-.6-.6-.2-.2-.4-.2-.6-.3M53.3,16.5c-4.5,0-8.2-3.7-8.2-8.2,0-4.5,3.7-8.2,8.2-8.2,4.5,0,8.2,3.7,8.2,8.2h0c0,4.5-3.6,8.2-8.1,8.2,0,0-.1,0-.2,0"/>
        <path id="Path_2" class="cls-1" d="M94.7,18.3h-24.5v7.6h23.2c3.4,0,6,.7,7,1.7,1.3,1.1,1.9,3.4,1.9,6.3v5.4c0,3.4-.7,5.7-1.7,6.9-1.3,1.3-3.9,1.9-7.3,1.9h-22.9c-3.4,0-6-.6-7.3-1.9-1.1-1.1-1.7-3.4-1.7-6.9v-1.1l7.7-2v5.1h25.5v-9h-22.9c-3.6,0-6.2-.6-7.5-1.7s-1.9-3.2-1.9-6.4v-3.9c0-3.4.6-6,1.9-7.3s3.9-1.9,7.5-1.9h21.1c3.6,0,6,.6,7.4,1.9,1.3,1.3,1.9,3.4,1.9,6.6v.8l-7.7,1.7v-4.1h.2Z"/>
        <rect id="Rectangle_19" x="49.7" y="18.3" width="7.3" height="29.9"/>
        <path id="Path_3" class="cls-1" d="M37.1,18.3H12.6v7.6h23.2c3.4,0,6,.7,7,1.7,1.3,1.1,1.9,3.4,1.9,6.3v5.4c0,3.4-.6,5.7-1.7,6.9-1.3,1.3-3.9,1.9-7.3,1.9H12.8c-3.4,0-6-.6-7.3-1.9-1.1-1.1-1.7-3.4-1.7-6.9v-1.1l7.6-2v5.1h25.6v-9H14.3c-3.6,0-6.2-.6-7.5-1.7s-1.9-3.2-1.9-6.4v-3.9c0-3.4.7-6,1.9-7.3,1.3-1.3,3.9-1.9,7.5-1.9h21.1c3.6,0,6,.6,7.5,1.9,1.3,1.3,1.9,3.4,1.9,6.6v.8l-7.6,1.7v-4.1Z"/>
        <path id="Path_4" class="cls-1" d="M.8,53h104.6c.5,0,.8.4.8.8h0c0,.5-.4.8-.8.8H.8c-.5,0-.8-.4-.8-.8h0c0-.5.4-.8.8-.8"/>
        <path id="Path_5" class="cls-1" d="M16.1,59.3h-3.2v3h3.2v-1.1l1.2.2v.6c0,.5,0,.8-.3.9-.3.2-.6.3-1,.2h-3c-.3,0-.7,0-1-.2-.2-.3-.3-.6-.3-.9v-2.6c0-.3,0-.6.2-.9.3-.2.6-.3,1-.2h3c.3,0,.7,0,1,.2.2.3.3.6.2.9v.5l-1.2.2v-.8h.1Z"/>
        <rect id="Rectangle_20" x="18.5" y="58.4" width="1.2" height="4.8"/>
        <path id="Path_6" class="cls-1" d="M21.2,63.3v-4.8h5.1v.8h-4v1.1h2.3v.8h-2.3v1.2h4.1v.9h-5.2Z"/>
        <path id="Path_7" class="cls-1" d="M27.5,63.3v-4.8h.8l4.1,3.2v-3.2h1.1v4.8h-.8l-4.1-3.2v3.2h-1.1Z"/>
        <path id="Path_8" class="cls-1" d="M39.2,59.3h-3.2v3h3.2v-1.1l1.2.2v.6c0,.3,0,.6-.2.9-.3.2-.6.3-1,.2h-3c-.3,0-.7,0-1-.2-.2-.3-.3-.6-.2-.9v-2.6c0-.3,0-.6.2-.9.3-.2.6-.3,1-.2h3c.3,0,.7,0,1,.2.2.3.3.6.2.9v.5l-1.2.2v-.8Z"/>
        <path id="Path_9" class="cls-1" d="M41.6,63.3v-4.8h5.2v.8h-4v1.1h2.3v.8h-2.3v1.2h4.1v.9h-5.3Z"/>
        <rect id="Rectangle_21" x="53.1" y="58.4" width="1.2" height="4.8"/>
        <path id="Path_10" class="cls-1" d="M55.7,63.3v-4.8h.8l4.1,3.2v-3.2h1.1v4.8h-.8l-4.1-3.2v3.2h-1.1Z"/>
        <path id="Path_11" class="cls-1" d="M80.5,59.2h-2.7v1.3h2.7c.2,0,.3,0,.4,0,0,0,.1-.2.2-.3v-.5c0-.2,0-.2-.2-.3-.1,0-.3,0-.4,0M76.6,63.3v-4.8h4.4c.3,0,.6,0,.8.2.2.2.3.5.3.8v1.1c0,.3,0,.6-.3.8-.2.2-.5.3-.8.2h-3.2v1.9h-1.2Z"/>
        <path id="Path_12" class="cls-1" d="M83,59.6c0-.3,0-.6.2-.9.3-.2.6-.3,1-.2h3.8c.3,0,.7,0,1,.2.2.3.3.6.2.9v2.6c0,.3,0,.6-.2.9-.3.2-.6.3-1,.2h-3.8c-.3,0-.7,0-1-.2-.2-.3-.3-.6-.2-.9v-2.6ZM84.2,62.4h3.9v-3h-3.9v3Z"/>
        <path id="Path_13" class="cls-1" d="M90.6,63.3v-4.8h4.4c.3,0,.6,0,.8.2.2.2.3.5.3.8v1.1c0,.3,0,.5-.3.7-.2.2-.5.3-.8.2h-.7l2.3,1.8h-1.7l-2-1.8h-1.1v1.8h-1.1ZM94.5,59.2h-2.7v1.4h2.7c.2,0,.3,0,.5,0,0,0,.1-.2.2-.3v-.6c0-.1,0-.2-.2-.3-.1,0-.3,0-.5,0"/>
        <path id="Path_14" class="cls-1" d="M100.1,59.3v3.9h-1.2v-3.9h-2.3v-.9h5.9v.9h-2.3Z"/>
        <path id="Path_15" d="M9.3,59.3h-3.2v1h3.1c.3,0,.7,0,1,.2.2.3.3.6.2.9v.7c0,.3,0,.6-.2.9-.3.2-.6.3-1,.2h-3.1c-.3,0-.7,0-1-.2-.2-.3-.3-.6-.3-.9v-.2l1.1-.2v.6h3.5v-1.1h-3.2c-.3,0-.7,0-1-.2-.2-.3-.3-.6-.3-.9v-.5c0-.5,0-.8.3-.9.3-.2.6-.3,1-.2h2.9c.3,0,.7,0,1,.2.2.2.3.5.3.8h0c0,0-1,.3-1,.3v-.5h0Z"/>
        <path id="Path_16" d="M74.1,59.3h-3.3v1h3.1c.3,0,.7,0,1,.2.2.3.3.6.2.9v.7c0,.3,0,.6-.2.9-.3.2-.6.3-1,.2h-3.1c-.3,0-.7,0-1-.2-.2-.3-.3-.6-.3-.9v-.2l1.1-.2v.6h3.5v-1.1h-3.1c-.3,0-.7,0-1-.2-.2-.3-.3-.6-.3-.9v-.5c0-.5,0-.8.3-.9.3-.2.6-.3,1-.2h2.9c.3,0,.7,0,1,.2.2.2.3.5.3.8h0c0,0-1.1.3-1.1.3v-.5Z"/>
      </g>
    </g>
  </g>
</svg>