<?xml version="1.0" encoding="UTF-8"?>
<svg xmlns="http://www.w3.org/2000/svg" version="1.1" viewBox="0 0 90 60">
  <defs>
    <style>
      .cls-1 {
        fill: #00369c;
      }

      .cls-2 {
        fill: #f2f2f2;
      }

      .cls-3 {
        fill: #3ec92b;
      }
    </style>
  </defs>
  <!-- Generator: Adobe Illustrator 28.6.0, SVG Export Plug-In . SVG Version: 1.2.0 Build 709)  -->
  <g>
    <g id="Ebene_1">
      <path class="cls-2" d="M8,0h74c4.4,0,8,3.6,8,8v44c0,4.4-3.6,8-8,8H8c-4.4,0-8-3.6-8-8V8C0,3.6,3.6,0,8,0Z"/>
      <g id="Grupo_17947">
        <g id="Grupo_17930">
          <g id="Grupo_17925">
            <path id="Trazado_11152" class="cls-1" d="M29.3,29.1v-1.8h-2v-1.9l-1.4.3c0,.3-.2.5-.3.8-.3.5-.8.8-1.3.9,0,0,0,0,0,0v1.7h.9v3.1c0,.6.2,1.3.7,1.7.4.4,1.1.6,1.9.6.3,0,.5,0,.8,0,.3,0,.5,0,.8-.2v-1.8c-.2,0-.3,0-.5.1-.2,0-.3,0-.5,0-.3,0-.5,0-.7-.2-.2-.2-.2-.4-.2-.7v-2.7h2Z"/>
            <path id="Trazado_11153" class="cls-1" d="M6.9,33.7l1-1.5c.4.2.8.4,1.2.6.4.1.7.2,1.1.2.3,0,.6,0,.9-.2.2,0,.3-.2.3-.4,0-.1,0-.3-.2-.3-.2-.1-.4-.2-.6-.2l-1.4-.2c-.6,0-1.2-.3-1.6-.7-.4-.4-.6-.9-.6-1.4,0-.7.3-1.3.8-1.7.7-.4,1.5-.7,2.3-.6.5,0,1,0,1.5.2.5.1,1,.4,1.4.6l-1,1.4c-.3-.2-.7-.4-1.1-.5-.3-.1-.7-.2-1.1-.2-.2,0-.5,0-.7.1-.2,0-.2.2-.3.4,0,.1,0,.3.2.3.2.1.4.2.6.2l1.4.2c.6,0,1.2.3,1.6.7.4.4.6.9.6,1.4,0,.3,0,.7-.2,1-.2.3-.4.6-.7.8-.3.2-.7.4-1,.5-.4.1-.8.2-1.3.2-.6,0-1.3,0-1.9-.2-.5-.1-1-.4-1.5-.7Z"/>
            <path id="Trazado_11154" class="cls-1" d="M17,33.7l1-1.5c.4.2.8.4,1.2.6.4.1.7.2,1.1.2.3,0,.6,0,.9-.2.2,0,.3-.2.3-.4,0-.1,0-.3-.2-.3-.2-.1-.4-.2-.6-.2l-1.4-.2c-.6,0-1.2-.3-1.6-.7-.4-.4-.6-.9-.6-1.4,0-.7.3-1.3.8-1.7.7-.4,1.5-.7,2.3-.6.5,0,1,0,1.5.2.5.1,1,.4,1.4.6l-1,1.4c-.3-.2-.7-.4-1.1-.5-.3-.1-.7-.2-1.1-.2-.2,0-.5,0-.7.1-.2,0-.3.2-.3.4,0,.1,0,.3.2.3.2.1.4.2.6.2l1.4.2c.6,0,1.2.3,1.6.7.4.4.6.9.6,1.4,0,.3,0,.7-.2,1-.2.3-.4.6-.7.8-.3.2-.7.4-1,.5-.4.1-.8.2-1.3.2-.6,0-1.3,0-1.9-.2-.5-.1-1-.4-1.5-.7Z"/>
            <path id="Trazado_11155" class="cls-1" d="M36.7,33.5c-.4.4-.9.6-1.4.8-.5.2-1.1.3-1.6.3-.5,0-1,0-1.5-.3-.5-.2-.9-.4-1.2-.8-.3-.3-.6-.7-.8-1.2-.2-.5-.3-1-.3-1.5,0-.5,0-1,.3-1.5.2-.4.5-.8.8-1.2.3-.3.7-.6,1.2-.8.5-.2,1-.3,1.5-.3,1,0,1.9.4,2.6,1.1.3.4.6.8.7,1.2.2.5.3,1,.3,1.6v.5h-5.1c.1.3.4.6.7.8.3.2.7.3,1.1.3.3,0,.6,0,.8-.1.2,0,.4-.2.6-.4l1.4,1.3ZM33.5,29c-.3,0-.7,0-.9.3-.3.2-.5.5-.6.8h3c-.1-.3-.3-.6-.6-.8-.3-.2-.6-.3-.9-.3h0Z"/>
            <g id="Grupo_17924">
              <path id="Trazado_11156" class="cls-1" d="M14,25.4c0,.7.6,1.2,1.3,1.1.6,0,1.1-.5,1.1-1.1h-2.4Z"/>
              <rect id="Rectángulo_3668" class="cls-1" x="14.2" y="27.3" width="2.2" height="7.1"/>
            </g>
          </g>
          <g id="Grupo_17928">
            <path id="Trazado_11157" class="cls-3" d="M74.8,29.1v-1.8h-2v-1.9l-1.4.3c0,.3-.2.5-.3.8-.3.5-.8.8-1.3.9,0,0,0,0,0,0v1.7h.9v3.1c0,.6.2,1.3.7,1.7.4.4,1.1.6,1.9.6.3,0,.5,0,.8,0,.3,0,.5,0,.8-.2v-1.8c-.2,0-.3,0-.5.1-.2,0-.3,0-.5,0-.3,0-.5,0-.7-.2-.2-.2-.2-.4-.2-.7v-2.7h2Z"/>
            <path id="Trazado_11158" class="cls-3" d="M41.6,32.7c.3,0,.6,0,.8-.2.3-.1.5-.3.7-.6l1.3,1.3c-.4.4-.8.7-1.3,1-.5.2-1.1.3-1.6.3-.5,0-1,0-1.5-.3-1.4-.6-2.3-1.9-2.3-3.4,0-.5,0-1,.3-1.5.2-.4.5-.8.8-1.2.7-.7,1.7-1.1,2.7-1.1.6,0,1.1.1,1.7.4.5.2,1,.6,1.3,1l-1.3,1.4c-.2-.3-.5-.5-.8-.6-.3-.1-.6-.2-.9-.2-.5,0-.9.2-1.2.5-.3.4-.5.8-.5,1.3,0,.5.2.9.5,1.3.3.3.8.5,1.2.5Z"/>
            <path id="Trazado_11159" class="cls-3" d="M45.1,34.4v-7.1h2.2v.7c.2-.3.5-.5.8-.6.3-.2.7-.2,1.1-.2.2,0,.3,0,.5,0,.1,0,.2,0,.3.1v1.9c-.2,0-.3-.1-.5-.2-.2,0-.4,0-.6,0-.3,0-.7,0-1,.2-.3.2-.5.4-.7.7v4.5h-2.2Z"/>
            <g id="Grupo_17926">
              <path id="Trazado_11160" class="cls-3" d="M52.8,25.4c0,.7.6,1.2,1.3,1.1.6,0,1.1-.5,1.1-1.1h-2.4Z"/>
              <path id="Trazado_11161" class="cls-3" d="M57.2,33.5c-.4.4-.9.6-1.4.8-.5.2-1.1.3-1.6.3-.5,0-1,0-1.5-.3-.9-.4-1.7-1.1-2.1-2-.2-.5-.3-1-.3-1.5,0-.5,0-1,.3-1.5.2-.4.5-.8.8-1.2.3-.3.7-.6,1.2-.8.5-.2,1-.3,1.5-.3,1,0,1.9.4,2.6,1.1.3.4.6.8.8,1.2.2.5.3,1,.3,1.6v.5h-5.1c.1.3.4.6.7.8.3.2.7.3,1.1.3.3,0,.6,0,.8-.1.2,0,.4-.2.6-.4l1.4,1.3ZM54,29c-.3,0-.7,0-.9.3-.3.2-.5.5-.6.8h3c-.1-.3-.3-.6-.6-.8-.3-.2-.6-.3-.9-.3h0Z"/>
            </g>
            <path id="Trazado_11162" class="cls-3" d="M63.8,34.4v-.5c-.3.2-.6.4-.9.5-.3.1-.7.2-1,.2-.5,0-1,0-1.4-.3-.4-.2-.8-.4-1.2-.8-.3-.3-.6-.7-.8-1.2-.2-.5-.3-.9-.3-1.4,0-.5,0-1,.3-1.4.4-.9,1.1-1.6,2-1.9.8-.3,1.6-.4,2.4-.2.3,0,.6.2.9.4v-1.8l2.2-.5v9h-2.2ZM60.4,30.9c0,.5.2,1,.5,1.3.4.3.8.5,1.3.5.3,0,.6,0,.8-.1.3,0,.5-.2.7-.4v-2.5c-.2-.2-.4-.3-.7-.4-.3-.1-.6-.2-.8-.1-.5,0-1,.2-1.3.5-.4.3-.6.8-.5,1.3h0Z"/>
            <g id="Grupo_17927">
              <path id="Trazado_11163" class="cls-3" d="M66.7,25.4c0,.7.6,1.2,1.3,1.1.6,0,1.1-.5,1.1-1.1h-2.4Z"/>
              <rect id="Rectángulo_3669" class="cls-3" x="66.8" y="27.3" width="2.2" height="7.1"/>
            </g>
            <path id="Trazado_11164" class="cls-3" d="M81.8,29.3c-.2,0-.4,0-.4.2,0,0,0,0,0,0l-.4,1c0,.1,0,.3,0,.4,0,.5-.2.9-.5,1.3-.7.7-1.7.7-2.4,0,0,0,0,0,0,0-.7-.7-.7-1.8,0-2.6.7-.7,1.7-.7,2.4,0,0,0,0,0,0,0,0,.1.2.2.3.3l.3-.6c.2-.4.6-.5,1-.4,0,0,0,0,0,0l.8.3c-.2-.4-.4-.8-.8-1.1-.4-.3-.8-.6-1.2-.8-1-.4-2.1-.4-3,0-.5.2-.9.5-1.2.8-.3.3-.6.7-.8,1.2-.4.9-.4,2,0,2.9.2.4.5.8.8,1.2.4.3.8.6,1.2.8,1,.4,2.1.4,3,0,.5-.2.9-.4,1.2-.8.3-.3.6-.7.8-1.2.2-.5.3-1,.3-1.5,0-.3,0-.7-.2-1l-1.2-.5Z"/>
          </g>
        </g>
      </g>
    </g>
  </g>
</svg>