<?xml version="1.0" encoding="UTF-8"?>
<svg version="1.1" xmlns="http://www.w3.org/2000/svg" width="300" height="199">
<path d="M0 0 C0.99344925 -0.04032349 1.9868985 -0.08064697 3.01045227 -0.12219238 C4.0894278 -0.155849 5.16840332 -0.18950562 6.28007507 -0.22418213 C7.99826195 -0.28726563 7.99826195 -0.28726563 9.75115967 -0.35162354 C20.32112921 -0.71751865 30.8956732 -0.93294786 41.47056293 -1.09591293 C48.56770851 -1.2076702 55.65641084 -1.36888166 62.74882507 -1.65582275 C110.26174352 -3.54208958 110.26174352 -3.54208958 119.13475037 3.05780029 C125.80332582 9.28010939 129.06791336 17.63251397 130.95072937 26.41546631 C133.8337527 23.58108998 136.60633217 20.75251791 139.14213562 17.60296631 C139.97068054 16.57816162 139.97068054 16.57816162 140.81596375 15.53265381 C141.3760614 14.83398193 141.93615906 14.13531006 142.51322937 13.41546631 C143.07719421 12.71679443 143.64115906 12.01812256 144.22221375 11.29827881 C147.56038604 7.21287918 147.56038604 7.21287918 150.48324585 2.83259583 C153.58858164 -0.20936929 155.18432168 -0.1840077 159.3883667 -0.25106812 C160.2497374 -0.23937592 161.11110809 -0.22768372 161.99858093 -0.21563721 C162.9129039 -0.22279251 163.82722687 -0.22994781 164.76925659 -0.23731995 C167.79379667 -0.2542362 170.81686005 -0.23478091 173.84135437 -0.21343994 C175.94639712 -0.21426865 178.05143981 -0.21672812 180.15647888 -0.2207489 C184.57165473 -0.22360929 188.986324 -0.20888691 193.40141296 -0.18145752 C199.04841174 -0.14745841 204.6944996 -0.15336303 210.34154129 -0.17212009 C214.69116232 -0.18271623 219.04057333 -0.17372706 223.39017487 -0.15873528 C225.47128932 -0.15356655 227.55242584 -0.15401931 229.63353729 -0.16028023 C232.55126629 -0.16576054 235.46771655 -0.14526389 238.38529968 -0.11798096 C239.23857346 -0.12450684 240.09184723 -0.13103271 240.97097778 -0.13775635 C246.72126026 -0.04681335 251.15372004 1.15966991 255.95072937 4.41546631 C259.98991077 8.88150126 260.53906112 12.77560659 260.32572937 18.60296631 C260.30848816 19.35328125 260.29124695 20.10359619 260.27348328 20.87664795 C259.94231391 31.2240237 258.76321487 40.17409084 251.95072937 48.41546631 C249.13329149 50.81128056 246.23636424 52.72407862 242.95072937 54.41546631 C242.27445496 54.76528564 241.59818054 55.11510498 240.90141296 55.4755249 C236.73785136 56.80182907 232.83601801 56.66224029 228.49369812 56.61077881 C227.59073502 56.60794891 226.68777191 56.60511902 225.75744629 56.60220337 C222.88423703 56.59104238 220.01134382 56.56594528 217.13822937 56.54046631 C215.18575993 56.53043123 213.23328558 56.5213063 211.2808075 56.51312256 C206.50399371 56.49111639 201.72741506 56.45661462 196.95072937 56.41546631 C196.29072937 62.02546631 195.63072937 67.63546631 194.95072937 73.41546631 C214.42072937 73.41546631 233.89072937 73.41546631 253.95072937 73.41546631 C253.29072937 81.00546631 252.63072937 88.59546631 251.95072937 96.41546631 C242.92750331 96.50594216 233.90457998 96.57928266 224.88100243 96.622715 C220.69069399 96.64356349 216.50071278 96.67183047 212.31059265 96.71722412 C208.26460695 96.7607805 204.21893542 96.78462401 200.17273331 96.79497528 C198.63138002 96.80234917 197.09004335 96.81674888 195.54882431 96.83838654 C193.38473001 96.86755242 191.22192312 96.87141707 189.05766296 96.86956787 C187.82744415 96.87845032 186.59722534 96.88733276 185.32972717 96.89648438 C180.16844034 96.16174811 177.11551049 93.67468914 173.63822937 89.91546631 C167.89181074 81.40225352 171.88863312 65.44891289 173.30229187 55.69671631 C174.80815276 48.07669734 178.6055267 42.00235981 184.95072937 37.41546631 C191.26470696 33.94450263 196.64740394 32.8164232 203.79838562 32.80609131 C204.69568893 32.78955505 205.59299225 32.7730188 206.51748657 32.75598145 C209.34947297 32.70786573 212.18092393 32.68621226 215.01322937 32.66546631 C216.94750058 32.63727608 218.88174723 32.60734443 220.81596375 32.57562256 C225.52750812 32.50211703 230.23876158 32.45232075 234.95072937 32.41546631 C235.28072937 29.44546631 235.61072937 26.47546631 235.95072937 23.41546631 C211.86072937 23.41546631 187.77072937 23.41546631 162.95072937 23.41546631 C162.29072937 24.73546631 161.63072937 26.05546631 160.95072937 27.41546631 C160.173715 28.51911845 159.36400131 29.60039834 158.52494812 30.65765381 C158.05766296 31.2493335 157.59037781 31.84101318 157.1089325 32.45062256 C156.62360046 33.057771 156.13826843 33.66491943 155.63822937 34.29046631 C154.92763367 35.1895874 154.92763367 35.1895874 154.2026825 36.10687256 C153.73153015 36.70113037 153.26037781 37.29538818 152.77494812 37.90765381 C152.07764587 38.78888916 152.07764587 38.78888916 151.36625671 39.68792725 C150.42422106 40.83760719 149.44991877 41.9615984 148.44535828 43.05706787 C146.84973818 44.76051785 146.84973818 44.76051785 144.95072937 47.41546631 C145.27557183 51.25742377 147.52616996 54.36835972 149.45072937 57.62249756 C149.8028096 58.22077866 150.15488983 58.81905975 150.51763916 59.43547058 C151.657243 61.36915832 152.80389872 63.29855757 153.95072937 65.22796631 C154.72970922 66.54705703 155.50827354 67.86639322 156.28642273 69.18597412 C161.00145832 77.17229193 165.75311202 85.13657811 170.57963562 93.05609131 C171.95072937 95.41546631 171.95072937 95.41546631 171.95072937 96.41546631 C162.51647932 97.95949454 152.18091998 99.48457456 142.95072937 96.41546631 C136.15027326 90.52378341 132.49317796 81.99672165 129.0945282 73.82391357 C128.18831492 71.2775537 128.18831492 71.2775537 125.95072937 70.41546631 C125.72901062 70.93624756 125.50729187 71.45702881 125.27885437 71.99359131 C123.44681933 75.33436108 121.07986959 78.20589242 118.70072937 81.16546631 C117.75707097 82.34699981 116.81436917 83.52929792 115.87260437 84.71234131 C115.41203644 85.27382874 114.95146851 85.83531616 114.47694397 86.41381836 C112.9164365 88.36961235 112.9164365 88.36961235 111.75801086 90.49963379 C109.76790539 93.78874886 108.28572075 96.03615032 104.48490906 97.11608887 C101.43559184 97.34173569 98.48269369 97.31542891 95.42729187 97.19671631 C94.32597931 97.18539673 93.22466675 97.17407715 92.08998108 97.16241455 C88.583437 97.11774401 85.08103047 97.01738975 81.57572937 96.91546631 C79.19427814 96.87532767 76.81276261 96.83882759 74.43119812 96.80609131 C68.60297117 96.71803989 62.77714582 96.58429524 56.95072937 96.41546631 C57.97412557 87.63543886 58.9997264 78.85567256 60.02812862 70.07623005 C60.50560718 65.99941135 60.98233102 61.92250738 61.45732117 57.84539795 C61.91589239 53.90946437 62.37645772 49.97376876 62.83839607 46.03822899 C63.01412797 44.53804993 63.18914588 43.03778706 63.36343193 41.53743935 C63.60799769 39.43315893 63.85511936 37.32919308 64.10282898 35.22528076 C64.24272751 34.02837112 64.38262604 32.83146149 64.52676392 31.59828186 C64.89232465 28.8539253 65.40776289 26.13029871 65.95072937 23.41546631 C44.50072937 23.41546631 23.05072937 23.41546631 0.95072937 23.41546631 C0.62072937 26.71546631 0.29072937 30.01546631 -0.04927063 33.41546631 C1.27201843 33.39451904 2.5933075 33.37357178 3.95463562 33.35198975 C8.88209591 33.2792936 13.80950927 33.23355894 18.73735046 33.19573975 C20.86536139 33.17569163 22.99331769 33.14844577 25.12113953 33.1137085 C28.1894737 33.06489083 31.2570761 33.04242905 34.32572937 33.02484131 C35.26875916 33.00419617 36.21178894 32.98355103 37.18339539 32.96228027 C44.07936551 32.95996619 49.75897901 34.26437519 54.79057312 39.23187256 C55.33391296 40.09618896 55.33391296 40.09618896 55.88822937 40.97796631 C56.26850281 41.55675537 56.64877625 42.13554443 57.04057312 42.73187256 C62.52890959 52.88411726 58.52868199 70.71453091 55.95072937 81.41546631 C53.23590901 88.28286235 48.53587272 92.27032322 41.95072937 95.41546631 C38.52034643 96.55892729 35.89441187 96.53558231 32.27616882 96.5289917 C31.60273437 96.52913773 30.92929993 96.52928375 30.23545837 96.5294342 C28.01160958 96.52873806 25.78784476 96.52095963 23.56401062 96.51312256 C22.02130174 96.51125732 20.47859226 96.50983392 18.93588257 96.50883484 C14.87689069 96.505018 10.81793464 96.49519482 6.75895691 96.48413086 C2.61650578 96.47389883 -1.52595113 96.46933338 -5.66841125 96.46429443 C-13.79538081 96.45357181 -21.92232126 96.43650538 -30.04927063 96.41546631 C-29.90750642 93.70686507 -29.76098847 90.99865879 -29.61177063 88.29046631 C-29.57245422 87.52991943 -29.53313782 86.76937256 -29.49263 85.98577881 C-29.45073547 85.23812256 -29.40884094 84.49046631 -29.36567688 83.72015381 C-29.32901917 83.03936768 -29.29236145 82.35858154 -29.2545929 81.65716553 C-29.00135101 78.89228207 -28.5057173 76.15414636 -28.04927063 73.41546631 C-7.91927063 73.41546631 12.21072937 73.41546631 32.95072937 73.41546631 C33.61072937 68.13546631 34.27072937 62.85546631 34.95072937 57.41546631 C33.65973328 57.40612061 32.36873718 57.3967749 31.03862 57.387146 C26.22252121 57.3471007 21.40705146 57.28130146 16.59135437 57.20794678 C14.51200985 57.17982132 12.43256008 57.1585651 10.35307312 57.14447021 C7.35383045 57.12292393 4.35584192 57.07621355 1.35697937 57.02484131 C-0.02475464 57.02299835 -0.02475464 57.02299835 -1.43440247 57.02111816 C-8.06761698 56.87253634 -13.49356651 55.54075807 -18.57453918 51.0748291 C-22.668981 46.60989899 -24.01874122 41.76877477 -24.09614563 35.80218506 C-22.23473465 12.60802458 -22.23473465 12.60802458 -11.92817688 3.71234131 C-8.15430718 1.10750817 -4.54042399 0.16864565 0 0 Z M91.95072937 12.41546631 C90.75207062 21.88068646 89.56066403 31.34678275 88.37855434 40.81408405 C87.8294487 45.20991024 87.27783233 49.60539115 86.72050476 54.00018311 C86.1829346 58.23991445 85.6519249 62.4804202 85.12549019 66.72154808 C84.9232983 68.3409894 84.71872797 69.96013557 84.51176262 71.57897377 C84.2227002 73.84315768 83.9420459 76.10823523 83.66337585 78.37371826 C83.50127121 79.66389359 83.33916656 80.95406891 83.17214966 82.28334045 C82.74807398 85.44473202 82.74807398 85.44473202 83.95072937 88.41546631 C84.59397156 87.59046631 85.23721375 86.76546631 85.89994812 85.91546631 C91.64416258 78.56713794 97.4681674 71.29086733 103.36430359 64.06390381 C107.29860016 59.23561125 111.16025461 54.35768843 114.95072937 49.41546631 C111.60218494 42.45936889 107.91250509 35.81360494 103.88822937 29.22796631 C102.85499927 27.52655495 101.82243412 25.82473959 100.79057312 24.12249756 C100.30701355 23.32537354 99.82345398 22.52824951 99.32524109 21.70697021 C97.48376519 18.6369715 95.70999338 15.53320276 93.95072937 12.41546631 C93.29072937 12.41546631 92.63072937 12.41546631 91.95072937 12.41546631 Z " fill="#201E1E" transform="translate(36.04927062988281,51.58453369140625)"/>
<path d="M0 0 C92.4 0 184.8 0 280 0 C280 3.63 280 7.26 280 11 C187.27 11 94.54 11 -1 11 C-0.67 7.37 -0.34 3.74 0 0 Z " fill="#EB2026" transform="translate(4,167)"/>
<path d="M0 0 C30.69 0 61.38 0 93 0 C92.67 3.63 92.34 7.26 92 11 C61.31 11 30.62 11 -1 11 C-0.67 7.37 -0.34 3.74 0 0 Z " fill="#04A452" transform="translate(4,167)"/>
<path d="M0 0 C30.36 0 60.72 0 92 0 C91.67 3.63 91.34 7.26 91 11 C60.64 11 30.28 11 -1 11 C-0.67 7.37 -0.34 3.74 0 0 Z " fill="#FDFEFD" transform="translate(97,167)"/>
<path d="M0 0 C3.78517694 3.55899765 6.64299767 7.13744401 9.4375 11.5625 C9.81326172 12.12646484 10.18902344 12.69042969 10.57617188 13.27148438 C11.62109375 14.94140625 11.62109375 14.94140625 13 18 C11.92342637 20.86205886 10.30677521 23.01404539 8.3203125 25.3125 C7.80339844 25.91320312 7.28648437 26.51390625 6.75390625 27.1328125 C5.94759766 28.05707031 5.94759766 28.05707031 5.125 29 C4.33029297 29.92425781 4.33029297 29.92425781 3.51953125 30.8671875 C0.78464369 34.02961332 -1.99054961 37.09231846 -5 40 C-4.61089763 30.6347084 -3.76430447 21.41280439 -2.5 12.125 C-2.36940186 11.1561084 -2.23880371 10.1872168 -2.10424805 9.18896484 C-1.1309609 2.2619218 -1.1309609 2.2619218 0 0 Z " fill="#201F1E" transform="translate(130,3)"/>
<path d="M0 0 C4.35970831 1.34849837 8.31341438 3.04907846 12.375 5.125 C13.43460938 5.66382813 14.49421875 6.20265625 15.5859375 6.7578125 C16.38257812 7.16773438 17.17921875 7.57765625 18 8 C17.45423097 16.10036134 16.45852964 24.01348818 15 32 C12.04053639 29.45563996 10.70672509 26.64261671 9.08203125 23.125 C8.55029297 21.97515625 8.01855469 20.8253125 7.47070312 19.640625 C7.1987915 19.04314453 6.92687988 18.44566406 6.64672852 17.83007812 C5.8134536 16.00209196 4.96712016 14.18057866 4.11914062 12.359375 C0 3.38679029 0 3.38679029 0 0 Z " fill="#201E1E" transform="translate(107,5)"/>
<path d="M0 0 C2.31 4.62 4.62 9.24 7 14 C4 15 4 15 1.9152832 14.01196289 C1.13499756 13.5039917 0.35471191 12.99602051 -0.44921875 12.47265625 C-1.29677734 11.92802734 -2.14433594 11.38339844 -3.01757812 10.82226562 C-3.89865234 10.24154297 -4.77972656 9.66082031 -5.6875 9.0625 C-6.58017578 8.48564453 -7.47285156 7.90878906 -8.39257812 7.31445312 C-10.60117095 5.88536365 -12.80311214 4.4469932 -15 3 C-14.67 2.34 -14.34 1.68 -14 1 C-9.19515019 0.03903004 -4.96285561 0 0 0 Z " fill="#201F1F" transform="translate(111,21)"/>
<path d="M0 0 C4.10958767 1.45044271 7.43258745 3.51110752 11 6 C7.29583874 8.37590142 4.07015427 8.20500286 -0.25 8.125 C-1.51328125 8.10695313 -2.7765625 8.08890625 -4.078125 8.0703125 C-5.04234375 8.04710937 -6.0065625 8.02390625 -7 8 C-5.31847927 4.25979502 -3.30960527 2.43865652 0 0 Z " fill="#201F1F" transform="translate(105,33)"/>
<path d="M0 0 C2.97 0 5.94 0 9 0 C9 2.64 9 5.28 9 8 C6.83125748 7.49396008 5.00032373 7.00016187 3 6 C3 6.66 3 7.32 3 8 C2.01 8 1.02 8 0 8 C0 5.36 0 2.72 0 0 Z " fill="#201E1E" transform="translate(209,189)"/>
<path d="M0 0 C2.97 0 5.94 0 9 0 C9 2.64 9 5.28 9 8 C8.01 8 7.02 8 6 8 C6 7.34 6 6.68 6 6 C5.01 6 4.02 6 3 6 C3 6.66 3 7.32 3 8 C2.01 8 1.02 8 0 8 C0 5.36 0 2.72 0 0 Z " fill="#201E1F" transform="translate(48,189)"/>
<path d="M0 0 C1.65 0.99 3.3 1.98 5 3 C5.33 2.34 5.66 1.68 6 1 C6.99 1 7.98 1 9 1 C9 3.64 9 6.28 9 9 C5.125 8.125 5.125 8.125 4 7 C3.67 7.66 3.34 8.32 3 9 C2.01 9 1.02 9 0 9 C0 6.03 0 3.06 0 0 Z " fill="#1F1F1E" transform="translate(17,188)"/>
<path d="M0 0 C2.97 0 5.94 0 9 0 C9 2.64 9 5.28 9 8 C6.03 8 3.06 8 0 8 C0 5.36 0 2.72 0 0 Z M3 2 C3 3.32 3 4.64 3 6 C3.99 6 4.98 6 6 6 C6 4.68 6 3.36 6 2 C5.01 2 4.02 2 3 2 Z " fill="#201E1E" transform="translate(153,189)"/>
<path d="M0 0 C2.97 0 5.94 0 9 0 C9 2.64 9 5.28 9 8 C6.03 8 3.06 8 0 8 C0 5.36 0 2.72 0 0 Z M3 2 C3 3.32 3 4.64 3 6 C3.99 6 4.98 6 6 6 C6 4.68 6 3.36 6 2 C5.01 2 4.02 2 3 2 Z " fill="#201E1E" transform="translate(108,189)"/>
<path d="M0 0 C2.97 0 5.94 0 9 0 C9 2.64 9 5.28 9 8 C6.03 8 3.06 8 0 8 C0 5.36 0 2.72 0 0 Z M3 2 C3 3.32 3 4.64 3 6 C3.99 6 4.98 6 6 6 C6 4.68 6 3.36 6 2 C5.01 2 4.02 2 3 2 Z " fill="#1F1F1E" transform="translate(27,189)"/>
<path d="M0 0 C2.64 0 5.28 0 8 0 C8.33 2.64 8.66 5.28 9 8 C7.68 8 6.36 8 5 8 C5 7.34 5 6.68 5 6 C4.34 6 3.68 6 3 6 C3 6.66 3 7.32 3 8 C2.01 8 1.02 8 0 8 C0 5.36 0 2.72 0 0 Z " fill="#211E1E" transform="translate(255,189)"/>
<path d="M0 0 C2.64 0 5.28 0 8 0 C8.33 2.64 8.66 5.28 9 8 C6.03 8 3.06 8 0 8 C0 5.36 0 2.72 0 0 Z " fill="#201E1F" transform="translate(224,189)"/>
<path d="M0 0 C2.64 0 5.28 0 8 0 C8.33 2.64 8.66 5.28 9 8 C6.03 8 3.06 8 0 8 C0 5.36 0 2.72 0 0 Z " fill="#1F1E1F" transform="translate(174,189)"/>
<path d="M0 0 C2.97 0 5.94 0 9 0 C9 1.98 9 3.96 9 6 C7.02 6 5.04 6 3 6 C3 6.66 3 7.32 3 8 C2.01 8 1.02 8 0 8 C0 5.36 0 2.72 0 0 Z " fill="#201E1E" transform="translate(234,189)"/>
<path d="M0 0 C2.97 0 5.94 0 9 0 C9 0.66 9 1.32 9 2 C8.01 2.495 8.01 2.495 7 3 C7 3.66 7 4.32 7 5 C7.66 5.33 8.32 5.66 9 6 C9 6.66 9 7.32 9 8 C6.03 8 3.06 8 0 8 C0 5.36 0 2.72 0 0 Z " fill="#201E1F" transform="translate(83,189)"/>
<path d="M0 0 C0.99 0 1.98 0 3 0 C3 1.98 3 3.96 3 6 C3.99 6 4.98 6 6 6 C6 4.02 6 2.04 6 0 C6.99 0 7.98 0 9 0 C9 2.64 9 5.28 9 8 C2.84765625 8.09765625 2.84765625 8.09765625 1 8 C0 7 0 7 -0.0625 3.4375 C-0.041875 2.303125 -0.02125 1.16875 0 0 Z " fill="#201E1D" transform="translate(128,189)"/>
<path d="M0 0 C2.64 0 5.28 0 8 0 C8 2.64 8 5.28 8 8 C5.36 8 2.72 8 0 8 C0 5.36 0 2.72 0 0 Z " fill="#1F1F1F" transform="translate(276,189)"/>
<path d="M0 0 C2.64 0 5.28 0 8 0 C8 2.64 8 5.28 8 8 C5.36 8 2.72 8 0 8 C0 5.36 0 2.72 0 0 Z M2 2 C2 3.32 2 4.64 2 6 C2.99 6 3.98 6 5 6 C5 4.68 5 3.36 5 2 C4.01 2 3.02 2 2 2 Z " fill="#201F1D" transform="translate(245,189)"/>
<path d="M0 0 C2.64 0 5.28 0 8 0 C8 2.64 8 5.28 8 8 C5.36 8 2.72 8 0 8 C0 5.36 0 2.72 0 0 Z M3 2 C3 3.32 3 4.64 3 6 C3.99 6 4.98 6 6 6 C6 4.68 6 3.36 6 2 C5.01 2 4.02 2 3 2 Z " fill="#201E1F" transform="translate(199,189)"/>
<path d="M0 0 C2.64 0 5.28 0 8 0 C8 2.64 8 5.28 8 8 C5.36 8 2.72 8 0 8 C0 5.36 0 2.72 0 0 Z " fill="#201F1E" transform="translate(98,189)"/>
<path d="M0 0 C1.65 0.99 3.3 1.98 5 3 C5.33 2.34 5.66 1.68 6 1 C6.66 1 7.32 1 8 1 C8 3.64 8 6.28 8 9 C6.68 8.34 5.36 7.68 4 7 C3.67 7.66 3.34 8.32 3 9 C2.01 9 1.02 9 0 9 C0 6.03 0 3.06 0 0 Z " fill="#211F1F" transform="translate(7,188)"/>
<path d="M0 0 C1.65 0.99 3.3 1.98 5 3 C5.33 2.34 5.66 1.68 6 1 C6.66 1 7.32 1 8 1 C8 3.64 8 6.28 8 9 C5.525 8.01 5.525 8.01 3 7 C2.67 7.66 2.34 8.32 2 9 C1.34 9 0.68 9 0 9 C0 6.03 0 3.06 0 0 Z " fill="#201E1E" transform="translate(164,188)"/>
<path d="M0 0 C0.86625 0.2784375 0.86625 0.2784375 1.75 0.5625 C4.20692525 1.04023546 5.64397534 0.75729364 8 0 C7.45276317 3.37462715 6.9451 5.08235 5 8 C4.34 8 3.68 8 3 8 C0 2.25 0 2.25 0 0 Z " fill="#1F1F1E" transform="translate(73,189)"/>
<path d="M0 0 C0.99 0 1.98 0 3 0 C3 0.66 3 1.32 3 2 C3.66 2 4.32 2 5 2 C5 1.34 5 0.68 5 0 C5.99 0 6.98 0 8 0 C6.125 5.75 6.125 5.75 5 8 C4.01 7.67 3.02 7.34 2 7 C0.8125 3.4375 0.8125 3.4375 0 0 Z " fill="#1F1F1E" transform="translate(38,189)"/>
<path d="M0 0 C2.97 0 5.94 0 9 0 C9 0.66 9 1.32 9 2 C8.01 2 7.02 2 6 2 C6 3.98 6 5.96 6 8 C5.01 8 4.02 8 3 8 C3 6.02 3 4.04 3 2 C2.01 2 1.02 2 0 2 C0 1.34 0 0.68 0 0 Z " fill="#1F1F1F" transform="translate(265,189)"/>
<path d="M0 0 C2.64 0 5.28 0 8 0 C8 0.66 8 1.32 8 2 C7.01 2.495 7.01 2.495 6 3 C6 3.66 6 4.32 6 5 C4.68 5 3.36 5 2 5 C2 5.99 2 6.98 2 8 C1.34 8 0.68 8 0 8 C0 5.36 0 2.72 0 0 Z " fill="#1F1F1F" transform="translate(189,189)"/>
<path d="M0 0 C0.99 0 1.98 0 3 0 C3 1.98 3 3.96 3 6 C4.98 6 6.96 6 9 6 C9 6.66 9 7.32 9 8 C6.03 8 3.06 8 0 8 C0 5.36 0 2.72 0 0 Z " fill="#1F1E1F" transform="translate(118,189)"/>
<path d="M0 0 C2.97 0 5.94 0 9 0 C9 0.66 9 1.32 9 2 C8.01 2 7.02 2 6 2 C6 3.98 6 5.96 6 8 C5.01 8 4.02 8 3 8 C3 6.02 3 4.04 3 2 C2.01 2 1.02 2 0 2 C0 1.34 0 0.68 0 0 Z " fill="#1F1F1E" transform="translate(58,189)"/>
<path d="M0 0 C2.64 0 5.28 0 8 0 C8 0.66 8 1.32 8 2 C7.01 2 6.02 2 5 2 C5 3.98 5 5.96 5 8 C4.34 8 3.68 8 3 8 C3 6.02 3 4.04 3 2 C2.01 2 1.02 2 0 2 C0 1.34 0 0.68 0 0 Z " fill="#1F1F1F" transform="translate(139,189)"/>
<path d="M0 0 C0.99 0 1.98 0 3 0 C3 2.64 3 5.28 3 8 C2.01 8 1.02 8 0 8 C0 5.36 0 2.72 0 0 Z " fill="#1F1F1F" transform="translate(149,189)"/>
<path d="M0 0 C0.99 0 1.98 0 3 0 C3 2.64 3 5.28 3 8 C2.01 8 1.02 8 0 8 C0 5.36 0 2.72 0 0 Z " fill="#201F1E" transform="translate(68,189)"/>
<path d="M0 0 C0.66 0 1.32 0 2 0 C2 2.64 2 5.28 2 8 C1.34 8 0.68 8 0 8 C0 5.36 0 2.72 0 0 Z " fill="#1F1F1F" transform="translate(3,189)"/>
</svg>
