<?xml version="1.0" encoding="utf-8"?>
<!-- Generator: $$$/GeneralStr/196=Adobe Illustrator 27.6.0, SVG Export Plug-In . SVG Version: 6.00 Build 0)  -->
<svg version="1.1" id="Capa_1" xmlns="http://www.w3.org/2000/svg" xmlns:xlink="http://www.w3.org/1999/xlink" x="0px" y="0px"
	 viewBox="0 0 240.4 136.4" style="enable-background:new 0 0 240.4 136.4;" xml:space="preserve">
<style type="text/css">
	.st0{fill:#6EBB1F;}
</style>
<g>
	<path class="st0" d="M28.9,60.7c0,8.3,6.7,10.5,11.7,12.1c3.5,1.1,5.6,1.9,5.6,3.7c0,2.7-5.3,3-7.6,3c-3.9,0-7.9-0.8-11.5-2.3
		c-0.1-0.1-0.3-0.1-0.4,0c-0.1,0.1-0.2,0.2-0.3,0.3l-2.3,7.5c-0.2,0.7-0.1,1.3,0.2,1.9c0.3,0.5,0.8,0.9,1.4,1
		c0.1,0,9.6,1.8,15.9,1.7c12.4-0.2,20.1-6,20.1-15.4c0-6.3-6.7-8.7-12.1-10.6c-3.1-1.1-6-2.1-6-3.5c0-2.5,3.9-2.9,6.2-2.9
		c4.2,0,9.6,1.6,9.7,1.6c1.3,0.4,2.6-0.4,3.1-1.6c0,0,2.4-7.1,2.4-7.1c0-0.1,0-0.3,0-0.4c-0.1-0.1-0.2-0.2-0.3-0.3
		c-5-1.5-10.1-2.4-14.1-2.4C40.1,47.2,28.9,51.4,28.9,60.7z"/>
	<path class="st0" d="M93,48.1c-1.3,0-2.5,1-2.8,2.3c0,0-7.8,35.8-7.8,35.8c-0.1,0.7,0,1.4,0.4,1.9c0.4,0.5,0.9,0.7,1.5,0.7h11
		c1.2,0,2.5-1,2.7-2.3c0,0,7.8-35.8,7.8-35.8c0.1-0.7,0-1.4-0.4-1.9c-0.4-0.5-0.9-0.7-1.5-0.7H93z"/>
	<path class="st0" d="M124.6,53.2c0.2-1,0.6-2.5,0.6-2.5c0-0.2,0.1-0.4,0.1-0.5c0-0.5-0.2-0.9-0.4-1.3c-0.4-0.5-0.9-0.7-1.5-0.7h-11
		c-0.3,0-0.5,0.2-0.5,0.5c-0.4,3.8-1.1,7.3-1.8,10.3c0,0-6.1,27.4-6.1,27.4c0,0.2-0.1,0.4-0.1,0.5c0,0.5,0.2,1,0.4,1.3
		c0.4,0.4,0.9,0.7,1.5,0.7h10.9c1.2,0,2.4-1,2.7-2.3c0,0,3.7-16.3,3.7-16.3c0,0,0.4-2.2,0.4-2.2c0.7-4.1,1.5-8.3,6.1-8.3
		c1.1,0,1.8,0.2,2.2,0.5c0.4,0.4,0.4,1.3,0.4,2.5l0,0.6c0,1.5-0.4,3.7-0.4,3.7c0,0-0.8,3.8-0.8,3.8c0,0-3.3,15.4-3.3,15.4
		c-0.2,0.7,0,1.3,0.4,1.8c0.4,0.5,0.9,0.7,1.5,0.7h10.8c1.2,0,2.5-1,2.8-2.3l3.7-16.3c0,0,0.4-2.2,0.4-2.2c0.7-4.1,1.5-8.3,6.1-8.3
		c1.1,0,1.8,0.2,2.2,0.5c0.4,0.4,0.4,1.3,0.4,2.5l0,0.5c0,1.5-0.4,3.7-0.4,3.7c0,0-0.8,3.8-0.8,3.8c0,0-3.3,15.4-3.3,15.4
		c-0.2,0.7,0,1.4,0.4,1.8c0.4,0.5,0.9,0.7,1.5,0.7H164c1.2,0,2.5-1,2.8-2.3c0,0,3.9-18,3.9-18c0.6-2.6,1-6.1,1-9
		c0-10.2-6.5-12.3-12-12.3c-5.3,0-9.3,2.3-13.2,7.4c-1.4-4.8-4.7-7.4-9.6-7.4C130.4,47.1,126.6,50.6,124.6,53.2z"/>
	<path class="st0" d="M198.7,47.2c-18.8,0-25.6,14.3-25.6,23.9c0,9.3,6.8,18.6,22.1,18.6c4.5,0,9.9-0.8,14.8-2.2
		c0.2-0.1,0.3-0.2,0.4-0.4l1.5-7.7c0.1-0.8-0.2-1.2-0.4-1.4c-0.4-0.4-1.2-0.5-2-0.2c-0.1,0-6.3,1.9-10.9,1.8
		c-5.6-0.1-8.1-1.6-9.2-2.8c-1.1-1.2-1-2.4-1-2.4c0-0.1,0-0.1,0-0.2c-0.1-0.3-0.1-0.7,0.1-0.9c0.1-0.2,0.4-0.3,0.6-0.3H217
		c0.2,0,0.5-0.2,0.5-0.4c0.6-2.4,1.1-6,1.1-7.6C218.6,53.7,211.3,47.2,198.7,47.2z M187.4,74.3C187.4,74.3,187.4,74.3,187.4,74.3
		C187.4,74.3,187.4,74.3,187.4,74.3C187.4,74.3,187.4,74.3,187.4,74.3z M189.7,64.2c-0.3,0-0.5-0.1-0.5-0.2c-0.1-0.1,0-0.4,0.1-0.7
		c0,0,0-0.1,0-0.1c0.1-0.2,2.2-5.8,9.6-5.8c5.1,0,6.4,3.6,6.5,6.8C204.4,64.2,189.7,64.2,189.7,64.2z"/>
	<path class="st0" d="M76.1,30.7c-1.3,0-2.5,1-2.8,2.3c0,0-11.7,53.2-11.7,53.2c-0.1,0.7,0,1.4,0.4,1.9c0.4,0.5,0.9,0.7,1.5,0.7h11
		c1.2,0,2.5-1,2.7-2.3c0,0,11.7-53.2,11.7-53.2c0.2-0.7,0-1.4-0.4-1.9c-0.4-0.5-0.9-0.7-1.5-0.7H76.1z"/>
	<circle class="st0" cx="101.3" cy="36.6" r="9.1"/>
	<g>
		<path class="st0" d="M218.9,80.3c0,0.5-0.1,1-0.4,1.5c-0.3,0.4-0.6,0.8-1.1,1.1c-0.4,0.3-0.9,0.4-1.5,0.4c-0.5,0-1-0.1-1.4-0.4
			c-0.4-0.3-0.8-0.6-1.1-1.1c-0.3-0.4-0.4-0.9-0.4-1.5c0-0.5,0.1-1,0.4-1.5c0.3-0.5,0.6-0.8,1.1-1.1c0.4-0.3,0.9-0.4,1.4-0.4
			c0.5,0,1,0.1,1.5,0.4c0.4,0.3,0.8,0.6,1.1,1.1C218.8,79.3,218.9,79.8,218.9,80.3z M218.3,80.3c0-0.6-0.2-1.2-0.7-1.7
			c-0.5-0.5-1-0.7-1.7-0.7c-0.6,0-1.2,0.2-1.7,0.7c-0.5,0.5-0.7,1-0.7,1.7c0,0.6,0.2,1.2,0.7,1.7c0.5,0.5,1,0.7,1.7,0.7
			c0.6,0,1.2-0.2,1.7-0.7C218.1,81.5,218.3,81,218.3,80.3z M214.7,78.8h1.4c0.4,0,0.7,0.1,0.9,0.2c0.2,0.2,0.3,0.4,0.3,0.6
			c0,0.2-0.1,0.4-0.2,0.5c-0.1,0.2-0.3,0.3-0.6,0.3c0.1,0,0.2,0.1,0.3,0.1c0.1,0.1,0.2,0.2,0.2,0.3c0,0,0.2,0.3,0.5,0.9h-0.9
			c-0.3-0.6-0.5-0.9-0.6-1.1c-0.1-0.1-0.2-0.2-0.3-0.2c0,0-0.1,0-0.1,0v1.2h-0.8V78.8z M215.4,80.1h0.3c0.2,0,0.4,0,0.5-0.1
			c0.1-0.1,0.1-0.2,0.1-0.3c0-0.1,0-0.2-0.1-0.3c-0.1-0.1-0.2-0.1-0.5-0.1h-0.4V80.1z"/>
	</g>
	<path class="st0" d="M120.2,3.4C54.6,3.4,1.5,32.4,1.5,68.2S54.6,133,120.2,133c65.6,0,118.7-29,118.7-64.8S185.8,3.4,120.2,3.4z
		 M119.8,123.5c-59.9,0-108.5-24.7-108.5-55.2s48.6-55.2,108.5-55.2c59.9,0,108.5,24.7,108.5,55.2S179.8,123.5,119.8,123.5z"/>
</g>
</svg>
