<?xml version="1.0" encoding="UTF-8"?>
<svg version="1.1" xmlns="http://www.w3.org/2000/svg" width="2009" height="1259">
<path d="M0 0 C662.97 0 1325.94 0 2009 0 C2009 415.47 2009 830.94 2009 1259 C1346.03 1259 683.06 1259 0 1259 C0 843.53 0 428.06 0 0 Z " fill="#FEFEFE" transform="translate(0,0)"/>
<path d="M0 0 C1.00243993 -0.00465992 2.00487985 -0.00931984 3.03769675 -0.01412097 C6.39375191 -0.02606333 9.74940168 -0.01667821 13.10546017 -0.00736332 C15.53703604 -0.01153654 17.96860997 -0.01701398 20.40018028 -0.02368313 C25.68535497 -0.03513562 30.970411 -0.03726687 36.25558567 -0.0311327 C44.11480342 -0.02203539 51.97393916 -0.03007859 59.83315063 -0.04142394 C73.87007854 -0.06108735 87.90696953 -0.06343897 101.94390793 -0.05822874 C114.22723491 -0.05367163 126.51054728 -0.05427067 138.79387379 -0.06006908 C140.44150871 -0.06082595 142.08914364 -0.06158193 143.73677857 -0.06233703 C146.21959254 -0.06348222 148.7024065 -0.0646321 151.18522046 -0.06579627 C174.26653512 -0.07650063 197.34784492 -0.08122705 220.42916107 -0.07332611 C221.29916987 -0.07302894 222.16917868 -0.07273176 223.06555138 -0.07242559 C230.13067384 -0.06997664 237.19579624 -0.06736506 244.26091864 -0.06474145 C271.82703711 -0.05463633 299.39309469 -0.06299971 326.95920467 -0.086236 C357.92921128 -0.11229929 388.89918123 -0.12515926 419.86919922 -0.11804825 C423.1703033 -0.11733218 426.47140739 -0.1166578 429.77251148 -0.1160078 C430.9917381 -0.11575309 430.9917381 -0.11575309 432.23559556 -0.11549323 C444.51212195 -0.11318902 456.78861433 -0.12117292 469.06513309 -0.13429928 C483.02274909 -0.14919648 496.98028528 -0.15007237 510.93789954 -0.13222837 C518.75034733 -0.12265212 526.56260908 -0.12412719 534.37504452 -0.14146306 C540.2044997 -0.15316157 546.03379962 -0.1440053 551.86324488 -0.12664068 C554.22447455 -0.12285837 556.58572659 -0.12586632 558.94693644 -0.13625234 C562.15110621 -0.14934695 565.35428413 -0.13790519 568.55841064 -0.12025452 C569.47978137 -0.12990503 570.4011521 -0.13955554 571.35044315 -0.14949849 C578.05126586 -0.07346473 583.63655767 1.39867013 588.5561285 6.16156673 C588.91835506 6.72875423 589.28058163 7.29594173 589.65378475 7.88031673 C590.03405819 8.44750423 590.41433163 9.01469173 590.8061285 9.59906673 C592.88578154 13.66911731 592.856551 17.61590123 592.89328671 22.13324642 C592.9031435 23.13897198 592.9031435 23.13897198 592.91319942 24.16501522 C592.93286121 26.37740868 592.94457965 28.58973445 592.954566 30.80219173 C592.95864153 31.5608176 592.96271706 32.31944347 592.96691608 33.10105801 C592.9877475 37.11731853 593.00206127 41.13354519 593.01145077 45.14984798 C593.02250317 49.28344699 593.05689744 53.41650592 593.09662247 57.54991436 C593.1228537 60.74139007 593.13114837 63.93273838 593.13473225 67.1243124 C593.13958221 68.64725291 593.1511506 70.17018833 593.16977024 71.69302273 C593.36039998 88.31852947 593.36039998 88.31852947 586.892066 95.36859798 C586.27718319 95.80559017 585.66230038 96.24258236 585.02878475 96.69281673 C584.42679256 97.14269955 583.82480038 97.59258236 583.204566 98.05609798 C573.48237042 103.23007648 563.88449537 102.79963098 553.18648434 102.75212765 C551.28288324 102.75470379 549.37928355 102.75860618 547.47568756 102.76371723 C542.25528195 102.77397875 537.03504569 102.76569608 531.81464827 102.7544204 C526.18064582 102.74556119 520.5466672 102.75407179 514.91266537 102.76062679 C505.15306663 102.7697804 495.39351492 102.76845682 485.6339159 102.76044178 C471.51449283 102.74921084 457.39513677 102.75825046 443.27571953 102.77300359 C420.35592335 102.79677272 397.43614057 102.81018185 374.51633358 102.81415462 C373.48803793 102.81433935 373.48803793 102.81433935 372.43896863 102.8145278 C357.13601169 102.81724327 341.8330552 102.81815672 326.53009805 102.81710414 C320.28202032 102.81667932 314.03394258 102.81637182 307.78586483 102.81610775 C307.1005533 102.81607497 306.41524176 102.8160422 305.70916321 102.81600843 C282.18180493 102.81497734 258.6544966 102.82937079 235.12715203 102.85694081 C221.040873 102.87275838 206.95471718 102.87499083 192.86843682 102.85980678 C183.22039792 102.85035378 173.57243339 102.85507848 163.92440324 102.87102061 C158.35582275 102.87973015 152.78743977 102.88181852 147.21886921 102.86649418 C142.12200239 102.85257957 137.02549348 102.85699373 131.92864621 102.87601519 C130.08423641 102.87963042 128.23979835 102.87646765 126.39541548 102.86586552 C123.88822119 102.85242358 121.38227955 102.86362279 118.87513542 102.88088799 C118.15912091 102.87112673 117.4431064 102.86136548 116.70539448 102.85130844 C109.98609584 102.94719858 105.06405217 105.45941612 99.96628475 109.63031673 C93.32305524 117.74981948 93.09279645 124.6616598 93.21628475 134.88031673 C93.200816 136.1603558 93.18534725 137.44039486 93.16940975 138.75922298 C93.20000034 146.15449718 93.77898691 151.09239332 97.71628475 157.38031673 C98.04435116 158.08736752 98.37241756 158.7944183 98.71042538 159.52289486 C100.1700947 162.21832307 101.84454472 162.42307006 104.71628475 163.38031673 C105.7622657 163.88694743 106.80824664 164.39357812 107.88592398 164.91556126 C111.82765496 166.60931764 115.56768766 166.79736582 119.81455708 166.75390434 C120.60503138 166.75785586 121.39550569 166.76180738 122.20993376 166.76587865 C124.85703847 166.77547943 127.50361218 166.76374406 130.15070248 166.75212765 C132.06836396 166.7547026 133.98602405 166.7586039 135.90368044 166.76371723 C141.17227973 166.77399698 146.44071167 166.7656838 151.7093029 166.7544204 C157.39175817 166.74557286 163.07418961 166.75406833 168.75664425 166.76062679 C178.60358224 166.76978683 188.45047364 166.76845183 198.29741192 166.76044178 C212.54425469 166.74921704 226.79103099 166.75824514 241.03786798 166.77300359 C247.67727855 166.7798298 254.31668983 166.78583838 260.95610142 166.7915802 C261.62074126 166.79215694 262.2853811 166.79273368 262.97016154 166.7933279 C278.78657583 166.80685234 294.60299038 166.81143852 310.41940975 166.81415462 C311.45732698 166.81433935 311.45732698 166.81433935 312.51621223 166.8145278 C327.95903819 166.81724269 343.4018637 166.81815709 358.84468986 166.81710414 C365.14726576 166.81667934 371.44984166 166.81637183 377.75241756 166.81610775 C378.44368531 166.81607497 379.13495306 166.8160422 379.84716831 166.81600843 C395.63241206 166.8153226 411.41764379 166.81793427 427.20288181 166.83226013 C428.19832495 166.83316264 428.19832495 166.83316264 429.21387805 166.83408338 C436.49387194 166.84078354 443.77386442 166.84848635 451.05385649 166.85694081 C465.26590826 166.87275655 479.47783791 166.8749927 493.689891 166.85980678 C503.42672733 166.85035041 513.16348999 166.85508374 522.90031765 166.87102061 C528.51963917 166.87972658 534.13876502 166.88182711 539.75807667 166.86649418 C544.90256855 166.85256871 550.04670606 166.85700752 555.19117863 166.87601519 C557.05181665 166.87962729 558.91248272 166.87647714 560.77309398 166.86586552 C571.88444725 166.80676607 581.40491298 166.94857755 590.09128475 174.75531673 C591.03101131 175.5712933 591.03101131 175.5712933 591.98972225 176.40375423 C596.7920692 181.90146364 597.15373548 186.99908423 597.11742306 193.95606136 C597.12421973 194.91376706 597.1310164 195.87147275 597.13801903 196.85819983 C597.1569933 200.06392502 597.154554 203.26926821 597.15207577 206.4750433 C597.1610532 208.77494962 597.17126141 211.07485142 597.1826086 213.37474728 C597.20911584 219.62075615 597.21614243 225.86664173 597.21805596 232.11270142 C597.22018838 236.01613618 597.22659307 239.9195396 597.23454762 243.82296658 C597.26087218 256.74120089 597.27480729 269.65934764 597.27255619 282.57760754 C597.27243632 283.27353185 597.27231646 283.96945616 597.27219296 284.68646908 C597.27207031 285.38324744 597.27194767 286.08002579 597.27182131 286.79791865 C597.27060252 298.08469914 597.29929802 309.37117911 597.34160805 320.65787271 C597.3847515 332.25884437 597.40486693 343.85965585 597.40282673 355.46070933 C597.40206232 361.96906502 597.41058518 368.47708064 597.44236088 374.98536587 C597.47144049 381.10867779 597.47161738 387.23132542 597.44981098 393.35466099 C597.44667781 395.59838044 597.4537365 397.8421415 597.47189236 400.08578968 C597.62664146 420.53869421 597.62664146 420.53869421 592.38768578 427.69481182 C585.6849939 434.45406345 577.80496801 436.59081263 568.51371878 436.64811501 C567.59453408 436.64371852 566.67534937 436.63932204 565.72831059 436.63479233 C564.2361593 436.63960204 564.2361593 436.63960204 562.71386355 436.64450893 C559.37193029 436.6528273 556.03017538 436.64687812 552.6882391 436.64101315 C550.27147773 436.64403298 547.85471731 436.64792162 545.4379586 436.65260571 C540.17894839 436.66076167 534.91999062 436.66268026 529.66097927 436.65910244 C521.84056421 436.65379607 514.02018686 436.65989007 506.19977591 436.66818537 C491.42014905 436.68343133 476.64053933 436.68512983 461.86090626 436.68266235 C450.44858031 436.68083017 439.03625999 436.6825877 427.62393475 436.68688679 C425.98472793 436.68748919 424.34552111 436.68809038 422.70631429 436.68869039 C420.23623043 436.68959764 417.76614658 436.6905063 415.29606273 436.69142274 C392.32835411 436.6998532 369.36064761 436.70418732 346.39293766 436.70001602 C345.52697063 436.69985965 344.66100359 436.69970327 343.76879513 436.69954216 C339.3796647 436.69873636 334.99053427 436.69789059 330.60140385 436.69702885 C329.29384561 436.69677222 329.29384561 436.69677222 327.95987206 436.69651041 C326.19707169 436.69616375 324.43427132 436.69581522 322.67147095 436.69546482 C295.23994435 436.69010716 267.80844989 436.69803894 240.37692928 436.71649837 C209.56184886 436.73721039 178.74678836 436.74794263 147.93170059 436.74392289 C144.64655582 436.74352754 141.36141106 436.74316599 138.07626629 436.74282551 C136.86292548 436.74268941 136.86292548 436.74268941 135.62507274 436.74255056 C123.40960986 436.74138419 111.19416708 436.74803594 98.97870922 436.75863743 C85.08769397 436.77068074 71.19672301 436.7722584 57.30570711 436.75984726 C49.5312782 436.7532121 41.75695516 436.75486482 33.9825347 436.76843578 C28.17952453 436.77763732 22.37660084 436.7711789 16.57359467 436.75858798 C14.22439965 436.75592724 11.87519233 436.75835047 9.52600934 436.76632384 C6.33579334 436.77640164 3.14613471 436.76803154 -0.0440588 436.75504684 C-0.95856117 436.76235619 -1.87306355 436.76966554 -2.81527811 436.77719638 C-10.41424641 436.71297866 -17.85124337 435.3741943 -23.65871525 430.13031673 C-24.28519962 429.58891048 -24.911684 429.04750423 -25.55715275 428.48969173 C-29.59617422 423.55514061 -30.65924444 418.63269262 -30.70363712 412.37860775 C-30.71210667 411.71743954 -30.72057621 411.05627132 -30.72930241 410.37506771 C-30.75250965 408.21125172 -30.75369864 406.04815347 -30.75246525 403.88422298 C-30.75957618 402.36639281 -30.76727652 400.84856529 -30.77553654 399.33074093 C-30.78894354 396.15765557 -30.79056704 392.98481888 -30.78469181 389.81171322 C-30.77879591 385.76204229 -30.80939871 381.71357033 -30.84980869 377.66413116 C-30.87576047 374.5317975 -30.87855648 371.39974983 -30.87491703 368.26732349 C-30.87660098 366.77509133 -30.88617328 365.28284492 -30.90406132 363.79071903 C-31.06702964 348.5189691 -31.06702964 348.5189691 -25.28371525 342.38031673 C-22.748559 340.32172298 -22.748559 340.32172298 -20.22121525 338.94281673 C-19.38461369 338.4697308 -18.54801212 337.99664486 -17.686059 337.50922298 C-13.01018114 335.31194055 -8.69689139 335.23765597 -3.58861446 335.25282478 C-2.80527804 335.25118095 -2.02194161 335.24953712 -1.21486771 335.24784347 C1.42586663 335.24351099 4.06654624 335.24630905 6.70728207 335.24901485 C8.61339037 335.2473133 10.51949831 335.24516388 12.42560565 335.2426036 C16.5781879 335.23800015 20.73075523 335.23658699 24.88333988 335.23756886 C31.63933176 335.23915931 38.39530879 335.23396448 45.15129757 335.22794247 C54.96061988 335.21982343 64.76993959 335.21488354 74.57926464 335.2116518 C90.08262129 335.20615893 105.58595588 335.18926513 121.08930111 335.17031002 C125.72400022 335.16475338 130.35869936 335.15923264 134.99339852 335.15371786 C136.32961753 335.15212658 137.66583653 335.15053233 139.00205553 335.14893512 C154.7625912 335.1301019 170.52312842 335.1130174 186.28366756 335.09735775 C186.9733406 335.09666883 187.66301363 335.09597991 188.37358584 335.09527011 C210.73329274 335.07301231 233.09299297 335.06117083 255.45270916 335.05369119 C279.09377596 335.04570469 302.73478306 335.02274057 326.3758229 334.98503333 C340.53315086 334.96299933 354.69037893 334.95334647 368.84772317 334.95953367 C378.55049839 334.9627069 388.25318829 334.951387 397.9559371 334.92863926 C403.55510139 334.91596471 409.15407561 334.90980993 414.75324726 334.92105579 C419.88065355 334.9312218 425.00769082 334.92297976 430.1350535 334.90019283 C431.98839136 334.89519747 433.84176234 334.89692846 435.69508411 334.90612551 C446.86178421 334.95717575 457.54687716 334.96196788 466.21628475 326.88031673 C466.84534725 326.31312923 467.47440975 325.74594173 468.12253475 325.16156673 C471.78211469 321.07144798 472.0572803 317.20295643 472.12253475 311.86859798 C472.1339349 311.14093731 472.14533504 310.41327663 472.15708065 309.66356564 C472.17593819 308.12462797 472.18903179 306.58561032 472.1967535 305.0465765 C472.21608497 302.71689313 472.27810944 300.39080657 472.34128475 298.06195736 C472.45058382 290.44559697 472.36403302 284.13844599 467.32028866 277.96698666 C465.38257216 276.05021047 463.61242206 274.5766483 461.15378475 273.38031673 C460.43062069 273.00906673 459.70745663 272.63781673 458.9623785 272.25531673 C454.03183245 270.33454749 449.19084681 270.23566121 443.95781231 270.24723816 C443.17977593 270.24499513 442.40173956 270.24275211 441.60012633 270.24044111 C438.98345632 270.23410585 436.36683616 270.23486506 433.75015926 270.2355566 C431.8589741 270.2324229 429.96778961 270.2288481 428.07660604 270.22486919 C422.87195487 270.21516476 417.66731468 270.21161966 412.46265578 270.20902622 C406.85242515 270.20513417 401.24220424 270.19549675 395.63197994 270.18646908 C385.90725305 270.17152457 376.18252693 270.15998262 366.45779324 270.15052128 C352.38758679 270.13665379 338.31739834 270.11546678 324.24720481 270.09209275 C301.40731233 270.05416504 278.5674171 270.01918611 255.72751522 269.98749447 C255.04397369 269.98654403 254.36043215 269.98559359 253.65617724 269.98461435 C237.71004874 269.96246447 221.76391919 269.94158852 205.81778622 269.92291927 C204.78920748 269.92171365 204.78920748 269.92171365 203.73984938 269.92048366 C200.28217118 269.91643291 196.82449297 269.91239133 193.36681476 269.9083504 C192.68345667 269.90755141 192.00009858 269.90675242 191.29603267 269.90592922 C189.91674026 269.9043169 188.53744785 269.90270608 187.15815544 269.90109675 C163.72070816 269.87370759 140.28328257 269.83875467 116.84585595 269.79685634 C102.81055594 269.77207339 88.77527657 269.75375111 74.73995814 269.74370074 C65.12272241 269.73631285 55.50551438 269.72179127 45.88829699 269.7016365 C40.33790631 269.69023949 34.7875603 269.68211136 29.23715687 269.68264484 C24.155582 269.68307255 19.07410767 269.67435944 13.99255863 269.65839504 C12.15474503 269.65424058 10.31692011 269.65344531 8.47910413 269.65635914 C5.97865764 269.6598367 3.47853631 269.65102786 0.97812176 269.63923645 C0.26679956 269.64317198 -0.44452264 269.64710751 -1.17740005 269.6511623 C-10.51100489 269.5729536 -18.08854169 267.4796322 -25.28371525 261.38031673 C-28.68828132 257.48804423 -30.40486406 253.54096483 -30.41793633 248.36343765 C-30.42462309 247.13398138 -30.42462309 247.13398138 -30.43144494 245.87968761 C-30.43126058 244.97951024 -30.43107622 244.07933287 -30.43088627 243.1518774 C-30.43456296 242.19532385 -30.43823964 241.2387703 -30.44202775 240.25323027 C-30.45308013 237.03362417 -30.45691107 233.81405032 -30.4607172 230.59442806 C-30.46698067 228.29172316 -30.47362737 225.98901927 -30.48062992 223.68631649 C-30.49805032 217.41963143 -30.50859453 211.15295401 -30.51683545 204.88625073 C-30.5219834 200.97230633 -30.52805923 197.0583643 -30.53434658 193.14442158 C-30.55121741 182.30556184 -30.56585218 171.46670505 -30.57309532 160.62783432 C-30.57500518 157.81542936 -30.57692552 155.0030244 -30.57888126 152.19061947 C-30.579365 151.49161999 -30.57984874 150.7926205 -30.58034714 150.07243922 C-30.58864551 138.75186275 -30.61397927 127.43139201 -30.64646194 116.1108617 C-30.67954795 104.48515647 -30.69721282 92.85951041 -30.70073956 81.23375815 C-30.70309184 74.70760263 -30.71207568 68.18161422 -30.73720074 61.65550327 C-30.76045843 55.515133 -30.76472375 49.37504014 -30.75443935 43.23463726 C-30.75394333 40.98201799 -30.76028331 38.72938518 -30.7739954 36.47680759 C-30.79168257 33.39876374 -30.78462317 30.32171883 -30.77146244 27.24367428 C-30.78243169 26.35465052 -30.79340093 25.46562676 -30.80470258 24.54966289 C-30.73496204 17.78215151 -28.94778978 12.67962071 -24.6782465 7.39203548 C-17.23633428 1.16287934 -9.48663268 -0.06954904 0 0 Z " fill="#181617" transform="translate(375.2837152481079,295.61968326568604)"/>
<path d="M0 0 C1.00803958 -0.00495952 2.01607916 -0.00991903 3.05466539 -0.01502883 C6.43578496 -0.02799229 9.81651012 -0.01959764 13.19763947 -0.01129913 C15.64485183 -0.01618764 18.09206189 -0.02237726 20.53926802 -0.02975702 C25.86170214 -0.04275308 31.184021 -0.04640578 36.50646019 -0.04179764 C44.42110552 -0.03496296 52.33566484 -0.04522632 60.25029822 -0.0587552 C75.20765104 -0.08366534 90.16496817 -0.08818425 105.12233841 -0.08628923 C116.67099819 -0.08491633 128.21964557 -0.08873293 139.76830292 -0.09621429 C141.42728828 -0.09726463 143.08627365 -0.09831224 144.74525902 -0.09935716 C145.56876439 -0.0998765 146.39226977 -0.10039585 147.24072986 -0.10093093 C148.06573676 -0.10145107 148.89074367 -0.10197121 149.74075079 -0.10250711 C150.56713304 -0.10303111 151.39351528 -0.1035551 152.24493941 -0.10409497 C175.48736422 -0.11867818 198.72978447 -0.12696072 221.97221375 -0.12234497 C222.84842 -0.12217302 223.72462626 -0.12200106 224.62738423 -0.1218239 C229.06838764 -0.120935 233.50939105 -0.11999019 237.95039445 -0.11902589 C238.83239938 -0.11883485 239.7144043 -0.11864382 240.62313665 -0.118447 C242.40676391 -0.11805991 244.19039118 -0.11766958 245.97401845 -0.11727602 C273.73466867 -0.11130441 301.49523557 -0.12675146 329.255867 -0.15888214 C360.44158003 -0.19494643 391.62724021 -0.21429364 422.81297541 -0.20934343 C426.13712469 -0.20887345 429.46127398 -0.2084632 432.78542328 -0.20809174 C434.01316855 -0.20793816 434.01316855 -0.20793816 435.26571676 -0.20778148 C447.62862281 -0.20658599 459.99147181 -0.21856217 472.35436249 -0.23723602 C486.41082777 -0.25845764 500.46717326 -0.26233849 514.52364385 -0.24293643 C522.39167114 -0.23259849 530.25940637 -0.23610998 538.12740735 -0.25946729 C543.99827403 -0.27535237 549.86890558 -0.2651763 555.73976475 -0.24474627 C558.11784933 -0.24054004 560.4959668 -0.24482782 562.8740167 -0.25834221 C566.10111696 -0.27543664 569.32668451 -0.26185537 572.5537262 -0.24050903 C573.48180015 -0.25278656 574.40987411 -0.26506408 575.36607152 -0.27771366 C582.41996765 -0.17992104 587.22425931 1.94213998 592.30284694 6.86114278 C597.67756485 12.92492834 598.0707345 18.22974495 598.04428864 25.96595001 C598.04881975 26.93646307 598.05335086 27.90697613 598.05801928 28.90689868 C598.07068841 32.16179411 598.06904127 35.41652275 598.06739044 38.67144012 C598.07337412 41.00399745 598.0801793 43.3365528 598.08774567 45.66910553 C598.10542933 52.00799799 598.11010205 58.34683646 598.11137724 64.6857512 C598.11327562 69.97651767 598.12063247 75.26727154 598.12772143 80.55803317 C598.14336537 92.32739437 598.14905854 104.09673218 598.14771073 115.86610285 C598.14759086 116.92506707 598.14759086 116.92506707 598.14746857 118.0054245 C598.14738681 118.71226482 598.14730504 119.41910515 598.14722081 120.14736488 C598.14640806 131.6003839 598.16554338 143.05327135 598.1937453 154.50625233 C598.22248861 166.27214774 598.23628479 178.03797902 598.23455775 189.80391043 C598.23404769 196.4071556 598.23975546 203.01025189 598.26091385 209.61346626 C598.28027174 215.82446183 598.28043717 222.03516614 598.26588058 228.24617195 C598.26378836 230.52458878 598.26851792 232.80302371 598.2806015 235.08140945 C598.29604085 238.19438852 598.28675374 241.30636169 598.27133942 244.41931915 C598.28162654 245.31865152 598.29191367 246.21798388 598.30251253 247.14456874 C598.2285466 253.91497147 596.59447361 259.31209559 591.95264435 264.3713913 C591.33776154 264.80838348 590.72287872 265.24537567 590.0893631 265.69561005 C589.48737091 266.14549286 588.88537872 266.59537567 588.26514435 267.0588913 C578.51395218 272.24830126 568.8767765 271.79967975 558.14662933 271.74819183 C556.2320797 271.75005144 554.31753098 271.75324124 552.40298551 271.75764334 C547.15223189 271.76596745 541.90165332 271.75574901 536.65091574 271.74255466 C530.98415878 271.73163696 525.31741953 271.73811921 519.65065765 271.74268341 C509.83376585 271.74842767 500.01692345 271.74380232 490.200037 271.73266983 C475.99560602 271.7170139 461.79124155 271.72258011 447.58680957 271.73428626 C440.96483269 271.73971132 434.34285528 271.74432285 427.72087765 271.74872017 C426.72659059 271.74938464 426.72659059 271.74938464 425.71221693 271.75006254 C409.94315744 271.76042365 394.17409942 271.76230828 378.40503693 271.7620163 C377.71528348 271.76200868 377.02553004 271.76200107 376.31487498 271.76199323 C360.22047664 271.76176399 344.12608152 271.75853269 328.03168488 271.751091 C326.63332013 271.75045168 325.23495539 271.74981291 323.83659064 271.74917469 C323.14490513 271.74885819 322.45321962 271.7485417 321.74057394 271.74821561 C318.94996974 271.74693974 316.15936553 271.74566828 313.36876132 271.74440666 C311.97600486 271.7437768 310.58324841 271.74314275 309.19049196 271.74250452 C293.45020215 271.73536591 277.70992997 271.73213642 261.96964169 271.74391365 C260.97690851 271.74465627 260.97690851 271.74465627 259.96412011 271.74541389 C252.70374746 271.75097733 245.44337678 271.75783314 238.18300623 271.76564562 C224.01379121 271.78008405 209.8447659 271.77799669 195.67556178 271.75468363 C185.96816093 271.73994271 176.26087136 271.74308077 166.55347497 271.76031254 C160.95220074 271.76965552 155.35123529 271.77078095 149.74998474 271.75008202 C144.62087527 271.73127557 139.49231596 271.73549967 134.36322575 271.75790961 C132.50935712 271.76194045 130.65544659 271.75753813 128.80162466 271.74377565 C113.63254554 271.63460835 113.63254554 271.63460835 100.85794598 279.19709814 C96.44932146 283.89830232 94.52969677 288.42907859 94.51857758 294.91727448 C94.51174957 296.01773102 94.50492157 297.11818756 94.49788666 298.25199127 C94.50043961 299.44953537 94.50299255 300.64707947 94.50562286 301.88091278 C94.4975998 303.82853811 94.48957432 305.77616344 94.48145759 307.72378838 C94.47461174 309.81221485 94.47260306 311.90059756 94.47190285 313.98903465 C94.46995836 318.3471943 94.45188473 322.70519577 94.43114471 327.06330109 C94.38200925 337.88747057 94.35107788 348.71168289 94.32984161 359.53594208 C94.31330903 367.95024161 94.29047191 376.36440515 94.24682087 384.77861363 C94.22507317 389.10815772 94.21698392 393.43744329 94.2192136 397.76703823 C94.21715163 401.09673664 94.19578727 404.42626503 94.17749786 407.75591278 C94.18207504 408.95143265 94.18665222 410.14695251 94.1913681 411.37870026 C94.13143567 418.23226834 93.71868939 423.08954365 88.9799881 428.3948288 C88.33545685 428.94783661 87.6909256 429.50084442 87.0268631 430.07061005 C86.39264435 430.63135223 85.7584256 431.19209442 85.1049881 431.7698288 C79.24878314 435.82790371 74.2768224 436.82719368 67.32227325 436.77129364 C66.50665421 436.7765506 65.69103516 436.78180756 64.85070038 436.78722382 C62.17224342 436.80035559 59.49438792 436.79170846 56.8159256 436.78154755 C54.94176877 436.78357063 53.06761271 436.78648403 51.19345856 436.79024506 C47.27131381 436.79465951 43.34937452 436.78826713 39.42725372 436.77422333 C34.41841274 436.7571557 29.41005493 436.76696288 24.40123177 436.78494072 C20.53200443 436.79582255 16.6628901 436.79231169 12.79365921 436.78455734 C10.94781562 436.78256625 9.10196153 436.78497598 7.25613022 436.791996 C4.6672277 436.79968057 2.07908823 436.78790829 -0.509758 436.77129364 C-1.26121597 436.77736633 -2.01267395 436.78343903 -2.78690338 436.78969574 C-9.96372759 436.70507466 -17.15553481 435.04752713 -22.5981369 430.13311005 C-23.22462128 429.5917038 -23.85110565 429.05029755 -24.4965744 428.49248505 C-29.25490618 422.67913853 -29.66004997 416.96444849 -29.61081696 409.74958038 C-29.61620249 408.79777624 -29.62158803 407.84597209 -29.62713677 406.86532539 C-29.64140958 403.68565543 -29.63431418 400.50640218 -29.62718964 397.32671356 C-29.63289353 395.04312048 -29.63985786 392.75953025 -29.64798737 390.47594452 C-29.66593131 384.27969739 -29.66474805 378.08359179 -29.65904498 371.88732648 C-29.65595504 366.71326551 -29.6620434 361.5392318 -29.66808373 356.36517471 C-29.6829343 343.46106856 -29.67931202 330.55705103 -29.66722042 317.65294641 C-29.65728826 306.45547529 -29.67022972 295.25816942 -29.69415461 284.06072379 C-29.71855778 272.55239447 -29.72775101 261.04416085 -29.72150189 249.53580421 C-29.71813054 243.07903216 -29.72055947 236.62239665 -29.73775291 230.16564369 C-29.75321489 224.0941378 -29.74927441 218.02294755 -29.73044777 211.95145416 C-29.72675992 209.72464242 -29.729876 207.49780732 -29.74033356 205.27101707 C-29.75353123 202.22818862 -29.74200608 199.18640698 -29.72434235 196.14362335 C-29.73394735 195.26510997 -29.74355236 194.38659659 -29.75344843 193.48146158 C-29.67129135 186.58995834 -27.79423125 181.42601347 -23.32860565 176.14092255 C-22.69567596 175.60209442 -22.06274628 175.0632663 -21.4106369 174.50811005 C-20.47284393 173.67666473 -20.47284393 173.67666473 -19.51610565 172.82842255 C-14.15750943 169.45077246 -8.33602369 169.09153799 -2.15889263 169.13257027 C-1.37209467 169.12977259 -0.58529671 169.12697491 0.22534361 169.12409246 C2.85984931 169.1171379 5.49412165 169.12438894 8.12862396 169.13155365 C10.03732215 169.12941481 11.94601952 169.12638918 13.85471505 169.12255323 C19.09854595 169.11451064 24.34230556 169.11882125 29.58613622 169.125072 C35.24202284 169.12960354 40.89789582 169.12256676 46.5537796 169.11676788 C56.35486908 169.10813239 66.1559405 169.10632736 75.95703316 169.10871506 C90.13868188 169.11181118 104.32029064 169.10017918 118.50192931 169.08416526 C125.11132296 169.07671052 131.72071717 169.06980614 138.3301115 169.06298637 C139.32257002 169.06196038 139.32257002 169.06196038 140.3350782 169.06091366 C156.08023756 169.0447392 171.82539944 169.0339015 187.57056427 169.02471161 C188.25938864 169.02430558 188.94821301 169.02389954 189.65791085 169.0234812 C205.72828222 169.01405379 221.79865218 169.00718728 237.86902618 169.00475311 C238.56017697 169.00464655 239.25132776 169.00453999 239.96342251 169.00443019 C243.44855703 169.00389703 246.93369155 169.00338228 250.41882607 169.00286882 C251.10762153 169.00276661 251.79641699 169.0026644 252.50608504 169.00255909 C253.89635227 169.00235353 255.2866195 169.00215098 256.67688674 169.00195143 C280.3040868 168.99847394 303.931233 168.97979108 327.55841225 168.94715631 C341.70442945 168.92823487 355.85033562 168.92228448 369.99636199 168.93297349 C379.68929205 168.93928996 389.38214246 168.93125943 399.07505504 168.91191937 C404.66816836 168.90123127 410.2610883 168.89709644 415.85420036 168.91039085 C420.97592949 168.92244266 426.09729604 168.91608854 431.21899369 168.89519887 C433.07022567 168.89089695 434.92148834 168.89333024 436.7726988 168.90324004 C447.861642 168.95828385 458.49087562 168.93112887 467.2143631 161.07061005 C467.83182404 160.53822723 468.44928497 160.00584442 469.08545685 159.4573288 C474.55488299 152.75001868 474.27658818 145.84614498 474.22290802 137.47710419 C474.21439503 135.45320138 474.24321789 133.43212594 474.27490997 131.40850067 C474.27066535 122.87256643 473.73537561 117.07980671 468.10108185 110.3948288 C467.56096466 109.95783661 467.02084747 109.52084442 466.4643631 109.07061005 C465.93198029 108.62072723 465.39959747 108.17084442 464.85108185 107.7073288 C459.18239126 104.08833424 454.36110117 102.9411368 447.68138409 103.00952244 C446.49612202 103.00359516 446.49612202 103.00359516 445.28691527 102.99754813 C442.64081981 102.98794737 439.99525555 102.99968271 437.3491745 103.01129913 C435.43222571 103.00872418 433.51527831 103.00482287 431.59833461 102.99970955 C426.33166592 102.98942978 421.06516463 102.99774301 415.79850399 103.00900638 C410.11807461 103.01785397 404.43766905 103.00935841 398.7572403 103.00279999 C388.91357849 102.99363982 379.06996329 102.99497508 369.22630119 103.002985 C354.98310687 103.01421035 340.73997904 103.00518102 326.49679051 102.9904232 C319.85876083 102.98359696 313.22073046 102.97758837 306.58269978 102.97184658 C305.58594065 102.97098147 305.58594065 102.97098147 304.56904498 102.97009889 C288.75558835 102.95657427 272.94213145 102.95198827 257.12866974 102.94927216 C256.43685568 102.94914901 255.74504162 102.94902586 255.0322635 102.94889898 C239.59360689 102.94618431 224.15495072 102.94526956 208.71629391 102.94632264 C202.41625252 102.94674744 196.11621113 102.94705495 189.81616974 102.94731903 C188.77969271 102.94736819 188.77969271 102.94736819 187.72227676 102.94741835 C171.94198053 102.94810425 156.16169633 102.94549033 140.38140583 102.93116665 C139.71788367 102.93056498 139.0543615 102.92996331 138.3707326 102.9293434 C131.09161394 102.922643 123.81249669 102.91494016 116.53337985 102.90648597 C102.3259374 102.89067383 88.11861709 102.88843033 73.91117332 102.90362 C64.17619863 102.91307969 54.4412976 102.90833787 44.70633157 102.89240617 C39.08891141 102.88370414 33.47168692 102.88159024 27.85427666 102.8969326 C22.71034933 102.91086972 17.5667762 102.90640455 12.42286811 102.88741159 C10.56355818 102.88380289 8.70422014 102.88693931 6.84493705 102.89756126 C-3.97229922 102.95518787 -13.46521198 102.69366962 -22.5981369 96.19561005 C-29.97816993 88.2884318 -29.80869266 79.44623312 -29.71923065 69.09404755 C-29.71938594 67.62152281 -29.72087985 66.14899768 -29.72364044 64.67647552 C-29.72501784 61.60519372 -29.71257535 58.53438266 -29.68968964 55.46318817 C-29.66125615 51.54150745 -29.66406456 47.62060465 -29.67677975 43.69886589 C-29.68375757 40.66351001 -29.67592463 37.62833169 -29.66352272 34.5929985 C-29.65903214 33.14742592 -29.65865032 31.70183412 -29.66258812 30.25625992 C-29.68539037 14.52860201 -29.68539037 14.52860201 -24.46141815 8.27373505 C-23.82591034 7.7323288 -23.19040253 7.19092255 -22.5356369 6.63311005 C-21.60171112 5.80553192 -21.60171112 5.80553192 -20.64891815 4.96123505 C-13.94547718 0.60022031 -7.78145141 -0.05409525 0 0 Z " fill="#181617" transform="translate(1066.2231369018555,295.6168899536133)"/>
<path d="M0 0 C6.26477316 4.0957071 10.60871998 10.06313488 15 16 C16.51721225 17.98194393 18.03837768 19.96086501 19.5625 21.9375 C19.97612793 22.47584473 20.38975586 23.01418945 20.81591797 23.56884766 C25.12599145 29.17723259 29.47369996 34.75620906 33.81982422 40.33666992 C37.29114874 44.79608858 40.74887941 49.26532654 44.1875 53.75 C48.05337439 58.78639283 51.96557075 63.78395785 55.89526367 68.77050781 C59.36829557 73.18261034 62.79855214 77.62588751 66.21289062 82.08349609 C69.90563017 86.89672001 73.65489485 91.66462688 77.421875 96.41992188 C79.37974012 98.89892463 81.24649658 101.36974486 83 104 C83.00142502 102.78335159 83.00285004 101.56670319 83.00431824 100.31318665 C83.02098347 88.85068358 83.06374281 77.38853574 83.13209057 65.92622089 C83.16638987 60.03320024 83.19147518 54.14043965 83.19555664 48.24731445 C83.19983319 42.56069393 83.22824321 36.87466035 83.27343178 31.18822289 C83.28642725 29.0181336 83.29070725 26.84797414 83.28615379 24.67785072 C83.28126255 21.63916166 83.30727578 18.6021978 83.34057617 15.5637207 C83.33195053 14.66532471 83.32332489 13.76692871 83.31443787 12.84130859 C83.39741933 8.32808475 83.52798863 6.57798692 86.47871399 2.96476746 C87.31073837 2.3163942 88.14276276 1.66802094 89 1 C89.33 0.67 89.66 0.34 90 0 C91.92578125 -0.0546875 91.92578125 -0.0546875 94.3125 0.125 C95.48232422 0.19074219 95.48232422 0.19074219 96.67578125 0.2578125 C100.25864241 1.40191943 101.0861048 2.72104094 103 6 C103.61436723 10.16081598 103.55633225 14.29824939 103.53344727 18.49780273 C103.54637062 20.40101791 103.54637062 20.40101791 103.55955505 22.34268188 C103.58202862 25.81595544 103.57911427 29.28877288 103.57023358 32.7620914 C103.56511771 35.66467148 103.57242114 38.56716629 103.57970566 41.46973759 C103.59669839 48.31884967 103.59314553 55.16773892 103.57641602 62.0168457 C103.55949594 69.07605798 103.57532844 76.13465184 103.6076389 83.19379658 C103.63435448 89.2610787 103.64160553 95.32816855 103.63312382 101.39550358 C103.62820012 105.01640203 103.63037929 108.63692848 103.65091133 112.25778008 C103.67271725 116.29651226 103.65384802 120.33407581 103.63110352 124.37280273 C103.64864182 126.16608253 103.64864182 126.16608253 103.66653442 127.99559021 C103.56293282 137.02842945 103.56293282 137.02842945 100.59434509 140.73060608 C96.96573568 143.90471894 96.96573568 143.90471894 93.75 144 C89.38520613 143.67534591 87.48206259 141.98009623 84.5625 138.8125 C83.0108013 136.89963005 81.49121377 134.96038817 80 133 C79.24203125 132.03449219 78.4840625 131.06898438 77.703125 130.07421875 C76.05471267 127.95444669 74.42024987 125.82899966 72.80078125 123.6875 C69.57536581 119.42597107 66.28666644 115.21435455 63 111 C58.92057189 105.7628372 54.85184449 100.51814184 50.8125 95.25 C46.94662561 90.21360717 43.03442925 85.21604215 39.10473633 80.22949219 C35.62880163 75.81370197 32.19616939 71.36634338 28.77832031 66.90551758 C25.20210192 62.24523139 21.57559961 57.62546163 17.9296875 53.01953125 C15.52379096 49.97206229 13.16135067 46.89706152 10.83496094 43.78833008 C10.30191345 43.07638992 9.76886597 42.36444977 9.21966553 41.63093567 C8.8171759 41.0927269 8.41468628 40.55451813 8 40 C7.99635437 41.20412033 7.99270874 42.40824066 7.98895264 43.64884949 C7.95201998 54.99360183 7.89426607 66.33808231 7.81609726 77.68262768 C7.77657917 83.51507383 7.74441183 89.34736801 7.72900391 95.17993164 C7.71386603 100.80814194 7.6794711 106.43593458 7.63169098 112.06395912 C7.61684763 114.21171757 7.6089573 116.35953563 7.60811615 118.5073452 C7.60575368 121.51470912 7.57873137 124.52091205 7.54589844 127.52807617 C7.5509288 128.41712143 7.55595917 129.30616669 7.56114197 130.22215271 C7.49150296 134.34181778 7.3349482 136.46848564 5.09088135 140.02949524 C1.8671119 143.06766526 -0.51696647 143.39586849 -4.9609375 143.35546875 C-8.41344041 142.75359564 -9.94190152 140.68176469 -12 138 C-13.00183531 134.99449406 -13.13036627 132.99231226 -13.14044189 129.85147095 C-13.14615204 128.78597519 -13.15186218 127.72047943 -13.15774536 126.62269592 C-13.15886322 125.45379318 -13.15998108 124.28489044 -13.16113281 123.08056641 C-13.16609772 121.84945633 -13.17106262 120.61834625 -13.17617798 119.34992981 C-13.18828737 115.97176444 -13.19574483 112.59366098 -13.20018864 109.21548128 C-13.20312073 107.10463348 -13.20722578 104.99379109 -13.21169281 102.88294601 C-13.22536448 96.27762427 -13.235033 89.67231492 -13.2388947 83.06698 C-13.24337613 75.44371375 -13.26092917 67.82062674 -13.2898953 60.19741499 C-13.3115129 54.30347852 -13.321599 48.40959247 -13.32293582 42.51561677 C-13.32398371 38.99595331 -13.32988804 35.47645841 -13.34775543 31.9568367 C-13.36729978 28.03057318 -13.36294681 24.10453369 -13.35644531 20.17822266 C-13.3656601 19.01336838 -13.37487488 17.8485141 -13.3843689 16.64836121 C-13.37879974 15.5772258 -13.37323059 14.50609039 -13.36749268 13.40249634 C-13.36895924 12.47446009 -13.3704258 11.54642384 -13.3719368 10.59026527 C-12.8034371 6.63108446 -10.98138433 3.98138433 -8.1875 1.1875 C-5.03743825 -0.52253352 -3.55747097 -0.68412903 0 0 Z " fill="#77B440" transform="translate(982,818)"/>
<path d="M0 0 C5.68961184 0.55963395 8.54951829 3.88061582 12.09375 8.07421875 C12.8259375 9.06035156 13.558125 10.04648437 14.3125 11.0625 C15.18017714 12.2180584 16.04871676 13.37296954 16.91796875 14.52734375 C17.38122559 15.14593262 17.84448242 15.76452148 18.32177734 16.40185547 C21.04706669 20.00909237 23.84153046 23.562603 26.625 27.125 C31.21802112 33.01867214 35.78148645 38.93353806 40.3125 44.875 C50.68584106 58.47349271 61.23176381 71.93757885 71.8125 85.375 C73.81309076 87.91620241 75.81296049 90.45797037 77.8125 93 C78.49832153 93.87060059 78.49832153 93.87060059 79.19799805 94.75878906 C80.40623458 96.29485576 81.6095759 97.83476948 82.8125 99.375 C83.410625 100.12523437 84.00875 100.87546875 84.625 101.6484375 C85.8125 103.375 85.8125 103.375 85.8125 105.375 C86.4725 105.375 87.1325 105.375 87.8125 105.375 C87.79917633 104.13329544 87.78585266 102.89159088 87.77212524 101.61225891 C87.65053426 89.91459872 87.56057053 78.21706661 87.50162697 66.51891804 C87.47030457 60.50461315 87.4278136 54.49081809 87.35986328 48.47680664 C87.29470549 42.67368238 87.25880081 36.87104871 87.24323654 31.0675869 C87.23214394 28.85272687 87.21048248 26.63789392 87.17811966 24.42324257 C87.13460523 21.32234151 87.12856398 18.22347134 87.13134766 15.12231445 C87.109776 14.20521698 87.08820435 13.28811951 87.065979 12.3432312 C87.12488086 6.28529394 87.12488086 6.28529394 89.08857346 3.68568993 C91.56365067 1.52123438 93.59332323 0.42066183 96.8125 -0.25 C101.01227529 0.62495319 102.75118007 2.38487356 105.8125 5.375 C107.07600634 7.90201268 106.9440159 9.64970902 106.95294189 12.47920227 C106.95865204 13.56015167 106.96436218 14.64110107 106.97024536 15.75480652 C106.97192215 17.54160576 106.97192215 17.54160576 106.97363281 19.36450195 C106.98108017 21.24020874 106.98108017 21.24020874 106.98867798 23.15380859 C107.00080067 26.58988232 107.00824857 30.02589508 107.01268864 33.46198297 C107.01561848 35.60850491 107.01972315 37.7550215 107.02419281 39.90154076 C107.03787057 46.61685674 107.04753552 53.33216051 107.0513947 60.04748946 C107.05587451 67.80037566 107.07341752 75.55308547 107.1023953 83.30591804 C107.12401279 89.29749803 107.13409904 95.2890284 107.13543582 101.28064698 C107.13648393 104.85956898 107.14239254 108.43832524 107.16025543 112.01720619 C107.17979932 116.01068442 107.17544691 120.00379371 107.16894531 123.99731445 C107.1781601 125.18244125 107.18737488 126.36756805 107.1968689 127.58860779 C107.19129974 128.67801666 107.18573059 129.76742554 107.17999268 130.8898468 C107.18219252 132.30597244 107.18219252 132.30597244 107.1844368 133.75070667 C106.73303294 136.93569976 105.69995622 138.78717851 103.8125 141.375 C100.64431244 143.48712504 98.68030748 143.70656464 94.9453125 143.93359375 C85.66785619 141.50378376 76.08856247 124.15825244 70.42016602 116.51708984 C66.9338454 111.83045102 63.3535518 107.23472363 59.6875 102.6875 C55.63947767 97.66649544 51.65246706 92.61055586 47.73291016 87.48828125 C44.19857931 82.87042277 40.63453083 78.27625002 37.0625 73.6875 C36.47621826 72.93388184 35.88993652 72.18026367 35.28588867 71.40380859 C32.18780356 67.42253991 29.08606325 63.44416377 25.98046875 59.46875 C25.3555957 58.66783936 24.73072266 57.86692871 24.08691406 57.04174805 C22.89865785 55.51884073 21.70927947 53.99680805 20.51855469 52.47583008 C19.97489258 51.77868896 19.43123047 51.08154785 18.87109375 50.36328125 C18.39986084 49.76040283 17.92862793 49.15752441 17.44311523 48.53637695 C16.00043544 46.62410801 14.60069805 44.69047138 13.21058655 42.73991394 C12.7612378 42.10972949 12.31188906 41.47954504 11.84892368 40.83026409 C11.50690387 40.35002694 11.16488405 39.86978979 10.8125 39.375 C10.81107498 40.60417648 10.80964996 41.83335297 10.80818176 43.09977722 C10.79151692 54.68000764 10.74875875 66.25988642 10.68040943 77.83993053 C10.64610936 83.79348482 10.6210247 89.74678167 10.61694336 95.70043945 C10.61266698 101.44541209 10.58425834 107.18980368 10.53906822 112.93459511 C10.52607221 115.12701344 10.52179294 117.31950123 10.52634621 119.51195335 C10.53123705 122.58176903 10.50522582 125.64987661 10.47192383 128.71948242 C10.48054947 129.62722916 10.48917511 130.53497589 10.49806213 131.4702301 C10.41624256 135.96529407 10.26722599 137.79739764 7.40019226 141.43916321 C4.15372767 143.86782356 2.6432885 144.05170798 -1.25390625 143.80859375 C-4.29368646 143.12694607 -6.05446044 141.57267713 -8.1875 139.375 C-9.4588583 136.83228339 -9.32483134 135.04252077 -9.34140015 132.19487 C-9.35000061 131.09709229 -9.35860107 129.99931458 -9.36746216 128.86827087 C-9.37172211 127.6583699 -9.37598206 126.44846893 -9.38037109 125.2019043 C-9.38854858 123.93192596 -9.39672607 122.66194763 -9.40515137 121.35348511 C-9.43137418 117.13541792 -9.44667903 112.9173408 -9.4609375 108.69921875 C-9.46629703 107.24751084 -9.47167454 105.795803 -9.47706985 104.34409523 C-9.49869877 98.3057259 -9.51743577 92.26735926 -9.52869225 86.22896099 C-9.5449336 77.57323479 -9.57811508 68.91795734 -9.63509309 60.26240033 C-9.67378479 54.17740644 -9.69332397 48.09253261 -9.69861281 42.00741893 C-9.70226736 38.37247061 -9.71429828 34.73800088 -9.74671555 31.10318565 C-9.78236977 27.04727843 -9.77842741 22.99233639 -9.77099609 18.9362793 C-9.78740143 17.73245102 -9.80380676 16.52862274 -9.82070923 15.28831482 C-9.75260694 6.23169974 -9.75260694 6.23169974 -6.71353149 3.15242004 C-5.8799411 2.56587143 -5.04635071 1.97932281 -4.1875 1.375 C-3.1875 0.375 -3.1875 0.375 0 0 Z " fill="#76B440" transform="translate(1134.1875,817.625)"/>
<path d="M0 0 C0.93457031 0.28875 1.86914062 0.5775 2.83203125 0.875 C18.79117214 6.50468119 32.60873414 20.75818472 40.4140625 35.49609375 C42.83948541 40.85472515 44.60976493 46.28982543 46 52 C46.28810547 53.13115234 46.28810547 53.13115234 46.58203125 54.28515625 C49.57236181 73.7083314 45.92226548 92.68367188 35 109 C24.04307435 123.71370067 8.14374837 135.29980547 -10.1328125 138.55859375 C-31.25786109 140.96983667 -50.94288829 138.41963032 -68.25 125.25 C-84.08694615 111.69772805 -94.09920746 95.28248535 -96.26611328 74.44042969 C-97.58010492 55.15147168 -92.77335682 37.32305806 -80.125 22.375 C-58.74944545 -1.51532568 -30.46634252 -9.65270258 0 0 Z M-49 21 C-49.93714844 21.58136719 -50.87429688 22.16273438 -51.83984375 22.76171875 C-63.77926066 30.83597463 -72.1769829 41.02160015 -75.80859375 55.14453125 C-76.35889239 58.10096325 -76.73454734 61.00536214 -77 64 C-77.0825 64.80695313 -77.165 65.61390625 -77.25 66.4453125 C-77.90354184 78.82176119 -73.32908893 90.27083579 -66 100 C-65.52691406 100.65484375 -65.05382812 101.3096875 -64.56640625 101.984375 C-58.58831852 109.6390369 -49.99049097 114.63653618 -41 118 C-40.09636719 118.35707031 -39.19273437 118.71414063 -38.26171875 119.08203125 C-25.68717915 122.62097353 -10.39392256 120.18636289 1.09375 114.45703125 C14.58718314 106.35726438 23.00856568 95.16745042 27 80 C30.00091269 65.07599797 28.20729014 51.44376682 19.6875 38.625 C10.99909798 27.20274734 0.26005287 19.02759081 -14 16 C-26.04358139 15.02195423 -38.46213492 14.38769077 -49 21 Z " fill="#77B441" transform="translate(886,822)"/>
<path d="M0 0 C0.86062042 -0.00686325 1.72124084 -0.0137265 2.60794067 -0.02079773 C5.45176713 -0.03909343 8.29504335 -0.03522424 11.13891602 -0.02954102 C13.11662475 -0.03410156 15.0943319 -0.03940676 17.07203674 -0.04542542 C21.21719805 -0.05436202 25.36216676 -0.0519272 29.50732422 -0.04199219 C34.81827922 -0.03050322 40.12856928 -0.05071022 45.43943691 -0.07990932 C49.52383139 -0.09825939 53.60806618 -0.09798121 57.69249153 -0.0922718 C59.65050247 -0.09211844 61.60852413 -0.09817555 63.5664959 -0.11056328 C66.30517097 -0.12544849 69.04261339 -0.11481451 71.78125 -0.09765625 C72.99318275 -0.1121582 72.99318275 -0.1121582 74.229599 -0.12695312 C78.01374663 -0.07733154 80.21546023 0.25058982 83.43495178 2.31040955 C86.53375896 5.52160105 86.85146649 7.89068771 86.81079102 12.36499023 C86.2089179 15.81749314 84.13708695 17.34595425 81.45532227 19.40405273 C77.89809364 20.58979561 75.07755682 20.52395466 71.32177734 20.51757812 C70.59957504 20.51772415 69.87737274 20.51787018 69.13328552 20.51802063 C66.74711093 20.51732419 64.36101447 20.50954433 61.97485352 20.50170898 C60.32004336 20.49984385 58.66523266 20.4984204 57.01042175 20.49742126 C52.65551224 20.49360359 48.30063608 20.48377968 43.94573975 20.47271729 C38.72028544 20.46068832 33.49481997 20.45609735 28.26935577 20.45026398 C20.3313214 20.44056754 12.39336023 20.42140574 4.45532227 20.40405273 C4.45532227 34.26405273 4.45532227 48.12405273 4.45532227 62.40405273 C8.35602539 62.34604492 12.25672852 62.28803711 16.27563477 62.22827148 C20.05849169 62.18926456 23.84132612 62.15891186 27.62426758 62.12939453 C30.25099739 62.10426844 32.87765741 62.07016188 35.50415039 62.02685547 C39.28232046 61.96612467 43.05956523 61.93782258 46.83813477 61.91577148 C48.01022491 61.88996506 49.18231506 61.86415863 50.3899231 61.83757019 C59.49775944 61.83444522 59.49775944 61.83444522 63.17358398 64.71972656 C66.05287538 68.10703759 66.61097006 69.96809047 66.45532227 74.40405273 C63.5186134 79.87240716 63.5186134 79.87240716 60.45532227 81.40405273 C58.66800302 81.49487653 56.87726738 81.52159073 55.08764648 81.51757812 C53.96663544 81.51750259 52.84562439 81.51742706 51.69064331 81.51734924 C50.47603424 81.51218796 49.26142517 81.50702667 48.01000977 81.50170898 C46.76986115 81.50029404 45.52971252 81.49887909 44.25198364 81.49742126 C40.95414093 81.4927637 37.6563468 81.48377713 34.35852051 81.47271729 C30.99365851 81.46249005 27.62878919 81.45786607 24.26391602 81.45288086 C17.66101256 81.4426849 11.05822997 81.4231118 4.45532227 81.40405273 C4.45532227 95.59405273 4.45532227 109.78405273 4.45532227 124.40405273 C9.88356445 124.35764648 15.31180664 124.31124023 20.90454102 124.26342773 C24.34531537 124.24298734 27.78601477 124.22373151 31.22680664 124.20874023 C36.68717004 124.18483705 42.14726492 124.15657254 47.60742188 124.10229492 C52.01001234 124.05880456 56.41231482 124.03490881 60.81510353 124.02454376 C62.49404242 124.01715809 64.1729657 124.00273543 65.85178185 123.98113251 C68.20524415 123.95205518 70.55751951 123.9480984 72.91113281 123.94995117 C73.60381256 123.93557007 74.29649231 123.92118896 75.01016235 123.90637207 C79.75183269 123.94671068 82.12296605 125.06272334 85.45532227 128.40405273 C87.0343028 131.5620138 87.27460397 135.01075909 86.45532227 138.40405273 C84.46805617 141.00850333 82.84304419 143.06272074 79.55662537 143.87106705 C77.2294721 144.05506139 74.94787327 144.07966035 72.61352539 144.05102539 C71.29311501 144.06416779 71.29311501 144.06416779 69.94602966 144.07757568 C67.04237266 144.09954447 64.14024418 144.08502599 61.23657227 144.06811523 C59.21545113 144.07148409 57.19433198 144.0763373 55.17321777 144.08261108 C50.93974497 144.089979 46.70680006 144.07927931 42.47338867 144.0559082 C37.04906445 144.02742071 31.62597715 144.04382508 26.2016983 144.07377052 C22.02889703 144.09184554 17.85638862 144.08608448 13.68357849 144.07313156 C11.68370924 144.06979812 9.68381333 144.07388243 7.68397522 144.08552933 C4.88764103 144.09824127 2.09330465 144.07885657 -0.70288086 144.05102539 C-1.52796646 144.06114655 -2.35305206 144.0712677 -3.20314026 144.08169556 C-7.45671319 144.00333563 -9.07650792 143.77245813 -12.53479004 141.05111694 C-15.33353332 137.3651134 -15.67069593 134.75177656 -15.68511963 130.25552368 C-15.69082977 129.19002792 -15.69653992 128.12453217 -15.7024231 127.02674866 C-15.70354095 125.85784592 -15.70465881 124.68894318 -15.70581055 123.48461914 C-15.71077545 122.25350906 -15.71574036 121.02239899 -15.72085571 119.75398254 C-15.7329651 116.37581718 -15.74042256 112.99771372 -15.74486637 109.61953402 C-15.74779847 107.50868621 -15.75190352 105.39784382 -15.75637054 103.28699875 C-15.77004222 96.681677 -15.77971074 90.07636765 -15.78357244 83.47103274 C-15.78805386 75.84776649 -15.80560691 68.22467948 -15.83457303 60.60146773 C-15.85619064 54.70753125 -15.86627674 48.81364521 -15.86761355 42.91966951 C-15.86866145 39.40000604 -15.87456578 35.88051114 -15.89243317 32.36088943 C-15.91197752 28.43462591 -15.90762454 24.50858642 -15.90112305 20.58227539 C-15.91033783 19.41742111 -15.91955261 18.25256683 -15.92904663 17.05241394 C-15.92347748 15.98127853 -15.91790833 14.91014313 -15.91217041 13.80654907 C-15.91363697 12.87851282 -15.91510353 11.95047657 -15.91661453 10.99431801 C-15.35743987 7.1000792 -13.52818936 4.46714493 -10.89122009 1.61680603 C-7.36523251 -0.20551482 -3.87795591 -0.02155264 0 0 Z " fill="#79B543" transform="translate(1295.544677734375,817.595947265625)"/>
<path d="M0 0 C12.86511222 -0.27858003 25.72950218 -0.49152794 38.5970211 -0.62174606 C44.5727664 -0.68426054 50.54644203 -0.76898116 56.52099609 -0.90527344 C62.29187827 -1.03608899 68.06077604 -1.10749644 73.83302689 -1.13852692 C76.03003808 -1.16062557 78.22694582 -1.20378418 80.42310715 -1.26876068 C98.53673955 -1.78314708 98.53673955 -1.78314708 103.52500916 2.60687256 C106.15385574 5.46141201 108.08838017 8.62584913 110 12 C111.02669066 13.38596923 112.06941922 14.76062056 113.14453125 16.109375 C114.03620281 17.32119201 114.92554593 18.53472591 115.8125 19.75 C120.14140576 25.58878909 124.57122752 31.33460678 129.125 37 C129.95994995 38.0513916 129.95994995 38.0513916 130.81176758 39.12402344 C132.16081942 40.78858779 133.57468942 42.40024842 135 44 C135.66 44 136.32 44 137 44 C138.4117984 42.55456865 138.4117984 42.55456865 139.8359375 40.625 C140.39974121 39.89474609 140.96354492 39.16449219 141.54443359 38.41210938 C142.14852051 37.61611328 142.75260742 36.82011719 143.375 36 C143.99842285 35.18853516 144.6218457 34.37707031 145.26416016 33.54101562 C148.82896068 28.88930841 152.35738916 24.21040149 155.86523438 19.515625 C156.8667536 18.17853853 157.87322837 16.84514874 158.88476562 15.515625 C161.05724243 12.65388848 163.11129872 9.82363433 165.03125 6.78125 C166.875 4 166.875 4 171 0 C175.62 0 180.24 0 185 0 C185 25.08 185 50.16 185 76 C179.72 76 174.44 76 169 76 C168.67 59.17 168.34 42.34 168 25 C166.02 27.97 164.04 30.94 162 34 C160.76417093 35.69883279 159.51114404 37.38549535 158.23046875 39.05078125 C157.57344971 39.90905518 156.91643066 40.7673291 156.23950195 41.65161133 C155.22376099 42.96875122 155.22376099 42.96875122 154.1875 44.3125 C148.55093096 51.59080091 148.55093096 51.59080091 143.1328125 59.03125 C142.5291687 59.881427 142.5291687 59.881427 141.91333008 60.7487793 C140.89505397 62.19523272 139.89400134 63.65376994 138.89453125 65.11328125 C137 67 137 67 134.55859375 67.65234375 C130.83040837 66.70179878 129.35259303 64.2638577 127.25 61.25 C126.8173584 60.65799805 126.3847168 60.06599609 125.93896484 59.45605469 C125.04466509 58.23165744 124.15649656 57.00275918 123.27441406 55.76953125 C121.44155724 53.22459902 119.52873895 50.74216735 117.625 48.25 C111.95765471 40.59142528 106.49432838 32.78363187 101 25 C100.67 41.83 100.34 58.66 100 76 C95.38 76 90.76 76 86 76 C86 55.54 86 35.08 86 14 C75.11 14 64.22 14 53 14 C53 34.79 53 55.58 53 77 C47.06 77 41.12 77 35 77 C35 56.21 35 35.42 35 14 C23.45 14 11.9 14 0 14 C0 9.38 0 4.76 0 0 Z " fill="#1B191A" transform="translate(1466,653)"/>
<path d="M0 0 C2.75974725 2.60154518 3.76697396 4.45217604 4.0625 8.25 C3.70581174 11.91074798 3.12323232 12.70180772 0.625 15.6875 C-3.56244001 18.04769346 -5.07776038 18.55642419 -9.8125 17.625 C-12.630985 16.02930388 -15.28344437 14.26718799 -17.9609375 12.4453125 C-30.0048442 4.75701042 -45.0434821 3.59492561 -58.93554688 5.99121094 C-70.19716375 8.88173266 -81.31487859 17.01846882 -87.8125 26.625 C-95.84435637 40.97912083 -98.23711648 54.82302497 -95.12890625 71.234375 C-94.2118691 73.8675273 -93.16738833 76.19036989 -91.8125 78.625 C-91.34199219 79.5015625 -90.87148438 80.378125 -90.38671875 81.28125 C-82.50671983 95.12724293 -71.92646022 102.25367993 -56.9609375 107.2421875 C-41.74736469 109.95296956 -27.86578535 106.42720802 -14.8125 98.625 C-11.15762186 96.44613034 -9.51008104 95.625 -5.25 95.625 C-1.07994607 96.8381066 0.62552834 98.13140228 3.1875 101.625 C3.97017842 106.3210705 2.88198151 108.81515578 0.1875 112.625 C-17.06765118 126.03328387 -35.50209507 128.78870812 -56.8125 127.625 C-64.279488 126.57808209 -71.13776608 124.09254794 -77.8125 120.625 C-78.60140625 120.21636719 -79.3903125 119.80773437 -80.203125 119.38671875 C-90.14615582 113.83675658 -98.53083907 106.11555893 -104.8125 96.625 C-105.23917969 96.0371875 -105.66585937 95.449375 -106.10546875 94.84375 C-115.84297353 80.7018969 -119.15698482 61.16142369 -116.44189453 44.32714844 C-113.25608702 28.68652427 -106.22365449 15.87400665 -94.8125 4.625 C-94.20019531 4.00238281 -93.58789062 3.37976563 -92.95703125 2.73828125 C-67.16743846 -21.73158824 -27.46373757 -20.70564508 0 0 Z " fill="#78B441" transform="translate(760.8125,833.375)"/>
<path d="M0 0 C2.77543374 2.61078936 3.74722692 4.43312656 4 8.25 C3.66546293 11.56702014 3.08046265 12.78890094 1.1875 15.6875 C-1.88966751 17.67483735 -3.97429971 18.41324405 -7.65625 18.1796875 C-11.0598468 17.30412455 -13.50108786 15.35024551 -16.3046875 13.2890625 C-29.15309736 4.76348212 -44.72738047 3.63332041 -59.6171875 6.30859375 C-66.0575079 8.3243304 -71.48532696 11.52400412 -76.8125 15.625 C-77.42738281 16.07617188 -78.04226563 16.52734375 -78.67578125 16.9921875 C-87.15063343 23.64428876 -93.84313793 33.986511 -95.8125 44.625 C-96.18201268 48.35771641 -96.29020262 52.06277149 -96.3125 55.8125 C-96.31886475 56.72676758 -96.32522949 57.64103516 -96.33178711 58.58300781 C-96.08630404 71.74659288 -91.15920309 83.41238076 -82.0625 92.9375 C-70.1666324 104.12422497 -56.96286263 108.31097281 -40.85546875 107.9609375 C-31.58086764 107.44032113 -21.85080772 104.3303774 -14.6875 98.375 C-11.9619637 96.20558322 -10.13326039 95.1704949 -6.625 95 C-2.44598276 95.68508479 -0.73205649 96.6169721 2.1875 99.625 C3.66738778 102.58477555 3.53942307 104.92667338 3.13671875 108.1796875 C0.33950318 115.38568317 -9.74487738 119.45783558 -16.39453125 122.59765625 C-32.97207247 129.64110268 -53.53647906 130.69520423 -70.44140625 124.1015625 C-87.5595488 116.60369705 -100.63629978 105.38392293 -109.1875 88.625 C-109.50936279 87.997146 -109.83122559 87.36929199 -110.1628418 86.72241211 C-114.90014722 76.92078811 -116.30225472 67.50631976 -116.1875 56.6875 C-116.19910156 55.59759766 -116.21070313 54.50769531 -116.22265625 53.38476562 C-116.15950683 35.67135247 -109.61335081 20.75285412 -97.8125 7.625 C-97.29429688 7.01398437 -96.77609375 6.40296875 -96.2421875 5.7734375 C-71.18238188 -21.80494155 -28.42209977 -21.42817993 0 0 Z " fill="#77B441" transform="translate(1521.8125,833.375)"/>
<path d="M0 0 C0.67264389 -0.00671722 1.34528778 -0.01343445 2.03831482 -0.02035522 C4.24290544 -0.03921467 6.44718938 -0.04325394 8.65185547 -0.04541016 C10.20254638 -0.05184897 11.7532361 -0.05857811 13.30392456 -0.06558228 C16.55013845 -0.07752681 19.79624618 -0.08126628 23.04248047 -0.08007812 C27.16769609 -0.07987568 31.29221707 -0.10711312 35.41726875 -0.14162254 C38.62097184 -0.16405488 41.82451246 -0.16791064 45.02828598 -0.16685867 C46.54708105 -0.16919265 48.06588215 -0.17788925 49.58459854 -0.19352341 C66.84539226 -0.35450895 80.27358206 4.03083927 93.14404297 15.85302734 C98.49047567 21.44753452 102.53580939 27.89231442 104.89404297 35.29052734 C104.75732422 39.09130859 104.75732422 39.09130859 103.89404297 42.29052734 C100.66150501 44.44555265 99.64253374 44.75908869 95.89404297 44.29052734 C93.34560014 42.21187322 92.29872563 40.20473924 91.14404297 37.16552734 C86.9534441 27.49732921 80.48916708 20.7636166 70.89404297 16.29052734 C62.40682235 13.26804472 54.37289292 12.83652047 45.42529297 12.85693359 C44.05488836 12.85235754 42.68448603 12.84704782 41.31408691 12.84104919 C38.45994669 12.83217966 35.60608721 12.83447083 32.75195312 12.84448242 C29.12430011 12.85597811 25.49761977 12.83572117 21.8700943 12.80656528 C19.04561381 12.78807765 16.22136124 12.7885202 13.39683533 12.7942028 C11.41902511 12.79442721 9.44123584 12.77765764 7.46350098 12.76039124 C-5.30857215 12.85820098 -15.43644131 16.53331289 -25.04345703 24.99755859 C-31.87156284 31.9875376 -35.31626317 41.08171651 -35.66845703 50.79052734 C-35.09131657 63.69039653 -30.55133039 73.25301328 -21.35595703 82.04052734 C-14.35334981 87.93887727 -5.81025535 90.38033698 3.20043945 90.48339844 C4.47954697 90.49946136 5.75865448 90.51552429 7.07652283 90.53207397 C8.47272061 90.54356898 9.86892593 90.55417624 11.26513672 90.56396484 C11.97339159 90.56928852 12.68164646 90.5746122 13.4113636 90.5800972 C17.16754191 90.60679932 20.92368748 90.62617491 24.67993164 90.640625 C27.76519839 90.65390158 30.84979387 90.68163968 33.93481445 90.72265625 C37.68076526 90.77244341 41.42611304 90.79680237 45.17238045 90.80385208 C46.58794816 90.81049412 48.0035062 90.82552795 49.41888237 90.84974289 C60.05903886 91.02124852 70.47595297 89.69774991 79.21044922 83.04443359 C79.95166016 82.32126953 80.69287109 81.59810547 81.45654297 80.85302734 C82.25189453 80.08087891 83.04724609 79.30873047 83.86669922 78.51318359 C86.24499743 75.90576224 88.08231627 73.31007184 89.89404297 70.29052734 C92.69274323 68.89117721 94.79903089 69.0378733 97.89404297 69.29052734 C99.83154297 70.35302734 99.83154297 70.35302734 100.89404297 72.29052734 C101.2777883 78.55836777 98.22236127 82.1605746 94.26123047 86.79833984 C83.78728288 97.82536717 71.86507773 103.56032826 56.69004822 104.48596191 C53.18764628 104.56927641 49.69040354 104.59394368 46.18701172 104.59130859 C44.26251945 104.59773628 44.26251945 104.59773628 42.29914856 104.60429382 C39.59888543 104.61169829 36.89875316 104.61150767 34.19848633 104.60620117 C30.77979096 104.60042035 27.36163983 104.6173318 23.94303417 104.64054585 C20.62850677 104.65903459 17.31409 104.65509359 13.99951172 104.65380859 C12.79385056 104.66301834 11.58818939 104.67222809 10.34599304 104.68171692 C-7.13593079 104.58822261 -21.88351488 100.27648022 -34.62939453 87.98974609 C-45.8107861 75.80308746 -49.12533039 62.59105484 -48.54736328 46.43115234 C-47.63465287 32.5904964 -40.73558877 21.44600776 -30.85595703 11.97802734 C-22.1061446 4.60578054 -11.46696459 0.07245397 0 0 Z " fill="#78B342" transform="translate(393.10595703125,857.70947265625)"/>
<path d="M0 0 C1.29905273 -0.01283524 2.59810547 -0.02567047 3.93652344 -0.03889465 C5.34960544 -0.04706729 6.76269183 -0.05451002 8.17578125 -0.0612793 C8.89415161 -0.06535482 9.61252197 -0.06943035 10.35266113 -0.07362938 C14.16072292 -0.09445127 17.96874918 -0.10876544 21.77685547 -0.11816406 C25.67566058 -0.12917507 29.57388656 -0.16352354 33.4724884 -0.20333576 C36.4994601 -0.229716 39.52629876 -0.237875 42.55337524 -0.24144554 C43.98845294 -0.24626246 45.42352671 -0.25773323 46.85848999 -0.27648354 C62.47204016 -0.4676994 77.89481154 3.27511596 89.609375 14.16137695 C101.51288599 26.93104779 105.142089 40.22263315 104.80078125 57.24731445 C104.16183588 71.26684082 96.93723029 82.53555926 86.984375 91.9855957 C79.87039533 98.23120227 72.59391575 100.71992598 63.48828125 103.17700195 C62.89522186 103.35478683 62.30216248 103.53257172 61.69113159 103.71574402 C58.86005683 104.30854675 56.18266874 104.32819725 53.28955078 104.35400391 C52.03369171 104.36683914 50.77783264 104.37967438 49.48391724 104.39289856 C48.11298014 104.40107297 46.74203851 104.40851535 45.37109375 104.4152832 C44.67511959 104.41935873 43.97914543 104.42343426 43.26208115 104.42763329 C39.5695806 104.44847794 35.8771169 104.46277976 32.18457031 104.47216797 C28.4080144 104.48315659 24.6320601 104.5174716 20.8557148 104.55733967 C17.92134674 104.58376431 14.98711552 104.59188295 12.05263901 104.59544945 C10.66304391 104.60025867 9.27345248 104.61170619 7.88397598 104.63048744 C-8.49233241 104.8378684 -23.41841578 100.82913714 -35.76171875 89.61450195 C-42.68249913 82.17139853 -47.71878234 73.36232603 -48.51171875 63.17700195 C-45.95562887 60.62091208 -44.78871916 60.17986418 -41.109375 60.1418457 C-37.51171875 61.17700195 -37.51171875 61.17700195 -35.32421875 64.30981445 C-34.69914091 65.6308501 -34.09582246 66.96234516 -33.51171875 68.30200195 C-28.10605686 79.38256828 -22.02411544 84.33822309 -10.51171875 89.17700195 C-7.01300005 90.28909834 -3.72510164 90.31643146 -0.06591797 90.33813477 C1.24289337 90.34774231 2.55170471 90.35734985 3.900177 90.36724854 C5.3279808 90.37209859 6.75578664 90.3763769 8.18359375 90.38012695 C9.26814157 90.38436802 9.26814157 90.38436802 10.37459946 90.38869476 C14.20514032 90.40367173 18.0356437 90.41290901 21.86621094 90.41723633 C25.79998366 90.42270117 29.73340678 90.44669094 33.66707039 90.47520828 C36.71107946 90.49395284 39.75500657 90.49904662 42.79906845 90.5005722 C44.24776992 90.50357557 45.69647076 90.51152461 47.1451149 90.52475739 C60.85795752 90.64101969 71.15905732 88.76277485 81.48828125 79.17700195 C89.30148948 69.64175694 92.14979814 59.84548398 91.83203125 47.63793945 C90.80080762 37.25539241 86.00058523 29.07790602 78.26953125 22.2043457 C67.86254857 14.24705862 56.30259094 12.56196291 43.515625 12.6809082 C42.23071671 12.67945297 40.94580841 12.67799774 39.6219635 12.67649841 C36.92508954 12.67512756 34.22875591 12.68744911 31.53198242 12.71044922 C28.11084123 12.73885945 24.69059293 12.73607124 21.26938534 12.72335911 C17.95554222 12.71465252 14.6419532 12.72987919 11.328125 12.7434082 C10.11841537 12.74047256 8.90870575 12.73753693 7.66233826 12.73451233 C-4.74388031 12.87035963 -15.83958756 15.02012411 -25.51171875 23.17700195 C-28.26880701 26.22561921 -30.71836055 29.46802583 -33.125 32.7980957 C-35.51171875 35.17700195 -35.51171875 35.17700195 -38.6875 35.63012695 C-41.51171875 35.17700195 -41.51171875 35.17700195 -43.38671875 33.48950195 C-44.72766467 30.73311312 -44.81447548 29.21812554 -44.51171875 26.17700195 C-42.58443189 22.8613656 -40.03208855 20.05955087 -37.51171875 17.17700195 C-36.68414062 16.22374023 -36.68414062 16.22374023 -35.83984375 15.2512207 C-26.42252718 5.13881648 -13.67088657 0.11805862 0 0 Z " fill="#79B444" transform="translate(440.51171875,817.822998046875)"/>
<path d="M0 0 C0.92685104 -0.00817749 1.85370209 -0.01635498 2.80863953 -0.02478027 C5.89105575 -0.04969184 8.97342567 -0.06616684 12.0559082 -0.08056641 C13.10662821 -0.08589008 14.15734821 -0.09121376 15.23990822 -0.09669876 C20.80348609 -0.12345807 26.36704133 -0.14282221 31.93066406 -0.15722656 C37.67993201 -0.173862 43.42862533 -0.21862295 49.1776762 -0.26959801 C53.59492148 -0.30325169 58.01203026 -0.31480213 62.42939186 -0.32045364 C64.54849439 -0.32717358 66.66758771 -0.3424148 68.78656578 -0.36634445 C71.75532137 -0.39795172 74.72252668 -0.39803893 77.69140625 -0.390625 C78.56593445 -0.40703033 79.44046265 -0.42343567 80.3414917 -0.44033813 C84.58493879 -0.39700312 87.33645416 -0.11345171 90.71394348 2.58676147 C93.16918945 5.19287109 93.16918945 5.19287109 93.9309082 7.47412109 C93.89416992 8.57240234 93.89416992 8.57240234 93.85668945 9.69287109 C93.86055664 10.42505859 93.86442383 11.15724609 93.8684082 11.91162109 C92.78312458 15.45243471 91.06375778 16.90412632 88.16918945 19.19287109 C85.15055022 19.86812305 82.23010809 19.7772459 79.1496582 19.68115234 C78.29108719 19.67407761 77.43251617 19.66700287 76.54792786 19.65971375 C73.81661343 19.63181512 71.08737987 19.569088 68.35668945 19.50537109 C66.50059935 19.48028223 64.64447699 19.45747009 62.78833008 19.43701172 C58.24781974 19.38200363 53.70885688 19.29576473 49.16918945 19.19287109 C49.17287663 19.79640254 49.1765638 20.39993399 49.1803627 21.02175426 C49.26872274 35.71099994 49.33490341 50.4002299 49.37643814 65.08967876 C49.39705827 72.19342789 49.42516808 79.29699955 49.47094727 86.40063477 C49.51509323 93.25410967 49.53831742 100.10739995 49.54869843 106.96100807 C49.55609782 109.57773557 49.57054678 112.1944528 49.59210968 114.81110191 C49.62108239 118.47202875 49.62514785 122.13219014 49.62329102 125.79321289 C49.63767212 126.87862366 49.65205322 127.96403442 49.66687012 129.08233643 C49.62642349 136.43617698 49.62642349 136.43617698 47.26580811 140.34284973 C43.9988581 143.22555198 41.65863272 143.39867604 37.3371582 143.71630859 C33.67886105 142.83304406 32.42638234 141.1888521 30.16918945 138.19287109 C29.43503702 134.36544603 29.53774913 130.58764999 29.6015625 126.70141602 C29.60083237 125.54001099 29.60010223 124.37860596 29.59934998 123.18200684 C29.60283183 119.34530853 29.64172474 115.50982594 29.6809082 111.67333984 C29.69023421 109.01245568 29.69759723 106.35163876 29.7023468 103.69075012 C29.71787301 97.40437319 29.75888424 91.11843223 29.80909425 84.83224708 C29.86502633 77.67392517 29.89248382 70.51558218 29.91757143 63.35709608 C29.96980163 48.63546501 30.05771972 33.91417566 30.16918945 19.19287109 C28.98365479 19.22429199 27.79812012 19.25571289 26.57666016 19.28808594 C22.16938558 19.39685725 17.76222905 19.4656295 13.35400391 19.52246094 C11.44787635 19.55259606 9.54188703 19.59351306 7.63623047 19.64550781 C4.89296359 19.71847084 2.15153228 19.75235867 -0.5925293 19.77880859 C-1.44167404 19.80977631 -2.29081879 19.84074402 -3.16569519 19.87265015 C-8.92320953 19.87590983 -8.92320953 19.87590983 -11.49234009 17.94244385 C-13.89420479 15.21481143 -14.82662786 13.21671244 -15.45581055 9.63037109 C-14.67767104 5.3506038 -13.12751074 3.92672003 -9.83081055 1.19287109 C-7.71014356 -0.92779589 -2.9346014 0.01413131 0 0 Z " fill="#77B441" transform="translate(1570.830810546875,817.80712890625)"/>
<path d="M0 0 C20.295 0.495 20.295 0.495 41 1 C41 39.61 41 78.22 41 118 C40.34 118 39.68 118 39 118 C39 80.05 39 42.1 39 3 C26.79 3 14.58 3 2 3 C1.34 2.67 0.68 2.34 0 2 C0 1.34 0 0.68 0 0 Z " fill="#E4F5CE" transform="translate(1560,836)"/>
<path d="M0 0 C2.56884474 2.56884474 2.2529257 3.53484897 2.26069641 7.10420227 C2.26778122 8.18515167 2.27486603 9.26610107 2.28216553 10.37980652 C2.27968811 11.57100601 2.27721069 12.76220551 2.2746582 13.98950195 C2.2823246 15.86520874 2.2823246 15.86520874 2.29014587 17.77880859 C2.30169026 21.21494605 2.30411109 24.65084281 2.30158257 28.08698297 C2.3005144 30.95468986 2.30539252 33.82237441 2.310188 36.69007653 C2.32129435 43.45705688 2.32171491 50.22398173 2.31567383 56.9909668 C2.30963822 63.97102929 2.32193184 70.95088998 2.3432439 77.93091804 C2.36086507 83.92250743 2.36686027 89.91403263 2.36360615 95.90564698 C2.36179324 99.4845558 2.36442968 103.06332083 2.37832069 106.64220619 C2.39323973 110.63570851 2.38392443 114.62880117 2.37231445 118.62231445 C2.38378006 120.40000465 2.38378006 120.40000465 2.39547729 122.21360779 C2.38846298 123.30301666 2.38144867 124.39242554 2.3742218 125.5148468 C2.37438954 126.45893056 2.37455729 127.40301432 2.37473011 128.37570667 C1.92016952 131.55906531 0.88651512 133.41281513 -1 136 C-5.06849409 138.71232939 -7.16476784 138.30699887 -12 138 C-12.66 137.34 -13.32 136.68 -14 136 C-11.03 136.33 -8.06 136.66 -5 137 C-5 135.35 -5 133.7 -5 132 C-3.35 132.33 -1.7 132.66 0 133 C0 89.11 0 45.22 0 0 Z " fill="#8BB763" transform="translate(1239,823)"/>
<path d="M0 0 C0.33 0.99 0.66 1.98 1 3 C0.67 3.33 0.34 3.66 0 4 C-0.09833224 5.67386212 -0.12631997 7.35189295 -0.12698364 9.02864075 C-0.12980347 10.1180748 -0.13262329 11.20750885 -0.13552856 12.32995605 C-0.13350433 13.53567261 -0.1314801 14.74138916 -0.12939453 15.98364258 C-0.13114685 17.24532761 -0.13289917 18.50701263 -0.13470459 19.80693054 C-0.13927932 23.27811327 -0.13748884 26.74926641 -0.1343255 30.22044969 C-0.13180046 33.84876478 -0.13414 37.47707727 -0.13571167 41.10539246 C-0.13753364 47.20283464 -0.13512707 53.30026473 -0.13037109 59.39770508 C-0.12493573 66.44756632 -0.12668574 73.49739862 -0.1321975 80.54725915 C-0.13673658 86.59485268 -0.13737505 92.6424375 -0.13475883 98.69003218 C-0.1331995 102.30408463 -0.13299275 105.91812349 -0.13629532 109.53217506 C-0.13972199 113.56419205 -0.13497125 117.59615925 -0.12939453 121.62817383 C-0.13141876 122.82781769 -0.13344299 124.02746155 -0.13552856 125.26345825 C-0.13129883 126.91029854 -0.13129883 126.91029854 -0.12698364 128.59040833 C-0.1264181 130.02092639 -0.1264181 130.02092639 -0.12584114 131.48034382 C-0.00989917 133.80179363 0.34216647 135.77822609 1 138 C-1.80118995 135.44239178 -2.91267542 133.55382522 -3.13142776 129.66141701 C-3.13440243 128.73413481 -3.13737709 127.80685261 -3.14044189 126.85147095 C-3.14615204 125.78597519 -3.15186218 124.72047943 -3.15774536 123.62269592 C-3.15886322 122.45379318 -3.15998108 121.28489044 -3.16113281 120.08056641 C-3.16609772 118.84945633 -3.17106262 117.61834625 -3.17617798 116.34992981 C-3.18828737 112.97176444 -3.19574483 109.59366098 -3.20018864 106.21548128 C-3.20312073 104.10463348 -3.20722578 101.99379109 -3.21169281 99.88294601 C-3.22536448 93.27762427 -3.235033 86.67231492 -3.2388947 80.06698 C-3.24337613 72.44371375 -3.26092917 64.82062674 -3.2898953 57.19741499 C-3.3115129 51.30347852 -3.321599 45.40959247 -3.32293582 39.51561677 C-3.32398371 35.99595331 -3.32988804 32.47645841 -3.34775543 28.9568367 C-3.36729978 25.03057318 -3.36294681 21.10453369 -3.35644531 17.17822266 C-3.3656601 16.01336838 -3.37487488 14.8485141 -3.3843689 13.64836121 C-3.37879974 12.5772258 -3.37323059 11.50609039 -3.36749268 10.40249634 C-3.36895924 9.47446009 -3.3704258 8.54642384 -3.3719368 7.59026527 C-2.92675852 4.48992712 -1.75251536 2.56564636 0 0 Z " fill="#9AC072" transform="translate(972,821)"/>
<path d="M0 0 C0.33 0 0.66 0 1 0 C1.43712969 5.24555629 1.43712969 5.24555629 1 8 C-2.12400497 11.20621563 -4.60466451 12.94565858 -9.08779907 13.12025452 C-10.4291369 13.12316373 -11.77049341 13.12047298 -13.11181641 13.11352539 C-14.20953117 13.11374443 -14.20953117 13.11374443 -15.329422 13.1139679 C-17.75349876 13.11327003 -20.17749912 13.10548354 -22.6015625 13.09765625 C-24.28022215 13.09579162 -25.95888234 13.09436793 -27.63754272 13.09336853 C-32.05987038 13.08954688 -36.48216528 13.07971959 -40.90447998 13.06866455 C-46.20833662 13.0566463 -51.5122042 13.05204651 -56.81607056 13.04621124 C-64.87740316 13.03650766 -72.93866389 13.01734864 -81 13 C-81 26.2 -81 39.4 -81 53 C-74.97105469 52.98259766 -74.97105469 52.98259766 -68.8203125 52.96484375 C-65.61990897 52.95841492 -62.41950726 52.95299136 -59.21910095 52.94824982 C-55.83827422 52.94296438 -52.45747247 52.9358987 -49.07666016 52.92456055 C-45.19953741 52.91247564 -41.3224506 52.90676737 -37.4453125 52.90234375 C-36.23070343 52.89718246 -35.01609436 52.89202118 -33.76467896 52.88670349 C-32.08316238 52.88659019 -32.08316238 52.88659019 -30.36767578 52.88647461 C-29.37728302 52.884254 -28.38689026 52.88203339 -27.3664856 52.87974548 C-25 53 -25 53 -23 54 C-23.33 54.99 -23.66 55.98 -24 57 C-24.99 56.34 -25.98 55.68 -27 55 C-29.52506703 54.67178368 -29.52506703 54.67178368 -32.3894043 54.68115234 C-33.49031906 54.66128265 -34.59123383 54.64141296 -35.72550964 54.62094116 C-36.91308365 54.60938995 -38.10065765 54.59783875 -39.32421875 54.5859375 C-41.14902519 54.55688828 -41.14902519 54.55688828 -43.01069641 54.5272522 C-46.90289257 54.46738979 -50.79511819 54.42104382 -54.6875 54.375 C-57.32358073 54.33682641 -59.95964891 54.29777505 -62.59570312 54.2578125 C-69.0637374 54.16002804 -75.53163512 54.08051027 -82 54 C-82 40.14 -82 26.28 -82 12 C-76.71613281 11.95101562 -71.43226562 11.90203125 -65.98828125 11.8515625 C-62.63865285 11.81617239 -59.28905015 11.78021025 -55.93945312 11.7421875 C-50.62414245 11.68190555 -45.30886771 11.62372975 -39.9934082 11.578125 C-35.70743512 11.54122028 -31.42165906 11.49484624 -27.13585472 11.44193649 C-25.50165454 11.4234201 -23.86741216 11.40830197 -22.23314857 11.39665604 C-19.94209288 11.37974628 -17.6514857 11.35070039 -15.3605957 11.31884766 C-14.05709671 11.30552399 -12.75359772 11.29220032 -11.41059875 11.2784729 C-8.11603513 11.00947418 -5.89722546 10.56248386 -3 9 C-0.87491756 5.81237635 -0.4979837 3.73487777 0 0 Z " fill="#F7FEEB" transform="translate(1382,826)"/>
<path d="M0 0 C0.66 0 1.32 0 2 0 C2 32.34 2 64.68 2 98 C1.34 98 0.68 98 0 98 C-0.66 96.35 -1.32 94.7 -2 93 C-1.34 93 -0.68 93 0 93 C0 62.31 0 31.62 0 0 Z " fill="#DCEAC4" transform="translate(1220,825)"/>
<path d="M0 0 C17.82 0 35.64 0 54 0 C54 0.33 54 0.66 54 1 C36.51 1 19.02 1 1 1 C1 14.53 1 28.06 1 42 C27.07 42 53.14 42 80 42 C79.67 43.32 79.34 44.64 79 46 C77.515 45.01 77.515 45.01 76 44 C73.5253058 43.78769822 71.15919601 43.68879568 68.68286133 43.68115234 C67.57029716 43.66608391 67.57029716 43.66608391 66.43525696 43.65071106 C63.98418959 43.61982576 61.53323171 43.60282927 59.08203125 43.5859375 C57.38237055 43.56723013 55.68271917 43.54765704 53.983078 43.5272522 C49.50987238 43.47587936 45.03663662 43.43628128 40.56329346 43.39910889 C35.19590564 43.35206728 29.8286679 43.29044742 24.46140289 43.23126221 C16.30766234 43.14298714 8.15395146 43.07326795 0 43 C0 28.81 0 14.62 0 0 Z " fill="#EDFADA" transform="translate(1300,899)"/>
<path d="M0 0 C3.27369015 -0.1596922 5.75610745 -0.08432312 8.87329102 0.9934082 C14.58956543 2.68508614 20.5594714 2.26447025 26.46484375 2.23046875 C27.77095108 2.23001053 29.07705841 2.22955231 30.42274475 2.2290802 C33.18561152 2.22752081 35.94834775 2.21928255 38.71118164 2.20581055 C42.20409882 2.18897016 45.69687225 2.18507446 49.18982506 2.18563652 C69.61593061 2.19090743 69.61593061 2.19090743 90 1 C84.73586492 6.26413508 73.94944965 5.24591204 66.96488953 5.30354309 C65.75315567 5.30263168 64.54142181 5.30172028 63.29296875 5.30078125 C61.36847649 5.30720894 61.36847649 5.30720894 59.40510559 5.31376648 C56.70484246 5.32117095 54.00471019 5.32098033 51.30444336 5.31567383 C47.88574799 5.30989301 44.46759686 5.32680445 41.0489912 5.3500185 C37.7344638 5.36850725 34.42004703 5.36456625 31.10546875 5.36328125 C29.29697701 5.37709587 29.29697701 5.37709587 27.45195007 5.39118958 C18.40290494 5.34279478 7.73089896 5.15393264 0 0 Z " fill="#95BF69" transform="translate(376,957)"/>
<path d="M0 0 C0.33 0 0.66 0 1 0 C1.00054477 0.67052997 1.00108953 1.34105993 1.00165081 2.03190899 C1.01661922 18.34869386 1.05906815 34.66515236 1.13209057 50.98177624 C1.16674135 58.87240374 1.19209618 66.76285654 1.19555664 74.65356445 C1.19859644 81.53126688 1.21908865 88.40865816 1.26052457 95.2862404 C1.28185533 98.92784798 1.29445511 102.56901322 1.28615379 106.21068382 C1.27721255 110.27655291 1.30723571 114.3412402 1.34057617 118.40698242 C1.33195053 119.61395279 1.32332489 120.82092316 1.31443787 122.06446838 C1.34849404 128.58276 1.34849404 128.58276 4.30293274 134.23628235 C7.56653454 136.37047907 10.13832603 136.77284271 14 137 C14 137.66 14 138.32 14 139 C8.31845765 139.45452339 5.39963479 138.66636232 1 135 C-0.0246215 131.9261355 -0.12331152 129.8470331 -0.12025452 126.62800598 C-0.12162918 125.51321365 -0.12300385 124.39842133 -0.12442017 123.24984741 C-0.12082489 122.02633575 -0.11722961 120.8028241 -0.11352539 119.54223633 C-0.11367142 118.25432693 -0.11381744 116.96641754 -0.1139679 115.63948059 C-0.11425513 112.10669914 -0.10837032 108.57395156 -0.10139394 105.04117799 C-0.09514812 101.34961255 -0.09455563 97.65804635 -0.09336853 93.96647644 C-0.09025884 86.97545691 -0.08205033 79.98445299 -0.07201904 72.99344033 C-0.06084667 65.0346368 -0.05534461 57.07583253 -0.05032361 49.11702311 C-0.03986743 32.74467293 -0.02227498 16.37233846 0 0 Z " fill="#F3FEDD" transform="translate(1124,824)"/>
<path d="M0 0 C1.95363968 -0.00287018 1.95363968 -0.00287018 3.94674683 -0.00579834 C6.68834235 -0.00872874 9.42980658 -0.00451834 12.17138672 0.00488281 C15.66919416 0.0162989 19.16669531 0.00969119 22.66449165 -0.00226212 C26.0263518 -0.01125995 29.38813118 -0.00494634 32.75 0 C33.99806427 -0.00404846 35.24612854 -0.00809692 36.53201294 -0.01226807 C42.47870489 0.01972895 47.64147019 0.19250523 53.2421875 2.265625 C53.2421875 2.595625 53.2421875 2.925625 53.2421875 3.265625 C52.44420242 3.26340439 51.64621735 3.26118378 50.8240509 3.25889587 C43.24928666 3.23873563 35.67453569 3.22357144 28.09975147 3.21381283 C24.20687006 3.20862696 20.31401108 3.20160883 16.42114258 3.19018555 C12.65396089 3.17920213 8.88680059 3.17331595 5.11960411 3.17074776 C3.69293571 3.16892102 2.26626827 3.16535499 0.83960915 3.15989494 C-8.07041062 3.12719706 -16.88216646 3.43165859 -25.7578125 4.265625 C-18.18732905 -0.78136397 -8.75304143 -0.02848545 0 0 Z " fill="#DDECC8" transform="translate(451.7578125,829.734375)"/>
<path d="M0 0 C0.33 0 0.66 0 1 0 C1.33 38.28 1.66 76.56 2 116 C2.99 116.33 3.98 116.66 5 117 C4.505 117.99 4.505 117.99 4 119 C3.01 118.67 2.02 118.34 1 118 C-0.21047233 115.57905534 -0.12317555 114.06055681 -0.12025452 111.35568237 C-0.12162918 110.37689117 -0.12300385 109.39809998 -0.12442017 108.38964844 C-0.12082489 107.31215332 -0.11722961 106.2346582 -0.11352539 105.12451172 C-0.11367142 103.99280548 -0.11381744 102.86109924 -0.1139679 101.69509888 C-0.11326907 97.93994251 -0.10547807 94.18483524 -0.09765625 90.4296875 C-0.09579196 87.83179756 -0.09436811 85.23390726 -0.09336853 82.63601685 C-0.08993546 76.48786217 -0.0820473 70.33972787 -0.07201904 64.19158089 C-0.06085067 57.19287932 -0.05534562 50.19417692 -0.05032361 43.19546866 C-0.0398645 28.79696958 -0.02226956 14.39848542 0 0 Z " fill="#7EAB51" transform="translate(1601,840)"/>
<path d="M0 0 C3.87961647 3.87961647 6.2157554 6.56583267 9 11 C5.90837736 9.61410019 4.50816459 8.50816459 2 6 C1.67 36.69 1.34 67.38 1 99 C0.01 99.495 0.01 99.495 -1 100 C-0.67 67 -0.34 34 0 0 Z " fill="#F3FEE1" transform="translate(989,857)"/>
<path d="M0 0 C2 2 2 2 2.24165154 3.79945278 C2.23762888 4.53114713 2.23360622 5.26284147 2.22946167 6.01670837 C2.22957748 6.85653763 2.2296933 7.69636688 2.22981262 8.56164551 C2.21955551 9.48481567 2.2092984 10.40798584 2.19873047 11.35913086 C2.19569412 12.32996109 2.19265778 13.30079132 2.18952942 14.30104065 C2.17620513 17.52246956 2.14754353 20.7435331 2.1171875 23.96484375 C2.10117658 26.19682088 2.08548442 28.42880033 2.07009888 30.66078186 C2.03506044 35.34417837 1.99167208 40.0274159 1.94335938 44.71069336 C1.88265802 50.72114388 1.84941285 56.73140028 1.82330132 62.74208736 C1.79908962 67.35323259 1.75689171 71.96408395 1.70956802 76.57504463 C1.68966396 78.79143049 1.67621287 81.00788379 1.66924667 83.22434807 C1.6574992 86.32058042 1.62077002 89.41554258 1.57763672 92.51147461 C1.57952499 93.43262054 1.58141327 94.35376648 1.58335876 95.30282593 C1.45922486 101.52793496 1.45922486 101.52793496 -1.03610229 104.09303284 C-1.68418854 104.392332 -2.33227478 104.69163116 -3 105 C-3.66 104.67 -4.32 104.34 -5 104 C-3.515 103.505 -3.515 103.505 -2 103 C-1.09166197 100.27498592 -0.86642194 98.64832702 -0.84178162 95.84284973 C-0.82709839 94.57454063 -0.82709839 94.57454063 -0.81211853 93.28060913 C-0.80636307 92.35632111 -0.8006076 91.43203308 -0.79467773 90.47973633 C-0.77982834 89.01604362 -0.77982834 89.01604362 -0.76467896 87.52278137 C-0.73305329 84.29255614 -0.70830223 81.06231619 -0.68359375 77.83203125 C-0.66302515 75.59429031 -0.6420287 73.35655326 -0.62062073 71.11882019 C-0.56539037 65.22518057 -0.5159853 59.33150583 -0.46777344 53.43780518 C-0.41756549 47.42530181 -0.36187573 41.41284953 -0.30664062 35.40039062 C-0.19904724 23.60030404 -0.09760485 11.80017313 0 0 Z " fill="#DAEEC3" transform="translate(1144,856)"/>
<path d="M0 0 C0.33 0 0.66 0 1 0 C1.04628366 12.98655342 1.08184899 25.9730873 1.10362434 38.95970631 C1.11407394 44.98952453 1.1282546 51.01928645 1.15087891 57.04907227 C1.17256533 62.86510969 1.18455977 68.68109286 1.18975449 74.49716759 C1.1934578 76.71919293 1.20068917 78.94121522 1.21146011 81.16321754 C1.22591914 84.26878976 1.22798028 87.37413602 1.22705078 90.47973633 C1.23424133 91.40402435 1.24143188 92.32831238 1.24884033 93.28060913 C1.246091 94.12614853 1.24334167 94.97168793 1.24050903 95.84284973 C1.24235262 96.57751874 1.24419621 97.31218775 1.24609566 98.06911945 C1 100 1 100 -1 103 C-1.66 103 -2.32 103 -3 103 C-2.125 99.125 -2.125 99.125 -1 98 C-0.87463144 94.95670813 -0.81387557 91.93502627 -0.79467773 88.89038086 C-0.78477814 87.93438492 -0.77487854 86.97838898 -0.76467896 85.99342346 C-0.73296148 82.81725586 -0.70826619 79.64107327 -0.68359375 76.46484375 C-0.66303306 74.26908467 -0.64203684 72.07332964 -0.62062073 69.87757874 C-0.56530861 64.08583842 -0.51593978 58.29406186 -0.46777344 52.5022583 C-0.41762497 46.59717566 -0.36190425 40.69214596 -0.30664062 34.78710938 C-0.19894733 23.19145142 -0.09752733 11.5957476 0 0 Z " fill="#7DAE4E" transform="translate(1143,856)"/>
<path d="M0 0 C0.63300018 0.07064667 1.26600037 0.14129333 1.91818237 0.21408081 C9.58794474 0.99858926 17.17724839 1.14552034 24.8828125 1.1328125 C26.17766571 1.13376923 27.47251892 1.13472595 28.80661011 1.13571167 C31.52782403 1.13717399 34.24900481 1.1350811 36.97021484 1.13037109 C40.43405852 1.12466325 43.89782485 1.12796885 47.36166573 1.13394356 C50.70205397 1.13845175 54.04242206 1.13528426 57.3828125 1.1328125 C58.61428009 1.13483673 59.84574768 1.13686096 61.11453247 1.13894653 C67.49517146 1.12168323 73.67494208 0.85231277 80 0 C76.43855032 3.39153853 73.65556001 3.36545979 68.84472656 3.34057617 C67.77583443 3.34123329 67.77583443 3.34123329 66.68534851 3.34190369 C64.33682579 3.33981851 61.98902255 3.3165012 59.640625 3.29296875 C58.00966787 3.28737181 56.37870568 3.28310217 54.7477417 3.28010559 C50.46012386 3.26866449 46.17281207 3.23920378 41.88531494 3.20599365 C37.50822082 3.17527685 33.13107714 3.16159682 28.75390625 3.14648438 C20.16913057 3.11433324 11.58460338 3.06314595 3 3 C3 2.34 3 1.68 3 1 C2.01 0.67 1.02 0.34 0 0 Z " fill="#F5FDE8" transform="translate(382,960)"/>
<path d="M0 0 C-0.99 0.66 -1.98 1.32 -3 2 C-3 1.34 -3 0.68 -3 0 C-3.87978516 -0.20302734 -3.87978516 -0.20302734 -4.77734375 -0.41015625 C-7 -1 -7 -1 -10.5625 -2.4375 C-20.22735673 -6.07121214 -29.96964318 -6.26821524 -40.1875 -6.125 C-42.0447168 -6.11146484 -42.0447168 -6.11146484 -43.93945312 -6.09765625 C-46.95984511 -6.07433276 -49.97981399 -6.04160477 -53 -6 C-38.61417255 -15.59055164 -13.75963828 -7.24354411 0 0 Z " fill="#90BB64" transform="translate(751,827)"/>
<path d="M0 0 C0.33 0.66 0.66 1.32 1 2 C1.99 2 2.98 2 4 2 C3.95875 3.11375 3.9175 4.2275 3.875 5.375 C3.58878141 9.04366025 3.58878141 9.04366025 6 11 C8.86436824 11.24581843 11.6390314 11.37369381 14.5078125 11.4140625 C15.76874222 11.44311172 15.76874222 11.44311172 17.05514526 11.4727478 C19.74499303 11.53261658 22.43488343 11.57895771 25.125 11.625 C26.94663344 11.6631731 28.7682487 11.70222444 30.58984375 11.7421875 C35.05974852 11.83832398 39.52973779 11.92232769 44 12 C44 12.33 44 12.66 44 13 C38.53747422 13.14857278 33.07612961 13.25732017 27.61206055 13.32958984 C25.75443023 13.35972146 23.89694172 13.40063595 22.03979492 13.45263672 C19.36601782 13.52561645 16.69412421 13.5594907 14.01953125 13.5859375 C12.7786248 13.63238907 12.7786248 13.63238907 11.51264954 13.67977905 C5.91428874 13.68302994 5.91428874 13.68302994 3.34091187 11.76055908 C0.72268908 8.82119487 0.00612024 7.07589102 -0.3125 3.125 C-0.209375 2.09375 -0.10625 1.0625 0 0 Z " fill="#7BAD49" transform="translate(1556,824)"/>
<path d="M0 0 C1.19882812 0.00483398 1.19882812 0.00483398 2.421875 0.00976562 C3.246875 0.01814453 4.071875 0.02652344 4.921875 0.03515625 C5.76234375 0.03966797 6.6028125 0.04417969 7.46875 0.04882812 C9.53648901 0.06057664 11.60419124 0.07851103 13.671875 0.09765625 C13.671875 0.42765625 13.671875 0.75765625 13.671875 1.09765625 C4.92795482 2.8912809 -3.41342589 3.3350299 -12.328125 3.09765625 C-8.1875786 0.87950639 -4.69550366 -0.03353931 0 0 Z " fill="#90BD63" transform="translate(856.328125,817.90234375)"/>
<path d="M0 0 C1.19496094 -0.00386719 2.38992188 -0.00773438 3.62109375 -0.01171875 C4.87019531 -0.00011719 6.11929687 0.01148438 7.40625 0.0234375 C8.65535156 0.01183594 9.90445312 0.00023437 11.19140625 -0.01171875 C12.98384766 -0.00591797 12.98384766 -0.00591797 14.8125 0 C15.90884766 0.00338379 17.00519531 0.00676758 18.13476562 0.01025391 C21.18007958 0.43679101 22.07978222 0.99103821 23.90625 3.3984375 C22.7615625 3.23601563 21.616875 3.07359375 20.4375 2.90625 C16.07766244 2.36318925 11.79535235 2.24945333 7.40625 2.2734375 C6.34470703 2.26763672 6.34470703 2.26763672 5.26171875 2.26171875 C0.39742041 2.27061143 -4.27755836 2.71505896 -9.09375 3.3984375 C-6.46188934 -0.0705202 -4.20990671 0.01299354 0 0 Z " fill="#F2FBE3" transform="translate(1470.09375,816.6015625)"/>
<path d="M0 0 C0.33 0.66 0.66 1.32 1 2 C-2.40410174 4.06067355 -5.06128319 4.25719096 -9.0078125 4.265625 C-10.15894531 4.26820313 -11.31007813 4.27078125 -12.49609375 4.2734375 C-14.29240234 4.26183594 -14.29240234 4.26183594 -16.125 4.25 C-17.93291016 4.26160156 -17.93291016 4.26160156 -19.77734375 4.2734375 C-20.92589844 4.27085937 -22.07445312 4.26828125 -23.2578125 4.265625 C-24.83780029 4.26224121 -24.83780029 4.26224121 -26.44970703 4.25878906 C-29 4 -29 4 -31 2 C-30.41621582 2.01047363 -29.83243164 2.02094727 -29.23095703 2.03173828 C-26.52901699 2.07388108 -23.82714649 2.09950805 -21.125 2.125 C-20.2071875 2.14175781 -19.289375 2.15851562 -18.34375 2.17578125 C-11.99187394 2.22051277 -6.17389964 1.48851563 0 0 Z " fill="#84B259" transform="translate(733,939)"/>
<path d="M0 0 C3.92660732 0.81804319 5.44578533 2.62004157 8 5.625 C6.824375 5.315625 6.824375 5.315625 5.625 5 C4.325625 4.814375 4.325625 4.814375 3 4.625 C2.34 5.285 1.68 5.945 1 6.625 C0.34 5.965 -0.32 5.305 -1 4.625 C-0.67 3.965 -0.34 3.305 0 2.625 C-0.66 3.285 -1.32 3.945 -2 4.625 C-3.98821313 5.02264263 -5.98944339 5.36275349 -8 5.625 C-3.91139241 0.81487342 -3.91139241 0.81487342 0 0 Z " fill="#7DB24B" transform="translate(1231,817.375)"/>
<path d="M0 0 C8.74563109 0.79505737 17.33473158 3.74151755 25 8 C24.01 8.66 23.02 9.32 22 10 C22 9.34 22 8.68 22 8 C21.41605469 7.86464844 20.83210937 7.72929688 20.23046875 7.58984375 C18 7 18 7 14.3125 5.5625 C10.52852956 4.09727836 6.77305178 3.24557536 2.78515625 2.52734375 C2.19605469 2.35332031 1.60695313 2.17929687 1 2 C0.67 1.34 0.34 0.68 0 0 Z " fill="#84B257" transform="translate(726,819)"/>
<path d="M0 0 C-1 3 -1 3 -2.5625 4.4375 C-4.45137102 6.13676051 -4.45137102 6.13676051 -4 10 C-5.175625 10.185625 -5.175625 10.185625 -6.375 10.375 C-9.14057822 10.79117993 -9.14057822 10.79117993 -11 13 C-11 9 -11 9 -9.1015625 6.640625 C-7.87566406 5.45726562 -7.87566406 5.45726562 -6.625 4.25 C-5.81289062 3.45078125 -5.00078125 2.6515625 -4.1640625 1.828125 C-2 0 -2 0 0 0 Z " fill="#84B556" transform="translate(1433,834)"/>
<path d="M0 0 C0.33 1.32 0.66 2.64 1 4 C-1.96605135 6.96605135 -4.02971502 8.29926621 -8.1875 8.375 C-12 8 -12 8 -14 6 C-11.03 6.33 -8.06 6.66 -5 7 C-5 5.35 -5 3.7 -5 2 C-3.35 2.33 -1.7 2.66 0 3 C0 2.01 0 1.02 0 0 Z " fill="#84B255" transform="translate(1239,953)"/>
<path d="M0 0 C0 0.99 0 1.98 0 3 C-1.609375 4.4296875 -1.609375 4.4296875 -3.75 5.875 C-7.10915981 8.25738284 -9.60333673 10.60472704 -12 14 C-12.66 13.67 -13.32 13.34 -14 13 C-12.56354149 11.39490066 -11.12579294 9.79095576 -9.6875 8.1875 C-8.88699219 7.29417969 -8.08648437 6.40085937 -7.26171875 5.48046875 C-2.26456693 0 -2.26456693 0 0 0 Z " fill="#81B252" transform="translate(412,828)"/>
<path d="M0 0 C2.09765625 0.55859375 2.09765625 0.55859375 4.16015625 2.62109375 C4.62421875 3.58015625 4.62421875 3.58015625 5.09765625 4.55859375 C3.44765625 4.22859375 1.79765625 3.89859375 0.09765625 3.55859375 C0.09765625 2.89859375 0.09765625 2.23859375 0.09765625 1.55859375 C-2.87234375 1.06359375 -2.87234375 1.06359375 -5.90234375 0.55859375 C-6.14984375 1.19796875 -6.39734375 1.83734375 -6.65234375 2.49609375 C-7.90234375 4.55859375 -7.90234375 4.55859375 -10.02734375 5.30859375 C-10.95546875 5.43234375 -10.95546875 5.43234375 -11.90234375 5.55859375 C-9.27158156 -0.51239592 -6.03493705 -0.79484537 0 0 Z " fill="#94BC69" transform="translate(1078.90234375,818.44140625)"/>
<path d="M0 0 C0.66 0.33 1.32 0.66 2 1 C0.71034824 2.37562854 -0.62689293 3.70766393 -2 5 C-2.66 5 -3.32 5 -4 5 C-4.268125 5.598125 -4.53625 6.19625 -4.8125 6.8125 C-5.99917406 8.99847854 -7.09599113 10.41332594 -9 12 C-9.66 12 -10.32 12 -11 12 C-11 12.66 -11 13.32 -11 14 C-11.66 13.67 -12.32 13.34 -13 13 C-8.96476648 8.18876004 -4.95532767 3.86757281 0 0 Z " fill="#EEFADF" transform="translate(832,846)"/>
<path d="M0 0 C0.33 0.66 0.66 1.32 1 2 C1.99 2 2.98 2 4 2 C3.896875 3.0725 3.79375 4.145 3.6875 5.25 C3.59927598 9.14210148 3.59927598 9.14210148 6.5 11.4375 C7.325 11.953125 8.15 12.46875 9 13 C5.62765029 12.71897086 4.21360261 12.19628348 1.6875 9.875 C-0.38044558 6.35183346 -0.31523361 4.01922848 0 0 Z " fill="#7FB352" transform="translate(1556,824)"/>
<path d="M0 0 C0.33 0 0.66 0 1 0 C0.6875 3.375 0.6875 3.375 0 7 C-3.20808915 9.1387261 -4.27698497 9.47730962 -8 9 C-8.66 8.01 -9.32 7.02 -10 6 C-7.69 6 -5.38 6 -3 6 C-3 5.34 -3 4.68 -3 4 C-2.01 4 -1.02 4 0 4 C0 2.68 0 1.36 0 0 Z " fill="#8BB65D" transform="translate(497,893)"/>
<path d="M0 0 C2.55263088 2.274694 3.84144815 4.43202693 5.1875 7.5625 C5.53167969 8.34753906 5.87585938 9.13257813 6.23046875 9.94140625 C7 12 7 12 7 14 C6.34 14 5.68 14 5 14 C4.731875 13.401875 4.46375 12.80375 4.1875 12.1875 C3.15662561 9.95469417 3.15662561 9.95469417 1.375 8.6875 C-0.81312698 6.00207143 -0.1883619 3.32772689 0 0 Z " fill="#82B455" transform="translate(922,852)"/>
<path d="M0 0 C4.78006608 1.91202643 8.79772953 4.02766235 13 7 C12.01 7.495 12.01 7.495 11 8 C10.236875 7.505 9.47375 7.01 8.6875 6.5 C6.09799365 4.71349413 6.09799365 4.71349413 3.1875 5.3125 C2.465625 5.539375 1.74375 5.76625 1 6 C0.67 4.02 0.34 2.04 0 0 Z " fill="#82B453" transform="translate(890,824)"/>
<path d="M0 0 C2.5625 1.9375 2.5625 1.9375 5 5 C5.24379232 8.12160168 4.9332995 11.00849696 4 14 C3.01 14.495 3.01 14.495 2 15 C2.02320313 14.33613281 2.04640625 13.67226563 2.0703125 12.98828125 C2.23624305 6.27138984 2.23624305 6.27138984 0 0 Z " fill="#8BB45F" transform="translate(1520,930)"/>
<path d="M0 0 C2.17581687 2.84881728 4.20937999 5.76084088 6.1875 8.75 C6.71730469 9.54921875 7.24710938 10.3484375 7.79296875 11.171875 C8.19128906 11.77515625 8.58960938 12.3784375 9 13 C8.34 13 7.68 13 7 13 C6.67 13.66 6.34 14.32 6 15 C5.73445313 14.45730469 5.46890625 13.91460938 5.1953125 13.35546875 C4.84210938 12.64003906 4.48890625 11.92460938 4.125 11.1875 C3.77695313 10.47980469 3.42890625 9.77210938 3.0703125 9.04296875 C1.9343514 6.78753582 1.9343514 6.78753582 0 4 C0 2.68 0 1.36 0 0 Z " fill="#83B554" transform="translate(1429,912)"/>
<path d="M0 0 C0.33 0.66 0.66 1.32 1 2 C0.50628906 2.53109375 0.01257813 3.0621875 -0.49609375 3.609375 C-1.45708984 4.66898438 -1.45708984 4.66898438 -2.4375 5.75 C-3.07558594 6.44609375 -3.71367187 7.1421875 -4.37109375 7.859375 C-5.99081325 9.98792725 -6.58267256 11.39023405 -7 14 C-7.66 14 -8.32 14 -9 14 C-7.64002446 7.95566426 -4.14348206 4.36505864 0 0 Z " fill="#F0FCE2" transform="translate(370,880)"/>
<path d="M0 0 C3.14560041 1.17960015 6.20999556 2.51044756 9.25 3.9375 C9.93578125 4.25589844 10.6215625 4.57429687 11.328125 4.90234375 C13 6 13 6 14 9 C8.40440609 7.60110152 4.29704147 4.74082545 0 1 C0 0.67 0 0.34 0 0 Z " fill="#86B359" transform="translate(362,948)"/>
<path d="M0 0 C0.99 0.33 1.98 0.66 3 1 C1.54712339 2.33927721 0.08752741 3.67126847 -1.375 5 C-2.18710937 5.7425 -2.99921875 6.485 -3.8359375 7.25 C-6 9 -6 9 -8 9 C-7.67 7.68 -7.34 6.36 -7 5 C-6.01 5 -5.02 5 -4 5 C-4 4.34 -4 3.68 -4 3 C-3.01 2.67 -2.02 2.34 -1 2 C-0.67 1.34 -0.34 0.68 0 0 Z " fill="#82B253" transform="translate(909,940)"/>
<path d="M0 0 C0.515625 0.680625 1.03125 1.36125 1.5625 2.0625 C4.50071413 5.60342473 7.70787019 8.79109819 11 12 C10.34 12.66 9.68 13.32 9 14 C8.67 13.34 8.34 12.68 8 12 C7.01 12 6.02 12 5 12 C4.731875 11.2575 4.46375 10.515 4.1875 9.75 C3.12651121 6.98725443 3.12651121 6.98725443 1.375 4.875 C0 3 0 3 0 0 Z " fill="#88B45A" transform="translate(361,928)"/>
<path d="M0 0 C1 2 1 2 0.3125 4.3125 C-1.13611508 7.27871183 -2.77445221 9.56580711 -5 12 C-5.66 12 -6.32 12 -7 12 C-5.44298069 7.32894208 -2.91552627 3.91294315 0 0 Z " fill="#84B254" transform="translate(806,844)"/>
<path d="M0 0 C0.99 0.33 1.98 0.66 3 1 C3.72936048 4.04342235 4.23574867 6.86716216 4 10 C2.23893579 12.37337269 0.5475733 13.38826995 -2 15 C-2.66 14.67 -3.32 14.34 -4 14 C-3.360625 13.38125 -2.72125 12.7625 -2.0625 12.125 C0.49936434 9.4855034 0.97119778 8.6912532 1.125 5 C1.20828603 2.07524672 1.20828603 2.07524672 0 0 Z " fill="#F0FAE0" transform="translate(762,933)"/>
<path d="M0 0 C3 1 3 1 4 2.9375 C4.33 3.618125 4.66 4.29875 5 5 C5.99 5.66 6.98 6.32 8 7 C8.6875 10.125 8.6875 10.125 9 13 C4.66965806 9.15080717 2.3439244 5.27710354 0 0 Z " fill="#85B355" transform="translate(349,931)"/>
<path d="M0 0 C-3 2 -3 2 -6 2 C-6.33 2.99 -6.66 3.98 -7 5 C-7.66 5 -8.32 5 -9 5 C-9.66 6.32 -10.32 7.64 -11 9 C-11.66 8.67 -12.32 8.34 -13 8 C-12.21366078 6.85050412 -11.42073742 5.70551011 -10.625 4.5625 C-10.18414062 3.92441406 -9.74328125 3.28632812 -9.2890625 2.62890625 C-6.68965686 -0.65579724 -3.93331688 -0.08550689 0 0 Z " fill="#83B154" transform="translate(491,927)"/>
<path d="M0 0 C2.93200474 2.85276137 5.64315404 5.65079784 8 9 C6.35 9.33 4.7 9.66 3 10 C1.87119943 6.68885166 0.78697325 3.41021743 0 0 Z " fill="#86B557" transform="translate(408,891)"/>
<path d="M0 0 C-4.58921384 3.15654048 -8.29370646 5.57202798 -14 6 C-13.67 5.34 -13.34 4.68 -13 4 C-11.68 4 -10.36 4 -9 4 C-9 3.34 -9 2.68 -9 2 C-3.375 -1.125 -3.375 -1.125 0 0 Z " fill="#EDFADF" transform="translate(473,941)"/>
<path d="M0 0 C0.33 0.99 0.66 1.98 1 3 C0.01 3.33 -0.98 3.66 -2 4 C-3.09166275 5.93330603 -3.09166275 5.93330603 -4 8 C-4.66 8.66 -5.32 9.32 -6 10 C-6.99 9.34 -7.98 8.68 -9 8 C-6.03 5.36 -3.06 2.72 0 0 Z " fill="#EBF8DC" transform="translate(531,905)"/>
<path d="M0 0 C-0.66 1.32 -1.32 2.64 -2 4 C-3.65 4 -5.3 4 -7 4 C-7 3.01 -7 2.02 -7 1 C-3.375 -1.125 -3.375 -1.125 0 0 Z " fill="#1F1D1E" transform="translate(1605,716)"/>
<path d="M0 0 C0 0.99 0 1.98 0 3 C-2.99833285 5.46921528 -4.40259059 6.05635938 -8.3125 5.6875 C-9.199375 5.460625 -10.08625 5.23375 -11 5 C-8.49751135 3.33167423 -6.58850813 2.37618326 -3.8125 1.375 C-3.09707031 1.11460937 -2.38164062 0.85421875 -1.64453125 0.5859375 C-1.10183594 0.39257812 -0.55914062 0.19921875 0 0 Z " fill="#84B456" transform="translate(467,944)"/>
<path d="M0 0 C0.66 0.33 1.32 0.66 2 1 C1.195625 1.61875 0.39125 2.2375 -0.4375 2.875 C-3.03874519 4.74164041 -3.03874519 4.74164041 -4 7 C-7.0625 7.625 -7.0625 7.625 -10 8 C-6.91367389 4.7373124 -4.06516496 1.97764782 0 0 Z " fill="#87B65C" transform="translate(372,863)"/>
<path d="M0 0 C-2.31 1.65 -4.62 3.3 -7 5 C-7.33 3.68 -7.66 2.36 -8 1 C-4.59449725 -1.06762667 -4.18836538 -1.04709135 0 0 Z " fill="#82B250" transform="translate(689,845)"/>
<path d="M0 0 C0.99 0.495 0.99 0.495 2 1 C2 2.98 2 4.96 2 7 C2.99 7.33 3.98 7.66 5 8 C4.67 8.66 4.34 9.32 4 10 C3.01 9.67 2.02 9.34 1 9 C-0.4783226 6.04335481 -0.06032783 3.25770263 0 0 Z " fill="#83B356" transform="translate(1601,949)"/>
<path d="M0 0 C4.29 1.65 8.58 3.3 13 5 C9.05097194 5.98725702 8.33689646 6.09892472 4.8125 4.75 C3.77029297 4.37101563 3.77029297 4.37101563 2.70703125 3.984375 C1 3 1 3 0 0 Z " fill="#84B256" transform="translate(1450,935)"/>
<path d="M0 0 C3.74281699 2.38179263 6.97727468 4.74475735 10 8 C8.35 8 6.7 8 5 8 C4.87625 7.071875 4.87625 7.071875 4.75 6.125 C4.18741541 3.81562433 4.18741541 3.81562433 1.9375 2.75 C1.298125 2.5025 0.65875 2.255 0 2 C0 1.34 0 0.68 0 0 Z " fill="#85B256" transform="translate(824,927)"/>
<path d="M0 0 C3.63559661 3.43361902 6.36113346 6.7973607 9 11 C5.29346269 9.76448756 4.35084565 8.03334922 2 5 C1.34 4.67 0.68 4.34 0 4 C0 2.68 0 1.36 0 0 Z " fill="#89B55D" transform="translate(1057,913)"/>
<path d="M0 0 C0.33 0 0.66 0 1 0 C1.125 6.625 1.125 6.625 0 10 C-0.99 9.67 -1.98 9.34 -3 9 C-2.01 6.03 -1.02 3.06 0 0 Z " fill="#85B455" transform="translate(1412,858)"/>
<path d="M0 0 C0.33 0 0.66 0 1 0 C1.23834364 2.8601237 1.43237406 5.19757555 1 8 C-1.25 10.5625 -1.25 10.5625 -4 12 C-6.3125 11.75 -6.3125 11.75 -8 11 C-7.21625 10.731875 -6.4325 10.46375 -5.625 10.1875 C-2.71885077 9.15185568 -2.71885077 9.15185568 -1 6 C-0.60986284 4.0103005 -0.26797351 2.00980131 0 0 Z " fill="#E9F8D6" transform="translate(1382,826)"/>
<path d="M0 0 C3.28788824 3.11016455 5.83735988 6.01618925 8 10 C4.31274141 9.00344362 3.20648538 8.3417689 1.1875 5 C0 2 0 2 0 0 Z " fill="#86B55A" transform="translate(1184,876)"/>
<path d="M0 0 C2.9375 0.3125 2.9375 0.3125 4.9375 2.3125 C1.3075 2.6425 -2.3225 2.9725 -6.0625 3.3125 C-3.0625 0.3125 -3.0625 0.3125 0 0 Z " fill="#8EBA64" transform="translate(979.0625,817.6875)"/>
<path d="M0 0 C-2.3129482 2.3129482 -3.47904875 2.49580975 -6.625 3.125 C-7.44226563 3.29257812 -8.25953125 3.46015625 -9.1015625 3.6328125 C-10.04128906 3.81457031 -10.04128906 3.81457031 -11 4 C-8.74499851 -0.51000297 -4.55950767 -0.20725035 0 0 Z " fill="#80B153" transform="translate(890,955)"/>
<path d="M0 0 C2.63342306 2.63342306 3 4.30465565 3 8 C-1.875 3.25 -1.875 3.25 -3 1 C-2.01 0.67 -1.02 0.34 0 0 Z " fill="#82B354" transform="translate(1163,875)"/>
<path d="M0 0 C3.375 -0.125 3.375 -0.125 7 0 C7.66 0.66 8.32 1.32 9 2 C8.67 2.99 8.34 3.98 8 5 C5.36 3.68 2.72 2.36 0 1 C0 0.67 0 0.34 0 0 Z " fill="#85B558" transform="translate(508,833)"/>
<path d="M0 0 C4.875 3.625 4.875 3.625 6 7 C5.34 7 4.68 7 4 7 C4 6.34 4 5.68 4 5 C2.35 4.67 0.7 4.34 -1 4 C-0.67 2.68 -0.34 1.36 0 0 Z " fill="#7FB251" transform="translate(985,821)"/>
<path d="M0 0 C-1.17578125 1.51953125 -1.17578125 1.51953125 -3 3 C-5.48046875 3.07421875 -5.48046875 3.07421875 -8.1875 2.6875 C-9.53908203 2.50767578 -9.53908203 2.50767578 -10.91796875 2.32421875 C-11.94857422 2.16373047 -11.94857422 2.16373047 -13 2 C-13 1.67 -13 1.34 -13 1 C-8.62426048 0.40667939 -4.42471556 -0.13827236 0 0 Z " fill="#F7FEEB" transform="translate(726,961)"/>
<path d="M0 0 C1.32 0.33 2.64 0.66 4 1 C4 1.66 4 2.32 4 3 C5.65 3 7.3 3 9 3 C8.67 3.99 8.34 4.98 8 6 C4.08597051 4.73058503 2.20927127 3.48832306 0 0 Z " fill="#F3FCE1" transform="translate(828,929)"/>
<path d="M0 0 C2.96404505 2.80804268 5.44499019 5.18315774 7 9 C2.8575633 7.61918777 1.67796901 5.40174442 -1 2 C-0.67 1.34 -0.34 0.68 0 0 Z " fill="#EEF9DB" transform="translate(1151,865)"/>
<path d="M0 0 C2.6875 -0.3125 2.6875 -0.3125 6 0 C8.875 2.5 8.875 2.5 11 5 C10.29875 4.71125 9.5975 4.4225 8.875 4.125 C5.94547497 2.97866412 2.99078347 1.97374346 0 1 C0 0.67 0 0.34 0 0 Z " fill="#8EB861" transform="translate(1228,818)"/>
<path d="M0 0 C0.99 0.33 1.98 0.66 3 1 C2.67 1.66 2.34 2.32 2 3 C2.99 3.66 3.98 4.32 5 5 C4.67 5.66 4.34 6.32 4 7 C2.02 5.35 0.04 3.7 -2 2 C-1.34 1.34 -0.68 0.68 0 0 Z " fill="#86B85A" transform="translate(408,906)"/>
<path d="M0 0 C0.33 0 0.66 0 1 0 C1.66 3.3 2.32 6.6 3 10 C2.01 10 1.02 10 0 10 C0 6.7 0 3.4 0 0 Z " fill="#8DB961" transform="translate(809,896)"/>
<path d="M0 0 C0.33 0.66 0.66 1.32 1 2 C-0.75 4.0625 -0.75 4.0625 -3 6 C-4.32 5.67 -5.64 5.34 -7 5 C-4.69 3.35 -2.38 1.7 0 0 Z " fill="#87B85A" transform="translate(518,900)"/>
<path d="M0 0 C2.64752004 2.57784846 4.94432065 4.91648098 7 8 C5.68 7.34 4.36 6.68 3 6 C3 5.34 3 4.68 3 4 C1.68 3.34 0.36 2.68 -1 2 C-0.67 1.34 -0.34 0.68 0 0 Z " fill="#E8F8D6" transform="translate(1020,897)"/>
<path d="M0 0 C0.33 1.32 0.66 2.64 1 4 C-0.9375 6.25 -0.9375 6.25 -3 8 C-3.66 7.67 -4.32 7.34 -5 7 C-3.35 4.69 -1.7 2.38 0 0 Z " fill="#84B457" transform="translate(1420,846)"/>
<path d="M0 0 C0.33 0 0.66 0 1 0 C1.25532751 3.06393013 1.21861333 4.63233212 -0.375 7.3125 C-1.179375 8.1478125 -1.179375 8.1478125 -2 9 C-2.66 9 -3.32 9 -4 9 C-2.80100302 5.9168649 -1.52299523 2.93720508 0 0 Z " fill="#86B359" transform="translate(1381,827)"/>
<path d="M0 0 C-0.75 1.9375 -0.75 1.9375 -2 4 C-4.125 4.75 -4.125 4.75 -6 5 C-3.74193548 0 -3.74193548 0 0 0 Z " fill="#87B45C" transform="translate(1073,819)"/>
</svg>
