<?xml version="1.0" encoding="utf-8"?>
<!-- Generator: Adobe Illustrator 27.5.0, SVG Export Plug-In . SVG Version: 6.00 Build 0)  -->
<svg version="1.1" id="Capa_1" xmlns="http://www.w3.org/2000/svg" xmlns:xlink="http://www.w3.org/1999/xlink" x="0px" y="0px"
	 viewBox="0 0 383.8 59.9" style="enable-background:new 0 0 383.8 59.9;" xml:space="preserve">
<path d="M199.2,18.9L192,31h5.9L199.2,18.9z M77.1,8.6h-5.7L60.7,33.5c1.7-0.3,6.6-1,7.8-1.3c1.5-0.5,2.6-1.9,4.3-5.5
	c1.7-3.6,4.3-10.2,5.6-13.6C79.7,9.7,78.5,8.6,77.1,8.6z M303.1,5c3.1,0,4.5,2.6,1.5,5.7c-3,3.1-33.6,36.4-34.6,37.6
	c-1,1.2-1.5,2.3,0.4,2.3l18.5,0l-1.6,4.2h-28.8c-3.4,0-4.6-2.3-1.3-5.8c3.2-3.5,34.2-36.8,35.4-38.2c1.2-1.3,0.9-1.9-0.3-1.9h-16.8
	l1.5-4H303.1z M241.5,5.1c0,0-16.7,39.6-18,42.4c-1.2,2.8,0.4,3.2,1.9,3.2h10.9l-1.6,4.2l-19.8,0c-3.7,0-5-2.5-3-7.1
	c2-4.7,18.4-42.7,18.4-42.7H241.5z M210.8,5.1l-4.2,49.8h-11l2.1-20.2h-9.1l-13.4,20.2l-10.6,0c0,0,30.5-45,31.6-46.6
	c1.1-1.6,3.4-3.2,5-3.2H210.8z M181.4,5.1l-21.2,49.8h-11.6l21.6-49.8H181.4z M271.7,5.1l-21.2,49.8l-11.7,0l21.6-49.8H271.7z
	 M164.2,5.1l-1.6,3.6h-14.7c-3.7,0-4.1,1.6-4.9,3.3c-0.8,1.8-14.5,33.9-15.4,35.7c-0.8,1.7-0.7,3,1.7,3h11.5h3.4L143,55h-23.8
	c-4.2,0-5.1-2.8-3.6-6.4c1.6-3.6,15.9-36.9,17-39.7c1.2-2.9,4.3-3.7,7.7-3.7H164.2z M129.3,5.1l-1.8,3.4l-13.3,0c-3.7,0-5,1-6.3,3.8
	c-1.3,2.8-6.7,15.6-6.7,15.6h14.3l-1.9,3.6H99.9c0,0-5.3,12.2-6.7,15.3c-1.3,3.1-1,3.9,1.2,3.9h11.6h3.4l-1.8,4.2H84.3
	c-3.3,0-5.4-1.6-3.3-6.5c2-5,14.6-34.3,16.3-38.2c1.7-4,4.4-5.2,8.4-5.2H129.3z M343.1,5l-1.7,3.4l-13.3,0c-3.7,0-4.9,1-6.2,3.8
	c-1.3,2.7-6.6,15.6-6.6,15.6l14.3,0l-1.9,3.6h-13.8c0,0-5.4,12.2-6.7,15.3c-1.3,3.1-1,3.9,1.2,3.9h11.6h3.4l-1.8,4.2l-23.3,0
	c-3.3,0-5.4-1.6-3.4-6.5c2-5,14.6-34.3,16.3-38.2c1.7-4,4.5-5.2,8.4-5.2H343.1z M86.2,5.1c4.1,0,6,3.1,4.3,7.7
	c-1.7,4.5-3.6,8.6-6.4,14.9c-2.8,6.4-4.7,7.2-10.1,7.9c-5.3,0.7-15.3,2.1-15.3,2.1L51.1,55h-11L62.2,5.2L86.2,5.1z M56.3,5.2
	l-1.7,3.5l-16-0.1c-2.1,0-3.3,1.3-4.5,3.2c-1.1,1.9-1.5,3.3-2.6,5.7c-1,2.3-1,4.8,1,6.4c2,1.6,4.4,3.9,6.5,5.6
	c3.9,3.4,4.9,5,1.8,12.1c-2.4,5.5-1.2,3.1-3.3,7.7C35.5,54,33.1,55,29.4,55H4l2.2-4.2h15.7c2.9,0,3.6-1.5,4.9-4
	c1.2-2.5,1.6-3.2,3.2-6.8c1.5-3.7,1.9-5.4-0.2-7.5c-2-2-4.8-4.3-7.9-7.1c-3.1-2.8-3-3.5-1.4-7.4c1.6-4,2.2-5.2,3.7-8.9
	c1.6-3.7,4.5-4,7.5-4L56.3,5.2z M344.9,50.6h2.8c2.9,0,3.6-1.5,4.6-3.5c1-2,13.3-30.3,14.6-33.8c1.4-3.5,0.4-4.4-1.8-4.4h-7.3
	l-17.8,41.7h3.5H344.9z M327.1,54.8l21.4-49.9l27.2,0c4,0,4.7,4.1,3.6,7c-1.2,2.9-14.2,33.1-15.8,36.7c-1.5,3.6-3.8,6.2-7.6,6.3
	H327.1z"/>
</svg>
