<?xml version="1.0" encoding="utf-8"?>
<!-- Generator: Adobe Illustrator 27.5.0, SVG Export Plug-In . SVG Version: 6.00 Build 0)  -->
<svg version="1.1" id="Capa_1" xmlns="http://www.w3.org/2000/svg" xmlns:xlink="http://www.w3.org/1999/xlink" x="0px" y="0px"
	 viewBox="0 0 353 92.6" style="enable-background:new 0 0 353 92.6;" xml:space="preserve">
<style type="text/css">
	.st0{fill-rule:evenodd;clip-rule:evenodd;}
	.st1{fill-rule:evenodd;clip-rule:evenodd;fill:#FFFFFF;}
</style>
<path class="st0" d="M155.1,10.6c0-5.2,3.8-9,9-9c4.9,0,9,3.8,9,9c0,4.9-4.2,9-9,9C158.9,19.6,155.1,15.4,155.1,10.6L155.1,10.6z"/>
<path class="st0" d="M156.1,57.9v-24c0-4.5,3.5-8,8-8c4.2,0,8,3.5,8,8v24c0,4.5-3.8,8-8,8C159.6,65.9,156.1,62.4,156.1,57.9
	L156.1,57.9z"/>
<path class="st0" d="M51.2,28.7l41.7,12.9c3.8,1,5.9,4.9,5.6,8.7c-0.3,2.4-2.1,4.9-4.9,6.3L16.8,90.5c-4.2,1.7-8.7,0-10.8-3.8
	c-1.7-4.2,0-9,4.2-10.8l57.7-25.4L26.1,37.7c-4.2-1.4-6.6-5.9-5.2-10.1c0.3-1.7,2.1-3.8,3.5-4.5L71.7,2.2c3.8-2.1,8.7,0,10.4,3.8
	c1.7,4.2,0,8.7-4.2,10.4L51.2,28.7L51.2,28.7z"/>
<path class="st0" d="M259.4,41.5l34.8-15.6c3.8-1.7,8.7,0.3,10.4,4.2c1.7,4.2,0,8.7-3.8,10.4l-19.1,8.3l60.8,27.1
	c4.2,1.7,5.9,6.6,4.2,10.4c-2.1,4.2-6.6,5.9-10.8,4.2l-76.5-34.1v1.4c0,4.5-3.5,8-8,8c-4.2,0-8-3.5-8-8V9.5c0-4.5,3.8-8,8-8
	c4.5,0,8,3.5,8,8V41.5L259.4,41.5z"/>
<path class="st0" d="M101.9,83.2v-25v-1.4c-0.1-3,2.6-5.1,4.9-6.3L121,44l-27.5-8.3c-4.2-1-6.6-5.6-5.2-9.7
	c1.4-4.5,5.9-6.6,10.1-5.6l46.9,14.6c2.8,0.9,4.9,2.1,5.9,4.5c1.4,3.5,0.3,7.3-2.1,9.4c-0.7,0.7-1.7,1-2.4,1.4l-29.2,12.9v20.2
	c0,4.5-3.5,8-7.6,8C105.4,91.2,101.9,87.8,101.9,83.2L101.9,83.2z"/>
<path class="st0" d="M236.8,33.9v24c0,4.5-3.8,8-8,8c-4.5,0-8-3.5-8-8v-0.7l-32.3,8.3c-0.6,0.2-1.6,0.3-1.6,0.3h-0.7
	c-4.5,0-7.8-3.4-7.8-7.9v-24c0-4.5,3.5-8,8-8c4.2,0,8,3.5,8,8v13.6l26.4-7v-6.6c0-4.5,3.5-8,8-8C233,25.9,236.8,29.4,236.8,33.9
	L236.8,33.9z"/>
<path class="st1" d="M164.1,0.1c5.6,0,10.5,4.4,10.5,10.5c0,5.6-4.8,10.5-10.5,10.5c-6,0-10.5-4.8-10.5-10.5
	C153.7,4.6,158.1,0.1,164.1,0.1L164.1,0.1z M154.7,33.9c0-5.3,4.1-9.4,9.4-9.4c4.9,0,9.4,4.1,9.4,9.4v24c0,5.3-4.5,9.4-9.4,9.4
	c-5.3,0-9.4-4.1-9.4-9.4V33.9L154.7,33.9z M93.3,40.2c4.6,1.3,6.9,5.9,6.6,10.2c-0.4,2.9-2.5,5.8-5.7,7.4L17.3,91.8
	c-4.9,2-10.2-0.1-12.6-4.5c-2-4.8-0.1-10.6,4.9-12.7l54.2-23.8L25.7,39c-4.8-1.6-7.7-6.9-6.2-11.8c0.5-2.2,2.5-4.6,4.2-5.4L71,1
	c4.6-2.5,10.3,0.1,12.3,4.5c2,4.9,0,10.2-4.9,12.3L55.1,28.4L93.3,40.2L93.3,40.2z M260.8,58.6c-0.4,4.9-4.3,8.6-9.4,8.6
	c-4.9,0-9.4-4.1-9.4-9.4V9.5c0-5.3,4.5-9.4,9.4-9.4c5.3,0,9.4,4.1,9.4,9.4v29.8l32.8-14.7c4.6-2.1,10.3,0.4,12.3,4.9
	c2,4.8,0,10.2-4.5,12.3l-16.2,7.1L343,74.6c4.9,2.1,6.9,7.8,4.9,12.3c-2.4,4.8-7.7,6.9-12.6,4.9L260.8,58.6L260.8,58.6z M100.5,58.2
	v-1.4c-0.1-3.9,3.3-6.4,5.7-7.5l10.9-5.1L93.2,37c-5-1.3-7.8-6.6-6.1-11.5c1.6-5.3,7-7.7,11.8-6.5l47,14.6c3,1,5.5,2.3,6.8,5.3
	c1.6,4,0.4,8.5-2.4,11c-0.8,0.8-1.8,1.1-2.8,1.6L119,64v19.2c0,5.3-4.1,9.4-9.1,9.4c-5.3,0-9.4-4.1-9.4-9.4V58.2L100.5,58.2z
	 M219.4,59l-30.6,7.9c-0.6,0.2-1.2,0.3-1.9,0.3l-0.8,0c-5.3,0-9.2-4.1-9.2-9.3v-24c0-5.3,4.1-9.4,9.4-9.4c4.9,0,9.4,4.1,9.4,9.4
	v11.7l23.6-6.2v-5.5c0-5.3,4.1-9.4,9.4-9.4c4.9,0,9.4,4.1,9.4,9.4v24c0,5.3-4.5,9.4-9.4,9.4C223.9,67.3,220,63.7,219.4,59L219.4,59z
	 M157,33.9v24c0,4.1,3.1,7.1,7.1,7.1c3.7,0,7.1-3.1,7.1-7.1v-24c0-4-3.4-7.1-7.1-7.1C160.1,26.7,157,29.8,157,33.9L157,33.9z
	 M92.6,42.3L48.8,28.8l28.8-13.1c3.7-1.5,5.3-5.5,3.7-9.3C79.8,3,75.4,1.2,72,3L24.8,23.9c-1.3,0.6-2.8,2.6-3,4
	c-1.3,3.8,0.9,7.8,4.6,9l43.9,13.5L10.5,76.7c-3.7,1.5-5.3,5.9-3.7,9.6c1.9,3.4,5.9,5,9.7,3.4l76.8-34c2.5-1.3,4.1-3.5,4.4-5.6
	C97.9,46.6,96,43.3,92.6,42.3L92.6,42.3z M294.5,26.7l-36,16.2V9.5c0-4-3.1-7.1-7.1-7.1c-3.7,0-7.1,3.1-7.1,7.1v48.3
	c0,4,3.4,7.1,7.1,7.1c4.1,0,7.1-3.1,7.1-7.1v-2.7l77.6,34.6c3.7,1.6,7.8,0,9.7-3.7c1.5-3.4,0-7.7-3.7-9.3l-62.6-27.9l20.9-9.1
	c3.4-1.5,5-5.5,3.4-9.3C302.2,27,297.8,25.1,294.5,26.7L294.5,26.7z M102.8,58.2v25c0,4,3.1,7.1,7.1,7.1c3.7,0,6.8-3.1,6.8-7.1V62.5
	l29.7-13.1c0.8-0.4,1.6-0.6,2.2-1.3c2.1-1.8,3.1-5.3,1.9-8.4c-0.9-2.1-2.6-3.1-5.4-4L98.2,21.1c-3.8-0.9-7.8,1-9.1,5
	c-1.2,3.7,1,7.7,4.6,8.7l29.6,9l-16.2,7.5c-2.3,1.1-4.5,3-4.4,5.5L102.8,58.2L102.8,58.2z M235.9,57.9v-24c0-4-3.4-7.1-7.1-7.1
	c-4,0-7.1,3.1-7.1,7.1v7.3l-28.1,7.4V33.9c0-4-3.4-7.1-7.1-7.1c-4,0-7.1,3.1-7.1,7.1v24c0,4.1,2.9,7.1,6.9,7.1h0.7
	c0.5,0,0.9-0.1,1.4-0.2l33.4-8.6v1.8c0,4.1,3.1,7.1,7.1,7.1C232.5,65,235.9,61.9,235.9,57.9L235.9,57.9z M164.1,2.4
	c-4.7,0-8.2,3.4-8.2,8.2c0,4.4,3.5,8.2,8.2,8.2c4.4,0,8.2-3.8,8.2-8.2C172.3,5.9,168.6,2.4,164.1,2.4L164.1,2.4z"/>
</svg>
