<?xml version="1.0" encoding="utf-8"?>
<!-- Generator: Adobe Illustrator 27.5.0, SVG Export Plug-In . SVG Version: 6.00 Build 0)  -->
<svg version="1.1" id="Artwork" xmlns="http://www.w3.org/2000/svg" xmlns:xlink="http://www.w3.org/1999/xlink" x="0px" y="0px"
	 viewBox="0 0 177 163" style="enable-background:new 0 0 177 163;" xml:space="preserve">
<g>
	<path d="M170,109.1c0.7,18.8-17.2,37.6-37.5,38c-29.4,0.6-58.8,0.6-88.2,0c-20.5-0.4-37.4-17.9-37.7-38
		C61,109.1,115.3,109.1,170,109.1z"/>
	<path d="M170.5,100.7c-1.9,0.1-3.2,0.3-4.6,0.3c-39.5,0-79,0.1-118.4,0c-21.4,0-39-15.4-41-35.3c-0.1-0.9,0-1.9,0-3.1
		c1.9-0.1,3.4-0.3,5-0.3c38.9,0,77.8-0.1,116.7,0c21.3,0.1,37.4,12.7,41.7,32.5C170.2,96.7,170.3,98.6,170.5,100.7z"/>
	<path d="M170.2,53.6c-54.8,0-109.2,0-163.5,0c-0.1-18.7,16.1-37,35.1-37.5c31.1-0.8,62.3-0.9,93.5,0
		C153.9,16.6,169.9,34.8,170.2,53.6z"/>
</g>
</svg>
