<svg width="521" height="152" viewBox="0 0 521 152" fill="none" xmlns="http://www.w3.org/2000/svg">
<path d="M328.806 75.7969C323.479 105.012 294.588 128.697 264.274 128.697C233.961 128.697 213.703 105.012 219.031 75.7969C224.357 46.582 253.246 22.8964 283.561 22.8964C313.875 22.8964 334.13 46.582 328.806 75.7969Z" fill="#1082CE"/>
<path d="M76.5536 84.7281L79.6999 65.951C79.8769 64.8982 79.6617 64.0119 79.0578 63.2852C78.4539 62.5602 77.6244 62.196 76.5727 62.196H71.8316C70.78 62.196 69.8307 62.5602 68.9804 63.2852C68.1318 64.0119 67.6199 64.8982 67.4429 65.951L63.92 86.9828C63.7517 87.9853 64.1699 88.4849 65.1712 88.4849H72.1666C73.2199 88.4849 74.1675 88.1224 75.0161 87.3956C75.8647 86.6706 76.3766 85.7791 76.5536 84.7281ZM91.5838 84.7281C91.2402 86.7834 89.8415 88.5473 87.3894 90.025C84.9373 91.501 82.1589 92.2399 79.0526 92.2399H64.543C63.5417 92.2399 62.9569 92.7394 62.7868 93.7419L61.4037 102.005C61.2336 103.006 60.6488 103.507 59.6475 103.507H47.623C46.6217 103.507 46.2035 103.006 46.3718 102.005L52.4127 65.951C52.758 63.8974 54.155 62.1335 56.6088 60.6558C59.0592 59.1798 61.8393 58.4409 64.9474 58.4409H84.7169C87.8232 58.4409 90.3551 59.1798 92.3127 60.6558C94.2667 62.1335 95.0736 63.8974 94.73 65.951L91.5838 84.7281Z" fill="#231F20"/>
<path d="M124.346 84.7281L127.492 65.9511C127.669 64.8983 127.454 64.012 126.85 63.2853C126.246 62.5603 125.417 62.196 124.365 62.196H119.624C118.573 62.196 117.623 62.5603 116.773 63.2853C115.924 64.012 115.412 64.8983 115.235 65.9511L112.091 84.7281C111.914 85.7792 112.127 86.6707 112.733 87.3957C113.339 88.1224 114.166 88.4849 115.22 88.4849H119.959C121.013 88.4849 121.96 88.1224 122.809 87.3957C123.657 86.6707 124.169 85.7792 124.346 84.7281ZM139.376 84.7281C139.033 86.7834 137.634 88.5474 135.182 90.0251C132.73 91.5011 129.951 92.24 126.845 92.24H107.076C103.969 92.24 101.436 91.5011 99.4799 90.0251C97.5206 88.5474 96.7154 86.7834 97.059 84.7281L100.205 65.9511C100.551 63.8975 101.948 62.1336 104.401 60.6558C106.852 59.1798 109.632 58.441 112.74 58.441H132.509C135.616 58.441 138.148 59.1798 140.105 60.6558C142.059 62.1336 142.866 63.8975 142.523 65.9511L139.376 84.7281Z" fill="#231F20"/>
<path d="M178.834 58.4407C178.49 60.4943 177.092 62.2582 174.639 63.736C172.189 65.212 169.407 65.9508 166.303 65.9508C165.251 65.9508 164.3 66.3151 163.453 67.0401C162.603 67.7668 162.093 68.6566 161.916 69.7076L158.393 90.7377C158.223 91.7402 157.638 92.2397 156.637 92.2397H144.612C143.611 92.2397 143.193 91.7402 143.363 90.7377L147.514 65.9508C147.857 63.8973 149.254 62.1333 151.71 60.6556C154.16 59.1796 156.94 58.4407 160.047 58.4407H178.834Z" fill="#231F20"/>
<path d="M209.937 92.2402H190.658C187.552 92.2402 185.02 91.5014 183.063 90.0254C181.105 88.5476 180.298 86.7837 180.642 84.7284L186.684 48.6746C186.851 47.6755 187.437 47.1743 188.439 47.1743H200.463C201.465 47.1743 201.881 47.6755 201.714 48.6746L200.331 56.9375C200.163 57.9417 200.579 58.4412 201.583 58.4412H215.108C214.765 60.4931 213.369 62.2587 210.914 63.7347C208.463 65.2125 205.683 65.9513 202.579 65.9513H200.323C199.321 65.9513 198.737 66.4526 198.568 67.4534L195.925 83.2264C195.757 84.2289 196.173 84.7284 197.175 84.7284H199.922C203.028 84.7284 205.56 85.469 207.516 86.9433C209.475 88.4227 210.28 90.1867 209.937 92.2402Z" fill="#231F20"/>
<path d="M263.299 67.2196C262.872 69.5195 261.236 71.3424 258.395 72.6831C256.069 73.8347 253.661 74.4106 251.169 74.4106H246.584C245.624 74.4106 245.057 74.891 244.876 75.8484L240.912 97.6798C240.734 98.639 240.163 99.1177 239.205 99.1177H226.465C225.507 99.1177 225.117 98.639 225.296 97.6798L232.402 59.5707C232.834 57.2708 234.467 55.4497 237.308 54.1055C239.634 52.9556 242.042 52.3797 244.536 52.3797H267.155C266.726 54.6813 265.092 56.5042 262.251 57.8467C259.927 58.9966 257.517 59.5707 255.025 59.5707H249.458C248.5 59.5707 247.934 60.0512 247.753 61.0086L246.754 65.7817C246.575 66.7426 246.967 67.2196 247.925 67.2196H263.299Z" fill="white"/>
<path d="M286.649 53.5589C286.263 55.6142 285.198 57.3764 283.443 58.8541C281.691 60.3302 279.789 61.069 277.734 61.069C275.678 61.069 274.046 60.3302 272.849 58.8541C271.646 57.3764 271.235 55.6142 271.617 53.5589C272.004 51.5053 273.071 49.7414 274.827 48.2637C276.575 46.7877 278.48 46.0488 280.535 46.0488C282.588 46.0488 284.219 46.7877 285.422 48.2637C286.621 49.7414 287.036 51.5053 286.649 53.5589ZM278.029 97.6137C277.843 98.6179 277.25 99.1174 276.247 99.1174H264.224C263.224 99.1174 262.815 98.6179 263.004 97.6137L268.748 66.8187C268.932 65.8179 269.526 65.3167 270.529 65.3167H282.551C283.555 65.3167 283.961 65.8179 283.777 66.8187L278.029 97.6137Z" fill="white"/>
<path d="M315.011 99.1169H295.24C292.132 99.1169 289.614 98.3781 287.688 96.9021C285.758 95.4243 284.982 93.6604 285.368 91.6051L292.384 53.2063C292.569 52.2073 293.165 51.706 294.164 51.706H306.682C307.681 51.706 308.091 52.2073 307.903 53.2063L305.642 65.781C305.453 66.7835 305.861 67.283 306.864 67.283H321.129C320.745 69.3366 319.314 71.1023 316.832 72.5783C314.354 74.056 311.562 74.7949 308.457 74.7949H305.46C304.46 74.7949 303.865 75.2961 303.681 76.2969L301.168 90.1031C300.983 91.1056 301.389 91.6051 302.394 91.6051H305.139C308.243 91.6051 310.762 92.3457 312.69 93.82C314.618 95.2994 315.392 97.0634 315.011 99.1169Z" fill="white"/>
<path d="M372.933 90.7377C372.763 91.7402 372.177 92.2397 371.177 92.2397H359.153C358.148 92.2397 357.731 91.7402 357.901 90.7377L362.052 65.9508C362.229 64.8998 362.016 64.0117 361.412 63.285C360.81 62.56 359.979 62.1958 358.929 62.1958H353.941C352.89 62.1958 351.94 62.56 351.09 63.285C350.243 64.0117 349.728 64.8998 349.551 65.9508L345.4 90.7377C345.23 91.7402 344.646 92.2397 343.643 92.2397H331.621C330.618 92.2397 330.201 91.7402 330.371 90.7377L334.522 65.9508C334.864 63.8973 336.261 62.1333 338.718 60.6556C341.169 59.1796 343.949 58.4407 347.053 58.4407H367.069C370.177 58.4407 372.709 59.1796 374.665 60.6556C376.621 62.1333 377.428 63.8973 377.086 65.9508L372.933 90.7377Z" fill="#231F20"/>
<path d="M408.76 71.7825L409.718 65.9513C409.893 64.8985 409.679 64.0122 409.077 63.2855C408.473 62.5605 407.642 62.1963 406.592 62.1963H401.358C400.308 62.1963 399.359 62.5605 398.509 63.2855C397.66 64.0122 397.146 64.8985 396.969 65.9513L396.011 71.7825C395.843 72.785 396.26 73.2828 397.263 73.2828H407.003C408.003 73.2828 408.59 72.785 408.76 71.7825ZM423.162 75.5376C422.991 76.5401 422.405 77.0396 421.405 77.0396H396.633C395.633 77.0396 395.047 77.5409 394.876 78.5416L394.075 83.2264C393.908 84.2289 394.326 84.7284 395.326 84.7284H410.19C413.298 84.7284 415.826 85.469 417.785 86.9433C419.741 88.4227 421.237 90.426 421.188 92.2402H389.299C386.194 92.2402 383.662 91.5014 381.707 90.0254C379.744 88.5476 378.94 86.782 379.284 84.7284L382.432 65.9513C382.774 63.8978 384.171 62.1338 386.628 60.6561C389.079 59.1783 391.859 58.4412 394.963 58.4412H414.733C417.841 58.4412 420.373 59.1783 422.329 60.6561C424.284 62.1338 425.091 63.8978 424.749 65.9513L423.162 75.5376Z" fill="#231F20"/>
<path d="M45.0743 60.6561C43.1585 59.1783 40.6491 58.4412 37.5428 58.4412H17.2804C14.1741 58.4412 11.3732 59.1783 8.88115 60.6561C6.38393 62.1338 4.93662 63.8978 4.53401 65.9513L2.30231 77.3431H17.3325H30.0789L28.6333 84.7284C28.4268 85.7794 27.8888 86.6709 27.0194 87.3959C26.1517 88.1227 25.192 88.4852 24.1404 88.4852H18.9082C17.8548 88.4852 17.0375 88.1227 16.4509 87.3959C15.8678 86.6709 15.6787 85.7794 15.8852 84.7284L16.2669 82.7789H1.23678L0.854993 84.7284C0.452384 86.782 1.20901 88.5476 3.12488 90.0254C5.03901 91.5014 7.55011 92.2402 10.6564 92.2402H30.9188C34.0251 92.2402 36.8243 91.5014 39.3181 90.0254C41.8118 88.5476 43.2609 86.782 43.6635 84.7284L45.9038 73.2967H30.8719H18.1255L19.5642 65.9513C19.7707 64.8985 20.3087 64.0122 21.1763 63.2855C22.0475 62.5605 23.0072 62.1963 24.0606 62.1963H29.291C30.3444 62.1963 31.1618 62.5605 31.7448 63.2855C32.3297 64.0122 32.5188 64.8985 32.3123 65.9513L31.9618 68.0934H46.9919L47.3425 65.9513C47.7451 63.8978 46.9867 62.1338 45.0743 60.6561Z" fill="#231F20"/>
<path d="M470.189 60.6561C468.274 59.1783 465.764 58.4412 462.658 58.4412H442.396C439.289 58.4412 436.488 59.1783 433.996 60.6561C431.499 62.1338 430.052 63.8978 429.649 65.9513L427.419 77.3431H442.448H455.194L453.747 84.7284C453.54 85.7794 453.006 86.6709 452.135 87.3959C451.267 88.1227 450.307 88.4852 449.256 88.4852H444.023C442.97 88.4852 442.153 88.1227 441.566 87.3959C440.983 86.6709 440.794 85.7794 441 84.7284L441.382 82.7789H426.352L425.972 84.7284C425.568 86.782 426.324 88.5476 428.238 90.0254C430.154 91.5014 432.665 92.2402 435.773 92.2402H456.036C459.14 92.2402 461.939 91.5014 464.435 90.0254C466.927 88.5476 468.376 86.782 468.78 84.7284L471.019 73.2967H455.987H443.241L444.681 65.9513C444.886 64.8985 445.424 64.0122 446.291 63.2855C447.163 62.5605 448.122 62.1963 449.176 62.1963H454.406C455.46 62.1963 456.277 62.5605 456.86 63.2855C457.445 64.0122 457.634 64.8985 457.427 65.9513L457.077 68.0934H472.107L472.458 65.9513C472.86 63.8978 472.102 62.1338 470.189 60.6561Z" fill="#231F20"/>
<path d="M517.912 60.6561C515.997 59.1783 513.487 58.4412 510.381 58.4412H490.119C487.012 58.4412 484.211 59.1783 481.719 60.6561C479.222 62.1338 477.775 63.8978 477.372 65.9513L475.142 77.3431H490.171H502.917L501.47 84.7284C501.263 85.7794 500.729 86.6709 499.858 87.3959C498.99 88.1227 498.03 88.4852 496.979 88.4852H491.746C490.693 88.4852 489.876 88.1227 489.289 87.3959C488.706 86.6709 488.517 85.7794 488.723 84.7284L489.105 82.7789H474.075L473.695 84.7284C473.291 86.782 474.047 88.5476 475.961 90.0254C477.877 91.5014 480.388 92.2402 483.496 92.2402H503.759C506.863 92.2402 509.662 91.5014 512.158 90.0254C514.65 88.5476 516.099 86.782 516.503 84.7284L518.742 73.2967H503.71H490.964L492.404 65.9513C492.609 64.8985 493.147 64.0122 494.014 63.2855C494.886 62.5605 495.845 62.1963 496.899 62.1963H502.129C503.183 62.1963 504 62.5605 504.583 63.2855C505.168 64.0122 505.357 64.8985 505.15 65.9513L504.8 68.0934H519.83L520.181 65.9513C520.583 63.8978 519.825 62.1338 517.912 60.6561Z" fill="#231F20"/>
<path d="M331.267 29.2751C334.03 32.5844 336.369 36.1469 338.28 39.9089H354.922C352.592 34.1038 349.447 28.6611 345.476 23.7249C333.192 8.44966 315.855 0.0376308 294.114 0.0376308C268.588 0.0376308 245.838 11.2959 230.049 28.9785C244.621 16.0864 263.712 8.11145 283.636 8.11145C302.96 8.11145 319.876 15.6285 331.267 29.2751Z" fill="#231F20"/>
<path d="M216.569 122.318C213.806 119.009 211.467 115.447 209.556 111.685H192.914C195.245 117.49 198.389 122.932 202.36 127.869C214.644 143.144 231.981 151.556 253.722 151.556C279.248 151.556 301.998 140.298 317.787 122.615C303.217 135.507 284.124 143.482 264.2 143.482C244.877 143.482 227.96 135.965 216.569 122.318Z" fill="#231F20"/>
</svg>
