<?xml version="1.0" encoding="utf-8"?>
<!-- Generator: Adobe Illustrator 27.5.0, SVG Export Plug-In . SVG Version: 6.00 Build 0)  -->
<svg version="1.1" id="Capa_1" xmlns="http://www.w3.org/2000/svg" xmlns:xlink="http://www.w3.org/1999/xlink" x="0px" y="0px"
	 viewBox="0 0 1636.1 236.8" style="enable-background:new 0 0 1636.1 236.8;" xml:space="preserve">
<style type="text/css">
	.st0{fill:#E5193D;}
</style>
<symbol  id="svg-logo-sram" viewBox="-957.5 -123.7 1915.1 247.5">
	<path class="st0" d="M926.1,93.9V84h6.6c3.3,0,6.6,0,6.6,5s-3.3,5-6.6,5L926.1,93.9L926.1,93.9z M926.1,98.8h5l8.3,13.2h5L936,98.8
		c5,0,8.3-3.3,8.3-8.3c0-6.6-3.3-8.3-11.6-8.3h-11.6v31.4h5L926.1,98.8L926.1,98.8z M931,123.7c14.9,0,26.5-11.6,26.5-26.5
		S946,70.7,931,70.7s-26.5,11.6-26.5,26.5S917.8,123.7,931,123.7z M909.5,95.5c0-13.2,9.9-23.2,21.5-23.2s21.5,9.9,21.5,23.2
		s-9.9,23.2-21.5,23.2S909.5,108.8,909.5,95.5z M737.5,123.7l48-188.7h-81.1l-46.3,188.7H528.8l48-188.7h-81.1L446,123.7H312
		L376.6-123c0,0,432-1.7,478.3,0c28.1,0,67.9,28.1,54.6,84.4C893,27.7,881.5,83.9,871.5,123.7C825.1,123.7,810.2,123.7,737.5,123.7z
		 M148.1-10.4H45.5L60.4-70h101L148.1-10.4z M14.1-123c-21.5,0-66.2-3.3-89.4,69.5c-11.6,38.1-48,177.1-48,177.1s36.4,0,64.6,0
		c29.8,0,61.2,1.7,71.2-18.2c8.3-18.2,19.9-64.6,19.9-64.6h105.9l-21.5,82.8h134.1C312-111.4,315.3-123,315.3-123H14.1z M-768.8-70
		l-11.6,46.3h216.8c0,0-9.9,36.4-19.9,72.8c-13.2,51.3-41.4,74.5-97.7,74.5h-276.4l13.2-51.3h221.8l13.2-53H-931
		c0,0,1.7-6.6,6.6-26.5c3.3-11.6,6.6-23.2,9.9-36.4c9.9-36.4,26.5-74.5,87.7-77.8h288L-553.7-70H-768.8z M-277.2-10.4h-102.6
		l16.6-59.6h101L-277.2-10.4z M-191.2-123h-220.1c-77.8,0-87.7,62.9-91,69.5c-3.3,8.3-34.8,135.7-46.3,177.1h134.1l26.5-99.3
		c3.3,3.3,54.6,67.9,71.2,86.1c13.2,14.9,23.2,13.2,72.8,13.2h81.1l-74.5-89.4h82.8c5-24.8,13.2-53,19.9-79.4
		C-123.3-89.9-158.1-123-191.2-123z"/>
</symbol>
<g>
	<g>
		<defs>
			<rect id="SVGID_1_" x="12.4" y="13.9" width="1610.3" height="208"/>
		</defs>
		<clipPath id="SVGID_00000119090012126243596530000014800626147851377041_">
			<use xlink:href="#SVGID_1_"  style="overflow:visible;"/>
		</clipPath>
		
			<g transform="matrix(1 0 0 1 0 -7.629395e-06)" style="clip-path:url(#SVGID_00000119090012126243596530000014800626147851377041_);">
			
				<use xlink:href="#svg-logo-sram"  width="1915.1" height="247.5" id="XMLID_00000055701437321469433330000013763397936927197098_" x="-957.5" y="-123.7" transform="matrix(0.8409 0 0 0.8409 817.528 115.7407)" style="overflow:visible;"/>
		</g>
	</g>
</g>
</svg>
