<?xml version="1.0" encoding="utf-8"?>
<!-- Generator: Adobe Illustrator 27.5.0, SVG Export Plug-In . SVG Version: 6.00 Build 0)  -->
<svg version="1.1" id="Logo" xmlns="http://www.w3.org/2000/svg" xmlns:xlink="http://www.w3.org/1999/xlink" x="0px" y="0px"
	 viewBox="0 0 474.9 94" style="enable-background:new 0 0 474.9 94;" xml:space="preserve">
<g>
	<g id="Grupo_86">
		<path id="Trazado_1395" d="M47,0C21.1,0,0,21,0,47s21,47,47,47c26,0,47-21,47-47C94,21.1,73,0,47,0 M47,88.1
			C24.3,88.1,5.9,69.7,5.9,47C5.9,24.3,24.3,5.9,47,5.9c22.7,0,41.1,18.4,41.1,41.1c0,0,0,0,0,0C88.1,69.7,69.7,88.1,47,88.1"/>
		<path id="Trazado_1396" d="M72.6,50.8L72.6,50.8c-1.5-1.2-3.3-2-5.3-2.2c-3.8-0.6-6.1-1.6-7.7-3.1s-2.4-4-3-8
			c-0.6-4.1-3-6.4-6.9-6.6h0h0c-2.1,0-4.2,0.9-5.6,2.4c-1.2,1.2-1.8,2.9-1.8,4.5c0.2,4.1,2.5,6.6,6.7,7.2c7.4,1,11.2,4.7,11.2,10.8
			c0.1,2.7-0.9,5.3-2.7,7.2c-1.8,1.8-4.6,3-8.1,3.5c-4.6,0.6-7,3.1-7.2,7.2c0,1.8,0.6,3.5,1.8,4.7c1.3,1.5,3.2,2.3,5.1,2.5
			c0.1,0,0.2,0,0.3,0c3.8,0,6.7-3,7.3-7.5c0.2-2.7,1.3-5.3,3.2-7.3c2-1.8,4.6-2.9,7.3-3c4.8-0.5,7.3-2.8,7.6-6.8
			C74.8,54.2,74.1,52.2,72.6,50.8"/>
		<path id="Trazado_1397" d="M44.4,62.5L44.4,62.5c2.2,0,4.2-0.9,5.7-2.4c1.2-1.2,1.8-2.9,1.8-4.5c-0.2-4.1-2.5-6.6-6.7-7.2
			c-7.5-1-11.2-4.7-11.2-10.8c-0.1-2.7,0.8-5.3,2.7-7.2c1.8-1.8,4.6-3,8.1-3.5c4.6-0.6,7-3,7.2-7.2c0-1.8-0.6-3.5-1.9-4.7
			c-1.3-1.5-3.2-2.3-5.1-2.5c-4-0.1-6.9,2.8-7.5,7.5c-0.2,2.7-1.3,5.3-3.2,7.3c-2,1.8-4.6,2.9-7.3,3c-4.8,0.5-7.3,2.8-7.6,6.8
			c-0.2,2,0.5,4.1,2,5.5c1.5,1.2,3.3,2,5.3,2.2c3.8,0.6,6.1,1.6,7.7,3.1s2.4,4,3,8C38,60,40.5,62.2,44.4,62.5L44.4,62.5z"/>
		<path id="Trazado_1398" d="M148.7,42.8H119c-1.5,0-3,0.2-4.5,0.6c-1.3,0.4-1.9,0.9-1.9,1.5v7.7c0,0.6,0.6,1.1,1.9,1.5
			c1.4,0.4,2.9,0.6,4.5,0.6h17.1c0.9,0,1.6,0.7,1.6,1.6c0,0,0,0,0,0v0.5c0,0.9-0.7,1.6-1.6,1.6h-21.9c-0.9,0-1.6,0.7-1.6,1.6v1
			c0,0.9,0.7,1.6,1.6,1.6c0,0,0,0,0,0h29.8c1.5,0,3-0.2,4.4-0.6c1.2-0.4,1.8-0.9,1.8-1.5v-7.9c0-0.6-0.6-1.1-1.8-1.5
			c-1.4-0.4-2.9-0.6-4.4-0.6H127c-0.9,0-1.6-0.7-1.6-1.6v-0.3c0-0.9,0.7-1.6,1.6-1.6h21.7c0.9,0,1.6-0.7,1.6-1.6c0,0,0,0,0,0v-1
			C150.3,43.5,149.6,42.8,148.7,42.8C148.7,42.8,148.7,42.8,148.7,42.8"/>
		<path id="Trazado_1399" d="M196.5,42.9h-34.1c-0.9,0-1.6,0.7-1.6,1.6v1c0,0.9,0.7,1.6,1.6,1.6h9.1c0.9,0,1.6,0.7,1.6,1.6
			c0,0,0,0,0,0V61c0,0.9,0.7,1.6,1.6,1.6h9.4c0.9,0,1.6-0.7,1.6-1.6c0,0,0,0,0,0V48.7c0-0.9,0.7-1.6,1.6-1.6c0,0,0,0,0,0h9.1
			c0.9,0,1.6-0.7,1.6-1.6c0,0,0,0,0,0v-1C198.1,43.6,197.4,42.9,196.5,42.9C196.5,42.9,196.5,42.9,196.5,42.9"/>
		<path id="Trazado_1400" d="M409.7,42.9h-36.9c-0.9,0-1.6,0.7-1.6,1.6c0,0,0,0,0,0V61c0,0.9,0.7,1.6,1.6,1.6c0,0,0,0,0,0h36.9
			c0.9,0,1.6-0.7,1.6-1.6v-1c0-0.9-0.7-1.6-1.6-1.6h-24.5c-0.9,0-1.6-0.7-1.6-1.6v-0.4c0-0.9,0.7-1.6,1.6-1.6h12.1
			c0.9,0,1.6-0.7,1.6-1.6v-1c0-0.9-0.7-1.6-1.6-1.6c0,0,0,0,0,0h-12.1c-0.9,0-1.6-0.7-1.6-1.6v-0.4c0-0.9,0.7-1.6,1.6-1.6h24.5
			c0.9,0,1.6-0.7,1.6-1.6v-1C411.3,43.6,410.6,42.9,409.7,42.9"/>
		<path id="Trazado_1401" d="M305.2,59.6c-0.9-0.5-1.8-1-2.7-1.5c-0.8-0.4-1-1.4-0.6-2.2c0.2-0.4,0.6-0.6,1-0.7
			c1.2-0.4,1.8-0.9,1.8-1.5V45c0-0.6-0.6-1.1-1.8-1.5c-1.5-0.4-3-0.6-4.5-0.6h-34.7c-0.9,0-1.6,0.7-1.6,1.6c0,0,0,0,0,0V61
			c0,0.9,0.7,1.6,1.6,1.6c0,0,0,0,0,0h9.4c0.9,0,1.6-0.7,1.6-1.6c0,0,0,0,0,0v-3.6c0-0.9,0.7-1.6,1.6-1.6h7c0.3,0,0.5,0.1,0.8,0.2
			c3.8,2.1,7.7,4.2,11.5,6.4c0.2,0.1,0.5,0.2,0.8,0.2h8.1c0.9,0,1.6-0.7,1.6-1.6C306,60.4,305.7,59.9,305.2,59.6 M290.5,51.7h-14.3
			c-0.9,0-1.6-0.7-1.6-1.6v-1.4c0-0.9,0.7-1.6,1.6-1.6h14.3c0.9,0,1.6,0.7,1.6,1.6c0,0,0,0,0,0v1.4
			C292.1,50.9,291.4,51.7,290.5,51.7C290.5,51.7,290.5,51.7,290.5,51.7"/>
		<path id="Trazado_1402" d="M466,59.6c-0.9-0.5-1.8-1-2.7-1.5c-0.8-0.4-1-1.4-0.6-2.2c0.2-0.4,0.6-0.6,1-0.7
			c1.2-0.4,1.8-0.9,1.8-1.5V45c0-0.6-0.6-1.1-1.8-1.5c-1.5-0.4-3-0.6-4.5-0.6h-34.7c-0.9,0-1.6,0.7-1.6,1.6c0,0,0,0,0,0V61
			c0,0.9,0.7,1.6,1.6,1.6c0,0,0,0,0,0h9.4c0.9,0,1.6-0.7,1.6-1.6v-3.6c0-0.9,0.7-1.6,1.6-1.6h7c0.3,0,0.5,0.1,0.8,0.2
			c3.8,2.1,7.7,4.2,11.5,6.4c0.2,0.1,0.5,0.2,0.8,0.2h8.1c0.9,0,1.6-0.7,1.6-1.6C466.9,60.4,466.5,59.9,466,59.6 M451.4,51.7h-14.3
			c-0.9,0-1.6-0.7-1.6-1.6v-1.4c0-0.9,0.7-1.6,1.6-1.6h14.3c0.9,0,1.6,0.7,1.6,1.6c0,0,0,0,0,0v1.4C453,50.9,452.3,51.7,451.4,51.7"
			/>
		<path id="Trazado_1403" d="M358.8,59.6c-4.3-2.4-8.7-4.8-13-7.3h-0.4l12.3-6.5c0.8-0.4,1.1-1.4,0.7-2.2c-0.3-0.5-0.8-0.8-1.4-0.8
			h-11.2c-0.3,0-0.5,0.1-0.8,0.2c-4.8,2.7-9.6,5.3-14.4,8c-0.2,0.1-0.5,0.2-0.8,0.2c-0.9,0-1.6-0.7-1.6-1.6c0,0,0,0,0,0v-5.2
			c0-0.9-0.7-1.6-1.6-1.6h-9.4c-0.9,0-1.6,0.7-1.6,1.6c0,0,0,0,0,0V61c0,0.9,0.7,1.6,1.6,1.6c0,0,0,0,0,0h8.6c0.3,0,0.5-0.1,0.8-0.2
			c3.2-1.7,6.4-3.4,9.5-5.1c0.2-0.1,0.5-0.2,0.7-0.2c0.3,0,0.5,0.1,0.8,0.2c3.2,1.7,6.4,3.4,9.5,5.1c0.2,0.1,0.5,0.2,0.7,0.2H358
			c0.9,0,1.6-0.7,1.6-1.6C359.6,60.4,359.3,59.9,358.8,59.6"/>
		<path id="Trazado_1404" d="M250.2,42.9h-39.5c-0.9,0-1.6,0.7-1.6,1.6c0,0,0,0,0,0V61c0,0.9,0.7,1.6,1.6,1.6c0,0,0,0,0,0h9.4
			c0.9,0,1.6-0.7,1.6-1.6v-3.6c0-0.9,0.7-1.6,1.6-1.6h14.4c0.9,0,1.6,0.7,1.6,1.6c0,0,0,0,0,0V61c0,0.9,0.7,1.6,1.6,1.6c0,0,0,0,0,0
			h9.4c0.9,0,1.6-0.7,1.6-1.6c0,0,0,0,0,0V44.5C251.8,43.6,251.1,42.9,250.2,42.9 M239.2,50.1c0,0.9-0.7,1.6-1.6,1.6c0,0,0,0,0,0
			h-14.4c-0.9,0-1.6-0.7-1.6-1.6v-1.4c0-0.9,0.7-1.6,1.6-1.6h14.4c0.9,0,1.6,0.7,1.6,1.6c0,0,0,0,0,0V50.1z"/>
		<path id="Trazado_1405" d="M472.1,41.5c-1.5,0-2.7,1.3-2.6,2.8c0,1.5,1.3,2.7,2.8,2.6c1.5,0,2.7-1.2,2.6-2.7
			C474.8,42.6,473.6,41.4,472.1,41.5C472.1,41.5,472.1,41.5,472.1,41.5 M472.1,46.3c-1.2,0.1-2.2-0.9-2.2-2c-0.1-1.2,0.9-2.2,2-2.2
			c1.2-0.1,2.2,0.9,2.2,2c0,0,0,0.1,0,0.1C474.2,45.3,473.3,46.3,472.1,46.3C472.1,46.3,472.1,46.3,472.1,46.3"/>
		<path id="Trazado_1406" d="M472.7,44.2L472.7,44.2c0.3-0.1,0.5-0.3,0.6-0.7c0-0.2-0.1-0.4-0.3-0.6c-0.3-0.2-0.6-0.2-0.9-0.2
			c-0.3,0-0.7,0-1,0.1v2.7h0.6v-1.1h0.3c0.3,0,0.5,0.1,0.6,0.4c0,0.2,0.1,0.4,0.2,0.7h0.7c-0.1-0.2-0.2-0.4-0.2-0.7
			C473.2,44.6,473,44.3,472.7,44.2 M472,44h-0.3v-0.8c0.1,0,0.2,0,0.3,0c0.4,0,0.6,0.2,0.6,0.4C472.6,43.9,472.3,44,472,44"/>
		<path id="Trazado_1407" d="M235.4,38.6h4.8c1.5,0,2.7-1.2,2.7-2.7v-1.7c0-1.5-1.2-2.7-2.7-2.7h-4.8c-1.5,0-2.7,1.2-2.7,2.7v1.7
			C232.7,37.4,233.9,38.6,235.4,38.6"/>
		<path id="Trazado_1408" d="M220.6,38.6h4.8c1.5,0,2.7-1.2,2.7-2.7v-1.7c0-1.5-1.2-2.7-2.7-2.7h-4.8c-1.5,0-2.7,1.2-2.7,2.7v1.7
			C217.8,37.4,219.1,38.6,220.6,38.6"/>
	</g>
</g>
</svg>
