<?xml version="1.0" encoding="UTF-8"?>
<svg xmlns="http://www.w3.org/2000/svg" version="1.1" viewBox="0 0 453 56.9">
  <!-- Generator: Adobe Illustrator 28.6.0, SVG Export Plug-In . SVG Version: 1.2.0 Build 709)  -->
  <g>
    <g id="Capa_1">
      <g>
        <path d="M12.7,38.5h39c.8,0,1-1.1.3-1.4l-28.3-11.7c-1.1-.4-1.2-1.9-.3-2.5l15.5-10.9c2.4-1.7,5.4-2.6,8.3-2.6h141.6c.5,0,.8.6.5,1l-6.2,8.2c-.3.4-.8.7-1.4.7h-21.9c-.6,0-1.1.2-1.5.6l-24.1,26.3c-.9,1-2.1,1.5-3.4,1.5h-21.5c-1.6,0-2.5-1.9-1.5-3.2l21-24.7c.4-.4,0-1.1-.5-1.1H60.3c0,0,0,0,0,.1l28.9,12.8c1.1.5,1.2,2,.3,2.7l-16.6,12.3c-1,.7-2.1,1.1-3.3,1.1H6.7c-1,0-1.5-1.2-.9-1.9l5.5-6.4c.4-.4.9-.7,1.5-.7Z"/>
        <path d="M266.6,9.3h-56.7c-5,0-9.9,2-13.4,5.5l-23.8,23.5c-3.1,3-.9,8.3,3.4,8.3h56.3c6.7,0,13.1-2.8,17.7-7.7l20.1-21.4c3-3.1.7-8.3-3.6-8.3ZM239.8,18.9l-15.4,17.7c-.2.2-.5.4-.8.4h-22.8c-.3,0-.4-.3-.2-.5l14.7-15.9c1.2-1.3,2.9-2.1,4.7-2.1h19.5c.3,0,.4.3.2.5Z"/>
        <path d="M287.1,9.3h21.6c2.5,0,3.8,3,2.1,4.8l-21.9,23c-.6.7-.2,1.7.7,1.7h16.2c2,0,3.9-.9,5.2-2.3l23.1-25.8c.8-.9,1.9-1.4,3.1-1.4h108.2c1.6,0,2.6,1.8,1.6,3.1l-3.6,5.3c-.5.8-1.4,1.2-2.4,1.2h-23.4c-.6,0-1.3.3-1.7.8l-23,26.7c-.7.8-1.7,1.3-2.8,1.3h-21.7c-2.1,0-3.3-2.5-2-4.1l19.4-24c.3-.4,0-1.1-.5-1.1h-27.9c-1.1,0-2.1.5-2.8,1.3l-24.1,27.1c-.5.5-1.2.8-1.9.8h-67.1c-4.4,0-6.7-5.2-3.7-8.5l26.1-28.5c.8-.9,2-1.4,3.2-1.4Z"/>
      </g>
    </g>
  </g>
</svg>