<?xml version="1.0" encoding="utf-8"?>
<!-- Generator: $$$/GeneralStr/196=Adobe Illustrator 27.6.0, SVG Export Plug-In . SVG Version: 6.00 Build 0)  -->
<svg version="1.1" id="Capa_1" xmlns="http://www.w3.org/2000/svg" xmlns:xlink="http://www.w3.org/1999/xlink" x="0px" y="0px"
	 viewBox="0 0 95.6 34.2" style="enable-background:new 0 0 95.6 34.2;" xml:space="preserve">
<path d="M69,33.5V0.6h12.2v4.7h-5.7v7.5h5.4v4.7h-5.4v11.2h5.7v4.7C81.2,33.5,69,33.5,69,33.5z"/>
<path d="M95.6,33.5h-13v-4.7l5.9-23.4h-5.9V0.6h12.7v4.7l-6.2,23.4h6.5C95.6,28.8,95.6,33.5,95.6,33.5z"/>
<path d="M46.1,0.6h-8.3L33,33.5h6.2l1-9h3.4l1,9h6.2L46.1,0.6z M43.1,19.9h-2.3c0,0,1-8.4,1-14.5h0.4C42.1,11.6,43.1,19.9,43.1,19.9
	L43.1,19.9L43.1,19.9z"/>
<path d="M15.4,25c0-4.7-2.9-7.5-5.2-10c-1-1-2-2.2-2.8-3.4c-0.7-1.3-1.1-2.7-1-4.2c0-1.3,0.2-2.5,1.3-2.5S9,6.5,9,7.4v3.9h6.4V7.2
	c0-4.4-3.6-7.2-7.7-7.2S0,2.6,0,7.4l0,0V9c0,3.3,3.6,8.3,5.5,10.3c1.4,1.5,2.4,2.7,3,4C8.8,24.1,9,25.2,9,27c0,1.1-0.1,2.3-1.3,2.3
	S6.4,28,6.4,27.1v-5H0.2v5.1c0,4.4,3.7,6.9,7.7,6.9s7.5-3.3,7.5-7.3C15.4,26.6,15.4,25.1,15.4,25L15.4,25z"/>
<path d="M32.4,0.6H26v26.1c0,0.9,0.1,2.5-1.3,2.5c-1.3,0-1.3-1.4-1.3-2.5V0.6H17v24.8c0.1,1.7,0.2,3.3,0.9,4.9
	c0.7,1.8,2.3,3.1,4.2,3.6c1.7,0.4,3.5,0.4,5.1,0c1.9-0.4,3.5-1.8,4.2-3.6c0.7-1.5,0.8-3.2,0.9-4.9C32.4,24.8,32.4,0.6,32.4,0.6z"/>
<path d="M68.1,33.5c-0.8-1.7-1.2-3.6-1.1-5.4v-5.6c0-3.7-0.9-5.9-5-6.1v-0.3c3.9-0.2,5-2.9,5-5.4V7.6c0-5-3.7-7-7.7-7h-7.7v32.9h6.5
	V18.6c1.5,0,2.3,0.9,2.3,2.5v8.8c0,1.3,0.2,2.5,0.7,3.7H68.1z M60.5,11.9c0,1-0.3,2.5-1.5,2.5h-0.8v-9H59c1.3,0,1.5,1.4,1.5,2.5
	L60.5,11.9L60.5,11.9z"/>
</svg>
