<?xml version="1.0" encoding="utf-8"?>
<!-- Generator: Adobe Illustrator 23.0.5, SVG Export Plug-In . SVG Version: 6.00 Build 0)  -->
<svg version="1.1" id="Capa_1" xmlns="http://www.w3.org/2000/svg" xmlns:xlink="http://www.w3.org/1999/xlink" x="0px" y="0px"
	 viewBox="0 0 120 127.6" style="enable-background:new 0 0 120 127.6;" xml:space="preserve">
<style type="text/css">
	.st0{fill:#FFFFFF;}
	.st1{fill:#F0881A;}
</style>
<path class="st0" d="M118.4,68.4c1-1.4,1.6-3,1.6-4.8c0-1.5-0.4-2.9-1.1-4c0.2-0.7,0.3-1.4,0.3-2.2c0-1.5-0.4-2.8-1.2-4
	c-0.1-1.3-0.6-2.6-1.5-3.5C113.2,25,93,0.4,59.9,0l-0.1,0l-0.1,0C30.2,0.3,7.2,20.6,3.1,49.8c-0.8,1-1.4,2.2-1.5,3.5
	c-0.8,1.1-1.2,2.5-1.2,4c0,0.9,0.2,1.8,0.5,2.6C0.3,61,0,62.2,0,63.5c0,1.7,0.5,3.3,1.4,4.6c-0.7,1.3-1,2.7-1,4.2
	c0,2.7,1.2,5.2,3.1,6.9c-0.4,1.2-0.7,2.5-0.7,3.8c0,5.1,3.3,9.4,7.9,10.9c0,0.2,0,0.4,0,0.6c0,5.5,3.5,10.1,8.4,11.8l1.2,0.4
	c1.1,0.3,2.4,0.4,3.6,0.4c1.3,6.2,6.8,10.9,13.4,10.9c2.2,0,4.2-0.5,6.1-1.4c2.8,6.4,9.1,10.8,16.5,10.8c7.4,0,13.8-4.5,16.6-11
	c1.9,1,4.1,1.6,6.3,1.6c6.6,0,12.1-4.7,13.4-10.9c0.1,0,0.2,0,0.3,0c6.9,0,12.6-5.6,12.6-12.6c0-0.2,0-0.5,0-0.7
	c4.4-1.6,7.6-5.8,7.6-10.8c0-1.3-0.2-2.5-0.6-3.6c2-1.7,3.3-4.3,3.3-7.1c0-0.6-0.3-2.2-0.3-2.2C118.9,69.6,118.7,69,118.4,68.4z
	 M72.3,40.7c0.1-1,0-1.9-0.3-2.8c0.5,0.2,1,0.3,1.5,0.3c1.8,0.2,3.5-0.3,4.9-1.4c1.4-1.1,2.3-2.7,2.5-4.5c0.2-1.8-0.3-3.5-1.4-4.9
	c0,0,0-0.1-0.1-0.1l-1.9-1.6c-0.1-0.1-0.2-0.1-0.3-0.2c0.4-0.2,0.8-0.5,1.2-0.8c1.4-1.1,2.3-2.7,2.5-4.5c0.2-1.8-0.3-3.5-1.4-4.9
	c-1.1-1.4-2.7-2.3-4.4-2.5c-1-0.1-1.9,0-2.8,0.3c0.1-0.2,0.1-0.5,0.1-0.7c0-0.3,0-0.6,0-0.9c18.9,5,30.7,20.5,33.9,36.7l-22.3-3.6
	l-1.4-0.2l-0.2,1.3l-9.7-2.2L72.2,45l-1.5-0.5C71.6,43.4,72.2,42.1,72.3,40.7z M75.3,33.5c0.4-0.6,0.7-1.3,0.9-2l1-1.4
	c0.3,0.6,0.4,1.2,0.3,1.8c-0.2,1.8-1.7,3-3.5,2.9C74.5,34.5,74.9,34.1,75.3,33.5z M74.1,16.3c0.2,0,0.3,0,0.5,0v0c0,0,0,0,0,0
	c1.8,0.2,3.1,1.8,2.9,3.7c-0.1,0.8-0.5,1.5-1.1,2.1C76.6,20,75.8,17.8,74.1,16.3z M68.9,10.9C68.9,10.9,68.9,10.9,68.9,10.9
	C68.9,10.9,68.9,10.9,68.9,10.9C68.8,10.9,68.9,10.9,68.9,10.9z M58,25.1c0.2-0.9,1-1.6,1.9-1.5l0.3,0c0.7,0.1,1.1,0.5,1.3,0.7
	c0.2,0.2,0.5,0.7,0.4,1.4v0c-0.1,0.7-0.5,1.1-0.7,1.3c-0.2,0.2-0.7,0.5-1.4,0.4c-0.7-0.1-1.1-0.5-1.3-0.7c-0.2-0.2-0.4-0.6-0.4-1.2
	L58,25.1z M47.9,11.5c0,0.7,0,1.3,0.2,2c-0.6-0.2-1.2-0.4-1.8-0.5c-1.8-0.2-3.5,0.3-4.9,1.4c-1.4,1.1-2.3,2.7-2.5,4.5
	c-0.2,2.2,0.6,4.2,2,5.6L40.8,27c-1,1-1.7,2.4-1.9,3.9c-0.2,1.8,0.3,3.5,1.4,4.9c1.1,1.4,2.7,2.3,4.5,2.5c1.2,0.1,2.4-0.1,3.5-0.5
	c-0.2,0.5-0.3,1-0.4,1.5c-0.2,1.9,0.4,3.8,1.6,5.1L48,44.9l-0.4-1.2l-9.4,2.1L38,44.5l-1.4,0.2l-23.2,3.7
	C17.1,29.8,30.3,15.9,47.9,11.5z M45.2,34.9c-0.9-0.1-1.7-0.5-2.2-1.2c-0.5-0.7-0.8-1.6-0.7-2.4c0.1-0.5,0.3-1.1,0.6-1.5l0.5,0.6
	c0.2,1.7,1,3.4,2.4,4.6C45.6,34.9,45.4,34.9,45.2,34.9z M44.5,17.7c-0.9,1.3-1.3,2.8-1.2,4.3c-0.1-0.1-0.2-0.2-0.3-0.3
	c-0.5-0.7-0.8-1.6-0.7-2.4c0.1-0.9,0.5-1.7,1.2-2.2c0.6-0.5,1.3-0.7,2.1-0.7c0,0,0,0,0.1,0c-0.4,0.3-0.7,0.7-1,1.2L44.5,17.7z
	 M14.3,84.6c-0.8,0-1.5-0.7-1.5-1.5c0-0.8,0.7-1.5,1.5-1.5c0.4,0,0.8,0.2,1,0.3l0.2,0.2c0.2,0.3,0.3,0.6,0.3,0.9
	C15.8,84,15.1,84.6,14.3,84.6z M23.1,97.2c-1.3-0.1-2.3-1.2-2.3-2.6c0-1.2,0.9-2.3,2-2.5c0.5,0.7,1,1.4,1.6,2L23.1,97.2z
	 M37.3,108.2c-2,0-3.6-1.6-3.6-3.6c0-0.9,0.4-1.8,1-2.5c1.9,1,4,1.9,6.1,2.7l0.1,0.5C40.5,106.9,39,108.2,37.3,108.2z M59.8,117.6
	c-4.4,0-8-3.6-8-8c0-0.8,0.1-1.5,0.3-2.2c2.3,0.3,4.7,0.4,7.1,0.4c2.8,0,5.6-0.2,8.2-0.6c0.2,0.7,0.3,1.5,0.3,2.3
	C67.8,114,64.2,117.6,59.8,117.6z M82.7,108.2c-2,0-3.6-1.6-3.6-3.6c0-0.1,0-0.2,0-0.3c2-0.8,3.9-1.7,5.7-2.7c0.9,0.7,1.5,1.7,1.5,3
	C86.4,106.5,84.7,108.2,82.7,108.2z M96.4,97.2c-1.4,0-2.6-1.2-2.6-2.6c0-0.1,0-0.2,0-0.3c0.6-0.7,1.2-1.4,1.8-2.2
	c0.2-0.1,0.5-0.1,0.8-0.1c1.4,0,2.6,1.2,2.6,2.6S97.8,97.2,96.4,97.2z M105.1,84.6c-0.8,0-1.5-0.7-1.5-1.5c0-0.5,0.2-0.8,0.4-1
	l0.1-0.1l0.1-0.1c0.2-0.1,0.5-0.3,0.9-0.3c0.8,0,1.5,0.7,1.5,1.5S105.9,84.6,105.1,84.6z"/>
<path class="st1" d="M91.2,71.5v0.2L91,71.5H91.2z M86.4,66l-3.9-3.2v1.7l1.8,1.5L86.4,66L86.4,66z M114.3,72.4
	c0-2.4-1.9-4.3-4.3-4.3c-1.2,0-2.2,0.5-3,1.2l-9.9-5.2v1.5l9.1,4.8c-0.3,0.6-0.5,1.3-0.5,2c0,2.4,1.9,4.3,4.3,4.3
	S114.3,74.8,114.3,72.4z M96.4,102.2c4.2,0,7.6-3.4,7.6-7.6s-3.4-7.6-7.6-7.6c-1.5,0-2.8,0.4-4,1.1l-9.9-13.4V77l8.9,12
	c-1.5,1.4-2.5,3.4-2.5,5.6C88.9,98.8,92.2,102.2,96.4,102.2z M68.5,66.1l-0.1-0.4l0,0l0,0v0h0l0,0l0,0h0l0,0h0l0,0v0l0,0l0,0l0,0
	l0,0l0,0l0,0l0,0l0,0h0l0,0l0,0l0,0l0,0l0,0l0,0l0,0h0l0,0l0,0l0,0h0h0l0,0l0,0l0,0h0l0,0l0,0l0,0l0,0l0,0l0,0h0l0,0l0,0l0,0l0,0h0
	h0l0,0l0,0h0l0,0l0,0l0,0h0l0,0h0l0,0l0,0l0,0l0,0l0,0l0,0h0l0,0l0,0h0l0,0c-0.2,0.1-0.3,0.1-0.4,0.2L68.5,66.1L68.5,66.1z M74,84.1
	l4.9,12.7c-2.9,1.4-4.8,4.4-4.8,7.8c0,4.8,3.9,8.6,8.6,8.6c4.8,0,8.6-3.9,8.6-8.6c0-4.8-3.9-8.6-8.6-8.6c-0.9,0-1.8,0.1-2.6,0.4
	l-4.8-12.5l0,0l0,0l0,0l0,0l0,0l0,0l0,0l0,0l0,0l0,0l0,0l0,0l0,0l0,0l0,0l0,0l0,0l0,0h0l0,0l0,0h0l0,0l0,0l0,0l0,0v0l0,0l0,0l0,0
	l0,0v0l0,0l0,0l0,0l0,0h0l0,0h0l0,0l0,0h0l0,0l0,0h0l0,0h0l0,0l0,0l0,0l0,0h0l0,0l0,0l0,0l0,0l0,0l0,0h0l0,0l0,0l0,0l0,0l0,0l0,0h0
	l0,0l0,0l0,0l0,0h0l0,0l0,0l0,0l0,0h0l0,0l0,0l0,0l0,0l0,0l0,0l0,0h0l0,0h0l0,0l0,0h0l0,0h0l0,0l0,0l0,0L74,84.1L74,84.1L74,84.1
	L74,84.1L74,84.1L74,84.1L74,84.1L74,84.1L74,84.1z M73.2,78.1l-2.4-6.3h-1.4v0l2.5,6.4h0h0h0h0h0h0h0h0h0h0h0l0,0h0h0l0,0h0h0h0h0
	l0,0h0h0h0h0h0h0l0,0h0l0,0h0l0,0h0l0,0h0h0l0,0h0h0h0h0h0l0,0h0l0,0h0h0l0,0l0,0h0h0l0,0h0h0h0l0,0l0,0h0l0,0h0h0l0,0h0h0h0l0,0
	l0,0l0,0h0h0l0,0v0l0,0h0l0,0h0h0l0,0h0l0,0h0l0,0h0l0,0l0,0h0l0,0h0l0,0h0h0l0,0l0,0l0,0l0,0h0l0,0h0l0,0l0,0h0L73.2,78.1
	L73.2,78.1L73.2,78.1L73.2,78.1L73.2,78.1L73.2,78.1L73.2,78.1L73.2,78.1L73.2,78.1z M76.6,66.9l-0.2-0.2L75,66l0,0l0,0l0,0l0,0l0,0
	l0,0l0,0l0,0l0,0l0,0v0l0,0l0,0h0l0,0l0,0l0,0l0,0v0l0,0l0,0l0,0l0,0l0,0h0l0,0l0,0l0,0l0,0l0,0l0,0l0,0l0,0h0l0,0h0l0,0l0,0v0l0,0
	l0,0l0,0l0,0l0,0l0,0l0,0l0,0l0,0l0,0l0,0l0,0l0,0l0,0v0h0l0,0h0l0,0l0,0l0,0l0,0l0,0l0,0l0,0l0,0l0,0l0,0l0,0l0,0l0,0l0,0h0l0,0
	l0,0v0l0,0l0,0l0,0l0,0l0,0h0l0,0l0,0l0,0l0,0h0l0,0l0,0l0,0l0,0h0l0,0l0,0l0,0l0,0h0l2.6,3.5C76.6,69.1,76.6,66.9,76.6,66.9z
	 M32.3,83L32.3,83L32.3,83L32.3,83L32.3,83L32.3,83L32.3,83l-0.1,0.1l0,0l0,0l0,0l0,0l0,0l0,0l0,0l0,0l0,0l0,0l0,0h0l-0.1,0l0,0l0,0
	l0,0l0,0l0,0l0,0l0,0l-0.1,0l0,0l0,0l0,0l0,0l0,0l0,0l0,0l0,0l0,0l0,0l0,0l0,0l0,0v0l0,0l0,0l0,0l-0.1,0l0,0l0,0l-0.1,0l0,0h0l0,0
	l0,0l0,0l0,0l0,0l0,0l0,0l0,0l0,0l0,0l0,0l0,0l0,0l0,0l0,0l0,0l0,0h0l0,0l0,0l0,0l0,0l0,0l0,0l0,0l0,0l0,0l0,0l0,0l0,0h0l0,0l0,0
	l0,0l0,0h0l0,0l0,0l0,0l0,0h0l0,0l0,0l0,0l0,0l0,0l0,0h0l0,0l0,0l0,0l0,0l0,0l0,0l0,0h0l0,0h0l0,0l0,0l0,0l0,0h0l0,0h0l0,0l0,0l0,0
	l0,0l0,0l0,0v0l0,0l0,0h0l0,0l0,0h0l0,0l0,0l0,0l0,0l0,0l0,0h0l0,0l0,0h0l0,0l0,0h0l0,0l0,0h0l0,0h0l0,0h0l0,0l0,0l0,0l0,0l0,0l0,0
	l0,0l0,0l0,0h0l0,0l0,0h0l0,0h0l0,0l0,0l0,0l-3.1,4c-1.1-0.6-2.3-0.9-3.6-0.9c-4.2,0-7.6,3.4-7.6,7.6c0,4.2,3.4,7.6,7.6,7.6
	c4.2,0,7.6-3.4,7.6-7.6c0-2.4-1.1-4.6-2.9-6L32.3,83 M28.6,104.5c0,4.8,3.9,8.6,8.6,8.6c4.8,0,8.6-3.9,8.6-8.6c0-3.5-2-6.4-4.9-7.8
	l4.9-12.6l0,0l0,0l0,0h0l0,0l0,0l0,0h0l0,0l0,0h0l0,0l0,0l0,0l0,0l0,0l0,0l0,0l0,0h0l0,0l0,0l0,0l0,0l0,0l0,0l0,0l0,0l0,0l0,0l0,0
	l-0.1,0l0,0h0l0,0l0,0l0,0l0,0l0,0l0,0h0l0,0l0,0l0,0l0,0l0,0l0,0h0l0,0l0,0l0,0l0,0l0,0l0,0h0l0,0l0,0l0,0l0,0l0,0l0,0l0,0l0,0l0,0
	l0,0l0,0l0,0l0,0l0,0l0,0l0,0l0,0l0,0l0,0l0,0h0l0,0l-4.9,12.5c-0.8-0.2-1.6-0.4-2.5-0.4C32.5,95.9,28.6,99.7,28.6,104.5z M32.3,83
	L32.3,83L32.3,83L32.3,83 M46.8,109.6c0,7.2,5.8,13,13,13c7.2,0,13-5.8,13-13c0-6.9-5.5-12.6-12.3-13V79l0,0v0l0,0l0,0h0l0,0l0,0
	l0,0l0,0l0,0l0,0l0,0l0,0l0,0l0,0l0,0l0,0l0,0l0,0l0,0l0,0l0,0l0,0l0,0l0,0l0,0l0,0l0,0l0,0l0,0l0,0l0,0l0,0l0-0.1l0,0l0,0l0,0l0,0
	l0,0l0,0l0,0l0,0l0,0l0,0l0,0l0,0l0,0l0,0l0,0l0,0l0,0l0,0l0,0l0,0l0,0l0,0l0,0l0,0l0,0l0,0v0l0,0l0,0l0,0l0,0l0,0l0,0l0,0l0,0l0,0
	l0,0l0,0l0,0l0,0l0,0l0-0.1l0,0l0,0l0,0l0,0l0,0l0,0l0,0l0,0l0,0v0l0,0l0,0v0l0,0l0-0.1l0,0v19.9h0C52.3,97,46.8,102.7,46.8,109.6z
	 M52.2,64.1l-5.6,14.5l0,0l0,0h0l0,0l0,0l0,0l0,0h0l0,0l0,0l0,0h0l0,0h0l0,0h0l0,0h0l0,0l0,0h0l0,0l0,0l0,0h0l0,0l0,0l0,0l0,0l0,0
	l0,0h0l0,0l0,0l0.1,0h0l0,0h0l0,0l0,0h0l0,0l0,0l0,0h0l0,0h0l0,0l0,0h0l0,0h0l0,0l0,0l0,0h0l0,0h0l0,0h0l0,0h0l0,0h0h0h0l0,0h0l0,0
	h0h0l0,0l0,0h0l0.1,0l0,0l0,0h0h0h0h0h0l0.1,0h0h0h0h0l0,0h0l4.3-11L52.2,64.1z M7.8,83.1c0,3.6,2.9,6.5,6.5,6.5
	c3.6,0,6.5-2.9,6.5-6.5c0-1.5-0.5-2.9-1.4-4l9.6-7.7h-2.1v0l-8.4,6.8c-1.1-0.9-2.6-1.5-4.2-1.5C10.7,76.6,7.8,79.6,7.8,83.1z
	 M5.4,72.4c0,2.4,1.9,4.3,4.3,4.3c2.4,0,4.3-1.9,4.3-4.3c0-0.6-0.1-1.1-0.3-1.6l4.1-2.2l0-0.2v0v0v0v0v0v0l0,0v0v0
	c0-0.2,0.1-0.3,0.1-0.5c0-0.1,0-0.2,0.1-0.3l0,0v0l0,0v0l0,0v0l0,0v0l0,0v0l0,0v0v0l0,0l0,0l0,0l0,0l0,0l0,0v0v0l0,0v0v0v0l0,0l0,0
	v0v0v0l0,0l0,0v0l0,0l0,0v0l0,0l0,0v0v0l0,0l0,0l0,0v0l0,0l0,0v0v0l0,0l0,0l0,0l0,0l0,0v0l0,0v0l0,0l0,0l0,0v0v0l0,0l0,0v0l0,0l0,0
	l0,0l0,0l0,0l0,0v0l0,0l0,0v0v0l0,0l0,0l0,0l0,0v0l0,0l0,0l0,0l0,0L13,69.6c-0.8-1-2-1.6-3.3-1.6C7.3,68.1,5.4,70,5.4,72.4z
	 M37.9,73.5l-0.1,0.1v0l0,0v0v0l0,0v0v0v0v0v0l0,0v0l0,0v0v0v0v0v0v0v0l0,0v0v0l0,0v0v0v0l0,0v0v0v0l0,0v0v0v0l0,0v0l0,0v0v0l0,0v0
	l0,0l0,0v0v0v0v0l0,0v0l0,0v0v0v0v0l0,0v0v0l0,0v0v0v0l0,0l0,0v0v0v0l0,0v0v0l0,0v0l0,0v0l0,0v0l0,0v0v0v0l0,0v0l0,0v0v0l0,0v0l0,0
	v0l0,0v0l0,0v0l0,0l0,0v0l0,0v0v0l0,0v0v0l0,0v0l0,0l0,0v0l0,0v0v0l0,0v0l0,0v0l0,0l0,0v0l0,0v0v0v0v0l0,0l0,0v0v0l0,0v0v0v0l0,0
	l0,0v0l0,0v0v0l0,0v0l0,0v0l0,0l0,0v0v0l0,0v0v0v0v0l0,0v0v0v0l0,0l0,0v0l0,0v0l0,0v0v0v0l0,0v0l0,0v0l0,0l0,0v0v0l0,0v0v0l0,0v0
	l0,0v0l0,0l0,0v0l0,0l0,0l0,0v0l0,0v0l0,0v0l0,0v0l0,0l0,0l0,0v0v0l0,0l0,0v0l0,0v0l0,0v0l0,0v0l0,0l0,0l0,0v0l0,0v0l0,0l0,0v0v0v0
	l0,0v0v0l0,0v0l0,0l0,0v0l0,0l0,0l0.4-0.5L37.9,73.5L37.9,73.5z M37.9,62.5l-4.3,3.4h2.1l2.1-1.7V62.5z M105.1,89.6
	c3.6,0,6.5-2.9,6.5-6.5s-2.9-6.5-6.5-6.5c-1.5,0-2.8,0.5-3.9,1.3l-4.1-3.3v1.7l3.1,2.5c-1,1.1-1.6,2.6-1.6,4.3
	C98.6,86.7,101.5,89.6,105.1,89.6z M23.1,67.1c0,0,0-0.2,0.1-0.3c0.1-0.2,0.2-0.3,0.3-0.4c0.5-0.8,1.3-1.5,2.2-2
	c0.9-0.5,1.9-0.7,2.9-0.7c0.6,0,1.1,0.1,1.5,0.2c0.5,0.1,0.9,0.3,1.5,0.5V61l-0.2-0.1c-0.5-0.2-1-0.3-1.4-0.4
	c-0.5-0.1-1-0.1-1.5-0.1c-1.2,0-2.3,0.2-3.5,0.7c-1.1,0.5-2.1,1.1-3,1.9c-0.9,0.8-1.6,1.7-2.2,2.8c-0.6,1.1-0.9,2.2-0.9,3.4v1.1
	h14.6c0,0.3,0,0.7,0,1c0,0.3,0,0.6,0,0.8c0,0.8-0.1,1.5-0.1,2c0,0.5-0.1,0.9-0.1,1.2c0,0.3-0.1,0.5-0.1,0.6c0,0.1-0.1,0.2-0.1,0.4
	c-0.5,1.2-1.3,2.1-2.3,2.8c-1.1,0.7-2.3,1-3.6,1c-1.2,0-2.4-0.4-3.6-1.1v3.5l0.3,0.2c1.4,0.4,2.5,0.6,3.3,0.6c1,0,1.9-0.1,2.8-0.4
	c0.9-0.3,1.7-0.7,2.5-1.2c0.8-0.5,1.4-1.1,2-1.9c0.6-0.7,1.1-1.5,1.4-2.4c0-0.2,0.1-0.4,0.2-0.6c0.1-0.2,0.1-0.6,0.2-1
	c0.1-0.5,0.1-1.1,0.2-1.9c0.1-0.8,0.1-1.9,0.1-3.3c0-0.5,0-0.9,0-1.5c0-0.5,0-1.1,0-1.7L23.1,67.1L23.1,67.1z M48,83.2
	c1.1,0,2.2-0.2,3.3-0.6c1.1-0.4,2.1-0.9,2.9-1.6c0.8-0.7,1.5-1.5,2-2.4c0.5-0.9,0.7-1.9,0.7-3v-15h-3.5l0,15.2
	c0,0.6-0.2,1.2-0.5,1.7c-0.3,0.5-0.8,1-1.3,1.4c-0.5,0.4-1.1,0.7-1.7,0.9C49.2,79.9,48.6,80,48,80c-0.8,0-1.5-0.1-2.1-0.3
	c-0.6-0.2-1.1-0.5-1.5-0.9c-0.4-0.4-0.8-0.9-1.1-1.4c-0.3-0.5-0.5-1.1-0.7-1.8V60.4H39V76c0.2,1,0.5,2,1,2.9c0.5,0.9,1.2,1.6,2,2.3
	c0.8,0.6,1.7,1.1,2.7,1.5C45.7,83,46.8,83.2,48,83.2z M73.8,82.9c0.4-0.1,0.8-0.1,1.1-0.2c0.3-0.1,0.5-0.1,0.5-0.2v-3.9
	c-0.6,0.3-1.2,0.5-1.9,0.6c-0.7,0.1-1.3,0.2-1.9,0.2c-1,0-2-0.2-3-0.6c-1-0.4-1.9-0.9-2.7-1.6c-0.8-0.7-1.4-1.5-2-2.4
	c-0.5-0.9-0.8-1.9-0.8-2.9c0-0.2,0-0.4,0-0.6c0-0.2,0-0.4,0.1-0.6h7.8v-3.4h-6.6c0.6-1.1,1.6-1.8,2.9-2.4c1.3-0.5,2.7-0.8,4.2-0.8
	c0.6,0,1.3,0.1,1.9,0.2c0.6,0.1,1.2,0.4,1.8,0.6v-4c0,0-0.1,0-0.2,0C75.1,61,75,61,75,60.9h0c-0.6-0.2-1.2-0.3-1.8-0.4
	c-0.6-0.1-1.2-0.1-1.8-0.1c-1.7,0-3.2,0.3-4.7,0.9c-1.5,0.6-2.8,1.4-3.9,2.4c-1.1,1-2,2.2-2.6,3.6c-0.6,1.4-1,2.9-1,4.4s0.3,3,1,4.4
	c0.6,1.4,1.5,2.6,2.6,3.6c1.1,1,2.4,1.8,3.9,2.4c1.5,0.6,3,0.9,4.7,0.9c0.3,0,0.6,0,1.1-0.1C72.9,83,73.4,83,73.8,82.9z M95.9,60.5
	h-3.6v6.7H81.4v-6.7h-3.6v22.6h3.6V70.4h10.9v12.7h3.6C95.9,83.1,95.9,60.5,95.9,60.5z M60.8,19.6c2.9,0.6,4.5,2.6,4.8,4.9
	C65.6,22.4,63.8,19.9,60.8,19.6z M115,63.5c0,1.8-1.4,3.2-3.2,3.2c-1.8,0-3.2-1.4-3.2-3.2c0-0.3,0-0.5,0.1-0.8l-40.8-14L91.2,61v1.5
	L65.4,49L78,59.2h-1.4v0.5L63.4,49.1L71,59.2h0h0l0,0h0h0h0l0,0l0,0h0h0h0l0,0h0h0l0,0h0l0,0h0l0,0l0,0l0,0h0l0,0h0h0l0,0l0,0l0,0
	l0,0h0l0,0l0,0h0l0,0h0l0,0l0,0h0l0,0l0,0h0h0l0,0h0l0,0l0,0l0,0l0,0l0,0l0,0h0l0,0h0l0,0h0l0,0l0,0l0,0l0,0h0l0,0l0,0l0,0l0,0h0
	l0,0h0l0,0l0,0l0,0l0,0h0l0,0l0,0l0,0h0l0,0l0,0l0,0l-7.2-9.8l4.1,10.6l0,0l0,0l0,0l0,0l0,0l0,0l0,0l0,0l0,0h0l0,0l0,0l0,0l0,0h0
	l0,0l0,0l0,0l0,0h0l0,0l0,0l0,0l0,0l0,0l0,0l0,0l0,0l0,0l0,0l0,0l0,0l0,0l0,0l0,0l0,0l0,0l0,0l0,0l0,0l0,0l0,0l0,0l0,0l0,0l0,0l0,0
	l0,0l0,0l0,0l0,0l0,0l0,0l0,0l0,0l0,0l0,0l0,0h0l0,0l0,0l0,0l0,0l0,0l0,0l0,0l0,0l0,0l0,0l0,0l0,0l0,0l0,0l0,0l0,0l0,0l0,0l0,0
	l-4.6-11.9v15.7l0,0v0l0,0l-0.1,0.1l0,0l0,0l0,0l0,0l0,0l0,0l0,0l0,0l0,0l0,0l0,0l0,0l0,0l0,0l0,0l0,0l0,0l0,0l0,0l0,0l0,0l0,0.1
	l0,0l0,0l-0.1,0.1l0,0l0,0l0,0l0,0l0,0l0,0l0,0l0,0l0,0l0,0l0,0l0,0l0,0l0,0l0,0l0,0l0,0l0,0l0,0l0,0l0,0l0,0l0,0l0,0l0,0l0,0l0,0v0
	l0,0l0,0l0,0l0,0l0,0l0,0l0,0l0,0l0,0l0,0.1l0,0l0,0l0,0l0,0l0,0l0,0l0,0l0,0l0,0l0,0l0,0l0,0l0,0l0,0v0l0,0l0,0l0,0.1v0l0,0l0,0V50
	l-3.7,9.4h-1.4l3.9-9.9L43.7,68.1v-2.2l12.7-16.6L43.7,59.5v-0.3h-1.8l12.5-10.1L32.8,60.6l0-0.5l-1.1-0.4l0,0l0,0l0,0l20.7-11
	l-41,14.2c0,0.2,0.1,0.5,0.1,0.7c0,1.8-1.5,3.2-3.2,3.2S5,65.3,5,63.5c0-1.8,1.5-3.2,3.2-3.2c1.1,0,2,0.5,2.6,1.3l37.9-13.1
	L9.7,57.4c0,1.2-1,2.1-2.2,2.1c-1.2,0-2.2-1-2.2-2.2c0-1.2,1-2.2,2.2-2.2c0.7,0,1.4,0.4,1.8,0.9l29.3-6.6l-1.4,0.2L8.6,54.2
	c-0.2,0.4-0.5,0.6-1,0.6c-0.6,0-1.1-0.5-1.1-1.1c0-0.6,0.5-1.1,1.1-1.1c0,0,0.1,0,0.1,0C10.8,23.8,33.2,5.3,59.8,5
	c29.7,0.4,49.7,22.6,52.1,47.7c0,0,0.1,0,0.1,0c0.6,0,1.1,0.5,1.1,1.1c0,0.6-0.5,1.1-1.1,1.1c-0.4,0-0.8-0.3-1-0.6l-27.9-4.5
	l-1.2-0.1l28.5,6.4c0.4-0.5,1-0.9,1.7-0.9c1.2,0,2.2,1,2.2,2.2c0,1.2-1,2.2-2.2,2.2c-1.2,0-2.2-1-2.2-2.2v0l-38.5-8.7l37.7,13
	c0.6-0.8,1.5-1.3,2.6-1.3C113.6,60.3,115,61.8,115,63.5z M74,21.3c0.9,0.1,1.8-0.6,1.9-1.5c0.1-0.9-0.6-1.8-1.5-1.9
	c-0.9-0.1-1.7,0.6-1.9,1.5C72.5,20.4,73.1,21.2,74,21.3z M74,33.3c0.9,0.1,1.8-0.6,1.9-1.5c0.1-0.9-0.6-1.8-1.5-1.9
	c-0.9-0.1-1.7,0.6-1.9,1.5C72.5,32.3,73.1,33.2,74,33.3z M67.3,20.5c-0.7,1-0.4,2.4,0.6,3.1c1,0.7,2.5,0.4,3.1-0.6
	c0.7-1,0.4-2.4-0.6-3.1C69.4,19.1,68,19.4,67.3,20.5z M65.5,13.5c0.9,0.1,1.8-0.6,1.9-1.5c0.1-0.9-0.6-1.8-1.5-1.9
	c-0.9-0.1-1.7,0.6-1.9,1.5C63.9,12.6,64.6,13.4,65.5,13.5z M62.6,18c1,0.7,2.4,0.4,3.1-0.6c0.7-1,0.4-2.4-0.6-3.1
	c-1-0.7-2.4-0.4-3.1,0.6C61.3,15.9,61.6,17.4,62.6,18z M57.3,14.3c-1-0.7-2.4-0.4-3.1,0.6c-0.7,1-0.4,2.4,0.6,3.1
	c1,0.7,2.4,0.4,3.1-0.6C58.7,16.4,58.4,15,57.3,14.3z M54.4,13.5c0.9,0.1,1.8-0.6,1.9-1.5c0.1-0.9-0.6-1.8-1.5-1.9
	c-0.9-0.1-1.8,0.6-1.9,1.5C52.8,12.6,53.5,13.4,54.4,13.5z M45.8,30c-0.9-0.1-1.8,0.6-1.9,1.5c-0.1,0.9,0.6,1.8,1.5,1.9
	c0.9,0.1,1.8-0.6,1.9-1.5C47.4,30.9,46.7,30.1,45.8,30z M45.8,18c-0.9-0.1-1.8,0.6-1.9,1.5c-0.1,0.9,0.6,1.8,1.5,1.9
	c0.9,0.1,1.8-0.6,1.9-1.5C47.4,18.9,46.7,18.1,45.8,18z M51.8,27.6c-1-0.7-2.4-0.4-3.1,0.6c-0.7,1-0.4,2.4,0.6,3.1
	c1,0.7,2.4,0.4,3.1-0.6C53.1,29.7,52.8,28.3,51.8,27.6z M51.8,19.8c-1-0.7-2.4-0.4-3.1,0.6c-0.7,1-0.4,2.4,0.6,3.1
	c1,0.7,2.4,0.4,3.1-0.6C53.1,21.9,52.8,20.5,51.8,19.8z M54.8,38.3c-0.9-0.1-1.8,0.6-1.9,1.5c-0.1,0.9,0.6,1.7,1.5,1.9
	c0.9,0.1,1.8-0.6,1.9-1.5C56.4,39.3,55.7,38.4,54.8,38.3z M57.3,33c-1-0.7-2.4-0.4-3.1,0.6c-0.7,1-0.4,2.4,0.6,3.1
	c1,0.7,2.4,0.4,3.1-0.6C58.7,35.1,58.4,33.7,57.3,33z M66.8,26.3c0.4-3.8-2.3-7.2-6.1-7.7c0,0,0,0-0.1,0c0,0-0.1,0-0.1,0
	c-3.7-0.4-7.1,2.3-7.5,6c0,0,0,0.1,0,0.1c0,0,0,0,0,0.1c-0.4,3.8,2.3,7.2,6.1,7.7C62.9,32.8,66.3,30.1,66.8,26.3z M65.7,36.2
	c0.7-1,0.4-2.4-0.6-3.1c-1-0.7-2.4-0.4-3.1,0.6c-0.7,1-0.4,2.4,0.6,3.1C63.6,37.5,65,37.2,65.7,36.2z M65.9,38.3
	c-0.9-0.1-1.7,0.6-1.9,1.5c-0.1,0.9,0.6,1.7,1.5,1.9c0.9,0.1,1.8-0.6,1.9-1.5C67.4,39.3,66.8,38.4,65.9,38.3z M71.1,30.7
	c0.7-1,0.4-2.4-0.6-3.1c-1-0.7-2.4-0.4-3.1,0.6c-0.7,1-0.4,2.4,0.6,3.1C69,32.1,70.4,31.8,71.1,30.7z"/>
</svg>
