<?xml version="1.0" encoding="UTF-8"?>
<svg xmlns="http://www.w3.org/2000/svg" id="圖層_1" data-name="圖層 1" viewBox="0 0 580.31 151.3">
  <defs>
    <style>.cls-1{fill:#00acec;stroke:#00acec;stroke-miterlimit:10;stroke-width:1.31px;}.cls-2{fill:#71b566;}.cls-3{fill:#cd3036;}</style>
  </defs>
  <title>Logo Sumart.cl</title>
  <path class="cls-1" d="M77.15,476.06v-7.27l-1.38-1.29H22.22a8.14,8.14,0,0,1-4.83-1.7,20.52,20.52,0,0,1-4.28-4.21,26.38,26.38,0,0,1-3.24-5.41,22.32,22.32,0,0,1-1.73-5.33v-8.08A43.05,43.05,0,0,1,9,434a27.11,27.11,0,0,1,2.83-7.84,17.72,17.72,0,0,1,5-5.74,12.08,12.08,0,0,1,7.45-2.26H95l-.14,2.42c-.19,1.4-.39,3.1-.62,5.09s-.46,3.94-.69,5.82-.53,4.18-.9,6.87H27.33l-1.52,1.13v7.6H78.67A11.62,11.62,0,0,1,84,448.58a21,21,0,0,1,5.25,3.88,23.59,23.59,0,0,1,4,5.34,12,12,0,0,1,1.59,5.82v16.32a13.18,13.18,0,0,1-1.38,5.66A22.29,22.29,0,0,1,90,490.85a21.09,21.09,0,0,1-4.49,3.88,8.68,8.68,0,0,1-4.62,1.53h-70c0-1,.11-2.55.35-4.76s.48-4.45.75-6.71.53-4.28.76-6.06a9.71,9.71,0,0,1,.49-2.67Z" transform="translate(-7.48 -345.63)"></path>
  <path class="cls-1" d="M122.42,476.06h49.83V418.2h17.67v61.74a13,13,0,0,1-1.59,6.22,20.84,20.84,0,0,1-3.93,5.26,18.23,18.23,0,0,1-5.25,3.55,13.16,13.16,0,0,1-5.38,1.29H119.39a12.1,12.1,0,0,1-5.59-1.45,20.63,20.63,0,0,1-5.18-3.8,20,20,0,0,1-3.86-5.41,14.34,14.34,0,0,1-1.52-6.47V418.2H120.9v56.08Z" transform="translate(-7.48 -345.63)"></path>
  <path class="cls-1" d="M198.2,418.2H217l32,58.67,31.74-58.67H299.5v78.06H282.25v-42l-23.19,42H238.78l-23.19-42v42H198.2Z" transform="translate(-7.48 -345.63)"></path>
  <path class="cls-1" d="M305.85,496.26,341.6,431a34.48,34.48,0,0,1,2.83-4.45,23.69,23.69,0,0,1,3.86-4.12,24.7,24.7,0,0,1,4.49-3,10.35,10.35,0,0,1,4.83-1.21h39.61v78.06H380V476.71H337.6l-11.32,19.55ZM380,438.72H359.13c-.28,0-.95.79-2,2.35s-2.19,3.34-3.38,5.33-2.3,3.93-3.32,5.82a39.13,39.13,0,0,0-1.93,4H380Z" transform="translate(-7.48 -345.63)"></path>
  <path class="cls-1" d="M405.5,418.2h70.81a13.09,13.09,0,0,1,8,2.26,16.54,16.54,0,0,1,4.83,5.74,24.55,24.55,0,0,1,2.41,7.84,60.92,60.92,0,0,1,.62,8.73v8.08a14.93,14.93,0,0,1-1.1,5.17,21.1,21.1,0,0,1-3,5.41,20.24,20.24,0,0,1-4.48,4.29,9.25,9.25,0,0,1-5.32,1.78H468.3l23.88,28.76H469.41L446,467.5H423.17v28.76H405.5Zm17.67,20.2v8.89h49.69l1.93-1.94v-5.82l-1.65-1.13Z" transform="translate(-7.48 -345.63)"></path>
  <path class="cls-1" d="M534.69,438.4H500.46V418.2h86.68v20.2H552.36v57.86H534.69Z" transform="translate(-7.48 -345.63)"></path>
  <path class="cls-2" d="M244,417.3q-6.36-12.87-21-12.88a32.4,32.4,0,0,0-8,1.5,32.35,32.35,0,0,1-7.94,1.5,7.59,7.59,0,0,1-7.06-7.06,8.16,8.16,0,0,1,2.47-5.65,7.36,7.36,0,0,1,5.47-2.65,40.33,40.33,0,0,1,15.36,3.18q4.77,1.93,12.36,9.53Q243.79,412.89,244,417.3Z" transform="translate(-7.48 -345.63)"></path>
  <path class="cls-2" d="M241.85,404.42q-3.54-5.3-11.12-11.3t-13.42-7.95c-6.59-1.06-10-1.59-10.24-1.59q-5.82-1.93-5.83-7.06,0-3.18,3.09-7.06t6.09-3.88c.94,0,3,.88,6.18,2.64a41,41,0,0,1,6.36,4.06,52.78,52.78,0,0,1,8.12,8.12,68,68,0,0,1,10.77,21.9Z" transform="translate(-7.48 -345.63)"></path>
  <path class="cls-2" d="M245,406.18q-1.77-20.65-6-31.42a64.14,64.14,0,0,0-7.76-13.42l-5.48-7.59c0-1.77,1.44-3.56,4.33-5.39s5.26-2.73,7.15-2.73q-.52,0,4.77.7a15.83,15.83,0,0,1,3,3Z" transform="translate(-7.48 -345.63)"></path>
  <path class="cls-3" d="M258.62,431.43a7.9,7.9,0,0,1-2.65,6,9,9,0,0,1-12.35,0,8.32,8.32,0,0,1-.09-12.09,9.41,9.41,0,0,1,12.53,0A7.94,7.94,0,0,1,258.62,431.43Z" transform="translate(-7.48 -345.63)"></path>
  <path class="cls-2" d="M271.86,353.22q-1.23,1.59-5.65,7.41a53.51,53.51,0,0,0-9,17.13A136.94,136.94,0,0,0,252.09,408l-.18-58.62c0-1.17,1.06-2.12,3.18-2.82a13.69,13.69,0,0,1,4.59-.88q2.47,0,7.33,2.73T271.86,353.22Z" transform="translate(-7.48 -345.63)"></path>
  <path class="cls-2" d="M297.64,374.23q0,6.18-12,7.59-5.64.71-7.59,1.76-16.41,9.54-21.36,20.31,1.77-11.47,11.12-26.31,1.59-2.47,10-8.65t10.5-6.18q3.18,0,6.27,4.06T297.64,374.23Z" transform="translate(-7.48 -345.63)"></path>
  <path class="cls-2" d="M299.05,397.18a7.86,7.86,0,0,1-7.41,7.41q-12-3-15.36-3a34.25,34.25,0,0,0-5.12.18,64.18,64.18,0,0,0-7.59,3c-1.65.71-3.39,2.38-5.21,5a29.41,29.41,0,0,0-3.8,7.15q.88-6,3.35-9.18,14.31-18.54,32.84-18.54a8.23,8.23,0,0,1,5.74,2.39A7.36,7.36,0,0,1,299.05,397.18Z" transform="translate(-7.48 -345.63)"></path>
</svg>
