<?xml version="1.0" encoding="utf-8"?>
<!-- Generator: Adobe Illustrator 27.5.0, SVG Export Plug-In . SVG Version: 6.00 Build 0)  -->
<svg version="1.1" id="Logo_incl._Clearspace" xmlns="http://www.w3.org/2000/svg" xmlns:xlink="http://www.w3.org/1999/xlink"
	 x="0px" y="0px" viewBox="0 0 109.6 14" style="enable-background:new 0 0 109.6 14;" xml:space="preserve">
<style type="text/css">
	.st0{fill:#E32E34;}
</style>
<path class="st0" d="M18.9,9.1c0.9-2,2.4-5.8,2.4-5.8h5.2c0,0-1.9,4.5-2.3,5.4c-0.4,0.9,0,1.2,0.7,1.2h1.9c0.9,0,1.4-0.6,2-2
	c0.3-0.6,2-4.6,2-4.6h3.6c0,0-1.4,3.3-2.4,5.6c-1,2.3-2.5,3.5-5,3.5h-6.1C19.2,12.5,18.1,11,18.9,9.1"/>
<path class="st0" d="M46.1,3.3c1.8,0,3.3,1.3,2.3,3.6c-0.5,1.3-2.3,5.5-2.3,5.5h-3.5c0,0,1.7-4,2.4-5.6c0.4-1,0.1-1.3-0.6-1.3h-1.8
	c-0.8,0-1.5,0.4-1.9,1.1c-0.4,1-2.5,5.9-2.5,5.9h-5.6c0,0,1.9-4.6,2.5-6.1c0.7-1.9,2.5-3.1,4.5-3.1L46.1,3.3z"/>
<path class="st0" d="M62.3,7.2c0.5,0.9,3.3,5.3,3.3,5.3H61c0,0-2.9-4.8-3.4-5.7c-0.4-0.7,0-1.5,1-1.5h1.9c0.8,0.1,1.6-0.4,1.9-1.2
	c0.1-0.6-0.2-1-0.7-1h-3.8l-4,9.5h-5.8l4.8-11.5h11.9C66,1,67,1.9,67.1,3c0,0.3,0,0.6-0.1,0.9c-0.3,1.1-1.1,2-2.1,2.6
	C64.1,6.9,63.2,7.2,62.3,7.2"/>
<path class="st0" d="M74.7,8.3h-3.3c-0.6,0-1.4,0.1-1.6,0.5c-0.4,0.8,0.2,1.1,1,1.1H72C73.2,10,74.3,9.4,74.7,8.3 M69.9,4.4
	c0.3-0.7,1-1.1,1.7-1.1h6.1c1-0.1,2,0.5,2.5,1.4c0.4,0.7,0.2,1.6-0.5,3.4c-0.6,1.4-1.9,4.4-1.9,4.4h-7.7c-2.9,0-4.5-1.5-3.6-3.7
	c0.6-1.6,2.6-2.1,4-2.1h4.9c0,0,0.9-1.5-0.5-1.5h-5.2L69.9,4.4z"/>
<path class="st0" d="M15.7,6.5c1.3,0.7,1.7,2.2,1.1,3.5c-0.1,0.1-0.1,0.2-0.2,0.3c-0.8,1.3-2.2,2.1-3.8,2.1H1.1l1.1-2.5h8.6
	c0,0-4.1-2.6-4.8-3.1C5,6.1,3.8,4.6,4.9,3c0.9-1.4,2.5-2.2,4.2-2h11L19,3.4h-7.9C11.5,3.6,15,6.1,15.7,6.5"/>
<path class="st0" d="M83.5,12.5c-0.7,0-1.3-0.2-1.8-0.7c-0.7-0.6-1-1.5-0.8-2.4C81,8,81.6,6.7,82.6,5.6c1.3-1.4,3.1-2.2,5-2.2h8.1
	l-0.8,1.8h-5.4c-0.3,0-0.5,0-0.8,0.1c-0.5,0.1-0.7,0.4-1,0.8c-0.5,0.8-0.9,1.7-1.2,2.6c-0.2,0.9,0,1.3,0.9,1.3h5.5l-1.1,2.5
	L83.5,12.5"/>
<path class="st0" d="M105.4,6.7h-4.5c0.7-1.3,1.1-1.5,1.8-1.5h1.9c0.5,0,0.8,0,1,0.4S105.6,6.3,105.4,6.7 M108,4.8
	c-0.3-0.7-1.5-1.5-3.3-1.5h-3.5c-1.8,0-3.5,0.7-4.8,2c-1.1,1-1.8,2.4-1.9,3.9c-0.1,1.2,0.4,3.2,2.6,3.2h8.4l1.1-2.5h-5.4
	c-1.2,0-1.5-0.3-1-1.7h7.4C108.3,7.2,108.4,6,108,4.8"/>
</svg>
