<?xml version="1.0" encoding="UTF-8"?>
<svg version="1.1" xmlns="http://www.w3.org/2000/svg" width="600" height="600">
<path d="M0 0 C198 0 396 0 600 0 C600 198 600 396 600 600 C402 600 204 600 0 600 C0 402 0 204 0 0 Z " fill="#FEFEFE" transform="translate(0,0)"/>
<path d="M0 0 C0.90164886 -0.00686325 1.80329773 -0.0137265 2.73226929 -0.02079773 C5.70351052 -0.03905003 8.6742227 -0.03522917 11.64550781 -0.02954102 C13.72048107 -0.03410476 15.79545281 -0.03941091 17.87042236 -0.04542542 C22.21803936 -0.05435437 26.56547266 -0.05193719 30.91308594 -0.04199219 C36.46561716 -0.03052463 42.01751032 -0.05068142 47.56995773 -0.07990932 C51.85613999 -0.09832228 56.14217096 -0.09796833 60.42838287 -0.0922718 C62.47436668 -0.0921191 64.52036108 -0.09812137 66.56630707 -0.11056328 C89.92653839 -0.23257446 89.92653839 -0.23257446 96.53533936 5.99293518 C97.97363281 7.65405273 97.97363281 7.65405273 99.84863281 10.40405273 C103.57884088 8.67602762 106.54784962 6.38877098 109.75097656 3.84155273 C114.38885008 0.6632707 118.34064348 0.15250102 123.91239929 0.14335632 C124.61198676 0.13953078 125.31157424 0.13570523 126.03236133 0.13176376 C128.37052818 0.12146647 130.70844796 0.12541969 133.04663086 0.12939453 C134.72570523 0.1250461 136.40477761 0.11986251 138.08384705 0.11390686 C142.64195064 0.10051599 147.19997131 0.09993857 151.75809073 0.10247016 C155.56741401 0.10354037 159.37672054 0.09865494 163.18604022 0.09386474 C172.17832016 0.08276806 181.17055833 0.08233227 190.1628418 0.08837891 C199.42578966 0.09441209 208.68858537 0.08212472 217.95150727 0.06080884 C225.91349175 0.04316332 233.87542795 0.03719635 241.83743125 0.04044658 C246.58848283 0.04225576 251.33942602 0.03966033 256.09045982 0.02573204 C260.56304453 0.01311121 265.03539334 0.01513789 269.50797462 0.02814293 C271.14375007 0.03049947 272.77954232 0.02780731 274.41529846 0.01951981 C284.92483657 -0.02985929 294.8999799 0.1399957 303.84863281 6.40405273 C304.17863281 4.42405273 304.50863281 2.44405273 304.84863281 0.40405273 C314.58501243 0.31105317 324.32128501 0.24013649 334.05801964 0.19680405 C338.58001864 0.17599839 343.101712 0.14781044 347.62353516 0.10229492 C351.99372962 0.05858485 356.36363154 0.03486292 360.73402786 0.02454376 C362.3948794 0.01719726 364.05571634 0.00285201 365.71644211 -0.01886749 C375.7331698 -0.14456674 385.10382405 -0.22677868 393.28613281 6.36889648 C393.80175781 7.01987305 394.31738281 7.67084961 394.84863281 8.34155273 C395.65300781 9.31415039 395.65300781 9.31415039 396.47363281 10.30639648 C400.47358839 16.40860145 400.54614098 22.30441602 399.84863281 29.40405273 C398.58736827 34.72873086 396.92956268 39.87530803 394.77832031 44.90795898 C393.72156579 47.74521166 393.32450191 50.41136484 392.84863281 53.40405273 C392.0901866 56.77178574 391.25123653 60.11838427 390.41113281 63.46655273 C390.19392578 64.35149414 389.97671875 65.23643555 389.75292969 66.14819336 C388.6996227 70.36458439 387.62852666 74.42205766 385.84863281 78.40405273 C367.28881864 79.49580651 367.28881864 79.49580651 359.79394531 73.81420898 C357.73951271 72.32495162 356.3755238 71.62901404 353.84863281 71.40405273 C352.15929359 73.04773414 350.49603357 74.71834033 348.84863281 76.40405273 C343.48170283 79.22658888 339.14370247 79.87123062 333.13378906 79.87280273 C332.31921738 79.88041626 331.50464569 79.88802979 330.66539001 79.89587402 C328.95184374 79.90662324 327.23823223 79.90954932 325.5246582 79.9050293 C322.92123946 79.90405651 320.320768 79.94574252 317.71777344 79.98999023 C316.04395139 79.99519811 314.37011921 79.99788541 312.69628906 79.99780273 C311.92833511 80.014198 311.16038116 80.03059326 310.36915588 80.04748535 C305.0306762 79.98013525 301.85671214 78.60385456 297.54240417 75.46395874 C295.81207203 74.15612877 295.81207203 74.15612877 293.23925781 74.53686523 C292.53285156 74.86428711 291.82644531 75.19170898 291.09863281 75.52905273 C290.38191406 75.84100586 289.66519531 76.15295898 288.92675781 76.47436523 C288.24097656 76.78116211 287.55519531 77.08795898 286.84863281 77.40405273 C279.2393002 79.92942076 268.54461146 79.75270217 261.28613281 76.34155273 C256.81059628 73.70621143 253.24552934 70.30710934 249.84863281 66.40405273 C249.16800781 67.95092773 249.16800781 67.95092773 248.47363281 69.52905273 C248.21839844 70.10913086 247.96316406 70.68920898 247.70019531 71.28686523 C246.63003292 73.94754421 245.75552091 76.68338845 244.84863281 79.40405273 C227.02863281 79.40405273 209.20863281 79.40405273 190.84863281 79.40405273 C190.84863281 78.08405273 190.84863281 76.76405273 190.84863281 75.40405273 C190.34501221 75.68845215 189.8413916 75.97285156 189.32250977 76.26586914 C181.22997073 80.19134808 173.35019957 79.94781958 164.56079102 79.81567383 C162.02417211 79.77887924 159.48900807 79.77465736 156.95214844 79.77514648 C155.32778691 79.76532303 153.70343519 79.7536694 152.07910156 79.73999023 C151.3269487 79.73776459 150.57479584 79.73553894 149.79985046 79.73324585 C146.59072453 79.67541965 144.06796999 79.49497994 141.08422852 78.25805664 C140.34648193 77.97623535 139.60873535 77.69441406 138.84863281 77.40405273 C138.29338551 77.7114784 137.7381382 78.01890408 137.16606522 78.33564568 C133.97839783 79.80525762 130.97480903 79.6736656 127.53411865 79.64456177 C126.42643297 79.64712504 126.42643297 79.64712504 125.29636979 79.6497401 C122.82117916 79.65303516 120.34625942 79.64203112 117.87109375 79.63110352 C116.09712734 79.6305394 114.32316047 79.63085596 112.54919434 79.63198853 C107.73136223 79.63256304 102.91362943 79.62079266 98.09582043 79.60684061 C93.06162709 79.59434979 88.02743154 79.59316405 82.9932251 79.59078979 C73.45935792 79.58457018 63.92553654 79.56815283 54.39168954 79.54809082 C43.53812166 79.52574681 32.68455162 79.51474216 21.83096647 79.50469995 C-0.49650348 79.48378704 -22.82393277 79.44860168 -45.15136719 79.40405273 C-44.8371943 77.96909595 -44.52172753 76.53442242 -44.20571899 75.09986877 C-44.03018305 74.30090463 -43.8546471 73.50194048 -43.67379189 72.6787653 C-43.03814237 69.91105555 -42.26202176 67.20709996 -41.42480469 64.49389648 C-41.11542969 63.48520508 -40.80605469 62.47651367 -40.48730469 61.43725586 C-40.17019531 60.41567383 -39.85308594 59.3940918 -39.52636719 58.34155273 C-39.20152344 57.28516602 -38.87667969 56.2287793 -38.54199219 55.14038086 C-37.74822753 52.56064573 -36.95023361 49.98221256 -36.15136719 47.40405273 C-30.70636719 46.90905273 -30.70636719 46.90905273 -25.15136719 46.40405273 C-26.14136719 44.67155273 -26.14136719 44.67155273 -27.15136719 42.90405273 C-30.47226133 35.36955098 -30.49582485 26.32295794 -28.33886719 18.43139648 C-23.06586836 6.58545815 -12.66954267 -0.06776129 0 0 Z " fill="#080808" transform="translate(75.1513671875,259.595947265625)"/>
<path d="M0 0 C1.28777344 0.01160156 2.57554687 0.02320313 3.90234375 0.03515625 C5.83787109 0.04869141 5.83787109 0.04869141 7.8125 0.0625 C8.81152344 0.07410156 9.81054688 0.08570313 10.83984375 0.09765625 C8.58778649 10.32464568 5.99232618 20.34992439 2.77099609 30.31933594 C2.52043457 31.11629883 2.26987305 31.91326172 2.01171875 32.734375 C1.78581055 33.43264404 1.55990234 34.13091309 1.32714844 34.8503418 C0.62792984 37.69168778 0.62792984 37.69168778 0.83984375 43.09765625 C6.44984375 43.09765625 12.05984375 43.09765625 17.83984375 43.09765625 C18.59910156 40.58011719 19.35835938 38.06257813 20.140625 35.46875 C20.88437231 33.01264608 21.62949831 30.55696439 22.37475586 28.10131836 C22.88921808 26.40351227 23.40226148 24.70527554 23.91381836 23.0065918 C24.65229437 20.55531163 25.3959757 18.10566091 26.140625 15.65625 C26.36575272 14.90492294 26.59088043 14.15359589 26.8228302 13.37950134 C28.22153867 8.80055668 29.87837056 4.46627755 31.83984375 0.09765625 C36.10817356 -0.00199944 40.37586844 -0.07417766 44.64501953 -0.12207031 C46.09403292 -0.1420567 47.542967 -0.16925572 48.99169922 -0.20410156 C63.98449105 -0.5554144 63.98449105 -0.5554144 70.83984375 4.09765625 C74.08967243 7.65215636 74.30214777 11.06256847 74.125 15.69921875 C73.29178303 22.70737242 70.62743232 28.88638728 65.83984375 34.09765625 C62.37737256 36.71562227 61.28084487 37.09765625 56.83984375 37.09765625 C58.42343017 40.26482908 59.29248074 41.83033943 62.52734375 43.41015625 C63.29046875 43.63703125 64.05359375 43.86390625 64.83984375 44.09765625 C64.70707031 44.68933594 64.57429687 45.28101563 64.4375 45.890625 C63.52979197 49.9521215 62.63073245 54.01139796 61.83984375 58.09765625 C55.95410804 58.84902677 52.75510797 57.41355194 47.99609375 53.92578125 C43.93070276 50.47903672 40.44652328 47.13610955 39.37109375 41.75 C39.12434108 35.26246118 40.88115007 29.23023289 42.83984375 23.09765625 C44.44666016 23.00677734 44.44666016 23.00677734 46.0859375 22.9140625 C47.48308766 22.82967088 48.88022232 22.74502219 50.27734375 22.66015625 C50.98439453 22.62083984 51.69144531 22.58152344 52.41992188 22.54101562 C55.92674794 22.62141187 55.92674794 22.62141187 58.83984375 21.09765625 C58.88065158 19.09807261 58.88238731 17.09720371 58.83984375 15.09765625 C55.79771108 13.57658991 52.55936803 13.72336287 49.21484375 13.53515625 C48.15523438 13.47038086 48.15523438 13.47038086 47.07421875 13.40429688 C45.32965838 13.29820874 43.58477678 13.19742736 41.83984375 13.09765625 C41.62908203 14.68707031 41.62908203 14.68707031 41.4140625 16.30859375 C40.82722153 20.18094576 39.92618451 23.76152888 38.85546875 27.51953125 C38.02626752 30.44087096 37.23148891 33.36674385 36.44921875 36.30078125 C35.93407824 38.19153832 35.41844833 40.08216211 34.90234375 41.97265625 C34.66169189 42.88869629 34.42104004 43.80473633 34.1730957 44.74853516 C32.81528934 49.64709312 31.59863024 53.46391745 27.83984375 57.09765625 C21.95894518 59.05795577 15.2503804 58.44505725 9.08007812 58.50268555 C7.3399677 58.52429073 5.59996668 58.55842394 3.86035156 58.60522461 C1.34521226 58.67222823 -1.167688 58.69967798 -3.68359375 58.71875 C-4.45770599 58.74658066 -5.23181824 58.77441132 -6.02938843 58.80308533 C-8.98974181 58.79184482 -11.40355974 58.70670998 -13.76812744 56.80325317 C-16.06066881 54.13457499 -17.75231588 51.6322728 -18.16015625 48.09765625 C-18.56105469 48.484375 -18.96195312 48.87109375 -19.375 49.26953125 C-26.90184646 56.16487358 -33.76163232 58.91977486 -44.07421875 58.53515625 C-49.88546923 57.71128276 -53.31220104 55.41165279 -56.94140625 50.8671875 C-62.5153763 42.80859401 -63.37813855 34.70748958 -62.16015625 25.09765625 C-60.91252355 21.43764284 -59.31620774 18.30093275 -57.16015625 15.09765625 C-60.13015625 15.09765625 -63.10015625 15.09765625 -66.16015625 15.09765625 C-66.27875 15.7628125 -66.39734375 16.42796875 -66.51953125 17.11328125 C-67.30003995 20.7493096 -68.34343166 24.28809593 -69.41015625 27.84765625 C-69.62833008 28.58338867 -69.84650391 29.31912109 -70.07128906 30.07714844 C-70.99998077 33.20865969 -71.93382352 36.33862879 -72.8671875 39.46875 C-73.5499616 41.76119263 -74.23011535 44.05440163 -74.91015625 46.34765625 C-75.1205957 47.04987305 -75.33103516 47.75208984 -75.54785156 48.47558594 C-76.59743817 52.01600819 -77.43391252 55.46643761 -78.16015625 59.09765625 C-83.11015625 59.09765625 -88.06015625 59.09765625 -93.16015625 59.09765625 C-91.51600751 49.66742381 -88.77551157 40.62815097 -86.03515625 31.47265625 C-85.56209458 29.88032872 -85.08943508 28.28788166 -84.6171875 26.6953125 C-83.46947524 22.82803347 -82.31633431 18.96241234 -81.16015625 15.09765625 C-83.47015625 15.09765625 -85.78015625 15.09765625 -88.16015625 15.09765625 C-87.85040157 13.32634064 -87.537252 11.55561847 -87.22265625 9.78515625 C-87.04863281 8.79902344 -86.87460937 7.81289063 -86.6953125 6.796875 C-86.16015625 4.09765625 -86.16015625 4.09765625 -85.16015625 1.09765625 C-77.47548986 0.98139926 -69.79091557 0.89275808 -62.10556793 0.83859539 C-58.53620668 0.81258898 -54.96745056 0.77735897 -51.3984375 0.72045898 C-47.94893008 0.66581341 -44.50000172 0.63616847 -41.0500946 0.62327003 C-39.10469442 0.6096432 -37.15952465 0.57066177 -35.21447754 0.53117371 C-26.44787134 0.52841622 -21.60738569 2.12262299 -15.13671875 7.90625 C-14.69070313 8.44378906 -14.2446875 8.98132813 -13.78515625 9.53515625 C-13.09292969 10.33759766 -13.09292969 10.33759766 -12.38671875 11.15625 C-10.79821462 13.67053839 -10.01401532 16.26076935 -9.16015625 19.09765625 C-8.94081421 18.28760132 -8.94081421 18.28760132 -8.71704102 17.46118164 C-8.0557207 15.02654703 -7.38925937 12.59334946 -6.72265625 10.16015625 C-6.49255859 9.31001953 -6.26246094 8.45988281 -6.02539062 7.58398438 C-5.80302734 6.77509766 -5.58066406 5.96621094 -5.3515625 5.1328125 C-5.04520874 4.00951538 -5.04520874 4.00951538 -4.73266602 2.86352539 C-3.74001579 -0.19823967 -3.43954257 0.10628994 0 0 Z " fill="#F8F8F8" transform="translate(391.16015625,269.90234375)"/>
<path d="M0 0 C24.09 0 48.18 0 73 0 C73 26.07 73 52.14 73 79 C48.91 79 24.82 79 0 79 C-1.98 72.07 -3.96 65.14 -6 58 C-6.804375 55.298125 -7.60875 52.59625 -8.4375 49.8125 C-10.01323289 43.71395219 -10.35001911 39.12700979 -9 33 C-8.60554688 31.10507812 -8.60554688 31.10507812 -8.203125 29.171875 C-6.02606195 19.22768598 -3.05653351 9.78090722 0 0 Z " fill="#0189D0" transform="translate(497,260)"/>
<path d="M0 0 C0.9607695 0.00007553 1.921539 0.00015106 2.91142273 0.00022888 C3.94588028 0.00539017 4.98033783 0.01055145 6.04614258 0.01586914 C7.63789055 0.01799156 7.63789055 0.01799156 9.26179504 0.02015686 C12.65478318 0.02575933 16.0477056 0.03831225 19.44067383 0.05102539 C21.739501 0.05604007 24.03832921 0.06060303 26.3371582 0.06469727 C31.97585254 0.07572956 37.61450849 0.0924701 43.25317383 0.11352539 C42.96388252 1.0720063 42.96388252 1.0720063 42.66874695 2.04985046 C40.57414891 9.00751817 38.55946002 15.98386506 36.60888672 22.98339844 C36.24403287 24.2881814 35.8764791 25.59221214 35.50634766 26.89550781 C34.96392048 28.80627125 34.4306933 30.71963883 33.89770508 32.63305664 C33.58164307 33.7581665 33.26558105 34.88327637 32.93994141 36.04248047 C32.07131019 39.40228902 32.07131019 39.40228902 32.25317383 44.11352539 C37.86317383 44.44352539 43.47317383 44.77352539 49.25317383 45.11352539 C51.46048528 37.79171179 53.61909689 30.45698665 55.75317383 23.11352539 C57.88725077 15.77006413 60.04586237 8.435339 62.25317383 1.11352539 C66.87317383 1.11352539 71.49317383 1.11352539 76.25317383 1.11352539 C77.90317383 8.37352539 79.55317383 15.63352539 81.25317383 23.11352539 C83.03658509 17.7632916 84.79556832 12.44016411 86.44067383 7.05102539 C87.03879883 5.09165039 87.63692383 3.13227539 88.25317383 1.11352539 C92.87317383 1.11352539 97.49317383 1.11352539 102.25317383 1.11352539 C101.55730071 7.53001775 99.84413548 13.54571872 98.06567383 19.73852539 C97.60136963 21.3767627 97.60136963 21.3767627 97.12768555 23.0480957 C95.59419489 28.45093007 94.04259435 33.84854901 92.49145508 39.24633789 C92.21906006 40.19557129 91.94666504 41.14480469 91.66601562 42.12280273 C91.15294162 43.90767067 90.63759427 45.69188718 90.11962891 47.4753418 C89.88783936 48.27891113 89.6560498 49.08248047 89.41723633 49.91040039 C89.21565918 50.60488281 89.01408203 51.29936523 88.80639648 52.01489258 C88.18897265 54.35707055 87.72820459 56.73837158 87.25317383 59.11352539 C82.96317383 59.11352539 78.67317383 59.11352539 74.25317383 59.11352539 C73.41254227 55.88610068 72.58045007 52.6568745 71.75317383 49.42602539 C71.39545898 48.05800781 71.39545898 48.05800781 71.03051758 46.66235352 C70.80493164 45.77612305 70.5793457 44.88989258 70.34692383 43.97680664 C70.13745117 43.1651001 69.92797852 42.35339355 69.7121582 41.51708984 C69.23045094 38.99453239 69.1734254 36.67544356 69.25317383 34.11352539 C68.59317383 34.11352539 67.93317383 34.11352539 67.25317383 34.11352539 C67.12297852 34.96817383 66.9927832 35.82282227 66.85864258 36.70336914 C66.25607691 40.09717448 65.49439642 43.35691976 64.56567383 46.67602539 C64.27305664 47.77043945 63.98043945 48.86485352 63.67895508 49.99243164 C61.9565491 53.76284911 59.7951447 56.04478785 56.25317383 58.11352539 C53.29202152 58.61596452 50.91855876 58.84056108 47.96801758 58.81274414 C47.18930801 58.81989944 46.41059845 58.82705475 45.60829163 58.83442688 C43.97031797 58.84217578 42.33224034 58.83725133 40.69433594 58.8203125 C38.19308658 58.80104398 35.69736826 58.84054065 33.1965332 58.88500977 C31.5995247 58.88530008 30.00251112 58.8821612 28.40551758 58.87524414 C27.66269028 58.89052658 26.91986298 58.90580902 26.15452576 58.92155457 C23.20928932 58.85565354 20.9224097 58.68769583 18.63674927 56.72671509 C17.24365234 55.06591797 17.24365234 55.06591797 15.25317383 52.11352539 C14.67567383 52.89727539 14.09817383 53.68102539 13.50317383 54.48852539 C11.23799717 57.13123149 10.44377042 57.98754687 7.25317383 59.11352539 C4.31838706 59.28254643 1.48221263 59.34617939 -1.44995117 59.30883789 C-2.28774109 59.306008 -3.12553101 59.3031781 -3.9887085 59.30026245 C-6.65822781 59.28908888 -9.32740867 59.2639896 -11.99682617 59.23852539 C-13.80932132 59.22849194 -15.62182174 59.21936672 -17.43432617 59.21118164 C-21.8719561 59.18915879 -26.3093338 59.15464843 -30.74682617 59.11352539 C-30.462552 57.52884811 -30.16907799 55.94581969 -29.87182617 54.36352539 C-29.62819336 53.04094727 -29.62819336 53.04094727 -29.37963867 51.69165039 C-28.74682617 49.11352539 -28.74682617 49.11352539 -26.74682617 45.11352539 C-17.50682617 44.78352539 -8.26682617 44.45352539 1.25317383 44.11352539 C-2.79594224 40.430173 -2.79594224 40.430173 -6.85302734 36.75561523 C-13.085654 31.04424155 -18.27398955 25.99950379 -19.12182617 17.23852539 C-18.97826947 12.75448955 -17.61966126 9.54589522 -14.74682617 6.11352539 C-10.15097071 2.07126161 -6.20891567 -0.01629637 0 0 Z " fill="#F7F7F7" transform="translate(199.746826171875,269.886474609375)"/>
<path d="M0 0 C5.30186559 -0.09918586 10.60318618 -0.17161755 15.90576172 -0.21972656 C17.70794081 -0.23979033 19.51005521 -0.26704813 21.31201172 -0.30175781 C23.90869136 -0.35050829 26.50450729 -0.37302082 29.1015625 -0.390625 C30.30191635 -0.42159271 30.30191635 -0.42159271 31.52651978 -0.45318604 C36.8379909 -0.45529658 39.76771392 0.51308734 44 4 C48.1198555 8.44510725 48.66466848 12.32100683 48.46484375 18.171875 C47.5714243 23.60746895 44.86737809 28.13262191 41 32 C41.15331787 32.75692139 41.30663574 33.51384277 41.46459961 34.29370117 C42.1017127 37.5141292 41.59781672 39.20654983 40.56640625 42.30078125 C40.24736328 43.27724609 39.92832031 44.25371094 39.59960938 45.25976562 C39.25736328 46.26716797 38.91511719 47.27457031 38.5625 48.3125 C38.22412109 49.33923828 37.88574219 50.36597656 37.53710938 51.42382812 C36.70198176 53.95273569 35.85238455 56.47685669 35 59 C29.39 59 23.78 59 18 59 C18.65461282 54.41771028 19.29214662 50.59497676 20.5625 46.25 C21.42602644 43.2916989 22 41.09404996 22 38 C17.05 37.67 12.1 37.34 7 37 C6.73445313 38.08539063 6.46890625 39.17078125 6.1953125 40.2890625 C5.83866918 41.73440647 5.4818912 43.17971722 5.125 44.625 C4.86396484 45.69427734 4.86396484 45.69427734 4.59765625 46.78515625 C4.33662109 47.83896484 4.33662109 47.83896484 4.0703125 48.9140625 C3.83465576 49.8723999 3.83465576 49.8723999 3.59423828 50.85009766 C2.83470955 53.59800646 1.90154793 56.29535621 1 59 C-4.94 59 -10.88 59 -17 59 C-16.25341045 54.52046271 -15.61354303 51.97453613 -14 48 C-13.29940153 45.37822918 -12.63115916 42.76304806 -12 40.125 C-11.66785708 38.75231558 -11.33453205 37.37991663 -11 36.0078125 C-10.855625 35.40598145 -10.71125 34.80415039 -10.5625 34.18408203 C-9.769507 31.1050389 -8.88131042 28.05475044 -8 25 C-7.05157227 24.98541748 -6.10314453 24.97083496 -5.12597656 24.95581055 C-1.5995206 24.89467436 1.92616443 24.8205087 5.45214844 24.73754883 C6.9767834 24.7043412 8.50154006 24.67629622 10.02636719 24.65356445 C12.22122954 24.61994042 14.41498088 24.56762458 16.609375 24.51171875 C17.92905273 24.48553467 19.24873047 24.45935059 20.60839844 24.43237305 C24.95620195 23.88848342 24.95620195 23.88848342 28 21 C28 18.69 28 16.38 28 14 C17.44 13.67 6.88 13.34 -4 13 C-3.25107424 10.00429695 -2.42395057 7.16646256 -1.4375 4.25 C-1.16808594 3.45078125 -0.89867188 2.6515625 -0.62109375 1.828125 C-0.41613281 1.22484375 -0.21117188 0.6215625 0 0 Z " fill="#F5F5F5" transform="translate(121,270)"/>
<path d="M0 0 C1.10272751 0.00424484 2.20545502 0.00848969 3.34159851 0.01286316 C6.85688898 0.0296297 10.37160211 0.06727924 13.88671875 0.10546875 C16.27277817 0.12051816 18.65884659 0.13420611 21.04492188 0.14648438 C26.88824263 0.17952677 32.73113286 0.23129612 38.57421875 0.29296875 C37.58421875 4.25296875 36.59421875 8.21296875 35.57421875 12.29296875 C22.37421875 12.62296875 9.17421875 12.95296875 -4.42578125 13.29296875 C-4.42578125 15.93296875 -4.42578125 18.57296875 -4.42578125 21.29296875 C-1.96084175 23.75790825 -1.23663171 23.54209603 2.15234375 23.56640625 C3.06628906 23.58703125 3.98023438 23.60765625 4.921875 23.62890625 C6.84105859 23.65473645 8.76035883 23.67309127 10.6796875 23.68359375 C16.43095924 23.82878715 20.11421027 24.27327958 24.57421875 28.29296875 C28.04810489 33.0859247 27.21091215 39.69006685 26.57421875 45.29296875 C24.65344922 50.90340253 20.93193897 54.2746664 15.94750977 57.2696228 C11.51197834 59.18219192 7.04933395 58.90294202 2.29296875 58.78125 C0.71183289 58.77063789 0.71183289 58.77063789 -0.90124512 58.7598114 C-4.24350175 58.7319882 -7.58403732 58.66927006 -10.92578125 58.60546875 C-13.2017986 58.58037038 -15.4778424 58.55755992 -17.75390625 58.53710938 C-23.31177778 58.48220144 -28.86865652 58.39869682 -34.42578125 58.29296875 C-34.11656241 56.83393617 -33.80329326 55.37576153 -33.48828125 53.91796875 C-33.22724609 52.69980469 -33.22724609 52.69980469 -32.9609375 51.45703125 C-32.42578125 49.29296875 -32.42578125 49.29296875 -31.42578125 47.29296875 C-30.35094482 47.27838623 -29.2761084 47.26380371 -28.16870117 47.2487793 C-24.18203408 47.19081985 -20.19593324 47.11358746 -16.2097168 47.03051758 C-14.48422432 46.99725703 -12.75862276 46.96922856 -11.03295898 46.9465332 C-8.55274959 46.91300722 -6.07354095 46.86069469 -3.59375 46.8046875 C-2.4357917 46.79510262 -2.4357917 46.79510262 -1.25444031 46.7853241 C2.89119979 46.68757295 2.89119979 46.68757295 6.56518555 44.95239258 C8.13771371 42.36626291 7.88769307 40.23962739 7.57421875 37.29296875 C5.80855423 35.11630839 5.80855423 35.11630839 3.60644531 35.0534668 C2.8172168 35.05386963 2.02798828 35.05427246 1.21484375 35.0546875 C0.34601563 35.03857422 -0.5228125 35.02246094 -1.41796875 35.00585938 C-3.2408156 34.98907679 -5.06380647 34.98366769 -6.88671875 34.99023438 C-11.27855097 34.88983113 -14.44566397 34.77168474 -17.94140625 31.9375 C-22.92075011 26.63716071 -22.97006096 22.9616979 -22.875 15.890625 C-22.10054631 9.68826112 -19.24071161 5.65394815 -14.52734375 1.70068359 C-9.76378102 -0.46136794 -5.16834214 -0.07493883 0 0 Z " fill="#F8F8F8" transform="translate(78.42578125,270.70703125)"/>
<path d="M0 0 C3.01476557 1.76458201 5.41326678 3.82653357 7 7 C7.82150257 13.49121706 6.77889985 18.62934491 3 24 C-1.53280889 28.20903682 -4.65330205 29.45517728 -10.73828125 29.42578125 C-13.43391793 28.91831251 -14.26835626 28.21211313 -16 26.125 C-19.14684975 21.20804727 -19.81452838 17.80351468 -19 12 C-15.72517901 3.939988 -9.09158417 -2.15089168 0 0 Z " fill="#060606" transform="translate(361,285)"/>
<path d="M0 0 C8.91 0 17.82 0 27 0 C25.75237142 4.99051433 24.52133654 9.67074614 22.875 14.5 C22.34519531 16.06234375 22.34519531 16.06234375 21.8046875 17.65625 C21.53914063 18.4296875 21.27359375 19.203125 21 20 C15.65208125 16.7595944 11.49382386 12.76175763 7.125 8.3125 C6.43664062 7.62349609 5.74828125 6.93449219 5.0390625 6.22460938 C0 1.14055525 0 1.14055525 0 0 Z " fill="#070707" transform="translate(197,285)"/>
<path d="M0 0 C1.98 0.495 1.98 0.495 4 1 C3.67 2.98 3.34 4.96 3 7 C2.34 6.01 1.68 5.02 1 4 C0.34 4.99 -0.32 5.98 -1 7 C-0.67 4.69 -0.34 2.38 0 0 Z " fill="#393939" transform="translate(116,272)"/>
</svg>
