<?xml version="1.0" encoding="utf-8"?>
<!-- Generator: Adobe Illustrator 27.5.0, SVG Export Plug-In . SVG Version: 6.00 Build 0)  -->
<svg version="1.1" id="Capa_1" xmlns="http://www.w3.org/2000/svg" xmlns:xlink="http://www.w3.org/1999/xlink" x="0px" y="0px"
	 viewBox="0 0 485.5 65" style="enable-background:new 0 0 485.5 65;" xml:space="preserve">
<g>
</g>
<g>
	<path d="M375.9,4.2c-0.3,0.4-0.6,0.8-0.9,1.1c-0.1,0.1-0.2,0.2-0.3,0.3c-1.1,1.1-2.3,2.1-3.4,3.2c-1.5,1.4-2.9,2.9-4.4,4.3
		c-0.9,0.9-1.7,1.8-2.6,2.6c-1.1,1-2.1,2.1-3.2,3.1c-0.4,0.4-1.2,0.5-1.8,0.5c-2.1,0-4.2,0-6.3,0c-17.6,0-35.1,0-52.7,0
		c-0.4,0-0.7,0-1.1,0.1c-0.7,0.1-1,0.4-1,1.1c0,0.8-0.1,1.5-0.1,2.3c0,5.8,0,11.6,0,17.4c0,0.7,0.4,0.6,0.8,0.6c6.1,0,12.2,0,18.3,0
		c9,0,18,0,27,0c0.8,0,1.2-0.4,1.6-0.9c0.4-0.5,0.9-0.9,1.3-1.4c0.8-0.8,1.5-1.6,2.2-2.4c0.4-0.5,0.9-0.9,1.4-1.3
		c0.5-0.5,1-1.1,1.5-1.7c0.3-0.4,0.7-0.7,1.1-1.1c0.5-0.4,1-0.9,1.4-1.3c0.5-0.5,1-1.1,1.5-1.6c0.5-0.5,1-0.9,1.4-1.4
		c0.5-0.5,1-1.1,1.5-1.6c0.4-0.4,0.8-0.9,1.3-1.3c0.6-0.6,1.2-1.2,1.7-1.8c0.2-0.2,0.4-0.2,0.6-0.4c0.5-0.5,0.9-1.1,1.3-1.6
		c0.1-0.1,0.3-0.2,0.4-0.3c0.2-0.1,0.3-0.3,0.5-0.4c0.2-0.2,0.4-0.4,0.6-0.6c0.5-0.5,0.9-1,1.4-1.5c0.2-0.2,0.3-0.3,0.5-0.5
		c0.2-0.2,0.3-0.3,0.5-0.5c0.2-0.2,0.4-0.4,0.5-0.6c0.2-0.2,0.3-0.4,0.5-0.5c0.1-0.2,0.3-0.3,0.5-0.5c0.2-0.2,0.4-0.4,0.5-0.6
		c0-0.1,0-0.2,0.1-0.2c0.6-0.2,0.8-0.7,1.2-1.2c0.6-0.6,1.2-1.2,1.8-1.8c0.5-0.5,1-0.9,1.5-1.3c0.4-0.4,0.8-0.7,1.2-1.1
		c0.4-0.5,0.9-1,1.3-1.5c0.1-0.1,0.1-0.1,0.2-0.2c0.5-0.4,1.2-0.7,1.6-1.3c0.6-0.7,1.4-0.9,2.2-1.2c-0.1-0.1-0.1-0.3-0.2-0.3
		c0.9-0.2,1.8-0.3,2.6-0.7c1.9-0.9,3.9-0.5,5.9-0.4c0.3,0,0.7,0.3,1,0.4c0.4,0.2,0.9,0.3,1.3,0.4c0.2,0.1,0.5,0.2,0.7,0.4
		c0.5,0.4,0.9,1,1.4,1.2c0.5,0.2,0.5,0.6,0.6,1c0.1,0.4,0,0.9,0.6,1.1c0.1,0.1,0.2,0.5,0.2,0.7c0,3.2,0,6.4,0,9.6
		c0,6.5,0,13.1,0,19.6c0,1.1,0,2.2-0.1,3.4c0,0.4,0,0.7,0.4,0.8c0.5,0.1,0.6-0.2,0.7-0.6c0-0.1,0.2-0.2,0.3-0.3
		c0.5-0.3,1-0.6,1.5-0.9c0.2-0.1,0.3-0.2,0.5-0.2c0.1,0,0.3,0,0.3-0.1c0.3-0.6,1-0.7,1.3-1.2c0.4-0.5,0.8-0.6,1.3-0.9
		c0.2-0.1,0.4-0.3,0.7-0.5c0.2-0.1,0.3-0.2,0.5-0.3c0.2-0.1,0.4-0.2,0.5-0.3c0.1-0.6,0.7-0.7,1.1-0.9c0.6-0.3,1.2-0.7,1.7-1
		c0.1-0.1,0.1-0.2,0.2-0.3c0.2-0.2,0.4-0.4,0.6-0.5c0.1-0.1,0.4-0.2,0.5-0.3c0.2-0.6,0.8-0.7,1.3-0.9c0.3-0.1,0.5-0.4,0.7-0.6
		c0.1-0.1,0.3-0.2,0.5-0.3c0.2-0.1,0.4-0.1,0.5-0.3c0.1-0.6,0.6-0.6,1-0.9c0.6-0.3,1.2-0.6,1.8-1c0.6-0.4,1-1.1,1.6-1.5
		c0.3-0.3,0.8-0.3,1.1-0.5c0.5-0.3,1.1-0.7,1.6-1.1c0.1-0.1,0.2-0.3,0.3-0.4c0.5-0.4,1.1-0.7,1.6-1.1c0.1-0.1,0.3-0.1,0.4-0.2
		c0.2-0.1,0.3-0.1,0.5-0.2c0.6-0.5,1.1-1.1,1.7-1.6c0.2-0.2,0.5-0.2,0.8-0.3c0.3-0.1,0.8-0.1,0.8-0.7c0-0.1,0.2-0.1,0.4-0.2
		c0.3-0.2,0.5-0.4,0.7-0.6c0,0,0-0.1,0.1-0.2c0.7-0.4,1.3-0.9,2.1-1.2c0.5-0.2,0.7-0.4,0.6-0.9c-0.1-0.5-0.5-0.5-0.8-0.5
		c-7.9,0-15.9-0.1-23.8-0.1c-0.8,0-1.6,0.1-2.4,0c-0.5-0.1-1.1-0.3-1.5-0.6c-0.2-0.2-0.2-0.7-0.2-1c0-3.8,0-7.5,0.1-11.3
		c0-0.6,0-1.1-0.1-1.7c0-0.5,0.2-0.7,0.7-0.7c1,0,2-0.1,2.9-0.1c24.9,0,49.8,0,74.7,0c1.3,0,2.6,0,3.9,0c0.4,0,0.8,0.1,1.3,0.2
		c0,0.1,0,0.2,0,0.2c-0.8,0.6-1.5,1.1-2.3,1.7c-0.7,0.5-1.4,1.1-2.2,1.6c-0.6,0.4-1.3,0.9-1.9,1.3c-0.8,0.6-1.6,1.1-2.5,1.7
		c-0.2,0.1-0.4,0.3-0.6,0.4c-0.1,0.1-0.3,0.1-0.5,0.2c-0.6,0.5-1.2,1-1.8,1.4c-0.1,0.1-0.2,0.1-0.3,0.2c-0.9,0.6-1.8,1.2-2.7,1.8
		c-0.7,0.5-1.5,0.9-2.2,1.4c-0.7,0.4-1.3,0.9-2,1.4c-0.8,0.6-1.6,1.1-2.4,1.7c-0.7,0.5-1.4,1.1-2.1,1.6c-0.5,0.3-0.9,0.7-1.4,1
		c-0.7,0.5-1.4,0.9-2.1,1.3c-0.2,0.1-0.3,0.2-0.5,0.3c-0.4,0.2-0.7,0.5-1,0.7c-0.3,0.2-0.5,0.4-0.8,0.6c-0.1,0.1-0.2,0.2-0.3,0.2
		c-0.5,0.1-0.8,0.5-1.2,0.8c-0.6,0.5-1.4,0.9-2.2,1.3c-0.1,0-0.2,0-0.2,0.1c-0.4,0.9-1.6,0.8-2,1.6c-0.1,0.1-0.3,0.2-0.4,0.2
		c-0.4,0.1-0.8,0.2-0.9,0.7c0,0,0,0.1-0.1,0.1c-0.7,0.4-1.5,0.9-2.2,1.3c-0.1,0-0.1,0-0.2,0.1c-0.6,0.4-1.1,0.9-1.7,1.3
		c-0.2,0.2-0.4,0.4-0.6,0.5c-0.5,0.2-1,0.2-1.1,0.8c0,0,0,0,0,0c-0.8,0.1-1.1,0.8-1.7,1.1c-0.5,0.2-1,0.3-1.2,0.8
		c-0.1,0.1-0.4,0.1-0.5,0.3c-0.2,0.2-0.4,0.3-0.6,0.5c-0.1,0.1-0.1,0.2-0.1,0.2c-0.7,0.4-1.4,0.8-2.1,1.2c-0.3,0.2-0.5,0.4-0.8,0.6
		c0,0-0.1,0.1-0.1,0.2c-0.7,0.4-1.5,0.8-2.2,1.3c-0.2,0.1-0.4,0.3-0.5,0.5c0.2,0.1,0.4,0.3,0.6,0.3c0.6,0.1,1.1,0.1,1.7,0.1
		c14.2,0,28.3,0,42.5,0c1.5,0,2,0.5,2.1,2c0,3.5,0,7,0,10.6c0,1.1-0.1,2.3-0.1,3.4c0,0.7-0.2,1-1,1c-1.5,0-3,0-4.6,0
		c-29.4,0-58.9,0-88.3,0c-1.1,0-2.2,0-3.4,0c-0.5,0-0.7-0.1-0.7-0.7c0-5.5,0-11,0-16.5c0-3.9,0-7.8,0-11.8c0-0.2,0-0.3,0-0.5
		c-0.1-0.2-0.2-0.5-0.3-0.7c-0.2,0.2-0.5,0.3-0.7,0.5c-0.2,0.2-0.4,0.4-0.6,0.6c-0.1,0.1-0.3,0.3-0.4,0.5c-0.2,0.2-0.4,0.3-0.5,0.6
		c-0.4,0.7-1.2,1-1.5,1.7c0,0.1-0.1,0.2-0.1,0.2c-0.9-0.1-0.7,1.3-1.6,1.3c-0.1,0-0.2,0.2-0.2,0.3c0,0.4-0.3,0.5-0.6,0.7
		c-0.5,0.4-0.9,1-1.3,1.5c-0.1,0.1-0.1,0.2-0.1,0.3c-0.6,0.2-0.7,0.8-1.1,1.1c-1.4,1.4-2.7,2.9-4,4.5c-0.4,0.5-1,1-1.5,1.5
		c-0.5,0.5-0.9,1.1-1.4,1.7c0,0,0,0,0,0.1c-0.5,0.4-1,0.9-1.5,1.3c0,0-0.1,0-0.1,0.1c-0.4,0.5-0.9,1-1.3,1.5c0,0,0,0.1-0.1,0.2
		c-0.5,0.5-1,0.9-1.5,1.3c-0.1,0.1-0.3,0.3-0.4,0.4c-0.1,0.1-0.1,0.3-0.2,0.4c-1.5,1.7-3.1,3.3-4.7,5c-0.5,0.6-1,1.2-1.5,1.7
		c-0.3,0.4-0.7,0.8-1.1,1.1c-0.2,0.2-0.5,0.2-0.8,0.2c-5.9,0-11.8,0-17.7,0c-14.2,0-28.4,0-42.6,0c-0.6,0-1.2,0-1.8,0
		c-0.7,0-1.3,0-1.7-0.6c0,0-0.1-0.1-0.1-0.1c-1.3-0.4-1.9-1.7-2.8-2.6c0,0-0.1-0.1-0.1-0.2c-0.3-1.5-1-2.8-1-4.4c0-12.5,0-25,0-37.5
		c0-0.9,0.3-1.8,0.5-2.7c0-0.1,0.1-0.2,0.1-0.2c0-1.3,0.8-2.2,1.3-3.2c0.3-0.6,1-1,1.5-1.4c0.2-0.2,0.4-0.4,0.6-0.5
		c0.2-0.1,0.4-0.3,0.6-0.3c0.8-0.1,1.5-0.1,2.3-0.1c28,0,55.9,0,83.9,0c1.2,0,2.4,0.1,3.5,0.2C375.7,4.1,375.8,4.2,375.9,4.2z"/>
	<path d="M157.6,4.5c-0.1,0-0.3-0.1-0.6-0.2c0.1,0.4,0.2,0.7,0.3,0.9c0.1,0.3,0.3,0.7,0.3,1c0,3.5,0,7,0,10.5c0,0.9,0.1,1.8,0.1,2.7
		c0,9.7-0.1,19.4-0.1,29.2c0,0.5-0.2,1.1-0.3,1.6c-0.1,0.4-0.2,0.9-0.3,1.3c-0.1,0.8-0.2,1.5-0.8,2c-0.2,0.2-0.2,0.5-0.3,0.7
		c-0.1,0.2-0.3,0.4-0.5,0.6c-0.1,0.1-0.3,0.2-0.3,0.3c-0.5,0.8-1.3,1.2-2,1.8c-1.1,1-2.3,0.8-3.5,0.8c-17.4,0-34.7,0-52.1,0
		c-2.3,0-4.6,0-6.9,0c-0.5,0-0.9,0-1.2-0.5c-0.1-0.2-0.6-0.3-1-0.4c-0.3-0.1-0.5-0.3-0.7-0.6c-0.5-0.5-0.9-1.1-1.4-1.5
		c-0.3-0.2-0.5-0.3-0.5-0.7c0-0.3-0.1-0.6-0.2-0.8c0-0.1,0-0.3-0.1-0.3c-1-0.4-0.6-1.3-0.7-1.9c0-7.8,0-15.5,0-23.3
		c0-2.4,0-4.8,0-7.2c0-1.1-0.2-1.3-1.3-1.3c-19.9,0-39.9,0-59.8,0c-0.7,0-1.3,0.2-2,0.3c-0.1,0-0.2,0.1-0.2,0.1
		c-0.7,0.5-0.5,1.3-0.4,1.9c0,0.5,0.3,1.1,1,1.1c0.9,0,1.7,0.1,2.6,0.1c15.6,0,31.1,0,46.7,0c1.7,0,3.4,0,5,0c0.5,0,1,0.1,1.3,0.6
		c0.1,0.1,0.2,0.3,0.4,0.3c0.4,0.1,0.7,0.2,0.8,0.7c0,0.1,0.1,0.3,0.2,0.3c0.6,0.1,0.7,0.5,0.8,1c0.1,0.4,0.3,0.4,0.6,0.3
		c0.3,1,0.5,2,0.8,3c0.1,0,0.2-0.1,0.4-0.2c0,1.7,0,3.3,0,4.9c0,4.9,0,9.9,0,14.8c0,0.5-0.2,1-0.3,1.5c-0.2,0.9-0.4,1.9-0.6,2.8
		c-0.1,0.3,0,0.7-0.5,0.8c-0.1,0-0.2,0.4-0.4,0.6c-0.2,0.2-0.4,0.5-0.6,0.7c0,0-0.1,0-0.2,0.1c-0.4,0.5-0.8,1-1.2,1.4
		c0,0,0,0.1-0.1,0.1c-0.9,0.4-1.7,1-2.6,1.1c-1.6,0.2-3.3,0.1-4.9,0.1c-21,0-41.9,0-62.9,0c-0.2,0-0.4,0-0.6,0
		c-1.2,0-1.6-0.3-1.7-1.5c-0.1-0.6,0-1.2,0-1.8c0-3.4,0-6.9,0-10.3c0-0.6,0.1-1.2,0.1-1.7c0-0.4,0.2-0.6,0.6-0.6c0.3,0,0.6,0,0.9,0
		c19.5,0,38.9,0,58.4,0c1.8,0,1.8,0,1.8-1.8c0-1.2,0.3-1.2-1.2-1.2c-16.5,0-33.1,0-49.6,0c-1.1,0-2.3,0-3.4-0.1
		c-0.3,0-0.6-0.3-0.9-0.5c-0.2-0.1-0.4-0.2-0.6-0.2c-1.3,0-2-0.8-2.8-1.5c-0.7-0.6-1.2-1.5-1.8-2.2c-1.1-1.3-1.3-3-1.4-4.6
		c-0.1-5.3,0-10.6,0-15.9c0-1.8,0.1-3.7,0.8-5.4c0.2-0.6,0.7-1.1,1-1.6C7.2,6.3,7.8,6,8.1,5.6C8.7,4.8,9.8,5,10.3,4.1
		c0-0.1,0.3-0.1,0.4-0.1c0.7,0,1.3-0.1,2-0.1c28.4,0,56.8,0,85.2,0c2,0,2,0,2,2c0,11.7,0,23.4,0,35.1c0,0.8,0,0.8,0.8,0.8
		c13.4,0,26.9,0,40.3,0c0.8,0,0.8,0,0.8-0.8c0-9,0-18,0-27.1c0-3,0-6.1,0-9.1c0-0.9,0-0.9,0.9-0.9c4.6,0,9.1,0,13.7,0
		c0.4,0,0.9,0,1.3,0.4C157.6,4.4,157.6,4.4,157.6,4.5z"/>
	<path d="M164.8,22.9c0.9,0,1.7,0,2.6,0c16.3,0,32.5,0,48.8,0c1.4,0,1.5,0.2,1.6-1.3c0-0.4,0.1-0.8,0.1-1.2c0-0.4,0.1-0.8,0.1-1.3
		c-0.5,0-1.1-0.1-1.6-0.1c-13.3,0-26.5,0-39.8,0c-5,0-9.9,0-14.9,0c-0.3,0-0.6,0-0.9-0.1c0-0.5,0-1,0-1.4c-0.1-2.3-0.2-4.7-0.2-7
		c0-2,0-4,0.1-6c0-0.1,0.2-0.4,0.4-0.4c0.3-0.1,0.7-0.1,1.1-0.1c20.4,0,40.8,0,61.2,0c0.6,0,1.2,0,1.7,0c1.4,0,2.8,0,4.1,0.7
		c1.2,0.7,2.1,1.6,3,2.8c1,1.3,0.9,2.7,0.9,4.1c0.1,6,0.1,12.1,0.1,18.1c0,1-0.1,1.9-0.2,2.9c-0.1,1.3-0.9,2.2-1.6,3.2
		c-0.5,0.8-1.3,1.4-1.9,2c0,0,0,0,0,0c-1.2,0.1-2,1.2-3.2,1.2c-3.3,0-6.7,0-10,0c-12.9,0-25.8,0-38.8,0c-1.9,0-1.6-0.2-1.6,1.6
		c0,5,0,9.9,0,14.9c0,0.7-0.1,1.3-0.1,2c0,0.4-0.2,0.5-0.6,0.5c-1.1,0-2.2,0-3.4,0c-3.5,0-7,0-10.4,0c-0.4,0-0.7,0-0.7-0.6
		c0-0.8-0.3-1.6-0.3-2.4c0-8,0-16.1,0-24.1c0-1,0.2-2.1,0.3-3.1c0-0.1,0-0.3,0.1-0.4c0.6-0.8,1.2-1.7,1.7-2.5
		c0.1-0.1,0.2-0.3,0.3-0.4c0.1-0.2,0.3-0.3,0.5-0.5c0.3-0.2,0.6-0.2,0.9-0.4c0.2-0.1,0.3-0.3,0.4-0.5C164.8,23,164.8,23,164.8,22.9z
		"/>
	<path d="M213.5,57.4c1.4-1.5,2.8-3,4.2-4.5c1.8-1.9,3.6-3.8,5.4-5.6c0.8-0.8,1.7-1.7,2.5-2.5c0.8-0.9,1.6-1.8,2.4-2.7
		c0.5-0.5,1-0.9,1.5-1.4c0.5-0.5,0.9-1,1.4-1.5c0.1-0.1,0.1-0.2,0.2-0.3c0.6-0.6,1.2-1.2,1.8-1.8c0.5-0.5,1-0.9,1.5-1.4
		c0.5-0.5,0.9-1,1.4-1.5c0.5-0.5,1-1,1.5-1.4c0.1-0.1,0.3-0.3,0.4-0.4c0.1-0.1,0.1-0.3,0.2-0.4c0.9-0.8,1.7-1.6,2.6-2.4
		c0.5-0.5,0.9-1.1,1.4-1.6c0.5-0.5,1-0.9,1.4-1.4c0.8-0.9,1.6-1.7,2.5-2.6c0.3-0.3,0.6-0.7,1-1c1.2-1.2,2.4-2.3,3.5-3.5
		c0.8-0.8,1.5-1.6,2.2-2.4c0.9-0.9,1.8-1.7,2.6-2.6c1-1.1,2-2.1,3-3.2c0.4-0.4,0.8-0.8,1.2-1.2c0.6-0.6,1.1-1.3,1.7-1.8
		c0.6-0.6,1.4-1,2-1.6c0.5-0.5,1.2-0.7,1.9-1c0.1-0.1,0.2-0.3,0.3-0.5c0.7-0.2,1.5-0.2,2.2-0.5c1.9-0.8,3.8-0.6,5.7-0.5
		c0.4,0,0.9,0.3,1.3,0.4c0.1,0,0.2,0.1,0.3,0.2c1.1,0.1,2,0.9,2.9,1.4c0.1,0.1,0.2,0.3,0.2,0.4c0.1,0.4,0.2,0.8,0.9,0.6
		c0,0.3,0.1,0.5,0.1,0.8c0,15.2,0,30.4,0,45.5c0,1.3,0,2.6,0,3.9c0,0.6-0.2,0.7-0.7,0.7c-2.5,0-4.9,0-7.4,0c-2.5,0-4.9,0-7.4,0
		c-0.4,0-0.6-0.1-0.7-0.6c-0.1-1.1-0.3-2.2-0.3-3.3c0-8.3,0-16.6,0-24.9c0-0.4,0.2-0.9-0.3-1c-0.5-0.1-0.8,0.2-1.1,0.6
		c-0.3,0.4-0.7,0.8-1,1.1c-1.3,1.4-2.7,2.8-4,4.3c-0.5,0.5-0.8,1.1-1.3,1.6c-0.5,0.5-1,0.9-1.5,1.4c-0.4,0.4-0.8,0.8-1.2,1.3
		c-0.6,0.6-1.1,1.2-1.7,1.8c-0.4,0.5-0.8,1-1.3,1.5c-0.4,0.5-0.8,0.9-1.2,1.4c-1.3,1.4-2.6,2.7-3.9,4.1c-0.8,0.8-1.5,1.7-2.3,2.6
		c-0.5,0.5-1,0.9-1.5,1.4c-0.5,0.5-0.9,1-1.3,1.5c-0.4,0.4-0.8,0.9-1.1,1.3c-1.1,1.2-2.3,2.4-3.4,3.6c-0.4,0.4-0.8,0.5-1.3,0.5
		c-6,0-12,0-18,0c-0.5,0-1-0.1-1.5-0.1C213.6,57.6,213.6,57.5,213.5,57.4z"/>
</g>
</svg>
