<?xml version="1.0" encoding="utf-8"?>
<!-- Generator: Adobe Illustrator 27.5.0, SVG Export Plug-In . SVG Version: 6.00 Build 0)  -->
<svg version="1.1" id="Capa_1" xmlns="http://www.w3.org/2000/svg" xmlns:xlink="http://www.w3.org/1999/xlink" x="0px" y="0px"
	 viewBox="0 0 85.4 14.2" style="enable-background:new 0 0 85.4 14.2;" xml:space="preserve">
<style type="text/css">
	.st0{fill:#201B18;}
</style>
<g>
	<path class="st0" d="M22.7,3.8c-0.9,0-1.3,0.1-1.7,0.8c-0.1,0.3-0.2,0.5-0.4,0.7c-0.3,0.6,0,1.3,1,1.7L24.4,8
		c0.4,0.1,0.3,0.4,0.1,0.6L24,9.1c-0.2,0.2-0.8,0.4-1.5,0.4h-4.3l-0.5,0.9h6.5c1.1,0,1.7-0.4,2.1-0.8C26.7,9.2,26.7,9.2,27,9
		c0.6-0.6,0.5-1.3-0.4-1.6l-3-1c-0.8-0.3-0.7-0.5-0.5-1c0.2-0.4,0.5-0.6,1.2-0.6h3.9L28,3.8H22.7z"/>
	<path class="st0" d="M77.1,3.8c-0.9,0-1.3,0.1-1.7,0.8c-0.2,0.3-0.3,0.5-0.4,0.7c-0.3,0.6,0,1.3,1,1.7L78.9,8
		c0.4,0.1,0.3,0.4,0.1,0.6l-0.5,0.5c-0.3,0.2-0.8,0.4-1.5,0.4h-4.3l-0.5,0.9h6.5c1.1,0,1.7-0.4,2.1-0.8c0.4-0.4,0.4-0.4,0.6-0.6
		c0.7-0.6,0.5-1.3-0.4-1.6l-3-1c-0.8-0.3-0.7-0.5-0.5-1C77.8,5,78,4.8,78.8,4.8h4.7L84,3.8H77.1z"/>
	<path class="st0" d="M29,3.8l1.1,4.8c0,0-1.5,1.5-2,2c-0.5,0.5-1.1,0.9-2.2,0.9h-1.2l-0.9,0.9h3.2c1.5,0,2.4-0.5,3.1-1.2
		c0.9-0.9,7.6-7.4,7.6-7.4h-2.7l-3.5,3.4l-0.9-3.4H29z"/>
	<path class="st0" d="M38.8,3.8l-3.7,6.5h2.6l3.1-5.6h2.9c0.6,0,0.8,0.5,0.5,1.1c-0.3,0.6-2.5,4.6-2.5,4.6h2.5c0,0,2.4-4.2,2.8-4.8
		c0.6-1-0.5-1.7-1.9-1.7H38.8z"/>
	<path class="st0" d="M48.1,4.9c-0.2,0.4-1.5,2.6-2,3.7c-0.5,0.9,0,1.8,1.6,1.8h4.9l0.5-0.9h-3.5c-0.5,0-1.2-0.4-0.9-1
		c0.3-0.5,1.5-2.7,1.7-3c0.2-0.3,0.5-0.7,1.2-0.7h4.2l0.5-0.9h-6.2C49.2,3.8,48.6,4.2,48.1,4.9"/>
	<path class="st0" d="M53.6,10.4c0,0,2.7-4.8,3.1-5.4c0.4-0.7,1-1.1,2.4-1.1h5.7l-0.5,0.9h-4.2c-0.8,0-1,0.3-1.3,0.9
		c-0.4,0.7-2.6,4.7-2.6,4.7H53.6z"/>
	<path class="st0" d="M72.1,3.9h-5.3c-0.6,0-1.2,0.3-1.5,0.9c-0.3,0.5-1.8,3.2-2.2,3.9c-0.3,0.5-0.3,1.8,1.4,1.8H70
		c1,0,1.4-0.3,1.8-0.9c0.4-0.7,1.6-2.9,2.1-3.8C74.4,4.8,73.5,3.9,72.1,3.9 M71.2,5.9c-0.2,0.4-1.5,2.7-1.7,3
		c-0.2,0.3-0.3,0.4-0.8,0.4h-2.3c-0.8,0-0.8-0.6-0.7-0.8c0.2-0.3,1.6-2.8,1.8-3.1c0.2-0.3,0.5-0.5,0.8-0.5h2.1
		C71,4.9,71.4,5.4,71.2,5.9"/>
	<path class="st0" d="M11.3,2.1C9.9,1.8,3.8,0.5,3.8,0.5L1.3,4.8v5.7c0,0,3-5.2,3.5-6c0.5-0.9,1.2-1.2,2-1.2h6.4
		C12.4,2.5,12.1,2.2,11.3,2.1"/>
	<path class="st0" d="M6,12.2c1.4,0.3,7.5,1.5,7.5,1.5L16,9.5V3.8c0,0-3,5.2-3.4,6c-0.5,0.9-1.2,1.2-2,1.2H4.1
		C4.9,11.7,5.2,12,6,12.2"/>
	<path class="st0" d="M11.9,5.6c-0.3,0.5-1.8,3.2-2.1,3.6c-0.2,0.3-0.4,0.5-1,0.5H6.1c-0.9,0-0.9-0.7-0.8-1c0.2-0.4,1.9-3.4,2.1-3.6
		c0.2-0.4,0.6-0.5,1-0.5h2.5C11.7,4.5,12.1,5.1,11.9,5.6"/>
</g>
</svg>
