<?xml version="1.0" encoding="UTF-8"?>
<svg xmlns="http://www.w3.org/2000/svg" version="1.1" viewBox="0 0 152 22">
  <!-- Generator: Adobe Illustrator 28.6.0, SVG Export Plug-In . SVG Version: 1.2.0 Build 709)  -->
  <g>
    <g id="Capa_1">
      <g>
        <path d="M8.1,0L3.9,2.9h18.1L0,18h15.7L37.8,2.9h12.6l4.2-2.9H8.1Z"/>
        <path d="M84.2,10.4c7.4-.8,13.5-2.4,14.4-4.9,1.9-5.2-9.6-5.5-12-5.5h-28.5l-26.2,18h15.8l22-15.1h12.8s2.6,0,2.6,1.6-1.7,4.2-18.9,4.3h-1.8l-3,2s31.3,9.5,37.9,10.8c2.3.4,4.6.4,6.9,0l-22-11.2Z"/>
        <path d="M139.9,0h-28.6l-18.4,12.5,9,4.7,20.9-14.3h12.8c3.8,0,3.5,3.3-.3,4.5-2.6.8-7.7,1.4-16.4,1.4h-1.3l-3,2c11.5,1,35.4,0,37.2-5.3,1.9-5.2-9.7-5.5-12-5.5Z"/>
      </g>
    </g>
  </g>
</svg>