<?xml version="1.0" encoding="UTF-8"?>
<svg xmlns="http://www.w3.org/2000/svg" version="1.1" viewBox="0 0 693.7 164">
  <!-- Generator: Adobe Illustrator 28.6.0, SVG Export Plug-In . SVG Version: 1.2.0 Build 709)  -->
  <g>
    <g id="Capa_1">
      <g>
        <path d="M451.3,106.1c0,4.5-.2,8.3,0,12.1.5,6.8,3.7,9.7,10.6,9.7,25.3,0,50.6,0,76,0,1.8,0,3.6,0,5.9,0v21.2c-1.4,0-3.1,0-4.9,0-29.3,0-58.6,0-88,0-16.2,0-25.4-8.9-25.6-25.3-.2-18.8-.2-37.7,0-56.5.2-16.2,9.6-25.2,25.7-25.3,23.8,0,47.6,0,71.5,0,11.3,0,19,5.3,20.3,16.4,1.3,10.8,1.1,21.9.2,32.7-.9,9.4-9.4,14.8-20.7,14.9-21.7,0-43.3,0-65,0-1.8,0-3.6,0-6.1,0ZM451.3,84.6c.9.3,1.2.5,1.5.5,18.8,0,37.6-.2,56.4.2,9.9.2,11-1,11.5-11.4,0-1.5-.3-3-.3-4.5.1-4.4-2.6-6-6.3-6-19.1-.1-38.2,0-57.4,0-3.5,0-5.5,1.9-5.4,5.7,0,5.1,0,10.3,0,15.6Z"/>
        <path d="M200.5,127.9v21.2c-1.7,0-3.2,0-4.7,0-29.5,0-59,0-88.5,0-15.5,0-24.7-8.7-25-24.2-.3-19.3-.3-38.7,0-58,.2-15.7,8.9-24.6,24.5-24.8,24.7-.3,49.3-.2,74,0,10.8,0,18.2,6.7,19.3,18.3.9,9.7.8,19.6,0,29.4-.8,10.3-9.1,16.2-21.1,16.2-21.7,0-43.3,0-65,0-1.8,0-3.6,0-5.6,0,0,5.1-.5,9.9.1,14.6.7,5.2,4,7.2,9.7,7.2,25.5,0,51,0,76.5,0,1.8,0,3.6,0,5.7,0ZM107.9,85.1c2.3,0,3.9,0,5.6,0,16.5,0,32.9,0,49.4,0,12.7,0,14.7,2,14.4-15.3,0-4.3-2.3-6.5-6.4-6.5-19,0-37.9,0-56.9,0-3.7,0-6,1.8-6,5.7,0,5.1,0,10.3,0,16.1Z"/>
        <path d="M51.4,63.1v64.6h20.1v21.2c-8.9,0-17.8.9-26.4-.2-13-1.7-19.7-10.7-19.8-25.2-.2-18.3,0-36.7,0-55,0-1.5,0-3,0-5H5c2.6-6.9,4.8-13.1,7.2-19.2.4-1,2.1-1.9,3.2-2.1,3-.3,6,0,9.6,0V8.4h26v33.5h20.3v21.3h-20Z"/>
        <path d="M615.2,63.3c-6,0-11.3.1-16.7,0-2.8,0-4.2.6-4.2,3.9.1,19,.1,38,0,56.9,0,3.1,1.2,4,4.1,3.9,5.3-.2,10.6,0,16.4,0v21.9c-10.2-.8-20.7-.7-30.7-2.7-9.4-1.9-14.7-10.3-14.9-21.1-.3-19-.3-38-.1-56.9,0-4.5-1-6.4-5.8-5.9-3.3.4-6.6,0-10.4,0v-21h15.9V8.4h25.4v33.4c2.1.1,3.7.3,5.2.3q8.6,0,11.4,8.3c1.4,4.1,2.7,8.2,4.2,12.9Z"/>
        <path d="M344.2,149.5h-20.6V42.5c7.1.9,14.8-3.1,20.6,5.2,6.4-7,14.7-5.1,22.5-5.2,11.3-.1,22.7,0,34,0,6.6,0,12,2.2,16.1,7.4,1.7,2.2,2.3,4-.2,6.4-4.1,3.8-7.9,8.1-12.1,12.4-4.2-5.2-9.3-5.7-14.8-5.5-9,.2-18,0-27,0-6.3,0-7.8,1.5-8.6,7.7-2.8,22.6-5.8,45.1-8.7,67.7-.5,3.6-.9,7.2-1.4,10.9Z"/>
        <path d="M302.1,43v106.4h-20.7c-2.4-19.4-4.8-38.6-7.3-57.9-1-7.6-2-15.1-2.9-22.7-.4-3.6-2.6-5.4-5.9-5.5-11.5-.1-23-.3-34.5.1-3.2.1-6.3,2.4-10.7,4.3-3.5-3.6-8-8-12-12.8-.7-.8-.3-3.5.6-4.7,3.6-5,8.6-7.7,14.9-7.7,15.6,0,31.3-.3,46.9.2,3.7,0,7.3,2.4,11.4,3.9,6.5-4.5,9.2-5.1,20.1-3.6Z"/>
        <path d="M653.8,18.3c1-.2,2.5-.3,3.9-.3,2.2,0,3.6.4,4.6,1.3.8.7,1.3,1.8,1.3,3,0,2.1-1.3,3.5-3,4.1h0c1.2.5,2,1.6,2.3,3.3.5,2.2.9,3.8,1.2,4.4h-2.1c-.3-.4-.6-1.8-1.1-3.8-.5-2.2-1.3-3-3.2-3.1h-1.9v6.9h-2.1v-15.7ZM655.8,25.5h2.1c2.2,0,3.6-1.2,3.6-3s-1.5-3-3.7-3c-1,0-1.7,0-2,.2v5.8Z"/>
        <path d="M659,42.7c-9.2,0-16.7-7.5-16.7-16.7s7.5-16.7,16.7-16.7,16.7,7.5,16.7,16.7-7.5,16.7-16.7,16.7ZM659,11.3c-8.1,0-14.7,6.6-14.7,14.7s6.6,14.7,14.7,14.7,14.7-6.6,14.7-14.7-6.6-14.7-14.7-14.7Z"/>
      </g>
    </g>
  </g>
</svg>