<?xml version="1.0" encoding="utf-8"?>
<!-- Generator: Adobe Illustrator 27.5.0, SVG Export Plug-In . SVG Version: 6.00 Build 0)  -->
<svg version="1.1" id="Capa_1" xmlns="http://www.w3.org/2000/svg" xmlns:xlink="http://www.w3.org/1999/xlink" x="0px" y="0px"
	 viewBox="0 0 190 50.5" style="enable-background:new 0 0 190 50.5;" xml:space="preserve">
<style type="text/css">
	.st0{fill-rule:evenodd;clip-rule:evenodd;}
	.st1{fill-rule:evenodd;clip-rule:evenodd;fill:#FFFFFF;}
</style>
<g>
	<path class="st0" d="M10.3,48.2V19.8H1.8V7.2h32.5v12.6h-8.7v28.4H10.3L10.3,48.2z M38.2,48.2v-41h15.2v13.6h6V7.2h14.7v41H59.5
		v-14h-6v14H38.2L38.2,48.2z M80,7.2h15.7v21.9c0,2.3-0.5,6.2,2.8,6.2c3.5,0,2.9-3.9,2.9-6.2V7.2H117v22.2c0,6.5-1.6,11.3-4.5,14.6
		c-3,3.3-8.1,4.9-14.1,4.9c-5.9,0-10.8-1.6-13.9-4.9c-3-3.3-4.5-8.1-4.5-14.6V7.2L80,7.2z M148,34.8V7.2h27.5v10h-12.4v4.8h9.7v7.5
		h-9.7v5.4h12.5v13.4c-17.6,0-35.3,0-52.9,0v-41h15v27.6H148L148,34.8z"/>
	<path class="st1" d="M135.7,38.7c0.1-0.4,0.5-0.7,1-0.8c0.4-0.1,0.8,0,1.2,0.2c0.2,0.2,0.4,0.5,0.4,0.8v1.5l0.8-1.7
		c0.2-0.2,0.3-0.5,0.6-0.6c0.4-0.2,0.8-0.3,1.3-0.2c0.4,0.1,0.6,0.4,0.7,0.7c0,0.1,0.1,0.1,0.1,0.2l0.1,1.6l0.7-1.7
		c0.1-0.4,0.3-0.6,0.7-0.8c0.4-0.1,0.8-0.2,1.2-0.1c0.3,0.1,0.5,0.4,0.7,0.7c0.2-0.3,0.5-0.5,0.8-0.6c0.2,0,0.4-0.1,0.7-0.1h1.7
		c0.4,0,0.8,0.1,1.1,0.4l0.1,0.1c0.4,0.4,0.2,1.1-0.2,1.4c-0.2,0.2-0.5,0.3-0.9,0.4c-0.4,0-0.8,0-1.2,0v0.1c0.5,0,1.1,0,1.6,0.4
		c0.2,0.1,0.2,0.3,0.3,0.5c0.1,0.4-0.1,0.8-0.5,1.1c-0.4,0.2-0.8,0.3-1.3,0.3h-0.6l-0.1,0.1h0.7c0.5,0.1,1.1,0.1,1.4,0.7
		c0.1,0.4,0.1,0.8-0.2,1.1c-0.2,0.2-0.4,0.4-0.7,0.5c-0.2,0.1-0.5,0.1-0.8,0.1h-1.9h-0.2c-0.5-0.1-0.9-0.2-1.1-0.7
		c-0.1-0.2-0.1-0.5-0.1-0.8l0.7-3.3l-1.7,3.7c-0.2,0.4-0.4,0.7-0.7,0.9c-0.4,0.3-1,0.3-1.5,0.2c-0.1,0-0.1-0.1-0.2-0.1
		c-0.5-0.2-0.7-0.6-0.7-1.1l-0.2-1.4l-0.7,1.6c-0.2,0.3-0.4,0.5-0.6,0.7c-0.1,0.1-0.2,0.1-0.2,0.2c-0.5,0.3-1.3,0.3-1.8-0.1
		c-0.2-0.2-0.4-0.4-0.4-0.7c-0.1-0.1-0.1-0.2-0.1-0.3l-0.3-4.1c-0.1,0.3-0.4,0.5-0.8,0.6c-0.2,0.1-0.5,0.1-0.7,0
		c-0.1,0-0.3-0.1-0.4-0.1c-0.2,0-0.4-0.1-0.6,0c0.1,0.1,0.3,0.1,0.5,0.2h0.1c0.7,0.2,1.3,0.5,1.6,1c0.1,0.2,0.2,0.3,0.2,0.5l0.1,0.2
		c0.1,0.5-0.1,1-0.3,1.5c-0.4,0.7-1.1,1.2-1.9,1.4c-0.7,0.2-1.6,0.2-2.3,0.1c-0.5-0.1-1-0.3-1.3-0.7c-0.1-0.1-0.1-0.2-0.1-0.2
		c-0.1-0.4-0.1-0.8,0.2-1.1c0.3-0.3,0.7-0.4,1.1-0.4s0.7,0.2,1.1,0.2c0.2,0.1,0.5,0.1,0.7-0.1c0.1,0,0.1-0.1,0.1-0.1
		c-0.2-0.1-0.4-0.2-0.5-0.2c-0.6-0.1-1.3-0.4-1.7-0.8l-0.1-0.1c-0.2-0.4-0.4-0.7-0.3-1.1c0-0.4,0.1-0.8,0.4-1.3
		c0.4-0.6,1.1-1,1.9-1.2c0.6-0.2,1.2-0.2,1.7-0.1C134.8,38,135.4,38.2,135.7,38.7L135.7,38.7z M152.1,42.7c0.4,0,0.7-0.1,1-0.2
		c0.4-0.3,0.6-0.8,0.7-1.3c0.1-0.2,0.1-0.4-0.1-0.5c-0.2-0.4-0.8-0.4-1.1-0.4L152.1,42.7L152.1,42.7L152.1,42.7z M153.1,38h-1.3
		c-0.2,0-0.4,0.1-0.7,0.1c-0.2,0.1-0.5,0.2-0.7,0.4c-0.2,0.3-0.4,0.5-0.4,0.9l-0.8,4.2c-0.1,0.2-0.1,0.5,0,0.8
		c0.2,0.5,0.7,0.6,1.1,0.7h0.2h1.4c0.3,0,0.6,0,0.9-0.1c0.7-0.1,1.3-0.4,1.8-0.7c0.1-0.1,0.3-0.2,0.4-0.4c0.4-0.4,0.7-0.8,1-1.3
		c0.2-0.6,0.4-1.3,0.4-2c-0.1-0.5-0.2-1-0.5-1.4c-0.2-0.4-0.5-0.6-0.9-0.8C154.4,38.1,153.8,38,153.1,38L153.1,38z M160.6,38
		c0.4,0,0.8,0.1,1.1,0.4l0.1,0.1c0.4,0.4,0.2,1.1-0.2,1.4c-0.2,0.2-0.5,0.3-0.8,0.4c-0.4,0-0.8,0-1.3,0v0.1c0.6,0,1.1,0,1.6,0.4
		c0.2,0.1,0.2,0.3,0.3,0.5c0.1,0.4-0.1,0.8-0.5,1.1c-0.4,0.2-0.8,0.3-1.3,0.3h-0.6l-0.1,0.1h0.7c0.5,0.1,1.1,0.1,1.4,0.7
		c0.1,0.4,0.1,0.8-0.2,1.1c-0.2,0.2-0.4,0.4-0.7,0.5c-0.2,0.1-0.5,0.1-0.8,0.1h-1.9h-0.2c-0.5-0.1-0.9-0.2-1.1-0.7
		c-0.1-0.2-0.1-0.5-0.1-0.8l0.8-4.2c0.1-0.4,0.2-0.6,0.4-0.9c0.2-0.2,0.4-0.2,0.7-0.4c0.2,0,0.4-0.1,0.7-0.1H160.6L160.6,38z
		 M164.4,43.7l0.3-1.5l1.4,2.2c0.1,0.1,0.2,0.2,0.4,0.4c0.1,0.1,0.3,0.2,0.5,0.2c0.4,0.1,0.8,0.1,1.2-0.2c0.3-0.2,0.5-0.6,0.5-1
		l0.8-4.4c0.1-0.5,0.1-0.9-0.3-1.3l-0.1-0.1c-0.4-0.3-1-0.2-1.5,0.1l-0.1,0.1c-0.3,0.3-0.4,0.6-0.5,1l-0.3,1.6l-1.4-2.2l-0.1-0.1
		c-0.1-0.2-0.2-0.3-0.4-0.4c-0.5-0.2-1-0.2-1.4,0.1l-0.1,0.1c-0.3,0.3-0.5,0.6-0.5,1l-0.8,4.3c0,0.3-0.1,0.5,0,0.8
		c0.1,0.4,0.3,0.6,0.7,0.7c0.2,0.1,0.4,0.1,0.7,0.1c0.3-0.1,0.5-0.1,0.8-0.4C164.2,44.4,164.3,44.1,164.4,43.7L164.4,43.7z"/>
	<path class="st0" d="M184.6,1.9c2.1,0,3.8,1.7,3.8,3.8c0,2.1-1.7,3.8-3.8,3.8c-2.1,0-3.8-1.7-3.8-3.8
		C180.7,3.7,182.5,1.9,184.6,1.9L184.6,1.9z M184.6,1.4c-2.4,0-4.3,1.9-4.3,4.3c0,2.4,1.9,4.3,4.3,4.3c2.4,0,4.3-1.9,4.3-4.3
		C188.9,3.4,187,1.4,184.6,1.4L184.6,1.4z M183,7.8h0.7V6h0.2c0.2,0,0.4,0.1,0.5,0.1c0.2,0.1,0.4,0.3,0.6,0.7l0.8,1.1h0.8l-1.1-1.6
		c-0.1-0.1-0.2-0.2-0.3-0.3c-0.1-0.1-0.2-0.1-0.2-0.1c0.3-0.1,0.5-0.2,0.7-0.4c0.1-0.1,0.2-0.4,0.2-0.7c0-0.4-0.1-0.6-0.4-0.8
		c-0.3-0.2-0.7-0.3-1.1-0.3H183V7.8L183,7.8z M183.7,5.5h0.5c0.4,0,0.6-0.1,0.7-0.2c0.2-0.1,0.2-0.3,0.2-0.5c0-0.2-0.1-0.4-0.2-0.5
		c-0.2-0.1-0.4-0.1-0.8-0.1h-0.5V5.5L183.7,5.5z"/>
</g>
</svg>
