<?xml version="1.0" encoding="UTF-8"?>
<svg xmlns="http://www.w3.org/2000/svg" version="1.1" viewBox="0 0 1507.2 251.2">
  <defs>
    <style>
      .cls-1 {
        fill: #0076c0;
      }
    </style>
  </defs>
  <!-- Generator: Adobe Illustrator 28.6.0, SVG Export Plug-In . SVG Version: 1.2.0 Build 709)  -->
  <g>
    <g id="Capa_1">
      <g>
        <path class="cls-1" d="M293,10.2c8.1.7,16.2,1.6,24.2,2.2,30.5,2.2,60.4,7.5,89.6,16.4,3.7,1.1,7.3,2.3,10.9,4.3-2,0-3.9,0-5.9,0-73.3,0-146.6,0-219.9,0-21.3,0-36.3,10.6-46,28.9-3.7,7-6.1,14.6-9.5,22.8,2.5.3,4.2.6,5.9.6,86,0,171.9,0,257.9,0,14.3,0,24.2-8.4,32.7-18.6,4.8-5.7,8.5-12.3,13-18.3.9-1.2,3.5-2.6,4.4-2.2,19.5,9.6,40.1,17.3,57.4,31,6.1,4.8,12.1,10.1,17.2,15.9,19.7,22.2,19.4,48.6-.2,71.3-13.8,16-31.4,26.6-50.2,35.5-36.5,17.2-75.6,25.4-114.9,32.6-19.6,3.6-39.6,4.4-59.5,6.4-2.1.2-4.2.8-6.3,1.2h-29c.7-.4,1.4-1,2.1-1.3,18.5-6.9,29.3-21.1,35.4-38.9,9.2-26.7,17.6-53.7,26.3-80.6.8-2.5,1.3-5,2.2-8-2.3-.2-3.9-.4-5.5-.4-27.7,0-55.3,0-83-.1-4.6,0-6.4,2-7.7,5.9-11.5,34.6-23.1,69.1-34.6,103.7-1.3,3.8-1.8,9.3-4.4,10.7-2.9,1.6-7.9-.6-12-1.1-1.1-.2-2.3-.4-3.4-.7-19.4-5.9-38.8-11.7-58.2-17.7-24.4-7.5-48.1-16.7-69.2-31.5-13.6-9.5-25.3-20.7-30.8-37-1.2-3.6-2.1-7.3-3.2-10.9,0-3,0-6,0-9,.4-1.1,1-2.1,1.2-3.2,1.6-9.2,5.5-17.4,10.9-24.9,11.3-15.6,26.6-26.4,43.1-35.7,18.6-10.5,38.8-17.3,58.9-24.5,34.7-12.4,70.4-19.6,107.1-22.4,7.9-.6,15.8-1.5,23.7-2.2,9.7,0,19.3,0,29,0ZM472.3,192.2c.2.4.4.8.6,1.2,3.3-1.7,6.7-3.3,10-5.1,15.9-8.7,30.8-18.8,41.3-34,10-14.4,13-29.9,3.5-45.4-5.1-8.2-12.4-15-19.1-22.1-2.8-3-6.6-5.1-10.6-8.1.2,1.6.1,2,.3,2.3.8,1.1,1.6,2.2,2.4,3.2,12.9,16.1,18.7,34.1,14.1,54.6-3.6,16-13.1,28.6-25,39.4-5.5,5-11.5,9.4-17.3,14.1ZM72.9,184.4c-2.8-3.3-5.9-7.6-9.5-11.4-11.2-12.1-19.6-25.5-21.1-42.5-1.9-21.6,7.6-38.6,21.8-53.7,1.1-1.2,2.2-2.4,3.3-3.6-.4-.3-.8-.6-1.1-.9-15.9,11-30.8,23-37.6,42.2-3.9,10.9-3.1,21.7,2.1,31.9,9.4,18.4,25.8,28.9,42.2,38Z"/>
        <path class="cls-1" d="M1229,63.6c-3,9.5-5.7,18-8.4,26.5-7.6,23.4-15.2,46.8-22.9,70.2-5.4,16.4-14.1,22.5-31.5,22.5-47.2,0-94.3,0-141.5,0-1.7,0-3.3,0-5.7,0,.4-1.8.5-3.1,1-4.4,9.9-30.7,19.9-61.4,29.9-92.1,5.1-15.8,14.5-22.7,31.1-22.7,47.2,0,94.3,0,141.5,0,1.9,0,3.8,0,6.5,0ZM1068.9,147.9c1.8.3,2.7.6,3.7.6,27.8,0,55.6,0,83.4,0,3.6,0,4.5-2,5.3-4.7,4.2-13.8,8.4-27.6,12.6-41.5.4-1.3.5-2.7.7-4-.9-.3-1.2-.5-1.5-.5-28.6,0-57.3-.2-85.9,0-1.4,0-3.6,2.1-4.1,3.7-2.8,8.2-5.2,16.5-7.7,24.7-2.1,7.1-4.2,14.2-6.4,21.6Z"/>
        <path class="cls-1" d="M1365.6,134.5h-140.2c2.8-8.7,5.2-16.4,7.7-24.1,2.8-8.7,5.6-17.4,8.4-26.1,3.9-12.4,14.4-20.7,27-20.7,49.3,0,98.6,0,147.9,0,.8,0,1.6.1,2.5.2-2.3,14.5-18.2,28.2-32.3,28.3-34.8,0-69.6.1-104.5,0-5.1,0-7.7,1.6-8.7,6.5-.7,3.2-1.9,6.3-3,10.1h133.9c-1.3,4.3-2.4,7.9-3.4,11.4-4.3,14.2-8.4,28.4-13,42.5-4.5,13.8-14.1,20.5-28.4,20.5-48.1,0-96.3,0-144.4,0-2,0-3.9,0-5.9,0,1.5-13.4,17.9-28.3,30.4-28.3,38,0,76,0,114,.1,4.7,0,7-1.4,7.9-6,.9-4.3,2.5-8.6,4.1-14.2Z"/>
        <path class="cls-1" d="M1025.1,109.4c-4.2,9.4-9,17.7-17,23.2-4,2.7-9.5,4.4-14.3,4.4-30.1.4-60.3.3-90.5,0-5,0-7.9,1.2-9.5,6.4-2.3,7.4-5.1,14.8-8.5,21.8-5.5,11.4-14.6,17.8-27.8,17.6-10-.1-19.9,0-30.8,0,2.5-7.7,4.8-14.9,7.2-22.1,5.3-15.9,10.7-31.8,16-47.8.9-2.7,1.8-4.1,5.1-4.1,55.8,0,111.6,0,167.4,0,.6,0,1.2.2,2.6.5Z"/>
        <path class="cls-1" d="M848.7,63.6c-1.6,5-2.8,9.2-4.2,13.4-9,27.1-18.1,54.2-27.1,81.3-5.6,16.9-16.1,24.5-33.8,24.5-9.1,0-18.2,0-28.1,0,2.9-8.8,5.5-16.8,8.1-24.8,7.7-23.2,15.4-46.4,23.1-69.5,5.8-17.5,16.1-24.9,34.5-25,8.9,0,17.9,0,27.4,0Z"/>
        <path class="cls-1" d="M1492.9,63.6c-8.5,25.4-16.6,49.6-24.7,73.9-2.3,6.9-4.3,14-6.8,20.9-4.5,12.1-11.3,22.7-25.3,24.1-11.8,1.2-23.8.2-36.5.2,2.2-6.6,4.1-12.7,6.2-18.8,8.5-25.6,17-51.1,25.5-76.7,5.2-15.6,15.9-23.4,32.5-23.6,9.4,0,18.9,0,29.1,0Z"/>
        <path class="cls-1" d="M782.4,63.6c-5.3,10.7-10.6,20-20.3,25.8-2.7,1.6-6.3,2.5-9.4,2.6-49.4.2-98.9.1-148.3,0-1,0-1.9-.2-2.9-.3,3.7-17.1,14.3-28.2,31.1-28.2,48.3.2,96.5,0,144.8,0,1.3,0,2.6,0,5,0Z"/>
        <path class="cls-1" d="M1038.5,63.6c-5,10.4-10.1,19.6-19.4,25.3-3,1.8-6.8,3-10.3,3.1-49,.2-98,.1-147,0-1.3,0-2.6-.2-3.9-.4,3.5-18.6,16.2-28.3,31.1-28.2,48,.3,96,.1,144,.1,1.5,0,3,0,5.5,0Z"/>
        <path class="cls-1" d="M633.6,182.9c2.6-7.9,5-15.1,7.4-22.3,5.3-15.8,10.5-31.5,16-47.2.7-1.9,3.1-4.4,4.8-4.4,15.5-.3,31-.2,46.5-.1.6,0,1.3.3,2.7.7-1.6,5.3-3.1,10.4-4.7,15.6-3.7,11.5-7.4,23.1-11.4,34.6-4.8,13.9-15.5,24.2-32.1,23.3-9.4-.5-18.9,0-29.2,0Z"/>
      </g>
    </g>
  </g>
</svg>