<?xml version="1.0" encoding="utf-8"?>
<!-- Generator: Adobe Illustrator 27.5.0, SVG Export Plug-In . SVG Version: 6.00 Build 0)  -->
<svg version="1.1" id="Capa_1" xmlns="http://www.w3.org/2000/svg" xmlns:xlink="http://www.w3.org/1999/xlink" x="0px" y="0px"
	 viewBox="0 0 394.7 47.1" style="enable-background:new 0 0 394.7 47.1;" xml:space="preserve">
<style type="text/css">
	.st0{fill:#E51937;}
</style>
<g>
	<g>
		<path class="st0" d="M252,0l-46.9,18.7L201.2,0h-36.4L115,47.1h34.5l32.9-31.1l3.9,20.6h13.1c0.2-0.1,31.8-13.5,44-18.6
			l-30.8,29.1h31.2L293.6,0H252z"/>
		<polygon class="st0" points="384.4,9.8 394.7,0 304.1,0 254.3,47.1 344.9,47.1 354.7,37.7 294.8,37.7 304.4,28.6 335.9,28.6 
			346.4,18.9 314.7,18.9 324.3,9.8 		"/>
		<polygon class="st0" points="119.1,0 69.3,47.1 104.5,47.1 154.4,0 		"/>
		<polygon class="st0" points="100.5,9.8 110.8,0 22.6,0 12.3,9.8 39.4,9.8 0,47.1 35,47.1 74.4,9.8 		"/>
	</g>
</g>
</svg>
