<?xml version="1.0" encoding="utf-8"?>
<!-- Generator: Adobe Illustrator 27.5.0, SVG Export Plug-In . SVG Version: 6.00 Build 0)  -->
<svg version="1.1" id="Capa_1" xmlns="http://www.w3.org/2000/svg" xmlns:xlink="http://www.w3.org/1999/xlink" x="0px" y="0px"
	 viewBox="0 0 1314.2 185.5" style="enable-background:new 0 0 1314.2 185.5;" xml:space="preserve">
<g>
	<path d="M1072.4,167.9c3.3-3.7,6.2-6.9,9.1-10c8.4-9.2,16.8-18.4,25.2-27.6c7-7.6,14-15.1,21-22.6c8.9-9.7,17.7-19.4,26.5-29.1
		c11.9-13,24.1-25.7,35.5-39c3.8-4.5,7.7-5.7,13.2-5.7c32.6,0.2,65.1,0.1,97.7,0.1c6.1,0,6.1,0,6.1,6.1c0,41.7,0,83.3-0.1,125
		c0,3.1-0.1,3.2-3.2,3.2c-21.1,0-42.1,0-63.2,0c-2.2,0-3.1-0.5-3.1-2.9c0.2-4.7,0.1-9.5,0-14.2c0-3.4-0.4-3.7-3.7-3.7
		c-22.9,0-45.8,0-68.7,0.1c-1,0-2.3,0.5-3,1.2c-5.6,5.8-11.1,11.7-16.5,17.6c-1.3,1.4-2.7,2-4.6,2c-21.9,0-43.8,0-65.7-0.1
		C1074.3,168.3,1073.8,168.1,1072.4,167.9z M1236.4,67.9c-0.3-0.1-0.6-0.2-1-0.3c-14.9,16.4-29.9,32.8-44.8,49.2
		c0.1,0.3,0.3,0.6,0.4,0.9c1.2,0.1,2.4,0.3,3.6,0.3c12.7,0,25.5,0,38.2,0c4,0,4.2-0.2,4.2-4.2c0-14.4,0-28.7-0.1-43.1
		C1237,69.8,1236.6,68.8,1236.4,67.9z"/>
	<path d="M756.2,169.3c-14.9,0-29.8,0.4-44.7-0.2c-9-0.4-18-2-25.5-7.6c-4.8-3.6-8-8.2-9.4-14.1c-1.6-6.5-1.7-12.9,0-19.3
		c1.9-7.1,3.6-14.4,6-21.4c2.6-7.5,5.8-14.7,8.9-22c2.4-5.7,4.8-11.4,7.6-16.9c3.4-6.8,8.3-12.3,14.2-17.1
		c6.8-5.5,14.4-9.5,22.6-12.2c8.2-2.8,16.7-4.6,25.5-4.7c24-0.4,48-1.1,71.9-0.9c9.5,0.1,19.3,1,28.5,4c7.5,2.5,14.5,6,19.6,12.4
		c4.4,5.5,5.4,11.9,4.9,18.7c-0.4,5.4-2.3,10.2-4.3,15.1c-1.6,3.9-2.8,8.1-4.3,12.1c-1.7,4.6-3.5,9.3-5.4,13.8
		c-2.7,6.5-5.4,13.1-8.5,19.5c-3.3,6.9-7.4,13.2-12.5,19c-5.5,6.2-11.8,11.2-19.4,14.4c-4.8,2.1-9.9,3.5-15,4.8
		c-4.1,1.1-8.4,1.9-12.6,2.4c-4,0.5-8.1,0.5-12.2,0.5c-11.9,0.1-23.8,0-35.7,0C756.2,169.6,756.2,169.4,756.2,169.3z M791.6,73
		C791.6,73,791.6,73,791.6,73c-6.7,0-13.5-0.1-20.2,0c-5.5,0.1-10.2,2.4-14,6.5c-5.2,5.6-6.7,12.9-9.6,19.6
		c-2.3,5.3-4.1,10.8-6.4,16.1c-2.4,5.7-1.6,10.3,3.8,13.1c2.1,1.1,4.8,1.6,7.2,1.6c11.9,0.1,23.8,0.1,35.7,0c2.5,0,5.1-0.3,7.3-1.2
		c6.9-2.7,11-8.3,13.8-14.8c1.6-3.8,3-7.7,4.5-11.5c2.6-6.3,5.4-12.6,7.7-19c0.7-1.9,0.8-4.3-0.9-6.4c-2.1-2.4-4.5-3.9-7.7-4
		C805.8,73,798.7,73,791.6,73z"/>
	<path d="M1086,101.4c-0.6,1.8-1.1,3.3-1.7,4.7c-4.5,10.5-7.6,21.6-13.4,31.6c-5.4,9.4-12.5,17.1-22.3,22c-6.9,3.5-14.2,6-22,7.2
		c-10.9,1.8-21.8,2.4-32.8,2.4c-18.5-0.1-37,0.2-55.5-0.1c-6.7-0.1-13.4-1.2-19.9-3.5c-8.2-2.8-15-7.3-20.3-14
		c-3.2-4.1-5.8-8.6-6.3-14c-0.2-1.9-0.9-3.7-1-5.6c-0.2-5.6,1.6-10.8,3.3-16c1.5-4.6,3.1-9.2,4.8-13.7c1.8-4.9,3.6-9.7,5.7-14.5
		c3-6.8,5.9-13.6,9.5-20.1c4.6-8.4,11-15.3,19.1-20.6c5.3-3.5,11-6.4,17.3-7.9c5.1-1.2,10.2-2.6,15.3-3.9c0.2,0,0.3-0.1,0.5-0.1
		c5.7-0.4,11.4-1.2,17.1-1.2c40.5-0.1,81-0.1,121.4-0.1c3.1,0,3.1,0,2,3c-3.9,10-7.7,20-11.6,30c-0.8,2.1-1.6,4.2-2.6,6.2
		c-0.3,0.6-1.4,1.2-2.1,1.2c-2.6,0.1-5.2,0.1-7.7,0.1c-29.2,0-58.5-0.1-87.7,0.1c-6.3,0-12.5,1.8-18,5c-4.4,2.6-6.9,6.7-8.6,11.4
		c-3,8.3-6.1,16.5-9.5,24.7c-3.5,8.4,2.2,13.3,9,13.3c11.7,0,23.3,0,35,0.1c6,0.1,11.8-4.4,13.5-9.8c1.5-5,3.5-9.9,5.5-14.8
		c0.8-2,2-3.2,4.6-3.2c11.4,0.2,22.8,0.1,34.2,0.1C1069,101.4,1077.2,101.4,1086,101.4z"/>
	<path d="M407.1,75.6c1.5-4.1,2.7-7.5,4-11c2.1-5.7,4.2-11.5,6.4-17.2c1.4-3.9,2.8-7.8,4.5-11.5c0.4-0.9,2.1-1.7,3.1-1.7
		c38.8-0.1,77.6-0.1,116.4-0.1c14.7,0,29.5,0,44.2,0c1.2,0,2.5,0,4.1,0c-2.2,5.2-4.2,10-6.1,14.8c-2,4.9-3.9,9.8-5.8,14.7
		c-1.4,3.6-2.7,7.2-4.3,10.7c-0.3,0.7-1.9,1.2-2.9,1.3c-7.1,0.1-14.2,0-21.2,0.1c-6.4,0-12.8,0.1-19.2,0c-2.3-0.1-3.6,1-4.3,2.9
		c-1.6,4.2-3.1,8.5-4.7,12.7c-1.5,3.9-3.1,7.8-4.6,11.7c-1.6,4.1-3.3,8.2-4.9,12.4c-2.1,5.4-4.2,10.9-6.3,16.3
		c-1.6,4.2-3.2,8.3-4.8,12.5c-2.1,5.4-4.3,10.9-6.4,16.3c-0.7,1.8-1.3,3.5-1.9,5.4c-0.6,2-1.7,3.1-3.9,3.1c-21.9,0-43.8,0-65.7-0.1
		c-2.6,0-3.2-0.8-2.3-3.3c2.4-6.4,5-12.7,7.5-19.1c2.1-5.4,3.9-10.8,6-16.2c1.5-4,3.1-7.9,4.6-11.9c1.6-4.2,3.3-8.4,4.9-12.6
		c2.7-7,5.4-13.9,8.1-20.9c0.9-2.2,1.6-4.5,2.5-6.7c0.6-1.6-0.2-2.3-1.5-2.4c-1.8-0.2-3.7-0.1-5.5-0.1c-12.3,0-24.7,0-37,0
		C409.3,75.6,408.5,75.6,407.1,75.6z"/>
	<path d="M204.5,74c13.7,0,27.3-0.2,41,0.1c15.2,0.3,30.4,1,45.7,1.5c7.6,0.3,15.1,0.7,22.7,1.1c6.8,0.4,13.6,0.8,20.4,1.5
		C342,79,349.8,80,357.6,81c2,0.2,3.9,0.6,5.8,1.1c0.6,0.2,1.5,0.8,1.6,1.4c0.4,2.5,0.6,5.1,0.6,7.6c0,0.2-1.3,0.7-2,0.7
		c-7.6-0.7-15.1-1.6-22.7-2.3c-8.7-0.8-17.3-1.5-26-2.2c-2.2-0.2-4.3-0.3-6.5-0.3c-20,0-40-0.1-60,0.1c-7.5,0.1-14.9,0.9-22.4,1.4
		c-4.1,0.3-8.3,0.7-12.4,1.2c-7.1,0.9-14.1,1.8-21.1,2.9c-5,0.8-10,1.6-14.9,2.7c-6.7,1.5-13.3,3.3-19.8,5.1
		c-5.2,1.4-10.4,2.7-15.4,4.6c-5.7,2-11.2,4.4-16.7,6.9c-8,3.7-15.5,8.2-21.7,14.7c-5.8,6-10.4,12.7-13.4,20.6
		c-2.6,6.7-4.3,13.5-5.3,20.5c-0.2,1.1-0.3,2.1-1.8,1.5c-4.5-1.8-9.1-3.4-13.5-5.4c-4.9-2.3-9.7-4.8-14.5-7.4
		c-10.8-5.7-20.6-12.6-29.2-21.3c-6.8-6.8-12.3-14.6-15.6-23.7c-2.5-6.8-3.7-14-3.1-21.4c0.3-3.7,1.2-4.6,4.8-5.1
		c7.8-1,15.6-2,23.4-2.8c9-1,17.9-2,26.9-2.7c14.7-1.2,29.5-2.1,44.2-3.1c6.6-0.4,13.3-0.8,19.9-0.9c25.8-0.6,51.6-1.1,77.4-1.7
		C204.5,73.7,204.5,73.9,204.5,74z"/>
	<path d="M561.5,168.6c1.4-3.9,2.5-7.4,3.8-10.7c1.7-4.5,3.5-8.9,5.2-13.3c2.2-5.5,4.4-11,6.5-16.5c2.5-6.7,4.9-13.5,7.4-20.2
		c2.1-5.4,4.3-10.8,6.4-16.2c1.6-4.2,3.1-8.5,4.7-12.8c1.5-3.9,3.1-7.8,4.6-11.7c1.6-4.3,3.2-8.6,4.9-12.9
		c2.4-6.2,4.7-12.5,7.2-18.7c0.2-0.6,1.2-1.1,1.9-1.3c0.9-0.2,2-0.1,3-0.1c21,0,42,0,63,0c0.6,0,1.2,0,1.7,0
		c2.7,0.1,2.7,0.3,1.6,2.9c-2.1,5.1-4,10.3-6,15.4c-1.7,4.4-3.4,8.7-5.1,13.1c-1.5,3.8-3,7.7-4.4,11.6c-2.1,5.6-4.2,11.2-6.4,16.8
		c-2.1,5.5-4.1,10.9-6.3,16.4c-2.1,5.4-4.3,10.6-6.4,16c-2.1,5.4-4,11-6.1,16.4c-1.6,4.1-3.3,8-4.9,12.1c-1.5,3.8-3.1,7.6-4.3,11.5
		c-0.7,2.2-2,2.5-3.9,2.5c-10.6,0-21.2,0-31.7,0c-11.2,0-22.3,0-33.5,0C563.6,168.8,562.8,168.7,561.5,168.6z"/>
	<path d="M364.5,107.4c-1.2,3-2.2,6-3.5,8.8c-4.9,10.7-12.9,19-21.8,26.4c-7.6,6.3-16,11.8-25,16c-8.6,4-17.4,7.5-26.2,11
		c-4.9,1.9-9.9,3.6-15,5c-4.7,1.3-9.6,2.2-14.4,3.2c-5.6,1.2-11.3,2.5-16.9,3.7c-2.1,0.4-4.1,0.5-6.1-1
		c-7.5-5.6-15.3-10.8-22.7-16.5c-6.1-4.7-11.5-10.3-15-17.4c-5.7-11.7-3.3-22.7,8-29.7c6-3.7,12.5-6.7,18.9-9.7
		c2.1-1,4.6-1.2,6.9-1.7c3.4-0.8,6.8-1.5,10.1-2.2c0.4-0.1,0.8-0.2,1.2-0.3c6.3-0.6,12.6-1,18.8-1.9c13.6-2,27.3-0.9,40.9-0.9
		c7.1,0,14.3,0.8,21.4,1.4c4,0.3,8.1,0.8,12.1,1.4c9,1.2,18,2.6,27,3.9C363.4,106.9,363.6,107,364.5,107.4z"/>
	<path d="M81.7,20.4c5.4-1.8,10.8-3.8,16.3-5.4c4.3-1.3,8.7-2.1,13-3.2c2.9-0.7,5.7-1.5,8.6-2.2c2.7-0.6,5.5-1.2,8.2-1.7
		c4.2-0.6,8.4-1.1,12.6-1.6c6.4-0.8,12.8-1.6,19.2-2.4c0.5-0.1,1-0.1,1.5-0.1c17.4,0,34.8-0.2,52.2,0.1c5.9,0.1,11.8,1.5,17.7,2.2
		c4.3,0.6,8.6,1,12.8,1.7c3.8,0.6,7.6,1.5,11.3,2.3c2.4,0.5,4.9,1,7.3,1.6c5,1.3,10.1,2.6,15,4c5,1.4,10.1,2.7,14.9,4.6
		c6.7,2.7,13.3,5.7,19.9,8.8c10.7,5,20.5,11.4,29.5,19.1c2.9,2.5,5.6,5.2,8.2,7.9c0.5,0.5,0.6,1.4,0.9,2.1c-0.7,0.3-1.3,0.6-2,0.8
		c-4.3,0.9-8.6,1.7-12.9,2.6c-0.2,0-0.5,0.1-0.7,0.1c-13.1,1.2-26.2,2.2-39.4,1.4c-6.8-0.4-13.5-1.6-20.3-2.4
		c-4.4-0.6-8.9-1.1-13.3-1.8c-3-0.5-6-1.3-9-2c-2.9-0.6-5.8-1.2-8.7-1.9c-5.3-1.2-10.6-2.5-15.9-3.8c-4.4-1.1-8.8-2.1-13.2-3.3
		c-4.1-1.1-8.2-2.4-12.3-3.5c-3.9-1.1-7.8-2.2-11.7-3.2c-4.7-1.3-9.4-2.6-14.1-3.7c-4.6-1.1-9.2-2.1-13.8-3.1
		c-3.1-0.7-6.2-1.6-9.4-2.3c-2.5-0.6-5-1.2-7.5-1.6c-3.3-0.6-6.5-1-9.8-1.6c-3.8-0.7-7.6-1.6-11.4-2.2c-3.7-0.7-7.5-1.3-11.3-1.7
		c-7.7-1-15.5-1.9-23.2-2.8c-1.9-0.2-3.8,0-5.7-0.2c-1.4-0.1-2.7-0.5-4-0.8C81.6,20.9,81.6,20.7,81.7,20.4z"/>
</g>
</svg>
