<?xml version="1.0" encoding="UTF-8"?> <svg xmlns="http://www.w3.org/2000/svg" width="24" height="24" viewBox="0 0 24 24" fill="none"><rect x="0.5" y="0.5" width="23" height="23" rx="5.5" stroke="#F3F2F7"></rect><path d="M7.5 7.33338C7.5 6.04469 8.54469 5 9.83338 5H12.1668V9.66677H9.83338C8.54469 9.66677 7.5 8.62208 7.5 7.33338V7.33338Z" fill="url(#paint0_radial_2181_8815)"></path><path d="M7.5 7.33338C7.5 6.04469 8.54469 5 9.83338 5H12.1668V9.66677H9.83338C8.54469 9.66677 7.5 8.62208 7.5 7.33338V7.33338Z" fill="url(#paint1_radial_2181_8815)"></path><path d="M16.8335 7.33338C16.8335 6.04469 15.7888 5 14.5001 5H12.1667V9.66677H14.5001C15.7888 9.66677 16.8335 8.62208 16.8335 7.33338V7.33338Z" fill="url(#paint2_radial_2181_8815)"></path><path d="M16.8335 7.33338C16.8335 6.04469 15.7888 5 14.5001 5H12.1667V9.66677H14.5001C15.7888 9.66677 16.8335 8.62208 16.8335 7.33338V7.33338Z" fill="url(#paint3_radial_2181_8815)"></path><path d="M16.8335 12.0004C16.8335 10.7117 15.7888 9.66699 14.5001 9.66699V9.66699C13.2114 9.66699 12.1667 10.7117 12.1667 12.0004V12.0004C12.1667 13.2891 13.2114 14.3338 14.5001 14.3338V14.3338C15.7888 14.3338 16.8335 13.2891 16.8335 12.0004V12.0004Z" fill="url(#paint4_radial_2181_8815)"></path><path d="M16.8335 12.0004C16.8335 10.7117 15.7888 9.66699 14.5001 9.66699V9.66699C13.2114 9.66699 12.1667 10.7117 12.1667 12.0004V12.0004C12.1667 13.2891 13.2114 14.3338 14.5001 14.3338V14.3338C15.7888 14.3338 16.8335 13.2891 16.8335 12.0004V12.0004Z" fill="url(#paint5_radial_2181_8815)"></path><path d="M7.5 12.0004C7.5 10.7117 8.54469 9.66699 9.83338 9.66699H12.1668V14.3338H9.83338C8.54469 14.3338 7.5 13.2891 7.5 12.0004V12.0004Z" fill="url(#paint6_radial_2181_8815)"></path><path d="M7.5 12.0004C7.5 10.7117 8.54469 9.66699 9.83338 9.66699H12.1668V14.3338H9.83338C8.54469 14.3338 7.5 13.2891 7.5 12.0004V12.0004Z" fill="url(#paint7_radial_2181_8815)"></path><path d="M7.5 16.6664C7.5 15.3777 8.54469 14.333 9.83338 14.333H12.1668V16.6664C12.1668 17.9551 11.1221 18.9998 9.83338 18.9998V18.9998C8.54469 18.9998 7.5 17.9551 7.5 16.6664V16.6664Z" fill="url(#paint8_radial_2181_8815)"></path><path d="M7.5 16.6664C7.5 15.3777 8.54469 14.333 9.83338 14.333H12.1668V16.6664C12.1668 17.9551 11.1221 18.9998 9.83338 18.9998V18.9998C8.54469 18.9998 7.5 17.9551 7.5 16.6664V16.6664Z" fill="url(#paint9_radial_2181_8815)"></path><defs><radialGradient id="paint0_radial_2181_8815" cx="0" cy="0" r="1" gradientUnits="userSpaceOnUse" gradientTransform="translate(9.83338 7.33338) rotate(45) scale(3.2999)"><stop stop-color="#FF6342"></stop><stop offset="1" stop-color="#F34628"></stop></radialGradient><radialGradient id="paint1_radial_2181_8815" cx="0" cy="0" r="1" gradientUnits="userSpaceOnUse" gradientTransform="translate(9.83338 7.33338) rotate(45) scale(3.2999)"><stop stop-color="#FF6342"></stop><stop offset="1" stop-color="#F34628"></stop></radialGradient><radialGradient id="paint2_radial_2181_8815" cx="0" cy="0" r="1" gradientUnits="userSpaceOnUse" gradientTransform="translate(14.5001 7.33338) rotate(133.531) scale(3.21846)"><stop stop-color="#FF867C"></stop><stop offset="1" stop-color="#FF756C"></stop></radialGradient><radialGradient id="paint3_radial_2181_8815" cx="0" cy="0" r="1" gradientUnits="userSpaceOnUse" gradientTransform="translate(14.5001 7.33338) rotate(133.531) scale(3.21846)"><stop stop-color="#FF867C"></stop><stop offset="1" stop-color="#FF756C"></stop></radialGradient><radialGradient id="paint4_radial_2181_8815" cx="0" cy="0" r="1" gradientUnits="userSpaceOnUse" gradientTransform="translate(14.5001 12.0004) rotate(90) scale(2.33338)"><stop stop-color="#1FC3F6"></stop><stop offset="1" stop-color="#41CDFB"></stop></radialGradient><radialGradient id="paint5_radial_2181_8815" cx="0" cy="0" r="1" gradientUnits="userSpaceOnUse" gradientTransform="translate(14.5001 12.0004) rotate(90) scale(2.33338)"><stop stop-color="#1FC3F6"></stop><stop offset="1" stop-color="#41CDFB"></stop></radialGradient><radialGradient id="paint6_radial_2181_8815" cx="0" cy="0" r="1" gradientUnits="userSpaceOnUse" gradientTransform="translate(9.83338 12.0004) rotate(90) scale(2.33338)"><stop stop-color="#AC64F7"></stop><stop offset="1" stop-color="#A155F2"></stop></radialGradient><radialGradient id="paint7_radial_2181_8815" cx="0" cy="0" r="1" gradientUnits="userSpaceOnUse" gradientTransform="translate(9.83338 12.0004) rotate(90) scale(2.33338)"><stop stop-color="#AC64F7"></stop><stop offset="1" stop-color="#A155F2"></stop></radialGradient><radialGradient id="paint8_radial_2181_8815" cx="0" cy="0" r="1" gradientUnits="userSpaceOnUse" gradientTransform="translate(9.83338 16.6664) rotate(90) scale(2.33338)"><stop stop-color="#00DD8C"></stop><stop offset="1" stop-color="#00C984"></stop></radialGradient><radialGradient id="paint9_radial_2181_8815" cx="0" cy="0" r="1" gradientUnits="userSpaceOnUse" gradientTransform="translate(9.83338 16.6664) rotate(90) scale(2.33338)"><stop stop-color="#00DD8C"></stop><stop offset="1" stop-color="#00C984"></stop></radialGradient></defs></svg> 