<?xml version="1.0" encoding="utf-8"?>
<!-- Generator: Adobe Illustrator 27.5.0, SVG Export Plug-In . SVG Version: 6.00 Build 0)  -->
<svg version="1.1" id="Capa_1" xmlns="http://www.w3.org/2000/svg" xmlns:xlink="http://www.w3.org/1999/xlink" x="0px" y="0px"
	 viewBox="0 0 345.5 65" style="enable-background:new 0 0 345.5 65;" xml:space="preserve">
<style type="text/css">
	.st0{fill-rule:evenodd;clip-rule:evenodd;}
	.st1{fill:#F4D800;}
	.st2{fill:#FFFFFF;}
</style>
<g>
	<polygon class="st0" points="0,0 345.5,0 345.5,65 0,65 0,0 	"/>
	<path class="st1" d="M47.9,33.2l-3.8-6.6h-7.6l-3.8,6.6l3.8,6.6h7.6L47.9,33.2L47.9,33.2z M50.4,39.2L73.9,6.9L57.1,24.2L61,12.8
		H44.9l-0.7,9.4c4.6,1.6,7.8,5.9,7.8,11C52,35.4,51.4,37.4,50.4,39.2L50.4,39.2z M31.4,40.8L40.3,53L49,41c-2.1,2.4-5.3,3.9-8.7,3.9
		C36.7,44.9,33.5,43.3,31.4,40.8L31.4,40.8z M36.5,22.2l-0.7-9.4H19.6l3.9,11.3L6.7,6.9l23.6,32.5c-1.1-1.8-1.8-3.9-1.8-6.2
		C28.6,28.1,31.9,23.8,36.5,22.2L36.5,22.2z M40.3,5.5h33.7c0,0,0.7,0,0.7,0.7c0,0.7-33,52.9-33,52.9s-1.2,2-1.4,2
		c-0.2,0-1.4-2-1.4-2S5.9,6.9,5.9,6.2c0-0.7,0.7-0.7,0.7-0.7H40.3L40.3,5.5z"/>
	<path class="st2" d="M335.5,26.1c-2.8,0-5.1-2.3-5.1-5.2c0-2.9,2.3-5.2,5.1-5.2c2.8,0,5.1,2.3,5.1,5.2
		C340.6,23.7,338.3,26.1,335.5,26.1L335.5,26.1z M335.5,25.3c2.3,0,4.2-2,4.2-4.4c0-2.4-1.9-4.4-4.2-4.4c-2.3,0-4.2,2-4.2,4.4
		C331.3,23.2,333.2,25.3,335.5,25.3L335.5,25.3z M334.5,18.5v2.1h0.6c1.3,0,1.6-0.7,1.6-1.2c0-0.7-0.6-0.9-1.3-0.9H334.5L334.5,18.5
		z M333.5,23.5v-5.6h2.1c1.2,0,2.2,0.5,2.2,1.4c0,0.8-0.5,1.3-1.2,1.6l1.8,2.4l-1,0.2l-1.7-2.4h-1.1v2.3H333.5L333.5,23.5z
		 M150.2,31.2c0-5.1-2.8-8.6-9.4-8.6c-6.6,0-9.4,3.5-9.4,8.6c0,5.5,2.5,9.3,9.4,9.3C147.7,40.5,150.2,36.7,150.2,31.2L150.2,31.2z
		 M268.2,17L285,42V17h15.5v12l12.9-12.4l13.4,1.5l-13.2,11.6l18,15.2l-16,1.6L300.6,32l-0.1,14.1h-12.7H285h-13.7l-4-6.9h-15.9
		l-4.9,6.9H241h-6.6h-27.7V28.4c-2.5,3.8-9.6,7.2-20.2,7.2h-2.8v-5.1l2.1-0.1c2-0.2,7-1.3,7-4.5c0-2.6-3.7-3.4-7.4-3.4h-4.2v23.6
		h-15.5V34.5c-2.2,7-11.3,12.1-25,12.1c-15.7,0-25.5-6.7-25.5-15.4c0-3.3,1.8-6.3,4.8-8.8h-12.5v23.6H92.2V22.5H77.4V17h45v3.9
		c4.5-2.7,11-4.4,18.4-4.4c12.9,0,22.7,5,25,11.7V17h21.2c10.1,0,17.2,1.7,19.6,5.3V17h31.1v5.4h-15.7v5.7h15.3v5.4h-15.3v7h16.1
		l17-23.6H268.2L268.2,17z M264.8,34.5c-1.7-3.4-3.2-6.2-5-10.4c-2.1,4.2-3.9,6.9-5.8,10.4H264.8L264.8,34.5z"/>
</g>
</svg>
