<?xml version="1.0" encoding="utf-8"?>
<!-- Generator: $$$/GeneralStr/196=Adobe Illustrator 27.6.0, SVG Export Plug-In . SVG Version: 6.00 Build 0)  -->
<svg version="1.1" id="Capa_1" xmlns="http://www.w3.org/2000/svg" xmlns:xlink="http://www.w3.org/1999/xlink" x="0px" y="0px"
	 viewBox="0 0 571 119" style="enable-background:new 0 0 571 119;" xml:space="preserve">
<style type="text/css">
	.st0{fill:#E70012;}
</style>
<g>
	<g>
		<path class="st0" d="M300,48.9c8.8-8.9,19.3-11.1,30.3-9.2c10,1.7,16.6,9.6,18.5,21c1.9,11.2,0.8,22.4,1,33.6
			c0.1,2.7,0,5.5,1.3,8.9c9.9-10.9,19.7-21.7,30.5-33.5c-8.3,0-15.3-0.2-22.3,0.1c-4.1,0.2-5.1-1.2-4.9-5.1
			c0.3-6.9,0.2-13.9,0.1-20.8c0-2.5,0.6-3.8,3.4-3.8c27-0.1,54-0.6,81,0.1c0.7,0,1.3,0.3,2.7,0.7C431,54.2,420.9,67.1,410,81
			c8.6,0,16,0.6,23.2-0.2c6.1-0.6,7.4,1.6,6.9,7c-0.4,4.3-0.1,8.6,0,12.9c0.1,1.4-0.7,3.4,0.9,4.1c2,0.9,2.3-1.5,3.1-2.5
			c10-13.3,19.8-26.8,29.7-40.2c1.6-2.1,0.8-3.4-0.5-5.3C462.6,42,452.1,27,441,11.3c15.1,0,29.6,0,44.1,0c1.7,0,2.5,0.8,3.4,2.3
			c3.2,5.4,6.8,10.6,10,16c2.7,4.5,3.3,4.6,6,0.2c1.8-3,4.5-5.7,5.6-8.9c3.2-9.2,9.9-10.3,18.3-9.8c11,0.6,22.1,0.1,34.2,0.1
			c-7.5,10.5-14.5,20.4-21.4,30.2c-3.7,5.3-7.3,10.6-11.3,15.7c-2.1,2.7-0.6,4.5,0.8,6.4c9.5,13,19,26,28.5,39.1
			c1.6,2.2,3.1,4.5,5.1,7.4c-15,0-29.2-0.1-43.3,0.1c-3.2,0-4.1-2.4-5.3-4.2c-3.6-5.4-6.9-11-10.5-16.4c-3.1-4.8-4.2-4.8-7.2,0
			c-3.4,5.5-6.6,11.1-9.8,16.7c-1.6,2.8-3.6,4-7.2,4c-54.2-0.2-108.4-0.2-162.5-0.2c-7.8,0-7.9-0.1-7.9-8c0-8.4,0-16.9,0-25.3
			c0-3.1-0.4-5.7-4.3-5.9c-4.2-0.2-4.9,2.5-4.8,5.9c0.1,9.4-0.1,18.7,0.1,28.1c0.1,3.7-0.7,5.4-4.8,5.2c-9.7-0.3-19.5-0.3-29.2-0.1
			c-4.4,0.1-6.4-1.3-6.4-6c0.1-20.1,0.1-40.1-0.1-60.2c0-3,0.9-3.9,3.8-3.8c8.4,0.2,16.9,0,25.3,0C298.5,40.1,298.5,40.1,300,48.9z"
			/>
		<path class="st0" d="M162,61.1c9-19.8,31.6-29.4,54.8-15.8c-0.4-4.4,2.1-5,5.6-4.9c9.7,0.2,19.5,0.2,29.2,0
			c3.5-0.1,4.9,0.9,4.9,4.7c-0.2,20.2-0.2,40.5,0,60.7c0,3.5-1.1,4.5-4.5,4.4c-9.6-0.2-19.1-0.1-28.7-0.1c-1.7,0-3.9,0.2-4.6-1.5
			c-2.1-5.7-4.6-2.6-7.7-1c-17,9.2-39.3,2.7-47-17c-1.9-4.8-2.7-9.7-3-14.6c-0.2-3.2-1.4-4.1-4.4-4.3c-11.1-0.9-20.1,7.1-20.6,18.6
			c-0.2,4.9-0.3,9.8,0,14.6c0.2,3.7-0.7,5.4-4.9,5.3c-10.5-0.3-21-0.2-31.5-0.1c-3.1,0-4.3-0.7-4.3-4c0.1-20.2,0.1-40.5,0-60.7
			c0-3.2,1.2-3.7,3.9-3.7c10.3,0.1,20.6,0.1,30.9-0.1c3.2-0.1,4.6,0.8,4,4.2c-0.2,0.8-0.6,2,0.4,2.5c1.2,0.6,1.8-0.4,2.7-1.1
			c5.9-4.8,12.3-8.2,20.2-7.9c3,0.1,4.4,0.8,4.2,4.1C161.8,49.3,162,55.2,162,61.1z M218.3,75c0-4.5-3.9-8.4-8.6-8.5
			c-4.4-0.2-8.9,3.9-9,8.1c-0.1,4.8,3.9,9.1,8.6,9.2C214.1,83.8,218.3,79.8,218.3,75z"/>
		<path class="st0" d="M62.3,7.3c16.9,0,33.7,0.1,50.6-0.1c3.8,0,5.3,0.9,5.2,5c-0.3,6.7-0.3,13.5,0,20.2c0.2,3.7-0.8,5-4.6,4.9
			c-7.9-0.3-15.8,0.2-23.6-0.3c-5-0.3-6.5,1.4-6.4,6.2c0.2,20.2-0.1,40.5,0.2,60.7c0.1,4.9-1.2,6.5-6.2,6.3
			c-10.3-0.4-20.6-0.4-30.9-0.1c-4.4,0.1-5.8-1.3-5.8-5.7c0.2-20.1-0.1-40.1,0.2-60.2c0.1-5.3-0.9-7.7-7-7.2c-7.4,0.6-15,0-22.5,0.2
			c-3.2,0.1-4.8-0.6-4.6-4.3C7,25.6,6.9,18.3,6.7,11C6.7,8,7.5,7.2,10.6,7.3C27.8,7.5,45,7.4,62.3,7.3C62.3,7.3,62.3,7.3,62.3,7.3z"
			/>
	</g>
</g>
</svg>
