<?xml version="1.0" encoding="utf-8"?>
<!-- Generator: $$$/GeneralStr/196=Adobe Illustrator 27.6.0, SVG Export Plug-In . SVG Version: 6.00 Build 0)  -->
<svg version="1.1" id="Layer_1" xmlns="http://www.w3.org/2000/svg" xmlns:xlink="http://www.w3.org/1999/xlink" x="0px" y="0px"
	 viewBox="0 0 72.5 16.2" style="enable-background:new 0 0 72.5 16.2;" xml:space="preserve">
<style type="text/css">
	.st0{fill:#C3360E;}
</style>
<g>
	<path id="XMLID_17_" class="st0" d="M12.9,6.8c0.7-3.2,0.5-5.8,0.5-5.9l0-0.2l-0.2,0c0,0-1.8-0.5-4.4-0.6c0.3,4.1,1.5,7.1,3.2,9.7
		C12.3,8.9,12.6,7.9,12.9,6.8"/>
	<path id="XMLID_16_" class="st0" d="M10.8,11.2c-0.6-1.4-1.1-2.8-1.6-4.3C8.9,5.5,8.6,4,8.4,2.5C8.3,1.7,8.2,0.9,8.1,0
		C8,0,7.8,0,7.6,0c0.1,5.7,0.8,10.2,1.9,13.8c0.6-0.7,1.1-1.4,1.5-2.2C11,11.5,10.9,11.3,10.8,11.2"/>
	<path id="XMLID_15_" class="st0" d="M0.5,6.8C-0.2,3.6,0,1,0,0.9l0-0.2l0.2,0c0,0,1.8-0.5,4.4-0.6C4.3,4.1,3.1,7.2,1.4,9.8
		C1,8.9,0.7,7.9,0.5,6.8"/>
	<path id="XMLID_14_" class="st0" d="M2.6,11.2c0.6-1.4,1.1-2.8,1.6-4.3C4.5,5.5,4.8,4,5,2.5C5.1,1.7,5.2,0.9,5.2,0
		c0.2,0,0.3,0,0.5,0C5.6,5.7,4.9,10.2,3.9,13.8c-0.6-0.7-1.1-1.4-1.5-2.2C2.4,11.5,2.5,11.3,2.6,11.2"/>
	<path id="XMLID_13_" class="st0" d="M7.6,12.2C7.3,9.9,7.1,7.5,7.1,5.1C7,3.4,7,1.7,7,0C6.9,0,6.8,0,6.7,0h0h0C6.6,0,6.5,0,6.4,0
		c0,1.7,0,3.4-0.1,5.1c-0.1,2.4-0.2,4.8-0.5,7.2c-0.1,1-0.3,2-0.4,3.1c0.4,0.3,0.8,0.6,1.2,0.8l0.1,0.1v0v0h0h0v0v0l0.1-0.1
		c0.4-0.2,0.8-0.5,1.2-0.8C7.8,14.3,7.7,13.3,7.6,12.2"/>
</g>
<g>
	<polygon id="XMLID_12_" points="63.2,4.9 58.6,4.9 56.3,11.4 60.8,11.4 	"/>
	<polygon id="XMLID_6_" points="62.4,7.9 65.1,11.4 70.3,11.4 67.3,7.9 72.5,4.9 67.2,4.9 	"/>
	<path id="XMLID_5_" d="M57.2,6.1l0.4-1.2H46l-1.6,4.4c-0.1,0.3-0.1,0.6,0.1,0.9c0.1,0.1,0.6,0.7,0.7,0.8c0.2,0.2,0.4,0.4,0.8,0.4
		h9.4l0.4-1.2l-6.5,0c-0.4,0-0.6-0.3-0.5-0.6L49,8.7h7.2l0.4-1.2h-7.2l0.5-1.3H57.2z"/>
	<path id="XMLID_4_" d="M43.8,4.9H32.2l-2.3,6.5h4.4l1.9-5.2h3.3c0.4,0,0.5,0.3,0.4,0.5c-0.1,0.3-0.2,0.6-0.3,0.8
		c-0.1,0.3-0.4,0.5-0.8,0.5s-3.1,0-3.1,0l2.7,3.5h5.1l-2.3-2.6c0,0,0.9,0,1.4,0c0.6,0,1-0.3,1.2-0.8c0.2-0.5,0.6-1.7,0.8-2.1
		C44.8,5.3,44.4,4.9,43.8,4.9"/>
	<polygon id="XMLID_3_" points="31.4,4.9 18.7,4.9 18.2,6.1 22.6,6.1 20.7,11.4 25,11.4 26.9,6.1 30.9,6.1 	"/>
</g>
</svg>
