<?xml version="1.0" encoding="UTF-8"?>
<svg xmlns="http://www.w3.org/2000/svg" version="1.1" viewBox="0 0 1837.1 313">
  <defs>
    <style>
      .cls-1 {
        fill: #cd001a;
      }
    </style>
  </defs>
  <!-- Generator: Adobe Illustrator 28.6.0, SVG Export Plug-In . SVG Version: 1.2.0 Build 709)  -->
  <g>
    <g id="Capa_1">
      <g>
        <path class="cls-1" d="M693.8,299.8c-8.9-1.2-17.8-1.8-26.6-3.6-55.8-11.8-87.8-51-87.1-107.9.6-47,15.1-89.5,45.8-125.7,28-33,64-52.3,106.6-59.6,33-5.7,65.4-3.7,96.3,10.2,35,15.7,54,43.3,57.9,80.9,8.4,80.9-41.1,163-116.2,193.2-16.8,6.7-34.3,10.4-52.4,11.6-2.1.1-4.2.6-6.3.9h-18ZM673,177c.6,5.4.8,11.5,2,17.5,4.3,22,17.5,33.9,38.7,34.6,23.9.8,42.6-9.4,56-28.7,19.3-27.8,26.6-59,24-92.5-1.6-20.7-14.3-35-33.5-37.9-22.4-3.4-41,5.3-55.9,21.4-22.1,23.8-28.8,53.5-31.2,85.5Z"/>
        <path class="cls-1" d="M1220.8,8.1c-2.1,10-4.1,19.7-6.1,29.4-14.5,69.1-29,138.3-43.5,207.4-3,14.4-6.1,28.9-9,43.3-.5,2.7-1.7,3.8-4.7,3.8-27.3-.1-54.6-.2-81.9,0-3.7,0-4.3-2.2-5.4-4.6-20.2-46.2-40.3-92.5-60.5-138.7-.5-1.2-1.1-2.3-2.3-4.8-10.6,50.1-20.8,98.9-31.1,147.8h-89.6c1.9-9,3.7-17.8,5.5-26.7,15.5-73.7,31-147.4,46.5-221,2.3-10.9,4.7-21.7,6.8-32.6.5-2.7,1.6-3.5,4.3-3.5,26.8,0,53.6.1,80.4,0,3.5,0,4.1,2.1,5,4.4,14.7,33.9,29.5,67.9,44.2,101.8,5.7,13.2,11.5,26.5,17.2,39.7.6,1.5,1.4,2.9,2.8,5.7,1.8-8.5,3.4-15.7,4.9-22.9,8.7-41.4,17.4-82.8,26-124.2.6-2.8,1.2-4.7,4.9-4.7,27.1.2,54.3,0,81.4.1,1.1,0,2.2.3,4,.5Z"/>
        <path class="cls-1" d="M376.9,193.1c-7,33.3-13.8,65.9-20.7,98.6h-90.2c3-14.7,6-29.1,9-43.5,16.6-78.7,33.2-157.5,49.6-236.3.7-3.4,2.2-4.2,5.3-4.1,51,.1,101.9-.3,152.9.4,14.7.2,29.6,2.3,43.9,5.8,31,7.6,47,30.7,44.1,62.4-2.4,25.4-11.6,48-31.6,65.2-9,7.7-19.2,13.1-31.4,16.3,1.4,1,2.1,1.6,3,2.1,5.4,3,10.9,5.7,16.1,9,11,7,16.7,17.3,15.9,30.2-.8,12.2-2.6,24.4-4.4,36.5-1.9,12.8-4.4,25.5-6.6,38.3-.9,4.9,0,8.7,6.4,9.3-.5,3-1,5.5-1.5,8.6-1.8,0-3.5,0-5.1,0-28,0-56-.1-83.9.1-5.1,0-6.5-1.8-5.9-6.3,2.4-16.7,4.9-33.5,7.2-50.2.8-5.9,1.8-11.8,1.9-17.8.2-11.6-6.1-19.7-17.4-22.4-5.6-1.3-11.5-2-17.3-2.1-13-.3-25.9,0-39.4,0ZM390.2,130.2c19.3,0,37.8.6,56.2-.2,12.5-.5,23.2-5.7,29.8-17.2,10.7-18.7,2.5-34.6-19-36.3-.7,0-1.3-.1-2-.1-16.6-.2-33.3-.3-49.9-.6-3,0-4.1,1.3-4.6,4-1,5.4-2.2,10.7-3.3,16.1-2.4,11.3-4.8,22.7-7.2,34.3Z"/>
        <path class="cls-1" d="M1484.3,74.6c-2.3,0-4.2,0-6.2,0-43.1,0-86.3,0-129.4-.1-4.7,0-6.3,1.5-7,5.9-1.7,9.6-3.9,19.2-5.9,28.8-.3,1.6-.6,3.2-.9,5.4h119.7c-3.3,15.5-6.4,30.4-9.5,45.3-1,4.9-2.4,9.7-3,14.6-.5,3.8-2.1,4.7-5.8,4.7-36.3-.1-72.6,0-108.9-.2-5,0-6.8,1.4-7.7,6.3-2.3,12.7-5.2,25.3-8,38.6h147c-4.8,23-9.5,45.3-14.2,67.8h-237.1c1.8-9,3.6-17.7,5.4-26.4,17.6-83.9,35.3-167.9,52.8-251.9,1-4.7,2.7-6,7.5-6,73.1.2,146.2.1,219.3.1,1.8,0,3.6,0,6.1,0-4.7,22.7-9.4,44.7-14,67Z"/>
        <path class="cls-1" d="M1527.1,7.5c2.4,0,4.1,0,5.7,0,31.1,0,62.3,0,93.4-.1,4.2,0,5.7,1.5,6.9,5.2,7.3,22.2,14.8,44.3,22.6,67.2,1.6-1.9,2.9-3.3,4.1-4.8,16.5-21.1,33-42.2,49.3-63.3,2.4-3.1,4.9-4.3,8.7-4.2,30.8.2,61.6,0,92.4,0,1.8,0,3.5,0,6.4,0-1.6,2.1-2.5,3.4-3.6,4.5-38.5,42.3-77,84.6-115.6,126.7-3.7,4-4.3,7-2.1,12,19.9,44.2,39.5,88.5,59.2,132.7,1.1,2.5,2.2,5.1,3.5,8.1-2,0-3.6.2-5.2.2-31.5,0-63,0-94.4.1-4.3,0-5.9-1.5-7.2-5.4-7.8-22.7-15.8-45.4-23.7-68.1-.5-1.4-1.1-2.8-3.2-5.6-.6,1.3-1,2.8-1.8,3.9-18.6,23.7-37.2,47.3-55.7,71-2.3,2.9-4.5,4.1-8.3,4.1-31.8-.2-63.6,0-95.4,0h-5.6c1.5-1.9,2.4-3.1,3.4-4.2,41.3-46.3,82.6-92.5,124-138.7,3.1-3.4,3.7-6,1.7-10.3-19.3-42.1-38.4-84.3-57.5-126.5-.5-1.2-.9-2.4-1.8-4.7Z"/>
        <path class="cls-1" d="M22.9,82.5c5.3-25.3,10.4-49.7,15.6-74.4h261.5c-5.2,24.9-10.4,49.4-15.6,74.4h-84.1c-5.1,24.3-10.2,48.1-15.2,71.9-9.4,44.6-18.8,89.2-28.1,133.7-.5,2.4-1.1,3.8-4,3.8-29.1,0-58.3,0-87.4.2-.6,0-1.3-.2-2.4-.5,14.6-69.6,29.2-139.1,43.9-209.1H22.9Z"/>
        <path class="cls-1" d="M1777.8,188.2c-20.5,0-36.4-16.4-36.2-37.1.2-20.1,16.6-36.3,36.8-36.3,20.5,0,36.8,16.5,36.7,37.3-.1,20.4-16.4,36.2-37.2,36.1ZM1778.3,183.3c17.6,0,31.6-14.2,31.6-31.8,0-17.4-14.4-31.9-31.6-31.8-17.4.1-31.6,14.4-31.7,31.9,0,17.4,14.4,31.8,31.7,31.7Z"/>
        <path class="cls-1" d="M1787.1,152.9c8.4,3.5,7.1,11,7.6,18.1h-6c-.2-1-.4-1.9-.5-2.9-.5-10.7-3.6-13.4-14.3-12.6-2.6.2-3.5,1.3-3.4,3.7.2,2.3.1,4.6.4,6.9.6,4.7-1.3,6.5-6.8,5.4v-39.9c6.6,0,13.6-.3,20.5.1,4.9.3,8.8,2.8,9.8,8.3,1.1,5.9-.2,8.5-7.2,12.8ZM1770.7,150.9c4.3-.2,7.8-.2,11.2-.7,3.7-.6,5.9-3.1,5.9-6.9,0-3.8-2-6.4-5.8-6.8-3.7-.4-7.5,0-11.3,0v14.4Z"/>
      </g>
    </g>
  </g>
</svg>