<?xml version="1.0" encoding="utf-8"?>
<!-- Generator: $$$/GeneralStr/196=Adobe Illustrator 27.6.0, SVG Export Plug-In . SVG Version: 6.00 Build 0)  -->
<svg version="1.1" id="Capa_1" xmlns="http://www.w3.org/2000/svg" xmlns:xlink="http://www.w3.org/1999/xlink" x="0px" y="0px"
	 viewBox="0 0 308.6 106.4" style="enable-background:new 0 0 308.6 106.4;" xml:space="preserve">
<style type="text/css">
	.st0{fill:#FF7133;}
</style>
<g>
	<path d="M293.1,79.2c-1.2,0.1-2.4,0.3-3.7,0.4c-2.4,0.3-4.9,0.6-7.3,0.9c-2.7,0.3-5.4,0.6-8.1,1c-2.9,0.3-5.9,0.7-8.8,1
		c-2.6,0.3-5.3,0.6-7.9,0.9c-1.6,0.2-3.2,0.4-4.8,0.5c-2.8,0.2-5.4-0.4-7.6-2.3c-1.5-1.3-2.4-3-3-5c-0.4-1.5-0.6-3.1-0.6-4.7
		c0-12.6,0-25.1,0-37.7c0-2.6,0.5-5.1,1.9-7.4c1.5-2.5,3.7-3.8,6.6-4.2c1.8-0.3,3.6-0.1,5.5,0.1c2.2,0.3,4.4,0.5,6.6,0.8
		c2.1,0.2,4.2,0.5,6.4,0.7c2.2,0.3,4.4,0.5,6.6,0.8c2.6,0.3,5.1,0.6,7.7,0.9c2.2,0.3,4.4,0.5,6.6,0.8c1.3,0.1,2.6,0.4,3.9,0.5
		c0,3.6,0,7.1,0,10.7c-0.9-0.1-1.8-0.1-2.6-0.2c-1.8-0.2-3.5-0.3-5.3-0.5c-2.1-0.2-4.3-0.4-6.4-0.6c-2.8-0.3-5.6-0.5-8.4-0.8
		c-1.8-0.2-3.7-0.3-5.5-0.5c-1.7-0.2-3.4-0.3-5.1-0.5c-1.9-0.2-3.7-0.3-5.6-0.5c-0.6-0.1-0.6,0-0.6,0.5c0,3.1,0,6.2,0,9.2
		c0,1,0,1.9,0,2.9c0,0.3,0.1,0.4,0.4,0.5c1.5,0,2.9,0.1,4.4,0.2c3.4,0.1,6.7,0.2,10.1,0.4c3.4,0.1,6.8,0.2,10.2,0.4
		c0.4,0,0.5,0.1,0.5,0.5c0,2.9-0.1,5.9,0,8.8c0,0.3-0.1,0.4-0.4,0.4c-2,0.1-3.9,0.2-5.9,0.2c-2.2,0.1-4.4,0.1-6.6,0.2
		c-1,0-1.9,0.1-2.9,0.1c-3.1,0.1-6.2,0.2-9.2,0.3c-0.6,0-0.6,0-0.6,0.6c0,4,0,8,0,12c0,0.1,0,0.1,0,0.2c0,0.2,0.1,0.3,0.3,0.3
		c0.4,0,0.9-0.1,1.3-0.1c1.5-0.1,3-0.3,4.5-0.4c1.5-0.1,3-0.3,4.4-0.4c2.4-0.2,4.9-0.5,7.3-0.7c1.8-0.2,3.5-0.3,5.3-0.5
		c2.2-0.2,4.3-0.4,6.5-0.6c1.5-0.1,3-0.3,4.6-0.4c1.8-0.2,3.6-0.3,5.4-0.5C293.1,72.1,293.1,75.6,293.1,79.2z"/>
	<path class="st0" d="M151.9,95.5c0.2-0.1,0.4-0.1,0.7-0.2c-0.3-0.1-0.5-0.1-0.6-0.1c-2.5-0.2-4.9-0.5-7.3-0.8
		c-0.3,0-0.4-0.1-0.4-0.5c0-1.2-0.1-2.3-0.1-3.5c0-25.5,0-51,0-76.5c0-0.5,0.1-1,0.1-1.6c0-0.3,0.1-0.4,0.4-0.4
		c3.2-0.3,6.4-0.8,9.5-1c1.1-0.1,2.2,0.2,3.3,0.3c2,0.3,4.1,0.5,6.1,0.7c0.2,0,0.4,0.1,0.5,0.1c0.3,0,0.4,0.2,0.4,0.4
		c0,0.1,0,0.3,0,0.4c0,26.9,0,53.7,0,80.6c0,0.1,0,0.2,0,0.3c0,0.4-0.2,0.6-0.6,0.6c-2.5,0.3-5,0.5-7.5,0.8c0,0,0,0-0.1,0.1
		c0.1,0.1,0.3,0.1,0.4,0.2C155,95.5,153.4,95.5,151.9,95.5z"/>
	<path d="M119.8,65.2c0.1-0.4,0.1-0.7,0.1-0.9c-0.1-0.6-0.1-1.2-0.1-1.7c0-15.5,0-31,0-46.6c0-0.1,0-0.1,0-0.2c0-0.8,0-0.9,0.9-0.9
		c2.2-0.2,4.4-0.5,6.6-0.8c2.2-0.3,4.5-0.5,6.7-0.8c0.3,0,0.4,0.1,0.4,0.4c0,0.2,0,0.4,0,0.7c0,25.9,0,51.8,0,77.7
		c0,1.2,0.2,1.1-1.1,1c-2.7-0.3-5.3-0.6-8-0.9c-1.6-0.2-3.2-0.4-4.8-0.6c-0.4,0-0.7-0.3-1-0.6c-2.5-4-5-8-7.5-12
		c-3.2-5-6.3-10-9.5-15.1C98.8,57.9,95,52,91.2,46c-0.2-0.4-0.5-0.8-0.7-1.1c-0.1-0.1-0.1-0.2-0.2-0.2c-0.1,0-0.1,0.2-0.1,0.3
		c0.1,3.2,0,6.4,0,9.6c0,10.9,0,21.7,0,32.6c0,0.1,0,0.2,0,0.3c0,0.3-0.1,0.5-0.5,0.4c-1.4-0.2-2.8-0.3-4.2-0.5
		c-2.4-0.3-4.9-0.6-7.3-0.9c-0.7-0.1-1.4-0.2-2.1-0.2c-0.4,0-0.5-0.2-0.5-0.6c0-0.4,0-0.9,0-1.3c0-21.2,0-42.4,0-63.5
		c0-0.8,0-0.8,0.8-0.9c3.5-0.4,6.9-0.8,10.4-1.2c1-0.1,1.9-0.2,2.9-0.4c0.3,0,0.6,0.1,0.7,0.4c4.7,7.4,9.3,14.7,14,22
		c4,6.3,8.1,12.7,12.1,19c0.9,1.5,1.8,2.9,2.8,4.4C119.4,64.6,119.6,64.8,119.8,65.2z"/>
	<path d="M174.2,53.2c0-12.9,0-25.9,0-38.8c0-0.1,0-0.2,0-0.3c0-0.8,0-0.8,0.8-0.7c3.5,0.4,7,0.8,10.6,1.3c1,0.1,1.9,0.2,2.9,0.4
		c0.3,0,0.4,0.1,0.4,0.4c0,0.2,0,0.3,0,0.5c0,9.4,0,18.8,0,28.2c0,0.7,0,0.7,0.7,0.7c4.5,0,9,0,13.5,0c0.3,0,0.5-0.1,0.7-0.4
		c4.2-6,8.4-12,12.5-18c1.7-2.4,3.3-4.8,5-7.1c0.2-0.3,0.4-0.3,0.7-0.3c2,0.2,3.9,0.5,5.9,0.7c2.6,0.3,5.3,0.6,7.9,0.9
		c0.6,0.1,1.2,0.1,1.7,0.2c0.2,0,0.4,0,0.2,0.4c-2.1,3-4.2,6.1-6.4,9.1c-4.9,7-9.7,14-14.6,21c-0.4,0.6-0.8,1.1-1.2,1.7
		c-0.2,0.2-0.2,0.4,0,0.6c4.4,6.3,8.8,12.7,13.2,19c3,4.2,5.9,8.5,8.9,12.7c0.2,0.3,0.1,0.4-0.2,0.4c-1.6,0.2-3.3,0.4-4.9,0.6
		c-1.8,0.2-3.7,0.4-5.5,0.7c-1.7,0.2-3.4,0.4-5.1,0.6c-0.3,0-0.5-0.1-0.6-0.3c-3.6-5.2-7.2-10.4-10.8-15.5c-2.2-3.1-4.4-6.3-6.6-9.4
		c-0.3-0.4-0.6-0.5-1.1-0.5c-4.5,0-8.9,0-13.4,0c-0.6,0-0.6,0-0.6,0.6c0,9.4,0,18.8,0,28.3c0,0.6,0.2,0.8-0.8,0.9c-3,0.3-6,0.7-9,1
		c-1.5,0.2-2.9,0.3-4.4,0.5c-0.4,0.1-0.5,0-0.5-0.4c0-2,0-4.1,0-6.1C174.2,75.5,174.2,64.3,174.2,53.2
		C174.2,53.2,174.2,53.2,174.2,53.2z"/>
	<path d="M67.4,47.4c0,8.3,0,16.7,0,25c0,1.8-0.2,3.6-1,5.3c-1.3,2.8-3.6,4.5-6.4,5.4c-1.3,0.4-2.7,0.6-4.1,0.7c-1,0.1-2-0.2-3-0.3
		c-2.4-0.3-4.8-0.6-7.2-0.8c-2.5-0.3-4.9-0.6-7.4-0.9c-2.7-0.3-5.3-0.7-8-0.9c-2.8-0.3-5.5-0.9-7.9-2.4c-3.8-2.4-6.1-5.9-6.7-10.4
		c-0.1-0.7-0.1-1.4-0.1-2.1c0-12.7,0-25.4,0-38c0-0.7,0-0.7,0.7-0.8c2.2-0.3,4.4-0.5,6.6-0.8c1.6-0.2,3.1-0.4,4.7-0.6
		c0.8-0.1,0.8-0.1,0.8,0.7c0,12.4,0,24.8,0,37.2c0,1,0,2,0,3c0,0.3,0.1,0.5,0.5,0.6c2.2,0.3,4.4,0.5,6.6,0.8
		c1.5,0.2,3.1,0.4,4.6,0.5c2,0.2,4,0.5,6,0.7c2.7,0.3,5.3,0.6,8,1c0.4,0.1,0.5,0,0.5-0.5c0-6.1,0-12.2,0-18.3c0-9.3,0-18.6,0-27.9
		c0-0.8,0-0.8,0.8-0.9c3-0.3,5.9-0.7,8.9-1c0.9-0.1,1.8-0.2,2.7-0.3c0.3,0,0.4,0.1,0.4,0.4c0,0.3,0,0.5,0,0.8
		C67.4,30.6,67.4,39,67.4,47.4C67.4,47.4,67.4,47.4,67.4,47.4z"/>
</g>
</svg>
