<?xml version="1.0" encoding="utf-8"?>
<!-- Generator: $$$/GeneralStr/196=Adobe Illustrator 27.6.0, SVG Export Plug-In . SVG Version: 6.00 Build 0)  -->
<svg version="1.1" id="Capa_1" xmlns="http://www.w3.org/2000/svg" xmlns:xlink="http://www.w3.org/1999/xlink" x="0px" y="0px"
	 viewBox="0 0 489.1 67.6" style="enable-background:new 0 0 489.1 67.6;" xml:space="preserve">
<style type="text/css">
	.st0{fill:#A84F00;}
	.st1{fill:#EC6B00;}
</style>
<g>
	<g>
		<path class="st0" d="M82.7,45.7c0.6-2.3-0.8-4.5-2.9-5.1l-2.5,9.2l-4.8,17.8l8.1-12.1l0,0L82.7,45.7z"/>
		<path class="st0" d="M82.9,27.5h0.3l6.5-23.4L80,18.8l-0.7,1l-0.6,2.4C78.1,24.9,80.2,27.5,82.9,27.5z"/>
		<path class="st1" d="M82.9,27.5c-2.8,0-4.8-2.6-4.1-5.3l0.6-2.4l0,0l-1.2,1.9L67.3,38.1l0,0l-1.5,2.3h12.8c0.4,0,0.8,0.1,1.2,0.2
			c2.1,0.6,3.5,2.8,2.9,5.1l-2.1,9.7l16.2-24.2l2.4-3.6L82.9,27.5L82.9,27.5z"/>
		<path class="st1" d="M144.1,6.8c-0.3-0.8-0.8-1.4-1.5-1.8c-0.7-0.5-1.5-0.6-2.6-0.6H93.8l-3.5,13h30.6l-2.7,10l0,0h-13.5
			l-8.6,12.9h9.3l4.6,17.1h21.6c-1.6-5.6-4.6-17.1-4.6-17.1h2.7c0,0,0,0,0.1,0h3c1.1,0,1.9-0.2,2.6-0.7c0.7-0.5,1.2-1.1,1.5-1.8
			c0.1-0.2,0.1-0.4,0.2-0.6l1-3.6c0.1-0.2,0.1-0.5,0.2-0.7c0-0.1,0-0.1,0.1-0.2l1.4-5.3l2.3-8.5c0.2-0.5,0.3-1.1,0.4-1.6l1.2-4.3
			c0.4-1.3,0.7-2.7,0.8-3.7C144.6,8.4,144.5,7.6,144.1,6.8"/>
	</g>
	<polygon class="st1" points="211.9,57.5 233.6,57.5 237.1,44 226.3,4.5 	"/>
	<path class="st1" d="M290.4,6.2c-1.3-1.6-3.3-1.6-3.3-1.6h-15.9l-9.3,34.1l-9.3-34.1h-6.4h-14.9l14.4,52.8h32.5l12.7-46.8
		C290.9,10.7,291.9,8.1,290.4,6.2"/>
	<path class="st1" d="M391.2,7.1c-0.3-0.8-0.8-1.4-1.5-1.8c-0.7-0.5-1.5-0.7-2.6-0.7h-15.5l-9.7,35.9h-20.3c0-0.2,8-29.4,9.7-35.9
		h-21.6c-0.1,0.4-12.2,44.8-14.4,52.9h63.4l12-44.2c0.4-1.3,0.7-2.7,0.8-3.6C391.6,8.7,391.5,7.8,391.2,7.1"/>
	<path class="st1" d="M320,7c-0.3-0.8-0.8-1.4-1.5-1.8c-0.7-0.5-1.5-0.6-2.6-0.6h-15.6l-14.4,52.8h21.6l12-44.2
		c0.4-1.3,0.8-2.7,0.8-3.6C320.5,8.7,320.3,7.8,320,7"/>
	<path class="st1" d="M216.5,7.1c-0.3-0.8-0.8-1.4-1.5-1.8c-0.7-0.5-1.5-0.7-2.6-0.7h-15.7h-43.3l-14.2,52.9h21.7l4.6-17l3.5-13
		l2.6-9.6h21.6l-2.7,9.8h-16.7l-3.5,12.9H187l-4.6,16.9h21.7l12-44.1c0.4-1.3,0.7-2.7,0.8-3.6C217,8.7,216.8,7.9,216.5,7.1"/>
	<path class="st1" d="M485.8,6.3c-1.4-1.9-3.6-1.7-3.6-1.7h-29.7l-15.1,22.7l-6.2-22.7h-25l14.4,52.9h25l11.2-16.8l-4.6,16.8h21.5
		L486,12.3C486,12.3,487,8,485.8,6.3"/>
	<polygon class="st1" points="401.2,4.6 400.9,4.6 386.5,57.5 408.1,57.5 411.8,43.8 	"/>
	<path class="st1" d="M80.2,8.9c0-0.7-0.2-1.3-0.4-1.9c-0.3-0.8-0.8-1.4-1.5-1.8c-0.7-0.5-1.5-0.7-2.6-0.7H60.2l-9.7,35.9H30.2
		c0-0.2,8-29.4,9.7-35.9H18.4C18.3,4.9,6.2,49.4,4,57.5h63.4l3.5-13h-14L80.2,8.9L80.2,8.9z"/>
</g>
</svg>
