<?xml version="1.0" encoding="utf-8"?>
<!-- Generator: Adobe Illustrator 27.5.0, SVG Export Plug-In . SVG Version: 6.00 Build 0)  -->
<svg version="1.1" id="layer" xmlns="http://www.w3.org/2000/svg" xmlns:xlink="http://www.w3.org/1999/xlink" x="0px" y="0px"
	 viewBox="0 0 652 223" style="enable-background:new 0 0 652 223;" xml:space="preserve">
<path d="M351.2,44.6h-9.8v-5.9h9.8V27.2h-20.5v7.7h-7.4v-7.7H302v11.5h9.8v5.9H302v11.8h21.3v-9.3h7.4v9.3h20.5V44.6z M375.5,56.6
	c0,1.8-0.6,3.3-1.8,4.5c-3.5,3.7-10.3,5.6-20.5,5.6h-22.6v9.4h-7.4v-9.4h-24c-4.6,0-8.9-0.6-13-1.9c-5.8-1.9-8.6-4.7-8.6-8.3V44.7
	H268v-5.9h9.8V27c0-1.5,0.6-2.9,1.8-4.2c3.5-4.1,10.1-6.1,19.8-6.1h24V7.3h7.4v9.4h22.6c14.8,0,22.2,3.5,22.2,10.4v11.7h9.9v5.9
	h-9.9L375.5,56.6L375.5,56.6z M194.7,187.4v19.2c0,3.3-3.5,4.9-10.6,4.9h-36.2c-7.1,0-10.6-1.6-10.6-4.9v-19.2h1.3
	c1.7,0,3.1,0.1,4.1,0.2c4.3,0.4,6.5,2,6.5,4.9v14.2h10.9v-14.8h1.4c1.4,0,2.7,0.1,4,0.2c4.3,0.5,6.5,2.2,6.5,4.9v9.6h10.9v-14.3
	c0-3.3,3.5-5,10.6-5L194.7,187.4L194.7,187.4z M271,187.4c7.1,0,10.7,1.7,10.7,5.1v14.1c0,1.9-1.4,3.3-4.2,4.2
	c-1.8,0.6-4,0.9-6.5,0.9h-1.1v-9.5h-23.7v9.5h-1.3c-2.2,0-4.3-0.3-6.3-1c-2.8-0.9-4.2-2.3-4.2-4v-14.2c0-0.8,0.3-1.4,0.8-2
	c1.9-2,5.1-2.9,9.7-2.9h1.2v9.7H270v-9.7h1V187.4z M351.6,187.4c7.1,0,10.7,1.7,10.7,5.1h-35.5v4.5h35.5c0,3.4-4.3,5.1-13.1,5.1
	h-22.4v4.6h35.5c0,3.3-3.5,4.9-10.7,4.9h-26c-2.2,0-4.3-0.3-6.3-1c-2.8-0.9-4.2-2.3-4.2-4v-14.1c0-0.7,0.3-1.4,0.9-2
	c1.9-2,5-3,9.6-3h26V187.4z M432.2,187.4c7.1,0,10.7,1.7,10.7,5.1h-35.5v4.5h35.5c0,3.4-4.3,5.1-13.1,5.1h-22.4v4.6h35.5
	c0,3.3-3.6,4.9-10.7,4.9h-26c-2.2,0-4.3-0.3-6.3-1c-2.8-0.9-4.2-2.3-4.2-4v-14.1c0-0.7,0.3-1.4,0.8-2c1.9-2,5-3,9.6-3h26.1V187.4z
	 M481,187.4c7.1,0,10.7,1.7,10.7,5.1v14.1h24.5c-0.4,3.3-4.1,4.9-11,4.9h-14.4c-2.5,0-4.7-0.3-6.6-0.9c-2.8-0.9-4.2-2.3-4.2-4.2
	v-19.2h1V187.4z M27.2,100.9c5.6,0,10.9,0.7,15.9,2.1c7.3,2.1,10.9,5.2,10.9,9.3v20.6c0,0.9,4,3.1,11.9,6.6
	c10.1,4.5,15.6,6.9,16.3,7.2l7.4-3.1c2.8-1.2,6.1-2.6,9.7-4.3c8.2-3.8,12.3-5.9,12.3-6.4v-20.8c0-4.1,3.8-7.2,11.3-9.1
	c5.3-1.4,10.7-2.1,16.1-2.1h2.5v36.8c-0.1,0.5-1.5,1.4-4.1,2.7c-8.3,4.2-15.7,7.6-22.2,10.3l-13.4,5.6c-9.5,4-16,6.5-19.6,7.6
	c-8.8-3.4-15.2-5.9-19.3-7.6c-11-4.7-19.4-8.4-25.3-11.3c-8.7-4.1-10.8-6.6-10.9-7.4L27.2,100.9z M158.3,100.9
	c17.9,0,26.8,4.3,26.8,12.8v48h-3.3c-5.6,0-10.8-0.8-15.7-2.5c-7-2.3-10.5-5.7-10.5-10.1v-48.2L158.3,100.9L158.3,100.9z
	 M288.4,100.9c18.7,0,28,4.3,28,12.8h-89.2V125h61c18.8,0,28.2,4,28.2,12.1v12.1c0,8.6-9.5,12.8-28.4,12.8h-63
	c-5.8,0-11.4-0.8-16.7-2.3c-7.5-2.3-11.3-5.8-11.3-10.3h90v-11.5h-63.2c-6,0-11.4-0.8-16.3-2.3c-7-2.3-10.5-5.8-10.5-10.5V115
	c0-2.5,0.8-4.6,2.3-6.4c4.3-5,12.5-7.6,24.7-7.6h64.4V100.9z M331,100.9c17.9,0,26.8,4.3,26.8,12.8v48h-3.3
	c-5.6,0-10.8-0.8-15.8-2.5c-7-2.3-10.5-5.7-10.5-10.1v-48.2L331,100.9L331,100.9z M604.6,161.5h-6c-12.1,0-21.4-2.1-28-6.4
	l-31.5-20.4l-11.8-7.6v34.4h-29.6v-60.7h6c12.2,0,21.6,2.2,28.2,6.4l31.5,20.4c0.3,0.3,0.5,0.5,0.8,0.6c4.9,3,8.6,5.2,10.9,6.8v-22
	c0-8.2,9.1-12.3,27.2-12.3h2.3V161.5z M423.9,113.9h-26.1v14.2v7.3V150h26.1h9H458v-14.6v-7.3v-14.2h-25.1H423.9z M368.1,128.1
	v-14.6c0-1.8,0.7-3.6,2.2-5.1c4.3-5,12.4-7.5,24.3-7.5H424v-0.1h9v0.1h27.6c18.2,0,27.2,4.3,27.2,12.8v14.4v7.3v14.8
	c0,2.2-0.7,4.1-2.2,5.5c-4.3,4.6-12.7,6.9-25.1,6.9h-27.6v0.1h-9v-0.1h-29.4c-5.6,0-10.9-0.8-15.9-2.4c-7.1-2.4-10.6-5.8-10.6-10.3
	v-14.6v-7.2H368.1z M619.2,107.3v3.3h0.4c0.6,0,1.4-0.2,1.4-1.6v-0.1c0-1.4-0.7-1.6-1.4-1.6L619.2,107.3L619.2,107.3z M616.2,115.7
	v-11.3h3.7c2.3,0,4,1.6,4,4.4v0.2c0,1.7-0.6,2.9-1.6,3.6l1.5,3.1h-3.3l-0.9-2.4h-0.4v2.4L616.2,115.7L616.2,115.7z M625.2,112.5
	v-4.8c0-3.4-2.1-5.4-5.2-5.4c-3.1,0-5.3,2-5.3,5.4v4.8c0,3.4,2.2,5.3,5.3,5.3S625.2,115.9,625.2,112.5 M613.2,112.5v-4.8
	c0-4.4,2.8-6.9,6.8-6.9s6.7,2.6,6.7,6.9v4.8c0,4.4-2.7,6.8-6.7,6.8S613.2,116.9,613.2,112.5"/>
</svg>
