<?xml version="1.0" encoding="utf-8"?>
<!-- Generator: Adobe Illustrator 27.5.0, SVG Export Plug-In . SVG Version: 6.00 Build 0)  -->
<svg version="1.1" id="Capa_1" xmlns="http://www.w3.org/2000/svg" xmlns:xlink="http://www.w3.org/1999/xlink" x="0px" y="0px"
	 viewBox="0 0 323 69" style="enable-background:new 0 0 323 69;" xml:space="preserve">
<style type="text/css">
	.st0{fill:#D00214;}
</style>
<g>
	<path d="M205.9,59.2c-2.3-0.3-4.6-0.5-6.9-1c-5.3-1.1-7.8-4.4-7-9.7c0.6-3.7,1.8-7.4,2.9-11.1c0.3-1.2,0.9-2.3,1.4-3.4
		c4.9-10.5,12.9-14.8,26.8-13.7c0.9,0.1,1.8,0.2,2.7,0.4c5.9,1.1,8.8,5,7.4,10.8c-1.2,4.9-2.7,9.8-4.8,14.4
		C224.1,55.6,216,59,205.9,59.2z M208.8,50.8c2.3,0.1,4.8-0.5,5.7-2.8c2.3-5.3,4.2-10.7,6-16.2c0.7-2-0.8-3.2-2.8-3.5
		c-3.6-0.5-6.5,0.7-8,4.1c-2,4.5-3.5,9.1-4.9,13.8C203.8,49.5,205.1,50.8,208.8,50.8z"/>
	<path d="M287.3,30.2c0.4-2.4,0.5-4.4,1.1-6.1c0.2-0.7,1.2-1.4,2-1.6c7.2-1.9,14.5-3.2,22-1.9c5.9,1,8.1,4.4,6.2,10
		c-2.3,6.9-4.8,13.7-7.2,20.5c-1.2,3.5-3.7,5.6-7.3,6.5c-6.9,1.6-13.8,2.1-20.8,0.8c-5.2-1-7.2-3.9-6.3-9.1
		c1.2-6.7,5.7-11.5,12.4-12.8c4.5-0.9,9-1.7,13.6-2.1c2.5-0.3,3-1.9,3.1-3.7c0.1-2.1-1.8-2.3-3.3-2.2c-3.6,0.2-7.3,0.7-10.9,1.1
		C290.5,29.6,289.2,29.9,287.3,30.2z M302.8,40.6c-3.7,0.7-6.7,1.1-9.6,2c-2.5,0.7-4.4,4.5-3.7,6.6c0.9,2.8,3.3,2.2,5.4,2.2
		c1,0,2-0.1,2.9-0.4c0.6-0.2,1.4-0.7,1.6-1.3C300.6,47.1,301.5,44.3,302.8,40.6z"/>
	<path d="M3.8,21.3c1.7,5.6,3,11,4.8,16.1c1.3,3.6,3.7,6.7,7,8.9c3.3,2.1,6.4,2,9.5-0.3c4.9-3.6,7.9-8.6,10.2-14
		c3.3-7.7,6.2-15.6,8.9-23.5c0.9-2.5,2-3.8,4.7-3.6c2.6,0.2,5.2,0.1,7.7,0c1.7,0,2.3,0.7,1.9,2.3c-4.2,14.6-9.3,28.7-19,40.6
		c-2.8,3.5-6.4,6.6-10.2,9.1c-6.4,4.2-13.3,2.5-17.8-3.7c-4.6-6.3-6.1-13.6-7.1-21.1C4.2,28.7,4.1,25.1,3.8,21.3z"/>
	<path d="M101.4,40.7c1.6-4.6,3.1-8.8,4.6-12.9c2.4-6.8,1.1-5.5,7.9-5.6c1.9,0,3.8,0,6.3,0c-0.8,2.6-1.4,4.8-2.2,6.9
		c-3,8.7-6.2,17.4-9.1,26.1c-0.7,2.2-1.9,3.1-4.2,2.9c-2.4-0.2-4.8-0.1-7.2,0c-1.8,0.1-2.7-0.7-3.3-2.3c-3.6-10.4-7.3-20.7-11-31
		c-0.7-2-0.2-2.7,1.9-2.7c2.2,0.1,4.3,0.2,6.5,0c2.3-0.2,3.5,0.7,4.2,2.9c1.4,4.4,3,8.8,4.6,13.2C100.4,38.9,100.8,39.5,101.4,40.7z
		"/>
	<path class="st0" d="M23,63.4c4.1-1.5,7.8-2.4,11-4.2c8.5-4.8,13.9-12.5,18.7-20.7C58.3,29,62,18.6,65.3,8c0.6-2.1,1.7-3,3.9-2.9
		c2.5,0.1,5,0,7.5,0c2.3,0,2.9,0.6,2.1,2.9c-2.2,6.5-4.2,13.1-6.9,19.5c-4.4,10.5-10.5,19.9-19.2,27.4c-6.1,5.3-13,8.6-21.1,9.2
		C28.9,64.2,26.2,63.7,23,63.4z"/>
	<path d="M191.1,8.4c-1.5,4.5-2.8,8.3-4.3,12.7c2.5,0,4.7,0,6.9,0c2.5,0,2.9,0.5,2,2.8c-2.6,6.9-1,6-8.2,5.8c-3-0.1-4.4,0.9-5.2,3.8
		c-1.2,4.2-3,8.3-4.3,12.5c-1,3.2-0.3,4.1,3.1,4.1c1.6,0,3.3,0,5.4,0c-0.4,2.1-0.6,4.1-1.1,6c-0.2,0.7-1.3,1.4-2.1,1.5
		c-4.2,0.4-8.4,1-12.6,0.8c-4.9-0.2-7.1-3-6.2-7.9c0.6-3.6,2-7,3.2-10.5c3.1-8.8,6.3-17.5,9.3-26.3c0.8-2.4,2.1-3.6,4.5-3.8
		C184.4,9.4,187.3,8.9,191.1,8.4z"/>
	<path d="M163.8,8.4c-1.5,4.6-2.8,8.3-4.2,12.6c2.7,0,4.9,0,7.1,0c2.1-0.1,2.6,0.6,1.8,2.7c-2.7,7-1,6-8.4,6c-2.8,0-4.2,0.6-4.9,3.4
		c-1.2,4.3-3,8.5-4.5,12.7c-1.1,3.1-0.2,4.2,3,4.2c1.6,0,3.3,0,5.4,0c-0.3,2-0.5,4-1,6c-0.2,0.6-1.1,1.4-1.8,1.4
		c-4.4,0.4-8.8,1-13.1,0.8c-5-0.2-7.3-3.6-5.9-8.5c1.9-6.5,4.2-12.8,6.4-19.1c2-5.7,4.1-11.4,6.1-17.2c0.7-2.1,1.8-3.4,4.2-3.6
		C157,9.5,160,8.9,163.8,8.4z"/>
	<path d="M235.1,58.1c-1,0-2,0-3,0c-2.9,0-3.2-0.4-2.2-3c3.3-9.3,6.7-18.6,9.9-28c1-2.8,2.7-4.4,5.5-4.8c5.3-0.8,10.5-1.4,15.8-2
		c2.6-0.2,2.9,0.4,2.1,2.9c-1.8,5.5-1.8,5.7-7.5,5.9c-3.3,0.1-4.9,1.4-5.8,4.7c-2.1,6.9-4.8,13.6-7.2,20.5c-1.3,3.8-1.3,3.8-5.2,3.8
		C236.6,58.1,235.9,58.1,235.1,58.1z"/>
	<path d="M281,22.1c-1.5,4.4-2.8,8.1-4.1,11.7c-2.5,7.1-5.1,14.2-7.5,21.4c-0.7,2-1.7,3-4,2.9c-2.2-0.1-4.5-0.1-6.7,0
		c-1.9,0-2.6-0.7-1.9-2.6c3.7-10.4,7.4-20.8,11.1-31.2c0.6-1.6,1.5-2.2,3.1-2.2C274.1,22.2,277.2,22.1,281,22.1z"/>
	<path d="M139.4,22.2c-1.3,3.8-2.4,7-3.5,10.2c-2.7,7.7-5.5,15.3-8.1,23c-0.7,1.9-1.7,2.9-3.8,2.8c-2.3-0.1-4.7,0-7,0
		c-1.8,0-2.5-0.6-1.8-2.4c3.7-10.5,7.4-21,11.2-31.4c0.3-0.8,1.4-1.9,2.2-2C131.9,22.1,135.3,22.2,139.4,22.2z"/>
	<path d="M276.6,17.4c-7.5,0.1-6.1-0.4-4.2-5.7c2.7-7.5,1.4-6.7,9.3-6.7c5.3,0,5.3,0,3.5,5.1c-0.2,0.6-0.4,1.3-0.7,1.9
		C282.6,17.4,282.6,17.4,276.6,17.4z"/>
	<path d="M139.2,5c6.9-0.1,6.4-0.2,4.2,5.7c-2.6,7.1-1.3,6.7-9.3,6.7c-5.3,0-5.3,0-3.5-5.1c0.2-0.5,0.4-1.1,0.6-1.6
		C133.3,4.1,133.4,5,139.2,5z"/>
</g>
</svg>
