<?xml version="1.0" encoding="UTF-8"?>
<svg version="1.1" xmlns="http://www.w3.org/2000/svg" width="201" height="59">
<path d="M0 0 C66.33 0 132.66 0 201 0 C201 19.47 201 38.94 201 59 C134.67 59 68.34 59 0 59 C0 39.53 0 20.06 0 0 Z " fill="#FAFAFA" transform="translate(0,0)"/>
<path d="M0 0 C4.34584985 0.68170194 8.78850824 0.5 13.1875 0.5 C13.1875 10.73 13.1875 20.96 13.1875 31.5 C9.330625 31.5825 5.47375 31.665 1.5 31.75 C0.29255127 31.78641602 -0.91489746 31.82283203 -2.15893555 31.86035156 C-10.05153418 31.94231138 -10.05153418 31.94231138 -13.9375 29.68359375 C-18.33923723 24.55740393 -20.54266149 20.55832109 -20.1953125 13.7734375 C-19.27952817 8.33479993 -17.0979837 4.64265218 -13 1 C-8.44286627 -1.14453352 -4.88080111 -0.86769798 0 0 Z " fill="#111111" transform="translate(79.8125,23.5)"/>
<path d="M0 0 C3.63 0 7.26 0 11 0 C16.22321429 10.04464286 16.22321429 10.04464286 17 15 C17.66 15 18.32 15 19 15 C19.2475 14.01 19.495 13.02 19.75 12 C20.95812141 7.71904804 22.90821294 3.90940785 25 0 C26.98 0 28.96 0 31 0 C32.00696568 2.10084209 33.0053589 4.20579489 34 6.3125 C34.556875 7.48425781 35.11375 8.65601563 35.6875 9.86328125 C37 13 37 13 37 16 C37.66 16 38.32 16 39 16 C39.061875 15.21625 39.12375 14.4325 39.1875 13.625 C40.31737609 8.58401435 42.59234127 4.56837811 45 0 C48.63 0 52.26 0 56 0 C54.78298052 3.04254871 53.58524305 5.97564056 52.1953125 8.92578125 C51.85886719 9.64056641 51.52242187 10.35535156 51.17578125 11.09179688 C50.65564453 12.19104492 50.65564453 12.19104492 50.125 13.3125 C49.78597656 14.03373047 49.44695313 14.75496094 49.09765625 15.49804688 C46.8003558 20.36779972 44.42318665 25.19165878 42 30 C39.36 30 36.72 30 34 30 C33.16260219 27.8765984 32.33019717 25.7512272 31.5 23.625 C31.0359375 22.44164063 30.571875 21.25828125 30.09375 20.0390625 C29 17 29 17 29 15 C28.34 15 27.68 15 27 15 C26.70996094 15.99580078 26.70996094 15.99580078 26.4140625 17.01171875 C23.82776801 25.78207381 23.82776801 25.78207381 22 30 C19.36 30 16.72 30 14 30 C12.03898368 25.9387898 10.08165802 21.87581157 8.125 17.8125 C7.56941406 16.66201172 7.01382812 15.51152344 6.44140625 14.32617188 C5.90644531 13.21435547 5.37148437 12.10253906 4.8203125 10.95703125 C4.32805176 9.93585205 3.83579102 8.91467285 3.32861328 7.86254883 C2.1304319 5.28102058 1.05699161 2.64247903 0 0 Z " fill="#0D0D0D" transform="translate(8,24)"/>
<path d="M0 0 C4.89179034 2.59909379 8.12739666 6.04234623 9.87109375 11.2734375 C10.23935599 16.88943666 10.08665382 20.45009739 6.87109375 25.2734375 C1.20701124 30.86199891 -2.94516003 31.78299126 -10.77734375 31.765625 C-15.99187966 30.99985399 -18.89449591 28.28919416 -22.12890625 24.2734375 C-24.46492393 19.60140214 -23.64228362 13.34376003 -23.12890625 8.2734375 C-21.82647272 5.29567452 -20.72938333 4.41160754 -18.12890625 2.2734375 C-17.42765625 1.6546875 -16.72640625 1.0359375 -16.00390625 0.3984375 C-10.91012501 -1.59478125 -5.21074557 -1.77834619 0 0 Z " fill="#0E0E0E" transform="translate(183.12890625,23.7265625)"/>
<path d="M0 0 C4.05949084 2.27234447 6.60375757 5.14501515 8.6875 9.3125 C9.45000806 16.15007228 8.85744994 20.79013387 4.6875 26.3125 C-1.01406208 30.58867156 -7.369934 31.09244017 -14.3125 30.3125 C-19.15784827 27.97955454 -22.0468461 25.19236993 -24.3125 20.3125 C-25.06320518 14.73583292 -25.05993187 9.98674739 -22.75 4.8125 C-16.10326475 -2.00466435 -8.81844872 -4.01583631 0 0 Z " fill="#0A0A0A" transform="translate(149.3125,24.6875)"/>
<path d="M0 0 C3.3 0 6.6 0 10 0 C10 6.93 10 13.86 10 21 C10.66 21 11.32 21 12 21 C12 20.34 12 19.68 12 19 C15.42713219 16.89099557 18.00871074 16.52104529 22 17 C27.57894737 20.15789474 27.57894737 20.15789474 29 23 C29.084915 24.8863912 29.107193 26.77578515 29.09765625 28.6640625 C29.09443359 29.78554688 29.09121094 30.90703125 29.08789062 32.0625 C29.07951172 33.238125 29.07113281 34.41375 29.0625 35.625 C29.05798828 36.80835938 29.05347656 37.99171875 29.04882812 39.2109375 C29.03701467 42.14067507 29.02054258 45.07031272 29 48 C26.03 48 23.06 48 20 48 C19.95101562 46.73542969 19.90203125 45.47085938 19.8515625 44.16796875 C19.7765262 42.50779053 19.70097873 40.84763536 19.625 39.1875 C19.5940625 38.35412109 19.563125 37.52074219 19.53125 36.66210938 C19.49257812 35.85966797 19.45390625 35.05722656 19.4140625 34.23046875 C19.3826416 33.49207764 19.3512207 32.75368652 19.31884766 31.99291992 C19.09165386 29.68650412 19.09165386 29.68650412 17 27 C14.41619823 26.74969023 14.41619823 26.74969023 12 27 C10.85345518 29.29308963 10.80270883 30.79909656 10.68359375 33.3515625 C10.64169922 34.20234375 10.59980469 35.053125 10.55664062 35.9296875 C10.51732422 36.81914063 10.47800781 37.70859375 10.4375 38.625 C10.39431641 39.5221875 10.35113281 40.419375 10.30664062 41.34375 C10.20043285 43.56231239 10.09970041 45.78113565 10 48 C6.7 48 3.4 48 0 48 C0 32.16 0 16.32 0 0 Z " fill="#080808" transform="translate(94,6)"/>
<path d="M0 0 C3.5625 0.3125 3.5625 0.3125 5.5 1.375 C7.1765629 4.43226176 6.92778977 6.9031288 6.5625 10.3125 C5.5 12.25 5.5 12.25 3.5625 13.3125 C0 13.6875 0 13.6875 -3.4375 13.3125 C-6.14982939 9.24400591 -5.74449887 7.14773216 -5.4375 2.3125 C-3.4375 0.3125 -3.4375 0.3125 0 0 Z " fill="#ECECEC" transform="translate(76.4375,32.6875)"/>
<path d="M0 0 C3.125 0.375 3.125 0.375 5.5625 2 C7.125 4.375 7.125 4.375 7.0625 7.4375 C5.67211802 11.79403019 5.67211802 11.79403019 3.125 13.375 C0.125 13.8125 0.125 13.8125 -2.875 13.375 C-4.8125 11.8125 -4.8125 11.8125 -5.875 9.375 C-5.42669811 0.70783019 -5.42669811 0.70783019 0 0 Z " fill="#EDEDED" transform="translate(140.875,32.625)"/>
<path d="M0 0 C4.34586828 -0.39507893 6.32003497 -0.45331002 10 2 C10.643026 8.75177305 10.643026 8.75177305 8.9375 12.0625 C5.76026699 13.59987081 3.32611047 12.8466463 0 12 C-2.31332486 8.53001271 -2.33957563 7.07490752 -2 3 C-1.34 2.01 -0.68 1.02 0 0 Z " fill="#F0F0F0" transform="translate(172,33)"/>
<path d="M0 0 C3.63 0 7.26 0 11 0 C11 0.33 11 0.66 11 1 C9.35 1 7.7 1 6 1 C6.33 3.31 6.66 5.62 7 8 C6.01 8.33 5.02 8.66 4 9 C0 2.25 0 2.25 0 0 Z " fill="#2A2A2A" transform="translate(8,24)"/>
<path d="M0 0 C0.99 0.33 1.98 0.66 3 1 C3.33 5.62 3.66 10.24 4 15 C3.34 15 2.68 15 2 15 C2 14.34 2 13.68 2 13 C1.34 13 0.68 13 0 13 C0 8.71 0 4.42 0 0 Z " fill="#C8C8C8" transform="translate(157,33)"/>
<path d="M0 0 C0 0.33 0 0.66 0 1 C-3.64793184 2.27253436 -7.1936543 3.32829194 -11 4 C-7.65667474 -0.27945633 -5.29105716 -0.4070044 0 0 Z " fill="#464646" transform="translate(77,23)"/>
<path d="M0 0 C1.89213369 2.38573379 3.02391783 4.07175348 4 7 C3.01 7.33 2.02 7.66 1 8 C0 7 0 7 -0.0625 3.4375 C-0.041875 2.303125 -0.02125 1.16875 0 0 Z " fill="#E5E5E5" transform="translate(124,43)"/>
<path d="M0 0 C0.33 0 0.66 0 1 0 C1 3.3 1 6.6 1 10 C0.01 9.01 -0.98 8.02 -2 7 C-1.34 4.69 -0.68 2.38 0 0 Z " fill="#111111" transform="translate(122,29)"/>
<path d="M0 0 C0.99 0.33 1.98 0.66 3 1 C2.34 2.32 1.68 3.64 1 5 C-0.65 5 -2.3 5 -4 5 C-2.68 3.35 -1.36 1.7 0 0 Z " fill="#262626" transform="translate(165,26)"/>
<path d="M0 0 C0.66 0.33 1.32 0.66 2 1 C-0.31 3.31 -2.62 5.62 -5 8 C-5 5 -5 5 -2.5 2.3125 C-1.675 1.549375 -0.85 0.78625 0 0 Z " fill="#2A2A2A" transform="translate(132,25)"/>
</svg>
