<?xml version="1.0" encoding="utf-8"?>
<!-- Generator: Adobe Illustrator 27.5.0, SVG Export Plug-In . SVG Version: 6.00 Build 0)  -->
<svg version="1.1" id="Capa_1" xmlns="http://www.w3.org/2000/svg" xmlns:xlink="http://www.w3.org/1999/xlink" x="0px" y="0px"
	 viewBox="0 0 200 135.9" style="enable-background:new 0 0 200 135.9;" xml:space="preserve">
<style type="text/css">
	.st0{fill-rule:evenodd;clip-rule:evenodd;fill:#004D96;}
	.st1{fill-rule:evenodd;clip-rule:evenodd;fill:#FEEE00;}
</style>
<g>
	<polygon class="st0" points="187.9,100.9 187.9,3.5 187.8,3.4 12.1,3.4 12.2,100.9 100,132.5 187.9,100.9 	"/>
	<polygon class="st1" points="99.9,122.4 21.9,94.9 21.9,13.1 178.5,13.2 178.6,13.4 178.5,94.5 99.9,122.4 	"/>
	<path class="st0" d="M161.7,44.3c0-1.3-0.2-2.6-0.5-3.8c-1-3.2-4.1-5.3-7.3-5.4c-2.9-0.4-6.9-0.9-11.8,0.8c-3.1,1.4-5,4.3-5.5,7.6
		l0,19.5l-2.6,0l0-27.9h-11.8L109,63.6v9.3c0.1,0,14.3,0,14.3,0l0,7.9l10.7,0v-8l2.7,0c1.3,4.3,5.6,7.7,9.9,8c3.1-0.2,6.3,0.4,9-0.7
		c3.3-1.5,6-5,6.1-8.8L161.7,44.3L161.7,44.3z M123.2,63.4h-4.1v-0.2l4-7.9l0.1,0.1V63.4L123.2,63.4z M149.8,73.5
		c-0.7,0.2-1.5,0-1.7-0.6l-0.2-1l0-28.9c0.2-0.4,0.6-0.8,1-0.9c0.5,0,1,0,1.3,0.4l0.3,0.7l0,29.5C150.5,73,150.1,73.2,149.8,73.5
		L149.8,73.5z"/>
	<path class="st0" d="M97,70.4V44.2c0-1.3-0.1-2.7-0.6-3.8c-1-2.9-3.8-5-6.7-5.3l-25.5,0L61.8,49l-2.2-13.9l-8.5,0
		c-0.6,2.6-2.2,13.6-2.2,13.6c-0.1-0.1-2-13.6-2-13.6c0,0-10.8,0-10.8,0l7.4,45.8l9.3,0l2.5-14.5c0.1,0.1,2.4,14.5,2.4,14.5l9.6,0
		l5-31.2l0,31.2l17.1,0.1c1.7,0.1,3.1-0.6,4.4-1.5C96.5,77.5,97.3,73.8,97,70.4L97,70.4z M83.7,71.8l-0.2,0V44
		c0.7-0.1,1.6,0.5,1.9,1l0.2,0.5l0,25.1C85.4,71.1,84.1,71.8,83.7,71.8L83.7,71.8z"/>
	<path class="st0" d="M163.1,81.3h-0.6v-2.9h1.1c0.7,0,1.1,0.2,1.1,0.9c0,0.6-0.3,0.8-0.7,0.8l0.7,1.2H164l-0.6-1.2h-0.3V81.3
		L163.1,81.3z M163.1,79.6h0.5c0.2,0,0.4,0,0.4-0.3c0-0.3-0.1-0.3-0.4-0.3h-0.5V79.6L163.1,79.6z M163.5,76.9c1.6,0,3,1.3,3,3
		c0,1.6-1.3,3-3,3c-1.6,0-3-1.3-3-3C160.5,78.2,161.9,76.9,163.5,76.9L163.5,76.9z M163.5,82c1.2,0,2.1-0.9,2.1-2.2
		c0-1.3-0.9-2.2-2.1-2.2c-1.2,0-2.1,0.9-2.1,2.2C161.4,81.1,162.3,82,163.5,82L163.5,82z"/>
	<polygon class="st0" points="98.8,63.5 107.2,63.5 107.2,53.3 98.8,53.3 98.8,63.5 	"/>
</g>
</svg>
