<?xml version="1.0" encoding="UTF-8"?>
<svg version="1.1" xmlns="http://www.w3.org/2000/svg" width="250" height="140">
<path d="M0 0 C82.5 0 165 0 250 0 C250 46.2 250 92.4 250 140 C167.5 140 85 140 0 140 C0 93.8 0 47.6 0 0 Z " fill="#FEFEFE" transform="translate(0,0)"/>
<path d="M0 0 C2.31 0 4.62 0 7 0 C6.52434234 2.45906037 6.04463948 4.91720993 5.5625 7.375 C5.42779297 8.07367188 5.29308594 8.77234375 5.15429688 9.4921875 C4.11328125 14.7734375 4.11328125 14.7734375 3 17 C4.32 17 5.64 17 7 17 C7.99 12.05 8.98 7.1 10 2 C12.31 1.34 14.62 0.68 17 0 C15.68 5.61 14.36 11.22 13 17 C14.32 17 15.64 17 17 17 C17.12117188 16.35933594 17.24234375 15.71867187 17.3671875 15.05859375 C18.35679227 9.95071067 19.48510951 4.97749731 21 0 C22.98 0 24.96 0 27 0 C26.73713292 1.77203338 26.46412312 3.54256185 26.1875 5.3125 C26.03667969 6.29863281 25.88585937 7.28476563 25.73046875 8.30078125 C24.75117632 13.2600857 23.33007643 18.1230531 22 23 C13.42 23 4.84 23 -4 23 C-3.35910629 17.23195661 -2.68620776 12.0295391 -1.4375 6.4375 C-1.03337891 4.61025391 -1.03337891 4.61025391 -0.62109375 2.74609375 C-0.31365234 1.38677734 -0.31365234 1.38677734 0 0 Z " fill="#0A0A0A" transform="translate(61,58)"/>
<path d="M0 0 C6.27 0 12.54 0 19 0 C18.37521673 5.62304947 17.77664927 10.58700712 16.5 16 C16.2421875 17.11375 15.984375 18.2275 15.71875 19.375 C15 22 15 22 14 23 C12.58429877 23.08651611 11.164405 23.10704904 9.74609375 23.09765625 C8.89208984 23.09443359 8.03808594 23.09121094 7.15820312 23.08789062 C6.26037109 23.07951172 5.36253906 23.07113281 4.4375 23.0625 C3.53580078 23.05798828 2.63410156 23.05347656 1.70507812 23.04882812 C-0.53001314 23.03700225 -2.76497437 23.0205222 -5 23 C-4.35541903 19.91640349 -3.70911557 16.83317045 -3.0625 13.75 C-2.88009766 12.87730469 -2.69769531 12.00460938 -2.50976562 11.10546875 C-2.33251953 10.26113281 -2.15527344 9.41679688 -1.97265625 8.546875 C-1.72914429 7.38430176 -1.72914429 7.38430176 -1.48071289 6.19824219 C-1.02691161 4.12306357 -0.51519853 2.06079411 0 0 Z " fill="#090909" transform="translate(190,58)"/>
<path d="M0 0 C6.27 0 12.54 0 19 0 C18.67 1.98 18.34 3.96 18 6 C13.71 6 9.42 6 5 6 C5 6.99 5 7.98 5 9 C8.96 9 12.92 9 17 9 C16.34 10.65 15.68 12.3 15 14 C11.04 14 7.08 14 3 14 C3 14.99 3 15.98 3 17 C6.96 17 10.92 17 15 17 C14.67 18.98 14.34 20.96 14 23 C7.73 23 1.46 23 -5 23 C-3.5038199 15.28891793 -1.79005238 7.64840563 0 0 Z " fill="#0B0B0B" transform="translate(112,58)"/>
<path d="M0 0 C6.27 0 12.54 0 19 0 C18.34 1.98 17.68 3.96 17 6 C12.71 6 8.42 6 4 6 C4 6.99 4 7.98 4 9 C7.96 9 11.92 9 16 9 C15.34 10.65 14.68 12.3 14 14 C13.21753906 14.04898438 12.43507812 14.09796875 11.62890625 14.1484375 C10.61699219 14.22320312 9.60507813 14.29796875 8.5625 14.375 C7.55316406 14.44460937 6.54382813 14.51421875 5.50390625 14.5859375 C4.67761719 14.72257812 3.85132813 14.85921875 3 15 C2.67 15.66 2.34 16.32 2 17 C6.29 17 10.58 17 15 17 C14.67 18.98 14.34 20.96 14 23 C7.73 23 1.46 23 -5 23 C-4.3538246 17.83059676 -3.67951756 13.13794963 -2.5 8.125 C-2.2421875 7.01382813 -1.984375 5.90265625 -1.71875 4.7578125 C-1 2 -1 2 0 0 Z " fill="#0A0A0A" transform="translate(134,58)"/>
<path d="M0 0 C4.60422997 2.2971642 7.293825 5.4985198 9.00390625 10.34375 C9.65109302 15.6136994 8.668177 18.79228747 6.00390625 23.34375 C3.58408995 21.15726237 2.27136049 19.16038564 0.9609375 16.18359375 C0.60966797 15.39017578 0.25839844 14.59675781 -0.10351562 13.77929688 C-0.45994141 12.95494141 -0.81636719 12.13058594 -1.18359375 11.28125 C-1.55162109 10.45302734 -1.91964844 9.62480469 -2.29882812 8.77148438 C-4.99609375 2.62131841 -4.99609375 2.62131841 -4.99609375 0.34375 C-5.65609375 0.34375 -6.31609375 0.34375 -6.99609375 0.34375 C-7.24101563 1.15070312 -7.4859375 1.95765625 -7.73828125 2.7890625 C-9.25740612 7.08224149 -11.15336473 11.11641742 -13.12109375 15.21875 C-13.49363281 16.0025 -13.86617187 16.78625 -14.25 17.59375 C-15.16228372 19.51188499 -16.07876359 21.42802329 -16.99609375 23.34375 C-20.16585867 20.26082796 -21.69247847 18.01363404 -22.49609375 13.59375 C-21.62137638 7.90808708 -17.94376717 4.0282243 -13.68359375 0.34375 C-9.11222329 -1.35722505 -4.6630917 -1.53307124 0 0 Z " fill="#0B0B0B" transform="translate(39.99609375,55.65625)"/>
<path d="M0 0 C6.27 0 12.54 0 19 0 C18.525625 2.454375 18.05125 4.90875 17.5625 7.4375 C17.41498291 8.21150146 17.26746582 8.98550293 17.11547852 9.78295898 C16.11111111 14.88888889 16.11111111 14.88888889 15 16 C12.81360547 16.07258946 10.62499611 16.08373783 8.4375 16.0625 C6.64119141 16.04896484 6.64119141 16.04896484 4.80859375 16.03515625 C3.88175781 16.02355469 2.95492187 16.01195313 2 16 C1.67 18.31 1.34 20.62 1 23 C-0.98 23 -2.96 23 -5 23 C-4.54591873 20.47833533 -4.0868593 17.95774184 -3.625 15.4375 C-3.43550781 14.38079102 -3.43550781 14.38079102 -3.2421875 13.30273438 C-3.11328125 12.60341797 -2.984375 11.90410156 -2.8515625 11.18359375 C-2.73635254 10.54993896 -2.62114258 9.91628418 -2.50244141 9.26342773 C-1.80930376 6.14094033 -0.87869403 3.0754291 0 0 Z " fill="#0C0C0C" transform="translate(212,58)"/>
<path d="M0 0 C-0.66 2.97 -1.32 5.94 -2 9 C0.31 9 2.62 9 5 9 C5.33 6.03 5.66 3.06 6 0 C7.98 0 9.96 0 12 0 C11.63379732 8.11138929 9.58459767 15.33035667 7 23 C5.02 23 3.04 23 1 23 C1.66 20.03 2.32 17.06 3 14 C1.02 14.33 -0.96 14.66 -3 15 C-3.66 17.64 -4.32 20.28 -5 23 C-6.98 23 -8.96 23 -11 23 C-10.50773941 17.97894202 -9.69721697 13.06932062 -8.6875 8.125 C-8.46449219 7.01382813 -8.24148437 5.90265625 -8.01171875 4.7578125 C-7 2 -7 2 -5.08203125 0.6171875 C-3 0 -3 0 0 0 Z " fill="#080808" transform="translate(97,58)"/>
<path d="M0 0 C1.98 0 3.96 0 6 0 C5.36809392 5.7924724 4.3298475 11.32598399 3 17 C6.63 17 10.26 17 14 17 C13.67 18.98 13.34 20.96 13 23 C7.06 23 1.12 23 -5 23 C-3.50411139 15.29042025 -1.79733867 7.64468047 0 0 Z " fill="#0D0D0D" transform="translate(155,58)"/>
<path d="M0 0 C6.6 0 13.2 0 20 0 C19.67 1.98 19.34 3.96 19 6 C16.69 6 14.38 6 12 6 C11.87625 7.134375 11.7525 8.26875 11.625 9.4375 C11.05770917 14.03337785 10.07315212 18.49901249 9 23 C6.69 23 4.38 23 2 23 C3.32 17.39 4.64 11.78 6 6 C4.68 6 3.36 6 2 6 C1.34 4.02 0.68 2.04 0 0 Z " fill="#0B0B0B" transform="translate(168,58)"/>
<path d="M0 0 C0.33 0 0.66 0 1 0 C1.020625 1.299375 1.04125 2.59875 1.0625 3.9375 C1.59872479 9.24109836 4.03211456 12.15678053 7.50390625 16.0546875 C9 18 9 18 9 21 C3.85605871 22.7146471 -1.15485141 22.90374625 -6.0625 20.5 C-6.701875 20.005 -7.34125 19.51 -8 19 C-7.38188466 14.44684052 -5.53234107 10.71540233 -3.4375 6.6875 C-2.9434668 5.71973633 -2.9434668 5.71973633 -2.43945312 4.73242188 C-1.63175745 3.15214772 -0.81662387 1.57567895 0 0 Z " fill="#040404" transform="translate(32,62)"/>
<path d="M0 0 C0.99 0.66 1.98 1.32 3 2 C2.41157717 4.81666361 1.80525764 7.62726432 1.1875 10.4375 C1.02185547 11.23994141 0.85621094 12.04238281 0.68554688 12.86914062 C0.22300247 14.93749958 -0.37976241 16.97333737 -1 19 C-1.99 19.33 -2.98 19.66 -4 20 C-3.67 18.68 -3.34 17.36 -3 16 C-7.29 16 -11.58 16 -16 16 C-15.67 15.01 -15.34 14.02 -15 13 C-13.84371094 12.96132812 -13.84371094 12.96132812 -12.6640625 12.921875 C-11.66117188 12.86515625 -10.65828125 12.8084375 -9.625 12.75 C-8.62726563 12.70359375 -7.62953125 12.6571875 -6.6015625 12.609375 C-5.74304688 12.40828125 -4.88453125 12.2071875 -4 12 C-3.34 10.68 -2.68 9.36 -2 8 C-5.96 8 -9.92 8 -14 8 C-14 7.01 -14 6.02 -14 5 C-7.565 4.505 -7.565 4.505 -1 4 C-0.67 2.68 -0.34 1.36 0 0 Z " fill="#E8E8E8" transform="translate(152,59)"/>
<path d="M0 0 C2.14576637 -0.02685938 4.29162645 -0.04633088 6.4375 -0.0625 C7.63246094 -0.07410156 8.82742187 -0.08570312 10.05859375 -0.09765625 C13 0 13 0 14 1 C13.9355733 2.60773906 13.79831686 4.21283223 13.625 5.8125 C13.53476563 6.68519531 13.44453125 7.55789062 13.3515625 8.45703125 C13 11 13 11 12 15 C17.94 15 23.88 15 30 15 C30 15.33 30 15.66 30 16 C26.87501937 16.02895976 23.7500731 16.04678483 20.625 16.0625 C19.73554688 16.07087891 18.84609375 16.07925781 17.9296875 16.08789062 C16.65351563 16.09272461 16.65351563 16.09272461 15.3515625 16.09765625 C14.17327881 16.10551147 14.17327881 16.10551147 12.97119141 16.11352539 C11 16 11 16 9 15 C9.33 13.02 9.66 11.04 10 9 C6.04 9 2.08 9 -2 9 C-2 8.01 -2 7.02 -2 6 C1.96 6 5.92 6 10 6 C10.33 4.68 10.66 3.36 11 2 C7.37 1.67 3.74 1.34 0 1 C0 0.67 0 0.34 0 0 Z " fill="#D8D8D8" transform="translate(117,66)"/>
<path d="M0 0 C2.31 0 4.62 0 7 0 C6.34 3.63 5.68 7.26 5 11 C2.69 11 0.38 11 -2 11 C-1.125 3.375 -1.125 3.375 0 0 Z " fill="#ECECEC" transform="translate(195,64)"/>
<path d="M0 0 C0.99 0.66 1.98 1.32 3 2 C2.34 5.3 1.68 8.6 1 12 C0.01 11.34 -0.98 10.68 -2 10 C-2 9.34 -2 8.68 -2 8 C-5.96 8 -9.92 8 -14 8 C-14 7.01 -14 6.02 -14 5 C-7.565 4.505 -7.565 4.505 -1 4 C-0.67 2.68 -0.34 1.36 0 0 Z " fill="#DDDDDD" transform="translate(152,59)"/>
<path d="M0 0 C0.33 0.66 0.66 1.32 1 2 C1.66 2 2.32 2 3 2 C1.89309248 8.40593286 0.66054831 14.71363856 -1 21 C0.65 21 2.3 21 4 21 C4 21.33 4 21.66 4 22 C-1.75 22.125 -1.75 22.125 -4 21 C-3.29843593 13.84404654 -1.69214979 6.98144819 0 0 Z " fill="#D7D7D7" transform="translate(87,60)"/>
<path d="M0 0 C0.66 0 1.32 0 2 0 C2.33 1.32 2.66 2.64 3 4 C2.34 4 1.68 4 1 4 C1 6.97 1 9.94 1 13 C0.67 13 0.34 13 0 13 C-0.33 11.35 -0.66 9.7 -1 8 C-3.64 13.61 -6.28 19.22 -9 25 C-10.11728866 20.53084535 -9.8487524 19.94068386 -7.91015625 16.015625 C-7.22856445 14.61376953 -7.22856445 14.61376953 -6.53320312 13.18359375 C-6.04787109 12.21550781 -5.56253906 11.24742188 -5.0625 10.25 C-4.58103516 9.26644531 -4.09957031 8.28289062 -3.60351562 7.26953125 C-2.41280543 4.84095402 -1.21137576 2.41831774 0 0 Z " fill="#CBCBCB" transform="translate(33,56)"/>
<path d="M0 0 C0.99 0 1.98 0 3 0 C4.49051752 1.9645337 5.04749421 3.43939618 4.83837891 5.90771484 C4.40352398 8.19108918 3.87845053 10.43309906 3.3125 12.6875 C3.13783203 13.47189453 2.96316406 14.25628906 2.78320312 15.06445312 C2.23828125 17.32421875 2.23828125 17.32421875 1 21 C0.01 21.33 -0.98 21.66 -2 22 C-1.29843593 14.84404654 0.30785021 7.98144819 2 1 C1.34 0.67 0.68 0.34 0 0 Z " fill="#D9D9D9" transform="translate(107,57)"/>
<path d="M0 0 C0.99 0 1.98 0 3 0 C2.34 2.97 1.68 5.94 1 9 C-3.95 8.67 -8.9 8.34 -14 8 C-14 7.34 -14 6.68 -14 6 C-9.71 6 -5.42 6 -1 6 C-0.67 4.02 -0.34 2.04 0 0 Z " fill="#F1F1F1" transform="translate(131,58)"/>
<path d="M0 0 C0.33 0 0.66 0 1 0 C0.27637073 6.39205856 -0.80343362 12.68027076 -2 19 C-2.99 18.67 -3.98 18.34 -5 18 C-3.7 3.7 -3.7 3.7 0 0 Z " fill="#E6E6E6" transform="translate(210,60)"/>
<path d="M0 0 C1.98 0 3.96 0 6 0 C6 1.65 6 3.3 6 5 C3.69 5 1.38 5 -1 5 C-0.67 3.35 -0.34 1.7 0 0 Z " fill="#FCFCFC" transform="translate(217,64)"/>
<path d="M0 0 C0.99 0 1.98 0 3 0 C4.125 1.5625 4.125 1.5625 5 4 C4.125 7.75 4.125 7.75 3 11 C2.34 11 1.68 11 1 11 C1.33 7.7 1.66 4.4 2 1 C1.34 0.67 0.68 0.34 0 0 Z " fill="#E5E5E5" transform="translate(107,57)"/>
<path d="M0 0 C0.33 0.66 0.66 1.32 1 2 C1.66 2 2.32 2 3 2 C2.67 4.31 2.34 6.62 2 9 C1.01 8.67 0.02 8.34 -1 8 C-0.67 5.36 -0.34 2.72 0 0 Z " fill="#C8C8C8" transform="translate(206,70)"/>
</svg>
