<?xml version="1.0" encoding="utf-8"?>
<!-- Generator: Adobe Illustrator 27.5.0, SVG Export Plug-In . SVG Version: 6.00 Build 0)  -->
<svg version="1.1" id="Layer_1" xmlns="http://www.w3.org/2000/svg" xmlns:xlink="http://www.w3.org/1999/xlink" x="0px" y="0px"
	 viewBox="0 0 359 105.2" style="enable-background:new 0 0 359 105.2;" xml:space="preserve">
<style type="text/css">
	.st0{fill:#C22027;}
</style>
<g>
	<polygon class="st0" points="42.6,4.2 30,22.4 27,4.2 4.4,4.2 14.1,43.5 4.4,55.7 30.6,55.7 68.2,4.2 	"/>
	<polygon class="st0" points="108.2,55.7 121,4.2 142.7,4.2 138.5,23.3 153.5,4.2 180.9,4.2 156.2,32.7 166.5,55.7 141.8,55.7 
		134.6,37.8 130.1,55.7 	"/>
	<polygon class="st0" points="168.9,55.7 191.1,55.7 203.8,4.2 181.5,4.2 	"/>
	<polygon class="st0" points="195.4,55.7 208,4.2 237.5,4.2 238.7,28.4 252.5,4.2 281.4,4.2 269.1,55.7 247.4,55.7 252.2,33.8 
		237.8,55.7 225.7,55.7 223,33.8 217.3,55.7 	"/>
	<polygon class="st0" points="270,55.7 300.5,4.2 338.1,4.2 338.1,55.7 299,55.7 308.9,39.8 316.5,39.8 316.5,20 294.5,55.7 	"/>
	<polygon class="st0" points="39.4,55.7 70,4.2 107.6,4.2 107.6,55.7 68.4,55.7 78.4,39.6 85.9,39.6 85.9,19.7 63.9,55.7 	"/>
	<path class="st0" d="M347.8,9.2v-2h1.3c0.7,0,1.4,0.1,1.4,0.9c0,1-0.7,1-1.6,1H347.8z M347.8,10.1h1.1l1.7,2.8h1.1l-1.8-2.8
		c0.9-0.1,1.7-0.6,1.7-1.8c0-1.3-0.8-1.8-2.3-1.8h-2.4v6.4h1V10.1z M349,15.2c3,0,5.6-2.4,5.6-5.6c0-3.2-2.6-5.5-5.6-5.5
		c-3.1,0-5.6,2.4-5.6,5.5C343.3,12.8,345.9,15.2,349,15.2 M344.4,9.6c0-2.6,2-4.6,4.5-4.6c2.5,0,4.5,2,4.5,4.6c0,2.7-2,4.6-4.5,4.6
		C346.4,14.3,344.4,12.3,344.4,9.6"/>
	<path class="st0" d="M295.5,91v4.6h-2.4v5.1h12.6v-5.1h-2.1v-5.2c0,0,2.5-4.2,3.4-5.7c0.6-0.9,1.3-2.2,3.1-2.2h0.6v-5h-9v5h0.8
		c0.8,0,1.1,0.3,1.1,0.6c0,0.3-0.3,0.9-0.5,1.3l-1.5,2.3h-0.1l-3.1-4.3h1.5v-5l-12.6,0v5h1.8L295.5,91z M271.3,92
		c1.5,0.4,2.7,0.9,3.8,1.2c1.1,0.3,1.7,0.9,1.7,1.5c0,0.8-0.6,1.2-1.7,1.2c-1.5,0-3-1.5-3.6-2.7h-4.4v7.5h4.5l0.6-1.3
		c1.5,1.1,2.7,1.6,4.7,1.6c4.1,0,7.3-2.4,7.3-7.2c0-3.8-2.2-6.9-6.1-8c-2-0.6-4.7-0.9-4.7-2.4c0-0.6,0.5-0.9,1.3-0.9
		c1.9,0,3.1,1.5,3.6,2.9h4v-7.9h-3.8l-0.4,1.3c-1.3-1-2.5-1.6-4.3-1.6c-4.9,0-7.2,3.8-7.2,7.8C266.5,89.2,268.6,91.2,271.3,92
		 M247.5,82.9l1.5,5.7h-3.2L247.5,82.9L247.5,82.9z M246.5,100.7v-5.1c-1.3,0-2-0.3-2-1.5c0-0.4,0.3-1.2,0.3-1.2h5l0.7,2.6h-2.1v5.1
		h12.8v-5.1h-1.8l-5.1-18.1h-14.4v5h3.2c0,0-1.9,5.5-3.4,10.1c-0.8,2.4-1.3,3-2.6,3h-0.7v5.1H246.5z M229.5,90.5H226l-1.7,5.1h-3.2
		v-4.4h3.1v-4.8h-3.1v-3.9h2.8l1.5,4.1h3.7v-9.1h-18.5v5h2.1v13.1h-2.1v5.1h18.8V90.5z M177.2,86.4l0.9-3.9h1.6v13.1h-2.1v5.1h12.8
		v-5.1h-2.2V82.5h1.7l1,3.9h3.6v-8.9h-20.8v8.9H177.2z M157.3,82.5v13.1h-2v5.1h12.5v-5.1h-2V82.5h2v-5h-12.5v5H157.3z M134.7,90.5
		h-3.5l-1.7,5.1h-3.2v-4.4h3.1v-4.8h-3.1v-3.9h2.8l1.5,4.1h3.7v-9.1h-18.5v5h2v13.1h-2v5.1h18.8V90.5z M97.2,91.7
		c2.4,0,3.2,1,3.2,2.9v2c0,2.9,1.5,4.2,4.5,4.2h4.9v-5.2c-1.6,0-2.1-0.3-2.1-1.7v-2c0-2.8-1.2-3.8-3.8-3.8h-1.6v0l4.9-5.5h1.9v-5
		h-8.9v5L96,87.3h-0.1v-4.8h2v-5H85.4v5h2.1v13.1h-2.1v5.1h12.3v-5.1h-1.8v-3.9H97.2z M66.7,82.9l1.5,5.7H65L66.7,82.9L66.7,82.9z
		 M65.7,100.7v-5.1c-1.3,0-2.1-0.3-2.1-1.5c0-0.4,0.3-1.2,0.3-1.2h5l0.7,2.6h-2.1v5.1h12.8v-5.1h-1.8l-5.1-18.1H59.1v5h3.2
		c0,0-1.9,5.5-3.4,10.1c-0.8,2.4-1.3,3-2.6,3h-0.7v5.1H65.7z M33.9,86.4l0.9-3.9h1.6v13.1h-2.2v5.1h12.8v-5.1h-2.2V82.5h1.7l1,3.9
		h3.6v-8.9H30.3v8.9H33.9z"/>
</g>
</svg>
