<?xml version="1.0" encoding="utf-8"?>
<!-- Generator: Adobe Illustrator 27.5.0, SVG Export Plug-In . SVG Version: 6.00 Build 0)  -->
<svg version="1.1" id="Capa_1" xmlns="http://www.w3.org/2000/svg" xmlns:xlink="http://www.w3.org/1999/xlink" x="0px" y="0px"
	 viewBox="0 0 486.8 50.5" style="enable-background:new 0 0 486.8 50.5;" xml:space="preserve">
<g>
	<path d="M148.4,30.4c-0.6,0.4-0.8,0.7-1.1,0.8c-8.9,5.1-17.8,10.1-26.7,15.2c-1.3,0.7-2.6,1-4,1c-36.8,0-73.7-0.1-110.5-0.1
		c-1.4,0-2.7,0-4.1,0c0-2.6-0.1-5.1,0-7.7c0.1-3,0.2-3,3.1-3.7C25,31,44.9,26,64.9,21.1c14.3-3.6,28.7-7.1,43-10.7
		c2.6-0.7,5.3-1.3,7.9-2.2c-1.2,0-2.4,0-3.7,0c-4.5,0-9.1-0.1-13.6,0.1c-7.2,0.3-14.4,0.9-21.6,1.4c-11.8,0.8-23,4.4-34.2,8
		c-0.7,0.2-1.4,0.5-2,0.5c-4.6,0-9.1,0-13.8,0c0.3-0.2,0.7-0.5,1.1-0.8c7.9-4.7,15.8-9.5,23.7-14.2c0.5-0.3,1.1-0.4,1.6-0.4
		c2-0.1,4,0,6,0c36.6,0,73.3,0,109.9,0c0.5,0,1.1,0,1.8,0c-0.3,0.3-0.4,0.6-0.7,0.8c-4.5,4-8.9,8-13.4,11.9
		c-0.7,0.6-1.7,1.2-2.7,1.4c-19.8,4.7-39.5,9.4-59.3,14.2c-12.6,3-25.1,6-37.7,9c-2,0.5-4.1,1-6.5,1.5c0.7,0.1,1.1,0.2,1.5,0.2
		c9.4,0,18.8,0.1,28.2-0.2c9.9-0.3,19.7-1.7,29.4-3.6c7.9-1.5,15.5-4,22.9-7.1c0.6-0.2,1.2-0.5,1.8-0.5
		C139,30.4,143.5,30.4,148.4,30.4z"/>
	<path d="M372.1,9.3c-2.6-1.2-5-0.6-7.5-0.9c1.3-1.3,2.5-2.5,3.6-3.8c1.1-1.3,2.5-1.7,4.2-1.7c27.2,0.1,54.4,0.1,81.6,0.2
		c7.1,0,14.2,0.4,21.2,1.9c1.9,0.4,3.8,1.1,5.7,1.8c0.8,0.3,1.6,0.9,2.3,1.5c1.8,1.5,2.2,3.4,1,5.3c-0.8,1.3-1.9,2.5-3,3.4
		c-3.4,2.9-7.6,4.3-11.8,5.8c-8.1,2.8-16.6,4.1-25.1,5c-16.3,1.6-32.6,1.2-49,1.2c-2.3,0-4,0.6-5.6,2.2c-2.6,2.7-5.3,5.1-8,7.7
		c-0.5,0.5-0.7,1.1-1.1,1.7c0.6,0.3,1.2,0.8,1.8,0.9c2.6,0.3,5.3,0.5,7.9,0.7c0.3,0,0.6,0,1.3,0.1c-0.9,0.8-1.7,1.4-2.3,2.2
		c-2.2,2.7-5,3.3-8.4,3.3c-19.2-0.2-38.4-0.1-57.6-0.1c-0.3,0-0.6-0.1-1.2-0.1c2-1.8,3.6-3.5,5.5-4.9c0.9-0.7,2.3-0.6,3.4-0.9
		c1.6-0.4,3.2-0.7,4.7-1.1c3.2-0.8,5.9-2.7,8.2-4.9c8.8-8.2,17.6-16.5,26.5-24.7C371,10.6,371.5,10,372.1,9.3z M397.4,24.9
		c0,0.1,0.1,0.2,0.1,0.3c21.4-5.3,42.7-10.7,64.1-16c0-0.1,0-0.2-0.1-0.3c-2,0-3.9,0-5.9,0c-14,0.1-28,0.5-41.9,2.7
		c-1.3,0.2-2.7,0.3-3.8,1.4c-3.3,3.2-6.6,6.3-9.9,9.5C399.2,23.2,398.3,24,397.4,24.9z"/>
	<path d="M197.5,47.3c1.8-1.7,3.5-3.4,5.2-5c0.3-0.3,0.9-0.4,1.4-0.5c2-0.4,3.9-0.7,5.9-1.1c3.2-0.7,6-2.1,8.4-4.4
		c9.3-8.7,18.6-17.4,27.9-26.1c0.3-0.3,0.7-0.5,1.4-1C245,7.7,242.5,8.5,240,8c1-1,2.1-1.8,2.9-2.8c1.7-2.1,3.7-2.5,6.3-2.5
		c24.2,0.1,48.5,0,72.7,0.1c7.6,0,15.1,0.5,22.7,1c3.7,0.2,7.4,1,10.9,2.5c5.4,2.3,6.1,5.8,1.8,9.8c-2.8,2.6-6.1,4.2-9.6,5.6
		c-7,2.8-14.3,4.2-21.7,5.2c-15.6,2-31.3,1.8-47.1,1.8c-3.6,0-7.1-0.1-10.7,0c-0.4,0-1,0.2-1.3,0.5c-3.3,3.2-6.6,6.3-9.8,9.5
		c-0.4,0.4-0.8,0.9-1.4,1.7c1.1,0.4,2,0.9,3,1c2.3,0.3,4.6,0.4,7,0.5c0.4,0,0.7,0,1.2,0.3c-0.7,0.6-1.4,1.2-2,1.9
		c-2.3,2.7-5.1,3.3-8.6,3.2c-17.3-0.2-34.5-0.1-51.8-0.1c-2,0-3.9,0-5.9,0.1C198.2,47.4,198,47.3,197.5,47.3z M336.1,9.2
		c-0.4-0.2-0.5-0.2-0.6-0.2c-1.7,0-3.5,0-5.2,0c-14.5,0-29,0.4-43.3,2.8c-0.9,0.1-1.9,0.6-2.6,1.3c-3.8,3.5-7.5,7-11.3,10.5
		c-0.6,0.5-1.1,1.1-1.9,1.9C293,20,314.4,14.7,336.1,9.2z"/>
	<path d="M196.6,42.3c-1.9,1.7-3.6,3.3-5.4,4.9c-0.3,0.2-0.9,0.2-1.3,0.2c-15.2,0-30.4,0-45.6,0c-4.8,0-9.6,0.1-14.3,0.1
		c-0.5,0-1,0-1.8,0c2-1.9,3.6-3.8,5.5-5.1c1.1-0.7,2.9-0.5,4.3-0.8c1.7-0.3,3.5-0.4,5.2-0.8c3.1-0.6,5.9-2,8.2-4.2
		c8.6-8.1,17.3-16.2,25.9-24.4c0.3-0.3,0.7-0.6,1-1c0.4-0.5,0.7-1,1-1.5c-0.6-0.3-1.2-0.9-1.8-1c-1.9-0.3-3.9-0.4-5.8-0.7
		c-0.2,0-0.4-0.1-0.9-0.2c1.9-1.8,3.6-3.5,5.4-5c0.4-0.3,1.2-0.2,1.8-0.2c18.1,0,36.3,0,54.4,0c2.2,0,4.3,0,6.6,0
		c-0.1,0.3-0.1,0.5-0.2,0.6c-1.4,1.3-2.8,2.7-4.3,3.9c-0.6,0.5-1.4,0.9-2.2,1c-2.9,0.5-5.7,0.9-8.6,1.4c-2.6,0.5-4.7,1.9-6.7,3.7
		c-6.9,6.5-13.8,13-20.8,19.5c-2.3,2.2-4.7,4.3-6.9,6.4c-1.2,1.1-1,1.9,0.7,2.2C192,41.9,194.2,42,196.6,42.3z"/>
</g>
</svg>
